<?xml version="1.0" encoding="utf-8"?>
<!-- Generator: Adobe Illustrator 25.0.0, SVG Export Plug-In . SVG Version: 6.00 Build 0)  -->
<svg version="1.1" id="Layer_1" xmlns="http://www.w3.org/2000/svg" xmlns:xlink="http://www.w3.org/1999/xlink" x="0px" y="0px"
	 viewBox="0 0 1203.4 1000.4" style="enable-background:new 0 0 1203.4 1000.4;" xml:space="preserve">
<style type="text/css">
	.st0{fill:#5664EC;}
	.st1{fill:#36393F;}
	.st2{fill:#2F3136;}
	.st3{fill:#292841;}
	.st4{fill:#B9BBBE;}
	.st5{fill:#FFFFFF;}
	.st6{fill:#ED4245;}
	.st7{fill:#F6F6F6;}
	.st8{fill:#5865F2;}
	.st9{fill:#57F287;}
	.st10{fill:#FEE75C;}
	.st11{fill:#EB459E;}
	.st12{fill:#4FDC7C;}
	.st13{opacity:0.24;fill:#B9BBBE;enable-background:new    ;}
	.st14{opacity:0.5;fill:#292841;}
	.st15{opacity:0.5;fill:#FFFFFF;}
	.st16{opacity:0.5;fill:#B9BBBE;}
	.st17{opacity:0.5;fill:#ED4245;}
	.st18{opacity:0.5;fill:#5865F2;}
	.st19{fill:#C2905B;}
	.st20{fill:#9FB35B;}
	.st21{fill:#A17548;}
	.st22{enable-background:new    ;}
	.st23{fill:#523C25;}
	.st24{fill:#725333;}
	.st25{fill:#8D663F;}
	.st26{fill:#606060;}
	.st27{fill:none;}
	.st28{opacity:0.43;}
	.st29{opacity:0.24;fill:url(#SVGID_1_);enable-background:new    ;}
</style>
<path class="st0" d="M352.9,389.2l-45.7-27.1v-62.9h-22.7v76l64.5,38.3l9.5-15.9l2.3-3.6L352.9,389.2z M436.3,353.5
	c-3.3-70.1-60-126.8-130.1-130.1c-41.9-1.9-80,15.1-106.2,43.2c-17.5,18.7-29.8,42.3-34.7,68.5c-1.5,8-2.3,16.3-2.3,24.7h-45.6
	l59.1,59l1,2.1l51.2-51.1l10.2-10h-45.6c0-4,0.3-7.9,0.6-11.8c3-27,16.1-50.8,35.3-67.9c19.7-17.5,45.8-27.6,74.4-26.5
	c55.1,2,100.1,47,102.1,102.1c1.1,29.3-9.5,56-27.7,75.8c-17.3,19-41.6,31.6-68.7,34.1c-3.3,0.3-6.5,0.5-9.8,0.5
	c-29.3,0-55.9-12.1-75-31.3l-21.6,21.6c24.7,24.7,58.8,40,96.5,40c7.5,0,15.1-0.6,22.2-1.8c26.5-4.4,50.3-16.3,69.4-33.5
	C420.5,435,438.2,396.3,436.3,353.5z M352.9,389.2c1.9,2.8,3.8,5.5,5.6,8.3l2.3-3.6L352.9,389.2z M307.3,299.3h-22.7v17.1
	c7.9,6.3,15.4,12.9,22.7,19.8V299.3z"/>
<path class="st3" d="M1006.4,376.5v273.4c0,9.1-7.4,16.6-16.5,16.6c0,0,0,0,0,0H363c-9.1,0-16.6-7.4-16.6-16.6c0,0,0,0,0,0V376.5
	c0-9.1,7.4-16.6,16.6-16.6c0,0,0,0,0,0h626.8C999,360,1006.4,367.4,1006.4,376.5z"/>
<path class="st5" d="M491.4,474.4c-1.4-0.8-2.6-2-3.3-3.5c-0.8-1.7-1.2-3.6-1.1-5.5v-17.5h3.8v17.7c-0.1,1.7,0.4,3.4,1.5,4.6
	c1.1,1.1,2.7,1.7,4.3,1.6c1.6,0.1,3.2-0.5,4.3-1.6c1.1-1.3,1.6-3,1.5-4.6v-17.7h3.9v17.5c0.1,1.9-0.3,3.8-1.1,5.5
	c-0.7,1.5-1.9,2.7-3.3,3.5C498.5,476,494.7,476,491.4,474.4z"/>
<path class="st5" d="M515.8,475.3c-1-0.2-1.9-0.6-2.8-1c-0.9-0.5-1.7-1-2.4-1.7l2.3-2.8c1,0.7,2,1.4,3.2,1.8c1,0.4,2,0.6,3.1,0.6
	c1.2,0.1,2.4-0.2,3.4-0.7c0.7-0.4,1.2-1.3,1.1-2.1c0-0.5-0.2-1.1-0.6-1.4c-0.5-0.3-1-0.6-1.5-0.6c-0.6-0.1-1.5-0.2-2.6-0.3h-0.3
	h-0.3h-0.3c-1.1-0.1-2.2-0.3-3.2-0.6c-0.9-0.3-1.6-0.8-2.2-1.5c-0.7-0.9-1-2.1-0.9-3.2c0-1.2,0.2-2.4,0.8-3.5
	c0.6-0.9,1.5-1.7,2.5-2.1c1.3-0.5,2.8-0.7,4.2-0.7c1,0,2,0.1,2.9,0.3c0.9,0.2,1.8,0.5,2.7,0.8c0.9,0.4,1.7,0.9,2.4,1.4l-2.3,2.8
	c-0.9-0.6-1.9-1.1-2.9-1.4c-0.9-0.3-1.8-0.5-2.8-0.5c-1-0.1-2,0.2-2.9,0.7c-0.7,0.5-1,1.2-1,2c0,0.5,0.2,0.9,0.6,1.2
	c0.4,0.3,0.9,0.5,1.4,0.5c0.6,0.1,1.4,0.2,2.4,0.2c0.1,0,0.2,0,0.2,0h0.3h0.2c0,0,0.1,0,0.1,0c1.2,0.1,2.4,0.2,3.5,0.5
	c1,0.3,1.8,0.9,2.4,1.6c0.7,1,1.1,2.3,1,3.6c0,1.2-0.3,2.4-0.9,3.5c-0.7,1-1.6,1.7-2.7,2.1c-1.5,0.5-3,0.7-4.6,0.7
	C518,475.6,516.9,475.5,515.8,475.3z"/>
<path class="st5" d="M535.6,474.6c-1.3-0.7-2.3-1.7-2.9-3c-0.7-1.5-1.1-3.1-1-4.8v-2.2c0-1.7,0.3-3.4,1-5c0.6-1.3,1.6-2.4,2.8-3.1
	c1.4-0.7,2.9-1.1,4.5-1.1c1.5,0,3,0.4,4.2,1.2c1.2,0.9,2.1,2.1,2.6,3.5c0.6,1.8,1,3.7,0.9,5.6v1.3h-13.2V464h9.6
	c0-1.3-0.5-2.6-1.2-3.7c-0.7-0.9-1.8-1.4-2.9-1.3c-1.3-0.1-2.5,0.5-3.4,1.4c-0.9,1.2-1.3,2.6-1.2,4.1v2.5c-0.1,1.4,0.4,2.7,1.3,3.7
	c1,0.9,2.3,1.4,3.6,1.3c0.8,0,1.6-0.2,2.3-0.5c0.8-0.3,1.5-0.8,2.1-1.3l2.5,2.5c-0.9,0.9-2,1.6-3.3,2.2c-1.1,0.5-2.4,0.8-3.6,0.8
	C538.6,475.7,537,475.3,535.6,474.6z"/>
<path class="st5" d="M552.9,455.7h3.8v19.7h-3.8V455.7z M562.4,459.4c-0.6-0.2-1.2-0.3-1.8-0.3c-1-0.1-2.1,0.3-2.8,1
	c-0.7,0.8-1.1,1.8-1,2.8l-0.4-3.8c0.5-1.1,1.3-2,2.3-2.7c0.9-0.6,2-1,3.2-1c0.8,0,1.6,0.1,2.4,0.4c0.7,0.2,1.3,0.6,1.9,1.1l-2.5,3.4
	C563.4,460,562.9,459.6,562.4,459.4L562.4,459.4z"/>
<path class="st5" d="M584.2,474.4c-1.4-0.8-2.6-2.1-3.3-3.6c-0.8-1.7-1.2-3.5-1.2-5.4v-7.5c0-1.9,0.4-3.7,1.2-5.4
	c0.7-1.5,1.9-2.8,3.3-3.6c1.5-0.9,3.3-1.3,5-1.3c1.5,0,3,0.3,4.3,1c1.3,0.7,2.5,1.7,3.3,2.9c0.9,1.3,1.5,2.7,1.8,4.3h-3.9
	c-0.2-0.8-0.6-1.6-1.2-2.3c-0.5-0.7-1.2-1.2-2-1.6c-1.7-0.8-3.7-0.7-5.3,0.3c-0.9,0.6-1.5,1.3-2,2.3c-0.5,1.1-0.7,2.2-0.7,3.4v7.5
	c0,1.2,0.2,2.3,0.7,3.4c0.4,0.9,1.1,1.7,2,2.3c0.9,0.5,1.9,0.8,2.9,0.8c0.8,0,1.6-0.2,2.4-0.5c0.8-0.3,1.4-0.9,2-1.5
	c0.6-0.7,1-1.5,1.2-2.4h3.9c-0.3,1.5-0.9,3-1.8,4.3c-0.9,1.2-2,2.2-3.3,2.9c-1.3,0.7-2.8,1-4.3,1
	C587.4,475.6,585.7,475.2,584.2,474.4z"/>
<path class="st5" d="M607.6,467.7c-0.1,1.2,0.3,2.3,1,3.2c0.8,0.8,1.9,1.2,3,1.1c1.1,0.1,2.1-0.3,2.9-1c0.7-0.8,1.1-1.8,1-2.8
	l0.3,4.1c-0.4,1-1.1,1.8-2,2.4c-1,0.7-2.1,1-3.3,1c-1.9,0.1-3.8-0.7-5-2.1c-1.3-1.7-1.9-3.8-1.8-5.9v-11.9h3.9L607.6,467.7z
	 M615.6,455.7h3.8v19.7h-3.8V455.7z"/>
<path class="st5" d="M628.9,475.3c-1-0.2-1.9-0.6-2.8-1c-0.9-0.5-1.7-1-2.4-1.7l2.3-2.8c1,0.8,2,1.4,3.2,1.8c1,0.4,2,0.6,3.1,0.6
	c1.2,0.1,2.4-0.2,3.4-0.7c0.7-0.4,1.2-1.3,1.1-2.1c0-0.5-0.2-1.1-0.6-1.4c-0.5-0.3-1-0.6-1.6-0.6c-0.6-0.1-1.5-0.2-2.6-0.3h-0.3
	h-0.3H631c-1.1-0.1-2.2-0.3-3.2-0.6c-0.9-0.3-1.6-0.8-2.2-1.5c-0.7-0.9-1-2.1-0.9-3.2c0-1.2,0.3-2.4,0.8-3.5
	c0.6-0.9,1.5-1.7,2.5-2.1c1.3-0.5,2.8-0.7,4.2-0.7c1,0,2,0.1,2.9,0.3c0.9,0.2,1.8,0.5,2.7,0.8c0.9,0.4,1.7,0.9,2.4,1.4l-2.3,2.8
	c-0.9-0.6-1.9-1.1-2.9-1.4c-0.9-0.3-1.8-0.5-2.8-0.5c-1-0.1-2,0.2-2.9,0.7c-0.7,0.5-1,1.2-1,2c0,0.5,0.2,0.9,0.6,1.2
	c0.4,0.3,0.9,0.5,1.4,0.5c0.6,0.1,1.4,0.2,2.4,0.2c0.1,0,0.2,0,0.2,0h0.3h0.1c0,0,0.1,0,0.1,0c1.2,0.1,2.4,0.2,3.5,0.5
	c1,0.3,1.8,0.9,2.4,1.6c0.7,1,1.1,2.3,1,3.6c0,1.2-0.3,2.4-0.9,3.5c-0.7,1-1.6,1.7-2.7,2.1c-1.5,0.5-3,0.7-4.6,0.7
	C631.1,475.6,630,475.5,628.9,475.3z"/>
<path class="st5" d="M643.8,455.7h8.8v3.5h-8.8V455.7z M646.9,474.1c-0.8-1.1-1.2-2.5-1.1-3.9V450h3.9v20.2c0,0.4,0.1,0.8,0.3,1.1
	c0.2,0.3,0.5,0.4,0.8,0.4h1.9v3.7h-2.2C649.1,475.6,647.8,475.1,646.9,474.1z"/>
<path class="st5" d="M661.1,474.6c-1.2-0.7-2.2-1.7-2.8-2.9c-0.7-1.4-1-3-1-4.6v-3.2c0-1.6,0.3-3.1,1-4.5c0.6-1.3,1.6-2.3,2.8-3
	c2.8-1.3,6-1.3,8.7,0c1.2,0.7,2.2,1.7,2.8,2.9c0.7,1.4,1,3,1,4.5v3.2c0,1.6-0.3,3.1-1,4.6c-0.6,1.2-1.6,2.2-2.8,2.9
	C667.1,475.9,663.9,475.9,661.1,474.6L661.1,474.6z M668.6,470.7c0.8-1,1.2-2.3,1.1-3.5v-3.2c0.1-1.3-0.3-2.5-1.1-3.5
	c-1.7-1.7-4.5-1.7-6.3,0c-0.8,1-1.2,2.3-1.1,3.5v3.2c-0.1,1.3,0.3,2.5,1.1,3.5C664.1,472.4,666.9,472.4,668.6,470.7z"/>
<path class="st5" d="M679,455.7h3.8v19.7H679V455.7z M690.7,463.5c0.1-1.2-0.3-2.3-1-3.2c-0.8-0.8-1.8-1.2-2.9-1.1
	c-1.1-0.1-2.1,0.3-2.9,1c-0.7,0.8-1.1,1.8-1,2.8l-0.4-3.8c0.5-1.1,1.4-2,2.4-2.7c1-0.6,2.1-1,3.2-1c1.2,0,2.5,0.3,3.5,0.9
	c1,0.7,1.8,1.6,2.2,2.7c0.5,1.4,0.8,2.8,0.8,4.3v12h-3.8L690.7,463.5z M702.5,463.5c0.1-1.2-0.3-2.3-1.1-3.2c-0.8-0.8-1.9-1.2-3-1.1
	c-1-0.1-2.1,0.3-2.8,1.1c-0.7,0.9-1.1,2-1,3.1l-0.8-3.8c0.5-1.2,1.4-2.2,2.4-3c1-0.7,2.1-1.1,3.3-1.1c1.3-0.1,2.5,0.3,3.6,0.9
	c1,0.6,1.8,1.6,2.3,2.7c0.5,1.4,0.8,2.8,0.8,4.3v12h-3.8L702.5,463.5z"/>
<path class="st5" d="M712.1,447.9h3.9v3.9h-3.9V447.9z M712.1,455.7h3.9v19.7h-3.9V455.7z"/>
<path class="st5" d="M735.4,459l-9.4,12.8h9.9v3.6h-14.6v-3.3l9.7-12.7h-9.4v-3.6h13.8V459z"/>
<path class="st5" d="M744.4,474.6c-1.3-0.7-2.3-1.7-2.9-3c-0.7-1.5-1-3.1-1-4.8v-2.2c0-1.7,0.3-3.4,1-5c0.6-1.3,1.6-2.4,2.8-3.1
	c1.4-0.7,2.9-1.1,4.5-1.1c1.5,0,3,0.4,4.2,1.2c1.2,0.9,2.1,2.1,2.7,3.5c0.6,1.8,1,3.7,0.9,5.6v1.3h-13.2V464h9.6
	c0-1.3-0.5-2.6-1.2-3.7c-0.7-0.9-1.8-1.4-2.9-1.3c-1.3-0.1-2.5,0.5-3.4,1.4c-0.9,1.2-1.3,2.6-1.2,4.1v2.5c-0.1,1.4,0.4,2.7,1.3,3.7
	c1,0.9,2.3,1.4,3.6,1.3c0.8,0,1.6-0.2,2.3-0.5c0.8-0.3,1.5-0.8,2.1-1.3l2.6,2.5c-0.9,0.9-2.1,1.6-3.3,2.2c-1.1,0.5-2.4,0.8-3.6,0.8
	C747.4,475.7,745.8,475.3,744.4,474.6z"/>
<path class="st5" d="M764.2,474.8c-1-0.6-1.8-1.6-2.3-2.7c-0.6-1.4-0.8-2.8-0.8-4.3v-4.3c0-1.5,0.2-3,0.8-4.3
	c0.5-1.1,1.2-2.1,2.3-2.7c1.1-0.6,2.3-1,3.6-0.9c1.1,0,2.2,0.3,3.2,0.9c1,0.6,1.8,1.5,2.3,2.6l-0.4,4c0-0.7-0.1-1.5-0.5-2.1
	c-0.3-0.6-0.7-1.1-1.3-1.4c-0.6-0.3-1.4-0.5-2.1-0.5c-1.1-0.1-2.2,0.4-3,1.2c-0.7,0.9-1.1,2.1-1,3.3v4.3c-0.1,1.2,0.3,2.4,1,3.3
	c0.8,0.8,1.9,1.2,3,1.2c0.7,0,1.4-0.1,2.1-0.5c0.6-0.3,1-0.8,1.3-1.4c0.3-0.7,0.5-1.4,0.5-2.2l0.3,4.1c-0.4,1-1.1,1.8-1.9,2.4
	c-1,0.7-2.1,1-3.3,1C766.7,475.8,765.4,475.4,764.2,474.8z M772.8,447.9h3.8v27.5h-3.9L772.8,447.9z"/>
<path class="st4" d="M427.1,411.3c-1-0.6-1.8-1.4-2.3-2.5c-0.6-1.2-0.8-2.5-0.8-3.9v-12.3h2.7v12.4c-0.1,1.2,0.3,2.3,1.1,3.3
	c0.8,0.8,1.9,1.2,3,1.2c1.1,0.1,2.2-0.4,3-1.2c0.8-0.9,1.1-2.1,1.1-3.3v-12.4h2.7V405c0,1.3-0.2,2.7-0.8,3.9c-0.5,1-1.3,1.9-2.3,2.5
	c-1.1,0.6-2.4,0.9-3.7,0.8C429.5,412.2,428.2,411.9,427.1,411.3z"/>
<path class="st4" d="M444.2,411.9c-0.7-0.2-1.4-0.4-2-0.7c-0.6-0.3-1.2-0.7-1.7-1.2l1.6-2c0.7,0.5,1.4,1,2.2,1.3
	c0.7,0.3,1.4,0.4,2.2,0.4c0.8,0.1,1.7-0.1,2.4-0.5c0.5-0.3,0.8-0.9,0.8-1.5c0-0.4-0.1-0.8-0.4-1c-0.3-0.2-0.7-0.4-1.1-0.4
	c-0.4-0.1-1-0.1-1.8-0.2h-0.2H446h-0.2c-0.8,0-1.5-0.2-2.3-0.4c-0.6-0.2-1.2-0.6-1.6-1.1c-0.4-0.7-0.7-1.4-0.6-2.2
	c0-0.8,0.2-1.7,0.6-2.4c0.4-0.7,1.1-1.2,1.8-1.5c0.9-0.3,2-0.5,3-0.5c0.7,0,1.4,0.1,2,0.2c1.3,0.2,2.5,0.8,3.6,1.6l-1.6,2
	c-0.6-0.4-1.3-0.8-2-1c-0.6-0.2-1.3-0.3-1.9-0.3c-0.7-0.1-1.4,0.1-2.1,0.5c-0.5,0.3-0.7,0.9-0.7,1.4c0,0.3,0.1,0.6,0.4,0.8
	c0.3,0.2,0.6,0.3,1,0.4c0.6,0.1,1.1,0.1,1.7,0.2h0.2h0.3h0.1c0.8,0,1.7,0.2,2.5,0.4c0.7,0.2,1.3,0.6,1.7,1.2
	c0.5,0.7,0.7,1.6,0.7,2.5c0,0.9-0.2,1.7-0.6,2.5c-0.5,0.7-1.1,1.2-1.9,1.5c-1,0.4-2.1,0.5-3.2,0.5
	C445.8,412.2,445,412.1,444.2,411.9z"/>
<path class="st4" d="M458.1,411.4c-0.9-0.5-1.6-1.2-2.1-2.1c-0.5-1-0.7-2.2-0.7-3.3v-1.6c0-1.2,0.2-2.4,0.7-3.5
	c0.4-0.9,1.1-1.7,1.9-2.2c1-0.5,2-0.8,3.1-0.8c1.1,0,2.1,0.3,2.9,0.9c0.9,0.6,1.5,1.5,1.9,2.5c0.5,1.3,0.7,2.6,0.6,3.9v0.9h-9.3V404
	h6.7c0-0.9-0.3-1.9-0.9-2.6c-0.5-0.6-1.2-0.9-2-0.9c-0.9-0.1-1.8,0.3-2.4,1c-0.6,0.8-0.9,1.8-0.8,2.8v1.8c-0.1,1,0.3,1.9,0.9,2.6
	c0.7,0.6,1.6,1,2.6,0.9c0.6,0,1.1-0.1,1.6-0.3c0.5-0.2,1-0.5,1.4-0.9l1.8,1.8c-0.7,0.6-1.4,1.2-2.3,1.5c-0.8,0.3-1.7,0.5-2.6,0.5
	C460.2,412.2,459.1,412,458.1,411.4z"/>
<path class="st4" d="M470.3,398.2h2.7v13.8h-2.7V398.2z M477,400.8c-0.4-0.2-0.8-0.2-1.3-0.2c-1.4-0.1-2.6,0.8-2.7,2.2
	c0,0.2,0,0.3,0,0.5l-0.3-2.6c0.4-0.8,0.9-1.4,1.6-1.9c0.7-0.4,1.4-0.7,2.2-0.7c0.6,0,1.2,0.1,1.7,0.3c0.5,0.2,1,0.4,1.3,0.8
	l-1.8,2.4C477.6,401.2,477.3,400.9,477,400.8L477,400.8z"/>
<path class="st4" d="M489.2,392.7h2.7v19.3h-2.7V392.7z M493.1,411.5c-0.6-0.4-1.1-1-1.4-1.7l0.2-2.9c0,0.5,0.1,1,0.3,1.5
	c0.2,0.4,0.5,0.7,0.9,1c0.5,0.2,1,0.3,1.5,0.3c0.8,0,1.5-0.3,2.1-0.8c0.5-0.6,0.8-1.5,0.7-2.3v-3c0.1-0.8-0.2-1.7-0.7-2.3
	c-0.5-0.6-1.3-0.9-2.1-0.8c-0.5,0-1,0.1-1.5,0.3c-0.4,0.2-0.7,0.5-0.9,0.9c-0.2,0.5-0.3,1-0.3,1.5l-0.3-2.7c0.4-0.8,0.9-1.4,1.6-1.9
	c0.7-0.4,1.4-0.7,2.2-0.7c0.9,0,1.7,0.2,2.5,0.7c0.7,0.5,1.3,1.1,1.6,1.9c0.4,1,0.6,2,0.6,3v3c0,1-0.2,2-0.6,3
	c-0.3,0.8-0.9,1.5-1.6,1.9c-0.8,0.5-1.7,0.7-2.6,0.6C494.6,412.1,493.8,411.9,493.1,411.5z"/>
<path class="st4" d="M504.6,411.1c-0.9-0.8-1.4-2-1.3-3.2c-0.1-1.1,0.3-2.3,1.2-3.1c1-0.8,2.2-1.1,3.5-1h3.9l0.2,2.2H508
	c-0.6,0-1.1,0.1-1.6,0.5c-0.4,0.4-0.6,0.9-0.5,1.4c0,0.6,0.2,1.2,0.7,1.6c0.6,0.4,1.4,0.6,2.1,0.5c0.8,0,1.6-0.1,2.3-0.3
	c0.5-0.1,0.8-0.6,0.8-1l0.3,1.9c-0.2,0.4-0.5,0.7-0.9,0.9c-0.4,0.2-0.8,0.4-1.2,0.5c-0.5,0.1-1,0.2-1.6,0.2
	C507,412.2,505.7,411.9,504.6,411.1z M511.7,403.2c0-0.8-0.2-1.5-0.7-2.1c-0.5-0.5-1.3-0.8-2-0.7c-0.5,0-1.1,0.1-1.6,0.3
	c-0.5,0.2-1,0.4-1.4,0.7l-2-1.4c0.6-0.6,1.3-1.1,2.1-1.5c0.9-0.4,1.9-0.5,2.9-0.5c1,0,2,0.2,2.9,0.6c0.8,0.4,1.4,1,1.9,1.8
	c0.4,0.9,0.7,1.8,0.6,2.8v8.8h-2.6V403.2z"/>
<path class="st4" d="M521,411.9c-1.4-0.3-2.7-1-3.7-1.9l1.6-2c0.7,0.5,1.4,1,2.2,1.3c0.7,0.3,1.4,0.4,2.2,0.4
	c0.8,0.1,1.7-0.1,2.4-0.5c0.5-0.3,0.8-0.9,0.8-1.5c0-0.4-0.1-0.8-0.4-1c-0.3-0.2-0.7-0.4-1.1-0.4c-0.4-0.1-1-0.1-1.8-0.2h-0.2h-0.2
	h-0.2c-0.8,0-1.5-0.2-2.3-0.4c-0.6-0.2-1.2-0.6-1.5-1.1c-0.5-0.7-0.7-1.4-0.6-2.2c0-0.9,0.2-1.7,0.6-2.4c0.4-0.7,1.1-1.2,1.8-1.5
	c0.9-0.3,2-0.5,3-0.5c0.7,0,1.4,0.1,2,0.2c0.6,0.1,1.3,0.3,1.9,0.6c0.6,0.3,1.2,0.6,1.7,1l-1.6,2c-0.6-0.4-1.3-0.8-2-1
	c-0.6-0.2-1.3-0.3-2-0.3c-0.7-0.1-1.4,0.1-2.1,0.5c-0.5,0.3-0.7,0.8-0.7,1.4c0,0.3,0.1,0.6,0.4,0.8c0.3,0.2,0.6,0.3,1,0.4
	c0.6,0.1,1.1,0.1,1.7,0.2h0.2h0.3h0.1c0.8,0,1.7,0.2,2.5,0.4c0.7,0.2,1.3,0.6,1.7,1.2c0.5,0.7,0.8,1.6,0.7,2.5
	c0,0.9-0.2,1.7-0.6,2.5c-0.5,0.7-1.1,1.2-1.9,1.5c-1,0.4-2.1,0.5-3.2,0.5C522.6,412.1,521.8,412.1,521,411.9z"/>
<path class="st4" d="M534.9,411.4c-0.9-0.5-1.6-1.2-2.1-2.1c-0.5-1-0.7-2.2-0.7-3.3v-1.6c0-1.2,0.2-2.4,0.7-3.5
	c0.4-0.9,1.1-1.7,2-2.2c1-0.5,2-0.8,3.1-0.8c1.1,0,2.1,0.3,2.9,0.9c0.9,0.6,1.5,1.5,1.9,2.5c0.5,1.3,0.7,2.6,0.6,3.9v0.9h-9.3V404
	h6.7c0-0.9-0.3-1.9-0.9-2.6c-0.5-0.6-1.2-0.9-2-0.9c-0.9-0.1-1.8,0.3-2.4,1c-0.6,0.8-0.9,1.8-0.8,2.8v1.8c-0.1,1,0.3,1.9,0.9,2.6
	c0.7,0.6,1.6,1,2.6,0.9c0.6,0,1.1-0.1,1.6-0.3c0.5-0.2,1-0.5,1.4-0.9l1.8,1.8c-0.7,0.6-1.4,1.2-2.3,1.5c-0.8,0.3-1.7,0.5-2.6,0.5
	C537,412.2,535.9,412,534.9,411.4z"/>
<path class="st4" d="M548.8,411.5c-0.7-0.5-1.3-1.1-1.6-1.9c-0.4-1-0.6-2-0.6-3v-3c0-1,0.2-2.1,0.5-3c0.3-0.8,0.9-1.5,1.6-1.9
	c0.8-0.5,1.6-0.7,2.5-0.7c0.8,0,1.6,0.2,2.2,0.6c0.7,0.4,1.3,1.1,1.6,1.8l-0.3,2.8c0-0.5-0.1-1-0.3-1.5c-0.2-0.4-0.5-0.7-0.9-0.9
	c-0.5-0.2-1-0.3-1.5-0.3c-0.8,0-1.5,0.3-2.1,0.8c-0.5,0.7-0.8,1.5-0.7,2.3v3c-0.1,0.8,0.2,1.7,0.7,2.3c0.5,0.6,1.3,0.9,2.1,0.8
	c0.5,0,1-0.1,1.5-0.3c0.4-0.2,0.7-0.6,0.9-1c0.2-0.5,0.3-1,0.3-1.5l0.2,2.9c-0.3,0.7-0.7,1.3-1.3,1.7c-0.7,0.5-1.5,0.7-2.3,0.7
	C550.5,412.2,549.6,412,548.8,411.5z M554.9,392.7h2.7v19.3h-2.7V392.7z"/>
<path class="st4" d="M569,398.2h2.7v13.8H569V398.2z M577.2,403.6c0.1-0.8-0.2-1.6-0.7-2.3c-0.5-0.6-1.3-0.8-2-0.8
	c-0.7,0-1.5,0.2-2,0.7c-0.5,0.5-0.8,1.2-0.7,2l-0.3-2.6c0.4-0.8,1-1.4,1.7-1.9c0.7-0.4,1.5-0.7,2.3-0.7c0.9,0,1.7,0.2,2.5,0.7
	c0.7,0.5,1.2,1.1,1.6,1.9c0.4,1,0.6,2,0.5,3v8.4h-2.7L577.2,403.6z M585.5,403.6c0.1-0.8-0.2-1.6-0.8-2.3c-0.6-0.6-1.3-0.8-2.1-0.8
	c-0.7,0-1.4,0.2-1.9,0.8c-0.5,0.6-0.7,1.4-0.7,2.2l-0.5-2.7c0.4-0.8,1-1.6,1.7-2.1c0.7-0.5,1.5-0.8,2.4-0.7c0.9,0,1.8,0.2,2.5,0.7
	c0.7,0.5,1.3,1.1,1.6,1.9c0.4,1,0.6,2,0.6,3v8.4h-2.7L585.5,403.6z"/>
<path class="st4" d="M594.5,411.4c-0.9-0.5-1.5-1.2-2-2c-0.5-1-0.7-2.1-0.7-3.2v-2.2c0-1.1,0.2-2.2,0.7-3.2c0.4-0.9,1.1-1.6,1.9-2
	c1.9-0.9,4.2-0.9,6.1,0c0.8,0.5,1.5,1.2,1.9,2c0.5,1,0.7,2.1,0.7,3.2v2.3c0,1.1-0.2,2.2-0.7,3.2c-0.4,0.9-1.1,1.6-1.9,2
	C598.6,412.4,596.4,412.4,594.5,411.4L594.5,411.4z M599.7,408.7c0.6-0.7,0.8-1.6,0.8-2.5v-2.3c0.1-0.9-0.2-1.8-0.8-2.5
	c-1.2-1.2-3.2-1.2-4.4,0c-0.6,0.7-0.8,1.6-0.8,2.5v2.3c-0.1,0.9,0.2,1.8,0.8,2.5C596.6,409.9,598.5,409.9,599.7,408.7z"/>
<path class="st4" d="M608.8,411.5c-0.7-0.5-1.3-1.1-1.6-1.9c-0.4-1-0.6-2-0.6-3v-3c0-1,0.2-2.1,0.5-3c0.3-0.8,0.9-1.5,1.6-1.9
	c0.8-0.5,1.6-0.7,2.5-0.7c0.8,0,1.6,0.2,2.2,0.6c0.7,0.4,1.3,1.1,1.6,1.8l-0.3,2.8c0-0.5-0.1-1-0.3-1.5c-0.2-0.4-0.5-0.7-0.9-0.9
	c-0.5-0.2-1-0.3-1.5-0.3c-0.8,0-1.5,0.3-2.1,0.8c-0.5,0.7-0.8,1.5-0.7,2.3v3c-0.1,0.8,0.2,1.7,0.7,2.3c0.5,0.6,1.3,0.9,2.1,0.8
	c0.5,0,1-0.1,1.5-0.3c0.4-0.2,0.7-0.6,0.9-1c0.2-0.5,0.3-1,0.3-1.5l0.2,2.9c-0.3,0.7-0.7,1.3-1.3,1.7c-0.7,0.5-1.5,0.7-2.3,0.7
	C610.5,412.2,609.6,412,608.8,411.5z M614.9,392.7h2.7v19.3h-2.7V392.7z"/>
<path class="st4" d="M624.1,411.4c-0.9-0.5-1.6-1.2-2.1-2.1c-0.5-1-0.7-2.2-0.7-3.3v-1.6c0-1.2,0.2-2.4,0.7-3.5
	c0.4-0.9,1.1-1.7,2-2.2c1-0.5,2-0.8,3.1-0.8c1.1,0,2.1,0.3,2.9,0.9c0.9,0.6,1.5,1.5,1.9,2.5c0.5,1.3,0.7,2.6,0.6,3.9v0.9h-9.3V404
	h6.7c0-0.9-0.3-1.9-0.9-2.6c-0.5-0.6-1.2-0.9-2-0.9c-0.9-0.1-1.8,0.3-2.4,1c-0.6,0.8-0.9,1.8-0.8,2.8v1.8c-0.1,1,0.3,1.9,0.9,2.6
	c0.7,0.6,1.6,1,2.6,0.9c0.6,0,1.1-0.1,1.6-0.3c0.5-0.2,1-0.5,1.4-0.9l1.8,1.8c-0.7,0.6-1.4,1.2-2.3,1.5c-0.8,0.3-1.7,0.5-2.6,0.5
	C626.2,412.2,625.1,412,624.1,411.4z"/>
<path class="st4" d="M636.2,398.2h2.7v13.8h-2.7V398.2z M642.9,400.8c-0.4-0.2-0.8-0.2-1.3-0.2c-0.7,0-1.5,0.2-2,0.7
	c-0.5,0.5-0.7,1.2-0.7,2l-0.3-2.6c0.4-0.8,1-1.4,1.7-1.9c0.7-0.4,1.4-0.7,2.2-0.7c0.6,0,1.2,0.1,1.7,0.3c0.5,0.2,0.9,0.4,1.3,0.8
	l-1.8,2.4C643.6,401.1,643.3,400.9,642.9,400.8z"/>
<path class="st4" d="M648.5,411.1c-0.9-0.8-1.4-2-1.3-3.2c-0.1-1.1,0.3-2.3,1.1-3.1c1-0.8,2.2-1.1,3.5-1h3.8l0.2,2.2h-4.1
	c-0.6,0-1.1,0.1-1.6,0.5c-0.4,0.4-0.6,0.9-0.5,1.4c0,0.6,0.2,1.2,0.7,1.6c0.6,0.4,1.4,0.6,2.1,0.5c0.8,0,1.6-0.1,2.3-0.3
	c0.5-0.1,0.8-0.6,0.8-1l0.3,1.9c-0.2,0.4-0.5,0.7-0.9,0.9c-0.4,0.2-0.8,0.4-1.2,0.5c-0.5,0.1-1,0.2-1.6,0.2
	C650.9,412.2,649.6,411.9,648.5,411.1z M655.7,403.2c0-0.8-0.2-1.5-0.7-2.1c-0.5-0.5-1.3-0.8-2-0.7c-0.5,0-1.1,0.1-1.6,0.3
	c-0.5,0.2-1,0.4-1.4,0.7l-2-1.4c0.6-0.7,1.3-1.2,2.1-1.5c0.9-0.4,1.9-0.5,2.8-0.5c1,0,2,0.2,2.9,0.6c0.8,0.4,1.4,1,1.8,1.8
	c0.4,0.9,0.7,1.8,0.6,2.8v8.8h-2.6L655.7,403.2z"/>
<path class="st4" d="M661.2,398.2h6.2v2.4h-6.2V398.2z M663.4,411.1c-0.6-0.8-0.8-1.7-0.8-2.7v-14.2h2.7v14.2c0,0.3,0.1,0.5,0.2,0.8
	c0.1,0.2,0.4,0.3,0.6,0.3h1.3v2.6h-1.6C665,412.1,664.1,411.7,663.4,411.1L663.4,411.1z"/>
<path class="st4" d="M671.1,392.7h2.7v2.7h-2.7V392.7z M671.1,398.2h2.7v13.8h-2.7V398.2z"/>
<path class="st4" d="M680.2,411.4c-0.8-0.5-1.5-1.2-1.9-2c-0.5-1-0.7-2.1-0.7-3.2v-2.2c0-1.1,0.2-2.2,0.7-3.2c0.4-0.9,1.1-1.6,1.9-2
	c1.9-0.9,4.2-0.9,6.1,0c0.8,0.5,1.5,1.2,1.9,2c0.5,1,0.7,2.1,0.7,3.2v2.3c0,1.1-0.2,2.2-0.7,3.2c-0.4,0.9-1.1,1.6-1.9,2
	C684.4,412.4,682.1,412.4,680.2,411.4L680.2,411.4z M685.4,408.7c0.6-0.7,0.8-1.6,0.8-2.5v-2.3c0.1-0.9-0.2-1.8-0.8-2.5
	c-1.2-1.2-3.2-1.2-4.4,0c-0.6,0.7-0.8,1.6-0.8,2.5v2.3c-0.1,0.9,0.2,1.8,0.8,2.5C682.3,409.9,684.2,409.9,685.4,408.7z"/>
<path class="st4" d="M692.8,398.2h2.7v13.8h-2.7V398.2z M701.1,403.6c0.1-0.8-0.2-1.6-0.8-2.3c-0.6-0.6-1.3-0.8-2.1-0.8
	c-0.7,0-1.5,0.2-2,0.7c-0.5,0.5-0.8,1.2-0.7,2l-0.3-2.6c0.4-0.8,1-1.4,1.7-1.9c0.7-0.4,1.5-0.7,2.3-0.7c1.3-0.1,2.6,0.5,3.5,1.5
	c0.9,1.2,1.3,2.7,1.2,4.1v8.4h-2.7L701.1,403.6z"/>
<path class="st4" d="M405.8,396.2L405.8,396.2c0.7,0.7,0.7,1.8,0.1,2.6c0,0,0,0-0.1,0.1l-12.6,12.6c-0.7,0.7-1.8,0.7-2.6,0.1
	c0,0,0,0-0.1-0.1l0,0c-0.7-0.7-0.7-1.8,0-2.6c0,0,0,0,0,0l12.6-12.6C403.9,395.5,405.1,395.5,405.8,396.2
	C405.8,396.2,405.8,396.2,405.8,396.2z"/>
<path class="st4" d="M377.8,396.2L377.8,396.2c0.7-0.7,1.8-0.7,2.6-0.1c0,0,0,0,0.1,0.1l12.6,12.6c0.7,0.7,0.7,1.8,0,2.6
	c0,0,0,0,0,0l0,0c-0.7,0.7-1.8,0.7-2.6,0c0,0,0,0,0,0l-12.6-12.6C377.1,398.1,377.1,397,377.8,396.2
	C377.8,396.2,377.8,396.2,377.8,396.2z"/>
<circle class="st8" cx="510.2" cy="527.3" r="23.4"/>
<path class="st5" d="M550.1,535.9c-0.9-0.4-1.6-1-2.2-1.8l2.3-1.7c0.3,0.5,0.7,0.8,1.1,1c0.5,0.3,1.1,0.4,1.7,0.4
	c1,0.1,1.9-0.3,2.6-1c0.6-0.8,1-1.8,0.9-2.9v-13.8h2.8v13.7c0,1.2-0.2,2.4-0.7,3.6c-0.5,1-1.2,1.7-2.1,2.3c-1.1,0.5-2.2,0.8-3.4,0.8
	C552,536.5,551,536.3,550.1,535.9z"/>
<path class="st5" d="M566.3,535.7c-0.9-0.5-1.6-1.2-2-2.1c-0.5-1.1-0.7-2.2-0.7-3.4v-2.3c0-1.2,0.2-2.3,0.7-3.3
	c0.4-0.9,1.1-1.6,2-2.1c2-1,4.4-1,6.4,0c0.9,0.5,1.6,1.2,2,2.1c0.5,1,0.7,2.2,0.7,3.3v2.4c0,1.2-0.2,2.3-0.7,3.3
	c-0.4,0.9-1.1,1.6-2,2.1C570.7,536.7,568.3,536.7,566.3,535.7z M571.8,532.9c0.6-0.7,0.9-1.7,0.8-2.6v-2.4c0.1-0.9-0.2-1.9-0.8-2.6
	c-1.3-1.2-3.3-1.2-4.6,0c-0.6,0.7-0.9,1.7-0.8,2.6v2.4c-0.1,0.9,0.2,1.9,0.8,2.6C568.5,534.1,570.5,534.1,571.8,532.9z"/>
<path class="st5" d="M579.4,521.9h2.8v14.3h-2.8V521.9z M588.2,527.6c0.1-0.9-0.2-1.7-0.8-2.3c-0.6-0.6-1.4-0.9-2.2-0.8
	c-0.8-0.1-1.6,0.2-2.1,0.7c-0.5,0.6-0.8,1.3-0.7,2.1l-0.3-2.8c0.4-0.8,1-1.5,1.7-2c0.7-0.5,1.5-0.7,2.4-0.7c1.4-0.1,2.7,0.5,3.6,1.5
	c0.9,1.2,1.4,2.8,1.3,4.3v8.7h-2.8L588.2,527.6z"/>
<path class="st5" d="M595.9,535.4c-0.9-0.9-1.4-2.1-1.3-3.3c-0.1-1.2,0.3-2.4,1.2-3.2c1-0.8,2.3-1.2,3.6-1.1h4.1l0.2,2.3h-4.3
	c-0.6,0-1.2,0.1-1.7,0.5c-0.4,0.4-0.6,0.9-0.6,1.5c0,0.6,0.2,1.2,0.7,1.6c0.7,0.4,1.4,0.6,2.2,0.5c0.8,0,1.6-0.1,2.4-0.3
	c0.5-0.1,0.8-0.6,0.8-1.1l0.3,2c-0.2,0.4-0.5,0.7-0.9,1c-0.4,0.3-0.8,0.4-1.3,0.6c-0.5,0.1-1.1,0.2-1.6,0.2
	C598.4,536.6,597,536.2,595.9,535.4z M603.4,527.2c0-0.8-0.2-1.6-0.7-2.2c-0.6-0.5-1.3-0.8-2.1-0.8c-0.6,0-1.1,0.1-1.7,0.3
	c-0.5,0.2-1,0.4-1.5,0.7l-2.1-1.4c0.6-0.7,1.3-1.2,2.1-1.5c0.9-0.4,1.9-0.6,3-0.5c1.1,0,2.1,0.2,3.1,0.6c0.8,0.4,1.5,1,1.9,1.8
	c0.5,0.9,0.7,1.9,0.7,2.9v9.2h-2.7L603.4,527.2z"/>
<path class="st5" d="M610.3,516.2h2.8v20.1h-2.8V516.2z M619,527.6c0.1-0.9-0.2-1.7-0.8-2.3c-0.6-0.6-1.4-0.9-2.2-0.8
	c-0.8-0.1-1.5,0.2-2.1,0.7c-0.5,0.5-0.8,1.3-0.8,2l-0.3-2.8c0.4-0.8,1-1.5,1.7-2c0.7-0.5,1.5-0.7,2.4-0.7c1.4-0.1,2.7,0.5,3.6,1.5
	c0.9,1.2,1.4,2.8,1.3,4.3v8.7H619L619,527.6z"/>
<circle class="st6" cx="510.2" cy="590.4" r="23.4"/>
<path class="st5" d="M547.2,579.3h14.2v2.7h-14.2V579.3z M552.9,580.9h2.8v18.4h-2.8V580.9z"/>
<path class="st5" d="M564.1,598.8c-0.9-0.5-1.6-1.2-2-2.1c-0.5-1.1-0.7-2.2-0.7-3.4V591c0-1.2,0.2-2.3,0.7-3.3
	c0.4-0.9,1.1-1.6,2-2.1c2-1,4.4-1,6.4,0c0.9,0.5,1.6,1.2,2,2.1c0.5,1,0.7,2.2,0.7,3.3v2.4c0,1.2-0.2,2.3-0.7,3.3
	c-0.4,0.9-1.1,1.6-2,2.1C568.5,599.8,566.2,599.8,564.1,598.8z M569.6,596c0.6-0.7,0.9-1.7,0.8-2.6V591c0.1-0.9-0.2-1.8-0.8-2.6
	c-1.3-1.2-3.3-1.2-4.6,0c-0.6,0.7-0.9,1.7-0.8,2.6v2.4c-0.1,0.9,0.2,1.9,0.8,2.6C566.3,597.2,568.3,597.2,569.6,596z"/>
<path class="st5" d="M577.3,579.3h2.8v20.1h-2.8V579.3z M581.3,598.9c-0.7-0.4-1.2-1.1-1.5-1.8l0.2-3c0,0.5,0.1,1.1,0.3,1.6
	c0.2,0.4,0.5,0.8,1,1c0.5,0.2,1,0.4,1.5,0.4c0.8,0,1.6-0.3,2.2-0.8c0.5-0.7,0.8-1.5,0.8-2.4v-3.1c0.1-0.9-0.2-1.8-0.8-2.4
	c-0.6-0.6-1.3-0.9-2.2-0.9c-0.5,0-1.1,0.1-1.5,0.3c-0.4,0.2-0.7,0.6-1,1c-0.2,0.5-0.3,1-0.3,1.5l-0.3-2.8c0.4-0.8,1-1.5,1.7-1.9
	c0.7-0.5,1.5-0.7,2.3-0.7c0.9,0,1.8,0.2,2.6,0.7c0.7,0.5,1.3,1.2,1.7,2c0.4,1,0.6,2.1,0.6,3.2v3.1c0,1.1-0.2,2.1-0.6,3.1
	c-0.4,0.8-0.9,1.5-1.7,2c-0.8,0.5-1.8,0.7-2.7,0.7C582.8,599.6,582,599.4,581.3,598.9z"/>
<path class="st5" d="M592.6,579.3h2.8v2.8h-2.8V579.3z M592.6,585h2.8v14.3h-2.8V585z"/>
<path class="st5" d="M600.4,598.5c-0.9-0.9-1.4-2.1-1.3-3.3c-0.1-1.2,0.3-2.4,1.2-3.2c1-0.8,2.3-1.2,3.6-1.1h4.1l0.2,2.3h-4.3
	c-0.6,0-1.2,0.1-1.7,0.5c-0.4,0.4-0.6,0.9-0.5,1.5c0,0.6,0.2,1.2,0.7,1.6c0.7,0.4,1.4,0.6,2.2,0.5c0.8,0,1.6-0.1,2.4-0.3
	c0.5-0.1,0.8-0.6,0.8-1.1l0.3,2c-0.2,0.4-0.5,0.7-0.9,1c-0.4,0.3-0.8,0.4-1.3,0.6c-0.5,0.1-1.1,0.2-1.6,0.2
	C602.9,599.7,601.5,599.3,600.4,598.5z M607.8,590.3c0-0.8-0.2-1.6-0.7-2.2c-0.6-0.5-1.3-0.8-2.1-0.8c-0.6,0-1.1,0.1-1.7,0.3
	c-0.5,0.2-1,0.4-1.5,0.7l-2.1-1.4c0.6-0.7,1.3-1.2,2.1-1.5c0.9-0.4,1.9-0.6,3-0.5c1.1,0,2.1,0.2,3.1,0.6c0.8,0.4,1.5,1,1.9,1.8
	c0.5,0.9,0.7,1.9,0.7,2.9v9.2h-2.7L607.8,590.3z"/>
<path class="st5" d="M617.5,599.3c-0.7-0.2-1.4-0.4-2.1-0.7c-0.7-0.3-1.3-0.7-1.8-1.2l1.7-2.1c0.7,0.6,1.5,1,2.3,1.3
	c0.7,0.3,1.5,0.4,2.3,0.4c0.9,0.1,1.7-0.1,2.5-0.5c0.5-0.3,0.9-0.9,0.8-1.6c0-0.4-0.1-0.8-0.5-1c-0.3-0.2-0.7-0.4-1.1-0.5
	c-0.5-0.1-1.1-0.2-1.9-0.2h-0.2h-0.2H619c-0.8,0-1.6-0.2-2.4-0.4c-0.6-0.2-1.2-0.6-1.6-1.1c-0.5-0.7-0.7-1.5-0.6-2.3
	c0-0.9,0.2-1.8,0.6-2.5c0.4-0.7,1.1-1.2,1.8-1.5c1-0.4,2-0.5,3.1-0.5c0.7,0,1.4,0.1,2.1,0.2c1.3,0.3,2.6,0.8,3.7,1.6l-1.7,2
	c-0.7-0.4-1.4-0.8-2.1-1c-0.7-0.2-1.3-0.3-2-0.3c-0.8-0.1-1.5,0.1-2.2,0.5c-0.5,0.3-0.7,0.9-0.7,1.5c0,0.4,0.1,0.7,0.4,0.9
	c0.3,0.2,0.7,0.3,1,0.4c0.4,0.1,1,0.1,1.8,0.2h0.2h0.2h0.2c0.9,0,1.7,0.2,2.6,0.4c0.7,0.2,1.3,0.6,1.8,1.2c0.5,0.8,0.8,1.7,0.7,2.6
	c0,0.9-0.2,1.8-0.7,2.6c-0.5,0.7-1.2,1.3-2.1,1.5c-1.1,0.4-2.2,0.5-3.3,0.5C619.1,599.6,618.3,599.5,617.5,599.3z"/>
<path class="st4" d="M447,455.4h-1.8v-3.5c0-4.9-3.9-8.8-8.8-8.8c-4.9,0-8.8,3.9-8.8,8.8v3.5h-1.8c-1.9,0-3.5,1.6-3.5,3.5v17.6
	c0,1.9,1.6,3.5,3.5,3.5h21.2c1.9,0,3.5-1.6,3.5-3.5v-17.6C450.4,457,448.9,455.5,447,455.4z M436.4,471.3c-1.9,0-3.5-1.6-3.5-3.5
	s1.6-3.5,3.5-3.5s3.5,1.6,3.5,3.5v0C439.9,469.7,438.4,471.3,436.4,471.3z M441.9,455.4h-10.9v-3.5c-0.1-3,2.2-5.6,5.2-5.7
	c3-0.1,5.6,2.2,5.7,5.2c0,0.1,0,0.3,0,0.4V455.4z"/>
<path class="st13" d="M889,443.5h74.3c5.4,0,9.9,4.4,9.9,9.9v16.4c0,5.4-4.4,9.9-9.9,9.9H889c-5.4,0-9.9-4.4-9.9-9.9v-16.4
	C879.2,447.9,883.6,443.5,889,443.5z"/>
</svg>
