<?xml version="1.0" encoding="utf-8"?>
<!-- Generator: Adobe Illustrator 25.0.0, SVG Export Plug-In . SVG Version: 6.00 Build 0)  -->
<svg version="1.1" id="Layer_1" xmlns="http://www.w3.org/2000/svg" xmlns:xlink="http://www.w3.org/1999/xlink" x="0px" y="0px"
	 viewBox="0 0 1203.4 1000.4" style="enable-background:new 0 0 1203.4 1000.4;" xml:space="preserve">
<style type="text/css">
	.st0{fill:#292841;}
	.st1{fill:#36393F;}
	.st2{fill:#2F3136;}
	.st3{fill:#B9BBBE;}
	.st4{fill:#FFFFFF;}
	.st5{fill:#ED4245;}
	.st6{fill:#F6F6F6;}
	.st7{fill:#5865F2;}
	.st8{fill:#57F287;}
	.st9{fill:#FEE75C;}
	.st10{fill:#EB459E;}
	.st11{fill:#4FDC7C;}
	.st12{opacity:0.24;fill:#B9BBBE;enable-background:new    ;}
	.st13{fill:#22252B;}
	.st14{fill:#C2905B;}
	.st15{fill:#9FB35B;}
	.st16{fill:#A17548;}
	.st17{enable-background:new    ;}
	.st18{fill:#523C25;}
	.st19{fill:#725333;}
	.st20{fill:#8D663F;}
	.st21{fill:#606060;}
	.st22{fill:none;}
	.st23{opacity:0.43;}
	.st24{fill:#5664EC;}
	.st25{opacity:0.24;fill:url(#SVGID_1_);enable-background:new    ;}
	.st26{opacity:0.3;fill:#292841;}
	.st27{opacity:0.3;fill:#B9BBBE;}
	.st28{opacity:0.3;fill:#ED4245;}
	.st29{opacity:0.3;fill:#FFFFFF;}
	.st30{opacity:0.3;fill:#5865F2;}
	.st31{opacity:0.3;}
</style>
<path class="st0" d="M926.5,347.9H276.8c-10.1,0-18.3,8.2-18.3,18.3v268.1c0,10.1,8.2,18.3,18.3,18.3h649.7
	c10.1,0,18.3-8.2,18.3-18.3V366.2C944.8,356.1,936.6,347.9,926.5,347.9z"/>
<g>
	<g>
		<path class="st4" d="M522,515.8v23.6H403.4v-23.6H522z M528.4,458.7v23.6H409.7v-23.6H528.4z M441.1,420.6h23l-26.8,157h-23
			L441.1,420.6z M492.3,420.6h23l-26.8,157h-23L492.3,420.6z"/>
		<path class="st4" d="M660,515.8v23.6H541.3v-23.6H660z M666.3,458.7v23.6H547.7v-23.6H666.3z M579.1,420.6h23l-26.8,157h-23
			L579.1,420.6z M630.3,420.6h23l-26.8,157h-23L630.3,420.6z"/>
		<path class="st4" d="M797.9,515.8v23.6H679.3v-23.6H797.9z M804.3,458.7v23.6H685.6v-23.6H804.3z M717.1,420.6h23l-26.8,157h-23
			L717.1,420.6z M768.2,420.6h23l-26.8,157h-23L768.2,420.6z"/>
	</g>
</g>
</svg>
