<?xml version="1.0" encoding="utf-8"?>
<!-- Generator: Adobe Illustrator 25.0.0, SVG Export Plug-In . SVG Version: 6.00 Build 0)  -->
<svg version="1.1" id="Layer_1" xmlns="http://www.w3.org/2000/svg" xmlns:xlink="http://www.w3.org/1999/xlink" x="0px" y="0px"
	 viewBox="0 0 1203.4 1000.4" style="enable-background:new 0 0 1203.4 1000.4;" xml:space="preserve">
<style type="text/css">
	.st0{fill:#5963F6;}
	.st1{fill:#292841;}
	.st2{opacity:0.43;fill:#4F545C;}
	.st3{fill:#5764F6;}
	.st4{fill-rule:evenodd;clip-rule:evenodd;fill:#5764F6;}
	.st5{fill:#FFFFFF;}
	.st6{opacity:0.29;fill:#4F545C;}
</style>
<path class="st0" d="M102.5,604.1H88.9c-16.3,0-29.4-13.2-29.4-29.4V124.9c0-16.3,13.2-29.4,29.4-29.4h13.6
	c-16.3,0-29.4,13.2-29.4,29.4v449.7C73.1,590.9,86.3,604.1,102.5,604.1z"/>
<path class="st1" d="M1131.5,124.9v449.7c0,16.3-13.2,29.4-29.4,29.4H102.5c-16.3,0-29.4-13.2-29.4-29.4V124.9
	c0-16.3,13.2-29.4,29.4-29.4H1102C1118.3,95.5,1131.5,108.7,1131.5,124.9z"/>
<path class="st2" d="M226.7,705.1H92.1c-5.5,0-9.9-4.4-9.9-9.9v-60.8c0-5.5,4.4-9.9,9.9-9.9h134.6c5.5,0,9.9,4.4,9.9,9.9v60.8
	C236.6,700.7,232.2,705.1,226.7,705.1z"/>
<path class="st2" d="M403,705.1H268.4c-5.5,0-9.9-4.4-9.9-9.9v-60.8c0-5.5,4.4-9.9,9.9-9.9H403c5.5,0,9.9,4.4,9.9,9.9v60.8
	C412.8,700.7,408.4,705.1,403,705.1z"/>
<path class="st2" d="M578.8,705.1H444.2c-5.5,0-9.9-4.4-9.9-9.9v-60.8c0-5.5,4.4-9.9,9.9-9.9h134.6c5.5,0,9.9,4.4,9.9,9.9v60.8
	C588.7,700.7,584.2,705.1,578.8,705.1z"/>
<path class="st2" d="M756,705.1H621.4c-5.5,0-9.9-4.4-9.9-9.9v-60.8c0-5.5,4.4-9.9,9.9-9.9H756c5.5,0,9.9,4.4,9.9,9.9v60.8
	C765.9,700.7,761.5,705.1,756,705.1z"/>
<path class="st2" d="M931.8,705.1H797.2c-5.5,0-9.9-4.4-9.9-9.9v-60.8c0-5.5,4.4-9.9,9.9-9.9h134.6c5.5,0,9.9,4.4,9.9,9.9v60.8
	C941.7,700.7,937.3,705.1,931.8,705.1z"/>
<path class="st2" d="M226.2,797.9H91.6c-5.5,0-9.9-4.4-9.9-9.9v-60.8c0-5.5,4.4-9.9,9.9-9.9h134.6c5.5,0,9.9,4.4,9.9,9.9v60.8
	C236.1,793.5,231.7,797.9,226.2,797.9z"/>
<path class="st2" d="M402.5,797.9H267.8c-5.5,0-9.9-4.4-9.9-9.9v-60.8c0-5.5,4.4-9.9,9.9-9.9h134.6c5.5,0,9.9,4.4,9.9,9.9v60.8
	C412.3,793.5,407.9,797.9,402.5,797.9z"/>
<path class="st2" d="M578.3,797.9H443.7c-5.5,0-9.9-4.4-9.9-9.9v-60.8c0-5.5,4.4-9.9,9.9-9.9h134.6c5.5,0,9.9,4.4,9.9,9.9v60.8
	C588.1,793.5,583.7,797.9,578.3,797.9z"/>
<path class="st2" d="M755.5,797.9H620.9c-5.5,0-9.9-4.4-9.9-9.9v-60.8c0-5.5,4.4-9.9,9.9-9.9h134.6c5.5,0,9.9,4.4,9.9,9.9v60.8
	C765.4,793.5,761,797.9,755.5,797.9z"/>
<path class="st2" d="M931.3,797.9H796.7c-5.5,0-9.9-4.4-9.9-9.9v-60.8c0-5.5,4.4-9.9,9.9-9.9h134.6c5.5,0,9.9,4.4,9.9,9.9v60.8
	C941.2,793.5,936.8,797.9,931.3,797.9z"/>
<path class="st2" d="M226,890.8H91.4c-5.5,0-9.9-4.4-9.9-9.9v-60.8c0-5.5,4.4-9.9,9.9-9.9H226c5.5,0,9.9,4.4,9.9,9.9v60.8
	C235.8,886.3,231.4,890.8,226,890.8z"/>
<path class="st2" d="M402.2,890.8H267.6c-5.5,0-9.9-4.4-9.9-9.9v-60.8c0-5.5,4.4-9.9,9.9-9.9h134.6c5.5,0,9.9,4.4,9.9,9.9v60.8
	C412.1,886.3,407.7,890.8,402.2,890.8z"/>
<path class="st2" d="M578,890.8H443.4c-5.5,0-9.9-4.4-9.9-9.9v-60.8c0-5.5,4.4-9.9,9.9-9.9H578c5.5,0,9.9,4.4,9.9,9.9v60.8
	C587.9,886.3,583.5,890.8,578,890.8z"/>
<path class="st2" d="M755.3,890.8H620.7c-5.5,0-9.9-4.4-9.9-9.9v-60.8c0-5.5,4.4-9.9,9.9-9.9h134.6c5.5,0,9.9,4.4,9.9,9.9v60.8
	C765.1,886.3,760.7,890.8,755.3,890.8z"/>
<path class="st2" d="M931.1,890.8H796.5c-5.5,0-9.9-4.4-9.9-9.9v-60.8c0-5.5,4.4-9.9,9.9-9.9h134.6c5.5,0,9.9,4.4,9.9,9.9v60.8
	C941,886.3,936.5,890.8,931.1,890.8z"/>
<path class="st3" d="M654.5,340.2h-43.7c-1.5,0-2.7,1.2-2.7,2.7v16.4c0,1.5,1.2,2.7,2.7,2.7h43.7c1.5,0,2.7-1.2,2.7-2.7V343
	C657.2,341.5,656,340.2,654.5,340.2z M619,356.6c-3,0-5.5-2.5-5.5-5.5s2.5-5.5,5.5-5.5s5.5,2.5,5.5,5.5S622,356.6,619,356.6z
	 M654.5,312.9h-43.7c-1.5,0-2.7,1.2-2.7,2.7V332c0,1.5,1.2,2.7,2.7,2.7h43.7c1.5,0,2.7-1.2,2.7-2.7v-16.4
	C657.2,314.2,656,312.9,654.5,312.9z M619,329.3c-3,0-5.5-2.5-5.5-5.5c0-3,2.5-5.5,5.5-5.5s5.5,2.5,5.5,5.5
	C624.5,326.9,622,329.3,619,329.3z"/>
<g>
	<g>
		<path class="st4" d="M392.3,339.9c3.7,2.5,6.4,6,6.4,10.6v8.2h10.9v-8.2C409.6,344.5,399.9,341,392.3,339.9z"/>
	</g>
	<g>
		<circle class="st4" cx="371.4" cy="325.9" r="10.9"/>
	</g>
	<g>
		<path class="st4" d="M387.8,336.8c6,0,10.9-4.9,10.9-10.9c0-6-4.9-10.9-10.9-10.9c-1.3,0-2.5,0.3-3.6,0.7
			c2.3,2.8,3.6,6.4,3.6,10.3c0,3.9-1.4,7.5-3.6,10.3C385.3,336.5,386.5,336.8,387.8,336.8z"/>
	</g>
	<g>
		<path class="st4" d="M371.4,339.5c-7.3,0-21.8,3.7-21.8,10.9v8.2h43.7v-8.2C393.2,343.2,378.7,339.5,371.4,339.5z"/>
	</g>
</g>
<path class="st3" d="M143.3,325.5h-2.7V320c0-7.5-6.1-13.6-13.6-13.6s-13.6,6.1-13.6,13.6v5.5h-2.7c-3,0-5.5,2.5-5.5,5.5v27.3
	c0,3,2.5,5.5,5.5,5.5h32.8c3,0,5.5-2.5,5.5-5.5V331C148.7,328,146.3,325.5,143.3,325.5z M126.9,350.1c-3,0-5.5-2.5-5.5-5.5
	s2.5-5.5,5.5-5.5c3,0,5.5,2.5,5.5,5.5S129.9,350.1,126.9,350.1z M135.4,325.5h-16.9V320c0-4.7,3.8-8.5,8.5-8.5
	c4.7,0,8.5,3.8,8.5,8.5V325.5z"/>
<g>
	<g>
		<path class="st3" d="M891.4,394.3v-8.2l-10.9,10.9l10.9,10.9v-8.2c9,0,16.4,7.3,16.4,16.4c0,8.1-5.9,14.8-13.6,16.1v5.5
			c10.8-1.3,19.1-10.5,19.1-21.6C913.3,404.1,903.5,394.3,891.4,394.3z"/>
		<path class="st3" d="M875,416.2c0-4.5,1.8-8.6,4.8-11.6l-3.9-3.9c-3.9,4-6.4,9.4-6.4,15.5c0,11.1,8.3,20.3,19.1,21.6v-5.5
			C881,431,875,424.3,875,416.2z"/>
	</g>
</g>
<path class="st3" d="M611.1,484.4c-2.3,0-4.1,1.8-4.1,4.1c0,2.3,1.8,4.1,4.1,4.1s4.1-1.8,4.1-4.1
	C615.2,486.2,613.3,484.4,611.1,484.4z M611.1,468c-2.3,0-4.1,1.8-4.1,4.1c0,2.3,1.8,4.1,4.1,4.1s4.1-1.8,4.1-4.1
	C615.2,469.8,613.3,468,611.1,468z M611.1,500.7c-2.3,0-4.1,1.9-4.1,4.1s1.9,4.1,4.1,4.1c2.2,0,4.1-1.9,4.1-4.1
	S613.3,500.7,611.1,500.7z M619.3,507.6h38.2v-5.5h-38.2V507.6z M619.3,491.2h38.2v-5.5h-38.2V491.2z M619.3,469.3v5.5h38.2v-5.5
	H619.3z"/>
<path class="st3" d="M917.2,320.2h-5.5v24.6h-35.5v5.5c0,1.5,1.2,2.7,2.7,2.7h30l10.9,10.9V323C919.9,321.5,918.7,320.2,917.2,320.2
	z M906.3,336.6V312c0-1.5-1.2-2.7-2.7-2.7H868c-1.5,0-2.7,1.2-2.7,2.7v38.2l10.9-10.9h27.3C905,339.3,906.3,338.1,906.3,336.6z"/>
<path class="st3" d="M379.5,487.9c6,0,10.9-4.9,10.9-10.9s-4.9-10.9-10.9-10.9c-6,0-10.9,4.9-10.9,10.9S373.5,487.9,379.5,487.9z
	 M379.5,493.4c-7.3,0-21.8,3.7-21.8,10.9v5.5h43.7v-5.5C401.4,497,386.8,493.4,379.5,493.4z"/>
<path class="st3" d="M625.9,395.1c3,0,5.5-2.5,5.5-5.5s-2.5-5.5-5.5-5.5s-5.5,2.5-5.5,5.5S622.9,395.1,625.9,395.1z M615.7,404.4
	l-7.5,38.5h5.7l4.8-21.8l5.9,5.5v16.4h5.5v-20.6l-5.6-5.6l1.6-8.2c3.5,4.4,8.9,7.1,14.9,7.1v-5.5c-5.1,0-9.4-2.7-11.9-6.7l-2.6-4.4
	c-1-1.6-2.7-2.6-4.6-2.6c-0.7,0-1.4,0.1-2,0.4l-14.3,5.9v12.8h5.5v-9.1L615.7,404.4 M635.5,385.6v19.1h10.2v38.2h4.1v-38.2h10.2
	v-19.1H635.5z M649.2,402v-4.8h-9.6v-4.1h9.6v-4.8l6.8,6.8L649.2,402z"/>
<path class="st3" d="M132.4,476.5c0-6-4.9-10.9-10.9-10.9s-10.9,4.9-10.9,10.9c0,6,4.9,10.9,10.9,10.9S132.4,482.6,132.4,476.5z
	 M140.6,482v5.5H157V482H140.6z M99.6,503.8v5.5h43.7v-5.5c0-7.3-14.6-10.9-21.8-10.9C114.2,492.9,99.6,496.6,99.6,503.8z"/>
<path class="st3" d="M135.1,411.8c6,0,10.9-4.9,10.9-10.9s-4.9-10.9-10.9-10.9s-10.9,4.9-10.9,10.9S129.1,411.8,135.1,411.8z
	 M110.5,406.3v-8.2h-5.5v8.2h-8.2v5.5h8.2v8.2h5.5v-8.2h8.2v-5.5H110.5z M135.1,417.3c-7.3,0-21.8,3.7-21.8,10.9v5.5h43.7v-5.5
	C156.9,420.9,142.4,417.3,135.1,417.3z"/>
<path class="st3" d="M370.3,395.2c1.9-3,5.3-5,9.1-5c6,0,10.9,4.9,10.9,10.9c0,3.8-2,7.2-5,9.1L370.3,395.2z M401.3,426.2
	c-0.1-3-1.7-5.8-4.4-7.2c-1.5-0.8-3.1-1.5-4.8-2.1L401.3,426.2z M404.6,437.2L354.4,387l-3.9,3.8l24.3,24.3c-4.9,0.6-9.3,2.2-12.7,4
	c-2.7,1.4-4.4,4.2-4.4,7.3v7.6h36l7.1,7.1L404.6,437.2z"/>
<path class="st3" d="M888.4,470.2v-10.9L874.7,473l13.6,13.6v-10.9c9,0,16.4,7.3,16.4,16.4s-7.3,16.4-16.4,16.4s-16.4-7.3-16.4-16.4
	h-5.5c0,12.1,9.8,21.8,21.8,21.8s21.8-9.8,21.8-21.8C910.2,480,900.4,470.2,888.4,470.2z"/>
<g>
	<g>
		<path class="st5" d="M165.2,325.5h3.5v24.8h-3.5V325.5z M166.9,337.4h7.9c0.7,0,1.4-0.2,2-0.5c0.6-0.4,1-0.9,1.3-1.5
			c0.3-0.6,0.5-1.4,0.5-2.2c0-0.9-0.2-1.6-0.5-2.2c-0.3-0.6-0.8-1.1-1.3-1.5c-0.6-0.4-1.2-0.5-2-0.5h-7.9v-3.3h7.8
			c1.5,0,2.8,0.3,3.9,0.9c1.1,0.6,2,1.5,2.6,2.7s0.9,2.5,0.9,4s-0.3,2.8-0.9,4c-0.6,1.1-1.5,2-2.6,2.6c-1.1,0.6-2.4,0.9-3.9,0.9
			h-7.8V337.4z"/>
		<path class="st5" d="M186.9,325.5h3.5v24.8h-3.5V325.5z M188.4,336.5h8.4c0.7,0,1.2-0.2,1.8-0.5c0.5-0.3,0.9-0.8,1.2-1.4
			c0.3-0.6,0.4-1.3,0.4-2c0-0.8-0.1-1.4-0.4-2c-0.3-0.6-0.7-1-1.2-1.4s-1.1-0.5-1.8-0.5h-8.4v-3.3h8.3c1.4,0,2.7,0.3,3.8,0.9
			s1.9,1.4,2.5,2.5c0.6,1.1,0.9,2.3,0.9,3.8s-0.3,2.7-0.9,3.8c-0.6,1.1-1.4,1.9-2.5,2.5c-1.1,0.6-2.3,0.9-3.8,0.9h-8.3V336.5z
			 M195.1,339l3.5-0.8l6.3,12h-4.1L195.1,339z"/>
		<path class="st5" d="M213.1,350.3h-3.5v-24.8h3.5V350.3z"/>
		<path class="st5" d="M216.6,325.5h3.8l5.9,19.4l5.9-19.4h3.8l-8.1,24.8h-3.3L216.6,325.5z"/>
		<path class="st5" d="M246.4,325.5h3l9.1,24.8h-3.7l-6.9-20l-6.9,20h-3.7L246.4,325.5z M241.5,341.5h13v3.3h-13V341.5z"/>
		<path class="st5" d="M265.8,349.4c-1.3-0.8-2.3-1.8-3-3.2c-0.7-1.4-1.1-3-1.1-4.9v-6.8c0-1.8,0.4-3.5,1.1-4.9
			c0.7-1.4,1.7-2.5,3-3.2s2.8-1.1,4.5-1.1c1.4,0,2.7,0.3,3.9,0.9c1.2,0.6,2.2,1.5,3,2.6c0.8,1.1,1.3,2.4,1.6,3.9h-3.6
			c-0.2-0.8-0.6-1.5-1.1-2.1s-1.1-1.1-1.8-1.4s-1.4-0.5-2.1-0.5c-1,0-1.9,0.2-2.7,0.7c-0.8,0.5-1.4,1.2-1.8,2.1
			c-0.4,0.9-0.6,1.9-0.6,3.1v6.8c0,1.2,0.2,2.2,0.6,3.1c0.4,0.9,1,1.6,1.8,2.1c0.8,0.5,1.6,0.7,2.7,0.7c0.7,0,1.4-0.2,2.1-0.5
			c0.7-0.3,1.3-0.8,1.8-1.4c0.5-0.6,0.9-1.3,1.1-2.1h3.6c-0.3,1.5-0.8,2.8-1.6,3.9c-0.8,1.1-1.8,2-3,2.6c-1.2,0.6-2.5,0.9-3.9,0.9
			C268.6,350.5,267.1,350.2,265.8,349.4z"/>
		<path class="st5" d="M291.3,340.2v10.1h-3.5v-10.1l-7.5-14.7h3.9l5.4,11.2l5.4-11.2h3.9L291.3,340.2z"/>
	</g>
</g>
<g>
	<g>
		<path class="st5" d="M165,401.2h17.5v3.3H165V401.2z M172,403.2h3.5v22.7H172V403.2z"/>
		<path class="st5" d="M185.2,401.2h3.5v24.8h-3.5V401.2z M186.7,412.2h8.4c0.7,0,1.2-0.2,1.8-0.5c0.5-0.3,0.9-0.8,1.2-1.4
			c0.3-0.6,0.4-1.3,0.4-2c0-0.8-0.1-1.4-0.4-2c-0.3-0.6-0.7-1-1.2-1.4s-1.1-0.5-1.8-0.5h-8.4v-3.3h8.3c1.4,0,2.7,0.3,3.8,0.9
			s1.9,1.4,2.5,2.5c0.6,1.1,0.9,2.3,0.9,3.8s-0.3,2.7-0.9,3.8c-0.6,1.1-1.4,1.9-2.5,2.5c-1.1,0.6-2.3,0.9-3.8,0.9h-8.3V412.2z
			 M193.4,414.7l3.5-0.8l6.3,12h-4.1L193.4,414.7z"/>
		<path class="st5" d="M211.5,425.1c-1.3-0.7-2.3-1.8-3-3.2c-0.7-1.4-1-3-1-5v-15.8h3.5v15.9c0,1.8,0.5,3.2,1.4,4.2s2.2,1.5,3.8,1.5
			c1.7,0,3-0.5,3.9-1.5c0.9-1,1.4-2.4,1.4-4.2v-15.9h3.5V417c0,1.9-0.3,3.6-1,5c-0.7,1.4-1.7,2.4-3,3.2c-1.3,0.7-2.9,1.1-4.7,1.1
			C214.4,426.2,212.8,425.8,211.5,425.1z"/>
		<path class="st5" d="M234.8,425.9c-1.1-0.2-2.1-0.6-3-1c-0.9-0.5-1.8-1-2.6-1.7l2.2-2.7c0.9,0.8,2,1.4,3.1,1.8
			c1.1,0.4,2.4,0.6,3.7,0.6c1.8,0,3.2-0.3,4.2-1c1-0.7,1.5-1.6,1.5-2.8v0c0-0.9-0.2-1.5-0.7-2.1c-0.4-0.5-1-0.9-1.7-1.1
			s-1.6-0.5-2.8-0.7c0,0-0.1,0-0.1,0c0,0-0.1,0-0.1,0l-0.3-0.1c-1.7-0.3-3-0.6-4-1c-1-0.4-1.9-1-2.7-2s-1.1-2.3-1.1-4v0
			c0-1.5,0.3-2.8,1-3.9c0.7-1.1,1.7-1.9,3-2.5c1.3-0.6,2.9-0.9,4.8-0.9c0.9,0,1.8,0.1,2.6,0.3c0.9,0.2,1.7,0.5,2.5,0.9
			c0.8,0.4,1.7,0.9,2.5,1.4l-2,2.8c-0.9-0.7-1.9-1.2-2.8-1.6c-0.9-0.3-1.9-0.5-2.8-0.5c-1.7,0-3,0.3-3.9,1c-0.9,0.7-1.4,1.6-1.4,2.9
			v0c0,0.9,0.2,1.5,0.7,2c0.5,0.5,1.1,0.8,1.8,1.1c0.7,0.2,1.7,0.5,3,0.7c0,0,0.1,0,0.1,0c0,0,0.1,0,0.1,0c0.1,0,0.1,0,0.2,0
			c0.1,0,0.1,0,0.2,0c1.5,0.3,2.8,0.7,3.8,1.1c1,0.4,1.8,1.1,2.5,2c0.7,0.9,1,2.2,1,3.8v0c0,1.5-0.4,2.8-1.1,3.9
			c-0.7,1.1-1.8,1.9-3.1,2.5c-1.4,0.6-3,0.8-4.9,0.8C237,426.2,235.9,426.1,234.8,425.9z"/>
		<path class="st5" d="M248.8,401.2h17.5v3.3h-17.5V401.2z M255.8,403.2h3.5v22.7h-3.5V403.2z"/>
	</g>
</g>
<g>
	<g>
		<path class="st5" d="M172,500.8c-1.3-0.7-2.3-1.8-3-3.2c-0.7-1.4-1-3-1-5v-15.8h3.5v15.9c0,1.8,0.5,3.2,1.4,4.2s2.2,1.5,3.8,1.5
			c1.7,0,3-0.5,3.9-1.5c0.9-1,1.4-2.4,1.4-4.2v-15.9h3.5v15.8c0,1.9-0.3,3.6-1,5c-0.7,1.4-1.7,2.4-3,3.2c-1.3,0.7-2.9,1.1-4.7,1.1
			C174.9,501.8,173.3,501.5,172,500.8z"/>
		<path class="st5" d="M191.2,476.8h3.1l12.1,19.1l-0.4,0.4v-19.6h3.4v24.7h-3.2l-12.1-18.9l0.4-0.4v19.3h-3.4V476.8z"/>
		<path class="st5" d="M212.2,476.8h17.5v3.3h-17.5V476.8z M219.2,478.9h3.5v22.7h-3.5V478.9z"/>
		<path class="st5" d="M232.4,476.8h3.5v24.8h-3.5V476.8z M233.9,487.8h8.4c0.7,0,1.2-0.2,1.8-0.5c0.5-0.3,0.9-0.8,1.2-1.4
			c0.3-0.6,0.4-1.3,0.4-2c0-0.8-0.1-1.4-0.4-2c-0.3-0.6-0.7-1-1.2-1.4s-1.1-0.5-1.8-0.5h-8.4v-3.3h8.3c1.4,0,2.7,0.3,3.8,0.9
			s1.9,1.4,2.5,2.5c0.6,1.1,0.9,2.3,0.9,3.8s-0.3,2.7-0.9,3.8c-0.6,1.1-1.4,1.9-2.5,2.5c-1.1,0.6-2.3,0.9-3.8,0.9h-8.3V487.8z
			 M240.7,490.3l3.5-0.8l6.3,12h-4.1L240.7,490.3z"/>
		<path class="st5" d="M258.8,500.8c-1.3-0.7-2.3-1.8-3-3.2c-0.7-1.4-1-3-1-5v-15.8h3.5v15.9c0,1.8,0.5,3.2,1.4,4.2s2.2,1.5,3.8,1.5
			c1.7,0,3-0.5,3.9-1.5c0.9-1,1.4-2.4,1.4-4.2v-15.9h3.5v15.8c0,1.9-0.3,3.6-1,5c-0.7,1.4-1.7,2.4-3,3.2c-1.3,0.7-2.9,1.1-4.7,1.1
			C261.7,501.8,260.1,501.5,258.8,500.8z"/>
		<path class="st5" d="M282.1,501.5c-1.1-0.2-2.1-0.6-3-1s-1.8-1-2.6-1.7l2.2-2.7c0.9,0.8,2,1.4,3.1,1.8c1.1,0.4,2.4,0.6,3.7,0.6
			c1.8,0,3.2-0.3,4.2-1c1-0.7,1.5-1.6,1.5-2.8v0c0-0.9-0.2-1.5-0.7-2.1c-0.4-0.5-1-0.9-1.7-1.1s-1.6-0.5-2.8-0.7c0,0-0.1,0-0.1,0
			c0,0-0.1,0-0.1,0l-0.3-0.1c-1.7-0.3-3-0.6-4-1c-1-0.4-1.9-1-2.7-2s-1.1-2.3-1.1-4v0c0-1.5,0.3-2.8,1-3.9c0.7-1.1,1.7-1.9,3-2.5
			c1.3-0.6,2.9-0.9,4.8-0.9c0.9,0,1.8,0.1,2.6,0.3c0.9,0.2,1.7,0.5,2.5,0.9c0.8,0.4,1.7,0.9,2.5,1.4l-2,2.8
			c-0.9-0.7-1.9-1.2-2.8-1.6c-0.9-0.3-1.9-0.5-2.8-0.5c-1.7,0-3,0.3-3.9,1c-0.9,0.7-1.4,1.6-1.4,2.9v0c0,0.9,0.2,1.5,0.7,2
			c0.5,0.5,1.1,0.8,1.8,1.1c0.7,0.2,1.7,0.5,3,0.7c0,0,0.1,0,0.1,0c0,0,0.1,0,0.1,0c0.1,0,0.1,0,0.2,0c0.1,0,0.1,0,0.2,0
			c1.5,0.3,2.8,0.7,3.8,1.1c1,0.4,1.8,1.1,2.5,2c0.7,0.9,1,2.2,1,3.8v0c0,1.5-0.4,2.8-1.1,3.9c-0.7,1.1-1.8,1.9-3.1,2.5
			c-1.4,0.6-3,0.8-4.9,0.8C284.3,501.8,283.1,501.7,282.1,501.5z"/>
		<path class="st5" d="M296.1,476.8h17.5v3.3h-17.5V476.8z M303.1,478.9h3.5v22.7h-3.5V478.9z"/>
	</g>
</g>
<g>
	<g>
		<path class="st5" d="M421.7,325.9h3.5v24.8h-3.5V325.9z M423.5,347.3h14.2v3.3h-14.2V347.3z"/>
		<path class="st5" d="M445.2,350.6h-3.5v-24.8h3.5V350.6z"/>
		<path class="st5" d="M469.1,325.9h3.3v24.8H469v-18.5l0.2,1.1l-6.1,14h-2.4l-6.1-13.7l0.2-1.4v18.5h-3.4v-24.8h3.3l7.3,16.3
			L469.1,325.9z"/>
		<path class="st5" d="M482,350.6h-3.5v-24.8h3.5V350.6z"/>
		<path class="st5" d="M484.7,325.9h17.5v3.3h-17.5V325.9z M491.7,327.9h3.5v22.7h-3.5V327.9z"/>
	</g>
</g>
<g>
	<g>
		<path class="st5" d="M421.7,401.5h3.5v24.8h-3.5V401.5z M423.7,423.1h6.7c1.8,0,3-0.3,3.8-1s1.2-1.6,1.2-2.8v-0.1
			c0-0.8-0.1-1.6-0.4-2.2s-0.7-1.1-1.4-1.4c-0.6-0.3-1.4-0.5-2.4-0.5h-7.6V412h7.6c1.3,0,2.2-0.3,2.9-0.9c0.7-0.6,1-1.5,1-2.7
			c0-1.2-0.4-2.2-1.1-2.8c-0.7-0.6-1.8-0.9-3.3-0.9h-7.1v-3.2h7.7c1.6,0,2.9,0.3,4,0.8s1.9,1.3,2.4,2.3s0.8,2.2,0.8,3.6
			c0,0.9-0.2,1.6-0.5,2.4c-0.3,0.7-0.8,1.4-1.5,1.9c-0.7,0.5-1.5,0.9-2.5,1.1c1,0.1,1.9,0.5,2.6,1.1c0.7,0.6,1.3,1.3,1.7,2.1
			c0.4,0.8,0.6,1.7,0.6,2.7v0.1c0,1.3-0.3,2.5-0.9,3.5s-1.4,1.8-2.5,2.4c-1.1,0.6-2.4,0.8-3.8,0.8h-8V423.1z"/>
		<path class="st5" d="M444.2,401.5h3.5v24.8h-3.5V401.5z M445.9,423h14.2v3.3h-14.2V423z"/>
		<path class="st5" d="M467.8,425.4c-1.3-0.8-2.3-1.8-3.1-3.2c-0.7-1.4-1.1-3-1.1-4.8v-7c0-1.8,0.4-3.4,1.1-4.8s1.7-2.4,3.1-3.2
			c1.3-0.8,2.8-1.1,4.6-1.1s3.2,0.4,4.6,1.1s2.3,1.8,3.1,3.2c0.7,1.4,1.1,3,1.1,4.8v7c0,1.8-0.4,3.4-1.1,4.8
			c-0.7,1.4-1.7,2.4-3.1,3.2s-2.8,1.1-4.6,1.1S469.1,426.2,467.8,425.4z M475.1,422.4c0.8-0.5,1.4-1.1,1.8-2
			c0.4-0.8,0.6-1.8,0.6-2.9v-7.3c0-1.1-0.2-2.1-0.6-2.9s-1-1.5-1.8-2c-0.8-0.5-1.7-0.7-2.7-0.7c-1,0-1.9,0.2-2.7,0.7
			c-0.8,0.5-1.4,1.1-1.8,2s-0.6,1.8-0.6,2.9v7.3c0,1.1,0.2,2.1,0.6,2.9c0.4,0.8,1,1.5,1.8,2c0.8,0.5,1.7,0.7,2.7,0.7
			C473.4,423.1,474.3,422.9,475.1,422.4z"/>
		<path class="st5" d="M490.3,425.4c-1.3-0.8-2.3-1.8-3-3.2c-0.7-1.4-1.1-3-1.1-4.9v-6.8c0-1.8,0.4-3.5,1.1-4.9
			c0.7-1.4,1.7-2.5,3-3.2s2.8-1.1,4.5-1.1c1.4,0,2.7,0.3,3.9,0.9c1.2,0.6,2.2,1.5,3,2.6c0.8,1.1,1.3,2.4,1.6,3.9h-3.6
			c-0.2-0.8-0.6-1.5-1.1-2.1s-1.1-1.1-1.8-1.4s-1.4-0.5-2.1-0.5c-1,0-1.9,0.2-2.7,0.7c-0.8,0.5-1.4,1.2-1.8,2.1
			c-0.4,0.9-0.6,1.9-0.6,3.1v6.8c0,1.2,0.2,2.2,0.6,3.1c0.4,0.9,1,1.6,1.8,2.1c0.8,0.5,1.6,0.7,2.7,0.7c0.7,0,1.4-0.2,2.1-0.5
			c0.7-0.3,1.3-0.8,1.8-1.4c0.5-0.6,0.9-1.3,1.1-2.1h3.6c-0.3,1.5-0.8,2.8-1.6,3.9c-0.8,1.1-1.8,2-3,2.6c-1.2,0.6-2.5,0.9-3.9,0.9
			C493.1,426.6,491.6,426.2,490.3,425.4z"/>
		<path class="st5" d="M508.2,401.5h3.5v24.8h-3.5V401.5z M511,415.4l10.9-13.9h4.3l-15.7,19.1L511,415.4z M515.1,413.1l2.7-2.5
			l9.4,15.8H523L515.1,413.1z"/>
	</g>
</g>
<g>
	<g>
		<path class="st5" d="M425.3,501.1c-1.3-0.7-2.3-1.8-3-3.2c-0.7-1.4-1-3-1-5v-15.8h3.5v15.9c0,1.8,0.5,3.2,1.4,4.2s2.2,1.5,3.8,1.5
			c1.7,0,3-0.5,3.9-1.5c0.9-1,1.4-2.4,1.4-4.2v-15.9h3.5V493c0,1.9-0.3,3.6-1,5c-0.7,1.4-1.7,2.4-3,3.2c-1.3,0.7-2.9,1.1-4.7,1.1
			C428.2,502.2,426.6,501.8,425.3,501.1z"/>
		<path class="st5" d="M444.5,477.2h3.1l12.1,19.1l-0.4,0.4v-19.6h3.4v24.7h-3.2l-12.1-18.9l0.4-0.4v19.3h-3.4V477.2z"/>
		<path class="st5" d="M468.9,477.2h3.5V502h-3.5V477.2z M471,498.7h6.7c1.8,0,3-0.3,3.8-1s1.2-1.6,1.2-2.8v-0.1
			c0-0.8-0.1-1.6-0.4-2.2s-0.7-1.1-1.4-1.4c-0.6-0.3-1.4-0.5-2.4-0.5H471v-3.1h7.6c1.3,0,2.2-0.3,2.9-0.9c0.7-0.6,1-1.5,1-2.7
			c0-1.2-0.4-2.2-1.1-2.8c-0.7-0.6-1.8-0.9-3.3-0.9H471v-3.2h7.7c1.6,0,2.9,0.3,4,0.8s1.9,1.3,2.4,2.3s0.8,2.2,0.8,3.6
			c0,0.9-0.2,1.6-0.5,2.4c-0.3,0.7-0.8,1.4-1.5,1.9c-0.7,0.5-1.5,0.9-2.5,1.1c1,0.1,1.9,0.5,2.6,1.1c0.7,0.6,1.3,1.3,1.7,2.1
			c0.4,0.8,0.6,1.7,0.6,2.7v0.1c0,1.3-0.3,2.5-0.9,3.5s-1.4,1.8-2.5,2.4c-1.1,0.6-2.4,0.8-3.8,0.8h-8V498.7z"/>
		<path class="st5" d="M491.4,477.2h3.5V502h-3.5V477.2z M493.2,498.6h14.2v3.3h-14.2V498.6z"/>
		<path class="st5" d="M515.1,501.1c-1.3-0.8-2.3-1.8-3.1-3.2c-0.7-1.4-1.1-3-1.1-4.8v-7c0-1.8,0.4-3.4,1.1-4.8s1.7-2.4,3.1-3.2
			c1.3-0.8,2.8-1.1,4.6-1.1s3.2,0.4,4.6,1.1s2.3,1.8,3.1,3.2c0.7,1.4,1.1,3,1.1,4.8v7c0,1.8-0.4,3.4-1.1,4.8
			c-0.7,1.4-1.7,2.4-3.1,3.2s-2.8,1.1-4.6,1.1S516.4,501.8,515.1,501.1z M522.3,498.1c0.8-0.5,1.4-1.1,1.8-2
			c0.4-0.8,0.6-1.8,0.6-2.9v-7.3c0-1.1-0.2-2.1-0.6-2.9s-1-1.5-1.8-2c-0.8-0.5-1.7-0.7-2.7-0.7c-1,0-1.9,0.2-2.7,0.7
			c-0.8,0.5-1.4,1.1-1.8,2s-0.6,1.8-0.6,2.9v7.3c0,1.1,0.2,2.1,0.6,2.9c0.4,0.8,1,1.5,1.8,2c0.8,0.5,1.7,0.7,2.7,0.7
			C520.6,498.8,521.5,498.6,522.3,498.1z"/>
		<path class="st5" d="M537.5,501.1c-1.3-0.8-2.3-1.8-3-3.2c-0.7-1.4-1.1-3-1.1-4.9v-6.8c0-1.8,0.4-3.5,1.1-4.9
			c0.7-1.4,1.7-2.5,3-3.2s2.8-1.1,4.5-1.1c1.4,0,2.7,0.3,3.9,0.9c1.2,0.6,2.2,1.5,3,2.6c0.8,1.1,1.3,2.4,1.6,3.9H547
			c-0.2-0.8-0.6-1.5-1.1-2.1s-1.1-1.1-1.8-1.4s-1.4-0.5-2.1-0.5c-1,0-1.9,0.2-2.7,0.7c-0.8,0.5-1.4,1.2-1.8,2.1
			c-0.4,0.9-0.6,1.9-0.6,3.1v6.8c0,1.2,0.2,2.2,0.6,3.1c0.4,0.9,1,1.6,1.8,2.1c0.8,0.5,1.6,0.7,2.7,0.7c0.7,0,1.4-0.2,2.1-0.5
			c0.7-0.3,1.3-0.8,1.8-1.4c0.5-0.6,0.9-1.3,1.1-2.1h3.6c-0.3,1.5-0.8,2.8-1.6,3.9c-0.8,1.1-1.8,2-3,2.6s-2.5,0.9-3.9,0.9
			C540.3,502.2,538.8,501.8,537.5,501.1z"/>
		<path class="st5" d="M555.5,477.2h3.5V502h-3.5V477.2z M558.2,491.1l10.9-13.9h4.3l-15.7,19.1L558.2,491.1z M562.4,488.7l2.7-2.5
			l9.4,15.8h-4.3L562.4,488.7z"/>
	</g>
</g>
<g>
	<g>
		<path class="st5" d="M674.7,326.6h3.5v24.8h-3.5V326.6z M676.2,337.6h8.4c0.7,0,1.2-0.2,1.8-0.5c0.5-0.3,0.9-0.8,1.2-1.4
			c0.3-0.6,0.4-1.3,0.4-2c0-0.8-0.1-1.4-0.4-2c-0.3-0.6-0.7-1-1.2-1.4s-1.1-0.5-1.8-0.5h-8.4v-3.3h8.3c1.4,0,2.7,0.3,3.8,0.9
			s1.9,1.4,2.5,2.5c0.6,1.1,0.9,2.3,0.9,3.8s-0.3,2.7-0.9,3.8s-1.4,1.9-2.5,2.5c-1.1,0.6-2.3,0.9-3.8,0.9h-8.3V337.6z M682.9,340.1
			l3.5-0.8l6.3,12h-4.1L682.9,340.1z"/>
		<path class="st5" d="M697.4,326.6h3.5v24.8h-3.5V326.6z M699.1,326.6h14.2v3.3h-14.2V326.6z M699.1,337.4h12.3v3.3h-12.3V337.4z
			 M699.1,348.1h14.2v3.3h-14.2V348.1z"/>
		<path class="st5" d="M735.2,338v4.3c0,1.8-0.4,3.5-1.1,4.9c-0.7,1.4-1.7,2.5-3,3.3s-2.8,1.1-4.6,1.1c-1.7,0-3.3-0.4-4.6-1.1
			s-2.3-1.7-3.1-3.1c-0.7-1.3-1.1-2.8-1.1-4.6v-7.3c0-1.8,0.4-3.5,1.1-4.9c0.7-1.4,1.7-2.5,3-3.2c1.3-0.8,2.8-1.1,4.6-1.1
			c1.4,0,2.7,0.3,3.9,0.9c1.2,0.6,2.2,1.5,3,2.6c0.8,1.1,1.4,2.4,1.6,3.9h-3.8c-0.2-0.8-0.6-1.5-1-2.1c-0.5-0.6-1.1-1-1.7-1.4
			c-0.7-0.3-1.3-0.5-2-0.5c-1,0-1.9,0.2-2.7,0.7c-0.8,0.5-1.4,1.2-1.8,2.1c-0.4,0.9-0.6,1.9-0.6,3.1v7.3c0,1.1,0.2,2,0.6,2.8
			s1,1.4,1.8,1.9c0.8,0.4,1.7,0.7,2.7,0.7c1,0,1.9-0.2,2.7-0.7c0.8-0.5,1.4-1.1,1.8-2c0.4-0.9,0.6-1.9,0.6-3.1v-1.1h-5V338H735.2z"
			/>
		<path class="st5" d="M744.3,351.4h-3.5v-24.8h3.5V351.4z"/>
		<path class="st5" d="M754,350.5c-1.3-0.8-2.3-1.8-3.1-3.2c-0.7-1.4-1.1-3-1.1-4.8v-7c0-1.8,0.4-3.4,1.1-4.8
			c0.7-1.4,1.7-2.4,3.1-3.2c1.3-0.8,2.8-1.1,4.6-1.1s3.2,0.4,4.6,1.1c1.3,0.8,2.3,1.8,3.1,3.2c0.7,1.4,1.1,3,1.1,4.8v7
			c0,1.8-0.4,3.4-1.1,4.8c-0.7,1.4-1.7,2.4-3.1,3.2c-1.3,0.8-2.8,1.1-4.6,1.1S755.3,351.2,754,350.5z M761.3,347.5
			c0.8-0.5,1.4-1.1,1.8-2c0.4-0.8,0.6-1.8,0.6-2.9v-7.3c0-1.1-0.2-2.1-0.6-2.9s-1-1.5-1.8-2c-0.8-0.5-1.7-0.7-2.7-0.7
			s-1.9,0.2-2.7,0.7c-0.8,0.5-1.4,1.1-1.8,2s-0.6,1.8-0.6,2.9v7.3c0,1.1,0.2,2.1,0.6,2.9c0.4,0.8,1,1.5,1.8,2
			c0.8,0.5,1.7,0.7,2.7,0.7S760.5,348,761.3,347.5z"/>
		<path class="st5" d="M772.9,326.6h3.2l12.1,19.1l-0.4,0.4v-19.6h3.4v24.7H788l-12.1-18.8l0.4-0.4v19.3h-3.4V326.6z"/>
	</g>
</g>
<g>
	<g>
		<path class="st5" d="M675,402.3h3.5V427H675V402.3z M677.7,416.2l10.9-13.9h4.3l-15.7,19.1L677.7,416.2z M681.8,413.8l2.7-2.5
			l9.4,15.8h-4.3L681.8,413.8z"/>
		<path class="st5" d="M700.8,427h-3.5v-24.8h3.5V427z"/>
		<path class="st5" d="M710.5,426.1c-1.3-0.8-2.3-1.8-3-3.2c-0.7-1.4-1.1-3-1.1-4.9v-6.8c0-1.8,0.4-3.5,1.1-4.9
			c0.7-1.4,1.7-2.5,3-3.2s2.8-1.1,4.5-1.1c1.4,0,2.7,0.3,3.9,0.9c1.2,0.6,2.2,1.5,3,2.6c0.8,1.1,1.3,2.4,1.6,3.9H720
			c-0.2-0.8-0.6-1.5-1.1-2.1s-1.1-1.1-1.8-1.4s-1.4-0.5-2.1-0.5c-1,0-1.9,0.2-2.7,0.7c-0.8,0.5-1.4,1.2-1.8,2.1
			c-0.4,0.9-0.6,1.9-0.6,3.1v6.8c0,1.2,0.2,2.2,0.6,3.1c0.4,0.9,1,1.6,1.8,2.1s1.6,0.7,2.7,0.7c0.7,0,1.4-0.2,2.1-0.5
			c0.7-0.3,1.3-0.8,1.8-1.4c0.5-0.6,0.9-1.3,1.1-2.1h3.6c-0.3,1.5-0.8,2.8-1.6,3.9c-0.8,1.1-1.8,2-3,2.6c-1.2,0.6-2.5,0.9-3.9,0.9
			C713.3,427.3,711.8,426.9,710.5,426.1z"/>
		<path class="st5" d="M728.5,402.3h3.5V427h-3.5V402.3z M731.2,416.2l10.9-13.9h4.3l-15.7,19.1L731.2,416.2z M735.4,413.8l2.7-2.5
			l9.4,15.8h-4.3L735.4,413.8z"/>
	</g>
</g>
<g>
	<g>
		<path class="st5" d="M675,477.9h3.5v24.8H675V477.9z M676.7,499.4h14.2v3.3h-14.2V499.4z"/>
		<path class="st5" d="M698.4,502.7H695v-24.8h3.5V502.7z"/>
		<path class="st5" d="M708.6,502.6c-1.1-0.2-2.1-0.6-3-1s-1.8-1-2.6-1.7l2.2-2.7c0.9,0.8,2,1.4,3.1,1.8c1.1,0.4,2.4,0.6,3.7,0.6
			c1.8,0,3.2-0.3,4.2-1s1.5-1.6,1.5-2.8v0c0-0.9-0.2-1.5-0.7-2.1c-0.4-0.5-1-0.9-1.7-1.1c-0.7-0.2-1.6-0.5-2.8-0.7c0,0-0.1,0-0.1,0
			s-0.1,0-0.1,0l-0.3-0.1c-1.7-0.3-3-0.6-4-1c-1-0.4-1.9-1-2.7-2c-0.7-0.9-1.1-2.3-1.1-4v0c0-1.5,0.3-2.8,1-3.9s1.7-1.9,3-2.5
			c1.3-0.6,2.9-0.9,4.8-0.9c0.9,0,1.8,0.1,2.6,0.3c0.9,0.2,1.7,0.5,2.5,0.9c0.8,0.4,1.7,0.9,2.5,1.4l-2,2.8
			c-0.9-0.7-1.9-1.2-2.8-1.6c-0.9-0.3-1.9-0.5-2.8-0.5c-1.7,0-3,0.3-3.9,1c-0.9,0.7-1.4,1.6-1.4,2.9v0c0,0.9,0.2,1.5,0.7,2
			c0.5,0.5,1.1,0.8,1.8,1.1c0.7,0.2,1.7,0.5,3,0.7c0,0,0.1,0,0.1,0c0,0,0.1,0,0.1,0c0.1,0,0.1,0,0.2,0c0.1,0,0.1,0,0.2,0
			c1.5,0.3,2.8,0.7,3.8,1.1c1,0.4,1.8,1.1,2.5,2c0.7,0.9,1,2.2,1,3.8v0c0,1.5-0.4,2.8-1.1,3.9c-0.7,1.1-1.8,1.9-3.1,2.5
			c-1.4,0.6-3,0.8-4.9,0.8C710.8,502.9,709.7,502.8,708.6,502.6z"/>
		<path class="st5" d="M722.6,477.9h17.5v3.3h-17.5V477.9z M729.6,479.9h3.5v22.7h-3.5V479.9z"/>
		<path class="st5" d="M746.9,502.6c-1.1-0.2-2.1-0.6-3-1s-1.8-1-2.6-1.7l2.2-2.7c0.9,0.8,2,1.4,3.1,1.8c1.1,0.4,2.4,0.6,3.7,0.6
			c1.8,0,3.2-0.3,4.2-1s1.5-1.6,1.5-2.8v0c0-0.9-0.2-1.5-0.7-2.1c-0.4-0.5-1-0.9-1.7-1.1c-0.7-0.2-1.6-0.5-2.8-0.7c0,0-0.1,0-0.1,0
			s-0.1,0-0.1,0l-0.3-0.1c-1.7-0.3-3-0.6-4-1c-1-0.4-1.9-1-2.7-2c-0.7-0.9-1.1-2.3-1.1-4v0c0-1.5,0.3-2.8,1-3.9s1.7-1.9,3-2.5
			c1.3-0.6,2.9-0.9,4.8-0.9c0.9,0,1.8,0.1,2.6,0.3c0.9,0.2,1.7,0.5,2.5,0.9c0.8,0.4,1.7,0.9,2.5,1.4l-2,2.8
			c-0.9-0.7-1.9-1.2-2.8-1.6c-0.9-0.3-1.9-0.5-2.8-0.5c-1.7,0-3,0.3-3.9,1c-0.9,0.7-1.4,1.6-1.4,2.9v0c0,0.9,0.2,1.5,0.7,2
			c0.5,0.5,1.1,0.8,1.8,1.1c0.7,0.2,1.7,0.5,3,0.7c0,0,0.1,0,0.1,0c0,0,0.1,0,0.1,0c0.1,0,0.1,0,0.2,0c0.1,0,0.1,0,0.2,0
			c1.5,0.3,2.8,0.7,3.8,1.1c1,0.4,1.8,1.1,2.5,2c0.7,0.9,1,2.2,1,3.8v0c0,1.5-0.4,2.8-1.1,3.9c-0.7,1.1-1.8,1.9-3.1,2.5
			c-1.4,0.6-3,0.8-4.9,0.8C749.1,502.9,747.9,502.8,746.9,502.6z"/>
	</g>
</g>
<g>
	<g>
		<path class="st5" d="M927.8,325.9h17.5v3.3h-17.5V325.9z M934.8,327.9h3.5v22.7h-3.5V327.9z"/>
		<path class="st5" d="M948,325.9h3.5v24.8H948V325.9z M950.2,336.8h13.7v3.3h-13.7V336.8z M962.1,325.9h3.5v24.8h-3.5V325.9z"/>
		<path class="st5" d="M971.7,325.9h3.5v24.8h-3.5V325.9z M973.2,336.9h8.4c0.7,0,1.2-0.2,1.8-0.5c0.5-0.3,0.9-0.8,1.2-1.4
			c0.3-0.6,0.4-1.3,0.4-2c0-0.8-0.1-1.4-0.4-2c-0.3-0.6-0.7-1-1.2-1.4s-1.1-0.5-1.8-0.5h-8.4v-3.3h8.3c1.4,0,2.7,0.3,3.8,0.9
			s1.9,1.4,2.5,2.5c0.6,1.1,0.9,2.3,0.9,3.8s-0.3,2.7-0.9,3.8s-1.4,1.9-2.5,2.5c-1.1,0.6-2.3,0.9-3.8,0.9h-8.3V336.9z M979.9,339.4
			l3.5-0.8l6.3,12h-4.1L979.9,339.4z"/>
		<path class="st5" d="M994.4,325.9h3.5v24.8h-3.5V325.9z M996.1,325.9h14.2v3.3h-14.2V325.9z M996.1,336.7h12.3v3.3h-12.3V336.7z
			 M996.1,347.3h14.2v3.3h-14.2V347.3z"/>
		<path class="st5" d="M1022,325.9h3l9.1,24.8h-3.7l-6.9-20l-6.9,20h-3.7L1022,325.9z M1017.1,341.9h13v3.3h-13V341.9z"/>
		<path class="st5" d="M1037.8,325.9h3.5v24.8h-3.5V325.9z M1040.2,347.3h5.6c1.8,0,3.2-0.5,4.2-1.4c1-0.9,1.5-2.3,1.5-4v-7.3
			c0-1.7-0.5-3.1-1.5-4c-1-0.9-2.4-1.4-4.2-1.4h-5.6v-3.3h5.5c2,0,3.7,0.3,5.1,1c1.4,0.7,2.5,1.7,3.2,3s1.1,2.9,1.1,4.8v7
			c0,1.9-0.4,3.5-1.1,4.8s-1.8,2.3-3.2,3s-3.1,1-5.1,1h-5.5V347.3z"/>
	</g>
</g>
<g>
	<g>
		<path class="st5" d="M936.9,426.5c-1.3-0.8-2.3-1.8-3-3.2c-0.7-1.4-1.1-3-1.1-4.9v-6.8c0-1.8,0.4-3.5,1.1-4.9
			c0.7-1.4,1.7-2.5,3-3.2s2.8-1.1,4.5-1.1c1.4,0,2.7,0.3,3.9,0.9c1.2,0.6,2.2,1.5,3,2.6c0.8,1.1,1.3,2.4,1.6,3.9h-3.6
			c-0.2-0.8-0.6-1.5-1.1-2.1s-1.1-1.1-1.8-1.4s-1.4-0.5-2.1-0.5c-1,0-1.9,0.2-2.7,0.7c-0.8,0.5-1.4,1.2-1.8,2.1
			c-0.4,0.9-0.6,1.9-0.6,3.1v6.8c0,1.2,0.2,2.2,0.6,3.1c0.4,0.9,1,1.6,1.8,2.1s1.6,0.7,2.7,0.7c0.7,0,1.4-0.2,2.1-0.5
			c0.7-0.3,1.3-0.8,1.8-1.4c0.5-0.6,0.9-1.3,1.1-2.1h3.6c-0.3,1.5-0.8,2.8-1.6,3.9c-0.8,1.1-1.8,2-3,2.6c-1.2,0.6-2.5,0.9-3.9,0.9
			C939.7,427.6,938.2,427.3,936.9,426.5z"/>
		<path class="st5" d="M954.9,402.6h3.5v24.8h-3.5V402.6z M956.7,424.1h14.2v3.3h-14.2V424.1z"/>
		<path class="st5" d="M981.6,402.6h3l9.1,24.8H990l-6.9-20l-6.9,20h-3.7L981.6,402.6z M976.7,418.7h13v3.3h-13V418.7z"/>
		<path class="st5" d="M1001,427.4h-3.5v-24.8h3.5V427.4z"/>
		<path class="st5" d="M1024.9,402.6h3.3v24.8h-3.4v-18.5l0.2,1.1l-6.1,14h-2.4l-6.1-13.7l0.2-1.4v18.5h-3.4v-24.8h3.3l7.3,16.3
			L1024.9,402.6z"/>
	</g>
</g>
<g>
	<g>
		<path class="st5" d="M926.8,478.2h17.5v3.3h-17.5V478.2z M933.8,480.2h3.5v22.7h-3.5V480.2z"/>
		<path class="st5" d="M947,478.2h3.5v24.8H947V478.2z M948.5,489.2h8.4c0.7,0,1.2-0.2,1.8-0.5c0.5-0.3,0.9-0.8,1.2-1.4
			c0.3-0.6,0.4-1.3,0.4-2c0-0.8-0.1-1.4-0.4-2c-0.3-0.6-0.7-1-1.2-1.4s-1.1-0.5-1.8-0.5h-8.4v-3.3h8.3c1.4,0,2.7,0.3,3.8,0.9
			s1.9,1.4,2.5,2.5c0.6,1.1,0.9,2.3,0.9,3.8s-0.3,2.7-0.9,3.8s-1.4,1.9-2.5,2.5c-1.1,0.6-2.3,0.9-3.8,0.9h-8.3V489.2z M955.3,491.7
			l3.5-0.8l6.3,12h-4.1L955.3,491.7z"/>
		<path class="st5" d="M976.5,478.2h3l9.1,24.8h-3.7l-6.9-20l-6.9,20h-3.7L976.5,478.2z M971.6,494.2h13v3.3h-13V494.2z"/>
		<path class="st5" d="M992.3,478.2h3.2l12.1,19.1l-0.4,0.4v-19.6h3.4v24.7h-3.2l-12.1-18.9l0.4-0.4v19.3h-3.4V478.2z"/>
		<path class="st5" d="M1020.8,502.9c-1.1-0.2-2.1-0.6-3-1s-1.8-1-2.6-1.7l2.2-2.7c0.9,0.8,2,1.4,3.1,1.8c1.1,0.4,2.4,0.6,3.7,0.6
			c1.8,0,3.2-0.3,4.2-1s1.5-1.6,1.5-2.8v0c0-0.9-0.2-1.5-0.7-2.1c-0.4-0.5-1-0.9-1.7-1.1c-0.7-0.2-1.6-0.5-2.8-0.7c0,0-0.1,0-0.1,0
			s-0.1,0-0.1,0l-0.3-0.1c-1.7-0.3-3-0.6-4-1c-1-0.4-1.9-1-2.7-2c-0.7-0.9-1.1-2.3-1.1-4v0c0-1.5,0.3-2.8,1-3.9s1.7-1.9,3-2.5
			c1.3-0.6,2.9-0.9,4.8-0.9c0.9,0,1.8,0.1,2.6,0.3c0.9,0.2,1.7,0.5,2.5,0.9c0.8,0.4,1.7,0.9,2.5,1.4l-2,2.8
			c-0.9-0.7-1.9-1.2-2.8-1.6c-0.9-0.3-1.9-0.5-2.8-0.5c-1.7,0-3,0.3-3.9,1c-0.9,0.7-1.4,1.6-1.4,2.9v0c0,0.9,0.2,1.5,0.7,2
			c0.5,0.5,1.1,0.8,1.8,1.1c0.7,0.2,1.7,0.5,3,0.7c0,0,0.1,0,0.1,0c0,0,0.1,0,0.1,0c0.1,0,0.1,0,0.2,0c0.1,0,0.1,0,0.2,0
			c1.5,0.3,2.8,0.7,3.8,1.1c1,0.4,1.8,1.1,2.5,2c0.7,0.9,1,2.2,1,3.8v0c0,1.5-0.4,2.8-1.1,3.9c-0.7,1.1-1.8,1.9-3.1,2.5
			c-1.4,0.6-3,0.8-4.9,0.8C1023,503.2,1021.9,503.1,1020.8,502.9z"/>
		<path class="st5" d="M1038.2,478.2h3.5v24.8h-3.5V478.2z M1039.9,478.2h13.9v3.3h-13.9V478.2z M1039.9,489.2h12v3.3h-12V489.2z"/>
		<path class="st5" d="M1057.7,478.2h3.5v24.8h-3.5V478.2z M1059.4,478.2h14.2v3.3h-14.2V478.2z M1059.4,489h12.3v3.3h-12.3V489z
			 M1059.4,499.6h14.2v3.3h-14.2V499.6z"/>
		<path class="st5" d="M1078.5,478.2h3.5v24.8h-3.5V478.2z M1080.1,489.2h8.4c0.7,0,1.2-0.2,1.8-0.5c0.5-0.3,0.9-0.8,1.2-1.4
			c0.3-0.6,0.4-1.3,0.4-2c0-0.8-0.1-1.4-0.4-2c-0.3-0.6-0.7-1-1.2-1.4s-1.1-0.5-1.8-0.5h-8.4v-3.3h8.3c1.4,0,2.7,0.3,3.8,0.9
			s1.9,1.4,2.5,2.5c0.6,1.1,0.9,2.3,0.9,3.8s-0.3,2.7-0.9,3.8s-1.4,1.9-2.5,2.5c-1.1,0.6-2.3,0.9-3.8,0.9h-8.3V489.2z M1086.8,491.7
			l3.5-0.8l6.3,12h-4.1L1086.8,491.7z"/>
	</g>
</g>
<path class="st6" d="M566,574.3h-460c-3.5,0-6.4-2.9-6.4-6.4v-2.5c0-3.5,2.9-6.4,6.4-6.4h460c3.5,0,6.4,2.9,6.4,6.4v2.5
	C572.4,571.4,569.6,574.3,566,574.3z"/>
<path class="st6" d="M914.4,270.6H107c-3.5,0-6.4-2.9-6.4-6.4v-62.9c0-3.5,2.9-6.4,6.4-6.4h807.4c3.5,0,6.4,2.9,6.4,6.4v62.9
	C920.8,267.7,918,270.6,914.4,270.6z"/>
<g>
	<g>
		<g>
			<path class="st5" d="M114.3,164.4h-6.2v-31.6h6.2V164.4z"/>
			<path class="st5" d="M120.8,132.7h7.3l11.8,24.2l-0.5,0.6v-24.8h5.7v31.6h-7.3L126,140.5l0.5-0.6v24.4h-5.7V132.7z"/>
			<path class="st5" d="M147.7,132.7h23.2v5.7h-23.2V132.7z M156.3,135.3h6v29.1h-6V135.3z"/>
			<path class="st5" d="M173.5,132.7h6v31.6h-6V132.7z M175.6,132.7h19v5.7h-19V132.7z M175.6,145.8h16.6v5.7h-16.6V145.8z
				 M175.6,158.6h19v5.7h-19V158.6z"/>
			<path class="st5" d="M200.1,132.7h6v31.7h-6V132.7z M202.5,145.9h11c0.6,0,1.1-0.2,1.6-0.5c0.5-0.3,0.8-0.7,1.1-1.3
				c0.3-0.6,0.4-1.2,0.4-2c0-0.7-0.1-1.4-0.4-2c-0.3-0.6-0.6-1-1.1-1.3s-1-0.5-1.6-0.5h-11v-5.7H214c1.7,0,3.3,0.4,4.6,1.2
				c1.3,0.8,2.3,1.9,3.1,3.3c0.7,1.4,1.1,3.1,1.1,5c0,1.9-0.4,3.5-1.1,5c-0.7,1.4-1.8,2.5-3.1,3.3c-1.3,0.8-2.9,1.2-4.6,1.2h-11.5
				V145.9z M209.2,150.7l6.4-1l8.5,14.7h-7.2L209.2,150.7z"/>
			<path class="st5" d="M229.2,132.7h6v31.6h-6V132.7z M231.3,132.7H250v5.7h-18.6V132.7z M231.3,146.1h16.2v5.7h-16.2V146.1z"/>
			<path class="st5" d="M263.1,132.7h3.8l12.1,31.6h-6.4l-7.6-21.6l-7.6,21.6H251L263.1,132.7z M256.9,153.6h16.6v5.7h-16.6V153.6z"
				/>
			<path class="st5" d="M287.6,163.3c-1.7-0.9-3-2.3-3.9-4c-0.9-1.8-1.3-3.9-1.3-6.4v-8.7c0-2.5,0.4-4.6,1.3-6.4
				c0.9-1.8,2.2-3.1,3.9-4c1.7-0.9,3.8-1.4,6.2-1.4c2,0,3.8,0.4,5.3,1.3c1.6,0.9,2.9,2.1,3.9,3.7c1,1.6,1.7,3.6,2.1,5.9h-6.2
				c-0.2-1-0.6-1.9-1.1-2.7c-0.5-0.7-1.1-1.3-1.8-1.7c-0.7-0.4-1.5-0.6-2.3-0.6c-1.1,0-2.1,0.2-2.9,0.7c-0.8,0.5-1.4,1.1-1.8,2
				c-0.4,0.9-0.6,1.9-0.6,3.2v8.7c0,1.2,0.2,2.3,0.6,3.2c0.4,0.9,1,1.5,1.8,2c0.8,0.5,1.7,0.7,2.9,0.7c0.9,0,1.7-0.2,2.4-0.6
				c0.7-0.4,1.3-0.9,1.8-1.7c0.5-0.7,0.8-1.6,1-2.7h6.2c-0.4,2.3-1.1,4.3-2.1,5.9c-1,1.6-2.3,2.9-3.9,3.7s-3.3,1.3-5.3,1.3
				C291.3,164.7,289.3,164.2,287.6,163.3z"/>
			<path class="st5" d="M310.5,132.7h6v31.6h-6V132.7z M312.7,132.7h19v5.7h-19V132.7z M312.7,145.8h16.6v5.7h-16.6V145.8z
				 M312.7,158.6h19v5.7h-19V158.6z"/>
		</g>
	</g>
</g>
</svg>
