<?xml version="1.0" encoding="utf-8"?>
<!-- Generator: Adobe Illustrator 25.0.0, SVG Export Plug-In . SVG Version: 6.00 Build 0)  -->
<svg version="1.1" id="Layer_1" xmlns="http://www.w3.org/2000/svg" xmlns:xlink="http://www.w3.org/1999/xlink" x="0px" y="0px"
	 viewBox="0 0 1203.4 1000.4" style="enable-background:new 0 0 1203.4 1000.4;" xml:space="preserve">
<style type="text/css">
	.st0{fill:#292841;}
	.st1{fill:#36393F;}
	.st2{fill:#2F3136;}
	.st3{fill:#B9BBBE;}
	.st4{fill:#FFFFFF;}
	.st5{fill:#ED4245;}
	.st6{fill:#F6F6F6;}
	.st7{fill:#5865F2;}
	.st8{fill:#57F287;}
	.st9{fill:#FEE75C;}
	.st10{fill:#EB459E;}
	.st11{fill:#4FDC7C;}
	.st12{opacity:0.24;fill:#B9BBBE;enable-background:new    ;}
	.st13{fill:#22252B;}
	.st14{fill:#C2905B;}
	.st15{fill:#9FB35B;}
	.st16{fill:#A17548;}
	.st17{enable-background:new    ;}
	.st18{fill:#523C25;}
	.st19{fill:#725333;}
	.st20{fill:#8D663F;}
	.st21{fill:#606060;}
	.st22{fill:none;}
	.st23{opacity:0.43;}
	.st24{fill:#5664EC;}
	.st25{opacity:0.24;fill:url(#SVGID_1_);enable-background:new    ;}
	.st26{opacity:0.3;fill:#292841;}
	.st27{opacity:0.3;fill:#B9BBBE;}
	.st28{opacity:0.3;fill:#ED4245;}
	.st29{opacity:0.3;fill:#FFFFFF;}
	.st30{opacity:0.3;fill:#5865F2;}
	.st31{opacity:0.3;}
</style>
<path class="st0" d="M588.5,248.6v229c0,7.7-6.2,13.9-13.9,13.9c0,0,0,0,0,0h-525c-7.7,0-13.9-6.2-13.9-13.9c0,0,0,0,0,0v-229
	c0-7.7,6.2-13.9,13.9-13.9h525C582.3,234.7,588.5,240.9,588.5,248.6z"/>
<path class="st3" d="M115.5,319.8c1.3,1.3,2.9,2.3,4.7,2.8c0.1,0.4,0.1,0.8,0.1,1.3c0,2.6-1.1,5-3,6.7c-0.5,0.5-1.3,0.4-1.8-0.1
	c-0.2-0.2-0.3-0.5-0.3-0.9v-10.2L115.5,319.8z"/>
<path class="st3" d="M116.8,315l-3.1-3.1h2.4c0-0.4,0-0.9,0.1-1.3c0.7-4,4.5-6.6,8.4-5.9c4,0.7,6.6,4.5,5.9,8.4
	c-0.3,1.6-1.1,3-2.3,4.1c-1,0.9-2.3,1.6-3.7,1.8c-0.4,0.1-0.8,0.1-1.2,0.1c-1.9,0-3.7-0.8-5.1-2.1l1.1-1.1c1.1,1.1,2.5,1.7,4,1.7
	h0.5c3.1-0.3,5.4-3,5.1-6.2c-0.3-3.1-3-5.4-6.2-5.1c-2.7,0.2-4.8,2.3-5.1,5c0,0.2,0,0.4,0,0.6h2.4l-0.5,0.5l-2.7,2.7L116.8,315z"/>
<polygon class="st3" points="123.8,312 126.2,313.4 126.6,313.6 126.5,313.8 126,314.7 122.6,312.6 122.6,308.6 123.8,308.6 "/>
<path class="st3" d="M129.3,321.3c1.2,8.8-4,17.2-12.4,20c-0.7,0.2-1.4-0.1-1.6-0.8c0-0.1-0.1-0.3-0.1-0.4v-1.6c0-0.5,0.3-1,0.8-1.2
	c5.6-2.1,9.4-7.4,9.4-13.4c0-0.3,0-0.7,0-1C126.8,322.6,128.1,322,129.3,321.3z"/>
<path class="st3" d="M129.3,321.3c-1.2,0.8-2.5,1.3-3.9,1.6c0,0.3,0,0.7,0,1c0,6-3.8,11.4-9.4,13.4c-0.5,0.2-0.8,0.7-0.8,1.2v1.6
	c0,0.7,0.6,1.3,1.3,1.3c0.1,0,0.3,0,0.4-0.1c7.5-2.5,12.6-9.5,12.6-17.4C129.5,323,129.4,322.1,129.3,321.3z M124.6,319
	c1.4-0.2,2.7-0.8,3.7-1.8c-0.2-0.5-0.4-1.1-0.7-1.6c-1,1-2.3,1.7-3.7,1.8C124.2,318,124.4,318.5,124.6,319L124.6,319z M126.5,313.8
	c-0.1-0.1-0.2-0.3-0.3-0.4l-2.4-1.4v-1.4c-0.4-0.4-0.8-0.8-1.2-1.1v3.2l3.4,2L126.5,313.8z M119.6,312.4l0.5-0.5h-1.3
	C119.1,312,119.4,312.2,119.6,312.4L119.6,312.4z M119.6,307.6c-0.5-0.3-1-0.5-1.6-0.8c-0.9,1-1.6,2.3-1.8,3.6
	c0.5,0.2,1,0.4,1.5,0.7C117.9,309.8,118.6,308.5,119.6,307.6L119.6,307.6z M120.2,322.6c-1.8-0.5-3.4-1.5-4.7-2.8
	c-0.1-0.1-0.2-0.2-0.3-0.3v10.2c0,0.7,0.6,1.3,1.3,1.3c0.3,0,0.6-0.1,0.9-0.3c1.9-1.7,3-4.2,3-6.7
	C120.3,323.5,120.3,323,120.2,322.6L120.2,322.6z M108.9,309.7l-7.7,7.7c-0.2,0.2-0.6,0.4-0.9,0.4H94c-0.7,0-1.3,0.6-1.3,1.3v9.7
	c0,0.7,0.6,1.3,1.3,1.3h6.4c0.3,0,0.7,0.1,0.9,0.4l7.7,7.7c0.5,0.5,1.3,0.5,1.8,0c0.2-0.2,0.4-0.6,0.4-0.9v-26.5
	c0-0.7-0.6-1.3-1.3-1.2C109.5,309.4,109.2,309.5,108.9,309.7L108.9,309.7z"/>
<polygon class="st3" points="123.8,312 126.2,313.4 126.6,313.6 126.5,313.8 126,314.7 122.6,312.6 122.6,308.6 123.8,308.6 "/>
<path class="st3" d="M128.3,317.2c-1,0.9-2.3,1.6-3.7,1.8c-0.4,0.1-0.8,0.1-1.2,0.1c-1.9,0-3.8-0.8-5.1-2.1l1.1-1.1
	c1.1,1.1,2.5,1.7,4,1.7h0.5c3.1-0.3,5.4-3,5.1-6.2c-0.3-3.1-3-5.4-6.2-5.1c-2.7,0.2-4.8,2.3-5.1,5c0,0.2,0,0.4,0,0.6h2.4l-0.5,0.5
	l-2.7,2.7l-0.1-0.1l-3.1-3.1h2.4c0-0.4,0-0.9,0.1-1.3c0.7-3.9,4.6-6.5,8.5-5.8c3.3,0.6,5.7,3.4,5.9,6.8
	C130.8,313.7,129.9,315.8,128.3,317.2z"/>
<path class="st3" d="M115.2,319.5c0.1,0.1,0.2,0.2,0.3,0.3h-0.3V319.5z"/>
<polygon class="st3" points="123.8,312 126.2,313.4 126.6,313.6 126.5,313.8 126,314.7 122.6,312.6 122.6,308.6 123.8,308.6 "/>
<path class="st3" d="M128.3,317.2c-1,0.9-2.3,1.6-3.7,1.8c-0.4,0.1-0.8,0.1-1.2,0.1c-1.9,0-3.8-0.8-5.1-2.1l1.1-1.1
	c1.1,1.1,2.5,1.7,4,1.7h0.5c3.1-0.3,5.4-3,5.1-6.2c-0.3-3.1-3-5.4-6.2-5.1c-2.7,0.2-4.8,2.3-5.1,5c0,0.2,0,0.4,0,0.6h2.4l-0.5,0.5
	l-2.7,2.7l-0.1-0.1l-3.1-3.1h2.4c0-0.4,0-0.9,0.1-1.3c0.7-3.9,4.6-6.5,8.5-5.8c3.3,0.6,5.7,3.4,5.9,6.8
	C130.8,313.7,129.9,315.8,128.3,317.2z"/>
<path class="st3" d="M126.2,313.4l-2.4-1.5v-3.3h-1.2v4.1l3.4,2l0.5-0.9l0.1-0.2L126.2,313.4z M130.7,311.5c-0.2-4-3.6-7.1-7.6-6.9
	c-3.4,0.2-6.1,2.6-6.8,5.9c-0.1,0.4-0.1,0.9-0.1,1.3h-2.4l3.1,3.1l0.1,0.1l2.7-2.7l0.5-0.5h-2.4c0-0.2,0-0.4,0-0.6
	c0.2-1.4,0.8-2.7,1.9-3.6c1.1-1,2.5-1.5,4-1.4c3.1,0.1,5.5,2.8,5.4,5.9c-0.1,2.8-2.3,5.1-5.1,5.4h-0.5c-1.5,0-2.9-0.6-4-1.7
	l-1.1,1.1c1.4,1.4,3.2,2.1,5.1,2.1c0.4,0,0.8,0,1.2-0.1C128.2,318.4,130.8,315.2,130.7,311.5L130.7,311.5z M126.2,313.4l0.3,0.4
	l0.1-0.2L126.2,313.4z M123.8,308.6h-1.2v0.9c0.4,0.3,0.8,0.7,1.2,1.1V308.6z"/>
<path class="st3" d="M101,262.1h2.3v16.1H101V262.1z M102.5,276.1h3.7c1,0.1,2-0.3,2.8-0.9c0.7-0.7,1-1.6,1-2.6v-4.8
	c0.1-1-0.3-1.9-1-2.6c-0.8-0.7-1.8-1-2.8-0.9h-3.7v-2.2h3.6c1.1,0,2.3,0.2,3.3,0.7c0.9,0.4,1.6,1.1,2.1,2c0.5,1,0.8,2,0.8,3.1v4.5
	c0,1.1-0.2,2.2-0.8,3.1c-0.5,0.9-1.2,1.6-2.1,2c-1,0.5-2.2,0.7-3.3,0.7h-3.6L102.5,276.1z"/>
<path class="st3" d="M117.7,277.8c-0.7-0.4-1.4-1-1.7-1.8c-0.4-0.9-0.6-1.8-0.6-2.8v-1.3c0-1,0.2-2,0.6-2.9c0.4-0.8,0.9-1.4,1.7-1.8
	c0.8-0.4,1.7-0.7,2.6-0.6c0.9,0,1.7,0.2,2.5,0.7c0.7,0.5,1.3,1.3,1.6,2.1c0.4,1.1,0.6,2.2,0.5,3.3v0.8H117v-1.8h5.6
	c0-0.8-0.3-1.6-0.8-2.2c-0.4-0.5-1-0.8-1.7-0.8c-0.8,0-1.5,0.3-2,0.8c-0.5,0.7-0.8,1.5-0.7,2.4v1.5c-0.1,0.8,0.2,1.6,0.8,2.2
	c0.6,0.5,1.4,0.8,2.1,0.8c0.5,0,0.9-0.1,1.4-0.3c0.4-0.2,0.9-0.4,1.2-0.8l1.5,1.5c-0.6,0.5-1.2,1-1.9,1.3c-0.7,0.3-1.4,0.4-2.1,0.4
	C119.4,278.4,118.5,278.2,117.7,277.8z"/>
<path class="st3" d="M127,266.7h5.8v1.9H127V266.7z M128.2,265.1c-0.1-0.8,0.2-1.6,0.7-2.3c0.6-0.5,1.4-0.8,2.2-0.8h1.7v2.2h-1.6
	c-0.2,0-0.4,0.1-0.5,0.2c-0.1,0.2-0.2,0.4-0.2,0.6v13.1h-2.3L128.2,265.1z"/>
<path class="st3" d="M135.1,277.5c-0.7-0.7-1.1-1.7-1.1-2.7c-0.1-1,0.3-1.9,1-2.6c0.8-0.6,1.9-0.9,2.9-0.9h3.3l0.2,1.8h-3.4
	c-0.5,0-0.9,0.1-1.3,0.4c-0.3,0.3-0.5,0.8-0.4,1.2c0,0.5,0.2,1,0.6,1.3c0.5,0.3,1.2,0.5,1.8,0.4c0.7,0,1.3-0.1,1.9-0.3
	c0.4-0.1,0.6-0.5,0.6-0.9l0.2,1.6c-0.2,0.3-0.5,0.6-0.8,0.8c-0.3,0.2-0.7,0.4-1,0.5c-0.4,0.1-0.9,0.1-1.3,0.1
	C137.2,278.5,136,278.1,135.1,277.5z M141.2,270.9c0-0.6-0.2-1.3-0.6-1.8c-0.5-0.4-1.1-0.7-1.7-0.6c-0.5,0-0.9,0.1-1.4,0.2
	c-0.4,0.1-0.8,0.3-1.2,0.6l-1.6-1.1c0.5-0.5,1.1-1,1.7-1.2c0.8-0.3,1.6-0.5,2.4-0.4c0.8,0,1.7,0.1,2.5,0.5c0.6,0.3,1.2,0.8,1.5,1.5
	c0.4,0.7,0.6,1.5,0.5,2.3v7.4h-2.2L141.2,270.9z"/>
<path class="st3" d="M149,273.7c0,0.7,0.2,1.3,0.6,1.9c0.5,0.5,1.1,0.7,1.7,0.7c0.6,0,1.3-0.2,1.7-0.6c0.4-0.4,0.7-1.1,0.6-1.7
	l0.1,2.4c-0.2,0.6-0.6,1.1-1.2,1.4c-0.6,0.4-1.3,0.6-2,0.6c-1.1,0.1-2.2-0.4-2.9-1.2c-0.7-1-1.1-2.2-1-3.5v-7h2.3L149,273.7z
	 M153.7,266.7h2.3v11.5h-2.3V266.7z"/>
<path class="st3" d="M161.6,275.2c0,0.2,0,0.5,0.2,0.7c0.1,0.2,0.3,0.2,0.5,0.2h1.1v2.2h-1.3c-0.8,0-1.5-0.3-2-0.8
	c-0.5-0.6-0.8-1.5-0.7-2.3v-13.1h2.3L161.6,275.2z"/>
<path class="st3" d="M165.1,266.7h5.2v2h-5.2V266.7z M166.9,277.5c-0.5-0.7-0.7-1.5-0.7-2.3v-11.9h2.3v11.9c0,0.2,0,0.5,0.2,0.7
	c0.1,0.2,0.3,0.2,0.5,0.2h1.1v2.2H169C168.2,278.3,167.4,278.1,166.9,277.5z"/>
<path class="st3" d="M181.4,277.8c-0.7-0.4-1.3-1-1.7-1.7c-0.4-0.8-0.6-1.8-0.6-2.7v-1.9c0-0.9,0.2-1.8,0.6-2.7
	c0.4-0.7,1-1.3,1.7-1.7c0.8-0.4,1.8-0.6,2.7-0.6c0.6,0,1.1,0.1,1.7,0.2c0.5,0.1,1,0.3,1.4,0.6c0.4,0.3,0.8,0.6,1.1,1l-1.6,1.5
	c-0.3-0.4-0.7-0.7-1.1-0.9c-0.4-0.2-0.9-0.3-1.4-0.3c-0.8,0-1.5,0.2-2,0.8c-0.5,0.6-0.8,1.3-0.7,2.1v1.9c-0.1,0.8,0.2,1.5,0.7,2.1
	c0.5,0.5,1.3,0.8,2,0.8c0.5,0,0.9-0.1,1.4-0.3c0.4-0.2,0.8-0.5,1.1-0.9l1.6,1.6c-0.3,0.4-0.7,0.7-1.1,1c-0.4,0.3-0.9,0.5-1.4,0.6
	c-0.6,0.1-1.1,0.2-1.7,0.2C183.2,278.4,182.3,278.2,181.4,277.8z"/>
<path class="st3" d="M191.3,277.5c-0.7-0.7-1.1-1.7-1.1-2.7c-0.1-1,0.3-1.9,1-2.6c0.8-0.6,1.9-0.9,2.9-0.9h3.3l0.2,1.8h-3.4
	c-0.5,0-0.9,0.1-1.3,0.4c-0.3,0.3-0.5,0.8-0.4,1.2c0,0.5,0.2,1,0.6,1.3c0.5,0.3,1.2,0.5,1.8,0.4c0.7,0,1.3-0.1,1.9-0.3
	c0.4-0.1,0.6-0.5,0.6-0.9l0.2,1.6c-0.2,0.3-0.5,0.6-0.8,0.8c-0.3,0.2-0.7,0.4-1,0.5c-0.4,0.1-0.9,0.1-1.3,0.1
	C193.4,278.5,192.2,278.2,191.3,277.5z M197.3,270.9c0-0.6-0.2-1.3-0.6-1.8c-0.5-0.4-1.1-0.7-1.7-0.6c-0.5,0-0.9,0.1-1.4,0.2
	c-0.4,0.1-0.8,0.3-1.2,0.6l-1.7-1.1c0.5-0.5,1.1-1,1.7-1.2c0.8-0.3,1.6-0.4,2.4-0.4c0.8,0,1.7,0.1,2.5,0.5c0.7,0.3,1.2,0.8,1.6,1.5
	c0.4,0.7,0.6,1.5,0.5,2.3v7.4h-2.2L197.3,270.9z"/>
<path class="st3" d="M202,266.7h5.2v2H202V266.7z M203.9,277.5c-0.5-0.7-0.7-1.5-0.7-2.3v-11.9h2.3v11.9c0,0.2,0,0.5,0.2,0.7
	c0.1,0.2,0.3,0.2,0.5,0.2h1.1v2.2h-1.3C205.2,278.3,204.4,278.1,203.9,277.5z"/>
<path class="st3" d="M212.3,277.8c-0.7-0.4-1.4-1-1.7-1.8c-0.4-0.9-0.6-1.8-0.6-2.8v-1.3c0-1,0.2-2,0.6-2.9c0.4-0.8,0.9-1.4,1.7-1.8
	c0.8-0.4,1.7-0.7,2.6-0.6c0.9,0,1.7,0.2,2.5,0.7c0.7,0.5,1.3,1.3,1.6,2.1c0.4,1.1,0.6,2.2,0.5,3.3v0.8h-7.8v-1.8h5.6
	c0-0.8-0.3-1.6-0.8-2.2c-0.4-0.5-1-0.8-1.7-0.8c-0.8,0-1.5,0.3-2,0.8c-0.5,0.7-0.8,1.5-0.7,2.4v1.5c-0.1,0.8,0.2,1.6,0.8,2.2
	c0.6,0.5,1.4,0.8,2.1,0.8c0.5,0,0.9-0.1,1.4-0.3c0.4-0.2,0.9-0.4,1.2-0.8l1.5,1.5c-0.6,0.5-1.2,1-1.9,1.3c-0.7,0.3-1.4,0.4-2.1,0.4
	C214.1,278.4,213.2,278.2,212.3,277.8z"/>
<path class="st3" d="M224,277.9c-0.6-0.4-1.1-0.9-1.4-1.6c-0.3-0.8-0.5-1.7-0.5-2.5v-2.5c0-0.9,0.1-1.7,0.5-2.5
	c0.3-0.7,0.7-1.2,1.3-1.6c0.6-0.4,1.4-0.6,2.1-0.6c0.7,0,1.3,0.2,1.9,0.5c0.6,0.4,1.1,0.9,1.4,1.5l-0.2,2.4c0-0.4-0.1-0.9-0.3-1.3
	c-0.2-0.3-0.4-0.6-0.8-0.8c-0.4-0.2-0.8-0.3-1.2-0.3c-0.7,0-1.3,0.2-1.7,0.7c-0.4,0.6-0.7,1.3-0.6,2v2.5c0,0.7,0.2,1.4,0.6,1.9
	c0.4,0.5,1.1,0.7,1.7,0.7c0.4,0,0.8-0.1,1.2-0.3c0.3-0.2,0.6-0.5,0.8-0.8c0.2-0.4,0.3-0.8,0.3-1.3l0.2,2.4c-0.2,0.6-0.6,1.1-1.1,1.4
	c-0.6,0.4-1.2,0.6-1.9,0.6C225.4,278.5,224.7,278.3,224,277.9z M224,282.4c-0.6-0.3-1.2-0.8-1.6-1.4l1.5-1.4
	c0.3,0.4,0.6,0.7,1.1,0.9c1.1,0.6,2.4,0.4,3.3-0.4c0.5-0.6,0.8-1.3,0.7-2v-11.5h2.3v11.2c0,0.9-0.2,1.9-0.6,2.7
	c-0.4,0.7-1,1.3-1.7,1.7c-0.8,0.4-1.7,0.6-2.7,0.6C225.6,282.9,224.8,282.8,224,282.4L224,282.4z"/>
<path class="st3" d="M236.7,277.8c-0.7-0.4-1.3-1-1.6-1.7c-0.4-0.8-0.6-1.8-0.6-2.7v-1.9c0-0.9,0.2-1.8,0.6-2.7
	c0.3-0.7,0.9-1.3,1.6-1.7c1.6-0.8,3.5-0.8,5.1,0c0.7,0.4,1.3,1,1.6,1.7c0.4,0.8,0.6,1.8,0.6,2.7v1.9c0,0.9-0.2,1.9-0.6,2.7
	c-0.4,0.7-0.9,1.3-1.6,1.7C240.2,278.6,238.3,278.6,236.7,277.8z M241.1,275.5c0.5-0.6,0.7-1.3,0.7-2.1v-1.9c0-0.7-0.2-1.5-0.7-2.1
	c-1-1-2.6-1-3.7,0c-0.5,0.6-0.7,1.3-0.7,2.1v1.9c0,0.8,0.2,1.5,0.7,2.1C238.4,276.5,240,276.5,241.1,275.5z"/>
<path class="st3" d="M247.2,266.7h2.3v11.5h-2.3V266.7z M252.8,268.9c-0.3-0.1-0.7-0.2-1.1-0.2c-1.1-0.1-2.1,0.7-2.3,1.8
	c0,0.1,0,0.3,0,0.4l-0.2-2.2c0.3-0.6,0.8-1.2,1.4-1.6c0.5-0.4,1.2-0.6,1.9-0.6c0.5,0,1,0.1,1.4,0.2c0.4,0.1,0.8,0.4,1.1,0.7l-1.5,2
	C253.3,269.2,253.1,269,252.8,268.9L252.8,268.9z"/>
<path class="st3" d="M255.7,266.7h2.3l3.5,10l-1.3,2.4L255.7,266.7z M265.9,266.7l-4.9,14.2c-0.1,0.5-0.4,0.9-0.7,1.3
	c-0.3,0.3-0.7,0.5-1.1,0.7c-0.5,0.1-1,0.2-1.6,0.2h-0.5v-2.2h0.5c0.4,0,0.7-0.1,1-0.3c0.3-0.2,0.5-0.5,0.7-0.9l4.3-13H265.9z"/>
<path class="st3" d="M85.5,265L85.5,265c0.6,0.6,0.6,1.5,0,2.1c0,0,0,0,0,0l-10.6,10.6c-0.6,0.6-1.5,0.6-2.1,0c0,0,0,0,0,0l0,0
	c-0.6-0.6-0.6-1.5,0-2.1c0,0,0,0,0,0L83.3,265C83.9,264.4,84.8,264.4,85.5,265C85.5,265,85.5,265,85.5,265z"/>
<path class="st3" d="M62,265L62,265c0.6-0.6,1.5-0.6,2.1,0c0,0,0,0,0,0l10.6,10.6c0.6,0.6,0.6,1.5,0,2.1c0,0,0,0,0,0l0,0
	c-0.6,0.6-1.5,0.6-2.1,0c0,0,0,0,0,0L62,267.2C61.4,266.6,61.4,265.7,62,265C62,265.1,62,265,62,265z"/>
<ellipse transform="matrix(0.9951 -9.853757e-02 9.853757e-02 0.9951 -36.0938 18.8626)" class="st5" cx="172.9" cy="374.8" rx="19.6" ry="19.6"/>
<path class="st4" d="M210.9,365.5h2l6.2,16.8h-2.5l-4.7-13.6l-4.7,13.6h-2.5L210.9,365.5z M207.5,376.4h8.9v2.3h-8.9V376.4z"/>
<path class="st4" d="M221.4,370.3h2.4v12h-2.4V370.3z M228.7,375.1c0-0.7-0.2-1.4-0.7-2c-0.5-0.5-1.2-0.7-1.9-0.7
	c-0.7,0-1.3,0.2-1.8,0.6c-0.4,0.5-0.7,1.1-0.6,1.7l-0.2-2.3c0.3-0.7,0.8-1.3,1.5-1.7c0.6-0.4,1.3-0.6,2-0.6c1.2-0.1,2.3,0.4,3,1.3
	c0.8,1,1.1,2.3,1.1,3.6v7.3h-2.4L228.7,375.1z"/>
<path class="st4" d="M233.7,370.3h5.4v2.1h-5.4V370.3z M235.6,381.6c-0.5-0.7-0.7-1.5-0.7-2.4v-12.4h2.4v12.4c0,0.2,0,0.5,0.2,0.7
	c0.1,0.2,0.3,0.2,0.5,0.2h1.1v2.3h-1.4C237,382.5,236.2,382.2,235.6,381.6L235.6,381.6z"/>
<path class="st4" d="M244.3,381.9c-0.7-0.4-1.3-1-1.7-1.8c-0.4-0.9-0.6-1.9-0.6-2.8v-2c0-1,0.2-1.9,0.6-2.8c0.4-0.8,1-1.4,1.7-1.8
	c1.7-0.8,3.7-0.8,5.3,0c0.7,0.4,1.3,1,1.7,1.8c0.4,0.9,0.6,1.8,0.6,2.8v2c0,1-0.2,1.9-0.6,2.8c-0.4,0.8-1,1.4-1.7,1.8
	C248,382.7,246,382.7,244.3,381.9z M248.9,379.5c0.5-0.6,0.7-1.4,0.7-2.2v-2c0-0.8-0.2-1.5-0.7-2.2c-1.1-1-2.8-1-3.8,0
	c-0.5,0.6-0.7,1.4-0.7,2.2v2c-0.1,0.8,0.2,1.6,0.7,2.2C246.1,380.5,247.8,380.5,248.9,379.5z"/>
<path class="st4" d="M255.3,370.3h2.4v12h-2.4V370.3z M262.6,375.1c0-0.7-0.2-1.4-0.7-2c-0.5-0.5-1.2-0.7-1.9-0.7
	c-0.7,0-1.3,0.2-1.8,0.6c-0.4,0.5-0.7,1.1-0.6,1.7l-0.2-2.3c0.3-0.7,0.8-1.3,1.5-1.7c0.6-0.4,1.3-0.6,2-0.6c1.2-0.1,2.3,0.4,3,1.3
	c0.8,1,1.1,2.3,1.1,3.6v7.3h-2.4L262.6,375.1z"/>
<ellipse transform="matrix(0.9951 -9.853761e-02 9.853761e-02 0.9951 -41.3012 19.1198)" class="st7" cx="172.9" cy="427.7" rx="19.6" ry="19.6"/>
<path class="st4" d="M206.3,418.4h2.4v16.8h-2.4V418.4z M207.5,432.9h9.6v2.3h-9.6V432.9z"/>
<path class="st4" d="M221.7,434.7c-0.8-0.4-1.4-1-1.8-1.8c-0.4-0.9-0.6-1.9-0.6-2.9v-1.4c0-1,0.2-2.1,0.6-3c0.4-0.8,1-1.5,1.7-1.9
	c0.8-0.5,1.8-0.7,2.7-0.7c0.9,0,1.8,0.2,2.6,0.8c0.7,0.5,1.3,1.3,1.6,2.2c0.4,1.1,0.6,2.2,0.6,3.4v0.8H221v-1.9h5.9
	c0-0.8-0.3-1.6-0.8-2.3c-0.4-0.5-1.1-0.8-1.8-0.8c-0.8,0-1.6,0.3-2.1,0.9c-0.5,0.7-0.8,1.6-0.8,2.5v1.5c0,0.8,0.2,1.6,0.8,2.3
	c0.6,0.5,1.4,0.8,2.2,0.8c0.5,0,1-0.1,1.4-0.3c0.5-0.2,0.9-0.5,1.3-0.8l1.6,1.5c-0.6,0.6-1.3,1-2,1.3c-0.7,0.3-1.5,0.5-2.3,0.5
	C223.5,435.3,222.6,435.1,221.7,434.7z"/>
<path class="st4" d="M232.3,423.2h2.4v12h-2.4L232.3,423.2z M239.6,427.9c0-0.7-0.2-1.4-0.7-2c-0.5-0.5-1.2-0.7-1.9-0.7
	c-0.7,0-1.3,0.2-1.8,0.6c-0.4,0.5-0.6,1.1-0.6,1.7l-0.2-2.3c0.3-0.7,0.8-1.3,1.5-1.7c0.6-0.4,1.3-0.6,2-0.6c1.2-0.1,2.3,0.4,3,1.3
	c0.8,1,1.1,2.3,1.1,3.6v7.3h-2.4L239.6,427.9z"/>
<path class="st4" d="M246.1,434.4c-1.4-1.5-1.5-3.9-0.1-5.5c0.9-0.6,1.9-1,3-0.9h3.4l0.2,1.9H249c-0.5,0-1,0.1-1.4,0.4
	c-0.3,0.3-0.5,0.8-0.5,1.3c0,0.5,0.2,1,0.6,1.4c0.6,0.3,1.2,0.5,1.8,0.4c0.7,0,1.4-0.1,2-0.3c0.4-0.1,0.7-0.5,0.7-0.9l0.2,1.7
	c-0.2,0.3-0.5,0.6-0.8,0.8c-0.3,0.2-0.7,0.4-1.1,0.5c-0.4,0.1-0.9,0.2-1.4,0.2C248.2,435.4,247,435.1,246.1,434.4z M252.3,427.5
	c0-0.7-0.2-1.3-0.6-1.8c-0.5-0.5-1.1-0.7-1.8-0.7c-0.5,0-1,0.1-1.4,0.2c-0.4,0.1-0.9,0.3-1.2,0.6l-1.7-1.2c0.5-0.6,1.1-1,1.8-1.3
	c0.8-0.3,1.6-0.5,2.5-0.5c0.9,0,1.8,0.2,2.6,0.5c0.7,0.3,1.2,0.9,1.6,1.5c0.4,0.7,0.6,1.6,0.6,2.4v7.7h-2.3L252.3,427.5z"/>
<path class="st4" d="M258.2,423.2h2.4v12h-2.4V423.2z M264,425.5c-0.4-0.1-0.7-0.2-1.1-0.2c-0.6,0-1.3,0.2-1.7,0.6
	c-0.4,0.5-0.7,1.1-0.6,1.7l-0.2-2.3c0.3-0.7,0.8-1.2,1.4-1.7c0.6-0.4,1.2-0.6,1.9-0.6c0.5,0,1,0.1,1.5,0.2c0.4,0.2,0.8,0.4,1.2,0.7
	l-1.5,2.1C264.6,425.8,264.3,425.6,264,425.5L264,425.5z"/>
<path class="st4" d="M269.6,434.8c-0.6-0.4-1.1-1-1.4-1.7c-0.3-0.8-0.5-1.7-0.5-2.6v-2.7c0-0.9,0.1-1.8,0.5-2.6
	c0.3-0.7,0.8-1.3,1.4-1.7c0.7-0.4,1.4-0.6,2.2-0.6c0.7,0,1.4,0.2,2,0.6c0.6,0.4,1.1,0.9,1.4,1.6l-0.2,2.5c0-0.5-0.1-0.9-0.3-1.3
	c-0.2-0.4-0.5-0.6-0.8-0.8c-0.4-0.2-0.8-0.3-1.3-0.3c-0.7,0-1.4,0.2-1.8,0.8c-0.5,0.6-0.7,1.3-0.6,2v2.6c0,0.7,0.2,1.5,0.6,2
	c0.5,0.5,1.1,0.8,1.8,0.7c0.4,0,0.9-0.1,1.3-0.3c0.3-0.2,0.6-0.5,0.8-0.8c0.2-0.4,0.3-0.9,0.3-1.3l0.2,2.5c-0.2,0.6-0.6,1.1-1.2,1.5
	c-0.6,0.4-1.3,0.6-2,0.6C271.1,435.5,270.3,435.2,269.6,434.8z M274.9,418.4h2.4v16.8h-2.4V418.4z"/>
<path class="st5" d="M336.2,509h231.2c10.7,0,19.3,8.6,19.3,19.3l0,0c0,10.7-8.6,19.3-19.3,19.3H336.2c-10.7,0-19.3-8.6-19.3-19.3
	l0,0C316.8,517.6,325.5,509,336.2,509z"/>
<circle class="st13" cx="336.6" cy="527.6" r="12"/>
<path class="st8" d="M53.4,185.1h231.2c10.7,0,19.3,8.6,19.3,19.3l0,0c0,10.7-8.6,19.3-19.3,19.3H53.4c-10.7,0-19.3-8.6-19.3-19.3
	l0,0C34,193.7,42.7,185.1,53.4,185.1z"/>
<circle class="st13" cx="53.8" cy="203.7" r="12"/>
<g>
	<g>
		<g>
			<path class="st4" d="M169.9,323v2.7h-16.8V323H169.9z M170.8,313.9v2.7h-16.8v-2.7H170.8z M159.1,308.3h2.6l-3.9,23h-2.6
				L159.1,308.3z M165.8,308.3h2.6l-3.9,23h-2.6L165.8,308.3z"/>
			<path class="st4" d="M179.8,331.3h-3.2v-19.5l-3.3,2v-3.3l3.3-2.2h3.2V331.3z"/>
			<path class="st4" d="M200.5,308.3h2.8l8.5,23h-3.5l-6.4-18.6l-6.4,18.6H192L200.5,308.3z M195.9,323.2H208v3.1h-12.1V323.2z"/>
			<path class="st4" d="M214.9,314.9h3.2v16.4h-3.2V314.9z M224.9,321.3c0-1.2-0.3-2.1-0.9-2.7s-1.4-0.9-2.5-0.9
				c-1.1,0-1.9,0.3-2.4,0.8c-0.6,0.6-0.9,1.3-0.9,2.4l-0.3-3.2c0.5-1,1.2-1.8,2-2.3c0.8-0.5,1.7-0.8,2.7-0.8c1.8,0,3.2,0.6,4.1,1.7
				c1,1.2,1.5,2.8,1.5,4.9v10h-3.2V321.3z"/>
			<path class="st4" d="M231.7,314.9h7.4v2.9h-7.4V314.9z M234.3,330.3c-0.6-0.7-0.9-1.8-0.9-3.3v-16.9h3.2v17
				c0,0.4,0.1,0.7,0.2,0.9c0.2,0.2,0.4,0.3,0.7,0.3h1.6v3.1h-1.9C235.9,331.4,235,331,234.3,330.3z"/>
			<path class="st4" d="M246.2,330.7c-1-0.6-1.8-1.4-2.3-2.4c-0.5-1.1-0.8-2.4-0.8-3.9v-2.7c0-1.5,0.3-2.8,0.8-3.8
				c0.5-1.1,1.3-1.9,2.3-2.4c1-0.6,2.2-0.8,3.7-0.8c1.4,0,2.6,0.3,3.7,0.8c1,0.6,1.8,1.4,2.3,2.4c0.5,1.1,0.8,2.3,0.8,3.8v2.7
				c0,1.5-0.3,2.8-0.8,3.8c-0.5,1.1-1.3,1.9-2.3,2.4c-1,0.6-2.2,0.8-3.7,0.8C248.4,331.5,247.2,331.3,246.2,330.7z M252.5,327.4
				c0.6-0.7,0.9-1.7,0.9-3v-2.7c0-1.3-0.3-2.3-0.9-3c-0.6-0.7-1.5-1-2.6-1s-2,0.3-2.6,1c-0.6,0.7-0.9,1.7-0.9,3v2.7
				c0,1.3,0.3,2.3,0.9,3c0.6,0.7,1.5,1.1,2.6,1.1S251.9,328.1,252.5,327.4z"/>
			<path class="st4" d="M261.2,314.9h3.2v16.4h-3.2V314.9z M271.2,321.3c0-1.2-0.3-2.1-0.9-2.7s-1.4-0.9-2.5-0.9
				c-1.1,0-1.9,0.3-2.4,0.8c-0.6,0.6-0.9,1.3-0.9,2.4l-0.3-3.2c0.5-1,1.2-1.8,2-2.3c0.8-0.5,1.7-0.8,2.7-0.8c1.8,0,3.2,0.6,4.1,1.7
				c1,1.2,1.5,2.8,1.5,4.9v10h-3.2V321.3z"/>
			<path class="st4" d="M278,308.3h3.2v8.1H278V308.3z"/>
			<path class="st4" d="M288.1,331.2c-0.8-0.2-1.6-0.5-2.4-0.9c-0.7-0.4-1.4-0.9-2-1.4l1.9-2.4c0.9,0.7,1.8,1.2,2.6,1.5
				c0.9,0.3,1.7,0.5,2.6,0.5c1.3,0,2.2-0.2,2.9-0.6s1-1,1-1.8c0-0.5-0.2-0.9-0.5-1.2c-0.3-0.3-0.8-0.4-1.3-0.5
				c-0.5-0.1-1.2-0.2-2.2-0.2c-0.1,0-0.2,0-0.3,0c-0.1,0-0.2,0-0.3,0c0,0-0.1,0-0.1,0c0,0-0.1,0-0.1,0c-1.1-0.1-2-0.2-2.7-0.5
				c-0.7-0.2-1.4-0.7-1.8-1.3c-0.5-0.6-0.7-1.5-0.7-2.7c0-1.2,0.2-2.1,0.7-2.9c0.5-0.8,1.2-1.3,2.1-1.7s2.1-0.6,3.5-0.6
				c0.9,0,1.7,0.1,2.4,0.2c0.8,0.2,1.5,0.4,2.2,0.7s1.4,0.7,2,1.2l-1.9,2.4c-0.8-0.5-1.6-0.9-2.4-1.2c-0.8-0.3-1.6-0.4-2.3-0.4
				c-1.1,0-1.9,0.2-2.5,0.6c-0.5,0.4-0.8,0.9-0.8,1.7c0,0.4,0.2,0.8,0.5,1c0.3,0.2,0.7,0.4,1.2,0.4s1.1,0.1,2,0.2c0.1,0,0.1,0,0.2,0
				c0.1,0,0.1,0,0.2,0c0,0,0.1,0,0.1,0c0,0,0.1,0,0.1,0c1.1,0.1,2.1,0.2,2.9,0.5c0.8,0.2,1.5,0.7,2,1.4s0.8,1.7,0.8,3
				c0,1.2-0.3,2.2-0.8,2.9c-0.5,0.8-1.3,1.4-2.3,1.7c-1,0.4-2.3,0.6-3.8,0.6C289.9,331.5,289,331.4,288.1,331.2z"/>
			<path class="st4" d="M313.4,330.7c-1.1-0.6-1.9-1.4-2.4-2.4c-0.6-1.1-0.8-2.4-0.8-3.9v-2.7c0-1.5,0.3-2.8,0.8-3.8
				c0.6-1.1,1.4-1.9,2.4-2.4c1.1-0.6,2.3-0.8,3.8-0.8c0.9,0,1.7,0.1,2.4,0.3s1.4,0.5,2,0.9c0.6,0.4,1.1,0.9,1.5,1.4l-2.3,2.1
				c-0.5-0.5-1-0.9-1.6-1.2c-0.6-0.3-1.3-0.4-1.9-0.4c-1.2,0-2.2,0.3-2.9,1c-0.7,0.7-1,1.7-1,2.9v2.7c0,1.3,0.3,2.3,1,3
				s1.6,1.1,2.9,1.1c0.7,0,1.3-0.2,2-0.5s1.2-0.7,1.6-1.3l2.3,2.2c-0.4,0.5-0.9,1-1.5,1.4c-0.6,0.4-1.3,0.7-2,0.9s-1.6,0.3-2.4,0.3
				C315.7,331.5,314.4,331.3,313.4,330.7z"/>
			<path class="st4" d="M326.7,308.3h3.2v23h-3.2V308.3z M336.7,321.3c0-1.2-0.3-2.1-0.9-2.7s-1.4-0.9-2.5-0.9
				c-1.1,0-1.9,0.3-2.4,0.8c-0.6,0.5-0.9,1.3-0.9,2.3l-0.3-3.2c0.5-1,1.2-1.7,2-2.3c0.8-0.5,1.7-0.8,2.7-0.8c1.8,0,3.2,0.6,4.1,1.7
				c1,1.2,1.5,2.8,1.5,4.9v10h-3.2V321.3z"/>
			<path class="st4" d="M345.5,330.3c-1-0.8-1.5-2.1-1.5-3.8c0-1.6,0.5-2.8,1.4-3.7c0.9-0.8,2.3-1.2,4.2-1.2h4.7l0.2,2.6h-4.9
				c-0.8,0-1.5,0.2-1.9,0.6c-0.4,0.4-0.6,0.9-0.6,1.7c0,0.8,0.3,1.5,0.8,1.9c0.6,0.4,1.4,0.6,2.5,0.6c1.2,0,2.2-0.1,2.8-0.4
				c0.6-0.3,0.9-0.7,0.9-1.2l0.3,2.3c-0.3,0.4-0.6,0.8-1.1,1.1c-0.4,0.3-0.9,0.5-1.4,0.6c-0.5,0.1-1.2,0.2-1.9,0.2
				C348,331.5,346.5,331.1,345.5,330.3z M354.1,320.9c0-1.1-0.3-1.9-0.9-2.5c-0.6-0.6-1.4-0.9-2.4-0.9c-0.7,0-1.3,0.1-1.9,0.3
				c-0.6,0.2-1.2,0.5-1.7,0.8l-2.4-1.6c0.6-0.7,1.4-1.3,2.5-1.7s2.1-0.6,3.4-0.6c1.4,0,2.5,0.2,3.5,0.7c1,0.5,1.7,1.2,2.2,2.1
				s0.8,2,0.8,3.3v10.6h-3.1V320.9z"/>
			<path class="st4" d="M362,314.9h3.2v16.4H362V314.9z M372,321.3c0-1.2-0.3-2.1-0.9-2.7s-1.4-0.9-2.5-0.9c-1.1,0-1.9,0.3-2.4,0.8
				c-0.6,0.6-0.9,1.3-0.9,2.4l-0.3-3.2c0.5-1,1.2-1.8,2-2.3c0.8-0.5,1.7-0.8,2.7-0.8c1.8,0,3.2,0.6,4.1,1.7c1,1.2,1.5,2.8,1.5,4.9
				v10H372V321.3z"/>
			<path class="st4" d="M380.1,314.9h3.2v16.4h-3.2V314.9z M390.1,321.3c0-1.2-0.3-2.1-0.9-2.7s-1.4-0.9-2.5-0.9
				c-1.1,0-1.9,0.3-2.4,0.8c-0.6,0.6-0.9,1.3-0.9,2.4l-0.3-3.2c0.5-1,1.2-1.8,2-2.3c0.8-0.5,1.7-0.8,2.7-0.8c1.8,0,3.2,0.6,4.1,1.7
				c1,1.2,1.5,2.8,1.5,4.9v10h-3.2V321.3z"/>
			<path class="st4" d="M401.1,330.7c-1.1-0.6-1.9-1.4-2.5-2.5c-0.6-1.1-0.8-2.4-0.8-4v-1.9c0-1.6,0.3-3,0.8-4.2
				c0.5-1.1,1.3-2,2.4-2.6c1-0.6,2.3-0.9,3.7-0.9c1.4,0,2.5,0.3,3.5,1s1.7,1.7,2.2,3c0.5,1.3,0.8,2.9,0.8,4.7v1.1h-11.1v-2.6h8
				c-0.1-1.3-0.4-2.4-1-3.1s-1.4-1.1-2.4-1.1c-1.2,0-2.2,0.4-2.8,1.2c-0.7,0.8-1,1.9-1,3.4v2.1c0,1.4,0.4,2.4,1.1,3.1
				s1.7,1.1,3.1,1.1c0.7,0,1.3-0.1,1.9-0.4c0.6-0.3,1.2-0.6,1.7-1.1l2.1,2.1c-0.8,0.8-1.7,1.4-2.7,1.8s-2,0.6-3.1,0.6
				C403.4,331.5,402.1,331.2,401.1,330.7z"/>
			<path class="st4" d="M418.8,327.1c0,0.4,0.1,0.7,0.3,0.9c0.2,0.2,0.4,0.3,0.7,0.3h1.5v3.1h-1.9c-1.2,0-2.2-0.4-2.8-1.1
				c-0.7-0.8-1-1.8-1-3.2v-18.7h3.2V327.1z"/>
		</g>
	</g>
</g>
<path class="st26" d="M871.4,572.5v229c0,7.7-6.2,13.9-13.9,13.9c0,0,0,0,0,0h-525c-7.7,0-13.9-6.2-13.9-13.9c0,0,0,0,0,0v-229
	c0-7.7,6.2-13.9,13.9-13.9h525C865.2,558.6,871.4,564.9,871.4,572.5z"/>
<path class="st27" d="M398.3,643.8c1.3,1.3,2.9,2.3,4.7,2.8c0.1,0.4,0.1,0.8,0.1,1.3c0,2.6-1.1,5-3,6.7c-0.5,0.5-1.3,0.4-1.8-0.1
	c-0.2-0.2-0.3-0.5-0.3-0.9v-10.2L398.3,643.8z"/>
<path class="st27" d="M399.7,639l-3.1-3.1h2.4c0-0.4,0-0.9,0.1-1.3c0.7-4,4.5-6.6,8.4-5.9s6.6,4.5,5.9,8.4c-0.3,1.6-1.1,3-2.3,4.1
	c-1,0.9-2.3,1.6-3.7,1.8c-0.4,0.1-0.8,0.1-1.2,0.1c-1.9,0-3.7-0.8-5.1-2.1l1.1-1.1c1.1,1.1,2.5,1.7,4,1.7h0.5c3.1-0.3,5.4-3,5.1-6.2
	s-3-5.4-6.2-5.1c-2.7,0.2-4.8,2.3-5.1,5c0,0.2,0,0.4,0,0.6h2.4l-0.5,0.5l-2.7,2.7L399.7,639z"/>
<polygon class="st27" points="406.6,635.9 409.1,637.4 409.5,637.6 409.4,637.8 408.9,638.7 405.4,636.6 405.4,632.6 406.6,632.6 
	"/>
<path class="st27" d="M412.2,645.2c1.2,8.8-4,17.2-12.4,20c-0.7,0.2-1.4-0.1-1.6-0.8c0-0.1-0.1-0.3-0.1-0.4v-1.6
	c0-0.5,0.3-1,0.8-1.2c5.6-2.1,9.4-7.4,9.4-13.4c0-0.3,0-0.7,0-1C409.6,646.6,411,646,412.2,645.2z"/>
<path class="st27" d="M412.2,645.2c-1.2,0.8-2.5,1.3-3.9,1.6c0,0.3,0,0.7,0,1c0,6-3.8,11.4-9.4,13.4c-0.5,0.2-0.8,0.7-0.8,1.2v1.6
	c0,0.7,0.6,1.3,1.3,1.3c0.1,0,0.3,0,0.4-0.1c7.5-2.5,12.6-9.5,12.6-17.4C412.3,647,412.3,646.1,412.2,645.2z M407.4,643
	c1.4-0.2,2.7-0.8,3.7-1.8c-0.2-0.5-0.4-1.1-0.7-1.6c-1,1-2.3,1.7-3.7,1.8C407,641.9,407.2,642.5,407.4,643L407.4,643z M409.4,637.8
	c-0.1-0.1-0.2-0.3-0.3-0.4l-2.4-1.4v-1.4c-0.4-0.4-0.8-0.8-1.2-1.1v3.2l3.4,2L409.4,637.8z M402.5,636.3l0.5-0.5h-1.3
	C402,636,402.2,636.2,402.5,636.3L402.5,636.3z M402.5,631.5c-0.5-0.3-1-0.5-1.6-0.8c-0.9,1-1.6,2.3-1.8,3.6c0.5,0.2,1,0.4,1.5,0.7
	C400.8,633.7,401.4,632.5,402.5,631.5L402.5,631.5z M403.1,646.6c-1.8-0.5-3.4-1.5-4.7-2.8c-0.1-0.1-0.2-0.2-0.3-0.3v10.2
	c0,0.7,0.6,1.3,1.3,1.3c0.3,0,0.6-0.1,0.9-0.3c1.9-1.7,3-4.2,3-6.7C403.2,647.4,403.1,647,403.1,646.6L403.1,646.6z M391.8,633.7
	l-7.7,7.7c-0.2,0.2-0.6,0.4-0.9,0.4h-6.4c-0.7,0-1.3,0.6-1.3,1.3v9.7c0,0.7,0.6,1.3,1.3,1.3h6.4c0.3,0,0.7,0.1,0.9,0.4l7.7,7.7
	c0.5,0.5,1.3,0.5,1.8,0c0.2-0.2,0.4-0.6,0.4-0.9v-26.5c0-0.7-0.6-1.3-1.3-1.2C392.3,633.3,392,633.5,391.8,633.7L391.8,633.7z"/>
<polygon class="st27" points="406.6,635.9 409.1,637.4 409.5,637.6 409.4,637.8 408.9,638.7 405.4,636.6 405.4,632.6 406.6,632.6 
	"/>
<path class="st27" d="M411.1,641.2c-1,0.9-2.3,1.6-3.7,1.8c-0.4,0.1-0.8,0.1-1.2,0.1c-1.9,0-3.8-0.8-5.1-2.1l1.1-1.1
	c1.1,1.1,2.5,1.7,4,1.7h0.5c3.1-0.3,5.4-3,5.1-6.2s-3-5.4-6.2-5.1c-2.7,0.2-4.8,2.3-5.1,5c0,0.2,0,0.4,0,0.6h2.4l-0.5,0.5l-2.7,2.7
	l-0.1-0.1l-3.1-3.1h2.4c0-0.4,0-0.9,0.1-1.3c0.7-3.9,4.6-6.5,8.5-5.8c3.3,0.6,5.7,3.4,5.9,6.8C413.6,637.6,412.7,639.7,411.1,641.2z
	"/>
<path class="st27" d="M398.1,643.5c0.1,0.1,0.2,0.2,0.3,0.3h-0.3V643.5z"/>
<polygon class="st27" points="406.6,635.9 409.1,637.4 409.5,637.6 409.4,637.8 408.9,638.7 405.4,636.6 405.4,632.6 406.6,632.6 
	"/>
<path class="st27" d="M411.1,641.2c-1,0.9-2.3,1.6-3.7,1.8c-0.4,0.1-0.8,0.1-1.2,0.1c-1.9,0-3.8-0.8-5.1-2.1l1.1-1.1
	c1.1,1.1,2.5,1.7,4,1.7h0.5c3.1-0.3,5.4-3,5.1-6.2s-3-5.4-6.2-5.1c-2.7,0.2-4.8,2.3-5.1,5c0,0.2,0,0.4,0,0.6h2.4l-0.5,0.5l-2.7,2.7
	l-0.1-0.1l-3.1-3.1h2.4c0-0.4,0-0.9,0.1-1.3c0.7-3.9,4.6-6.5,8.5-5.8c3.3,0.6,5.7,3.4,5.9,6.8C413.6,637.6,412.7,639.7,411.1,641.2z
	"/>
<path class="st27" d="M409.1,637.4l-2.4-1.5v-3.3h-1.2v4.1l3.4,2l0.5-0.9l0.1-0.2L409.1,637.4z M413.5,635.5c-0.2-4-3.6-7.1-7.6-6.9
	c-3.4,0.2-6.1,2.6-6.8,5.9c-0.1,0.4-0.1,0.9-0.1,1.3h-2.4l3.1,3.1l0.1,0.1l2.7-2.7l0.5-0.5h-2.4c0-0.2,0-0.4,0-0.6
	c0.2-1.4,0.8-2.7,1.9-3.6c1.1-1,2.5-1.5,4-1.4c3.1,0.1,5.5,2.8,5.4,5.9c-0.1,2.8-2.3,5.1-5.1,5.4h-0.5c-1.5,0-2.9-0.6-4-1.7
	l-1.1,1.1c1.4,1.4,3.2,2.1,5.1,2.1c0.4,0,0.8,0,1.2-0.1C411.1,642.4,413.7,639.1,413.5,635.5L413.5,635.5z M409.1,637.4l0.3,0.4
	l0.1-0.2L409.1,637.4z M406.6,632.6h-1.2v0.9c0.4,0.3,0.8,0.7,1.2,1.1V632.6z"/>
<path class="st27" d="M383.8,586h2.3v16.1h-2.3V586z M385.3,600h3.7c1,0.1,2-0.3,2.8-0.9c0.7-0.7,1-1.6,1-2.6v-4.8
	c0.1-1-0.3-1.9-1-2.6c-0.8-0.7-1.8-1-2.8-0.9h-3.7V586h3.6c1.1,0,2.3,0.2,3.3,0.7c0.9,0.4,1.6,1.1,2.1,2c0.5,1,0.8,2,0.8,3.1v4.5
	c0,1.1-0.2,2.2-0.8,3.1c-0.5,0.9-1.2,1.6-2.1,2c-1,0.5-2.2,0.7-3.3,0.7h-3.6L385.3,600z"/>
<path class="st27" d="M400.5,601.8c-0.7-0.4-1.4-1-1.7-1.8c-0.4-0.9-0.6-1.8-0.6-2.8v-1.3c0-1,0.2-2,0.6-2.9
	c0.4-0.8,0.9-1.4,1.7-1.8c0.8-0.4,1.7-0.7,2.6-0.6c0.9,0,1.7,0.2,2.5,0.7c0.7,0.5,1.3,1.3,1.6,2.1c0.4,1.1,0.6,2.2,0.5,3.3v0.8h-7.8
	v-1.8h5.6c0-0.8-0.3-1.6-0.8-2.2c-0.4-0.5-1-0.8-1.7-0.8c-0.8,0-1.5,0.3-2,0.8c-0.5,0.7-0.8,1.5-0.7,2.4v1.5
	c-0.1,0.8,0.2,1.6,0.8,2.2c0.6,0.5,1.4,0.8,2.1,0.8c0.5,0,0.9-0.1,1.4-0.3c0.4-0.2,0.9-0.4,1.2-0.8l1.5,1.5c-0.6,0.5-1.2,1-1.9,1.3
	c-0.7,0.3-1.4,0.4-2.1,0.4C402.3,602.4,401.3,602.2,400.5,601.8z"/>
<path class="st27" d="M409.8,590.7h5.8v1.9h-5.8V590.7z M411,589.1c-0.1-0.8,0.2-1.6,0.7-2.3c0.6-0.5,1.4-0.8,2.2-0.8h1.7v2.2H414
	c-0.2,0-0.4,0.1-0.5,0.2c-0.1,0.2-0.2,0.4-0.2,0.6v13.1h-2.3L411,589.1z"/>
<path class="st27" d="M418,601.5c-0.7-0.7-1.1-1.7-1.1-2.7c-0.1-1,0.3-1.9,1-2.6c0.8-0.6,1.9-0.9,2.9-0.9h3.3l0.2,1.8h-3.4
	c-0.5,0-0.9,0.1-1.3,0.4c-0.3,0.3-0.5,0.8-0.4,1.2c0,0.5,0.2,1,0.6,1.3c0.5,0.3,1.2,0.5,1.8,0.4c0.7,0,1.3-0.1,1.9-0.3
	c0.4-0.1,0.6-0.5,0.6-0.9l0.2,1.6c-0.2,0.3-0.5,0.6-0.8,0.8c-0.3,0.2-0.7,0.4-1,0.5c-0.4,0.1-0.9,0.1-1.3,0.1
	C420,602.4,418.9,602.1,418,601.5z M424,594.9c0-0.6-0.2-1.3-0.6-1.8c-0.5-0.4-1.1-0.7-1.7-0.6c-0.5,0-0.9,0.1-1.4,0.2
	c-0.4,0.1-0.8,0.3-1.2,0.6l-1.6-1.1c0.5-0.5,1.1-1,1.7-1.2c0.8-0.3,1.6-0.5,2.4-0.4c0.8,0,1.7,0.1,2.5,0.5c0.6,0.3,1.2,0.8,1.5,1.5
	c0.4,0.7,0.6,1.5,0.5,2.3v7.4H424L424,594.9z"/>
<path class="st27" d="M431.8,597.7c0,0.7,0.2,1.3,0.6,1.9c0.5,0.5,1.1,0.7,1.7,0.7c0.6,0,1.3-0.2,1.7-0.6c0.4-0.4,0.7-1.1,0.6-1.7
	l0.1,2.4c-0.2,0.6-0.6,1.1-1.2,1.4c-0.6,0.4-1.3,0.6-2,0.6c-1.1,0.1-2.2-0.4-2.9-1.2c-0.7-1-1.1-2.2-1-3.5v-7h2.3L431.8,597.7z
	 M436.5,590.7h2.3v11.5h-2.3V590.7z"/>
<path class="st27" d="M444.5,599.2c0,0.2,0,0.5,0.2,0.7c0.1,0.2,0.3,0.2,0.5,0.2h1.1v2.2h-1.3c-0.8,0-1.5-0.3-2-0.8
	c-0.5-0.6-0.8-1.5-0.7-2.3V586h2.3V599.2z"/>
<path class="st27" d="M447.9,590.7h5.2v2h-5.2V590.7z M449.8,601.5c-0.5-0.7-0.7-1.5-0.7-2.3v-11.9h2.3v11.9c0,0.2,0,0.5,0.2,0.7
	c0.1,0.2,0.3,0.2,0.5,0.2h1.1v2.2h-1.3C451,602.3,450.3,602,449.8,601.5z"/>
<path class="st27" d="M464.3,601.8c-0.7-0.4-1.3-1-1.7-1.7c-0.4-0.8-0.6-1.8-0.6-2.7v-1.9c0-0.9,0.2-1.8,0.6-2.7
	c0.4-0.7,1-1.3,1.7-1.7c0.8-0.4,1.8-0.6,2.7-0.6c0.6,0,1.1,0.1,1.7,0.2c0.5,0.1,1,0.3,1.4,0.6c0.4,0.3,0.8,0.6,1.1,1l-1.6,1.5
	c-0.3-0.4-0.7-0.7-1.1-0.9c-0.4-0.2-0.9-0.3-1.4-0.3c-0.8,0-1.5,0.2-2,0.8c-0.5,0.6-0.8,1.3-0.7,2.1v1.9c-0.1,0.8,0.2,1.5,0.7,2.1
	c0.5,0.5,1.3,0.8,2,0.8c0.5,0,0.9-0.1,1.4-0.3c0.4-0.2,0.8-0.5,1.1-0.9l1.6,1.6c-0.3,0.4-0.7,0.7-1.1,1c-0.4,0.3-0.9,0.5-1.4,0.6
	c-0.6,0.1-1.1,0.2-1.7,0.2C466.1,602.4,465.1,602.2,464.3,601.8z"/>
<path class="st27" d="M474.2,601.5c-0.7-0.7-1.1-1.7-1.1-2.7c-0.1-1,0.3-1.9,1-2.6c0.8-0.6,1.9-0.9,2.9-0.9h3.3l0.2,1.8H477
	c-0.5,0-0.9,0.1-1.3,0.4c-0.3,0.3-0.5,0.8-0.4,1.2c0,0.5,0.2,1,0.6,1.3c0.5,0.3,1.2,0.5,1.8,0.4c0.7,0,1.3-0.1,1.9-0.3
	c0.4-0.1,0.6-0.5,0.6-0.9l0.2,1.6c-0.2,0.3-0.5,0.6-0.8,0.8c-0.3,0.2-0.7,0.4-1,0.5c-0.4,0.1-0.9,0.1-1.3,0.1
	C476.2,602.4,475.1,602.1,474.2,601.5z M480.2,594.9c0-0.6-0.2-1.3-0.6-1.8c-0.5-0.4-1.1-0.7-1.7-0.6c-0.5,0-0.9,0.1-1.4,0.2
	c-0.4,0.1-0.8,0.3-1.2,0.6l-1.7-1.1c0.5-0.5,1.1-1,1.7-1.2c0.8-0.3,1.6-0.4,2.4-0.4c0.8,0,1.7,0.1,2.5,0.5c0.7,0.3,1.2,0.8,1.6,1.5
	c0.4,0.7,0.6,1.5,0.5,2.3v7.4h-2.2L480.2,594.9z"/>
<path class="st27" d="M484.9,590.7h5.2v2h-5.2V590.7z M486.7,601.5c-0.5-0.7-0.7-1.5-0.7-2.3v-11.9h2.3v11.9c0,0.2,0,0.5,0.2,0.7
	c0.1,0.2,0.3,0.2,0.5,0.2h1.1v2.2h-1.3C488,602.3,487.3,602,486.7,601.5z"/>
<path class="st27" d="M495.2,601.8c-0.7-0.4-1.4-1-1.7-1.8c-0.4-0.9-0.6-1.8-0.6-2.8v-1.3c0-1,0.2-2,0.6-2.9
	c0.4-0.8,0.9-1.4,1.7-1.8c0.8-0.4,1.7-0.7,2.6-0.6c0.9,0,1.7,0.2,2.5,0.7c0.7,0.5,1.3,1.3,1.6,2.1c0.4,1.1,0.6,2.2,0.5,3.3v0.8h-7.8
	v-1.8h5.6c0-0.8-0.3-1.6-0.8-2.2c-0.4-0.5-1-0.8-1.7-0.8c-0.8,0-1.5,0.3-2,0.8c-0.5,0.7-0.8,1.5-0.7,2.4v1.5
	c-0.1,0.8,0.2,1.6,0.8,2.2c0.6,0.5,1.4,0.8,2.1,0.8c0.5,0,0.9-0.1,1.4-0.3c0.4-0.2,0.9-0.4,1.2-0.8l1.5,1.5c-0.6,0.5-1.2,1-1.9,1.3
	c-0.7,0.3-1.4,0.4-2.1,0.4C497,602.4,496,602.2,495.2,601.8z"/>
<path class="st27" d="M506.9,601.9c-0.6-0.4-1.1-0.9-1.4-1.6c-0.3-0.8-0.5-1.7-0.5-2.5v-2.5c0-0.9,0.1-1.7,0.5-2.5
	c0.3-0.7,0.7-1.2,1.3-1.6c0.6-0.4,1.4-0.6,2.1-0.6c0.7,0,1.3,0.2,1.9,0.5c0.6,0.4,1.1,0.9,1.4,1.5l-0.2,2.4c0-0.4-0.1-0.9-0.3-1.3
	c-0.2-0.3-0.4-0.6-0.8-0.8c-0.4-0.2-0.8-0.3-1.2-0.3c-0.7,0-1.3,0.2-1.7,0.7c-0.4,0.6-0.7,1.3-0.6,2v2.5c0,0.7,0.2,1.4,0.6,1.9
	c0.4,0.5,1.1,0.7,1.7,0.7c0.4,0,0.8-0.1,1.2-0.3c0.3-0.2,0.6-0.5,0.8-0.8c0.2-0.4,0.3-0.8,0.3-1.3l0.2,2.4c-0.2,0.6-0.6,1.1-1.1,1.4
	c-0.6,0.4-1.2,0.6-1.9,0.6C508.3,602.4,507.5,602.3,506.9,601.9z M506.9,606.4c-0.6-0.3-1.2-0.8-1.6-1.4l1.5-1.4
	c0.3,0.4,0.6,0.7,1.1,0.9c1.1,0.6,2.4,0.4,3.3-0.4c0.5-0.6,0.8-1.3,0.7-2v-11.5h2.3v11.2c0,0.9-0.2,1.9-0.6,2.7
	c-0.4,0.7-1,1.3-1.7,1.7c-0.8,0.4-1.7,0.6-2.7,0.6C508.4,606.9,507.6,606.7,506.9,606.4L506.9,606.4z"/>
<path class="st27" d="M519.5,601.8c-0.7-0.4-1.3-1-1.6-1.7c-0.4-0.8-0.6-1.8-0.6-2.7v-1.9c0-0.9,0.2-1.8,0.6-2.7
	c0.3-0.7,0.9-1.3,1.6-1.7c1.6-0.8,3.5-0.8,5.1,0c0.7,0.4,1.3,1,1.6,1.7c0.4,0.8,0.6,1.8,0.6,2.7v1.9c0,0.9-0.2,1.9-0.6,2.7
	c-0.4,0.7-0.9,1.3-1.6,1.7C523,602.5,521.1,602.5,519.5,601.8z M523.9,599.5c0.5-0.6,0.7-1.3,0.7-2.1v-1.9c0-0.7-0.2-1.5-0.7-2.1
	c-1-1-2.6-1-3.7,0c-0.5,0.6-0.7,1.3-0.7,2.1v1.9c0,0.8,0.2,1.5,0.7,2.1C521.3,600.5,522.9,600.5,523.9,599.5z"/>
<path class="st27" d="M530,590.7h2.3v11.5H530V590.7z M535.6,592.8c-0.3-0.1-0.7-0.2-1.1-0.2c-1.1-0.1-2.1,0.7-2.3,1.8
	c0,0.1,0,0.3,0,0.4l-0.2-2.2c0.3-0.6,0.8-1.2,1.4-1.6c0.5-0.4,1.2-0.6,1.9-0.6c0.5,0,1,0.1,1.4,0.2c0.4,0.1,0.8,0.4,1.1,0.7l-1.5,2
	C536.2,593.2,535.9,593,535.6,592.8L535.6,592.8z"/>
<path class="st27" d="M538.5,590.7h2.3l3.5,10l-1.3,2.4L538.5,590.7z M548.7,590.7l-4.9,14.2c-0.1,0.5-0.4,0.9-0.7,1.3
	c-0.3,0.3-0.7,0.5-1.1,0.7c-0.5,0.1-1,0.2-1.6,0.2h-0.5v-2.2h0.5c0.4,0,0.7-0.1,1-0.3c0.3-0.2,0.5-0.5,0.7-0.9l4.3-13H548.7z"/>
<path class="st27" d="M368.3,589L368.3,589c0.6,0.6,0.6,1.5,0,2.1c0,0,0,0,0,0l-10.6,10.6c-0.6,0.6-1.5,0.6-2.1,0c0,0,0,0,0,0l0,0
	c-0.6-0.6-0.6-1.5,0-2.1c0,0,0,0,0,0l10.5-10.6C366.7,588.4,367.7,588.4,368.3,589C368.3,589,368.3,589,368.3,589z"/>
<path class="st27" d="M344.9,589L344.9,589c0.6-0.6,1.5-0.6,2.1,0c0,0,0,0,0,0l10.6,10.6c0.6,0.6,0.6,1.5,0,2.1c0,0,0,0,0,0l0,0
	c-0.6,0.6-1.5,0.6-2.1,0c0,0,0,0,0,0l-10.6-10.6C344.3,590.6,344.3,589.6,344.9,589C344.9,589,344.9,589,344.9,589z"/>
<ellipse transform="matrix(0.9951 -9.853760e-02 9.853760e-02 0.9951 -66.6409 48.3107)" class="st28" cx="455.8" cy="698.8" rx="19.6" ry="19.6"/>
<path class="st29" d="M493.7,689.5h2l6.2,16.8h-2.5l-4.7-13.6l-4.7,13.6h-2.5L493.7,689.5z M490.4,700.4h8.9v2.3h-8.9V700.4z"/>
<path class="st29" d="M504.2,694.3h2.4v12h-2.4V694.3z M511.5,699c0-0.7-0.2-1.4-0.7-2c-0.5-0.5-1.2-0.7-1.9-0.7
	c-0.7,0-1.3,0.2-1.8,0.6c-0.4,0.5-0.7,1.1-0.6,1.7l-0.2-2.3c0.3-0.7,0.8-1.3,1.5-1.7c0.6-0.4,1.3-0.6,2-0.6c1.2-0.1,2.3,0.4,3,1.3
	c0.8,1,1.1,2.3,1.1,3.6v7.3h-2.4L511.5,699z"/>
<path class="st29" d="M516.6,694.3h5.4v2.1h-5.4V694.3z M518.5,705.6c-0.5-0.7-0.7-1.5-0.7-2.4v-12.4h2.4v12.4c0,0.2,0,0.5,0.2,0.7
	c0.1,0.2,0.3,0.2,0.5,0.2h1.1v2.3h-1.4C519.8,706.4,519,706.2,518.5,705.6L518.5,705.6z"/>
<path class="st29" d="M527.1,705.9c-0.7-0.4-1.3-1-1.7-1.8c-0.4-0.9-0.6-1.9-0.6-2.8v-2c0-1,0.2-1.9,0.6-2.8c0.4-0.8,1-1.4,1.7-1.8
	c1.7-0.8,3.7-0.8,5.3,0c0.7,0.4,1.3,1,1.7,1.8c0.4,0.9,0.6,1.8,0.6,2.8v2c0,1-0.2,1.9-0.6,2.8c-0.4,0.8-1,1.4-1.7,1.8
	C530.8,706.7,528.8,706.7,527.1,705.9z M531.7,703.5c0.5-0.6,0.7-1.4,0.7-2.2v-2c0-0.8-0.2-1.5-0.7-2.2c-1.1-1-2.8-1-3.8,0
	c-0.5,0.6-0.7,1.4-0.7,2.2v2c0,0.8,0.2,1.6,0.7,2.2C529,704.5,530.7,704.5,531.7,703.5z"/>
<path class="st29" d="M538.1,694.3h2.4v12h-2.4V694.3z M545.4,699c0-0.7-0.2-1.4-0.7-2c-0.5-0.5-1.2-0.7-1.9-0.7
	c-0.7,0-1.3,0.2-1.8,0.6c-0.4,0.5-0.7,1.1-0.6,1.7l-0.2-2.3c0.3-0.7,0.8-1.3,1.5-1.7c0.6-0.4,1.3-0.6,2-0.6c1.2-0.1,2.3,0.4,3,1.3
	c0.8,1,1.1,2.3,1.1,3.6v7.3h-2.4L545.4,699z"/>
<ellipse transform="matrix(0.9951 -9.853763e-02 9.853763e-02 0.9951 -71.8483 48.568)" class="st30" cx="455.8" cy="751.7" rx="19.6" ry="19.6"/>
<path class="st29" d="M489.1,742.3h2.4v16.8h-2.4V742.3z M490.3,756.9h9.6v2.3h-9.6V756.9z"/>
<path class="st29" d="M504.6,758.7c-0.8-0.4-1.4-1-1.8-1.8c-0.4-0.9-0.6-1.9-0.6-2.9v-1.4c0-1,0.2-2.1,0.6-3c0.4-0.8,1-1.5,1.7-1.9
	c0.8-0.5,1.8-0.7,2.7-0.7c0.9,0,1.8,0.2,2.6,0.8c0.7,0.5,1.3,1.3,1.6,2.2c0.4,1.1,0.6,2.2,0.6,3.4v0.8h-8.1v-1.9h5.9
	c0-0.8-0.3-1.6-0.8-2.3c-0.4-0.5-1.1-0.8-1.8-0.8c-0.8,0-1.6,0.3-2.1,0.9c-0.5,0.7-0.8,1.6-0.8,2.5v1.5c0,0.8,0.2,1.6,0.8,2.3
	c0.6,0.5,1.4,0.8,2.2,0.8c0.5,0,1-0.1,1.4-0.3c0.5-0.2,0.9-0.5,1.3-0.8l1.6,1.5c-0.6,0.6-1.3,1-2,1.3c-0.7,0.3-1.5,0.5-2.3,0.5
	C506.4,759.3,505.4,759.1,504.6,758.7z"/>
<path class="st29" d="M515.2,747.2h2.4v12h-2.4L515.2,747.2z M522.5,751.9c0-0.7-0.2-1.4-0.7-2c-0.5-0.5-1.2-0.7-1.9-0.7
	c-0.7,0-1.3,0.2-1.8,0.6c-0.4,0.5-0.6,1.1-0.6,1.7l-0.2-2.3c0.3-0.7,0.8-1.3,1.5-1.7c0.6-0.4,1.3-0.6,2-0.6c1.2-0.1,2.3,0.4,3,1.3
	c0.8,1,1.1,2.3,1.1,3.6v7.3h-2.4L522.5,751.9z"/>
<path class="st29" d="M528.9,758.4c-1.4-1.5-1.5-3.9-0.1-5.5c0.9-0.6,1.9-1,3-0.9h3.4l0.2,1.9h-3.6c-0.5,0-1,0.1-1.4,0.4
	c-0.3,0.3-0.5,0.8-0.5,1.3c0,0.5,0.2,1,0.6,1.4c0.6,0.3,1.2,0.5,1.8,0.4c0.7,0,1.4-0.1,2-0.3c0.4-0.1,0.7-0.5,0.7-0.9l0.2,1.7
	c-0.2,0.3-0.5,0.6-0.8,0.8c-0.3,0.2-0.7,0.4-1.1,0.5c-0.4,0.1-0.9,0.2-1.4,0.2C531.1,759.4,529.9,759.1,528.9,758.4z M535.2,751.5
	c0-0.7-0.2-1.3-0.6-1.8c-0.5-0.5-1.1-0.7-1.8-0.7c-0.5,0-1,0.1-1.4,0.2c-0.4,0.1-0.9,0.3-1.2,0.6l-1.7-1.2c0.5-0.6,1.1-1,1.8-1.3
	c0.8-0.3,1.6-0.5,2.5-0.5c0.9,0,1.8,0.2,2.6,0.5c0.7,0.3,1.2,0.9,1.6,1.5c0.4,0.7,0.6,1.6,0.6,2.4v7.7h-2.3L535.2,751.5z"/>
<path class="st29" d="M541,747.2h2.4v12H541V747.2z M546.8,749.4c-0.4-0.1-0.7-0.2-1.1-0.2c-0.6,0-1.3,0.2-1.7,0.6
	c-0.4,0.5-0.7,1.1-0.6,1.7l-0.2-2.3c0.3-0.7,0.8-1.2,1.4-1.7c0.6-0.4,1.2-0.6,1.9-0.6c0.5,0,1,0.1,1.5,0.2c0.4,0.2,0.8,0.4,1.2,0.7
	l-1.5,2.1C547.5,749.7,547.2,749.5,546.8,749.4L546.8,749.4z"/>
<path class="st29" d="M552.5,758.8c-0.6-0.4-1.1-1-1.4-1.7c-0.3-0.8-0.5-1.7-0.5-2.6v-2.7c0-0.9,0.1-1.8,0.5-2.6
	c0.3-0.7,0.8-1.3,1.4-1.7c0.7-0.4,1.4-0.6,2.2-0.6c0.7,0,1.4,0.2,2,0.6c0.6,0.4,1.1,0.9,1.4,1.6l-0.2,2.5c0-0.5-0.1-0.9-0.3-1.3
	c-0.2-0.4-0.5-0.6-0.8-0.8c-0.4-0.2-0.8-0.3-1.3-0.3c-0.7,0-1.4,0.2-1.8,0.8c-0.5,0.6-0.7,1.3-0.6,2v2.6c0,0.7,0.2,1.5,0.6,2
	c0.5,0.5,1.1,0.8,1.8,0.7c0.4,0,0.9-0.1,1.3-0.3c0.3-0.2,0.6-0.5,0.8-0.8c0.2-0.4,0.3-0.9,0.3-1.3l0.2,2.5c-0.2,0.6-0.6,1.1-1.2,1.5
	c-0.6,0.4-1.3,0.6-2,0.6C553.9,759.4,553.2,759.2,552.5,758.8z M557.8,742.3h2.4v16.8h-2.4V742.3z"/>
<g class="st31">
	<g>
		<g>
			<path class="st4" d="M452.7,647v2.7H436V647H452.7z M453.7,637.8v2.7h-16.8v-2.7H453.7z M442,632.3h2.6l-3.9,23h-2.6L442,632.3z
				 M448.7,632.3h2.6l-3.9,23h-2.6L448.7,632.3z"/>
			<path class="st4" d="M462.7,655.3h-3.2v-19.5l-3.3,2v-3.3l3.3-2.2h3.2V655.3z"/>
			<path class="st4" d="M483.4,632.3h2.8l8.5,23h-3.5l-6.4-18.6l-6.4,18.6h-3.5L483.4,632.3z M478.8,647.2h12.1v3.1h-12.1V647.2z"/>
			<path class="st4" d="M497.7,638.8h3.2v16.4h-3.2V638.8z M507.7,645.3c0-1.2-0.3-2.1-0.9-2.7s-1.4-0.9-2.5-0.9
				c-1.1,0-1.9,0.3-2.4,0.8c-0.6,0.6-0.9,1.3-0.9,2.4l-0.3-3.2c0.5-1,1.2-1.8,2-2.3c0.8-0.5,1.7-0.8,2.7-0.8c1.8,0,3.2,0.6,4.1,1.7
				c1,1.2,1.5,2.8,1.5,4.9v10h-3.2V645.3z"/>
			<path class="st4" d="M514.6,638.8h7.4v2.9h-7.4V638.8z M517.2,654.2c-0.6-0.7-0.9-1.8-0.9-3.2v-16.9h3.2v17
				c0,0.4,0.1,0.7,0.2,0.9c0.2,0.2,0.4,0.3,0.7,0.3h1.6v3.1h-1.9C518.8,655.3,517.8,655,517.2,654.2z"/>
			<path class="st4" d="M529.1,654.7c-1-0.6-1.8-1.4-2.3-2.4c-0.5-1.1-0.8-2.4-0.8-3.9v-2.7c0-1.5,0.3-2.8,0.8-3.8
				c0.5-1.1,1.3-1.9,2.3-2.4c1-0.6,2.2-0.8,3.7-0.8c1.4,0,2.6,0.3,3.7,0.8c1,0.6,1.8,1.4,2.3,2.4c0.5,1.1,0.8,2.3,0.8,3.8v2.7
				c0,1.5-0.3,2.8-0.8,3.8s-1.3,1.9-2.3,2.4c-1,0.6-2.2,0.8-3.7,0.8C531.3,655.5,530.1,655.2,529.1,654.7z M535.3,651.4
				c0.6-0.7,0.9-1.7,0.9-3v-2.7c0-1.3-0.3-2.3-0.9-3c-0.6-0.7-1.5-1-2.6-1s-2,0.3-2.6,1c-0.6,0.7-0.9,1.7-0.9,3v2.7
				c0,1.3,0.3,2.3,0.9,3c0.6,0.7,1.5,1.1,2.6,1.1S534.7,652.1,535.3,651.4z"/>
			<path class="st4" d="M544.1,638.8h3.2v16.4h-3.2V638.8z M554,645.3c0-1.2-0.3-2.1-0.9-2.7s-1.4-0.9-2.5-0.9
				c-1.1,0-1.9,0.3-2.4,0.8c-0.6,0.6-0.9,1.3-0.9,2.4l-0.3-3.2c0.5-1,1.2-1.8,2-2.3c0.8-0.5,1.7-0.8,2.7-0.8c1.8,0,3.2,0.6,4.1,1.7
				c1,1.2,1.5,2.8,1.5,4.9v10H554V645.3z"/>
			<path class="st4" d="M560.9,632.3h3.2v8.1h-3.2V632.3z"/>
			<path class="st4" d="M571,655.2c-0.8-0.2-1.6-0.5-2.4-0.9c-0.7-0.4-1.4-0.9-2-1.4l1.9-2.4c0.9,0.7,1.8,1.2,2.6,1.5
				c0.9,0.3,1.7,0.5,2.6,0.5c1.3,0,2.2-0.2,2.9-0.6s1-1,1-1.8c0-0.5-0.2-0.9-0.5-1.2c-0.3-0.3-0.8-0.4-1.3-0.5
				c-0.5-0.1-1.2-0.2-2.2-0.2c-0.1,0-0.2,0-0.3,0c-0.1,0-0.2,0-0.3,0c0,0-0.1,0-0.1,0c0,0-0.1,0-0.1,0c-1.1-0.1-2-0.2-2.7-0.5
				c-0.7-0.2-1.4-0.7-1.8-1.3c-0.5-0.6-0.7-1.5-0.7-2.7s0.2-2.1,0.7-2.9c0.5-0.8,1.2-1.3,2.1-1.7s2.1-0.6,3.5-0.6
				c0.9,0,1.7,0.1,2.4,0.2c0.8,0.2,1.5,0.4,2.2,0.7c0.7,0.3,1.4,0.7,2,1.2l-1.9,2.4c-0.8-0.5-1.6-0.9-2.4-1.2
				c-0.8-0.3-1.6-0.4-2.3-0.4c-1.1,0-1.9,0.2-2.5,0.6c-0.5,0.4-0.8,0.9-0.8,1.7c0,0.4,0.2,0.8,0.5,1c0.3,0.2,0.7,0.4,1.2,0.4
				c0.5,0.1,1.1,0.1,2,0.2c0.1,0,0.1,0,0.2,0c0.1,0,0.1,0,0.2,0c0,0,0.1,0,0.1,0c0,0,0.1,0,0.1,0c1.1,0.1,2.1,0.2,2.9,0.5
				c0.8,0.2,1.5,0.7,2,1.4s0.8,1.7,0.8,3c0,1.2-0.3,2.2-0.8,2.9c-0.5,0.8-1.3,1.4-2.3,1.7c-1,0.4-2.3,0.6-3.8,0.6
				C572.8,655.5,571.8,655.4,571,655.2z"/>
			<path class="st4" d="M596.2,654.7c-1.1-0.6-1.9-1.4-2.4-2.4s-0.8-2.4-0.8-3.9v-2.7c0-1.5,0.3-2.8,0.8-3.8
				c0.6-1.1,1.4-1.9,2.4-2.4c1.1-0.6,2.3-0.8,3.8-0.8c0.9,0,1.7,0.1,2.4,0.3c0.8,0.2,1.4,0.5,2,0.9c0.6,0.4,1.1,0.9,1.5,1.4
				l-2.3,2.1c-0.5-0.5-1-0.9-1.6-1.2c-0.6-0.3-1.3-0.4-1.9-0.4c-1.2,0-2.2,0.3-2.9,1s-1,1.7-1,2.9v2.7c0,1.3,0.3,2.3,1,3
				c0.7,0.7,1.6,1.1,2.9,1.1c0.7,0,1.3-0.2,2-0.5s1.2-0.7,1.6-1.3l2.3,2.2c-0.4,0.5-0.9,1-1.5,1.4c-0.6,0.4-1.3,0.7-2,0.9
				s-1.6,0.3-2.4,0.3C598.5,655.5,597.3,655.2,596.2,654.7z"/>
			<path class="st4" d="M609.6,632.3h3.2v23h-3.2V632.3z M619.5,645.3c0-1.2-0.3-2.1-0.9-2.7s-1.4-0.9-2.5-0.9
				c-1.1,0-1.9,0.3-2.4,0.8c-0.6,0.5-0.9,1.3-0.9,2.3l-0.3-3.2c0.5-1,1.2-1.7,2-2.3c0.8-0.5,1.7-0.8,2.7-0.8c1.8,0,3.2,0.6,4.1,1.7
				c1,1.2,1.5,2.8,1.5,4.9v10h-3.2V645.3z"/>
			<path class="st4" d="M628.4,654.2c-1-0.8-1.5-2.1-1.5-3.8c0-1.6,0.5-2.8,1.4-3.7c0.9-0.8,2.3-1.2,4.2-1.2h4.7l0.2,2.6h-4.9
				c-0.8,0-1.5,0.2-1.9,0.6s-0.6,0.9-0.6,1.7c0,0.8,0.3,1.5,0.8,1.9c0.6,0.4,1.4,0.6,2.5,0.6c1.2,0,2.2-0.1,2.8-0.4s0.9-0.7,0.9-1.2
				l0.3,2.3c-0.3,0.4-0.6,0.8-1.1,1.1c-0.4,0.3-0.9,0.5-1.4,0.6c-0.5,0.1-1.2,0.2-1.9,0.2C630.9,655.5,629.4,655.1,628.4,654.2z
				 M636.9,644.9c0-1.1-0.3-1.9-0.9-2.5c-0.6-0.6-1.4-0.9-2.4-0.9c-0.7,0-1.3,0.1-1.9,0.3s-1.2,0.5-1.7,0.8l-2.4-1.6
				c0.6-0.7,1.4-1.3,2.5-1.7c1-0.4,2.1-0.6,3.4-0.6c1.4,0,2.5,0.2,3.5,0.7c1,0.5,1.7,1.2,2.2,2.1s0.8,2,0.8,3.3v10.6h-3.1V644.9z"/>
			<path class="st4" d="M644.9,638.8h3.2v16.4h-3.2V638.8z M654.9,645.3c0-1.2-0.3-2.1-0.9-2.7s-1.4-0.9-2.5-0.9
				c-1.1,0-1.9,0.3-2.4,0.8c-0.6,0.6-0.9,1.3-0.9,2.4l-0.3-3.2c0.5-1,1.2-1.8,2-2.3c0.8-0.5,1.7-0.8,2.7-0.8c1.8,0,3.2,0.6,4.1,1.7
				c1,1.2,1.5,2.8,1.5,4.9v10h-3.2V645.3z"/>
			<path class="st4" d="M663,638.8h3.2v16.4H663V638.8z M673,645.3c0-1.2-0.3-2.1-0.9-2.7s-1.4-0.9-2.5-0.9c-1.1,0-1.9,0.3-2.4,0.8
				c-0.6,0.6-0.9,1.3-0.9,2.4l-0.3-3.2c0.5-1,1.2-1.8,2-2.3c0.8-0.5,1.7-0.8,2.7-0.8c1.8,0,3.2,0.6,4.1,1.7c1,1.2,1.5,2.8,1.5,4.9
				v10H673V645.3z"/>
			<path class="st4" d="M683.9,654.6c-1.1-0.6-1.9-1.4-2.5-2.5c-0.6-1.1-0.8-2.4-0.8-4v-1.9c0-1.6,0.3-3,0.8-4.2
				c0.5-1.1,1.3-2,2.4-2.6c1-0.6,2.3-0.9,3.7-0.9c1.4,0,2.5,0.3,3.5,1s1.7,1.7,2.2,3c0.5,1.3,0.8,2.9,0.8,4.7v1.1h-11.1v-2.6h8
				c-0.1-1.3-0.4-2.4-1-3.1s-1.4-1.1-2.4-1.1c-1.2,0-2.2,0.4-2.8,1.2c-0.7,0.8-1,1.9-1,3.4v2.1c0,1.4,0.4,2.4,1.1,3.1
				s1.7,1.1,3.1,1.1c0.7,0,1.3-0.1,1.9-0.4s1.2-0.6,1.7-1.1l2.1,2.1c-0.8,0.8-1.7,1.4-2.7,1.8s-2,0.6-3.1,0.6
				C686.3,655.5,685,655.2,683.9,654.6z"/>
			<path class="st4" d="M701.7,651c0,0.4,0.1,0.7,0.3,0.9c0.2,0.2,0.4,0.3,0.7,0.3h1.5v3.1h-1.9c-1.2,0-2.2-0.4-2.8-1.1
				c-0.7-0.8-1-1.8-1-3.2v-18.7h3.2V651z"/>
		</g>
	</g>
</g>
<path class="st7" d="M634.1,240.3h231.2c10.7,0,19.3,8.6,19.3,19.3l0,0c0,10.7-8.6,19.3-19.3,19.3H634.1c-10.7,0-19.3-8.6-19.3-19.3
	l0,0C614.8,249,623.5,240.3,634.1,240.3z"/>
<circle class="st13" cx="634.6" cy="259" r="12"/>
<path class="st0" d="M1169.3,303.9v229c0,7.7-6.2,13.9-13.9,13.9c0,0,0,0,0,0h-525c-7.7,0-13.9-6.2-13.9-13.9c0,0,0,0,0,0v-229
	c0-7.7,6.2-13.9,13.9-13.9h525C1163.1,290,1169.3,296.2,1169.3,303.9z"/>
<path class="st3" d="M696,374.8c0.1,0.1,0.2,0.2,0.3,0.3H696V374.8z"/>
<path class="st3" d="M681.8,317.4h2.3v16.1h-2.3V317.4z M683.3,331.4h3.7c1,0.1,2-0.3,2.8-0.9c0.7-0.7,1-1.6,1-2.6v-4.8
	c0.1-1-0.3-1.9-1-2.6c-0.8-0.7-1.8-1-2.8-0.9h-3.7v-2.2h3.6c1.1,0,2.3,0.2,3.3,0.7c0.9,0.4,1.6,1.1,2.1,2c0.5,1,0.8,2,0.8,3.1v4.5
	c0,1.1-0.2,2.2-0.8,3.1c-0.5,0.9-1.2,1.6-2.1,2c-1,0.5-2.2,0.7-3.3,0.7h-3.6L683.3,331.4z"/>
<path class="st3" d="M698.5,333.1c-0.7-0.4-1.4-1-1.7-1.8c-0.4-0.9-0.6-1.8-0.6-2.8v-1.3c0-1,0.2-2,0.6-2.9c0.4-0.8,0.9-1.4,1.7-1.8
	c0.8-0.4,1.7-0.7,2.6-0.6c0.9,0,1.7,0.2,2.5,0.7c0.7,0.5,1.3,1.3,1.6,2.1c0.4,1.1,0.6,2.2,0.5,3.3v0.8h-7.8v-1.8h5.6
	c0-0.8-0.3-1.6-0.8-2.2c-0.4-0.5-1-0.8-1.7-0.8c-0.8,0-1.5,0.3-2,0.8c-0.5,0.7-0.8,1.5-0.7,2.4v1.5c-0.1,0.8,0.2,1.6,0.8,2.2
	c0.6,0.5,1.4,0.8,2.1,0.8c0.5,0,0.9-0.1,1.4-0.3c0.4-0.2,0.9-0.4,1.2-0.8l1.5,1.5c-0.6,0.5-1.2,1-1.9,1.3c-0.7,0.3-1.4,0.4-2.1,0.4
	C700.2,333.8,699.3,333.5,698.5,333.1z"/>
<path class="st3" d="M707.8,322h5.8v1.9h-5.8V322z M709,320.4c-0.1-0.8,0.2-1.6,0.7-2.3c0.6-0.5,1.4-0.8,2.2-0.8h1.7v2.2H712
	c-0.2,0-0.4,0.1-0.5,0.2c-0.1,0.2-0.2,0.4-0.2,0.6v13.1H709L709,320.4z"/>
<path class="st3" d="M715.9,332.8c-0.7-0.7-1.1-1.7-1.1-2.7c-0.1-1,0.3-1.9,1-2.6c0.8-0.6,1.9-0.9,2.9-0.9h3.3l0.2,1.8h-3.4
	c-0.5,0-0.9,0.1-1.3,0.4c-0.3,0.3-0.5,0.8-0.4,1.2c0,0.5,0.2,1,0.6,1.3c0.5,0.3,1.2,0.5,1.8,0.4c0.7,0,1.3-0.1,1.9-0.3
	c0.4-0.1,0.6-0.5,0.6-0.9l0.2,1.6c-0.2,0.3-0.5,0.6-0.8,0.8c-0.3,0.2-0.7,0.4-1,0.5c-0.4,0.1-0.9,0.1-1.3,0.1
	C718,333.8,716.9,333.5,715.9,332.8z M722,326.2c0-0.6-0.2-1.3-0.6-1.8c-0.5-0.4-1.1-0.7-1.7-0.6c-0.5,0-0.9,0.1-1.4,0.2
	c-0.4,0.1-0.8,0.3-1.2,0.6l-1.6-1.1c0.5-0.5,1.1-1,1.7-1.2c0.8-0.3,1.6-0.5,2.4-0.4c0.8,0,1.7,0.1,2.5,0.5c0.6,0.3,1.2,0.8,1.5,1.5
	c0.4,0.7,0.6,1.5,0.5,2.3v7.4h-2.2L722,326.2z"/>
<path class="st3" d="M729.8,329c0,0.7,0.2,1.3,0.6,1.9c0.5,0.5,1.1,0.7,1.7,0.7c0.6,0,1.3-0.2,1.7-0.6c0.4-0.4,0.7-1.1,0.6-1.7
	l0.1,2.4c-0.2,0.6-0.6,1.1-1.2,1.4c-0.6,0.4-1.3,0.6-2,0.6c-1.1,0.1-2.2-0.4-2.9-1.2c-0.7-1-1.1-2.2-1-3.5v-7h2.3L729.8,329z
	 M734.5,322h2.3v11.5h-2.3V322z"/>
<path class="st3" d="M742.5,330.6c0,0.2,0,0.5,0.2,0.7c0.1,0.2,0.3,0.2,0.5,0.2h1.1v2.2h-1.3c-0.8,0-1.5-0.3-2-0.8
	c-0.5-0.6-0.8-1.5-0.7-2.3v-13.1h2.3V330.6z"/>
<path class="st3" d="M745.9,322h5.2v2h-5.2V322z M747.7,332.8c-0.5-0.7-0.7-1.5-0.7-2.3v-11.9h2.3v11.9c0,0.2,0,0.5,0.2,0.7
	c0.1,0.2,0.3,0.2,0.5,0.2h1.1v2.2h-1.3C749,333.7,748.3,333.4,747.7,332.8z"/>
<path class="st3" d="M762.3,333.1c-0.7-0.4-1.3-1-1.7-1.7c-0.4-0.8-0.6-1.8-0.6-2.7v-1.9c0-0.9,0.2-1.8,0.6-2.7
	c0.4-0.7,1-1.3,1.7-1.7c0.8-0.4,1.8-0.6,2.7-0.6c0.6,0,1.1,0.1,1.7,0.2c0.5,0.1,1,0.3,1.4,0.6c0.4,0.3,0.8,0.6,1.1,1l-1.6,1.5
	c-0.3-0.4-0.7-0.7-1.1-0.9c-0.4-0.2-0.9-0.3-1.4-0.3c-0.8,0-1.5,0.2-2,0.8c-0.5,0.6-0.8,1.3-0.7,2.1v1.9c-0.1,0.8,0.2,1.5,0.7,2.1
	c0.5,0.5,1.3,0.8,2,0.8c0.5,0,0.9-0.1,1.4-0.3c0.4-0.2,0.8-0.5,1.1-0.9l1.6,1.6c-0.3,0.4-0.7,0.7-1.1,1c-0.4,0.3-0.9,0.5-1.4,0.6
	c-0.6,0.1-1.1,0.2-1.7,0.2C764,333.7,763.1,333.5,762.3,333.1z"/>
<path class="st3" d="M772.1,332.8c-0.7-0.7-1.1-1.7-1.1-2.7c-0.1-1,0.3-1.9,1-2.6c0.8-0.6,1.9-0.9,2.9-0.9h3.3l0.2,1.8H775
	c-0.5,0-0.9,0.1-1.3,0.4c-0.3,0.3-0.5,0.8-0.4,1.2c0,0.5,0.2,1,0.6,1.3c0.5,0.3,1.2,0.5,1.8,0.4c0.7,0,1.3-0.1,1.9-0.3
	c0.4-0.1,0.6-0.5,0.6-0.9l0.2,1.6c-0.2,0.3-0.5,0.6-0.8,0.8c-0.3,0.2-0.7,0.4-1,0.5c-0.4,0.1-0.9,0.1-1.3,0.1
	C774.2,333.8,773.1,333.5,772.1,332.8z M778.1,326.2c0-0.6-0.2-1.3-0.6-1.8c-0.5-0.4-1.1-0.7-1.7-0.6c-0.5,0-0.9,0.1-1.4,0.2
	c-0.4,0.1-0.8,0.3-1.2,0.6l-1.7-1.1c0.5-0.5,1.1-1,1.7-1.2c0.8-0.3,1.6-0.4,2.4-0.4c0.8,0,1.7,0.1,2.5,0.5c0.7,0.3,1.2,0.8,1.6,1.5
	c0.4,0.7,0.6,1.5,0.5,2.3v7.4h-2.2L778.1,326.2z"/>
<path class="st3" d="M782.9,322h5.2v2h-5.2V322z M784.7,332.8c-0.5-0.7-0.7-1.5-0.7-2.3v-11.9h2.3v11.9c0,0.2,0,0.5,0.2,0.7
	c0.1,0.2,0.3,0.2,0.5,0.2h1.1v2.2h-1.3C786,333.7,785.2,333.4,784.7,332.8z"/>
<path class="st3" d="M793.1,333.1c-0.7-0.4-1.4-1-1.7-1.8c-0.4-0.9-0.6-1.8-0.6-2.8v-1.3c0-1,0.2-2,0.6-2.9c0.4-0.8,0.9-1.4,1.7-1.8
	c0.8-0.4,1.7-0.7,2.6-0.6c0.9,0,1.7,0.2,2.5,0.7c0.7,0.5,1.3,1.3,1.6,2.1c0.4,1.1,0.6,2.2,0.5,3.3v0.8h-7.8v-1.8h5.6
	c0-0.8-0.3-1.6-0.8-2.2c-0.4-0.5-1-0.8-1.7-0.8c-0.8,0-1.5,0.3-2,0.8c-0.5,0.7-0.8,1.5-0.7,2.4v1.5c-0.1,0.8,0.2,1.6,0.8,2.2
	c0.6,0.5,1.4,0.8,2.1,0.8c0.5,0,0.9-0.1,1.4-0.3c0.4-0.2,0.9-0.4,1.2-0.8l1.5,1.5c-0.6,0.5-1.2,1-1.9,1.3c-0.7,0.3-1.4,0.4-2.1,0.4
	C794.9,333.8,794,333.5,793.1,333.1z"/>
<path class="st3" d="M804.9,333.2c-0.6-0.4-1.1-0.9-1.4-1.6c-0.3-0.8-0.5-1.7-0.5-2.5v-2.5c0-0.9,0.1-1.7,0.5-2.5
	c0.3-0.7,0.7-1.2,1.3-1.6c0.6-0.4,1.4-0.6,2.1-0.6c0.7,0,1.3,0.2,1.9,0.5c0.6,0.4,1.1,0.9,1.4,1.5l-0.2,2.4c0-0.4-0.1-0.9-0.3-1.3
	c-0.2-0.3-0.4-0.6-0.8-0.8c-0.4-0.2-0.8-0.3-1.2-0.3c-0.7,0-1.3,0.2-1.7,0.7c-0.4,0.6-0.7,1.3-0.6,2v2.5c0,0.7,0.2,1.4,0.6,1.9
	c0.4,0.5,1.1,0.7,1.7,0.7c0.4,0,0.8-0.1,1.2-0.3c0.3-0.2,0.6-0.5,0.8-0.8c0.2-0.4,0.3-0.8,0.3-1.3l0.2,2.4c-0.2,0.6-0.6,1.1-1.1,1.4
	c-0.6,0.4-1.2,0.6-1.9,0.6C806.3,333.8,805.5,333.6,804.9,333.2z M804.9,337.7c-0.6-0.3-1.2-0.8-1.6-1.4l1.5-1.4
	c0.3,0.4,0.6,0.7,1.1,0.9c1.1,0.6,2.4,0.4,3.3-0.4c0.5-0.6,0.8-1.3,0.7-2V322h2.3v11.2c0,0.9-0.2,1.9-0.6,2.7
	c-0.4,0.7-1,1.3-1.7,1.7c-0.8,0.4-1.7,0.6-2.7,0.6C806.4,338.2,805.6,338.1,804.9,337.7L804.9,337.7z"/>
<path class="st3" d="M817.5,333.1c-0.7-0.4-1.3-1-1.6-1.7c-0.4-0.8-0.6-1.8-0.6-2.7v-1.9c0-0.9,0.2-1.8,0.6-2.7
	c0.3-0.7,0.9-1.3,1.6-1.7c1.6-0.8,3.5-0.8,5.1,0c0.7,0.4,1.3,1,1.6,1.7c0.4,0.8,0.6,1.8,0.6,2.7v1.9c0,0.9-0.2,1.9-0.6,2.7
	c-0.4,0.7-0.9,1.3-1.6,1.7C821,333.9,819.1,333.9,817.5,333.1z M821.9,330.8c0.5-0.6,0.7-1.3,0.7-2.1v-1.9c0-0.7-0.2-1.5-0.7-2.1
	c-1-1-2.6-1-3.7,0c-0.5,0.6-0.7,1.3-0.7,2.1v1.9c0,0.8,0.2,1.5,0.7,2.1C819.2,331.8,820.9,331.8,821.9,330.8z"/>
<path class="st3" d="M828,322h2.3v11.5H828V322z M833.6,324.2c-0.3-0.1-0.7-0.2-1.1-0.2c-1.1-0.1-2.1,0.7-2.3,1.8c0,0.1,0,0.3,0,0.4
	L830,324c0.3-0.6,0.8-1.2,1.4-1.6c0.5-0.4,1.2-0.6,1.9-0.6c0.5,0,1,0.1,1.4,0.2c0.4,0.1,0.8,0.4,1.1,0.7l-1.5,2
	C834.1,324.5,833.9,324.3,833.6,324.2L833.6,324.2z"/>
<path class="st3" d="M836.5,322h2.3l3.5,10l-1.3,2.4L836.5,322z M846.7,322l-4.9,14.2c-0.1,0.5-0.4,0.9-0.7,1.3
	c-0.3,0.3-0.7,0.5-1.1,0.7c-0.5,0.1-1,0.2-1.6,0.2H838v-2.2h0.5c0.4,0,0.7-0.1,1-0.3c0.3-0.2,0.5-0.5,0.7-0.9l4.3-13H846.7z"/>
<path class="st3" d="M666.3,320.3L666.3,320.3c0.6,0.6,0.6,1.5,0,2.1c0,0,0,0,0,0l-10.6,10.6c-0.6,0.6-1.5,0.6-2.1,0c0,0,0,0,0,0
	l0,0c-0.6-0.6-0.6-1.5,0-2.1c0,0,0,0,0,0l10.5-10.6C664.7,319.7,665.7,319.7,666.3,320.3C666.3,320.3,666.3,320.3,666.3,320.3z"/>
<path class="st3" d="M642.9,320.3L642.9,320.3c0.6-0.6,1.5-0.6,2.1,0c0,0,0,0,0,0l10.6,10.6c0.6,0.6,0.6,1.5,0,2.1c0,0,0,0,0,0l0,0
	c-0.6,0.6-1.5,0.6-2.1,0c0,0,0,0,0,0l-10.6-10.6C642.2,321.9,642.2,321,642.9,320.3C642.8,320.4,642.8,320.4,642.9,320.3z"/>
<ellipse transform="matrix(0.9951 -9.853765e-02 9.853765e-02 0.9951 -38.7176 76.3642)" class="st5" cx="753.7" cy="430.1" rx="19.6" ry="19.6"/>
<path class="st4" d="M791.7,420.8h2l6.2,16.8h-2.5l-4.7-13.6l-4.7,13.6h-2.5L791.7,420.8z M788.3,431.7h8.9v2.3h-8.9V431.7z"/>
<path class="st4" d="M802.2,425.6h2.4v12h-2.4V425.6z M809.5,430.4c0-0.7-0.2-1.4-0.7-2c-0.5-0.5-1.2-0.7-1.9-0.7
	c-0.7,0-1.3,0.2-1.8,0.6c-0.4,0.5-0.7,1.1-0.6,1.7l-0.2-2.3c0.3-0.7,0.8-1.3,1.5-1.7c0.6-0.4,1.3-0.6,2-0.6c1.2-0.1,2.3,0.4,3,1.3
	c0.8,1,1.1,2.3,1.1,3.6v7.3h-2.4L809.5,430.4z"/>
<path class="st4" d="M814.5,425.6h5.4v2.1h-5.4V425.6z M816.4,436.9c-0.5-0.7-0.7-1.5-0.7-2.4v-12.4h2.4v12.4c0,0.2,0,0.5,0.2,0.7
	c0.1,0.2,0.3,0.2,0.5,0.2h1.1v2.3h-1.4C817.8,437.8,817,437.5,816.4,436.9L816.4,436.9z"/>
<path class="st4" d="M825.1,437.2c-0.7-0.4-1.3-1-1.7-1.8c-0.4-0.9-0.6-1.9-0.6-2.8v-2c0-1,0.2-1.9,0.6-2.8c0.4-0.8,1-1.4,1.7-1.8
	c1.7-0.8,3.7-0.8,5.3,0c0.7,0.4,1.3,1,1.7,1.8c0.4,0.9,0.6,1.8,0.6,2.8v2c0,1-0.2,1.9-0.6,2.8c-0.4,0.8-1,1.4-1.7,1.8
	C828.8,438,826.8,438,825.1,437.2z M829.7,434.8c0.5-0.6,0.7-1.4,0.7-2.2v-2c0-0.8-0.2-1.5-0.7-2.2c-1.1-1-2.8-1-3.8,0
	c-0.5,0.6-0.7,1.4-0.7,2.2v2c-0.1,0.8,0.2,1.6,0.7,2.2C826.9,435.8,828.6,435.8,829.7,434.8z"/>
<path class="st4" d="M836.1,425.6h2.4v12h-2.4V425.6z M843.4,430.4c0-0.7-0.2-1.4-0.7-2c-0.5-0.5-1.2-0.7-1.9-0.7
	c-0.7,0-1.3,0.2-1.8,0.6c-0.4,0.5-0.7,1.1-0.6,1.7l-0.2-2.3c0.3-0.7,0.8-1.3,1.5-1.7c0.6-0.4,1.3-0.6,2-0.6c1.2-0.1,2.3,0.4,3,1.3
	c0.8,1,1.1,2.3,1.1,3.6v7.3h-2.4V430.4z"/>
<ellipse transform="matrix(0.9951 -9.853763e-02 9.853763e-02 0.9951 -43.925 76.6213)" class="st7" cx="753.7" cy="483" rx="19.6" ry="19.6"/>
<path class="st4" d="M787.1,473.7h2.4v16.8h-2.4V473.7z M788.3,488.3h9.6v2.3h-9.6V488.3z"/>
<path class="st4" d="M802.5,490.1c-0.8-0.4-1.4-1-1.8-1.8c-0.4-0.9-0.6-1.9-0.6-2.9v-1.4c0-1,0.2-2.1,0.6-3c0.4-0.8,1-1.5,1.7-1.9
	c0.8-0.5,1.8-0.7,2.7-0.7c0.9,0,1.8,0.2,2.6,0.8c0.7,0.5,1.3,1.3,1.6,2.2c0.4,1.1,0.6,2.2,0.6,3.4v0.8h-8.1v-1.9h5.9
	c0-0.8-0.3-1.6-0.8-2.3c-0.4-0.5-1.1-0.8-1.8-0.8c-0.8,0-1.6,0.3-2.1,0.9c-0.5,0.7-0.8,1.6-0.8,2.5v1.5c0,0.8,0.2,1.6,0.8,2.3
	c0.6,0.5,1.4,0.8,2.2,0.8c0.5,0,1-0.1,1.4-0.3c0.5-0.2,0.9-0.5,1.3-0.8l1.6,1.5c-0.6,0.6-1.3,1-2,1.3c-0.7,0.3-1.5,0.5-2.3,0.5
	C804.4,490.6,803.4,490.5,802.5,490.1z"/>
<path class="st4" d="M813.2,478.5h2.4v12h-2.4L813.2,478.5z M820.4,483.2c0-0.7-0.2-1.4-0.7-2c-0.5-0.5-1.2-0.7-1.9-0.7
	c-0.7,0-1.3,0.2-1.8,0.6c-0.4,0.5-0.6,1.1-0.6,1.7l-0.2-2.3c0.3-0.7,0.8-1.3,1.5-1.7c0.6-0.4,1.3-0.6,2-0.6c1.2-0.1,2.3,0.4,3,1.3
	c0.8,1,1.1,2.3,1.1,3.6v7.3h-2.4L820.4,483.2z"/>
<path class="st4" d="M826.9,489.7c-1.4-1.5-1.5-3.9-0.1-5.5c0.9-0.6,1.9-1,3-0.9h3.4l0.2,1.9h-3.6c-0.5,0-1,0.1-1.4,0.4
	c-0.3,0.3-0.5,0.8-0.5,1.3c0,0.5,0.2,1,0.6,1.4c0.6,0.3,1.2,0.5,1.8,0.4c0.7,0,1.4-0.1,2-0.3c0.4-0.1,0.7-0.5,0.7-0.9l0.2,1.7
	c-0.2,0.3-0.5,0.6-0.8,0.8c-0.3,0.2-0.7,0.4-1.1,0.5c-0.4,0.1-0.9,0.2-1.4,0.2C829,490.7,827.9,490.4,826.9,489.7z M833.2,482.9
	c0-0.7-0.2-1.3-0.6-1.8c-0.5-0.5-1.1-0.7-1.8-0.7c-0.5,0-1,0.1-1.4,0.2c-0.4,0.1-0.9,0.3-1.2,0.6l-1.7-1.2c0.5-0.6,1.1-1,1.8-1.3
	c0.8-0.3,1.6-0.5,2.5-0.5c0.9,0,1.8,0.2,2.6,0.5c0.7,0.3,1.2,0.9,1.6,1.5c0.4,0.7,0.6,1.6,0.6,2.4v7.7h-2.3L833.2,482.9z"/>
<path class="st4" d="M839,478.5h2.4v12H839V478.5z M844.8,480.8c-0.4-0.1-0.7-0.2-1.1-0.2c-0.6,0-1.3,0.2-1.7,0.6
	c-0.4,0.5-0.7,1.1-0.6,1.7l-0.2-2.3c0.3-0.7,0.8-1.2,1.4-1.7c0.6-0.4,1.2-0.6,1.9-0.6c0.5,0,1,0.1,1.5,0.2c0.4,0.2,0.8,0.4,1.2,0.7
	l-1.5,2.1C845.4,481.1,845.1,480.9,844.8,480.8L844.8,480.8z"/>
<path class="st4" d="M850.4,490.1c-0.6-0.4-1.1-1-1.4-1.7c-0.3-0.8-0.5-1.7-0.5-2.6v-2.7c0-0.9,0.1-1.8,0.5-2.6
	c0.3-0.7,0.8-1.3,1.4-1.7c0.7-0.4,1.4-0.6,2.2-0.6c0.7,0,1.4,0.2,2,0.6c0.6,0.4,1.1,0.9,1.4,1.6l-0.2,2.5c0-0.5-0.1-0.9-0.3-1.3
	c-0.2-0.4-0.5-0.6-0.8-0.8c-0.4-0.2-0.8-0.3-1.3-0.3c-0.7,0-1.4,0.2-1.8,0.8c-0.5,0.6-0.7,1.3-0.6,2v2.6c0,0.7,0.2,1.5,0.6,2
	c0.5,0.5,1.1,0.8,1.8,0.7c0.4,0,0.9-0.1,1.3-0.3c0.3-0.2,0.6-0.5,0.8-0.8c0.2-0.4,0.3-0.9,0.3-1.3l0.2,2.5c-0.2,0.6-0.6,1.1-1.2,1.5
	c-0.6,0.4-1.3,0.6-2,0.6C851.9,490.8,851.1,490.6,850.4,490.1z M855.7,473.7h2.4v16.8h-2.4V473.7z"/>
<g>
	<g>
		<g>
			<path class="st4" d="M750.7,378.3v2.7h-16.8v-2.7H750.7z M751.6,369.2v2.7h-16.8v-2.7H751.6z M740,363.6h2.6l-3.9,23H736
				L740,363.6z M746.7,363.6h2.6l-3.9,23h-2.6L746.7,363.6z"/>
			<path class="st4" d="M760.7,386.6h-3.2v-19.5l-3.3,2v-3.3l3.3-2.2h3.2V386.6z"/>
			<path class="st4" d="M781.3,363.6h2.8l8.5,23h-3.5l-6.4-18.6l-6.4,18.6h-3.5L781.3,363.6z M776.7,378.5h12.1v3.1h-12.1V378.5z"/>
			<path class="st4" d="M795.7,370.2h3.2v16.4h-3.2V370.2z M805.7,376.7c0-1.2-0.3-2.1-0.9-2.7c-0.6-0.6-1.4-0.9-2.5-0.9
				c-1.1,0-1.9,0.3-2.4,0.8c-0.6,0.6-0.9,1.3-0.9,2.4l-0.3-3.2c0.5-1,1.2-1.8,2-2.3c0.8-0.5,1.7-0.8,2.7-0.8c1.8,0,3.2,0.6,4.1,1.7
				c1,1.2,1.5,2.8,1.5,4.9v10h-3.2V376.7z"/>
			<path class="st4" d="M812.5,370.2h7.4v2.9h-7.4V370.2z M815.2,385.6c-0.6-0.7-0.9-1.8-0.9-3.2v-16.9h3.2v17
				c0,0.4,0.1,0.7,0.2,0.9c0.2,0.2,0.4,0.3,0.7,0.3h1.5v3.1h-1.9C816.8,386.7,815.8,386.3,815.2,385.6z"/>
			<path class="st4" d="M827,386c-1-0.6-1.8-1.4-2.3-2.4s-0.8-2.4-0.8-3.9V377c0-1.5,0.3-2.8,0.8-3.8c0.5-1.1,1.3-1.9,2.3-2.4
				s2.2-0.8,3.7-0.8c1.4,0,2.6,0.3,3.7,0.8c1,0.6,1.8,1.4,2.3,2.4c0.5,1.1,0.8,2.3,0.8,3.8v2.7c0,1.5-0.3,2.8-0.8,3.8
				c-0.5,1.1-1.3,1.9-2.3,2.4c-1,0.6-2.2,0.8-3.7,0.8C829.2,386.8,828,386.6,827,386z M833.3,382.7c0.6-0.7,0.9-1.7,0.9-3V377
				c0-1.3-0.3-2.3-0.9-3c-0.6-0.7-1.5-1-2.6-1c-1.1,0-2,0.3-2.6,1s-0.9,1.7-0.9,3v2.7c0,1.3,0.3,2.3,0.9,3c0.6,0.7,1.5,1.1,2.6,1.1
				C831.8,383.8,832.7,383.4,833.3,382.7z"/>
			<path class="st4" d="M842,370.2h3.2v16.4H842V370.2z M852,376.7c0-1.2-0.3-2.1-0.9-2.7c-0.6-0.6-1.4-0.9-2.5-0.9
				c-1.1,0-1.9,0.3-2.4,0.8c-0.6,0.6-0.9,1.3-0.9,2.4l-0.3-3.2c0.5-1,1.2-1.8,2-2.3c0.8-0.5,1.7-0.8,2.7-0.8c1.8,0,3.2,0.6,4.1,1.7
				c1,1.2,1.5,2.8,1.5,4.9v10H852V376.7z"/>
			<path class="st4" d="M858.9,363.6h3.2v8.1h-3.2V363.6z"/>
			<path class="st4" d="M869,386.6c-0.8-0.2-1.6-0.5-2.4-0.9c-0.7-0.4-1.4-0.9-2-1.4l1.9-2.4c0.9,0.7,1.8,1.2,2.6,1.5
				c0.9,0.3,1.7,0.5,2.6,0.5c1.3,0,2.2-0.2,2.9-0.6c0.6-0.4,1-1,1-1.8c0-0.5-0.2-0.9-0.5-1.2s-0.8-0.4-1.3-0.5
				c-0.5-0.1-1.2-0.2-2.2-0.2c-0.1,0-0.2,0-0.3,0c-0.1,0-0.2,0-0.3,0c0,0-0.1,0-0.1,0c0,0-0.1,0-0.1,0c-1.1-0.1-2-0.2-2.7-0.5
				c-0.7-0.2-1.4-0.7-1.8-1.3c-0.5-0.6-0.7-1.5-0.7-2.7s0.2-2.1,0.7-2.9c0.5-0.8,1.2-1.3,2.1-1.7s2.1-0.6,3.5-0.6
				c0.9,0,1.7,0.1,2.4,0.2c0.8,0.2,1.5,0.4,2.2,0.7c0.7,0.3,1.4,0.7,2,1.2l-1.9,2.4c-0.8-0.5-1.6-0.9-2.4-1.2s-1.6-0.4-2.3-0.4
				c-1.1,0-1.9,0.2-2.5,0.6c-0.5,0.4-0.8,0.9-0.8,1.7c0,0.4,0.2,0.8,0.5,1c0.3,0.2,0.7,0.4,1.2,0.4c0.5,0.1,1.1,0.1,2,0.2
				c0.1,0,0.1,0,0.2,0s0.1,0,0.2,0c0,0,0.1,0,0.1,0s0.1,0,0.1,0c1.1,0.1,2.1,0.2,2.9,0.5c0.8,0.2,1.5,0.7,2,1.4
				c0.5,0.7,0.8,1.7,0.8,3c0,1.2-0.3,2.2-0.8,2.9c-0.5,0.8-1.3,1.4-2.3,1.7c-1,0.4-2.3,0.6-3.8,0.6
				C870.7,386.8,869.8,386.7,869,386.6z"/>
			<path class="st4" d="M894.2,386c-1.1-0.6-1.9-1.4-2.4-2.4c-0.6-1.1-0.8-2.4-0.8-3.9V377c0-1.5,0.3-2.8,0.8-3.8
				c0.6-1.1,1.4-1.9,2.4-2.4s2.3-0.8,3.8-0.8c0.9,0,1.7,0.1,2.4,0.3c0.8,0.2,1.4,0.5,2,0.9c0.6,0.4,1.1,0.9,1.5,1.4l-2.3,2.1
				c-0.5-0.5-1-0.9-1.6-1.2c-0.6-0.3-1.3-0.4-1.9-0.4c-1.2,0-2.2,0.3-2.9,1s-1,1.7-1,2.9v2.7c0,1.3,0.3,2.3,1,3
				c0.7,0.7,1.6,1.1,2.9,1.1c0.7,0,1.3-0.2,2-0.5s1.2-0.7,1.6-1.3l2.3,2.2c-0.4,0.5-0.9,1-1.5,1.4c-0.6,0.4-1.3,0.7-2,0.9
				s-1.6,0.3-2.4,0.3C896.5,386.8,895.2,386.6,894.2,386z"/>
			<path class="st4" d="M907.5,363.6h3.2v23h-3.2V363.6z M917.5,376.7c0-1.2-0.3-2.1-0.9-2.7c-0.6-0.6-1.4-0.9-2.5-0.9
				c-1.1,0-1.9,0.3-2.4,0.8c-0.6,0.5-0.9,1.3-0.9,2.3l-0.3-3.2c0.5-1,1.2-1.7,2-2.3c0.8-0.5,1.7-0.8,2.7-0.8c1.8,0,3.2,0.6,4.1,1.7
				c1,1.2,1.5,2.8,1.5,4.9v10h-3.2V376.7z"/>
			<path class="st4" d="M926.3,385.6c-1-0.8-1.5-2.1-1.5-3.8c0-1.6,0.5-2.8,1.4-3.7c0.9-0.8,2.3-1.2,4.2-1.2h4.7l0.2,2.6h-4.9
				c-0.8,0-1.5,0.2-1.9,0.6c-0.4,0.4-0.6,0.9-0.6,1.7c0,0.8,0.3,1.5,0.8,1.9c0.6,0.4,1.4,0.6,2.5,0.6c1.2,0,2.2-0.1,2.8-0.4
				s0.9-0.7,0.9-1.2l0.3,2.3c-0.3,0.4-0.6,0.8-1.1,1.1c-0.4,0.3-0.9,0.5-1.4,0.6c-0.5,0.1-1.2,0.2-1.9,0.2
				C928.8,386.8,927.3,386.4,926.3,385.6z M934.9,376.2c0-1.1-0.3-1.9-0.9-2.5c-0.6-0.6-1.4-0.9-2.4-0.9c-0.7,0-1.3,0.1-1.9,0.3
				c-0.6,0.2-1.2,0.5-1.7,0.8l-2.4-1.6c0.6-0.7,1.4-1.3,2.5-1.7c1-0.4,2.1-0.6,3.4-0.6c1.4,0,2.5,0.2,3.5,0.7c1,0.5,1.7,1.2,2.2,2.1
				c0.5,0.9,0.8,2,0.8,3.3v10.6h-3.1V376.2z"/>
			<path class="st4" d="M942.9,370.2h3.2v16.4h-3.2V370.2z M952.8,376.7c0-1.2-0.3-2.1-0.9-2.7c-0.6-0.6-1.4-0.9-2.5-0.9
				c-1.1,0-1.9,0.3-2.4,0.8c-0.6,0.6-0.9,1.3-0.9,2.4l-0.3-3.2c0.5-1,1.2-1.8,2-2.3c0.8-0.5,1.7-0.8,2.7-0.8c1.8,0,3.2,0.6,4.1,1.7
				c1,1.2,1.5,2.8,1.5,4.9v10h-3.2V376.7z"/>
			<path class="st4" d="M961,370.2h3.2v16.4H961V370.2z M970.9,376.7c0-1.2-0.3-2.1-0.9-2.7c-0.6-0.6-1.4-0.9-2.5-0.9
				c-1.1,0-1.9,0.3-2.4,0.8c-0.6,0.6-0.9,1.3-0.9,2.4l-0.3-3.2c0.5-1,1.2-1.8,2-2.3c0.8-0.5,1.7-0.8,2.7-0.8c1.8,0,3.2,0.6,4.1,1.7
				c1,1.2,1.5,2.8,1.5,4.9v10h-3.2V376.7z"/>
			<path class="st4" d="M981.9,386c-1.1-0.6-1.9-1.4-2.5-2.5s-0.8-2.4-0.8-4v-1.9c0-1.6,0.3-3,0.8-4.2c0.5-1.1,1.3-2,2.4-2.6
				c1-0.6,2.3-0.9,3.7-0.9c1.4,0,2.5,0.3,3.5,1c1,0.7,1.7,1.7,2.2,3c0.5,1.3,0.8,2.9,0.8,4.7v1.1h-11.1v-2.6h8
				c-0.1-1.3-0.4-2.4-1-3.1s-1.4-1.1-2.4-1.1c-1.2,0-2.2,0.4-2.8,1.2c-0.7,0.8-1,1.9-1,3.4v2.1c0,1.4,0.4,2.4,1.1,3.1
				c0.7,0.7,1.7,1.1,3.1,1.1c0.7,0,1.3-0.1,1.9-0.4c0.6-0.3,1.2-0.6,1.7-1.1l2.1,2.1c-0.8,0.8-1.7,1.4-2.7,1.8c-1,0.4-2,0.6-3.1,0.6
				C984.3,386.8,983,386.6,981.9,386z"/>
			<path class="st4" d="M999.6,382.4c0,0.4,0.1,0.7,0.3,0.9c0.2,0.2,0.4,0.3,0.7,0.3h1.5v3.1h-1.9c-1.2,0-2.2-0.4-2.8-1.1
				c-0.7-0.8-1-1.8-1-3.2v-18.7h3.2V382.4z"/>
		</g>
	</g>
</g>
<g>
	<g>
		<path class="st4" d="M667.9,251.3h3.8v15.5h-2.6v-12l0.1,0.7l-3,9.6h-2.6l-3-9.4l0.1-0.9v12h-2.6v-15.5h3.8l2.9,10.4L667.9,251.3z
			"/>
		<path class="st4" d="M675.2,251.3h2.9v15.5h-2.9V251.3z M676.2,251.3h9.3v2.8h-9.3V251.3z M676.2,257.7h8.1v2.8h-8.1V257.7z
			 M676.2,264h9.3v2.8h-9.3V264z"/>
		<path class="st4" d="M697.9,251.3h3.8v15.5h-2.6v-12l0.1,0.7l-3,9.6h-2.6l-3-9.4l0.1-0.9v12h-2.6v-15.5h3.8l2.9,10.4L697.9,251.3z
			"/>
		<path class="st4" d="M705.2,251.3h2.9v15.5h-2.9V251.3z M706.5,264h4.9c0.7,0,1.2-0.2,1.5-0.5c0.4-0.3,0.5-0.8,0.5-1.4v0
			c0-0.4-0.1-0.7-0.2-1c-0.2-0.3-0.4-0.5-0.7-0.6c-0.3-0.1-0.7-0.2-1.1-0.2h-4.9v-2.8h4.9c0.6,0,1.1-0.2,1.4-0.5
			c0.3-0.3,0.5-0.7,0.5-1.3c0-0.5-0.2-0.9-0.5-1.2c-0.3-0.3-0.8-0.4-1.4-0.4h-4.9v-2.8h5c1,0,1.9,0.2,2.6,0.5
			c0.7,0.3,1.2,0.8,1.6,1.4c0.4,0.6,0.6,1.4,0.6,2.3c0,0.6-0.1,1.1-0.4,1.6s-0.6,0.8-1,1.1c-0.5,0.3-1,0.5-1.6,0.6
			c0.7,0.1,1.3,0.3,1.8,0.6c0.5,0.3,0.9,0.7,1.1,1.3c0.3,0.5,0.4,1.1,0.4,1.8v0c0,0.9-0.2,1.6-0.6,2.3c-0.4,0.6-0.9,1.1-1.6,1.4
			c-0.7,0.3-1.6,0.5-2.6,0.5h-5.2V264z"/>
		<path class="st4" d="M719.2,251.3h2.9v15.5h-2.9V251.3z M720.3,251.3h9.3v2.8h-9.3V251.3z M720.3,257.7h8.1v2.8h-8.1V257.7z
			 M720.3,264h9.3v2.8h-9.3V264z"/>
		<path class="st4" d="M732.3,251.3h2.9v15.5h-2.9V251.3z M733.4,257.7h5.4c0.3,0,0.6-0.1,0.8-0.2c0.2-0.1,0.4-0.4,0.5-0.6
			c0.1-0.3,0.2-0.6,0.2-1c0-0.4-0.1-0.7-0.2-1c-0.1-0.3-0.3-0.5-0.5-0.6c-0.2-0.1-0.5-0.2-0.8-0.2h-5.4v-2.8h5.6
			c0.9,0,1.6,0.2,2.2,0.6c0.6,0.4,1.1,0.9,1.5,1.6c0.4,0.7,0.5,1.5,0.5,2.4s-0.2,1.7-0.5,2.4c-0.4,0.7-0.9,1.2-1.5,1.6
			s-1.4,0.6-2.2,0.6h-5.6V257.7z M736.7,260.1l3.1-0.5l4.2,7.2h-3.5L736.7,260.1z"/>
		<path class="st4" d="M752.3,251.3h2.9v15.5h-2.9V251.3z M753.5,257.7h5.4c0.3,0,0.6-0.1,0.8-0.2c0.2-0.1,0.4-0.4,0.5-0.6
			c0.1-0.3,0.2-0.6,0.2-1c0-0.4-0.1-0.7-0.2-1c-0.1-0.3-0.3-0.5-0.5-0.6c-0.2-0.1-0.5-0.2-0.8-0.2h-5.4v-2.8h5.6
			c0.9,0,1.6,0.2,2.2,0.6c0.6,0.4,1.1,0.9,1.5,1.6c0.4,0.7,0.5,1.5,0.5,2.4s-0.2,1.7-0.5,2.4c-0.4,0.7-0.9,1.2-1.5,1.6
			s-1.4,0.6-2.2,0.6h-5.6V257.7z M756.7,260.1l3.1-0.5l4.2,7.2h-3.5L756.7,260.1z"/>
		<path class="st4" d="M768.9,266.2c-0.9-0.5-1.5-1.1-2-2c-0.5-0.9-0.7-1.9-0.7-3v-4.4c0-1.1,0.2-2.1,0.7-3c0.5-0.9,1.1-1.5,2-2
			c0.9-0.5,1.8-0.7,3-0.7c1.1,0,2.1,0.2,3,0.7c0.9,0.5,1.5,1.1,2,2c0.5,0.9,0.7,1.9,0.7,3v4.4c0,1.1-0.2,2.1-0.7,3
			c-0.5,0.9-1.1,1.5-2,2s-1.8,0.7-3,0.7C770.7,266.9,769.8,266.7,768.9,266.2z M773.2,263.7c0.4-0.2,0.7-0.5,0.9-1s0.3-0.9,0.3-1.4
			v-4.5c0-0.5-0.1-1-0.3-1.4c-0.2-0.4-0.5-0.7-0.9-1c-0.4-0.2-0.9-0.3-1.4-0.3c-0.5,0-1,0.1-1.4,0.3c-0.4,0.2-0.7,0.5-0.9,1
			c-0.2,0.4-0.3,0.9-0.3,1.4v4.5c0,0.5,0.1,1,0.3,1.4s0.5,0.7,0.9,1c0.4,0.2,0.9,0.3,1.4,0.3C772.4,264,772.9,263.9,773.2,263.7z"/>
		<path class="st4" d="M780.6,251.3h2.9v15.5h-2.9V251.3z M781.9,264h9.1v2.8h-9.1V264z"/>
		<path class="st4" d="M793.1,251.3h2.9v15.5h-2.9V251.3z M794.1,251.3h9.3v2.8h-9.3V251.3z M794.1,257.7h8.1v2.8h-8.1V257.7z
			 M794.1,264h9.3v2.8h-9.3V264z"/>
	</g>
</g>
<g>
	<g>
		<g>
			<path class="st13" d="M75.1,195.9h11.3v2.8H75.1V195.9z M79.3,197.2h2.9v14.2h-2.9V197.2z"/>
			<path class="st13" d="M87.7,195.9h2.9v15.5h-2.9V195.9z M88.9,202.4h5.4c0.3,0,0.6-0.1,0.8-0.2c0.2-0.1,0.4-0.4,0.5-0.6
				c0.1-0.3,0.2-0.6,0.2-1c0-0.4-0.1-0.7-0.2-1c-0.1-0.3-0.3-0.5-0.5-0.6c-0.2-0.1-0.5-0.2-0.8-0.2h-5.4v-2.8h5.6
				c0.9,0,1.6,0.2,2.2,0.6c0.6,0.4,1.1,0.9,1.5,1.6c0.4,0.7,0.5,1.5,0.5,2.4s-0.2,1.7-0.5,2.4c-0.4,0.7-0.9,1.2-1.5,1.6
				s-1.4,0.6-2.2,0.6h-5.6V202.4z M92.1,204.7l3.1-0.5l4.2,7.2h-3.5L92.1,204.7z"/>
			<path class="st13" d="M104.3,210.9c-0.8-0.5-1.5-1.1-1.9-2c-0.4-0.9-0.7-1.9-0.7-3.1v-9.9h2.9v9.9c0,0.9,0.2,1.6,0.7,2.1
				s1.1,0.7,2,0.7c0.9,0,1.5-0.2,2-0.7c0.5-0.5,0.7-1.2,0.7-2.1v-9.9h2.9v9.9c0,1.2-0.2,2.2-0.7,3.1c-0.4,0.9-1.1,1.5-1.9,2
				c-0.8,0.5-1.9,0.7-3.1,0.7C106.2,211.5,105.1,211.3,104.3,210.9z"/>
			<path class="st13" d="M118.9,211.3c-0.7-0.1-1.4-0.4-2-0.7c-0.6-0.3-1.2-0.6-1.7-1l1.4-2.4c0.6,0.5,1.3,0.9,2.1,1.1
				c0.8,0.3,1.6,0.4,2.4,0.4c1,0,1.7-0.2,2.2-0.5c0.5-0.3,0.8-0.8,0.8-1.4v0c0-0.4-0.1-0.7-0.4-1c-0.2-0.2-0.5-0.4-0.9-0.5
				c-0.4-0.1-0.9-0.2-1.4-0.3c0,0,0,0-0.1,0s0,0-0.1,0l-0.2,0c-1-0.2-1.9-0.4-2.6-0.6c-0.7-0.2-1.3-0.7-1.7-1.3
				c-0.5-0.6-0.7-1.5-0.7-2.6v0c0-1,0.2-1.9,0.7-2.6c0.4-0.7,1.1-1.2,1.9-1.6c0.9-0.4,1.9-0.6,3.1-0.6c0.6,0,1.1,0.1,1.7,0.2
				s1.1,0.3,1.7,0.6s1.1,0.5,1.6,0.9l-1.2,2.5c-0.6-0.4-1.2-0.7-1.9-1c-0.6-0.2-1.3-0.3-1.9-0.3c-0.9,0-1.6,0.1-2.1,0.4
				c-0.5,0.3-0.7,0.7-0.7,1.2v0c0,0.4,0.1,0.8,0.4,1.1s0.6,0.4,0.9,0.6c0.4,0.1,0.9,0.2,1.6,0.4c0,0,0.1,0,0.1,0c0,0,0.1,0,0.1,0
				c0,0,0.1,0,0.1,0c0,0,0.1,0,0.1,0c1,0.2,1.8,0.4,2.5,0.7c0.7,0.3,1.2,0.7,1.6,1.3c0.4,0.6,0.7,1.4,0.7,2.5v0c0,1-0.2,1.8-0.7,2.5
				s-1.1,1.2-2,1.6s-1.9,0.6-3.2,0.6C120.3,211.5,119.6,211.5,118.9,211.3z"/>
			<path class="st13" d="M127.5,195.9h11.3v2.8h-11.3V195.9z M131.7,197.2h2.9v14.2h-2.9V197.2z"/>
			<path class="st13" d="M140.1,195.9h2.9v15.5h-2.9V195.9z M141.2,195.9h9.3v2.8h-9.3V195.9z M141.2,202.3h8.1v2.8h-8.1V202.3z
				 M141.2,208.6h9.3v2.8h-9.3V208.6z"/>
			<path class="st13" d="M153.1,195.9h2.9v15.5h-2.9V195.9z M154.6,208.6h3.7c1,0,1.7-0.2,2.2-0.7c0.5-0.5,0.8-1.1,0.8-2v-4.6
				c0-0.8-0.3-1.5-0.8-2c-0.5-0.5-1.3-0.7-2.2-0.7h-3.7v-2.8h3.6c1.3,0,2.4,0.2,3.3,0.6c0.9,0.4,1.6,1.1,2.1,1.9
				c0.5,0.8,0.7,1.8,0.7,3v4.4c0,1.1-0.2,2.1-0.7,2.9s-1.1,1.5-2.1,1.9s-2,0.7-3.4,0.7h-3.6V208.6z"/>
			<path class="st13" d="M173.3,195.9h2.9v15.5h-2.9V195.9z M174.5,202.4h5.4c0.3,0,0.6-0.1,0.8-0.2c0.2-0.1,0.4-0.4,0.5-0.6
				c0.1-0.3,0.2-0.6,0.2-1c0-0.4-0.1-0.7-0.2-1c-0.1-0.3-0.3-0.5-0.5-0.6c-0.2-0.1-0.5-0.2-0.8-0.2h-5.4v-2.8h5.6
				c0.9,0,1.6,0.2,2.2,0.6c0.6,0.4,1.1,0.9,1.5,1.6c0.4,0.7,0.5,1.5,0.5,2.4s-0.2,1.7-0.5,2.4c-0.4,0.7-0.9,1.2-1.5,1.6
				s-1.4,0.6-2.2,0.6h-5.6V202.4z M177.7,204.7l3.1-0.5l4.2,7.2h-3.5L177.7,204.7z"/>
			<path class="st13" d="M189.9,210.8c-0.9-0.5-1.5-1.1-2-2c-0.5-0.9-0.7-1.9-0.7-3v-4.4c0-1.1,0.2-2.1,0.7-3c0.5-0.9,1.1-1.5,2-2
				c0.9-0.5,1.8-0.7,3-0.7c1.1,0,2.1,0.2,3,0.7c0.9,0.5,1.5,1.1,2,2c0.5,0.9,0.7,1.9,0.7,3v4.4c0,1.1-0.2,2.1-0.7,3
				c-0.5,0.9-1.1,1.5-2,2s-1.8,0.7-3,0.7C191.7,211.5,190.7,211.3,189.9,210.8z M194.2,208.3c0.4-0.2,0.7-0.5,0.9-1s0.3-0.9,0.3-1.4
				v-4.5c0-0.5-0.1-1-0.3-1.4c-0.2-0.4-0.5-0.7-0.9-1c-0.4-0.2-0.9-0.3-1.4-0.3c-0.5,0-1,0.1-1.4,0.3c-0.4,0.2-0.7,0.5-0.9,1
				c-0.2,0.4-0.3,0.9-0.3,1.4v4.5c0,0.5,0.1,1,0.3,1.4s0.5,0.7,0.9,1c0.4,0.2,0.9,0.3,1.4,0.3C193.4,208.6,193.8,208.5,194.2,208.3z
				"/>
			<path class="st13" d="M201.6,195.9h2.9v15.5h-2.9V195.9z M202.9,208.6h9.1v2.8h-9.1V208.6z"/>
			<path class="st13" d="M214.1,195.9h2.9v15.5h-2.9V195.9z M215.1,195.9h9.3v2.8h-9.3V195.9z M215.1,202.3h8.1v2.8h-8.1V202.3z
				 M215.1,208.6h9.3v2.8h-9.3V208.6z"/>
		</g>
	</g>
</g>
<g>
	<g>
		<g>
			<path class="st4" d="M357.9,519.8h2.9v15.5h-2.9V519.8z M359.2,532.5h4.9c0.7,0,1.2-0.2,1.5-0.5c0.4-0.3,0.5-0.8,0.5-1.4v0
				c0-0.4-0.1-0.7-0.2-1c-0.2-0.3-0.4-0.5-0.7-0.6c-0.3-0.1-0.7-0.2-1.1-0.2h-4.9V526h4.9c0.6,0,1.1-0.2,1.4-0.5
				c0.3-0.3,0.5-0.7,0.5-1.3c0-0.5-0.2-0.9-0.5-1.2c-0.3-0.3-0.8-0.4-1.4-0.4h-4.9v-2.8h5c1,0,1.9,0.2,2.6,0.5
				c0.7,0.3,1.2,0.8,1.6,1.4c0.4,0.6,0.6,1.4,0.6,2.3c0,0.6-0.1,1.1-0.4,1.6s-0.6,0.8-1,1.1c-0.5,0.3-1,0.5-1.6,0.6
				c0.7,0.1,1.3,0.3,1.8,0.6c0.5,0.3,0.9,0.7,1.1,1.3c0.3,0.5,0.4,1.1,0.4,1.8v0c0,0.9-0.2,1.6-0.6,2.3c-0.4,0.6-0.9,1.1-1.6,1.4
				c-0.7,0.3-1.6,0.5-2.6,0.5h-5.2V532.5z"/>
			<path class="st4" d="M372,519.8h2.9v15.5H372V519.8z M373.3,532.5h9.1v2.8h-9.1V532.5z"/>
			<path class="st4" d="M386.8,534.8c-0.9-0.5-1.5-1.1-2-2c-0.5-0.9-0.7-1.9-0.7-3v-4.4c0-1.1,0.2-2.1,0.7-3c0.5-0.9,1.1-1.5,2-2
				c0.9-0.5,1.8-0.7,3-0.7c1.1,0,2.1,0.2,3,0.7c0.9,0.5,1.5,1.1,2,2c0.5,0.9,0.7,1.9,0.7,3v4.4c0,1.1-0.2,2.1-0.7,3
				c-0.5,0.9-1.1,1.5-2,2s-1.8,0.7-3,0.7C388.7,535.5,387.7,535.2,386.8,534.8z M391.2,532.2c0.4-0.2,0.7-0.5,0.9-1s0.3-0.9,0.3-1.4
				v-4.5c0-0.5-0.1-1-0.3-1.4c-0.2-0.4-0.5-0.7-0.9-1c-0.4-0.2-0.9-0.3-1.4-0.3c-0.5,0-1,0.1-1.4,0.3c-0.4,0.2-0.7,0.5-0.9,1
				c-0.2,0.4-0.3,0.9-0.3,1.4v4.5c0,0.5,0.1,1,0.3,1.4s0.5,0.7,0.9,1c0.4,0.2,0.9,0.3,1.4,0.3C390.3,532.6,390.8,532.4,391.2,532.2z
				"/>
			<path class="st4" d="M400.8,534.8c-0.8-0.5-1.5-1.1-1.9-2c-0.4-0.9-0.7-1.9-0.7-3.1v-4.2c0-1.2,0.2-2.3,0.7-3.1
				c0.4-0.9,1.1-1.5,1.9-2s1.8-0.7,3-0.7c1,0,1.8,0.2,2.6,0.6c0.8,0.4,1.4,1,1.9,1.8s0.8,1.8,1,2.9h-3c-0.1-0.5-0.3-0.9-0.5-1.3
				c-0.2-0.4-0.5-0.6-0.9-0.8s-0.7-0.3-1.1-0.3c-0.5,0-1,0.1-1.4,0.3c-0.4,0.2-0.7,0.5-0.9,1c-0.2,0.4-0.3,0.9-0.3,1.5v4.2
				c0,0.6,0.1,1.1,0.3,1.5s0.5,0.8,0.9,1s0.8,0.3,1.4,0.3c0.4,0,0.8-0.1,1.1-0.3c0.3-0.2,0.6-0.5,0.9-0.8s0.4-0.8,0.5-1.3h3
				c-0.2,1.1-0.5,2.1-1,2.9s-1.1,1.4-1.9,1.8c-0.8,0.4-1.6,0.6-2.6,0.6C402.6,535.5,401.6,535.2,400.8,534.8z"/>
			<path class="st4" d="M412,519.8h2.9v15.5H412V519.8z M413.8,529.3l6.2-9.4h3.7l-9.5,13.2L413.8,529.3z M416.3,527.5l2.5-1.6
				l5.4,9.4h-3.5L416.3,527.5z"/>
			<path class="st4" d="M426,519.8h2.9v15.5H426V519.8z M427,519.8h9.3v2.8H427V519.8z M427,526.2h8.1v2.8H427V526.2z M427,532.5
				h9.3v2.8H427V532.5z"/>
			<path class="st4" d="M439,519.8h2.9v15.5H439V519.8z M440.5,532.5h3.7c1,0,1.7-0.2,2.2-0.7c0.5-0.5,0.8-1.1,0.8-2v-4.6
				c0-0.8-0.3-1.5-0.8-2c-0.5-0.5-1.3-0.7-2.2-0.7h-3.7v-2.8h3.6c1.3,0,2.4,0.2,3.3,0.6c0.9,0.4,1.6,1.1,2.1,1.9
				c0.5,0.8,0.7,1.8,0.7,3v4.4c0,1.1-0.2,2.1-0.7,2.9s-1.1,1.5-2.1,1.9s-2,0.7-3.4,0.7h-3.6V532.5z"/>
			<path class="st4" d="M459.2,519.8h2.9v15.5h-2.9V519.8z M460.3,526.3h5.4c0.3,0,0.6-0.1,0.8-0.2c0.2-0.1,0.4-0.4,0.5-0.6
				c0.1-0.3,0.2-0.6,0.2-1c0-0.4-0.1-0.7-0.2-1c-0.1-0.3-0.3-0.5-0.5-0.6c-0.2-0.1-0.5-0.2-0.8-0.2h-5.4v-2.8h5.6
				c0.9,0,1.6,0.2,2.2,0.6c0.6,0.4,1.1,0.9,1.5,1.6c0.4,0.7,0.5,1.5,0.5,2.4s-0.2,1.7-0.5,2.4c-0.4,0.7-0.9,1.2-1.5,1.6
				s-1.4,0.6-2.2,0.6h-5.6V526.3z M463.6,528.6l3.1-0.5l4.2,7.2h-3.5L463.6,528.6z"/>
			<path class="st4" d="M475.7,534.8c-0.9-0.5-1.5-1.1-2-2c-0.5-0.9-0.7-1.9-0.7-3v-4.4c0-1.1,0.2-2.1,0.7-3c0.5-0.9,1.1-1.5,2-2
				c0.9-0.5,1.8-0.7,3-0.7c1.1,0,2.1,0.2,3,0.7c0.9,0.5,1.5,1.1,2,2c0.5,0.9,0.7,1.9,0.7,3v4.4c0,1.1-0.2,2.1-0.7,3
				c-0.5,0.9-1.1,1.5-2,2s-1.8,0.7-3,0.7C477.6,535.5,476.6,535.2,475.7,534.8z M480.1,532.2c0.4-0.2,0.7-0.5,0.9-1s0.3-0.9,0.3-1.4
				v-4.5c0-0.5-0.1-1-0.3-1.4c-0.2-0.4-0.5-0.7-0.9-1c-0.4-0.2-0.9-0.3-1.4-0.3c-0.5,0-1,0.1-1.4,0.3c-0.4,0.2-0.7,0.5-0.9,1
				c-0.2,0.4-0.3,0.9-0.3,1.4v4.5c0,0.5,0.1,1,0.3,1.4s0.5,0.7,0.9,1c0.4,0.2,0.9,0.3,1.4,0.3C479.2,532.6,479.7,532.4,480.1,532.2z
				"/>
			<path class="st4" d="M487.4,519.8h2.9v15.5h-2.9V519.8z M488.7,532.5h9.1v2.8h-9.1V532.5z"/>
			<path class="st4" d="M499.9,519.8h2.9v15.5h-2.9V519.8z M501,519.8h9.3v2.8H501V519.8z M501,526.2h8.1v2.8H501V526.2z M501,532.5
				h9.3v2.8H501V532.5z"/>
		</g>
	</g>
</g>
<path class="st3" d="M705.8,368.2h-1.6v-3.1c0-4.3-3.5-7.9-7.9-7.9s-7.9,3.5-7.9,7.9v3.1h-1.6c-1.7,0-3.1,1.4-3.1,3.1v15.8
	c0,1.7,1.4,3.1,3.1,3.2h18.9c1.7,0,3.1-1.4,3.1-3.2v-15.8C708.9,369.6,707.5,368.2,705.8,368.2z M696.3,382.4
	c-1.7,0-3.2-1.4-3.2-3.1c0-1.7,1.4-3.2,3.1-3.2c1.7,0,3.2,1.4,3.2,3.1c0,0,0,0,0,0C699.5,381,698.1,382.4,696.3,382.4L696.3,382.4z
	 M701.2,368.2h-9.8v-3.1c-0.1-2.7,2-5,4.7-5.1c2.7-0.1,5,2,5.1,4.7c0,0.1,0,0.3,0,0.4L701.2,368.2z"/>
</svg>
