<?xml version="1.0" encoding="utf-8"?>
<!-- Generator: Adobe Illustrator 25.0.0, SVG Export Plug-In . SVG Version: 6.00 Build 0)  -->
<svg version="1.1" id="Layer_1" xmlns="http://www.w3.org/2000/svg" xmlns:xlink="http://www.w3.org/1999/xlink" x="0px" y="0px"
	 viewBox="0 0 1203.4 1000.4" style="enable-background:new 0 0 1203.4 1000.4;" xml:space="preserve">
<style type="text/css">
	.st0{fill:#36393F;}
	.st1{fill:#2F3136;}
	.st2{fill:#292841;}
	.st3{fill:#B9BBBE;}
	.st4{fill:#FFFFFF;}
	.st5{fill:#ED4245;}
	.st6{fill:#F6F6F6;}
	.st7{fill:#5865F2;}
	.st8{fill:#57F287;}
	.st9{fill:#FEE75C;}
	.st10{fill:#EB459E;}
	.st11{fill:#4FDC7C;}
	.st12{opacity:0.24;fill:#B9BBBE;enable-background:new    ;}
	.st13{opacity:0.5;fill:#292841;}
	.st14{opacity:0.5;fill:#FFFFFF;}
	.st15{opacity:0.5;fill:#B9BBBE;}
	.st16{opacity:0.5;fill:#ED4245;}
	.st17{opacity:0.5;fill:#5865F2;}
	.st18{fill:#C2905B;}
	.st19{fill:#9FB35B;}
	.st20{fill:#A17548;}
	.st21{enable-background:new    ;}
	.st22{fill:#523C25;}
	.st23{fill:#725333;}
	.st24{fill:#8D663F;}
	.st25{fill:#606060;}
	.st26{fill:none;}
	.st27{opacity:0.43;}
</style>
<path class="st2" d="M967.2,198.4v603.7c0,10.1-8.2,18.4-18.4,18.4H254.5c-10.1,0-18.4-8.2-18.4-18.4V198.4
	c0-10.1,8.2-18.4,18.4-18.4h694.3C959,180,967.2,188.2,967.2,198.4z"/>
<g>
	<g>
		<path class="st3" d="M341.6,292.6c1.7,1.7,3.9,3,6.3,3.7c0.1,0.5,0.1,1.1,0.1,1.7c0,3.5-1.5,6.7-3.9,8.9c-1.1,1-2.8,0.2-2.8-1.2
			v-13.5C341.4,292.3,341.5,292.5,341.6,292.6z"/>
		<path class="st3" d="M343.4,286.2l-4.2-4.2h3.2c0-0.6,0.1-1.2,0.2-1.7c0.3-1.8,1.2-3.5,2.4-4.8c1.9-2,4.5-3.2,7.5-3
			c4.9,0.2,8.9,4.2,9.1,9.1c0.1,3-1.1,5.7-3.2,7.6c-1.3,1.2-3,2-4.9,2.4c-0.5,0.1-1,0.1-1.6,0.1c-2.7,0-5.1-1.1-6.8-2.8l1.5-1.5
			c1.3,1.4,3.2,2.2,5.3,2.2c0.2,0,0.5,0,0.7,0c1.9-0.2,3.6-1.1,4.8-2.4c1.3-1.4,2-3.3,2-5.3c-0.1-3.9-3.3-7-7.2-7.2
			c-2-0.1-3.9,0.6-5.2,1.9c-1.4,1.2-2.3,2.9-2.5,4.8c0,0.3,0,0.5,0,0.8h3.2l-0.7,0.7l-3.6,3.6L343.4,286.2z"/>
		<polygon class="st3" points="352.6,282.2 355.8,284.1 356.4,284.4 356.2,284.7 355.5,285.8 351,283.1 351,277.8 352.6,277.8 		"/>
		<path class="st3" d="M359.9,294.5c0.2,1.1,0.2,2.3,0.2,3.4c0,10.8-7,19.9-16.7,23.1c-1.1,0.4-2.2-0.5-2.2-1.6v-2.1
			c0-0.7,0.4-1.3,1.1-1.6c7.2-2.6,12.4-9.6,12.4-17.8c0-0.5,0-0.9-0.1-1.4C356.6,296.3,358.4,295.5,359.9,294.5z"/>
		<path class="st3" d="M359.9,294.5c-1.6,1-3.3,1.7-5.2,2.1c0,0.4,0.1,0.9,0.1,1.4c0,8.2-5.2,15.1-12.4,17.8
			c-0.7,0.2-1.1,0.9-1.1,1.6v2.1c0,1.1,1.1,2,2.2,1.6c9.7-3.2,16.7-12.3,16.7-23.1C360.2,296.8,360.1,295.7,359.9,294.5z
			 M353.6,291.6c1.9-0.3,3.5-1.1,4.9-2.4c-0.3-0.7-0.6-1.4-0.9-2.1c-1.2,1.3-2.9,2.2-4.8,2.4C353.1,290.2,353.4,290.8,353.6,291.6z
			 M356.2,284.7c-0.1-0.2-0.3-0.4-0.4-0.6l-3.2-1.9v-1.8c-0.5-0.5-1-1-1.6-1.4v4.1l4.5,2.7L356.2,284.7z M347.1,282.8l0.7-0.7h-1.7
			C346.4,282.3,346.8,282.5,347.1,282.8z M347.1,276.5c-0.7-0.4-1.4-0.7-2.1-1c-1.2,1.3-2.1,3-2.4,4.8c0.7,0.3,1.4,0.6,2,0.9
			C344.9,279.3,345.8,277.7,347.1,276.5z M347.9,296.3c-2.4-0.7-4.6-2-6.3-3.7c-0.1-0.1-0.2-0.3-0.4-0.4v13.5c0,1.5,1.7,2.2,2.8,1.2
			c2.4-2.2,3.9-5.4,3.9-8.9C348,297.4,348,296.9,347.9,296.3z M333,279.2l-10.1,10.1c-0.3,0.3-0.7,0.5-1.2,0.5h-8.4
			c-0.9,0-1.7,0.8-1.7,1.7v12.8c0,0.9,0.8,1.7,1.7,1.7h8.4c0.4,0,0.9,0.2,1.2,0.5l10.1,10.1c1.1,1.1,2.9,0.3,2.9-1.2v-35.1
			C335.9,278.9,334.1,278.2,333,279.2z"/>
		<polygon class="st3" points="352.6,282.2 355.8,284.1 356.4,284.4 356.2,284.7 355.5,285.8 351,283.1 351,277.8 352.6,277.8 		"/>
		<path class="st3" d="M358.5,289.2c-1.3,1.2-3,2-4.9,2.4c-0.5,0.1-1,0.1-1.6,0.1c-2.7,0-5.1-1.1-6.8-2.8l1.5-1.5
			c1.3,1.4,3.2,2.2,5.3,2.2c0.2,0,0.5,0,0.7,0c1.9-0.2,3.6-1.1,4.8-2.4c1.3-1.4,2-3.3,2-5.3c-0.1-3.9-3.3-7-7.2-7.2
			c-2-0.1-3.9,0.6-5.2,1.9c-1.4,1.2-2.3,2.9-2.5,4.8c0,0.3,0,0.5,0,0.8h3.2l-0.7,0.7l-3.6,3.6l-0.1-0.2l-4.2-4.2h3.2
			c0-0.6,0.1-1.2,0.2-1.7c0.3-1.8,1.2-3.5,2.4-4.8c1.9-2,4.5-3.2,7.5-3c4.9,0.2,8.9,4.2,9.1,9.1
			C361.8,284.6,360.6,287.3,358.5,289.2z"/>
		<path class="st3" d="M341.3,292.2c0.1,0.1,0.2,0.3,0.4,0.4h-0.4V292.2z"/>
		<polygon class="st3" points="352.6,282.2 355.8,284.1 356.4,284.4 356.2,284.7 355.5,285.8 351,283.1 351,277.8 352.6,277.8 		"/>
		<path class="st3" d="M358.5,289.2c-1.3,1.2-3,2-4.9,2.4c-0.5,0.1-1,0.1-1.6,0.1c-2.7,0-5.1-1.1-6.8-2.8l1.5-1.5
			c1.3,1.4,3.2,2.2,5.3,2.2c0.2,0,0.5,0,0.7,0c1.9-0.2,3.6-1.1,4.8-2.4c1.3-1.4,2-3.3,2-5.3c-0.1-3.9-3.3-7-7.2-7.2
			c-2-0.1-3.9,0.6-5.2,1.9c-1.4,1.2-2.3,2.9-2.5,4.8c0,0.3,0,0.5,0,0.8h3.2l-0.7,0.7l-3.6,3.6l-0.1-0.2l-4.2-4.2h3.2
			c0-0.6,0.1-1.2,0.2-1.7c0.3-1.8,1.2-3.5,2.4-4.8c1.9-2,4.5-3.2,7.5-3c4.9,0.2,8.9,4.2,9.1,9.1
			C361.8,284.6,360.6,287.3,358.5,289.2z"/>
		<path class="st3" d="M355.8,284.1l-3.2-1.9v-4.4H351v5.3l4.5,2.7l0.7-1.1l0.2-0.3L355.8,284.1z M361.7,281.6
			c-0.2-4.9-4.2-8.9-9.1-9.1c-2.9-0.1-5.6,1.1-7.5,3c-1.2,1.3-2.1,3-2.4,4.8c-0.1,0.6-0.2,1.1-0.2,1.7h-3.2l4.2,4.2l0.1,0.2l3.6-3.6
			l0.7-0.7h-3.2c0-0.3,0-0.6,0-0.8c0.2-1.9,1.1-3.6,2.5-4.8c1.4-1.2,3.2-1.9,5.2-1.9c3.9,0.1,7,3.3,7.2,7.2c0.1,2.1-0.7,3.9-2,5.3
			c-1.2,1.3-2.9,2.2-4.8,2.4c-0.2,0-0.5,0-0.7,0c-2.1,0-3.9-0.8-5.3-2.2l-1.5,1.5c1.7,1.7,4.1,2.8,6.8,2.8c0.5,0,1.1,0,1.6-0.1
			c1.9-0.3,3.5-1.1,4.9-2.4C360.6,287.3,361.8,284.6,361.7,281.6z M355.8,284.1c0.1,0.2,0.3,0.4,0.4,0.6l0.2-0.3L355.8,284.1z
			 M352.6,277.8H351v1.2c0.6,0.4,1.1,0.9,1.6,1.4V277.8z"/>
	</g>
</g>
<g>
	<g>
		<g>
			<path class="st4" d="M412.6,296.9v3.5h-22.2v-3.5H412.6z M413.8,284.8v3.5h-22.2v-3.5H413.8z M398.4,277.4h3.4l-5.2,30.4h-3.4
				L398.4,277.4z M407.2,277.4h3.4l-5.2,30.4H402L407.2,277.4z"/>
			<path class="st4" d="M425.7,307.8h-4.3V282l-4.3,2.7v-4.4l4.3-2.9h4.3V307.8z"/>
			<path class="st4" d="M449.2,306.7c-1.6-0.9-2.8-2.3-3.7-4s-1.3-3.7-1.3-6v-8.3c0-2.3,0.4-4.2,1.3-6s2.1-3,3.7-4s3.4-1.4,5.6-1.4
				c1.7,0,3.3,0.4,4.8,1.1c1.5,0.7,2.7,1.8,3.7,3.2c1,1.4,1.6,2.9,2,4.7h-4.4c-0.3-0.9-0.7-1.8-1.3-2.5c-0.6-0.7-1.3-1.3-2.2-1.7
				s-1.7-0.6-2.6-0.6c-1.2,0-2.3,0.3-3.3,0.9c-0.9,0.6-1.7,1.4-2.2,2.5c-0.5,1.1-0.8,2.3-0.8,3.8v8.3c0,1.4,0.3,2.7,0.8,3.8
				c0.5,1.1,1.2,1.9,2.2,2.5c0.9,0.6,2,0.9,3.3,0.9c0.9,0,1.8-0.2,2.6-0.6c0.8-0.4,1.6-0.9,2.2-1.7c0.6-0.7,1.1-1.6,1.3-2.6h4.4
				c-0.3,1.8-1,3.4-2,4.7s-2.2,2.4-3.7,3.2c-1.5,0.7-3.1,1.1-4.8,1.1C452.6,308.1,450.8,307.7,449.2,306.7z"/>
			<path class="st4" d="M474.4,307c-1.3-0.7-2.4-1.8-3.1-3.2c-0.7-1.4-1.1-3.1-1.1-5.1v-3.5c0-2,0.4-3.7,1.1-5.1
				c0.7-1.4,1.7-2.5,3.1-3.2c1.3-0.7,2.9-1.1,4.8-1.1s3.5,0.4,4.8,1.1c1.3,0.7,2.4,1.8,3.1,3.2c0.7,1.4,1.1,3.1,1.1,5.1v3.6
				c0,2-0.4,3.7-1.1,5.1c-0.7,1.4-1.7,2.5-3.1,3.2s-3,1.1-4.8,1.1S475.7,307.8,474.4,307z M482.6,302.7c0.8-0.9,1.2-2.2,1.2-3.9
				v-3.6c0-1.7-0.4-3-1.2-3.9c-0.8-0.9-2-1.4-3.5-1.4s-2.6,0.5-3.5,1.4s-1.2,2.2-1.2,3.9v3.6c0,1.7,0.4,3,1.2,3.9
				c0.8,0.9,2,1.4,3.5,1.4S481.8,303.6,482.6,302.7z"/>
			<path class="st4" d="M498.5,302.2c0,0.5,0.1,0.9,0.3,1.2c0.2,0.3,0.6,0.4,1,0.4h2v4.1h-2.5c-1.6,0-2.9-0.5-3.8-1.5
				c-0.9-1-1.3-2.4-1.3-4.2v-24.8h4.3V302.2z"/>
			<path class="st4" d="M506.6,277.4h4.3v4.3h-4.3V277.4z M506.6,286.1h4.3v21.7h-4.3V286.1z"/>
			<path class="st4" d="M517.4,286.1h4.3v21.7h-4.3V286.1z M530.5,294.7c0-1.5-0.4-2.7-1.2-3.6c-0.8-0.8-1.9-1.3-3.3-1.3
				c-1.4,0-2.5,0.4-3.2,1.1c-0.8,0.7-1.1,1.8-1.1,3.1l-0.4-4.2c0.7-1.3,1.5-2.3,2.6-3s2.3-1.1,3.6-1.1c2.4,0,4.2,0.8,5.5,2.3
				c1.3,1.5,1.9,3.7,1.9,6.5v13.2h-4.3V294.7z"/>
			<path class="st4" d="M539.6,277.4h4.3v10.7h-4.3V277.4z"/>
			<path class="st4" d="M553,307.8c-1.1-0.3-2.2-0.6-3.1-1.1c-1-0.5-1.9-1.1-2.7-1.9l2.5-3.1c1.2,0.9,2.3,1.6,3.5,2
				c1.2,0.4,2.3,0.7,3.4,0.7c1.7,0,3-0.3,3.8-0.8s1.3-1.3,1.3-2.4c0-0.7-0.2-1.2-0.7-1.6c-0.5-0.3-1-0.6-1.7-0.7
				c-0.7-0.1-1.6-0.2-2.9-0.3c-0.1,0-0.2,0-0.4,0c-0.1,0-0.2,0-0.4,0c-0.1,0-0.1,0-0.2,0c-0.1,0-0.1,0-0.2,0
				c-1.4-0.1-2.6-0.3-3.6-0.6c-1-0.3-1.8-0.9-2.4-1.7c-0.6-0.8-1-2-1-3.5s0.3-2.8,0.9-3.8c0.6-1,1.6-1.8,2.8-2.3
				c1.2-0.5,2.8-0.8,4.7-0.8c1.1,0,2.2,0.1,3.2,0.3c1,0.2,2,0.5,2.9,0.9c0.9,0.4,1.8,0.9,2.7,1.6l-2.6,3.1c-1.1-0.7-2.2-1.2-3.2-1.6
				c-1.1-0.3-2.1-0.5-3.1-0.5c-1.5,0-2.5,0.2-3.3,0.7c-0.7,0.5-1.1,1.2-1.1,2.2c0,0.6,0.2,1,0.6,1.3s0.9,0.5,1.6,0.6
				c0.6,0.1,1.5,0.2,2.7,0.3c0.1,0,0.2,0,0.3,0s0.2,0,0.3,0c0,0,0.1,0,0.1,0s0.1,0,0.1,0c1.5,0.1,2.8,0.3,3.9,0.6
				c1.1,0.3,2,0.9,2.7,1.8c0.7,0.9,1.1,2.2,1.1,3.9c0,1.6-0.3,2.9-1,3.9c-0.7,1-1.7,1.8-3,2.3c-1.3,0.5-3,0.8-5.1,0.8
				C555.3,308.1,554.1,308,553,307.8z"/>
			<path class="st4" d="M586.3,307c-1.4-0.7-2.5-1.8-3.2-3.2c-0.7-1.4-1.1-3.1-1.1-5.1v-3.6c0-2,0.4-3.6,1.1-5s1.8-2.5,3.2-3.2
				c1.4-0.7,3.1-1.1,5.1-1.1c1.1,0,2.2,0.1,3.2,0.4s1.9,0.7,2.7,1.2c0.8,0.5,1.5,1.1,2,1.9l-3.1,2.8c-0.6-0.7-1.3-1.2-2.2-1.6
				c-0.8-0.4-1.7-0.6-2.6-0.6c-1.6,0-2.9,0.5-3.8,1.4s-1.4,2.2-1.4,3.9v3.6c0,1.7,0.4,3,1.3,4c0.9,0.9,2.2,1.4,3.8,1.4
				c0.9,0,1.8-0.2,2.6-0.6c0.8-0.4,1.5-1,2.1-1.7l3.1,3c-0.5,0.7-1.2,1.3-2,1.9c-0.8,0.5-1.7,0.9-2.7,1.2c-1,0.3-2.1,0.4-3.2,0.4
				C589.4,308.1,587.7,307.8,586.3,307z"/>
			<path class="st4" d="M604,277.4h4.3v30.4H604V277.4z M617.1,294.7c0-1.5-0.4-2.7-1.2-3.6c-0.8-0.8-1.9-1.3-3.3-1.3
				c-1.4,0-2.5,0.4-3.2,1.1c-0.8,0.7-1.1,1.8-1.1,3.1l-0.4-4.2c0.7-1.3,1.5-2.3,2.6-3s2.3-1.1,3.6-1.1c2.4,0,4.2,0.8,5.5,2.3
				c1.3,1.5,1.9,3.7,1.9,6.5v13.2h-4.3V294.7z"/>
			<path class="st4" d="M628.8,306.5c-1.3-1.1-2-2.8-2-5.1c0-2.1,0.6-3.8,1.8-4.8c1.2-1.1,3-1.6,5.5-1.6h6.2l0.3,3.4h-6.4
				c-1.1,0-1.9,0.2-2.5,0.7c-0.6,0.5-0.8,1.3-0.8,2.3c0,1.1,0.4,1.9,1.1,2.4s1.8,0.8,3.3,0.8c1.6,0,2.8-0.2,3.7-0.5
				c0.8-0.3,1.2-0.9,1.2-1.6l0.4,3.1c-0.4,0.6-0.8,1.1-1.4,1.4s-1.2,0.7-1.9,0.8c-0.7,0.2-1.5,0.3-2.4,0.3
				C632.2,308.1,630.2,307.6,628.8,306.5z M640.2,294.1c0-1.4-0.4-2.5-1.1-3.3c-0.8-0.8-1.8-1.2-3.2-1.2c-0.9,0-1.7,0.1-2.5,0.4
				c-0.8,0.3-1.6,0.6-2.2,1.1l-3.1-2.1c0.8-1,1.9-1.8,3.3-2.3c1.3-0.6,2.8-0.8,4.5-0.8c1.8,0,3.3,0.3,4.6,1c1.3,0.6,2.3,1.6,2.9,2.8
				c0.7,1.2,1,2.7,1,4.4v14h-4.1V294.1z"/>
			<path class="st4" d="M650.7,286.1h4.3v21.7h-4.3V286.1z M663.9,294.7c0-1.5-0.4-2.7-1.2-3.6c-0.8-0.8-1.9-1.3-3.3-1.3
				c-1.4,0-2.5,0.4-3.2,1.1c-0.8,0.7-1.1,1.8-1.1,3.1l-0.4-4.2c0.7-1.3,1.5-2.3,2.6-3s2.3-1.1,3.6-1.1c2.4,0,4.2,0.8,5.5,2.3
				c1.3,1.5,1.9,3.7,1.9,6.5v13.2h-4.3V294.7z"/>
			<path class="st4" d="M674.6,286.1h4.3v21.7h-4.3V286.1z M687.8,294.7c0-1.5-0.4-2.7-1.2-3.6c-0.8-0.8-1.9-1.3-3.3-1.3
				c-1.4,0-2.5,0.4-3.2,1.1c-0.8,0.7-1.1,1.8-1.1,3.1l-0.4-4.2c0.7-1.3,1.5-2.3,2.6-3s2.3-1.1,3.6-1.1c2.4,0,4.2,0.8,5.5,2.3
				c1.3,1.5,1.9,3.7,1.9,6.5v13.2h-4.3V294.7z"/>
			<path class="st4" d="M702.3,307c-1.4-0.8-2.5-1.9-3.3-3.3c-0.7-1.5-1.1-3.2-1.1-5.3V296c0-2.1,0.4-4,1.1-5.5
				c0.7-1.5,1.8-2.7,3.1-3.5c1.4-0.8,3-1.2,4.9-1.2c1.8,0,3.4,0.5,4.6,1.4c1.3,0.9,2.3,2.2,2.9,3.9c0.7,1.7,1,3.8,1,6.2v1.4H701
				v-3.4h10.6c-0.1-1.8-0.6-3.1-1.4-4.1c-0.8-1-1.8-1.5-3.2-1.5c-1.6,0-2.9,0.5-3.8,1.6c-0.9,1.1-1.3,2.6-1.3,4.5v2.8
				c0,1.8,0.5,3.2,1.4,4.1s2.3,1.4,4,1.4c0.9,0,1.7-0.2,2.6-0.5s1.6-0.8,2.3-1.5l2.8,2.8c-1.1,1-2.3,1.8-3.6,2.4
				c-1.3,0.6-2.7,0.8-4,0.8C705.4,308.1,703.7,307.8,702.3,307z"/>
			<path class="st4" d="M725.8,302.2c0,0.5,0.1,0.9,0.3,1.2c0.2,0.3,0.6,0.4,1,0.4h2v4.1h-2.5c-1.6,0-2.9-0.5-3.8-1.5
				c-0.9-1-1.3-2.4-1.3-4.2v-24.8h4.3V302.2z"/>
		</g>
	</g>
</g>
<g>
	<g>
		<path class="st3" d="M322.4,216.2h3v21.4h-3V216.2z M324.4,234.8h4.8c1.6,0,2.8-0.4,3.7-1.2c0.9-0.8,1.3-2,1.3-3.5v-6.3
			c0-1.5-0.4-2.6-1.3-3.5c-0.9-0.8-2.1-1.2-3.7-1.2h-4.8v-2.8h4.7c1.7,0,3.2,0.3,4.4,0.9c1.2,0.6,2.1,1.5,2.8,2.6
			c0.6,1.1,1,2.5,1,4.1v6.1c0,1.6-0.3,3-1,4.1c-0.6,1.1-1.6,2-2.8,2.6c-1.2,0.6-2.7,0.9-4.4,0.9h-4.7V234.8z"/>
		<path class="st3" d="M344.5,237c-1-0.5-1.8-1.3-2.3-2.3c-0.5-1-0.8-2.3-0.8-3.7v-1.7c0-1.5,0.3-2.8,0.8-3.9
			c0.5-1.1,1.2-1.9,2.2-2.4c1-0.6,2.1-0.8,3.5-0.8c1.3,0,2.4,0.3,3.3,1c0.9,0.6,1.6,1.6,2.1,2.8c0.5,1.2,0.7,2.6,0.7,4.3v1h-10.3
			v-2.4h7.4c-0.1-1.2-0.4-2.2-1-2.9c-0.6-0.7-1.3-1-2.2-1c-1.1,0-2,0.4-2.6,1.1s-0.9,1.8-0.9,3.2v1.9c0,1.3,0.3,2.2,1,2.9
			s1.6,1,2.8,1c0.6,0,1.2-0.1,1.8-0.4c0.6-0.2,1.1-0.6,1.6-1l2,2c-0.8,0.7-1.6,1.3-2.5,1.7c-0.9,0.4-1.9,0.6-2.8,0.6
			C346.7,237.8,345.5,237.6,344.5,237z"/>
		<path class="st3" d="M356.8,222.4h7.6v2.6h-7.6V222.4z M358.4,220.3c0-1.4,0.3-2.4,0.9-3c0.6-0.7,1.6-1,2.9-1h2.2v2.8h-2.1
			c-0.3,0-0.5,0.1-0.6,0.3c-0.1,0.2-0.2,0.5-0.2,0.8v17.3h-3V220.3z"/>
		<path class="st3" d="M368.2,236.7c-0.9-0.8-1.4-2-1.4-3.5c0-1.5,0.4-2.6,1.3-3.4s2.1-1.1,3.9-1.1h4.3l0.2,2.4h-4.5
			c-0.8,0-1.4,0.2-1.8,0.5c-0.4,0.3-0.6,0.9-0.6,1.6c0,0.8,0.3,1.3,0.8,1.7c0.5,0.4,1.3,0.6,2.3,0.6c1.1,0,2-0.1,2.6-0.4
			c0.6-0.2,0.8-0.6,0.8-1.1l0.3,2.1c-0.3,0.4-0.6,0.7-1,1c-0.4,0.3-0.8,0.5-1.3,0.6c-0.5,0.1-1.1,0.2-1.7,0.2
			C370.5,237.8,369.1,237.4,368.2,236.7z M376.1,227.9c0-1-0.3-1.8-0.8-2.3c-0.5-0.6-1.3-0.8-2.3-0.8c-0.6,0-1.2,0.1-1.8,0.3
			c-0.6,0.2-1.1,0.4-1.5,0.8l-2.2-1.5c0.6-0.7,1.3-1.2,2.3-1.6c0.9-0.4,2-0.6,3.2-0.6c1.3,0,2.3,0.2,3.2,0.7
			c0.9,0.4,1.6,1.1,2.1,1.9c0.5,0.8,0.7,1.9,0.7,3.1v9.8h-2.8V227.9z"/>
		<path class="st3" d="M386.5,231.6c0,1.1,0.3,1.9,0.8,2.5c0.5,0.6,1.3,0.9,2.3,0.9c1,0,1.7-0.3,2.3-0.8c0.5-0.5,0.8-1.3,0.8-2.2
			l0.2,3.2c-0.3,0.8-0.8,1.4-1.5,1.9c-0.7,0.5-1.6,0.8-2.6,0.8c-1.7,0-3-0.5-3.9-1.6c-0.9-1.1-1.4-2.6-1.4-4.6v-9.3h3V231.6z
			 M392.7,222.4h3v15.2h-3V222.4z"/>
		<path class="st3" d="M403.3,233.7c0,0.4,0.1,0.7,0.2,0.9c0.2,0.2,0.4,0.3,0.7,0.3h1.4v2.8h-1.8c-1.1,0-2-0.4-2.6-1.1
			c-0.6-0.7-0.9-1.7-0.9-3v-17.4h3V233.7z"/>
		<path class="st3" d="M407.8,222.4h6.9v2.7h-6.9V222.4z M410.2,236.7c-0.6-0.7-0.9-1.7-0.9-3v-15.7h3v15.7c0,0.4,0.1,0.7,0.2,0.9
			c0.1,0.2,0.4,0.3,0.6,0.3h1.4v2.8h-1.7C411.7,237.7,410.8,237.3,410.2,236.7z"/>
		<path class="st3" d="M429.4,237c-1-0.5-1.7-1.3-2.3-2.3c-0.5-1-0.8-2.2-0.8-3.6v-2.5c0-1.4,0.3-2.6,0.8-3.5c0.5-1,1.3-1.7,2.3-2.2
			s2.2-0.8,3.6-0.8c0.8,0,1.5,0.1,2.2,0.3s1.3,0.5,1.9,0.8c0.6,0.4,1,0.8,1.4,1.3l-2.2,1.9c-0.4-0.5-0.9-0.9-1.5-1.1
			c-0.6-0.3-1.2-0.4-1.8-0.4c-1.2,0-2.1,0.3-2.7,1c-0.6,0.6-1,1.6-1,2.7v2.5c0,1.2,0.3,2.1,0.9,2.8c0.6,0.7,1.5,1,2.7,1
			c0.6,0,1.2-0.1,1.8-0.4c0.6-0.3,1.1-0.7,1.5-1.2l2.2,2.1c-0.4,0.5-0.9,0.9-1.4,1.3c-0.6,0.4-1.2,0.6-1.9,0.8
			c-0.7,0.2-1.4,0.3-2.2,0.3C431.6,237.8,430.4,237.6,429.4,237z"/>
		<path class="st3" d="M442.5,236.7c-0.9-0.8-1.4-2-1.4-3.5c0-1.5,0.4-2.6,1.3-3.4s2.1-1.1,3.9-1.1h4.3l0.2,2.4h-4.5
			c-0.8,0-1.4,0.2-1.8,0.5c-0.4,0.3-0.6,0.9-0.6,1.6c0,0.8,0.3,1.3,0.8,1.7c0.5,0.4,1.3,0.6,2.3,0.6c1.1,0,2-0.1,2.6-0.4
			c0.6-0.2,0.8-0.6,0.8-1.1l0.3,2.1c-0.3,0.4-0.6,0.7-1,1c-0.4,0.3-0.8,0.5-1.3,0.6c-0.5,0.1-1.1,0.2-1.7,0.2
			C444.8,237.8,443.4,237.4,442.5,236.7z M450.4,227.9c0-1-0.3-1.8-0.8-2.3c-0.5-0.6-1.3-0.8-2.3-0.8c-0.6,0-1.2,0.1-1.8,0.3
			c-0.6,0.2-1.1,0.4-1.5,0.8l-2.2-1.5c0.6-0.7,1.3-1.2,2.3-1.6c0.9-0.4,2-0.6,3.2-0.6c1.3,0,2.3,0.2,3.2,0.7
			c0.9,0.4,1.6,1.1,2.1,1.9c0.5,0.8,0.7,1.9,0.7,3.1v9.8h-2.8V227.9z"/>
		<path class="st3" d="M456.7,222.4h6.9v2.7h-6.9V222.4z M459.1,236.7c-0.6-0.7-0.9-1.7-0.9-3v-15.7h3v15.7c0,0.4,0.1,0.7,0.2,0.9
			c0.1,0.2,0.4,0.3,0.6,0.3h1.4v2.8h-1.7C460.6,237.7,459.7,237.3,459.1,236.7z"/>
		<path class="st3" d="M470.3,237c-1-0.5-1.8-1.3-2.3-2.3c-0.5-1-0.8-2.3-0.8-3.7v-1.7c0-1.5,0.3-2.8,0.8-3.9
			c0.5-1.1,1.2-1.9,2.2-2.4c1-0.6,2.1-0.8,3.5-0.8c1.3,0,2.4,0.3,3.3,1c0.9,0.6,1.6,1.6,2.1,2.8c0.5,1.2,0.7,2.6,0.7,4.3v1h-10.3
			v-2.4h7.4c-0.1-1.2-0.4-2.2-1-2.9c-0.6-0.7-1.3-1-2.2-1c-1.1,0-2,0.4-2.6,1.1s-0.9,1.8-0.9,3.2v1.9c0,1.3,0.3,2.2,1,2.9
			s1.6,1,2.8,1c0.6,0,1.2-0.1,1.8-0.4c0.6-0.2,1.1-0.6,1.6-1l2,2c-0.8,0.7-1.6,1.3-2.5,1.7c-0.9,0.4-1.9,0.6-2.8,0.6
			C472.5,237.8,471.3,237.6,470.3,237z"/>
		<path class="st3" d="M485.8,237.1c-0.8-0.5-1.4-1.2-1.8-2.1s-0.6-2-0.6-3.3v-3.4c0-1.3,0.2-2.4,0.6-3.4c0.4-0.9,1-1.6,1.8-2.1
			c0.8-0.5,1.7-0.7,2.8-0.7c0.9,0,1.7,0.2,2.5,0.7c0.7,0.5,1.4,1.1,1.8,2l-0.3,3.1c0-0.6-0.1-1.2-0.4-1.7c-0.2-0.5-0.6-0.8-1-1
			c-0.4-0.2-1-0.4-1.6-0.4c-1,0-1.8,0.3-2.3,0.9c-0.5,0.6-0.8,1.5-0.8,2.6v3.3c0,1.1,0.3,2,0.8,2.6c0.5,0.6,1.3,0.9,2.3,0.9
			c0.6,0,1.2-0.1,1.6-0.4c0.4-0.2,0.8-0.6,1-1.1c0.2-0.5,0.4-1,0.4-1.7l0.2,3.2c-0.3,0.8-0.8,1.4-1.5,1.9c-0.7,0.5-1.5,0.8-2.5,0.8
			C487.5,237.9,486.5,237.6,485.8,237.1z M485.8,243.2c-0.9-0.4-1.6-1-2.1-1.8l2-1.8c0.4,0.5,0.9,1,1.4,1.2c0.5,0.3,1.1,0.4,1.7,0.4
			c1.1,0,2-0.3,2.7-0.9c0.6-0.6,0.9-1.5,0.9-2.7v-15.2h3v14.8c0,1.4-0.3,2.6-0.8,3.6c-0.5,1-1.3,1.8-2.2,2.3c-1,0.5-2.2,0.8-3.5,0.8
			C487.8,243.8,486.7,243.6,485.8,243.2z"/>
		<path class="st3" d="M502.5,237c-0.9-0.5-1.7-1.3-2.2-2.3c-0.5-1-0.7-2.2-0.7-3.6v-2.5c0-1.4,0.2-2.6,0.7-3.5
			c0.5-1,1.2-1.7,2.2-2.2c0.9-0.5,2.1-0.8,3.4-0.8c1.3,0,2.5,0.3,3.4,0.8c0.9,0.5,1.7,1.3,2.2,2.2c0.5,1,0.7,2.2,0.7,3.5v2.5
			c0,1.4-0.2,2.6-0.7,3.6c-0.5,1-1.2,1.7-2.2,2.3c-0.9,0.5-2.1,0.8-3.4,0.8C504.5,237.8,503.4,237.6,502.5,237z M508.3,234
			c0.6-0.7,0.9-1.6,0.9-2.8v-2.5c0-1.2-0.3-2.1-0.9-2.7c-0.6-0.6-1.4-1-2.4-1c-1,0-1.9,0.3-2.4,1c-0.6,0.6-0.9,1.6-0.9,2.7v2.5
			c0,1.2,0.3,2.1,0.9,2.8c0.6,0.7,1.4,1,2.4,1C506.9,235,507.7,234.6,508.3,234z"/>
		<path class="st3" d="M516.4,222.4h3v15.2h-3V222.4z M523.8,225.2c-0.4-0.2-0.9-0.2-1.4-0.2c-1,0-1.7,0.3-2.2,0.8
			c-0.5,0.5-0.8,1.3-0.8,2.2l-0.3-2.9c0.5-0.9,1.1-1.6,1.8-2.1s1.6-0.8,2.5-0.8c0.7,0,1.3,0.1,1.9,0.3c0.6,0.2,1.1,0.5,1.5,0.9
			l-2,2.6C524.5,225.6,524.2,225.4,523.8,225.2z"/>
		<path class="st3" d="M527.6,222.4h3.1l4.7,13.2l-1.7,3.2L527.6,222.4z M541.1,222.4l-6.5,18.8c-0.2,0.7-0.5,1.2-0.9,1.7
			c-0.4,0.4-0.9,0.7-1.4,0.9c-0.6,0.2-1.2,0.3-2.1,0.3h-0.6v-2.9h0.6c0.6,0,1-0.1,1.3-0.3s0.6-0.6,0.9-1.2l5.6-17.2H541.1z"/>
	</g>
</g>
<path class="st3" d="M301.9,220.2L301.9,220.2c0.8,0.8,0.8,2.1,0,2.9l-14,14c-0.8,0.8-2.1,0.8-2.9,0l0,0c-0.8-0.8-0.8-2.1,0-2.9
	l14-14C299.8,219.4,301.1,219.4,301.9,220.2z"/>
<path class="st3" d="M270.9,220.2L270.9,220.2c0.8-0.8,2.1-0.8,2.9,0l14,14c0.8,0.8,0.8,2.1,0,2.9l0,0c-0.8,0.8-2.1,0.8-2.9,0
	l-14-14C270.1,222.3,270.1,221,270.9,220.2z"/>
<circle class="st5" cx="417.6" cy="365.4" r="25.9"/>
<g>
	<g>
		<g>
			<path class="st4" d="M464.9,374.5c-1.2-0.7-2.1-1.7-2.7-2.9s-1-2.7-1-4.4v-6.1c0-1.7,0.3-3.1,1-4.4s1.5-2.2,2.7-2.9
				c1.2-0.7,2.5-1,4.1-1c1.3,0,2.4,0.3,3.5,0.8c1.1,0.5,2,1.3,2.7,2.3c0.7,1,1.2,2.2,1.5,3.5h-3.2c-0.2-0.7-0.5-1.3-1-1.9
				s-1-1-1.6-1.3c-0.6-0.3-1.2-0.4-1.9-0.4c-0.9,0-1.7,0.2-2.4,0.7c-0.7,0.4-1.2,1.1-1.6,1.8c-0.4,0.8-0.6,1.7-0.6,2.8v6.1
				c0,1,0.2,2,0.6,2.8c0.4,0.8,0.9,1.4,1.6,1.8c0.7,0.4,1.5,0.7,2.4,0.7c0.7,0,1.3-0.1,1.9-0.4c0.6-0.3,1.1-0.7,1.6-1.2
				c0.5-0.5,0.8-1.2,1-1.9h3.2c-0.3,1.3-0.7,2.5-1.5,3.5s-1.6,1.8-2.7,2.3c-1.1,0.5-2.2,0.8-3.5,0.8
				C467.4,375.5,466.1,375.2,464.9,374.5z"/>
			<path class="st4" d="M483.3,374.7c-1-0.5-1.7-1.3-2.2-2.4c-0.5-1-0.8-2.3-0.8-3.7V366c0-1.4,0.3-2.7,0.8-3.7
				c0.5-1,1.3-1.8,2.2-2.3c1-0.5,2.2-0.8,3.5-0.8c1.4,0,2.6,0.3,3.5,0.8c1,0.5,1.7,1.3,2.2,2.3c0.5,1,0.8,2.3,0.8,3.7v2.6
				c0,1.4-0.3,2.7-0.8,3.7c-0.5,1-1.3,1.8-2.2,2.3c-1,0.5-2.2,0.8-3.5,0.8C485.5,375.5,484.3,375.3,483.3,374.7z M489.4,371.5
				c0.6-0.7,0.9-1.6,0.9-2.9V366c0-1.2-0.3-2.2-0.9-2.9c-0.6-0.7-1.4-1-2.5-1s-1.9,0.3-2.5,1c-0.6,0.7-0.9,1.6-0.9,2.9v2.6
				c0,1.2,0.3,2.2,0.9,2.9s1.4,1,2.5,1S488.8,372.2,489.4,371.5z"/>
			<path class="st4" d="M501,371.2c0,0.4,0.1,0.7,0.3,0.9c0.2,0.2,0.4,0.3,0.7,0.3h1.5v3h-1.8c-1.2,0-2.1-0.4-2.7-1.1
				c-0.6-0.7-1-1.8-1-3.1v-18.1h3.1V371.2z"/>
			<path class="st4" d="M506.9,353.1h3.1v3.1h-3.1V353.1z M506.9,359.4h3.1v15.9h-3.1V359.4z"/>
			<path class="st4" d="M514.8,359.4h3.1v15.9h-3.1V359.4z M524.4,365.7c0-1.1-0.3-2-0.9-2.6c-0.6-0.6-1.4-0.9-2.4-0.9
				c-1,0-1.8,0.3-2.4,0.8c-0.6,0.5-0.8,1.3-0.8,2.3l-0.3-3.1c0.5-1,1.1-1.7,1.9-2.2c0.8-0.5,1.7-0.8,2.6-0.8c1.7,0,3.1,0.6,4,1.7
				c0.9,1.1,1.4,2.7,1.4,4.8v9.6h-3.1V365.7z"/>
		</g>
	</g>
</g>
<circle class="st7" cx="417.6" cy="435.3" r="25.9"/>
<g>
	<g>
		<g>
			<path class="st4" d="M477.7,422.9h2.9v22.3h-3v-16.7l0.2,1l-5.5,12.6h-2.2l-5.5-12.3l0.2-1.3v16.7h-3v-22.3h2.9l6.5,14.7
				L477.7,422.9z"/>
			<path class="st4" d="M485.8,422.9h3.1v3.1h-3.1V422.9z M485.8,429.3h3.1v15.9h-3.1V429.3z"/>
			<path class="st4" d="M496.4,444.6c-1-0.5-1.8-1.3-2.3-2.4c-0.5-1-0.8-2.3-0.8-3.7v-2.6c0-1.4,0.3-2.7,0.8-3.7
				c0.5-1,1.3-1.8,2.3-2.3c1-0.5,2.3-0.8,3.7-0.8c0.8,0,1.6,0.1,2.3,0.3c0.7,0.2,1.4,0.5,2,0.9c0.6,0.4,1.1,0.8,1.5,1.4l-2.2,2
				c-0.4-0.5-1-0.9-1.6-1.2s-1.2-0.4-1.9-0.4c-1.2,0-2.1,0.3-2.8,1c-0.7,0.7-1,1.6-1,2.8v2.6c0,1.3,0.3,2.2,1,2.9s1.6,1,2.8,1
				c0.7,0,1.3-0.1,1.9-0.4c0.6-0.3,1.1-0.7,1.6-1.3l2.2,2.2c-0.4,0.5-0.9,1-1.5,1.4c-0.6,0.4-1.2,0.7-2,0.8
				c-0.7,0.2-1.5,0.3-2.3,0.3C498.6,445.4,497.4,445.2,496.4,444.6z"/>
			<path class="st4" d="M509.3,422.9h3.1v22.3h-3.1V422.9z M518.9,435.6c0-1.1-0.3-2-0.9-2.6c-0.6-0.6-1.4-0.9-2.4-0.9
				c-1,0-1.8,0.3-2.4,0.8c-0.6,0.5-0.8,1.3-0.8,2.2l-0.3-3.1c0.5-0.9,1.1-1.7,1.9-2.2c0.8-0.5,1.7-0.8,2.6-0.8c1.7,0,3.1,0.6,4,1.7
				c0.9,1.1,1.4,2.7,1.4,4.8v9.6h-3.1V435.6z"/>
			<path class="st4" d="M526.8,422.9h3.1v3.1h-3.1V422.9z M526.8,429.3h3.1v15.9h-3.1V429.3z"/>
		</g>
	</g>
</g>
<g>
	<g>
		<path class="st3" d="M341.6,525.1c1.7,1.7,3.9,3,6.3,3.7c0.1,0.5,0.1,1.1,0.1,1.7c0,3.5-1.5,6.7-3.9,8.9c-1.1,1-2.8,0.2-2.8-1.2
			v-13.5C341.4,524.9,341.5,525,341.6,525.1z"/>
		<path class="st3" d="M343.4,518.8l-4.2-4.2h3.2c0-0.6,0.1-1.2,0.2-1.7c0.3-1.8,1.2-3.5,2.4-4.8c1.9-2,4.5-3.2,7.5-3
			c4.9,0.2,8.9,4.2,9.1,9.1c0.1,3-1.1,5.7-3.2,7.6c-1.3,1.2-3,2-4.9,2.4c-0.5,0.1-1,0.1-1.6,0.1c-2.7,0-5.1-1.1-6.8-2.8l1.5-1.5
			c1.3,1.4,3.2,2.2,5.3,2.2c0.2,0,0.5,0,0.7,0c1.9-0.2,3.6-1.1,4.8-2.4c1.3-1.4,2-3.3,2-5.3c-0.1-3.9-3.3-7-7.2-7.2
			c-2-0.1-3.9,0.6-5.2,1.9c-1.4,1.2-2.3,2.9-2.5,4.8c0,0.3,0,0.5,0,0.8h3.2l-0.7,0.7l-3.6,3.6L343.4,518.8z"/>
		<polygon class="st3" points="352.6,514.8 355.8,516.7 356.4,517 356.2,517.2 355.5,518.4 351,515.7 351,510.3 352.6,510.3 		"/>
		<path class="st3" d="M359.9,527.1c0.2,1.1,0.2,2.3,0.2,3.4c0,10.8-7,19.9-16.7,23.1c-1.1,0.4-2.2-0.5-2.2-1.6v-2.1
			c0-0.7,0.4-1.3,1.1-1.6c7.2-2.6,12.4-9.6,12.4-17.8c0-0.5,0-0.9-0.1-1.4C356.6,528.8,358.4,528.1,359.9,527.1z"/>
		<path class="st3" d="M359.9,527.1c-1.6,1-3.3,1.7-5.2,2.1c0,0.4,0.1,0.9,0.1,1.4c0,8.2-5.2,15.1-12.4,17.8
			c-0.7,0.2-1.1,0.9-1.1,1.6v2.1c0,1.1,1.1,2,2.2,1.6c9.7-3.2,16.7-12.3,16.7-23.1C360.2,529.3,360.1,528.2,359.9,527.1z
			 M353.6,524.1c1.9-0.3,3.5-1.1,4.9-2.4c-0.3-0.7-0.6-1.4-0.9-2.1c-1.2,1.3-2.9,2.2-4.8,2.4C353.1,522.7,353.4,523.4,353.6,524.1z
			 M356.2,517.2c-0.1-0.2-0.3-0.4-0.4-0.6l-3.2-1.9v-1.8c-0.5-0.5-1-1-1.6-1.4v4.1l4.5,2.7L356.2,517.2z M347.1,515.3l0.7-0.7h-1.7
			C346.4,514.8,346.8,515.1,347.1,515.3z M347.1,509c-0.7-0.4-1.4-0.7-2.1-1c-1.2,1.3-2.1,3-2.4,4.8c0.7,0.3,1.4,0.6,2,0.9
			C344.9,511.9,345.8,510.2,347.1,509z M347.9,528.8c-2.4-0.7-4.6-2-6.3-3.7c-0.1-0.1-0.2-0.3-0.4-0.4v13.5c0,1.5,1.7,2.2,2.8,1.2
			c2.4-2.2,3.9-5.4,3.9-8.9C348,529.9,348,529.4,347.9,528.8z M333,511.8l-10.1,10.1c-0.3,0.3-0.7,0.5-1.2,0.5h-8.4
			c-0.9,0-1.7,0.8-1.7,1.7v12.8c0,0.9,0.8,1.7,1.7,1.7h8.4c0.4,0,0.9,0.2,1.2,0.5l10.1,10.1c1.1,1.1,2.9,0.3,2.9-1.2V513
			C335.9,511.5,334.1,510.7,333,511.8z"/>
		<polygon class="st3" points="352.6,514.8 355.8,516.7 356.4,517 356.2,517.2 355.5,518.4 351,515.7 351,510.3 352.6,510.3 		"/>
		<path class="st3" d="M358.5,521.7c-1.3,1.2-3,2-4.9,2.4c-0.5,0.1-1,0.1-1.6,0.1c-2.7,0-5.1-1.1-6.8-2.8l1.5-1.5
			c1.3,1.4,3.2,2.2,5.3,2.2c0.2,0,0.5,0,0.7,0c1.9-0.2,3.6-1.1,4.8-2.4c1.3-1.4,2-3.3,2-5.3c-0.1-3.9-3.3-7-7.2-7.2
			c-2-0.1-3.9,0.6-5.2,1.9c-1.4,1.2-2.3,2.9-2.5,4.8c0,0.3,0,0.5,0,0.8h3.2l-0.7,0.7l-3.6,3.6l-0.1-0.2l-4.2-4.2h3.2
			c0-0.6,0.1-1.2,0.2-1.7c0.3-1.8,1.2-3.5,2.4-4.8c1.9-2,4.5-3.2,7.5-3c4.9,0.2,8.9,4.2,9.1,9.1
			C361.8,517.2,360.6,519.9,358.5,521.7z"/>
		<path class="st3" d="M341.3,524.7c0.1,0.1,0.2,0.3,0.4,0.4h-0.4V524.7z"/>
		<polygon class="st3" points="352.6,514.8 355.8,516.7 356.4,517 356.2,517.2 355.5,518.4 351,515.7 351,510.3 352.6,510.3 		"/>
		<path class="st3" d="M358.5,521.7c-1.3,1.2-3,2-4.9,2.4c-0.5,0.1-1,0.1-1.6,0.1c-2.7,0-5.1-1.1-6.8-2.8l1.5-1.5
			c1.3,1.4,3.2,2.2,5.3,2.2c0.2,0,0.5,0,0.7,0c1.9-0.2,3.6-1.1,4.8-2.4c1.3-1.4,2-3.3,2-5.3c-0.1-3.9-3.3-7-7.2-7.2
			c-2-0.1-3.9,0.6-5.2,1.9c-1.4,1.2-2.3,2.9-2.5,4.8c0,0.3,0,0.5,0,0.8h3.2l-0.7,0.7l-3.6,3.6l-0.1-0.2l-4.2-4.2h3.2
			c0-0.6,0.1-1.2,0.2-1.7c0.3-1.8,1.2-3.5,2.4-4.8c1.9-2,4.5-3.2,7.5-3c4.9,0.2,8.9,4.2,9.1,9.1
			C361.8,517.2,360.6,519.9,358.5,521.7z"/>
		<path class="st3" d="M355.8,516.7l-3.2-1.9v-4.4H351v5.3l4.5,2.7l0.7-1.1l0.2-0.3L355.8,516.7z M361.7,514.1
			c-0.2-4.9-4.2-8.9-9.1-9.1c-2.9-0.1-5.6,1.1-7.5,3c-1.2,1.3-2.1,3-2.4,4.8c-0.1,0.6-0.2,1.1-0.2,1.7h-3.2l4.2,4.2l0.1,0.2l3.6-3.6
			l0.7-0.7h-3.2c0-0.3,0-0.6,0-0.8c0.2-1.9,1.1-3.6,2.5-4.8c1.4-1.2,3.2-1.9,5.2-1.9c3.9,0.1,7,3.3,7.2,7.2c0.1,2.1-0.7,3.9-2,5.3
			c-1.2,1.3-2.9,2.2-4.8,2.4c-0.2,0-0.5,0-0.7,0c-2.1,0-3.9-0.8-5.3-2.2l-1.5,1.5c1.7,1.7,4.1,2.8,6.8,2.8c0.5,0,1.1,0,1.6-0.1
			c1.9-0.3,3.5-1.1,4.9-2.4C360.6,519.9,361.8,517.2,361.7,514.1z M355.8,516.7c0.1,0.2,0.3,0.4,0.4,0.6l0.2-0.3L355.8,516.7z
			 M352.6,510.3H351v1.2c0.6,0.4,1.1,0.9,1.6,1.4V510.3z"/>
	</g>
</g>
<g>
	<g>
		<g>
			<path class="st4" d="M412.6,529.4v3.5h-22.2v-3.5H412.6z M413.8,517.3v3.5h-22.2v-3.5H413.8z M398.4,509.9h3.4l-5.2,30.4h-3.4
				L398.4,509.9z M407.2,509.9h3.4l-5.2,30.4H402L407.2,509.9z"/>
			<path class="st4" d="M417.9,536.7l10.6-14.1c0.6-0.8,1.1-1.6,1.4-2.5c0.3-0.9,0.5-1.7,0.5-2.4v0c0-1.2-0.4-2.2-1.1-2.8
				c-0.7-0.7-1.7-1-3-1c-1.2,0-2.2,0.4-3,1.1c-0.8,0.7-1.2,1.8-1.4,3.1v0h-4.4v0c0.3-1.7,0.8-3.2,1.5-4.5c0.8-1.2,1.8-2.2,3-2.8
				c1.2-0.6,2.6-1,4.2-1c1.8,0,3.4,0.3,4.6,0.9c1.3,0.6,2.3,1.5,2.9,2.7c0.7,1.2,1,2.6,1,4.3v0c0,1.1-0.2,2.2-0.7,3.4
				c-0.4,1.2-1.1,2.3-1.9,3.4l-8.8,12h11.5v4.1h-17.2V536.7z"/>
			<path class="st4" d="M448.5,509.9h21.5v4.1h-21.5V509.9z M457.1,512.4h4.3v27.9h-4.3V512.4z"/>
			<path class="st4" d="M472.9,509.9h4.3v4.3h-4.3V509.9z M472.9,518.6h4.3v21.7h-4.3V518.6z"/>
			<path class="st4" d="M483.6,518.6h4.3v21.7h-4.3V518.6z M496.6,527.2c0-1.5-0.4-2.7-1.1-3.6s-1.8-1.3-3.2-1.3
				c-1.4,0-2.5,0.4-3.2,1.1c-0.8,0.7-1.1,1.8-1.1,3.1l-0.4-4.2c0.7-1.3,1.5-2.3,2.6-3c1.1-0.7,2.3-1.1,3.6-1.1c1.5,0,2.8,0.3,3.9,1
				c1.1,0.7,1.9,1.7,2.5,3c0.6,1.3,0.8,2.9,0.8,4.8v13.2h-4.3V527.2z M509.6,527.2c0-1.5-0.4-2.7-1.2-3.6s-1.9-1.3-3.3-1.3
				c-1.3,0-2.4,0.4-3.1,1.2c-0.7,0.8-1.1,2-1.1,3.4l-0.9-4.2c0.7-1.4,1.6-2.5,2.7-3.3c1.1-0.8,2.4-1.2,3.7-1.2c1.6,0,2.9,0.3,4,1
				c1.1,0.7,2,1.7,2.5,3s0.9,2.9,0.9,4.8v13.2h-4.3V527.2z"/>
			<path class="st4" d="M523.8,539.6c-1.3-0.7-2.4-1.8-3.1-3.2c-0.7-1.4-1.1-3.1-1.1-5.1v-3.5c0-2,0.4-3.7,1.1-5.1
				c0.7-1.4,1.7-2.5,3.1-3.2c1.3-0.7,2.9-1.1,4.8-1.1s3.5,0.4,4.8,1.1c1.3,0.7,2.4,1.8,3.1,3.2s1.1,3.1,1.1,5.1v3.6
				c0,2-0.4,3.7-1.1,5.1s-1.7,2.5-3.1,3.2s-3,1.1-4.8,1.1S525.1,540.3,523.8,539.6z M532.1,535.2c0.8-0.9,1.2-2.2,1.2-3.9v-3.6
				c0-1.7-0.4-3-1.2-3.9c-0.8-0.9-2-1.4-3.5-1.4s-2.6,0.5-3.5,1.4c-0.8,0.9-1.2,2.2-1.2,3.9v3.6c0,1.7,0.4,3,1.2,3.9
				c0.8,0.9,2,1.4,3.5,1.4S531.3,536.1,532.1,535.2z"/>
			<path class="st4" d="M542,509.9h4.3v10.7H542V509.9z"/>
			<path class="st4" d="M555.3,540.3c-1.1-0.3-2.2-0.6-3.1-1.1c-1-0.5-1.9-1.1-2.7-1.9l2.5-3.1c1.2,0.9,2.3,1.6,3.5,2
				c1.2,0.4,2.3,0.7,3.4,0.7c1.7,0,3-0.3,3.8-0.8c0.8-0.5,1.3-1.3,1.3-2.4c0-0.7-0.2-1.2-0.7-1.6c-0.5-0.3-1-0.6-1.7-0.7
				c-0.7-0.1-1.6-0.2-2.9-0.3c-0.1,0-0.2,0-0.4,0c-0.1,0-0.2,0-0.4,0c-0.1,0-0.1,0-0.2,0s-0.1,0-0.2,0c-1.4-0.1-2.6-0.3-3.6-0.6
				c-1-0.3-1.8-0.9-2.4-1.7c-0.6-0.8-1-2-1-3.5s0.3-2.8,0.9-3.8c0.6-1,1.6-1.8,2.8-2.3s2.8-0.8,4.7-0.8c1.1,0,2.2,0.1,3.2,0.3
				c1,0.2,2,0.5,2.9,0.9c0.9,0.4,1.8,0.9,2.7,1.6l-2.6,3.1c-1.1-0.7-2.2-1.2-3.2-1.6c-1.1-0.3-2.1-0.5-3.1-0.5
				c-1.5,0-2.5,0.2-3.3,0.7c-0.7,0.5-1.1,1.2-1.1,2.2c0,0.6,0.2,1,0.6,1.3s0.9,0.5,1.6,0.6c0.6,0.1,1.5,0.2,2.7,0.3
				c0.1,0,0.2,0,0.3,0s0.2,0,0.3,0c0,0,0.1,0,0.1,0s0.1,0,0.1,0c1.5,0.1,2.8,0.3,3.9,0.6c1.1,0.3,2,0.9,2.7,1.8
				c0.7,0.9,1.1,2.2,1.1,3.9c0,1.6-0.3,2.9-1,3.9c-0.7,1-1.7,1.8-3,2.3s-3,0.8-5.1,0.8C557.7,540.7,556.5,540.5,555.3,540.3z"/>
			<path class="st4" d="M588.7,539.6c-1.4-0.7-2.5-1.8-3.2-3.2c-0.7-1.4-1.1-3.1-1.1-5.1v-3.6c0-2,0.4-3.6,1.1-5
				c0.7-1.4,1.8-2.5,3.2-3.2c1.4-0.7,3.1-1.1,5.1-1.1c1.1,0,2.2,0.1,3.2,0.4c1,0.3,1.9,0.7,2.7,1.2c0.8,0.5,1.5,1.1,2,1.9l-3.1,2.8
				c-0.6-0.7-1.3-1.2-2.2-1.6c-0.8-0.4-1.7-0.6-2.6-0.6c-1.6,0-2.9,0.5-3.8,1.4c-0.9,0.9-1.4,2.2-1.4,3.9v3.6c0,1.7,0.4,3,1.3,4
				c0.9,0.9,2.2,1.4,3.8,1.4c0.9,0,1.8-0.2,2.6-0.6c0.8-0.4,1.5-1,2.1-1.7l3.1,3c-0.5,0.7-1.2,1.3-2,1.9c-0.8,0.5-1.7,0.9-2.7,1.2
				s-2.1,0.4-3.2,0.4C591.8,540.7,590.1,540.3,588.7,539.6z"/>
			<path class="st4" d="M606.3,509.9h4.3v30.4h-4.3V509.9z M619.5,527.2c0-1.5-0.4-2.7-1.2-3.6s-1.9-1.3-3.3-1.3
				c-1.4,0-2.5,0.4-3.2,1.1c-0.8,0.7-1.1,1.8-1.1,3.1l-0.4-4.2c0.7-1.3,1.5-2.3,2.6-3s2.3-1.1,3.6-1.1c2.4,0,4.2,0.8,5.5,2.3
				c1.3,1.5,1.9,3.7,1.9,6.5v13.2h-4.3V527.2z"/>
			<path class="st4" d="M631.2,539c-1.3-1.1-2-2.8-2-5.1c0-2.1,0.6-3.8,1.8-4.8c1.2-1.1,3-1.6,5.5-1.6h6.2l0.3,3.4h-6.4
				c-1.1,0-1.9,0.2-2.5,0.7s-0.8,1.3-0.8,2.3c0,1.1,0.4,1.9,1.1,2.4c0.7,0.5,1.8,0.8,3.3,0.8c1.6,0,2.8-0.2,3.7-0.5
				c0.8-0.3,1.2-0.9,1.2-1.6l0.4,3.1c-0.4,0.6-0.8,1.1-1.4,1.4c-0.6,0.4-1.2,0.7-1.9,0.8c-0.7,0.2-1.5,0.3-2.4,0.3
				C634.5,540.7,632.5,540.1,631.2,539z M642.5,526.6c0-1.4-0.4-2.5-1.1-3.3c-0.8-0.8-1.8-1.2-3.2-1.2c-0.9,0-1.7,0.1-2.5,0.4
				c-0.8,0.3-1.6,0.6-2.2,1.1l-3.1-2.1c0.8-1,1.9-1.8,3.3-2.3c1.3-0.6,2.8-0.8,4.5-0.8c1.8,0,3.3,0.3,4.6,1s2.3,1.6,2.9,2.8
				c0.7,1.2,1,2.7,1,4.4v14h-4.1V526.6z"/>
			<path class="st4" d="M653.1,518.6h4.3v21.7h-4.3V518.6z M666.2,527.2c0-1.5-0.4-2.7-1.2-3.6s-1.9-1.3-3.3-1.3
				c-1.4,0-2.5,0.4-3.2,1.1c-0.8,0.7-1.1,1.8-1.1,3.1l-0.4-4.2c0.7-1.3,1.5-2.3,2.6-3c1.1-0.7,2.3-1.1,3.6-1.1
				c2.4,0,4.2,0.8,5.5,2.3c1.3,1.5,1.9,3.7,1.9,6.5v13.2h-4.3V527.2z"/>
			<path class="st4" d="M677,518.6h4.3v21.7H677V518.6z M690.2,527.2c0-1.5-0.4-2.7-1.2-3.6s-1.9-1.3-3.3-1.3
				c-1.4,0-2.5,0.4-3.2,1.1c-0.8,0.7-1.1,1.8-1.1,3.1l-0.4-4.2c0.7-1.3,1.5-2.3,2.6-3c1.1-0.7,2.3-1.1,3.6-1.1
				c2.4,0,4.2,0.8,5.5,2.3c1.3,1.5,1.9,3.7,1.9,6.5v13.2h-4.3V527.2z"/>
			<path class="st4" d="M704.7,539.5c-1.4-0.8-2.5-1.9-3.3-3.3c-0.7-1.5-1.1-3.2-1.1-5.3v-2.4c0-2.1,0.4-4,1.1-5.5
				c0.7-1.5,1.8-2.7,3.1-3.5c1.4-0.8,3-1.2,4.9-1.2c1.8,0,3.4,0.5,4.6,1.4c1.3,0.9,2.3,2.2,2.9,3.9c0.7,1.7,1,3.8,1,6.2v1.4h-14.6
				v-3.4H714c-0.1-1.8-0.6-3.1-1.4-4.1s-1.8-1.5-3.2-1.5c-1.6,0-2.9,0.5-3.8,1.6s-1.3,2.6-1.3,4.5v2.8c0,1.8,0.5,3.2,1.4,4.1
				c0.9,1,2.3,1.4,4,1.4c0.9,0,1.7-0.2,2.6-0.5s1.6-0.8,2.3-1.5l2.8,2.8c-1.1,1-2.3,1.8-3.6,2.4c-1.3,0.6-2.7,0.8-4,0.8
				C707.8,540.7,706.1,540.3,704.7,539.5z"/>
			<path class="st4" d="M728.2,534.8c0,0.5,0.1,0.9,0.3,1.2c0.2,0.3,0.6,0.4,1,0.4h2v4.1H729c-1.6,0-2.9-0.5-3.8-1.5
				c-0.9-1-1.3-2.4-1.3-4.2v-24.8h4.3V534.8z"/>
		</g>
	</g>
</g>
<g>
	<g>
		<g>
			<path class="st4" d="M458.6,585.6h15.7v3h-15.7V585.6z M464.9,587.4h3.1v20.4h-3.1V587.4z"/>
			<path class="st4" d="M476.5,585.6h3.1v3.1h-3.1V585.6z M476.5,592h3.1v15.9h-3.1V592z"/>
			<path class="st4" d="M484.3,592h3.1v15.9h-3.1V592z M493.8,598.2c0-1.1-0.3-2-0.8-2.6s-1.3-0.9-2.3-0.9c-1,0-1.8,0.3-2.4,0.8
				c-0.6,0.5-0.8,1.3-0.8,2.3l-0.3-3.1c0.5-1,1.1-1.7,1.9-2.2c0.8-0.5,1.7-0.8,2.6-0.8c1.1,0,2.1,0.3,2.8,0.8
				c0.8,0.5,1.4,1.2,1.8,2.2c0.4,1,0.6,2.1,0.6,3.5v9.6h-3.1V598.2z M503.3,598.2c0-1.1-0.3-2-0.9-2.6c-0.6-0.6-1.4-0.9-2.4-0.9
				c-1,0-1.7,0.3-2.2,0.9c-0.5,0.6-0.8,1.4-0.8,2.5l-0.6-3.1c0.5-1.1,1.2-1.9,2-2.4s1.7-0.9,2.7-0.9c1.1,0,2.1,0.3,2.9,0.8
				c0.8,0.5,1.4,1.2,1.9,2.2c0.4,1,0.6,2.1,0.6,3.5v9.6h-3.1V598.2z"/>
			<path class="st4" d="M513.7,607.3c-1-0.5-1.7-1.3-2.2-2.4c-0.5-1-0.8-2.3-0.8-3.7v-2.6c0-1.4,0.3-2.7,0.8-3.7
				c0.5-1,1.3-1.8,2.2-2.3c1-0.5,2.2-0.8,3.5-0.8c1.4,0,2.6,0.3,3.5,0.8c1,0.5,1.7,1.3,2.2,2.3c0.5,1,0.8,2.3,0.8,3.7v2.6
				c0,1.4-0.3,2.7-0.8,3.7c-0.5,1-1.3,1.8-2.2,2.3c-1,0.5-2.2,0.8-3.5,0.8C515.9,608.1,514.7,607.8,513.7,607.3z M519.8,604.1
				c0.6-0.7,0.9-1.6,0.9-2.9v-2.6c0-1.2-0.3-2.2-0.9-2.9c-0.6-0.7-1.4-1-2.5-1s-1.9,0.3-2.5,1c-0.6,0.7-0.9,1.6-0.9,2.9v2.6
				c0,1.2,0.3,2.2,0.9,2.9s1.4,1,2.5,1S519.2,604.8,519.8,604.1z"/>
		</g>
	</g>
</g>
<circle class="st8" cx="417.6" cy="667.8" r="25.9"/>
<g>
	<g>
		<g>
			<path class="st4" d="M461.7,655.5h3.1v22.3h-3.1V655.5z M463.3,674.8H476v3h-12.7V674.8z"/>
			<path class="st4" d="M482.5,671.5c0,1.1,0.3,2,0.8,2.6c0.6,0.6,1.4,0.9,2.4,0.9c1,0,1.8-0.3,2.4-0.8c0.6-0.5,0.8-1.3,0.8-2.3
				l0.2,3.3c-0.3,0.8-0.9,1.4-1.6,2c-0.7,0.5-1.6,0.8-2.7,0.8c-1.8,0-3.1-0.6-4.1-1.7c-1-1.1-1.4-2.7-1.4-4.8v-9.7h3.1V671.5z
				 M488.9,661.8h3.1v15.9h-3.1V661.8z"/>
			<path class="st4" d="M499.5,677.2c-1-0.5-1.8-1.3-2.3-2.4c-0.5-1-0.8-2.3-0.8-3.7v-2.6c0-1.4,0.3-2.7,0.8-3.7
				c0.5-1,1.3-1.8,2.3-2.3c1-0.5,2.3-0.8,3.7-0.8c0.8,0,1.6,0.1,2.3,0.3s1.4,0.5,2,0.9c0.6,0.4,1.1,0.8,1.5,1.4l-2.2,2
				c-0.4-0.5-1-0.9-1.6-1.2s-1.2-0.4-1.9-0.4c-1.2,0-2.1,0.3-2.8,1c-0.7,0.7-1,1.6-1,2.8v2.6c0,1.3,0.3,2.2,1,2.9s1.6,1,2.8,1
				c0.7,0,1.3-0.1,1.9-0.4c0.6-0.3,1.1-0.7,1.6-1.3l2.2,2.2c-0.4,0.5-0.9,1-1.5,1.4c-0.6,0.4-1.2,0.7-2,0.8
				c-0.7,0.2-1.5,0.3-2.3,0.3C501.7,678,500.5,677.7,499.5,677.2z"/>
			<path class="st4" d="M513.1,676.7c-1-0.8-1.5-2-1.5-3.7c0-1.6,0.4-2.8,1.3-3.5c0.9-0.8,2.2-1.2,4-1.2h4.5l0.2,2.5H517
				c-0.8,0-1.4,0.2-1.8,0.5c-0.4,0.4-0.6,0.9-0.6,1.7c0,0.8,0.3,1.4,0.8,1.8c0.5,0.4,1.3,0.6,2.4,0.6c1.2,0,2.1-0.1,2.7-0.4
				c0.6-0.3,0.9-0.7,0.9-1.2l0.3,2.2c-0.3,0.4-0.6,0.8-1,1.1c-0.4,0.3-0.9,0.5-1.4,0.6c-0.5,0.1-1.1,0.2-1.8,0.2
				C515.5,678,514.1,677.6,513.1,676.7z M521.4,667.7c0-1-0.3-1.8-0.8-2.4c-0.6-0.6-1.3-0.9-2.4-0.9c-0.6,0-1.3,0.1-1.9,0.3
				c-0.6,0.2-1.1,0.5-1.6,0.8l-2.3-1.6c0.6-0.7,1.4-1.3,2.4-1.7c1-0.4,2.1-0.6,3.3-0.6c1.3,0,2.4,0.2,3.4,0.7c0.9,0.5,1.7,1.1,2.1,2
				c0.5,0.9,0.7,1.9,0.7,3.2v10.2h-3V667.7z"/>
		</g>
	</g>
</g>
<circle class="st6" cx="417.5" cy="737.7" r="25.9"/>
<g>
	<g>
		<g>
			<path class="st4" d="M461.6,725.4h3.1v22.3h-3.1V725.4z M463.2,725.4h12.5v3h-12.5V725.4z M463.2,735.3H474v3h-10.8V735.3z"/>
			<path class="st4" d="M478.9,725.4h3.1v3.1h-3.1V725.4z M478.9,731.7h3.1v15.9h-3.1V731.7z"/>
			<path class="st4" d="M486.7,731.7h3.1v15.9h-3.1V731.7z M496.4,738c0-1.1-0.3-2-0.9-2.6c-0.6-0.6-1.4-0.9-2.4-0.9
				c-1,0-1.8,0.3-2.4,0.8c-0.6,0.5-0.8,1.3-0.8,2.3l-0.3-3.1c0.5-1,1.1-1.7,1.9-2.2c0.8-0.5,1.7-0.8,2.6-0.8c1.7,0,3.1,0.6,4,1.7
				c0.9,1.1,1.4,2.7,1.4,4.8v9.6h-3.1V738z"/>
			<path class="st4" d="M504.2,731.7h3.1v15.9h-3.1V731.7z M513.9,738c0-1.1-0.3-2-0.9-2.6c-0.6-0.6-1.4-0.9-2.4-0.9
				c-1,0-1.8,0.3-2.4,0.8c-0.6,0.5-0.8,1.3-0.8,2.3l-0.3-3.1c0.5-1,1.1-1.7,1.9-2.2c0.8-0.5,1.7-0.8,2.6-0.8c1.7,0,3.1,0.6,4,1.7
				c0.9,1.1,1.4,2.7,1.4,4.8v9.6h-3.1V738z"/>
		</g>
	</g>
</g>
<circle class="st11" cx="417.6" cy="597.9" r="30.4"/>
<circle class="st9" cx="417.6" cy="597.9" r="25.9"/>
<path class="st3" d="M904,738.4h-2.5c0,1.1-0.2,2.1-0.6,3.1l1.8,1.8C903.5,741.8,904,740.2,904,738.4z M898,738.7c0-0.1,0-0.2,0-0.3
	v-9c0-2.5-2-4.5-4.5-4.5s-4.5,2-4.5,4.5v0.3L898,738.7z M882,726.4l-1.9,1.9l9,9v1.1c0,2.5,2,4.5,4.5,4.5c0.3,0,0.7,0,1-0.1l2.5,2.5
	c-1.1,0.5-2.2,0.8-3.5,0.8c-4.1,0-7.9-3.1-7.9-7.6h-2.5c0,5.1,4.1,9.3,9,10v4.9h3v-4.9c1.4-0.2,2.6-0.7,3.8-1.3l6.3,6.3l1.9-1.9
	L882,726.4z"/>
<path class="st12" d="M842.1,505.1h82.3c6,0,10.9,4.9,10.9,10.9v18.2c0,6-4.9,10.9-10.9,10.9h-82.3c-6,0-10.9-4.9-10.9-10.9V516
	C831.2,510,836.1,505.1,842.1,505.1z"/>
<path class="st12" d="M842.1,272.6h82.3c6,0,10.9,4.9,10.9,10.9v18.2c0,6-4.9,10.9-10.9,10.9h-82.3c-6,0-10.9-4.9-10.9-10.9v-18.2
	C831.2,277.4,836.1,272.6,842.1,272.6z"/>
</svg>
