<?xml version="1.0" encoding="utf-8"?>
<!-- Generator: Adobe Illustrator 25.0.0, SVG Export Plug-In . SVG Version: 6.00 Build 0)  -->
<svg version="1.1" id="Layer_1" xmlns="http://www.w3.org/2000/svg" xmlns:xlink="http://www.w3.org/1999/xlink" x="0px" y="0px"
	 viewBox="0 0 1203.4 1000.4" style="enable-background:new 0 0 1203.4 1000.4;" xml:space="preserve">
<style type="text/css">
	.st0{fill:#36393F;}
	.st1{fill:#2F3136;}
	.st2{fill:#292841;}
	.st3{fill:#B9BBBE;}
	.st4{fill:#FFFFFF;}
	.st5{fill:#ED4245;}
	.st6{fill:#F6F6F6;}
	.st7{fill:#5865F2;}
	.st8{fill:#57F287;}
	.st9{fill:#FEE75C;}
	.st10{fill:#EB459E;}
	.st11{fill:#4FDC7C;}
	.st12{opacity:0.24;fill:#B9BBBE;enable-background:new    ;}
	.st13{opacity:0.5;fill:#292841;}
	.st14{opacity:0.5;fill:#FFFFFF;}
	.st15{opacity:0.5;fill:#B9BBBE;}
	.st16{opacity:0.5;fill:#ED4245;}
	.st17{opacity:0.5;fill:#5865F2;}
	.st18{fill:#C2905B;}
	.st19{fill:#9FB35B;}
	.st20{fill:#A17548;}
	.st21{enable-background:new    ;}
	.st22{fill:#523C25;}
	.st23{fill:#725333;}
	.st24{fill:#8D663F;}
	.st25{fill:#606060;}
	.st26{fill:none;}
	.st27{opacity:0.43;}
	.st28{opacity:0.24;fill:url(#SVGID_1_);enable-background:new    ;}
</style>
<path class="st3" d="M572.5,188.2h13.1v6h-13.1V188.2z M576.9,213.3c-1.2-1.5-1.8-3.4-1.6-5.3v-27.6h7.1v25.8c0,0.5,0.1,1.1,0.4,1.5
	c0.3,0.4,0.7,0.6,1.1,0.5h1.8v6.8h-3.5C579.7,215.1,578,214.5,576.9,213.3L576.9,213.3z"/>
<path class="st3" d="M591.8,188.2h7.5V215h-7.6L591.8,188.2z M605.6,194.9c-0.6-0.2-1.1-0.3-1.7-0.3c-1.3-0.1-2.5,0.4-3.3,1.4
	c-0.8,1.1-1.2,2.5-1.2,3.8l-0.5-7c0.6-1.5,1.6-2.7,2.9-3.7c1.1-0.9,2.5-1.3,3.9-1.3c1,0,2.1,0.2,3,0.5c0.9,0.3,1.7,0.9,2.4,1.6
	l-4.1,5.7C606.5,195.3,606.1,195,605.6,194.9z"/>
<path class="st3" d="M621.4,204.5c-0.1,1.1,0.3,2.2,1.1,3c0.8,0.8,2,1.1,3.1,1.1c1.1,0.1,2.2-0.3,3.1-1c0.8-0.9,1.1-2,1.1-3.1
	l0.4,5.8c-0.5,1.4-1.3,2.7-2.5,3.7c-1.2,1-2.7,1.5-4.2,1.5c-2.5,0.1-5-0.9-6.6-2.8c-1.6-1.8-2.3-4.5-2.3-7.8v-16.5h7.1L621.4,204.5z
	 M629.7,188.2h7V215h-7V188.2z"/>
<path class="st3" d="M649.2,214.9c-1.5-0.3-2.9-0.7-4.3-1.2c-1.2-0.5-2.4-1.2-3.5-2l4.4-5.4c1.3,0.8,2.6,1.5,4,1.9
	c1.3,0.4,2.7,0.7,4,0.7c1.3,0.1,2.6-0.1,3.8-0.6c0.9-0.4,1.4-0.9,1.4-1.5c0-0.5-0.2-1-0.6-1.4c-0.5-0.3-1-0.6-1.5-0.7
	c-0.9-0.2-1.7-0.3-2.6-0.3l-0.9-0.1l-1-0.1h-0.2H652c-1.6-0.2-3.2-0.5-4.8-0.9c-1.2-0.4-2.3-1.2-3.1-2.2c-0.9-1.4-1.4-3-1.2-4.7
	c-0.1-3.3,1.9-6.4,5-7.5c1.9-0.7,3.9-1,5.9-1c1.4,0,2.7,0.1,4.1,0.4c1.3,0.3,2.6,0.7,3.9,1.2c1.2,0.5,2.3,1.1,3.4,1.9l-4.2,5.1
	c-1.1-0.6-2.4-1.2-3.6-1.5c-1.2-0.3-2.4-0.5-3.6-0.5c-1.1,0-2.3,0.1-3.3,0.5c-0.8,0.3-1.2,0.8-1.2,1.4c0,0.4,0.2,0.8,0.6,1
	c0.5,0.3,1,0.5,1.6,0.5c0.6,0.1,1.5,0.2,2.7,0.4l0.5,0l0.5,0.1c0.1,0,0.2,0,0.2,0c0.1,0,0.2,0,0.2,0c1.7,0.2,3.4,0.5,5.1,0.9
	c1.3,0.4,2.5,1.2,3.3,2.3c1,1.5,1.5,3.2,1.4,5c0.2,3.5-2,6.6-5.3,7.8c-2,0.7-4.1,1.1-6.2,1C652.3,215.4,650.8,215.2,649.2,214.9z"/>
<path class="st3" d="M668.9,188.2H682v6h-13.1V188.2z M673.3,213.3c-1.1-1.2-1.6-3-1.6-5.3v-27.6h7.1v25.8c0,0.5,0.1,1.1,0.4,1.5
	c0.3,0.4,0.7,0.6,1.1,0.5h1.7v6.8h-3.5C676.1,215.1,674.4,214.5,673.3,213.3L673.3,213.3z"/>
<path class="st3" d="M489.5,714.3c-0.1,1.1,0.3,2.2,1.1,3c0.8,0.8,2,1.1,3.1,1.1c1.1,0.1,2.2-0.3,3.1-1.1c0.8-0.9,1.1-2,1.1-3.1
	l0.4,5.9c-0.5,1.4-1.3,2.7-2.5,3.7c-1.2,1-2.7,1.5-4.2,1.5c-2.5,0.1-5-0.9-6.6-2.8c-1.6-1.8-2.3-4.5-2.3-7.8V698h7.1L489.5,714.3z
	 M497.8,698.1h7v26.7h-7V698.1z"/>
<path class="st3" d="M511.8,698h7.1v26.7h-7.1V698z M527.2,708.6c0.1-1.1-0.3-2.2-1.1-3c-0.9-0.8-2-1.2-3.2-1.1
	c-1.1-0.1-2.2,0.3-3,1.1c-0.8,0.8-1.1,2-1.1,3.1l-0.5-5.9c0.6-1.5,1.6-2.8,2.9-3.8c1.2-0.9,2.7-1.3,4.2-1.3c2.5-0.1,4.9,0.9,6.5,2.8
	c1.5,1.9,2.3,4.6,2.3,8v16.3h-7.1V708.6z"/>
<path class="st3" d="M539.2,698h13.1v6h-13.1V698z M543.6,723.1c-1.1-1.2-1.6-3-1.6-5.3v-27.6h7.1v25.8c0,0.5,0.1,1.1,0.4,1.5
	c0.3,0.4,0.7,0.6,1.1,0.5h1.8v6.8h-3.6C546.4,724.9,544.7,724.3,543.6,723.1z"/>
<path class="st3" d="M558.5,698h7.6v26.7h-7.6V698z M572.2,704.7c-0.6-0.2-1.1-0.3-1.7-0.3c-1.3-0.1-2.5,0.4-3.3,1.4
	c-0.8,1.1-1.2,2.5-1.2,3.8l-0.5-7c0.6-1.5,1.6-2.7,2.9-3.7c1.1-0.9,2.5-1.3,3.9-1.3c1,0,2.1,0.2,3,0.5c0.9,0.3,1.7,0.9,2.4,1.6
	l-4.1,5.7C573.2,705.1,572.7,704.9,572.2,704.7L572.2,704.7z"/>
<path class="st3" d="M588,714.3c-0.1,1.1,0.3,2.2,1.1,3c0.8,0.8,2,1.1,3.1,1.1c1.1,0.1,2.2-0.3,3.1-1.1c0.8-0.9,1.1-2,1.1-3.1
	l0.4,5.9c-0.5,1.4-1.3,2.7-2.5,3.7c-1.2,1-2.7,1.5-4.2,1.5c-2.5,0.1-5-0.9-6.6-2.8c-1.6-1.8-2.3-4.5-2.3-7.8v-16.5h7.1L588,714.3z
	 M596.3,698.1h7v26.7h-7L596.3,698.1z"/>
<path class="st3" d="M615.9,724.7c-1.5-0.3-2.9-0.7-4.3-1.2c-1.2-0.5-2.4-1.2-3.5-2l4.4-5.4c1.3,0.8,2.6,1.5,4,1.9
	c1.3,0.4,2.7,0.7,4,0.7c1.3,0.1,2.6-0.1,3.8-0.6c0.9-0.4,1.4-0.9,1.4-1.5c0-0.5-0.2-1-0.6-1.4c-0.4-0.3-1-0.6-1.5-0.7
	c-0.9-0.2-1.7-0.3-2.6-0.4l-0.9-0.1l-1-0.1h-0.2h-0.2c-1.6-0.2-3.2-0.5-4.8-1c-1.2-0.4-2.3-1.2-3.1-2.2c-0.9-1.4-1.4-3-1.2-4.7
	c-0.2-3.3,1.9-6.4,5-7.5c1.9-0.7,3.9-1,5.9-1c1.4,0,2.7,0.1,4.1,0.4c1.3,0.3,2.6,0.7,3.9,1.2c1.2,0.5,2.3,1.1,3.4,1.9l-4.2,5.1
	c-1.2-0.7-2.4-1.2-3.7-1.5c-1.2-0.3-2.4-0.5-3.6-0.5c-1.1,0-2.3,0.1-3.3,0.5c-0.8,0.3-1.2,0.8-1.2,1.4c0,0.4,0.2,0.8,0.6,1
	c0.5,0.3,1,0.5,1.6,0.5c0.6,0.1,1.5,0.2,2.7,0.4h0.5l0.5,0.1c0.1,0,0.2,0,0.2,0c0.1,0,0.2,0,0.2,0c1.7,0.2,3.4,0.5,5.1,0.9
	c1.3,0.4,2.5,1.2,3.3,2.3c1,1.5,1.5,3.2,1.4,5c0.2,3.5-2,6.6-5.3,7.8c-2,0.7-4.1,1.1-6.2,1C619,725.1,617.4,725,615.9,724.7z"/>
<path class="st3" d="M635.6,698h13.1v6h-13.1V698z M640,723.1c-1.2-1.5-1.8-3.4-1.6-5.3v-27.6h7.1v25.8c0,0.5,0.1,1.1,0.4,1.5
	c0.3,0.4,0.7,0.6,1.1,0.5h1.8v6.8h-3.5C642.8,724.9,641.1,724.3,640,723.1z"/>
<path class="st3" d="M34.5,364.3c-0.1,1.1,0.3,2.2,1.1,3c0.8,0.8,2,1.1,3.1,1.1c1.1,0.1,2.2-0.3,3.1-1.1c0.8-0.9,1.1-2,1.1-3.1
	l0.4,5.8c-0.5,1.4-1.3,2.7-2.5,3.7c-1.2,1-2.7,1.5-4.2,1.5c-2.5,0.1-5-0.9-6.6-2.8c-1.6-1.8-2.3-4.5-2.3-7.8V348h7.1V364.3z
	 M42.8,348h7v26.7h-7V348z"/>
<path class="st3" d="M56.8,348h7.1v26.7h-7.1V348z M72.2,358.5c0.1-1.1-0.3-2.2-1.1-3c-0.9-0.8-2-1.2-3.2-1.1
	c-1.1-0.1-2.2,0.3-3,1.1c-0.8,0.8-1.1,2-1.1,3.1l-0.5-5.9c0.7-1.5,1.6-2.8,2.9-3.8c1.2-0.9,2.7-1.3,4.2-1.3c2.5-0.1,4.9,0.9,6.5,2.8
	c1.5,1.9,2.3,4.6,2.3,8.1v16.3h-7.1V358.5z"/>
<path class="st3" d="M86.2,337.3h7.1v37.4h-7.1V337.3z M95.4,373.9c-1.2-0.8-2-2-2.5-3.4l0.4-6.1c0,0.8,0.1,1.5,0.5,2.2
	c0.3,0.6,0.8,1.1,1.4,1.4c0.7,0.3,1.4,0.5,2.1,0.5c1.2,0.1,2.3-0.4,3.1-1.3c0.8-1.1,1.2-2.4,1.1-3.7v-4.3c0.1-1.4-0.3-2.7-1.1-3.8
	c-0.8-0.9-1.9-1.4-3.1-1.4c-0.7,0-1.5,0.2-2.1,0.5c-0.6,0.3-1.1,0.8-1.4,1.5c-0.3,0.7-0.5,1.5-0.5,2.3l-0.5-5.9
	c0.6-1.4,1.6-2.7,2.8-3.6c1.1-0.8,2.5-1.3,3.9-1.3c3.5-0.2,6.8,2,7.9,5.4c0.8,2,1.1,4.2,1.1,6.3v4.3c0.1,2.1-0.3,4.2-1.1,6.2
	c-1.2,3.3-4.4,5.5-7.9,5.3C98,375.2,96.6,374.7,95.4,373.9L95.4,373.9z"/>
<path class="st3" d="M122,365.9c0,0.6,0.2,1.1,0.6,1.5c0.4,0.4,1,0.6,1.6,0.5h1.2v6.8h-3.6c-1.9,0.1-3.7-0.6-5-1.9
	c-1.3-1.4-1.9-3.3-1.8-5.2v-30.4h7.1L122,365.9z"/>
<path class="st3" d="M134.7,373.8c-1.7-0.9-3.1-2.3-3.9-4c-0.9-2-1.4-4.1-1.3-6.3v-4.4c-0.1-2.2,0.4-4.3,1.3-6.2
	c0.9-1.7,2.3-3.1,3.9-3.9c4-1.8,8.5-1.8,12.5,0c1.7,0.9,3.1,2.2,3.9,3.9c0.9,1.9,1.4,4.1,1.4,6.2v4.4c0.1,2.2-0.4,4.3-1.4,6.2
	c-0.9,1.7-2.2,3.1-3.9,4C143.2,375.6,138.7,375.6,134.7,373.8L134.7,373.8z M144.2,367.1c0.8-1,1.3-2.2,1.2-3.5v-4.4
	c0.1-1.3-0.3-2.5-1.2-3.5c-0.9-0.9-2.1-1.3-3.3-1.2c-1.2-0.1-2.4,0.4-3.3,1.2c-0.8,1-1.3,2.2-1.2,3.5v4.4c-0.1,1.3,0.3,2.5,1.2,3.5
	c0.9,0.9,2.1,1.3,3.3,1.2C142.2,368.4,143.4,367.9,144.2,367.1L144.2,367.1z"/>
<path class="st3" d="M163.7,373.7c-1.8-0.9-3.2-2.4-4.1-4.2c-1-2.1-1.5-4.4-1.4-6.7v-2.9c-0.1-2.3,0.4-4.6,1.4-6.6
	c0.9-1.8,2.4-3.3,4.1-4.2c2-1,4.3-1.5,6.5-1.4c1.4,0,2.8,0.2,4.1,0.5c1.2,0.3,2.4,0.8,3.5,1.5c1,0.6,1.9,1.4,2.6,2.3l-4.6,4.4
	c-0.7-0.6-1.4-1.1-2.3-1.4c-0.9-0.3-1.8-0.5-2.7-0.5c-1.5-0.1-3,0.4-4.1,1.4c-1,1.1-1.6,2.5-1.5,4v2.9c-0.1,1.5,0.4,3,1.5,4.1
	c1.1,1,2.6,1.6,4.1,1.5c1,0,1.9-0.2,2.8-0.5c0.9-0.3,1.6-0.9,2.3-1.5l4.6,4.7c-0.7,0.9-1.6,1.7-2.6,2.3c-1.1,0.6-2.3,1.1-3.5,1.4
	c-1.3,0.3-2.7,0.5-4.1,0.5C168,375.2,165.7,374.7,163.7,373.7z"/>
<path class="st3" d="M185.2,337.3h7.1v37.4h-7.1V337.3z M188.5,365.1l12.5-17.2h7.5l-19,24.9L188.5,365.1z M194.8,360.9l5.8-3.5
	l9.1,17.3h-8.1L194.8,360.9z"/>
<path class="st3" d="M721.7,737.7h7.1v37.4h-7.1V737.7z M730.9,774.4c-1.2-0.8-2-2-2.5-3.4l0.4-6.1c0,0.8,0.1,1.5,0.5,2.2
	c0.3,0.6,0.8,1.1,1.4,1.4c0.7,0.3,1.4,0.5,2.1,0.5c1.2,0.1,2.3-0.4,3.1-1.3c0.8-1.1,1.2-2.4,1.1-3.7v-4.2c0.1-1.4-0.3-2.7-1.1-3.8
	c-0.8-0.9-1.9-1.4-3.1-1.3c-0.7,0-1.5,0.1-2.1,0.5c-0.6,0.3-1.1,0.8-1.4,1.5c-0.3,0.7-0.5,1.5-0.5,2.3l-0.5-5.9
	c0.6-1.4,1.6-2.7,2.8-3.6c1.1-0.8,2.5-1.3,3.9-1.3c3.5-0.2,6.8,2,7.9,5.4c0.8,2,1.1,4.2,1.1,6.3v4.3c0.1,2.1-0.3,4.3-1.1,6.2
	c-1.2,3.3-4.4,5.5-7.9,5.3C733.5,775.6,732.1,775.2,730.9,774.4L730.9,774.4z"/>
<path class="st3" d="M757.5,766.3c0,0.6,0.2,1.1,0.6,1.5c0.4,0.4,1,0.6,1.6,0.5h1.2v6.8h-3.6c-1.8,0.1-3.7-0.5-5-1.8
	c-1.3-1.4-1.9-3.3-1.8-5.2v-30.4h7.1L757.5,766.3z"/>
<path class="st3" d="M770.2,774.2c-1.7-0.9-3.1-2.3-3.9-4c-1-2-1.4-4.1-1.4-6.3v-4.4c-0.1-2.2,0.4-4.3,1.4-6.2
	c0.9-1.7,2.3-3.1,3.9-3.9c4-1.8,8.5-1.8,12.5,0c1.7,0.9,3.1,2.2,3.9,3.9c0.9,1.9,1.4,4.1,1.4,6.2v4.4c0.1,2.2-0.4,4.3-1.4,6.2
	c-0.9,1.7-2.3,3.1-3.9,4C778.7,776,774.2,776,770.2,774.2L770.2,774.2z M779.7,767.5c0.8-1,1.3-2.2,1.2-3.5v-4.4
	c0.1-1.3-0.3-2.5-1.2-3.5c-0.9-0.9-2.1-1.3-3.3-1.2c-1.2-0.1-2.4,0.4-3.3,1.2c-0.8,1-1.3,2.2-1.2,3.5v4.4c-0.1,1.3,0.3,2.5,1.2,3.5
	c0.9,0.9,2.1,1.3,3.3,1.3C777.7,768.8,778.9,768.4,779.7,767.5L779.7,767.5z"/>
<path class="st3" d="M799.2,774.1c-1.8-0.9-3.2-2.4-4.1-4.2c-1-2.1-1.5-4.4-1.4-6.7v-2.9c-0.1-2.3,0.4-4.6,1.4-6.6
	c0.9-1.8,2.4-3.3,4.1-4.2c2-1,4.3-1.5,6.5-1.4c1.4,0,2.8,0.2,4.1,0.5c1.2,0.3,2.4,0.8,3.5,1.5c1,0.6,1.9,1.4,2.6,2.3l-4.5,4.4
	c-0.7-0.6-1.4-1.1-2.3-1.4c-0.9-0.3-1.8-0.5-2.8-0.5c-1.5-0.1-3,0.4-4.1,1.4c-1,1.1-1.6,2.5-1.5,4v2.9c-0.1,1.5,0.4,3,1.5,4.1
	c1.1,1,2.6,1.6,4.1,1.5c1,0,1.9-0.2,2.8-0.5c0.9-0.3,1.6-0.9,2.3-1.5l4.5,4.7c-0.7,0.9-1.6,1.7-2.6,2.3c-1.1,0.6-2.3,1.1-3.5,1.4
	c-1.3,0.3-2.7,0.5-4.1,0.5C803.5,775.6,801.2,775.1,799.2,774.1z"/>
<path class="st3" d="M820.7,737.7h7.1v37.4h-7.1V737.7z M824,765.5l12.5-17.1h7.5l-19,24.9L824,765.5z M830.3,761.4l5.8-3.5
	l9.1,17.3h-8.1L830.3,761.4z"/>
<path class="st3" d="M194.8,242.5c-0.1,1.1,0.3,2.2,1.1,3c0.8,0.8,1.9,1.1,3.1,1.1c1.1,0.1,2.2-0.3,3.1-1.1c0.8-0.9,1.1-2,1.1-3.1
	l0.4,5.8c-0.5,1.4-1.3,2.7-2.5,3.7c-1.2,1-2.7,1.5-4.2,1.5c-2.5,0.1-5-0.9-6.6-2.8c-1.6-1.8-2.3-4.5-2.3-7.8v-16.5h7.1V242.5z
	 M203.1,226.3h7V253h-7V226.3z"/>
<path class="st3" d="M222.6,253c-1.5-0.3-2.9-0.7-4.3-1.3c-1.2-0.5-2.4-1.2-3.5-2l4.4-5.4c1.3,0.8,2.6,1.4,4,1.9
	c1.3,0.4,2.7,0.7,4,0.7c1.3,0.1,2.6-0.1,3.8-0.6c0.9-0.4,1.4-0.9,1.4-1.5c0-0.5-0.2-1-0.6-1.4c-0.4-0.3-1-0.6-1.5-0.7
	c-0.6-0.1-1.5-0.2-2.6-0.4l-0.9-0.1l-1-0.1h-0.2h-0.2c-1.6-0.2-3.2-0.5-4.8-1c-1.2-0.4-2.3-1.1-3.1-2.2c-0.9-1.4-1.4-3-1.2-4.7
	c-0.2-3.3,1.9-6.4,5-7.5c1.9-0.7,3.9-1,5.9-1c1.4,0,2.7,0.1,4.1,0.4c1.3,0.3,2.6,0.7,3.9,1.2c1.2,0.5,2.3,1.1,3.4,1.9l-4.2,5.1
	c-1.2-0.6-2.4-1.2-3.7-1.5c-1.2-0.3-2.4-0.5-3.7-0.5c-1.1,0-2.3,0.1-3.3,0.5c-0.8,0.3-1.2,0.8-1.2,1.4c0,0.4,0.2,0.8,0.6,1
	c0.5,0.3,1,0.5,1.6,0.5c0.6,0.1,1.5,0.2,2.7,0.4l0.5,0.1l0.5,0c0.1,0,0.2,0,0.2,0c0.1,0,0.2,0,0.2,0c1.7,0.2,3.4,0.5,5.1,0.9
	c1.3,0.4,2.5,1.2,3.3,2.3c1,1.5,1.5,3.2,1.4,5c0.2,3.5-2,6.6-5.3,7.8c-2,0.7-4.1,1.1-6.2,1C225.7,253.4,224.1,253.3,222.6,253z"/>
<path class="st3" d="M249.3,252c-1.8-0.9-3.3-2.3-4.2-4.1c-1-2-1.5-4.2-1.4-6.5v-3c-0.1-2.3,0.4-4.6,1.4-6.8c0.9-1.8,2.3-3.3,4-4.3
	c2-1,4.2-1.5,6.4-1.5c2.1-0.1,4.2,0.6,6,1.8c1.7,1.3,3.1,3,3.8,5.1c0.9,2.6,1.4,5.3,1.3,8.1v1.8h-18.3v-4.7h11.9l-0.1-0.6
	c-0.1-1.3-0.6-2.6-1.5-3.6c-0.8-0.9-2-1.3-3.1-1.3c-1.5-0.1-2.9,0.5-3.9,1.5c-1,1.2-1.5,2.7-1.4,4.3v3.5c-0.1,1.6,0.5,3.1,1.5,4.2
	c1.2,1,2.7,1.6,4.3,1.5c1,0,1.9-0.2,2.8-0.5c0.9-0.3,1.8-0.8,2.5-1.4l4.6,4.1c-1.4,1.3-3,2.3-4.7,2.9c-1.7,0.7-3.5,1-5.3,1
	C253.6,253.5,251.3,253,249.3,252z"/>
<path class="st3" d="M272.7,226.3h7.6V253h-7.6V226.3z M286.5,233c-0.6-0.2-1.1-0.3-1.7-0.3c-1.3-0.1-2.5,0.4-3.3,1.4
	c-0.8,1.1-1.3,2.4-1.2,3.8l-0.5-7c0.6-1.5,1.6-2.7,2.9-3.7c1.1-0.9,2.5-1.3,3.9-1.3c1,0,2.1,0.2,3,0.5c0.9,0.3,1.7,0.9,2.4,1.6
	l-4.1,5.7C287.4,233.4,286.9,233.1,286.5,233z"/>
<path class="st3" d="M300.7,253c-1.5-0.3-2.9-0.7-4.2-1.3c-1.2-0.5-2.4-1.2-3.5-2l4.4-5.4c1.3,0.8,2.6,1.4,4,1.9
	c1.3,0.4,2.7,0.7,4,0.7c1.3,0.1,2.6-0.1,3.8-0.6c0.9-0.4,1.4-0.9,1.4-1.5c0-0.5-0.2-1-0.6-1.4c-0.4-0.3-1-0.6-1.5-0.7
	c-0.6-0.1-1.5-0.2-2.6-0.4l-0.9-0.1l-1-0.1h-0.2h-0.2c-1.6-0.2-3.2-0.5-4.8-1c-1.2-0.4-2.3-1.1-3.1-2.2c-0.9-1.4-1.4-3-1.3-4.7
	c-0.1-3.3,1.9-6.4,5-7.5c1.9-0.7,3.9-1,5.9-1c1.4,0,2.7,0.1,4.1,0.4c1.3,0.3,2.6,0.7,3.9,1.2c1.2,0.5,2.4,1.1,3.4,1.9l-4.2,5.1
	c-1.1-0.6-2.4-1.1-3.6-1.5c-1.2-0.3-2.4-0.5-3.6-0.5c-1.1,0-2.3,0.1-3.3,0.5c-0.8,0.3-1.2,0.8-1.2,1.4c0,0.4,0.2,0.8,0.6,1
	c0.5,0.3,1,0.4,1.6,0.5c0.6,0.1,1.5,0.2,2.7,0.4l0.5,0.1l0.5,0c0.1,0,0.2,0,0.2,0c0.1,0,0.2,0,0.2,0c1.7,0.2,3.4,0.5,5.1,0.9
	c1.3,0.4,2.5,1.2,3.3,2.3c1,1.5,1.5,3.2,1.4,5c0.2,3.5-2,6.6-5.3,7.8c-2,0.7-4.1,1.1-6.2,1C303.9,253.4,302.3,253.3,300.7,253z"/>
<path class="st3" d="M886.7,665.4h7.1v37.4h-7.1V665.4z M895.9,702c-1.2-0.8-2-2-2.5-3.4l0.4-6.1c0,0.8,0.1,1.5,0.5,2.2
	c0.3,0.6,0.8,1.1,1.4,1.4c0.7,0.3,1.4,0.5,2.1,0.5c1.2,0.1,2.3-0.4,3.1-1.3c0.8-1.1,1.2-2.4,1.1-3.7v-4.3c0.1-1.4-0.3-2.7-1.1-3.8
	c-0.8-0.9-1.9-1.4-3.1-1.4c-0.7,0-1.5,0.2-2.1,0.5c-0.6,0.3-1.1,0.8-1.4,1.5c-0.3,0.7-0.5,1.5-0.5,2.3l-0.5-5.9
	c0.6-1.4,1.6-2.7,2.8-3.6c1.1-0.8,2.5-1.3,3.9-1.3c3.5-0.2,6.8,2,7.9,5.4c0.8,2,1.1,4.2,1.1,6.3v4.3c0.1,2.1-0.3,4.2-1.1,6.2
	c-1.2,3.3-4.4,5.5-7.9,5.3C898.5,703.2,897.1,702.8,895.9,702L895.9,702z"/>
<path class="st3" d="M915,665.4h7.1v7.1H915V665.4z M915,676.1h7.1v26.7H915V676.1z"/>
<path class="st3" d="M926.5,676.1h13.1v6h-13.1V676.1z M930.9,701.2c-1.1-1.2-1.6-3-1.6-5.3v-27.6h7.1v25.8c0,0.5,0.1,1.1,0.4,1.5
	c0.3,0.4,0.7,0.6,1.1,0.5h1.8v6.8h-3.5C933.7,702.9,932,702.4,930.9,701.2z"/>
<path class="st3" d="M945.8,676.1h7.6v26.7h-7.6V676.1z M959.6,682.8c-0.6-0.2-1.1-0.3-1.7-0.3c-1.3-0.1-2.5,0.4-3.3,1.4
	c-0.8,1.1-1.3,2.5-1.2,3.8l-0.5-7c0.6-1.5,1.6-2.7,2.9-3.7c1.1-0.9,2.5-1.3,3.9-1.3c1,0,2.1,0.2,3,0.5c0.9,0.3,1.7,0.9,2.4,1.6
	l-4.1,5.7C960.5,683.2,960.1,682.9,959.6,682.8z"/>
<path class="st3" d="M969.2,701.2c-1.4-1.4-2.1-3.4-2.1-6.2c0-2.6,0.8-4.6,2.4-5.9s4-2,7.1-2h6.7l0.4,5.4h-7
	c-0.8-0.1-1.7,0.2-2.4,0.6c-0.6,0.5-0.8,1.2-0.8,1.9c-0.1,0.8,0.3,1.5,1,1.9c0.9,0.5,2,0.7,3,0.6c1.4,0.1,2.9-0.1,4.2-0.6
	c0.8-0.3,1.4-1.1,1.4-2l0.5,3.9c-0.1,1-0.6,1.8-1.3,2.4c-0.9,0.7-1.9,1.2-2.9,1.5c-1.2,0.3-2.5,0.5-3.7,0.5
	C972.7,703.2,970.6,702.5,969.2,701.2z M983.1,685.9c0.1-1.1-0.4-2.1-1.2-2.8c-1-0.7-2.3-1.1-3.5-1c-1,0-2,0.2-3,0.5
	c-0.9,0.3-1.8,0.8-2.6,1.4l-4.4-4.3c1.2-1.3,2.6-2.3,4.2-2.9c1.9-0.7,3.8-1,5.8-1c2.1-0.1,4.1,0.3,6,1.2c1.6,0.7,2.9,1.9,3.8,3.4
	c0.9,1.6,1.4,3.5,1.3,5.4v17.2h-6.4V685.9z"/>
<path class="st3" d="M994.3,676.1h13.1v6h-13.1V676.1z M998.7,701.2c-1.1-1.2-1.6-3-1.6-5.3v-27.6h7.1v25.8c0,0.5,0.1,1.1,0.4,1.5
	c0.3,0.4,0.7,0.6,1.1,0.5h1.8v6.8h-3.6C1001.5,702.9,999.8,702.4,998.7,701.2z"/>
<path class="st3" d="M1018.5,701.8c-1.8-0.9-3.3-2.3-4.2-4.1c-1-2-1.5-4.2-1.4-6.5v-3c-0.1-2.3,0.4-4.6,1.4-6.8
	c0.9-1.8,2.3-3.3,4-4.3c2-1,4.2-1.5,6.4-1.5c2.1-0.1,4.2,0.6,6,1.8c1.7,1.3,3.1,3,3.8,5.1c0.9,2.6,1.4,5.3,1.3,8.1v1.8h-18.3v-4.8
	h11.8l-0.1-0.6c-0.1-1.3-0.6-2.6-1.5-3.6c-0.8-0.9-2-1.3-3.1-1.3c-1.5-0.1-2.9,0.5-4,1.5c-1,1.2-1.5,2.7-1.4,4.3v3.4
	c-0.1,1.6,0.5,3.1,1.5,4.2c1.2,1.1,2.7,1.6,4.3,1.5c1,0,1.9-0.2,2.8-0.5c0.9-0.3,1.8-0.8,2.5-1.4l4.6,4.1c-1.4,1.3-3,2.3-4.7,3
	c-1.7,0.7-3.5,1-5.3,1C1022.8,703.2,1020.5,702.8,1018.5,701.8z"/>
<path class="st3" d="M184.7,541.9c0,0.6,0.2,1.1,0.6,1.5c0.4,0.4,1,0.6,1.6,0.5h1.2v6.8h-3.6c-1.9,0.1-3.7-0.6-5-1.9
	c-1.3-1.4-1.9-3.3-1.8-5.2v-30.4h7.1L184.7,541.9z"/>
<path class="st3" d="M192.5,513.2h7.1v7.1h-7.1V513.2z M192.5,524h7.1v26.7h-7.1V524z"/>
<path class="st3" d="M206.2,524h7.1v26.7h-7.1V524z M221.7,535.3c0.1-1.3-0.3-2.6-1.2-3.6c-0.9-0.9-2.1-1.3-3.3-1.3
	c-1.1-0.1-2.2,0.3-3,1.1c-0.8,0.8-1.1,2-1.1,3.1l-0.6-5.9c0.7-1.5,1.7-2.8,3-3.8c1.2-0.9,2.7-1.3,4.2-1.3c3.5-0.2,6.8,2,7.9,5.4
	c0.8,2,1.1,4.2,1.1,6.3v15.5h-7.1L221.7,535.3z M237.3,535.3c0.1-1.3-0.3-2.6-1.1-3.6c-1.8-1.7-4.5-1.7-6.3-0.1
	c-0.8,1-1.2,2.2-1.1,3.5l-1.3-6.2c0.7-1.6,1.9-2.9,3.3-3.9c1.3-0.9,2.9-1.4,4.5-1.4c1.7,0,3.5,0.4,4.9,1.4c1.4,1,2.5,2.4,3.1,4
	c0.8,2,1.1,4.2,1.1,6.3v15.5h-7.1L237.3,535.3z"/>
<path class="st3" d="M250.9,513.2h7.1v7.1h-7.1V513.2z M250.9,524h7.1v26.7h-7.1V524z"/>
<path class="st3" d="M262.5,524h13.1v6h-13.1V524z M266.9,549c-1.2-1.5-1.8-3.4-1.6-5.3v-27.6h7.1V542c0,0.5,0.1,1.1,0.4,1.5
	c0.3,0.4,0.7,0.6,1.1,0.5h1.8v6.8H272C269.7,550.8,268,550.2,266.9,549z"/>
<path class="st3" d="M1049.1,572.6h7.1v26.7h-7.1V572.6z M1064.5,583.2c0.1-1.1-0.3-2.2-1.1-3c-0.9-0.8-2-1.2-3.2-1.1
	c-1.1-0.1-2.2,0.3-3,1.1c-0.8,0.8-1.1,1.9-1.1,3.1l-0.5-5.9c0.6-1.5,1.6-2.8,2.9-3.8c1.2-0.9,2.7-1.3,4.2-1.3
	c2.5-0.1,4.9,0.9,6.5,2.9c1.5,1.9,2.3,4.6,2.3,8v16.3h-7.1V583.2z"/>
<path class="st3" d="M1079.3,597.7c-1.4-1.4-2.1-3.4-2.1-6.2c0-2.6,0.8-4.6,2.4-5.9c1.6-1.3,4-2,7.2-2h6.7l0.4,5.4h-7
	c-0.8-0.1-1.7,0.2-2.4,0.6c-0.6,0.5-0.9,1.2-0.8,1.9c0,0.8,0.3,1.5,1,1.9c0.9,0.5,2,0.7,3,0.6c1.4,0.1,2.9-0.1,4.2-0.6
	c0.8-0.3,1.4-1.1,1.4-2l0.5,3.9c-0.1,1-0.6,1.8-1.3,2.4c-0.9,0.7-1.9,1.2-2.9,1.5c-1.2,0.3-2.5,0.5-3.7,0.5
	C1082.9,599.8,1080.8,599.1,1079.3,597.7z M1093.2,582.4c0.1-1.1-0.4-2.2-1.2-2.9c-1-0.7-2.3-1.1-3.5-1c-1,0-2,0.2-3,0.5
	c-0.9,0.3-1.8,0.8-2.6,1.4l-4.4-4.3c1.2-1.3,2.6-2.3,4.2-2.8c1.9-0.7,3.8-1,5.8-1c2.1-0.1,4.1,0.3,6,1.2c1.6,0.7,2.9,1.9,3.8,3.4
	c0.9,1.6,1.4,3.5,1.3,5.4v17.2h-6.4V582.4z"/>
<path class="st3" d="M1106.6,572.6h7v26.7h-7.1L1106.6,572.6z M1122.2,583.9c0.1-1.3-0.3-2.6-1.2-3.6c-0.9-0.9-2-1.3-3.3-1.3
	c-1.1-0.1-2.2,0.3-3,1.1c-0.8,0.8-1.1,2-1.1,3.1l-0.5-5.9c0.7-1.5,1.7-2.8,3-3.8c1.2-0.9,2.7-1.3,4.2-1.3c3.5-0.2,6.8,2,7.9,5.4
	c0.8,2,1.1,4.2,1.1,6.3v15.4h-7.1L1122.2,583.9z M1137.8,583.9c0.1-1.3-0.3-2.6-1.1-3.6c-1.8-1.7-4.5-1.7-6.3-0.1
	c-0.8,1-1.2,2.2-1.1,3.5l-1.3-6.2c0.7-1.6,1.9-2.9,3.3-3.9c1.3-0.9,2.9-1.4,4.5-1.4c1.7,0,3.5,0.4,4.9,1.4c1.4,1,2.5,2.4,3.1,4
	c0.8,2,1.1,4.2,1.1,6.3v15.4h-7.1L1137.8,583.9z"/>
<path class="st3" d="M1156.6,598.4c-1.8-0.9-3.3-2.3-4.2-4.1c-1-2-1.5-4.2-1.4-6.5v-3c-0.1-2.3,0.4-4.6,1.4-6.8
	c0.9-1.8,2.3-3.3,4-4.3c2-1,4.2-1.5,6.4-1.5c2.1-0.1,4.2,0.6,6,1.8c1.7,1.3,3.1,3.1,3.8,5.1c0.9,2.6,1.4,5.3,1.3,8v1.8h-18.3v-4.8
	h11.8l-0.1-0.6c-0.1-1.3-0.6-2.6-1.5-3.6c-0.8-0.9-2-1.3-3.1-1.3c-1.5-0.1-2.9,0.5-4,1.5c-1,1.2-1.5,2.7-1.4,4.3v3.4
	c-0.1,1.6,0.5,3.1,1.5,4.2c1.2,1,2.7,1.6,4.3,1.5c1,0,1.9-0.2,2.8-0.5c0.9-0.3,1.8-0.8,2.5-1.4l4.6,4.1c-1.4,1.3-3,2.3-4.7,3
	c-1.7,0.7-3.5,1-5.3,1C1160.9,599.8,1158.7,599.3,1156.6,598.4z"/>
<path class="st3" d="M291.4,769.6c-1.8-1-3.2-2.4-4.1-4.2c-1-2.1-1.5-4.4-1.4-6.7v-2.9c-0.1-2.3,0.4-4.6,1.4-6.6
	c0.9-1.8,2.4-3.2,4.1-4.2c2-1,4.3-1.5,6.5-1.4c1.4,0,2.8,0.2,4.1,0.5c1.2,0.3,2.4,0.8,3.5,1.5c1,0.6,1.9,1.4,2.6,2.3l-4.5,4.4
	c-0.7-0.6-1.4-1.1-2.3-1.4c-0.9-0.3-1.8-0.5-2.8-0.5c-1.5-0.1-3,0.4-4.1,1.4c-1,1.1-1.6,2.5-1.5,4v2.9c-0.1,1.5,0.4,3,1.5,4.1
	c1.1,1,2.6,1.6,4.1,1.5c1,0,1.9-0.2,2.8-0.5c0.9-0.3,1.6-0.9,2.3-1.5l4.5,4.7c-0.7,0.9-1.6,1.7-2.6,2.3c-1.1,0.6-2.3,1.1-3.5,1.4
	c-1.3,0.3-2.7,0.5-4.1,0.5C295.7,771.1,293.5,770.6,291.4,769.6z"/>
<path class="st3" d="M320,761.8c0,0.6,0.2,1.1,0.6,1.5c0.4,0.4,1,0.6,1.6,0.5h1.2v6.8h-3.6c-1.8,0.1-3.7-0.5-5-1.8
	c-1.3-1.4-1.9-3.3-1.8-5.2v-30.4h7.1L320,761.8z"/>
<path class="st3" d="M328.8,769c-1.4-1.4-2.1-3.4-2.1-6.2c0-2.6,0.8-4.6,2.4-5.9c1.6-1.3,4-2,7.2-2h6.7l0.4,5.4h-7
	c-0.8-0.1-1.7,0.2-2.4,0.6c-0.6,0.5-0.9,1.2-0.8,1.9c-0.1,0.8,0.3,1.5,1,1.9c0.9,0.5,2,0.7,3,0.6c1.4,0.1,2.9-0.1,4.2-0.6
	c0.8-0.3,1.4-1.1,1.4-2l0.5,3.9c-0.1,1-0.6,1.8-1.3,2.4c-0.9,0.7-1.9,1.2-2.9,1.5c-1.2,0.3-2.5,0.5-3.7,0.5
	C332.4,771.1,330.2,770.4,328.8,769z M342.7,753.7c0.1-1.1-0.4-2.2-1.2-2.9c-1-0.7-2.3-1.1-3.5-1c-1,0-2,0.2-3,0.5
	c-0.9,0.3-1.8,0.8-2.6,1.4l-4.4-4.3c1.2-1.3,2.6-2.3,4.2-2.8c1.9-0.7,3.8-1,5.8-1c2.1-0.1,4.1,0.3,6,1.2c1.6,0.7,2.9,1.9,3.8,3.4
	c0.9,1.7,1.4,3.5,1.3,5.4v17.2h-6.4V753.7z"/>
<path class="st3" d="M355.6,733.2h7.1v7.1h-7.1V733.2z M355.6,743.9h7.1v26.7h-7.1V743.9z"/>
<path class="st3" d="M369.3,743.9h7.1v26.7h-7.1V743.9z M384.9,755.3c0.1-1.3-0.3-2.6-1.2-3.6c-0.9-0.9-2.1-1.3-3.3-1.3
	c-1.1-0.1-2.2,0.3-3,1.1c-0.8,0.8-1.1,2-1.1,3.1l-0.5-5.9c0.7-1.5,1.7-2.8,3-3.8c1.2-0.9,2.7-1.3,4.2-1.3c3.5-0.2,6.8,2,7.9,5.4
	c0.8,2,1.1,4.2,1.1,6.3v15.5h-7.1V755.3z M400.4,755.3c0.1-1.3-0.3-2.6-1.1-3.6c-1.8-1.7-4.5-1.7-6.3-0.1c-0.8,1-1.2,2.2-1.1,3.5
	l-1.3-6.2c0.7-1.6,1.9-2.9,3.3-3.9c1.3-0.9,2.9-1.4,4.5-1.4c1.7-0.1,3.5,0.4,4.9,1.4c1.4,1,2.5,2.4,3.1,4c0.8,2,1.1,4.2,1.1,6.3
	v15.5h-7.1V755.3z"/>
<path class="st3" d="M362.1,282.3h13.1v6h-13.1V282.3z M366.5,307.4c-1.1-1.2-1.6-3-1.6-5.3v-27.6h7.1v25.8c0,0.5,0.1,1.1,0.4,1.5
	c0.3,0.4,0.7,0.6,1.1,0.5h1.8v6.8h-3.6C369.3,309.2,367.6,308.6,366.5,307.4z"/>
<path class="st3" d="M381.4,282.3h7.6V309h-7.6V282.3z M395.1,289c-0.6-0.2-1.1-0.3-1.7-0.3c-1.3-0.1-2.5,0.4-3.3,1.4
	c-0.8,1.1-1.3,2.5-1.2,3.8l-0.5-7c0.6-1.5,1.6-2.7,2.9-3.7c1.1-0.9,2.5-1.3,3.9-1.3c1,0,2.1,0.2,3,0.5c0.9,0.3,1.7,0.9,2.4,1.6
	l-4.1,5.7C396,289.4,395.6,289.1,395.1,289z"/>
<path class="st3" d="M404.7,307.4c-1.4-1.4-2.1-3.4-2.1-6.2c0-2.6,0.8-4.6,2.4-5.9c1.6-1.3,4-2,7.2-2h6.7l0.4,5.4h-7
	c-0.8-0.1-1.7,0.2-2.4,0.6c-0.6,0.5-0.9,1.2-0.8,1.9c0,0.8,0.3,1.5,1,2c0.9,0.5,2,0.7,3,0.6c1.4,0.1,2.9-0.1,4.2-0.6
	c0.8-0.3,1.4-1.1,1.4-2l0.5,3.9c-0.1,1-0.6,1.8-1.3,2.5c-0.9,0.7-1.9,1.2-2.9,1.5c-1.2,0.3-2.5,0.5-3.7,0.5
	C408.3,309.4,406.1,308.7,404.7,307.4z M418.6,292.1c0.1-1.1-0.4-2.2-1.2-2.9c-1-0.7-2.3-1.1-3.5-1c-1,0-2,0.2-3,0.5
	c-0.9,0.3-1.8,0.8-2.6,1.4l-4.4-4.3c1.2-1.3,2.6-2.3,4.2-2.8c1.9-0.7,3.8-1,5.8-1c2.1-0.1,4.1,0.3,6,1.2c1.6,0.7,2.9,1.9,3.8,3.4
	c0.9,1.6,1.4,3.5,1.3,5.4V309h-6.4V292.1z"/>
<path class="st3" d="M431.9,282.3h7.1V309h-7.1V282.3z M447.4,292.8c0.1-1.1-0.3-2.2-1.1-3c-0.9-0.8-2-1.2-3.2-1.1
	c-1.1-0.1-2.2,0.3-3,1.1c-0.8,0.8-1.1,1.9-1.1,3.1l-0.5-5.9c0.7-1.5,1.6-2.8,2.9-3.8c1.2-0.9,2.7-1.3,4.2-1.3
	c2.5-0.1,4.9,0.9,6.5,2.8c1.6,1.9,2.3,4.6,2.3,8.1v16.3h-7.1L447.4,292.8z"/>
<path class="st3" d="M467,309c-1.5-0.3-2.9-0.7-4.3-1.2c-1.2-0.5-2.4-1.2-3.5-2l4.4-5.4c1.3,0.8,2.6,1.5,4,1.9
	c1.3,0.4,2.7,0.7,4,0.7c1.3,0.1,2.6-0.1,3.8-0.6c0.9-0.4,1.4-0.9,1.4-1.5c0-0.5-0.2-1-0.6-1.4c-0.5-0.3-1-0.6-1.5-0.7
	c-0.9-0.2-1.7-0.3-2.6-0.3l-0.9-0.1l-1-0.1H470h-0.2c-1.6-0.2-3.2-0.5-4.8-0.9c-1.2-0.4-2.3-1.2-3.1-2.2c-0.9-1.4-1.4-3-1.3-4.7
	c0-1.6,0.4-3.2,1.3-4.6c0.9-1.3,2.2-2.3,3.7-2.9c1.9-0.7,3.9-1,5.9-1c1.4,0,2.7,0.1,4.1,0.4c1.3,0.3,2.6,0.7,3.9,1.2
	c1.2,0.5,2.3,1.1,3.4,1.8l-4.2,5.1c-1.1-0.6-2.4-1.2-3.6-1.5c-1.2-0.3-2.4-0.5-3.7-0.5c-1.1,0-2.3,0.1-3.3,0.5
	c-0.8,0.3-1.2,0.8-1.2,1.4c0,0.4,0.2,0.8,0.6,1c0.5,0.3,1,0.5,1.6,0.5c0.6,0.1,1.5,0.2,2.7,0.4l0.5,0.1l0.5,0.1h0.2
	c0.1,0,0.2,0,0.2,0c1.7,0.2,3.4,0.5,5.1,0.9c1.3,0.4,2.5,1.2,3.3,2.3c1,1.5,1.5,3.2,1.4,5c0.2,3.5-2,6.6-5.3,7.8
	c-2,0.7-4.1,1.1-6.2,1C470.1,309.4,468.5,309.3,467,309z"/>
<path class="st3" d="M486.7,282.3h14.4v6h-14.4V282.3z M489.5,278.7c0-2.4,0.5-4.1,1.6-5.3s2.8-1.8,5-1.8h4.9v6.3h-3
	c-0.5,0-0.9,0.2-1.1,0.6c-0.3,0.4-0.4,1-0.4,1.5v29.1h-7.1L489.5,278.7z"/>
<path class="st3" d="M509.6,308c-1.8-0.9-3.3-2.3-4.2-4.1c-1-2-1.5-4.2-1.4-6.5v-3c-0.1-2.3,0.4-4.7,1.4-6.8c0.9-1.8,2.3-3.3,4-4.3
	c2-1,4.1-1.5,6.4-1.5c2.1-0.1,4.2,0.6,6,1.8c1.7,1.3,3.1,3.1,3.8,5.1c0.9,2.6,1.4,5.3,1.3,8v1.8h-18.3v-4.8h11.9l-0.1-0.6
	c-0.1-1.3-0.6-2.6-1.5-3.6c-0.8-0.9-2-1.3-3.1-1.3c-1.5-0.1-2.9,0.5-4,1.5c-1,1.2-1.5,2.7-1.4,4.3v3.4c-0.1,1.6,0.5,3.1,1.5,4.2
	c1.2,1,2.7,1.6,4.3,1.5c1,0,1.9-0.2,2.8-0.5c0.9-0.3,1.8-0.8,2.5-1.4l4.6,4.1c-1.4,1.3-3,2.3-4.7,2.9c-1.7,0.7-3.5,1-5.3,1
	C513.9,309.5,511.6,309,509.6,308z"/>
<path class="st3" d="M533,282.3h7.6V309H533V282.3z M546.8,289c-0.6-0.2-1.1-0.3-1.7-0.3c-1.3-0.1-2.5,0.4-3.3,1.4
	c-0.8,1.1-1.3,2.5-1.2,3.8l-0.5-7c0.6-1.5,1.6-2.7,2.9-3.7c1.1-0.9,2.5-1.3,3.9-1.3c1,0,2.1,0.2,3,0.5c0.9,0.3,1.7,0.9,2.4,1.6
	l-4.1,5.7C547.7,289.4,547.2,289.1,546.8,289z"/>
<path class="st3" d="M877.5,330.6h7.1v37.6h-7.1V330.6z M886.8,356.5c-1.2-0.8-2-2-2.5-3.4l0.4-6.1c0,0.8,0.1,1.5,0.5,2.2
	c0.3,0.6,0.8,1.1,1.4,1.4c0.7,0.3,1.4,0.5,2.1,0.5c1.2,0.1,2.3-0.4,3.1-1.3c0.8-1.1,1.2-2.4,1.1-3.7v-4.3c0.1-1.4-0.3-2.7-1.1-3.8
	c-0.8-0.9-1.9-1.4-3.1-1.4c-0.7,0-1.5,0.2-2.1,0.5c-0.6,0.3-1.1,0.8-1.4,1.5c-0.3,0.7-0.5,1.5-0.5,2.3l-0.5-5.9
	c0.6-1.4,1.6-2.7,2.8-3.6c1.1-0.8,2.5-1.3,3.9-1.3c3.5-0.2,6.8,2,7.9,5.4c0.8,2,1.1,4.2,1.1,6.3v4.3c0.1,2.1-0.3,4.3-1.1,6.2
	c-1.2,3.3-4.4,5.5-7.9,5.3C889.4,357.7,887.9,357.3,886.8,356.5z"/>
<path class="st3" d="M906.2,330.6h7.6v26.7h-7.6V330.6z M920,337.2c-0.6-0.2-1.1-0.3-1.7-0.3c-1.3-0.1-2.5,0.4-3.3,1.4
	c-0.8,1.1-1.3,2.4-1.2,3.8l-0.5-7c0.6-1.5,1.6-2.7,2.9-3.7c1.1-0.9,2.5-1.3,3.9-1.3c1,0,2.1,0.2,3,0.5c0.9,0.3,1.7,0.9,2.4,1.6
	l-4.1,5.7C920.9,337.7,920.5,337.4,920,337.2z"/>
<path class="st3" d="M928.4,319.9h7.1v7.1h-7.1V319.9z M928.4,330.6h7.1v26.7h-7.1V330.6z"/>
<path class="st3" d="M957.2,330.6h7l-10,26.7h-5l-10-26.7h7l5.5,16.8L957.2,330.6z"/>
<path class="st3" d="M969.2,355.6c-1.4-1.4-2.1-3.4-2.1-6.2c0-2.6,0.8-4.6,2.4-5.9c1.6-1.3,4-2,7.2-2h6.7l0.4,5.4h-7
	c-0.8-0.1-1.7,0.2-2.4,0.6c-0.6,0.5-0.9,1.2-0.8,1.9c-0.1,0.8,0.3,1.5,1,1.9c0.9,0.5,2,0.7,3,0.6c1.4,0.1,2.9-0.1,4.2-0.6
	c0.8-0.3,1.4-1.1,1.4-2l0.5,3.9c-0.1,1-0.6,1.8-1.3,2.4c-0.9,0.7-1.9,1.2-2.9,1.5c-1.2,0.3-2.5,0.5-3.7,0.5
	C972.8,357.7,970.6,357,969.2,355.6z M983.1,340.4c0.1-1.1-0.4-2.2-1.2-2.9c-1-0.7-2.3-1.1-3.5-1c-1,0-2,0.2-3,0.5
	c-0.9,0.3-1.8,0.8-2.6,1.4l-4.4-4.3c1.2-1.3,2.6-2.3,4.2-2.8c1.9-0.7,3.8-1,5.8-1c2.1-0.1,4.1,0.3,6,1.2c1.6,0.7,2.9,1.9,3.8,3.4
	c0.9,1.7,1.4,3.5,1.3,5.4v17.2h-6.4V340.4z"/>
<path class="st3" d="M1001.2,356.3c-1.8-0.9-3.2-2.4-4.1-4.2c-1-2.1-1.5-4.4-1.4-6.7v-2.9c-0.1-2.3,0.4-4.6,1.4-6.6
	c0.9-1.8,2.4-3.3,4.1-4.2c2-1,4.3-1.5,6.5-1.4c1.4,0,2.8,0.2,4.1,0.5c1.2,0.3,2.4,0.8,3.5,1.5c1,0.6,1.9,1.4,2.6,2.3l-4.6,4.4
	c-0.7-0.6-1.4-1.1-2.3-1.4c-0.9-0.3-1.8-0.5-2.7-0.5c-1.5-0.1-3,0.4-4.2,1.4c-1,1.1-1.6,2.5-1.5,4v2.9c-0.1,1.5,0.4,3,1.5,4.1
	c1.1,1,2.6,1.6,4.2,1.5c1,0,1.9-0.2,2.8-0.5c0.9-0.3,1.6-0.9,2.3-1.5l4.6,4.7c-0.7,0.9-1.6,1.7-2.6,2.3c-1.1,0.6-2.3,1.1-3.5,1.4
	c-1.3,0.3-2.7,0.5-4.1,0.5C1005.5,357.8,1003.2,357.3,1001.2,356.3z"/>
<path class="st3" d="M1018.8,330.6h6.6l9,23.2l-4.5,5.7L1018.8,330.6z M1043.5,330.6l-11.9,33c-0.4,1.1-0.9,2-1.7,2.9
	c-0.7,0.7-1.5,1.2-2.4,1.5c-1.2,0.3-2.4,0.5-3.6,0.5h-1.6v-6.9h1.6c0.7,0,1.3-0.1,1.9-0.5c0.6-0.4,1-1,1.1-1.6l9.9-28.9
	L1043.5,330.6z"/>
<path class="st3" d="M77.7,683.3h7.6V710h-7.6V683.3z M91.4,690c-0.6-0.2-1.1-0.3-1.7-0.3c-1.3-0.1-2.5,0.4-3.3,1.4
	c-0.8,1.1-1.2,2.4-1.2,3.8l-0.5-7c0.6-1.5,1.6-2.7,2.9-3.7c1.1-0.9,2.5-1.3,3.9-1.3c1,0,2.1,0.2,3,0.5c0.9,0.3,1.7,0.9,2.4,1.6
	l-4.1,5.7C92.3,690.4,91.9,690.1,91.4,690z"/>
<path class="st3" d="M104.5,709c-1.8-0.9-3.3-2.3-4.2-4.1c-1-2-1.5-4.2-1.4-6.5v-3c-0.1-2.3,0.4-4.6,1.4-6.8c0.9-1.8,2.3-3.3,4-4.3
	c2-1,4.2-1.5,6.4-1.5c2.1-0.1,4.2,0.6,6,1.8c1.7,1.3,3.1,3,3.8,5.1c0.9,2.6,1.4,5.3,1.3,8.1v1.8h-18.3v-4.8h11.9l-0.1-0.6
	c-0.1-1.3-0.6-2.6-1.5-3.6c-0.8-0.8-2-1.3-3.1-1.2c-1.5-0.1-2.9,0.5-4,1.5c-1,1.2-1.5,2.7-1.4,4.3v3.4c-0.1,1.6,0.5,3.1,1.5,4.2
	c1.2,1,2.7,1.6,4.3,1.5c1,0,1.9-0.2,2.8-0.5c0.9-0.3,1.8-0.8,2.5-1.4l4.6,4.1c-1.4,1.3-3,2.3-4.7,2.9c-1.7,0.7-3.5,1-5.3,1
	C108.8,710.5,106.6,710,104.5,709z"/>
<path class="st3" d="M131.3,709.1c-1.4-1-2.5-2.4-3.1-4c-0.8-2-1.1-4.1-1.1-6.2v-4.3c-0.1-2.2,0.3-4.3,1.1-6.3
	c1.2-3.3,4.4-5.5,7.9-5.4c1.4,0,2.8,0.4,3.9,1.3c1.2,0.9,2.2,2.2,2.8,3.6l-0.5,5.9c0-0.8-0.1-1.6-0.5-2.3c-0.3-0.6-0.8-1.1-1.4-1.5
	c-0.7-0.3-1.4-0.5-2.1-0.5c-1.2-0.1-2.3,0.4-3.1,1.3c-0.8,1.1-1.2,2.4-1.1,3.8v4.3c-0.1,1.3,0.3,2.6,1.1,3.7
	c0.8,0.9,1.9,1.4,3.1,1.3c0.7,0,1.5-0.1,2.1-0.5c0.6-0.3,1.1-0.8,1.4-1.4c0.3-0.7,0.5-1.5,0.5-2.2l0.4,6.1c-0.5,1.4-1.4,2.5-2.5,3.4
	c-1.2,0.8-2.6,1.2-4,1.2C134.4,710.4,132.7,710,131.3,709.1z M131.7,719.8c-1.6-0.7-2.9-1.8-3.9-3.2l4.7-4.4
	c0.6,0.7,1.3,1.2,2.2,1.5c0.8,0.4,1.7,0.5,2.6,0.5c1.3,0.1,2.6-0.4,3.6-1.2c0.9-0.8,1.5-2.1,1.4-3.3v-26.5h7.1v25.9
	c0.1,2.2-0.4,4.4-1.4,6.3c-0.9,1.7-2.3,3.1-4.1,4c-2,1-4.3,1.4-6.5,1.4C135.5,720.9,133.5,720.6,131.7,719.8z"/>
<path class="st3" d="M156,672.6h7v7.1h-7.1L156,672.6z M156,683.3h7V710h-7.1L156,683.3z"/>
<path class="st3" d="M174.1,709.1c-1.7-0.9-3.1-2.3-3.9-4c-1-2-1.4-4.1-1.4-6.3v-4.4c-0.1-2.2,0.4-4.3,1.4-6.2
	c0.9-1.7,2.2-3.1,3.9-3.9c4-1.8,8.5-1.8,12.5,0c1.7,0.9,3.1,2.2,3.9,3.9c0.9,1.9,1.4,4.1,1.4,6.2v4.4c0.1,2.2-0.4,4.3-1.4,6.2
	c-0.9,1.7-2.2,3.1-3.9,4C182.7,710.9,178.1,710.9,174.1,709.1L174.1,709.1z M183.7,702.4c0.8-1,1.3-2.2,1.2-3.5v-4.4
	c0.1-1.3-0.3-2.5-1.2-3.5c-0.9-0.9-2.1-1.3-3.3-1.2c-1.2-0.1-2.4,0.4-3.3,1.2c-0.8,1-1.2,2.2-1.2,3.5v4.4c-0.1,1.3,0.3,2.5,1.2,3.5
	c0.9,0.9,2.1,1.3,3.3,1.3C181.6,703.7,182.8,703.2,183.7,702.4L183.7,702.4z"/>
<path class="st3" d="M198.3,683.3h7.1V710h-7.1L198.3,683.3z M213.8,693.9c0.1-1.1-0.3-2.2-1.1-3c-0.9-0.8-2-1.2-3.2-1.1
	c-1.1-0.1-2.2,0.3-3,1.1c-0.7,0.8-1.1,1.9-1,3l-0.5-5.9c0.7-1.5,1.6-2.8,2.9-3.8c1.2-0.9,2.7-1.3,4.2-1.3c2.5-0.1,4.9,0.9,6.5,2.8
	c1.5,1.9,2.3,4.6,2.3,8.1V710h-7.1L213.8,693.9z"/>
<path class="st3" d="M985.9,451.3h7.1v37.4h-7.1V451.3z M989.1,479.1l12.5-17.1h7.5l-19,24.9L989.1,479.1z M995.5,475l5.8-3.5
	l9.1,17.3h-8.1L995.5,475z"/>
<path class="st3" d="M1013.4,451.3h7.1v7.1h-7.1V451.3z M1013.4,462h7.1v26.7h-7.1V462z"/>
<path class="st3" d="M1031.8,487.7c-1.8-0.9-3.2-2.4-4.1-4.2c-1-2.1-1.5-4.4-1.4-6.7v-2.9c-0.1-2.3,0.4-4.6,1.4-6.6
	c0.9-1.8,2.4-3.3,4.1-4.2c2-1,4.3-1.5,6.5-1.4c1.4,0,2.8,0.2,4.1,0.5c1.2,0.3,2.4,0.8,3.5,1.5c1,0.6,1.9,1.4,2.6,2.3l-4.5,4.4
	c-0.7-0.6-1.4-1.1-2.3-1.4c-0.9-0.3-1.8-0.5-2.7-0.5c-1.5-0.1-3,0.4-4.2,1.4c-1,1.1-1.6,2.5-1.5,4v2.9c-0.1,1.5,0.4,3,1.5,4.1
	c1.1,1,2.6,1.6,4.2,1.5c1,0,1.9-0.2,2.8-0.5c0.9-0.3,1.6-0.9,2.3-1.6l4.5,4.7c-0.7,0.9-1.6,1.7-2.6,2.3c-1.1,0.6-2.3,1.1-3.5,1.4
	c-1.3,0.3-2.7,0.5-4.1,0.5C1036.1,489.3,1033.8,488.8,1031.8,487.7z"/>
<path class="st3" d="M1053.3,451.3h7.1v37.4h-7.1V451.3z M1056.5,479.1L1069,462h7.5l-19,24.9L1056.5,479.1z M1062.9,475l5.8-3.5
	l9.1,17.3h-8.1L1062.9,475z"/>
<path class="st3" d="M730.2,263.4h7.1v7.1h-7.1V263.4z M730.2,274.1h7.1v26.7h-7.1V274.1z"/>
<path class="st3" d="M743.9,274.1h7.1v26.7h-7.1V274.1z M759.3,284.6c0.1-1.1-0.3-2.2-1.1-3c-0.9-0.8-2-1.2-3.2-1.1
	c-1.1-0.1-2.2,0.3-3,1.1c-0.8,0.8-1.1,2-1.1,3.1l-0.5-5.9c0.7-1.5,1.6-2.8,2.9-3.8c1.2-0.9,2.7-1.3,4.2-1.3c2.5-0.1,4.9,0.9,6.5,2.8
	c1.5,1.9,2.3,4.6,2.3,8.1v16.3h-7.1V284.6z"/>
<path class="st3" d="M787.8,274.1h7l-10,26.7h-5l-10-26.7h7l5.5,16.8L787.8,274.1z"/>
<path class="st3" d="M798.5,263.4h7.1v7.1h-7.1V263.4z M798.5,274.1h7.1v26.7h-7.1V274.1z"/>
<path class="st3" d="M810.1,274.1h13.1v6h-13.1V274.1z M814.5,299.2c-1.1-1.2-1.6-3-1.6-5.3v-27.6h7.1v25.8c0,0.5,0.1,1.1,0.4,1.5
	c0.3,0.4,0.7,0.6,1.1,0.5h1.7v6.8h-3.5C817.3,301,815.6,300.4,814.5,299.2z"/>
<path class="st3" d="M834.2,299.8c-1.8-0.9-3.3-2.3-4.2-4.1c-1-2-1.5-4.2-1.4-6.5v-3c-0.1-2.3,0.4-4.6,1.4-6.8
	c0.9-1.8,2.3-3.3,4-4.3c2-1,4.2-1.5,6.4-1.5c2.1-0.1,4.2,0.6,6,1.8c1.7,1.3,3.1,3,3.8,5.1c0.9,2.6,1.4,5.3,1.3,8.1v1.8h-18.3v-4.8
	H845L845,285c-0.1-1.3-0.6-2.6-1.5-3.6c-0.8-0.9-2-1.3-3.1-1.3c-1.5-0.1-2.9,0.5-4,1.5c-1,1.2-1.5,2.7-1.4,4.3v3.4
	c-0.1,1.6,0.5,3.1,1.5,4.2c1.2,1.1,2.7,1.6,4.3,1.5c1,0,1.9-0.2,2.8-0.5c0.9-0.3,1.8-0.8,2.5-1.4l4.6,4.1c-1.4,1.3-3,2.3-4.7,3
	c-1.7,0.7-3.5,1-5.3,1C838.6,301.3,836.3,300.8,834.2,299.8z"/>
<path class="st2" d="M934.4,376.5v273.4c0,9.1-7.4,16.6-16.5,16.6c0,0,0,0,0,0H291c-9.1,0-16.6-7.4-16.6-16.6c0,0,0,0,0,0V376.5
	c0-9.1,7.4-16.6,16.6-16.6c0,0,0,0,0,0h626.8C927,360,934.4,367.4,934.4,376.5z"/>
<path class="st4" d="M419.4,474.4c-1.4-0.8-2.6-2-3.3-3.5c-0.8-1.7-1.2-3.6-1.1-5.5v-17.5h3.8v17.7c-0.1,1.7,0.4,3.4,1.5,4.6
	c1.1,1.1,2.7,1.7,4.3,1.6c1.6,0.1,3.2-0.5,4.3-1.6c1.1-1.3,1.6-3,1.5-4.6v-17.7h3.9v17.5c0.1,1.9-0.3,3.8-1.1,5.5
	c-0.7,1.5-1.9,2.7-3.3,3.5C426.5,476,422.7,476,419.4,474.4z"/>
<path class="st4" d="M443.8,475.3c-1-0.2-1.9-0.6-2.8-1c-0.9-0.5-1.7-1-2.4-1.7l2.3-2.8c1,0.7,2,1.4,3.2,1.8c1,0.4,2,0.6,3.1,0.6
	c1.2,0.1,2.4-0.2,3.4-0.7c0.7-0.4,1.2-1.3,1.1-2.1c0-0.5-0.2-1.1-0.6-1.4c-0.5-0.3-1-0.6-1.5-0.6c-0.6-0.1-1.5-0.2-2.6-0.3h-0.3
	h-0.3h-0.3c-1.1-0.1-2.2-0.3-3.2-0.6c-0.9-0.3-1.6-0.8-2.2-1.5c-0.7-0.9-1-2.1-0.9-3.2c0-1.2,0.2-2.4,0.8-3.5
	c0.6-0.9,1.5-1.7,2.5-2.1c1.3-0.5,2.8-0.7,4.2-0.7c1,0,2,0.1,2.9,0.3c0.9,0.2,1.8,0.5,2.7,0.8c0.9,0.4,1.7,0.9,2.4,1.4l-2.3,2.8
	c-0.9-0.6-1.9-1.1-2.9-1.4c-0.9-0.3-1.8-0.5-2.8-0.5c-1-0.1-2,0.2-2.9,0.7c-0.7,0.5-1,1.2-1,2c0,0.5,0.2,0.9,0.6,1.2
	c0.4,0.3,0.9,0.5,1.4,0.5c0.6,0.1,1.4,0.2,2.4,0.2c0.1,0,0.2,0,0.2,0h0.3h0.2c0,0,0.1,0,0.1,0c1.2,0.1,2.4,0.2,3.5,0.5
	c1,0.3,1.8,0.9,2.4,1.6c0.7,1,1.1,2.3,1,3.6c0,1.2-0.3,2.4-0.9,3.5c-0.7,1-1.6,1.7-2.7,2.1c-1.5,0.5-3,0.7-4.6,0.7
	C446,475.6,444.9,475.5,443.8,475.3z"/>
<path class="st4" d="M463.6,474.6c-1.3-0.7-2.3-1.7-2.9-3c-0.7-1.5-1.1-3.1-1-4.8v-2.2c0-1.7,0.3-3.4,1-5c0.6-1.3,1.6-2.4,2.8-3.1
	c1.4-0.7,2.9-1.1,4.5-1.1c1.5,0,3,0.4,4.2,1.2c1.2,0.9,2.1,2.1,2.6,3.5c0.6,1.8,1,3.7,0.9,5.6v1.3h-13.2V464h9.6
	c0-1.3-0.5-2.6-1.2-3.7c-0.7-0.9-1.8-1.4-2.9-1.3c-1.3-0.1-2.5,0.5-3.4,1.4c-0.9,1.2-1.3,2.6-1.2,4.1v2.5c-0.1,1.4,0.4,2.7,1.3,3.7
	c1,0.9,2.3,1.4,3.6,1.3c0.8,0,1.6-0.2,2.3-0.5c0.8-0.3,1.5-0.8,2.1-1.3l2.5,2.5c-0.9,0.9-2,1.6-3.3,2.2c-1.1,0.5-2.4,0.8-3.6,0.8
	C466.6,475.7,465,475.3,463.6,474.6z"/>
<path class="st4" d="M480.9,455.7h3.8v19.7h-3.8V455.7z M490.4,459.4c-0.6-0.2-1.2-0.3-1.8-0.3c-1-0.1-2.1,0.3-2.8,1
	c-0.7,0.8-1.1,1.8-1,2.8l-0.4-3.8c0.5-1.1,1.3-2,2.3-2.7c0.9-0.6,2-1,3.2-1c0.8,0,1.6,0.1,2.4,0.4c0.7,0.2,1.3,0.6,1.9,1.1l-2.5,3.4
	C491.4,460,490.9,459.6,490.4,459.4L490.4,459.4z"/>
<path class="st4" d="M512.2,474.4c-1.4-0.8-2.6-2.1-3.3-3.6c-0.8-1.7-1.2-3.5-1.2-5.4v-7.5c0-1.9,0.4-3.7,1.2-5.4
	c0.7-1.5,1.9-2.8,3.3-3.6c1.5-0.9,3.3-1.3,5-1.3c1.5,0,3,0.3,4.3,1c1.3,0.7,2.5,1.7,3.3,2.9c0.9,1.3,1.5,2.7,1.8,4.3h-3.9
	c-0.2-0.8-0.6-1.6-1.2-2.3c-0.5-0.7-1.2-1.2-2-1.6c-1.7-0.8-3.7-0.7-5.3,0.3c-0.9,0.6-1.5,1.3-2,2.3c-0.5,1.1-0.7,2.2-0.7,3.4v7.5
	c0,1.2,0.2,2.3,0.7,3.4c0.4,0.9,1.1,1.7,2,2.3c0.9,0.5,1.9,0.8,2.9,0.8c0.8,0,1.6-0.2,2.4-0.5c0.8-0.3,1.4-0.9,2-1.5
	c0.6-0.7,1-1.5,1.2-2.4h3.9c-0.3,1.5-0.9,3-1.8,4.3c-0.9,1.2-2,2.2-3.3,2.9c-1.3,0.7-2.8,1-4.3,1
	C515.4,475.6,513.7,475.2,512.2,474.4z"/>
<path class="st4" d="M535.6,467.7c-0.1,1.2,0.3,2.3,1,3.2c0.8,0.8,1.9,1.2,3,1.1c1.1,0.1,2.1-0.3,2.9-1c0.7-0.8,1.1-1.8,1-2.8
	l0.3,4.1c-0.4,1-1.1,1.8-2,2.4c-1,0.7-2.1,1-3.3,1c-1.9,0.1-3.8-0.7-5-2.1c-1.3-1.7-1.9-3.8-1.8-5.9v-11.9h3.9L535.6,467.7z
	 M543.6,455.7h3.8v19.7h-3.8V455.7z"/>
<path class="st4" d="M556.9,475.3c-1-0.2-1.9-0.6-2.8-1c-0.9-0.5-1.7-1-2.4-1.7l2.3-2.8c1,0.8,2,1.4,3.2,1.8c1,0.4,2,0.6,3.1,0.6
	c1.2,0.1,2.4-0.2,3.4-0.7c0.7-0.4,1.2-1.3,1.1-2.1c0-0.5-0.2-1.1-0.6-1.4c-0.5-0.3-1-0.6-1.6-0.6c-0.6-0.1-1.5-0.2-2.6-0.3h-0.3
	h-0.3H559c-1.1-0.1-2.2-0.3-3.2-0.6c-0.9-0.3-1.6-0.8-2.2-1.5c-0.7-0.9-1-2.1-0.9-3.2c0-1.2,0.3-2.4,0.8-3.5
	c0.6-0.9,1.5-1.7,2.5-2.1c1.3-0.5,2.8-0.7,4.2-0.7c1,0,2,0.1,2.9,0.3c0.9,0.2,1.8,0.5,2.7,0.8c0.9,0.4,1.7,0.9,2.4,1.4l-2.3,2.8
	c-0.9-0.6-1.9-1.1-2.9-1.4c-0.9-0.3-1.8-0.5-2.8-0.5c-1-0.1-2,0.2-2.9,0.7c-0.7,0.5-1,1.2-1,2c0,0.5,0.2,0.9,0.6,1.2
	c0.4,0.3,0.9,0.5,1.4,0.5c0.6,0.1,1.4,0.2,2.4,0.2c0.1,0,0.2,0,0.2,0h0.3h0.1c0,0,0.1,0,0.1,0c1.2,0.1,2.4,0.2,3.5,0.5
	c1,0.3,1.8,0.9,2.4,1.6c0.7,1,1.1,2.3,1,3.6c0,1.2-0.3,2.4-0.9,3.5c-0.7,1-1.6,1.7-2.7,2.1c-1.5,0.5-3,0.7-4.6,0.7
	C559.1,475.6,558,475.5,556.9,475.3z"/>
<path class="st4" d="M571.8,455.7h8.8v3.5h-8.8V455.7z M574.9,474.1c-0.8-1.1-1.2-2.5-1.1-3.9V450h3.9v20.2c0,0.4,0.1,0.8,0.3,1.1
	c0.2,0.3,0.5,0.4,0.8,0.4h1.9v3.7h-2.2C577.1,475.6,575.8,475.1,574.9,474.1z"/>
<path class="st4" d="M589.1,474.6c-1.2-0.7-2.2-1.7-2.8-2.9c-0.7-1.4-1-3-1-4.6v-3.2c0-1.6,0.3-3.1,1-4.5c0.6-1.3,1.6-2.3,2.8-3
	c2.8-1.3,6-1.3,8.7,0c1.2,0.7,2.2,1.7,2.8,2.9c0.7,1.4,1,3,1,4.5v3.2c0,1.6-0.3,3.1-1,4.6c-0.6,1.2-1.6,2.2-2.8,2.9
	C595.1,475.9,591.9,475.9,589.1,474.6L589.1,474.6z M596.6,470.7c0.8-1,1.2-2.3,1.1-3.5v-3.2c0.1-1.3-0.3-2.5-1.1-3.5
	c-1.7-1.7-4.5-1.7-6.3,0c-0.8,1-1.2,2.3-1.1,3.5v3.2c-0.1,1.3,0.3,2.5,1.1,3.5C592.1,472.4,594.9,472.4,596.6,470.7z"/>
<path class="st4" d="M607,455.7h3.8v19.7H607V455.7z M618.7,463.5c0.1-1.2-0.3-2.3-1-3.2c-0.8-0.8-1.8-1.2-2.9-1.1
	c-1.1-0.1-2.1,0.3-2.9,1c-0.7,0.8-1.1,1.8-1,2.8l-0.4-3.8c0.5-1.1,1.4-2,2.4-2.7c1-0.6,2.1-1,3.2-1c1.2,0,2.5,0.3,3.5,0.9
	c1,0.7,1.8,1.6,2.2,2.7c0.5,1.4,0.8,2.8,0.8,4.3v12h-3.8L618.7,463.5z M630.5,463.5c0.1-1.2-0.3-2.3-1.1-3.2c-0.8-0.8-1.9-1.2-3-1.1
	c-1-0.1-2.1,0.3-2.8,1.1c-0.7,0.9-1.1,2-1,3.1l-0.8-3.8c0.5-1.2,1.4-2.2,2.4-3c1-0.7,2.1-1.1,3.3-1.1c1.3-0.1,2.5,0.3,3.6,0.9
	c1,0.6,1.8,1.6,2.3,2.7c0.5,1.4,0.8,2.8,0.8,4.3v12h-3.8L630.5,463.5z"/>
<path class="st4" d="M640.1,447.9h3.9v3.9h-3.9V447.9z M640.1,455.7h3.9v19.7h-3.9V455.7z"/>
<path class="st4" d="M663.4,459l-9.4,12.8h9.9v3.6h-14.6v-3.3l9.7-12.7h-9.4v-3.6h13.8V459z"/>
<path class="st4" d="M672.4,474.6c-1.3-0.7-2.3-1.7-2.9-3c-0.7-1.5-1-3.1-1-4.8v-2.2c0-1.7,0.3-3.4,1-5c0.6-1.3,1.6-2.4,2.8-3.1
	c1.4-0.7,2.9-1.1,4.5-1.1c1.5,0,3,0.4,4.2,1.2c1.2,0.9,2.1,2.1,2.7,3.5c0.6,1.8,1,3.7,0.9,5.6v1.3h-13.2V464h9.6
	c0-1.3-0.5-2.6-1.2-3.7c-0.7-0.9-1.8-1.4-2.9-1.3c-1.3-0.1-2.5,0.5-3.4,1.4c-0.9,1.2-1.3,2.6-1.2,4.1v2.5c-0.1,1.4,0.4,2.7,1.3,3.7
	c1,0.9,2.3,1.4,3.6,1.3c0.8,0,1.6-0.2,2.3-0.5c0.8-0.3,1.5-0.8,2.1-1.3l2.6,2.5c-0.9,0.9-2.1,1.6-3.3,2.2c-1.1,0.5-2.4,0.8-3.6,0.8
	C675.4,475.7,673.8,475.3,672.4,474.6z"/>
<path class="st4" d="M692.2,474.8c-1-0.6-1.8-1.6-2.3-2.7c-0.6-1.4-0.8-2.8-0.8-4.3v-4.3c0-1.5,0.2-3,0.8-4.3
	c0.5-1.1,1.2-2.1,2.3-2.7c1.1-0.6,2.3-1,3.6-0.9c1.1,0,2.2,0.3,3.2,0.9c1,0.6,1.8,1.5,2.3,2.6l-0.4,4c0-0.7-0.1-1.5-0.5-2.1
	c-0.3-0.6-0.7-1.1-1.3-1.4c-0.6-0.3-1.4-0.5-2.1-0.5c-1.1-0.1-2.2,0.4-3,1.2c-0.7,0.9-1.1,2.1-1,3.3v4.3c-0.1,1.2,0.3,2.4,1,3.3
	c0.8,0.8,1.9,1.2,3,1.2c0.7,0,1.4-0.1,2.1-0.5c0.6-0.3,1-0.8,1.3-1.4c0.3-0.7,0.5-1.4,0.5-2.2l0.3,4.1c-0.4,1-1.1,1.8-1.9,2.4
	c-1,0.7-2.1,1-3.3,1C694.7,475.8,693.4,475.4,692.2,474.8z M700.8,447.9h3.8v27.5h-3.9L700.8,447.9z"/>
<path class="st3" d="M355.1,411.3c-1-0.6-1.8-1.4-2.3-2.5c-0.6-1.2-0.8-2.5-0.8-3.9v-12.3h2.7v12.4c-0.1,1.2,0.3,2.3,1.1,3.3
	c0.8,0.8,1.9,1.2,3,1.2c1.1,0.1,2.2-0.4,3-1.2c0.8-0.9,1.1-2.1,1.1-3.3v-12.4h2.7V405c0,1.3-0.2,2.7-0.8,3.9c-0.5,1-1.3,1.9-2.3,2.5
	c-1.1,0.6-2.4,0.9-3.7,0.8C357.5,412.2,356.2,411.9,355.1,411.3z"/>
<path class="st3" d="M372.2,411.9c-0.7-0.2-1.4-0.4-2-0.7c-0.6-0.3-1.2-0.7-1.7-1.2l1.6-2c0.7,0.5,1.4,1,2.2,1.3
	c0.7,0.3,1.4,0.4,2.2,0.4c0.8,0.1,1.7-0.1,2.4-0.5c0.5-0.3,0.8-0.9,0.8-1.5c0-0.4-0.1-0.8-0.4-1c-0.3-0.2-0.7-0.4-1.1-0.4
	c-0.4-0.1-1-0.1-1.8-0.2h-0.2H374h-0.2c-0.8,0-1.5-0.2-2.3-0.4c-0.6-0.2-1.2-0.6-1.6-1.1c-0.4-0.7-0.7-1.4-0.6-2.2
	c0-0.8,0.2-1.7,0.6-2.4c0.4-0.7,1.1-1.2,1.8-1.5c0.9-0.3,2-0.5,3-0.5c0.7,0,1.4,0.1,2,0.2c1.3,0.2,2.5,0.8,3.6,1.6l-1.6,2
	c-0.6-0.4-1.3-0.8-2-1c-0.6-0.2-1.3-0.3-1.9-0.3c-0.7-0.1-1.4,0.1-2.1,0.5c-0.5,0.3-0.7,0.9-0.7,1.4c0,0.3,0.1,0.6,0.4,0.8
	c0.3,0.2,0.6,0.3,1,0.4c0.6,0.1,1.1,0.1,1.7,0.2h0.2h0.3h0.1c0.8,0,1.7,0.2,2.5,0.4c0.7,0.2,1.3,0.6,1.7,1.2
	c0.5,0.7,0.7,1.6,0.7,2.5c0,0.9-0.2,1.7-0.6,2.5c-0.5,0.7-1.1,1.2-1.9,1.5c-1,0.4-2.1,0.5-3.2,0.5
	C373.8,412.2,373,412.1,372.2,411.9z"/>
<path class="st3" d="M386.1,411.4c-0.9-0.5-1.6-1.2-2.1-2.1c-0.5-1-0.7-2.2-0.7-3.3v-1.6c0-1.2,0.2-2.4,0.7-3.5
	c0.4-0.9,1.1-1.7,1.9-2.2c1-0.5,2-0.8,3.1-0.8c1.1,0,2.1,0.3,2.9,0.9c0.9,0.6,1.5,1.5,1.9,2.5c0.5,1.3,0.7,2.6,0.6,3.9v0.9h-9.3V404
	h6.7c0-0.9-0.3-1.9-0.9-2.6c-0.5-0.6-1.2-0.9-2-0.9c-0.9-0.1-1.8,0.3-2.4,1c-0.6,0.8-0.9,1.8-0.8,2.8v1.8c-0.1,1,0.3,1.9,0.9,2.6
	c0.7,0.6,1.6,1,2.6,0.9c0.6,0,1.1-0.1,1.6-0.3c0.5-0.2,1-0.5,1.4-0.9l1.8,1.8c-0.7,0.6-1.4,1.2-2.3,1.5c-0.8,0.3-1.7,0.5-2.6,0.5
	C388.2,412.2,387.1,412,386.1,411.4z"/>
<path class="st3" d="M398.3,398.2h2.7v13.8h-2.7V398.2z M405,400.8c-0.4-0.2-0.8-0.2-1.3-0.2c-1.4-0.1-2.6,0.8-2.7,2.2
	c0,0.2,0,0.3,0,0.5l-0.3-2.6c0.4-0.8,0.9-1.4,1.6-1.9c0.7-0.4,1.4-0.7,2.2-0.7c0.6,0,1.2,0.1,1.7,0.3c0.5,0.2,1,0.4,1.3,0.8
	l-1.8,2.4C405.6,401.2,405.3,400.9,405,400.8L405,400.8z"/>
<path class="st3" d="M417.2,392.7h2.7v19.3h-2.7V392.7z M421.1,411.5c-0.6-0.4-1.1-1-1.4-1.7l0.2-2.9c0,0.5,0.1,1,0.3,1.5
	c0.2,0.4,0.5,0.7,0.9,1c0.5,0.2,1,0.3,1.5,0.3c0.8,0,1.5-0.3,2.1-0.8c0.5-0.6,0.8-1.5,0.7-2.3v-3c0.1-0.8-0.2-1.7-0.7-2.3
	c-0.5-0.6-1.3-0.9-2.1-0.8c-0.5,0-1,0.1-1.5,0.3c-0.4,0.2-0.7,0.5-0.9,0.9c-0.2,0.5-0.3,1-0.3,1.5l-0.3-2.7c0.4-0.8,0.9-1.4,1.6-1.9
	c0.7-0.4,1.4-0.7,2.2-0.7c0.9,0,1.7,0.2,2.5,0.7c0.7,0.5,1.3,1.1,1.6,1.9c0.4,1,0.6,2,0.6,3v3c0,1-0.2,2-0.6,3
	c-0.3,0.8-0.9,1.5-1.6,1.9c-0.8,0.5-1.7,0.7-2.6,0.6C422.6,412.1,421.8,411.9,421.1,411.5z"/>
<path class="st3" d="M432.6,411.1c-0.9-0.8-1.4-2-1.3-3.2c-0.1-1.1,0.3-2.3,1.2-3.1c1-0.8,2.2-1.1,3.5-1h3.9l0.2,2.2H436
	c-0.6,0-1.1,0.1-1.6,0.5c-0.4,0.4-0.6,0.9-0.5,1.4c0,0.6,0.2,1.2,0.7,1.6c0.6,0.4,1.4,0.6,2.1,0.5c0.8,0,1.6-0.1,2.3-0.3
	c0.5-0.1,0.8-0.6,0.8-1l0.3,1.9c-0.2,0.4-0.5,0.7-0.9,0.9c-0.4,0.2-0.8,0.4-1.2,0.5c-0.5,0.1-1,0.2-1.6,0.2
	C435,412.2,433.7,411.9,432.6,411.1z M439.7,403.2c0-0.8-0.2-1.5-0.7-2.1c-0.5-0.5-1.3-0.8-2-0.7c-0.5,0-1.1,0.1-1.6,0.3
	c-0.5,0.2-1,0.4-1.4,0.7l-2-1.4c0.6-0.6,1.3-1.1,2.1-1.5c0.9-0.4,1.9-0.5,2.9-0.5c1,0,2,0.2,2.9,0.6c0.8,0.4,1.4,1,1.9,1.8
	c0.4,0.9,0.7,1.8,0.6,2.8v8.8h-2.6V403.2z"/>
<path class="st3" d="M449,411.9c-1.4-0.3-2.7-1-3.7-1.9l1.6-2c0.7,0.5,1.4,1,2.2,1.3c0.7,0.3,1.4,0.4,2.2,0.4
	c0.8,0.1,1.7-0.1,2.4-0.5c0.5-0.3,0.8-0.9,0.8-1.5c0-0.4-0.1-0.8-0.4-1c-0.3-0.2-0.7-0.4-1.1-0.4c-0.4-0.1-1-0.1-1.8-0.2h-0.2h-0.2
	h-0.2c-0.8,0-1.5-0.2-2.3-0.4c-0.6-0.2-1.2-0.6-1.5-1.1c-0.5-0.7-0.7-1.4-0.6-2.2c0-0.9,0.2-1.7,0.6-2.4c0.4-0.7,1.1-1.2,1.8-1.5
	c0.9-0.3,2-0.5,3-0.5c0.7,0,1.4,0.1,2,0.2c0.6,0.1,1.3,0.3,1.9,0.6c0.6,0.3,1.2,0.6,1.7,1l-1.6,2c-0.6-0.4-1.3-0.8-2-1
	c-0.6-0.2-1.3-0.3-2-0.3c-0.7-0.1-1.4,0.1-2.1,0.5c-0.5,0.3-0.7,0.8-0.7,1.4c0,0.3,0.1,0.6,0.4,0.8c0.3,0.2,0.6,0.3,1,0.4
	c0.6,0.1,1.1,0.1,1.7,0.2h0.2h0.3h0.1c0.8,0,1.7,0.2,2.5,0.4c0.7,0.2,1.3,0.6,1.7,1.2c0.5,0.7,0.8,1.6,0.7,2.5
	c0,0.9-0.2,1.7-0.6,2.5c-0.5,0.7-1.1,1.2-1.9,1.5c-1,0.4-2.1,0.5-3.2,0.5C450.6,412.1,449.8,412.1,449,411.9z"/>
<path class="st3" d="M462.9,411.4c-0.9-0.5-1.6-1.2-2.1-2.1c-0.5-1-0.7-2.2-0.7-3.3v-1.6c0-1.2,0.2-2.4,0.7-3.5
	c0.4-0.9,1.1-1.7,2-2.2c1-0.5,2-0.8,3.1-0.8c1.1,0,2.1,0.3,2.9,0.9c0.9,0.6,1.5,1.5,1.9,2.5c0.5,1.3,0.7,2.6,0.6,3.9v0.9h-9.3V404
	h6.7c0-0.9-0.3-1.9-0.9-2.6c-0.5-0.6-1.2-0.9-2-0.9c-0.9-0.1-1.8,0.3-2.4,1c-0.6,0.8-0.9,1.8-0.8,2.8v1.8c-0.1,1,0.3,1.9,0.9,2.6
	c0.7,0.6,1.6,1,2.6,0.9c0.6,0,1.1-0.1,1.6-0.3c0.5-0.2,1-0.5,1.4-0.9l1.8,1.8c-0.7,0.6-1.4,1.2-2.3,1.5c-0.8,0.3-1.7,0.5-2.6,0.5
	C465,412.2,463.9,412,462.9,411.4z"/>
<path class="st3" d="M476.8,411.5c-0.7-0.5-1.3-1.1-1.6-1.9c-0.4-1-0.6-2-0.6-3v-3c0-1,0.2-2.1,0.5-3c0.3-0.8,0.9-1.5,1.6-1.9
	c0.8-0.5,1.6-0.7,2.5-0.7c0.8,0,1.6,0.2,2.2,0.6c0.7,0.4,1.3,1.1,1.6,1.8l-0.3,2.8c0-0.5-0.1-1-0.3-1.5c-0.2-0.4-0.5-0.7-0.9-0.9
	c-0.5-0.2-1-0.3-1.5-0.3c-0.8,0-1.5,0.3-2.1,0.8c-0.5,0.7-0.8,1.5-0.7,2.3v3c-0.1,0.8,0.2,1.7,0.7,2.3c0.5,0.6,1.3,0.9,2.1,0.8
	c0.5,0,1-0.1,1.5-0.3c0.4-0.2,0.7-0.6,0.9-1c0.2-0.5,0.3-1,0.3-1.5l0.2,2.9c-0.3,0.7-0.7,1.3-1.3,1.7c-0.7,0.5-1.5,0.7-2.3,0.7
	C478.5,412.2,477.6,412,476.8,411.5z M482.9,392.7h2.7v19.3h-2.7V392.7z"/>
<path class="st3" d="M497,398.2h2.7v13.8H497V398.2z M505.2,403.6c0.1-0.8-0.2-1.6-0.7-2.3c-0.5-0.6-1.3-0.8-2-0.8
	c-0.7,0-1.5,0.2-2,0.7c-0.5,0.5-0.8,1.2-0.7,2l-0.3-2.6c0.4-0.8,1-1.4,1.7-1.9c0.7-0.4,1.5-0.7,2.3-0.7c0.9,0,1.7,0.2,2.5,0.7
	c0.7,0.5,1.2,1.1,1.6,1.9c0.4,1,0.6,2,0.5,3v8.4h-2.7L505.2,403.6z M513.5,403.6c0.1-0.8-0.2-1.6-0.8-2.3c-0.6-0.6-1.3-0.8-2.1-0.8
	c-0.7,0-1.4,0.2-2,0.8c-0.5,0.6-0.7,1.4-0.7,2.2l-0.5-2.7c0.4-0.8,1-1.6,1.7-2.1c0.7-0.5,1.5-0.8,2.4-0.7c0.9,0,1.8,0.2,2.5,0.7
	c0.7,0.5,1.3,1.1,1.6,1.9c0.4,1,0.6,2,0.6,3v8.4h-2.7L513.5,403.6z"/>
<path class="st3" d="M522.5,411.4c-0.9-0.5-1.5-1.2-2-2c-0.5-1-0.7-2.1-0.7-3.2v-2.2c0-1.1,0.2-2.2,0.7-3.2c0.4-0.9,1.1-1.6,1.9-2
	c1.9-0.9,4.2-0.9,6.1,0c0.8,0.5,1.5,1.2,1.9,2c0.5,1,0.7,2.1,0.7,3.2v2.3c0,1.1-0.2,2.2-0.7,3.2c-0.4,0.9-1.1,1.6-1.9,2
	C526.6,412.4,524.4,412.4,522.5,411.4L522.5,411.4z M527.7,408.7c0.6-0.7,0.8-1.6,0.8-2.5v-2.3c0.1-0.9-0.2-1.8-0.8-2.5
	c-1.2-1.2-3.2-1.2-4.4,0c-0.6,0.7-0.8,1.6-0.8,2.5v2.3c-0.1,0.9,0.2,1.8,0.8,2.5C524.6,409.9,526.5,409.9,527.7,408.7z"/>
<path class="st3" d="M536.8,411.5c-0.7-0.5-1.3-1.1-1.6-1.9c-0.4-1-0.6-2-0.6-3v-3c0-1,0.2-2.1,0.5-3c0.3-0.8,0.9-1.5,1.6-1.9
	c0.8-0.5,1.6-0.7,2.5-0.7c0.8,0,1.6,0.2,2.2,0.6c0.7,0.4,1.3,1.1,1.6,1.8l-0.3,2.8c0-0.5-0.1-1-0.3-1.5c-0.2-0.4-0.5-0.7-0.9-0.9
	c-0.5-0.2-1-0.3-1.5-0.3c-0.8,0-1.5,0.3-2.1,0.8c-0.5,0.7-0.8,1.5-0.7,2.3v3c-0.1,0.8,0.2,1.7,0.7,2.3c0.5,0.6,1.3,0.9,2.1,0.8
	c0.5,0,1-0.1,1.5-0.3c0.4-0.2,0.7-0.6,0.9-1c0.2-0.5,0.3-1,0.3-1.5l0.2,2.9c-0.3,0.7-0.7,1.3-1.3,1.7c-0.7,0.5-1.5,0.7-2.3,0.7
	C538.5,412.2,537.6,412,536.8,411.5z M542.9,392.7h2.7v19.3h-2.7V392.7z"/>
<path class="st3" d="M552.1,411.4c-0.9-0.5-1.6-1.2-2.1-2.1c-0.5-1-0.7-2.2-0.7-3.3v-1.6c0-1.2,0.2-2.4,0.7-3.5
	c0.4-0.9,1.1-1.7,2-2.2c1-0.5,2-0.8,3.1-0.8c1.1,0,2.1,0.3,2.9,0.9c0.9,0.6,1.5,1.5,1.9,2.5c0.5,1.3,0.7,2.6,0.6,3.9v0.9h-9.3V404
	h6.7c0-0.9-0.3-1.9-0.9-2.6c-0.5-0.6-1.2-0.9-2-0.9c-0.9-0.1-1.8,0.3-2.4,1c-0.6,0.8-0.9,1.8-0.8,2.8v1.8c-0.1,1,0.3,1.9,0.9,2.6
	c0.7,0.6,1.6,1,2.6,0.9c0.6,0,1.1-0.1,1.6-0.3c0.5-0.2,1-0.5,1.4-0.9l1.8,1.8c-0.7,0.6-1.4,1.2-2.3,1.5c-0.8,0.3-1.7,0.5-2.6,0.5
	C554.2,412.2,553.1,412,552.1,411.4z"/>
<path class="st3" d="M564.2,398.2h2.7v13.8h-2.7V398.2z M570.9,400.8c-0.4-0.2-0.8-0.2-1.3-0.2c-0.7,0-1.5,0.2-2,0.7
	c-0.5,0.5-0.7,1.2-0.7,2l-0.3-2.6c0.4-0.8,1-1.4,1.7-1.9c0.7-0.4,1.4-0.7,2.2-0.7c0.6,0,1.2,0.1,1.7,0.3c0.5,0.2,0.9,0.4,1.3,0.8
	l-1.8,2.4C571.6,401.1,571.3,400.9,570.9,400.8z"/>
<path class="st3" d="M576.5,411.1c-0.9-0.8-1.4-2-1.3-3.2c-0.1-1.1,0.3-2.3,1.1-3.1c1-0.8,2.2-1.1,3.5-1h3.8l0.2,2.2h-4.1
	c-0.6,0-1.1,0.1-1.6,0.5c-0.4,0.4-0.6,0.9-0.5,1.4c0,0.6,0.2,1.2,0.7,1.6c0.6,0.4,1.4,0.6,2.1,0.5c0.8,0,1.6-0.1,2.3-0.3
	c0.5-0.1,0.8-0.6,0.8-1l0.3,1.9c-0.2,0.4-0.5,0.7-0.9,0.9c-0.4,0.2-0.8,0.4-1.2,0.5c-0.5,0.1-1,0.2-1.6,0.2
	C578.9,412.2,577.6,411.9,576.5,411.1z M583.7,403.2c0-0.8-0.2-1.5-0.7-2.1c-0.5-0.5-1.3-0.8-2-0.7c-0.5,0-1.1,0.1-1.6,0.3
	c-0.5,0.2-1,0.4-1.4,0.7l-2-1.4c0.6-0.7,1.3-1.2,2.1-1.5c0.9-0.4,1.9-0.5,2.8-0.5c1,0,2,0.2,2.9,0.6c0.8,0.4,1.4,1,1.8,1.8
	c0.4,0.9,0.7,1.8,0.6,2.8v8.8h-2.6L583.7,403.2z"/>
<path class="st3" d="M589.2,398.2h6.2v2.4h-6.2V398.2z M591.4,411.1c-0.6-0.8-0.8-1.7-0.8-2.7v-14.2h2.7v14.2c0,0.3,0.1,0.5,0.2,0.8
	c0.1,0.2,0.4,0.3,0.6,0.3h1.3v2.6h-1.6C593,412.1,592.1,411.7,591.4,411.1L591.4,411.1z"/>
<path class="st3" d="M599.1,392.7h2.7v2.7h-2.7V392.7z M599.1,398.2h2.7v13.8h-2.7V398.2z"/>
<path class="st3" d="M608.2,411.4c-0.8-0.5-1.5-1.2-1.9-2c-0.5-1-0.7-2.1-0.7-3.2v-2.2c0-1.1,0.2-2.2,0.7-3.2c0.4-0.9,1.1-1.6,1.9-2
	c1.9-0.9,4.2-0.9,6.1,0c0.8,0.5,1.5,1.2,1.9,2c0.5,1,0.7,2.1,0.7,3.2v2.3c0,1.1-0.2,2.2-0.7,3.2c-0.4,0.9-1.1,1.6-1.9,2
	C612.4,412.4,610.1,412.4,608.2,411.4L608.2,411.4z M613.4,408.7c0.6-0.7,0.8-1.6,0.8-2.5v-2.3c0.1-0.9-0.2-1.8-0.8-2.5
	c-1.2-1.2-3.2-1.2-4.4,0c-0.6,0.7-0.8,1.6-0.8,2.5v2.3c-0.1,0.9,0.2,1.8,0.8,2.5C610.3,409.9,612.2,409.9,613.4,408.7z"/>
<path class="st3" d="M620.8,398.2h2.7v13.8h-2.7V398.2z M629.1,403.6c0.1-0.8-0.2-1.6-0.8-2.3c-0.6-0.6-1.3-0.8-2.1-0.8
	c-0.7,0-1.5,0.2-2,0.7c-0.5,0.5-0.8,1.2-0.7,2l-0.3-2.6c0.4-0.8,1-1.4,1.7-1.9c0.7-0.4,1.5-0.7,2.3-0.7c1.3-0.1,2.6,0.5,3.5,1.5
	c0.9,1.2,1.3,2.7,1.2,4.1v8.4h-2.7L629.1,403.6z"/>
<path class="st3" d="M333.8,396.2L333.8,396.2c0.7,0.7,0.7,1.8,0.1,2.6c0,0,0,0-0.1,0.1l-12.6,12.6c-0.7,0.7-1.8,0.7-2.6,0.1
	c0,0,0,0-0.1-0.1l0,0c-0.7-0.7-0.7-1.8,0-2.6c0,0,0,0,0,0l12.6-12.6C331.9,395.5,333.1,395.5,333.8,396.2
	C333.8,396.2,333.8,396.2,333.8,396.2z"/>
<path class="st3" d="M305.8,396.2L305.8,396.2c0.7-0.7,1.8-0.7,2.6-0.1c0,0,0,0,0.1,0.1l12.6,12.6c0.7,0.7,0.7,1.8,0,2.6
	c0,0,0,0,0,0l0,0c-0.7,0.7-1.8,0.7-2.6,0c0,0,0,0,0,0l-12.6-12.6C305.1,398.1,305.1,397,305.8,396.2
	C305.8,396.2,305.8,396.2,305.8,396.2z"/>
<circle class="st7" cx="438.2" cy="527.3" r="23.4"/>
<path class="st4" d="M478.1,535.9c-0.9-0.4-1.6-1-2.2-1.8l2.3-1.7c0.3,0.5,0.7,0.8,1.1,1c0.5,0.3,1.1,0.4,1.7,0.4
	c1,0.1,1.9-0.3,2.6-1c0.6-0.8,1-1.8,0.9-2.9v-13.8h2.8v13.7c0,1.2-0.2,2.4-0.7,3.6c-0.5,1-1.2,1.7-2.1,2.3c-1.1,0.5-2.2,0.8-3.4,0.8
	C480,536.5,479,536.3,478.1,535.9z"/>
<path class="st4" d="M494.3,535.7c-0.9-0.5-1.6-1.2-2-2.1c-0.5-1.1-0.7-2.2-0.7-3.4v-2.3c0-1.2,0.2-2.3,0.7-3.3
	c0.4-0.9,1.1-1.6,2-2.1c2-1,4.4-1,6.4,0c0.9,0.5,1.6,1.2,2,2.1c0.5,1,0.7,2.2,0.7,3.3v2.4c0,1.2-0.2,2.3-0.7,3.3
	c-0.4,0.9-1.1,1.6-2,2.1C498.7,536.7,496.3,536.7,494.3,535.7z M499.8,532.9c0.6-0.7,0.9-1.7,0.8-2.6v-2.4c0.1-0.9-0.2-1.9-0.8-2.6
	c-1.3-1.2-3.3-1.2-4.6,0c-0.6,0.7-0.9,1.7-0.8,2.6v2.4c-0.1,0.9,0.2,1.9,0.8,2.6C496.5,534.1,498.5,534.1,499.8,532.9z"/>
<path class="st4" d="M507.4,521.9h2.8v14.3h-2.8V521.9z M516.2,527.6c0.1-0.9-0.2-1.7-0.8-2.3c-0.6-0.6-1.4-0.9-2.2-0.8
	c-0.8-0.1-1.6,0.2-2.1,0.7c-0.5,0.6-0.8,1.3-0.7,2.1l-0.3-2.8c0.4-0.8,1-1.5,1.7-2c0.7-0.5,1.5-0.7,2.4-0.7c1.4-0.1,2.7,0.5,3.6,1.5
	c0.9,1.2,1.4,2.8,1.3,4.3v8.7h-2.8L516.2,527.6z"/>
<path class="st4" d="M523.9,535.4c-0.9-0.9-1.4-2.1-1.3-3.3c-0.1-1.2,0.3-2.4,1.2-3.2c1-0.8,2.3-1.2,3.6-1.1h4.1l0.2,2.3h-4.3
	c-0.6,0-1.2,0.1-1.7,0.5c-0.4,0.4-0.6,0.9-0.6,1.5c0,0.6,0.2,1.2,0.7,1.6c0.7,0.4,1.4,0.6,2.2,0.5c0.8,0,1.6-0.1,2.4-0.3
	c0.5-0.1,0.8-0.6,0.8-1.1l0.3,2c-0.2,0.4-0.5,0.7-0.9,1c-0.4,0.3-0.8,0.4-1.3,0.6c-0.5,0.1-1.1,0.2-1.6,0.2
	C526.4,536.6,525,536.2,523.9,535.4z M531.4,527.2c0-0.8-0.2-1.6-0.7-2.2c-0.6-0.5-1.3-0.8-2.1-0.8c-0.6,0-1.1,0.1-1.7,0.3
	c-0.5,0.2-1,0.4-1.5,0.7l-2.1-1.4c0.6-0.7,1.3-1.2,2.1-1.5c0.9-0.4,1.9-0.6,3-0.5c1.1,0,2.1,0.2,3.1,0.6c0.8,0.4,1.5,1,1.9,1.8
	c0.5,0.9,0.7,1.9,0.7,2.9v9.2h-2.7L531.4,527.2z"/>
<path class="st4" d="M538.3,516.2h2.8v20.1h-2.8V516.2z M547,527.6c0.1-0.9-0.2-1.7-0.8-2.3c-0.6-0.6-1.4-0.9-2.2-0.8
	c-0.8-0.1-1.5,0.2-2.1,0.7c-0.5,0.5-0.8,1.3-0.8,2l-0.3-2.8c0.4-0.8,1-1.5,1.7-2c0.7-0.5,1.5-0.7,2.4-0.7c1.4-0.1,2.7,0.5,3.6,1.5
	c0.9,1.2,1.4,2.8,1.3,4.3v8.7H547L547,527.6z"/>
<circle class="st5" cx="438.2" cy="590.4" r="23.4"/>
<path class="st4" d="M475.2,579.3h14.2v2.7h-14.2V579.3z M480.9,580.9h2.8v18.4h-2.8V580.9z"/>
<path class="st4" d="M492.1,598.8c-0.9-0.5-1.6-1.2-2-2.1c-0.5-1.1-0.7-2.2-0.7-3.4V591c0-1.2,0.2-2.3,0.7-3.3
	c0.4-0.9,1.1-1.6,2-2.1c2-1,4.4-1,6.4,0c0.9,0.5,1.6,1.2,2,2.1c0.5,1,0.7,2.2,0.7,3.3v2.4c0,1.2-0.2,2.3-0.7,3.3
	c-0.4,0.9-1.1,1.6-2,2.1C496.5,599.8,494.2,599.8,492.1,598.8z M497.6,596c0.6-0.7,0.9-1.7,0.8-2.6V591c0.1-0.9-0.2-1.8-0.8-2.6
	c-1.3-1.2-3.3-1.2-4.6,0c-0.6,0.7-0.9,1.7-0.8,2.6v2.4c-0.1,0.9,0.2,1.9,0.8,2.6C494.3,597.2,496.3,597.2,497.6,596z"/>
<path class="st4" d="M505.3,579.3h2.8v20.1h-2.8V579.3z M509.3,598.9c-0.7-0.4-1.2-1.1-1.5-1.8l0.2-3c0,0.5,0.1,1.1,0.3,1.6
	c0.2,0.4,0.5,0.8,1,1c0.5,0.2,1,0.4,1.5,0.4c0.8,0,1.6-0.3,2.2-0.8c0.5-0.7,0.8-1.5,0.8-2.4v-3.1c0.1-0.9-0.2-1.8-0.8-2.4
	c-0.6-0.6-1.3-0.9-2.2-0.9c-0.5,0-1.1,0.1-1.5,0.3c-0.4,0.2-0.7,0.6-1,1c-0.2,0.5-0.3,1-0.3,1.5l-0.3-2.8c0.4-0.8,1-1.5,1.7-1.9
	c0.7-0.5,1.5-0.7,2.3-0.7c0.9,0,1.8,0.2,2.6,0.7c0.7,0.5,1.3,1.2,1.7,2c0.4,1,0.6,2.1,0.6,3.2v3.1c0,1.1-0.2,2.1-0.6,3.1
	c-0.4,0.8-0.9,1.5-1.7,2c-0.8,0.5-1.8,0.7-2.7,0.7C510.8,599.6,510,599.4,509.3,598.9z"/>
<path class="st4" d="M520.6,579.3h2.8v2.8h-2.8V579.3z M520.6,585h2.8v14.3h-2.8V585z"/>
<path class="st4" d="M528.4,598.5c-0.9-0.9-1.4-2.1-1.3-3.3c-0.1-1.2,0.3-2.4,1.2-3.2c1-0.8,2.3-1.2,3.6-1.1h4.1l0.2,2.3h-4.3
	c-0.6,0-1.2,0.1-1.7,0.5c-0.4,0.4-0.6,0.9-0.5,1.5c0,0.6,0.2,1.2,0.7,1.6c0.7,0.4,1.4,0.6,2.2,0.5c0.8,0,1.6-0.1,2.4-0.3
	c0.5-0.1,0.8-0.6,0.8-1.1l0.3,2c-0.2,0.4-0.5,0.7-0.9,1c-0.4,0.3-0.8,0.4-1.3,0.6c-0.5,0.1-1.1,0.2-1.6,0.2
	C530.9,599.7,529.5,599.3,528.4,598.5z M535.8,590.3c0-0.8-0.2-1.6-0.7-2.2c-0.6-0.5-1.3-0.8-2.1-0.8c-0.6,0-1.1,0.1-1.7,0.3
	c-0.5,0.2-1,0.4-1.5,0.7l-2.1-1.4c0.6-0.7,1.3-1.2,2.1-1.5c0.9-0.4,1.9-0.6,3-0.5c1.1,0,2.1,0.2,3.1,0.6c0.8,0.4,1.5,1,1.9,1.8
	c0.5,0.9,0.7,1.9,0.7,2.9v9.2h-2.7L535.8,590.3z"/>
<path class="st4" d="M545.5,599.3c-0.7-0.2-1.4-0.4-2.1-0.7c-0.7-0.3-1.3-0.7-1.8-1.2l1.7-2.1c0.7,0.6,1.5,1,2.3,1.3
	c0.7,0.3,1.5,0.4,2.3,0.4c0.9,0.1,1.7-0.1,2.5-0.5c0.5-0.3,0.9-0.9,0.8-1.6c0-0.4-0.1-0.8-0.5-1c-0.3-0.2-0.7-0.4-1.1-0.5
	c-0.5-0.1-1.1-0.2-1.9-0.2h-0.2h-0.2H547c-0.8,0-1.6-0.2-2.4-0.4c-0.6-0.2-1.2-0.6-1.6-1.1c-0.5-0.7-0.7-1.5-0.6-2.3
	c0-0.9,0.2-1.8,0.6-2.5c0.4-0.7,1.1-1.2,1.8-1.5c1-0.4,2-0.5,3.1-0.5c0.7,0,1.4,0.1,2.1,0.2c1.3,0.3,2.6,0.8,3.7,1.6l-1.7,2
	c-0.7-0.4-1.4-0.8-2.1-1c-0.7-0.2-1.3-0.3-2-0.3c-0.8-0.1-1.5,0.1-2.2,0.5c-0.5,0.3-0.7,0.9-0.7,1.5c0,0.4,0.1,0.7,0.4,0.9
	c0.3,0.2,0.7,0.3,1,0.4c0.4,0.1,1,0.1,1.8,0.2h0.2h0.2h0.2c0.9,0,1.7,0.2,2.6,0.4c0.7,0.2,1.3,0.6,1.8,1.2c0.5,0.8,0.8,1.7,0.7,2.6
	c0,0.9-0.2,1.8-0.7,2.6c-0.5,0.7-1.2,1.3-2.1,1.5c-1.1,0.4-2.2,0.5-3.3,0.5C547.1,599.6,546.3,599.5,545.5,599.3z"/>
<path class="st3" d="M375,455.4h-1.8v-3.5c0-4.9-3.9-8.8-8.8-8.8c-4.9,0-8.8,3.9-8.8,8.8v3.5h-1.8c-1.9,0-3.5,1.6-3.5,3.5v17.6
	c0,1.9,1.6,3.5,3.5,3.5h21.2c1.9,0,3.5-1.6,3.5-3.5v-17.6C378.4,457,376.9,455.5,375,455.4z M364.4,471.3c-1.9,0-3.5-1.6-3.5-3.5
	s1.6-3.5,3.5-3.5s3.5,1.6,3.5,3.5v0C367.9,469.7,366.4,471.3,364.4,471.3z M369.9,455.4h-10.9v-3.5c-0.1-3,2.2-5.6,5.2-5.7
	c3-0.1,5.6,2.2,5.7,5.2c0,0.1,0,0.3,0,0.4V455.4z"/>
<path class="st12" d="M817,443.5h74.3c5.4,0,9.9,4.4,9.9,9.9v16.4c0,5.4-4.4,9.9-9.9,9.9H817c-5.4,0-9.9-4.4-9.9-9.9v-16.4
	C807.2,447.9,811.6,443.5,817,443.5z"/>
</svg>
