<?xml version="1.0" encoding="utf-8"?>
<!-- Generator: Adobe Illustrator 25.0.0, SVG Export Plug-In . SVG Version: 6.00 Build 0)  -->
<svg version="1.1" id="Layer_1" xmlns="http://www.w3.org/2000/svg" xmlns:xlink="http://www.w3.org/1999/xlink" x="0px" y="0px"
	 viewBox="0 0 1203.4 1000.4" style="enable-background:new 0 0 1203.4 1000.4;" xml:space="preserve">
<style type="text/css">
	.st0{fill:#292841;}
	.st1{fill:#36393F;}
	.st2{fill:#2F3136;}
	.st3{fill:#B9BBBE;}
	.st4{fill:#FFFFFF;}
	.st5{fill:#ED4245;}
	.st6{fill:#F6F6F6;}
	.st7{fill:#5865F2;}
	.st8{fill:#57F287;}
	.st9{fill:#FEE75C;}
	.st10{fill:#EB459E;}
	.st11{fill:#4FDC7C;}
	.st12{opacity:0.24;fill:#B9BBBE;enable-background:new    ;}
	.st13{opacity:0.5;fill:#292841;}
	.st14{opacity:0.5;fill:#FFFFFF;}
	.st15{opacity:0.5;fill:#B9BBBE;}
	.st16{opacity:0.5;fill:#ED4245;}
	.st17{opacity:0.5;fill:#5865F2;}
	.st18{fill:#C2905B;}
	.st19{fill:#9FB35B;}
	.st20{fill:#A17548;}
	.st21{enable-background:new    ;}
	.st22{fill:#523C25;}
	.st23{fill:#725333;}
	.st24{fill:#8D663F;}
	.st25{fill:#606060;}
	.st26{fill:none;}
	.st27{opacity:0.43;}
	.st28{fill:#5664EC;}
	.st29{opacity:0.24;fill:url(#SVGID_1_);enable-background:new    ;}
</style>
<path class="st0" d="M940.1,339.6H290.4c-10.1,0-18.3,8.2-18.3,18.3V626c0,10.1,8.2,18.3,18.3,18.3h649.7c10.1,0,18.3-8.2,18.3-18.3
	V357.9C958.4,347.8,950.2,339.6,940.1,339.6z"/>
<g>
	<g>
		<path class="st4" d="M351.7,479.6l10.2-31.3l75.5,24.5l-10.2,31.5L351.7,479.6z M372.2,543.1l46.6-64.3l26.7,19.5L399,562.5
			L372.2,543.1z M415.8,409.1h33v79.4h-33V409.1z M418.9,498.3l26.7-19.5l46.6,64.3l-26.7,19.5L418.9,498.3z M427.2,472.8l75.5-24.5
			l10.2,31.3l-75.5,24.7L427.2,472.8z"/>
		<path class="st4" d="M534.4,479.6l10.2-31.3l75.5,24.5l-10.2,31.5L534.4,479.6z M554.9,543.1l46.6-64.3l26.7,19.5l-46.6,64.3
			L554.9,543.1z M598.4,409.1h33v79.4h-33V409.1z M601.6,498.3l26.7-19.5l46.6,64.3l-26.7,19.5L601.6,498.3z M609.8,472.8l75.5-24.5
			l10.2,31.3L620,504.3L609.8,472.8z"/>
		<path class="st4" d="M717,479.6l10.2-31.3l75.5,24.5l-10.2,31.5L717,479.6z M737.6,543.1l46.7-64.3l26.7,19.5l-46.6,64.3
			L737.6,543.1z M781.1,409.1h33v79.4h-33V409.1z M784.2,498.3l26.7-19.5l46.6,64.3l-26.7,19.5L784.2,498.3z M792.5,472.8l75.5-24.5
			l10.2,31.3l-75.5,24.7L792.5,472.8z"/>
	</g>
</g>
</svg>
