<?xml version="1.0" encoding="utf-8"?>
<!-- Generator: Adobe Illustrator 25.0.0, SVG Export Plug-In . SVG Version: 6.00 Build 0)  -->
<svg version="1.1" id="Layer_1" xmlns="http://www.w3.org/2000/svg" xmlns:xlink="http://www.w3.org/1999/xlink" x="0px" y="0px"
	 viewBox="0 0 1203.4 1000.4" style="enable-background:new 0 0 1203.4 1000.4;" xml:space="preserve">
<style type="text/css">
	.st0{fill:#36393F;}
	.st1{fill:#2F3136;}
	.st2{fill:#292841;}
	.st3{fill:#B9BBBE;}
	.st4{fill:#FFFFFF;}
	.st5{fill:#ED4245;}
	.st6{fill:#F6F6F6;}
	.st7{fill:#5865F2;}
	.st8{fill:#57F287;}
	.st9{fill:#FEE75C;}
	.st10{fill:#EB459E;}
	.st11{fill:#4FDC7C;}
	.st12{opacity:0.24;fill:#B9BBBE;enable-background:new    ;}
	.st13{opacity:0.5;fill:#292841;}
	.st14{opacity:0.5;fill:#FFFFFF;}
	.st15{opacity:0.5;fill:#B9BBBE;}
	.st16{opacity:0.5;fill:#ED4245;}
	.st17{opacity:0.5;fill:#5865F2;}
	.st18{fill:#C2905B;}
	.st19{fill:#9FB35B;}
	.st20{fill:#A17548;}
	.st21{enable-background:new    ;}
	.st22{fill:#523C25;}
	.st23{fill:#725333;}
	.st24{fill:#8D663F;}
	.st25{fill:#606060;}
	.st26{fill:none;}
	.st27{opacity:0.43;}
</style>
<path class="st2" d="M884.1,180.4H189.7c-10.1,0-18.4,8.2-18.4,18.3v151.2c0,10.2,8.2,18.4,18.4,18.4h694.3
	c10.2,0,18.4-8.2,18.4-18.4V198.7C902.4,188.6,894.2,180.4,884.1,180.4z M237.1,223.4l-14,14c-0.4,0.4-1,0.6-1.5,0.6
	c0,0-0.1,0-0.1,0c-0.5,0-1-0.2-1.4-0.6l-13.9-14c-0.8-0.8-0.8-2.1,0-2.9c0.8-0.8,2.1-0.8,2.9,0l12.6,12.6l12.6-12.6
	c0.8-0.8,2.1-0.8,2.9,0S237.9,222.6,237.1,223.4z"/>
<path class="st2" d="M237.1,220.5c0.8,0.8,0.8,2.1,0,2.9l-14,14c-0.4,0.4-1,0.6-1.5,0.6c0,0-0.1,0-0.1,0c-0.5,0-1-0.2-1.4-0.6
	l-13.9-14c-0.8-0.8-0.8-2.1,0-2.9c0.8-0.8,2.1-0.8,2.9,0l12.6,12.6l12.6-12.6C235,219.8,236.3,219.8,237.1,220.5z"/>
<path class="st2" d="M271.1,280.8v35.1c0,1.5-1.8,2.2-2.9,1.2l-10.1-10.1c-0.3-0.3-0.8-0.5-1.2-0.5h-8.4c-0.9,0-1.7-0.7-1.7-1.7
	v-12.8c0-0.9,0.8-1.7,1.7-1.7h8.4c0.4,0,0.8-0.2,1.2-0.5l10.1-10.1C269.3,278.6,271.1,279.3,271.1,280.8z"/>
<path class="st2" d="M278.6,286.6l-4.2-4.2h3.2c0-0.6,0.1-1.2,0.2-1.7c0.1-0.5,0.2-0.9,0.3-1.3c0-0.1,0.1-0.2,0.1-0.2
	c0.1-0.1,0.1-0.3,0.1-0.4c0.1-0.2,0.2-0.4,0.3-0.6c0,0,0,0,0,0c0.1-0.2,0.2-0.4,0.3-0.6c0,0,0,0,0,0c0.1-0.2,0.2-0.4,0.4-0.6
	c0.1-0.2,0.3-0.3,0.4-0.5c0,0,0,0,0,0c0.1-0.2,0.3-0.3,0.4-0.5h0c0.2-0.3,0.4-0.5,0.7-0.7c0,0,0,0,0,0c0.2-0.2,0.5-0.4,0.7-0.6
	c0.1-0.1,0.2-0.1,0.3-0.2c0.9-0.6,1.9-1,2.9-1.3c0.1,0,0.1,0,0.2,0c0.4-0.1,0.7-0.1,1.1-0.2c0.5,0,1-0.1,1.5,0
	c0.6,0,1.2,0.1,1.8,0.3c0.6,0.1,1.1,0.3,1.7,0.6c0,0,0,0,0,0c0.5,0.2,1,0.5,1.5,0.9h0c0.5,0.4,0.9,0.7,1.3,1.1
	c0.2,0.2,0.4,0.4,0.6,0.6c0.4,0.4,0.7,0.9,1,1.4v0c0.4,0.8,0.8,1.6,1,2.4c0.1,0.6,0.2,1.2,0.3,1.8c0.1,2.7-0.8,5.1-2.5,6.9
	c-0.2,0.2-0.5,0.5-0.7,0.7c-0.2,0.1-0.3,0.3-0.5,0.4c-1.2,1-2.7,1.7-4.4,1.9c-0.5,0.1-1,0.1-1.5,0.1h0c-0.7,0-1.3-0.1-1.9-0.2
	c-0.6-0.1-1.2-0.3-1.8-0.6c-1.1-0.5-2.2-1.2-3-2.1l1.5-1.5c1.3,1.3,3.2,2.2,5.3,2.2c0.2,0,0.5,0,0.7,0h0c0.5-0.1,0.9-0.1,1.4-0.3
	c0.7-0.2,1.3-0.5,1.9-0.8c0.6-0.3,1.1-0.8,1.6-1.3c1.3-1.4,2-3.3,2-5.3c-0.1-2.2-1.1-4.1-2.7-5.5c-0.4-0.3-0.7-0.6-1.1-0.8
	c-0.2-0.1-0.4-0.2-0.6-0.3c-0.8-0.4-1.8-0.6-2.7-0.6c-0.6,0-1.2,0-1.7,0.1c-0.4,0.1-0.8,0.2-1.3,0.3c0,0,0,0,0,0
	c-0.8,0.3-1.6,0.8-2.2,1.4c-0.2,0.1-0.3,0.3-0.5,0.5c-0.1,0.1-0.1,0.1-0.2,0.2c-0.2,0.3-0.5,0.6-0.7,0.9c-0.5,0.8-0.8,1.6-1.1,2.5
	c-0.1,0.2-0.1,0.5-0.1,0.7c0,0.1,0,0.3,0,0.4c0,0.1,0,0.3,0,0.4h3.2l-4.3,4.3v0h0L278.6,286.6L278.6,286.6z"/>
<path class="st2" d="M276.8,307C276.8,307,276.8,307,276.8,307c-0.2-0.3-0.3-0.6-0.3-1v-13.5l0,0l0.4,0.4c1.7,1.7,3.8,3,6.2,3.7h0
	c0.1,0.5,0.1,1.1,0.1,1.7c0,1.3-0.2,2.6-0.6,3.8c-0.6,2-1.8,3.7-3.3,5.1c-0.7,0.6-1.7,0.6-2.3,0C276.9,307.2,276.9,307.1,276.8,307z
	"/>
<polygon class="st2" points="287.8,282.6 291,284.5 291.6,284.8 291.4,285.1 291.4,285.1 290.8,286.2 290.7,286.2 290.7,286.2 
	286.2,283.5 286.2,283.5 286.2,278.2 287.8,278.2 "/>
<path class="st2" d="M295.3,296.6c0,0.6,0.1,1.1,0.1,1.7c0,3.4-0.7,6.6-1.9,9.5c-0.5,1.2-1.1,2.3-1.8,3.4c-0.3,0.5-0.7,1-1,1.5
	c-3,4-7.1,7.1-12,8.7c-0.6,0.2-1.3,0-1.7-0.4c-0.3-0.3-0.5-0.7-0.5-1.2v-2.1c0-0.2,0-0.3,0.1-0.5c0.1-0.5,0.5-0.9,1-1.1
	c1.8-0.7,3.5-1.6,5-2.7c0.7-0.6,1.4-1.2,2.1-1.9c3.3-3.4,5.3-8,5.3-13.1c0-0.5,0-0.9-0.1-1.3v0c0.5-0.1,0.9-0.2,1.4-0.3
	c1.4-0.4,2.7-1,3.8-1.8C295.2,295.5,295.3,296,295.3,296.6z"/>
<g>
	<g>
		<g>
			<path class="st4" d="M331.8,311.2c-1.6-0.9-2.8-2.3-3.7-4c-0.9-1.7-1.3-3.7-1.3-6V293c0-2.3,0.4-4.2,1.3-6c0.9-1.7,2.1-3,3.7-4
				c1.6-0.9,3.4-1.4,5.6-1.4c1.7,0,3.3,0.4,4.8,1.1s2.7,1.8,3.7,3.2c1,1.4,1.6,3,2,4.7h-4.4c-0.3-0.9-0.7-1.8-1.3-2.5
				c-0.6-0.7-1.3-1.3-2.2-1.7c-0.8-0.4-1.7-0.6-2.6-0.6c-1.2,0-2.3,0.3-3.3,0.9c-0.9,0.6-1.7,1.4-2.2,2.5c-0.5,1.1-0.8,2.3-0.8,3.8
				v8.3c0,1.4,0.3,2.7,0.8,3.8c0.5,1.1,1.2,1.9,2.2,2.5c0.9,0.6,2,0.9,3.3,0.9c0.9,0,1.8-0.2,2.6-0.6c0.8-0.4,1.6-0.9,2.2-1.7
				c0.6-0.7,1.1-1.6,1.3-2.6h4.4c-0.3,1.8-1,3.4-2,4.7c-1,1.4-2.2,2.4-3.7,3.2s-3.1,1.1-4.8,1.1
				C335.2,312.6,333.4,312.2,331.8,311.2z"/>
			<path class="st4" d="M353.5,290.6h4.3v21.7h-4.3V290.6z M364,294.7c-0.6-0.2-1.2-0.4-2-0.4c-1.4,0-2.4,0.4-3.1,1.1
				s-1.1,1.8-1.1,3.1l-0.4-4.2c0.7-1.3,1.5-2.3,2.6-3c1.1-0.7,2.2-1.1,3.5-1.1c1,0,1.9,0.1,2.7,0.4c0.8,0.3,1.5,0.7,2.1,1.3
				l-2.8,3.8C365,295.3,364.5,295,364,294.7z"/>
			<path class="st4" d="M375.5,311.5c-1.4-0.8-2.5-1.9-3.3-3.3c-0.7-1.5-1.1-3.2-1.1-5.3v-2.4c0-2.1,0.4-4,1.1-5.5
				c0.7-1.5,1.8-2.7,3.1-3.5s3-1.2,4.9-1.2c1.8,0,3.4,0.5,4.6,1.4s2.3,2.2,2.9,3.9c0.7,1.7,1,3.8,1,6.2v1.4h-14.6v-3.4h10.6
				c-0.1-1.8-0.6-3.1-1.4-4.1c-0.8-1-1.8-1.5-3.2-1.5c-1.6,0-2.9,0.5-3.8,1.6c-0.9,1.1-1.3,2.6-1.3,4.5v2.8c0,1.8,0.5,3.2,1.4,4.1
				c0.9,1,2.3,1.4,4,1.4c0.9,0,1.7-0.2,2.6-0.5c0.9-0.3,1.6-0.8,2.3-1.5l2.8,2.8c-1.1,1-2.3,1.8-3.6,2.4s-2.7,0.8-4,0.8
				C378.6,312.6,376.9,312.3,375.5,311.5z"/>
			<path class="st4" d="M395.6,311c-1.3-1.1-2-2.8-2-5.1c0-2.1,0.6-3.8,1.8-4.8s3-1.6,5.5-1.6h6.2l0.3,3.4H401
				c-1.1,0-1.9,0.2-2.5,0.7c-0.6,0.5-0.8,1.3-0.8,2.3c0,1.1,0.4,1.9,1.1,2.4c0.7,0.5,1.8,0.8,3.3,0.8c1.6,0,2.8-0.2,3.7-0.5
				c0.8-0.3,1.2-0.9,1.2-1.6l0.4,3.1c-0.4,0.6-0.8,1.1-1.4,1.4c-0.6,0.4-1.2,0.7-1.9,0.8c-0.7,0.2-1.5,0.3-2.4,0.3
				C399,312.6,397,312.1,395.6,311z M407,298.6c0-1.4-0.4-2.5-1.1-3.3c-0.8-0.8-1.8-1.2-3.2-1.2c-0.9,0-1.7,0.1-2.5,0.4
				c-0.8,0.3-1.6,0.6-2.2,1.1l-3.1-2.1c0.8-1,1.9-1.8,3.3-2.3c1.3-0.6,2.8-0.8,4.5-0.8c1.8,0,3.3,0.3,4.6,1s2.3,1.6,2.9,2.8
				s1,2.7,1,4.4v14H407V298.6z"/>
			<path class="st4" d="M415.8,290.6h9.8v3.8h-9.8V290.6z M419.3,311c-0.8-1-1.2-2.4-1.2-4.3v-22.4h4.3v22.4c0,0.5,0.1,0.9,0.3,1.2
				c0.2,0.3,0.5,0.4,0.9,0.4h2.1v4.1h-2.5C421.4,312.4,420.1,312,419.3,311z"/>
			<path class="st4" d="M435.2,311.5c-1.4-0.8-2.5-1.9-3.3-3.3c-0.7-1.5-1.1-3.2-1.1-5.3v-2.4c0-2.1,0.4-4,1.1-5.5
				c0.7-1.5,1.8-2.7,3.1-3.5s3-1.2,4.9-1.2c1.8,0,3.4,0.5,4.6,1.4s2.3,2.2,2.9,3.9c0.7,1.7,1,3.8,1,6.2v1.4H434v-3.4h10.6
				c-0.1-1.8-0.6-3.1-1.4-4.1c-0.8-1-1.8-1.5-3.2-1.5c-1.6,0-2.9,0.5-3.8,1.6c-0.9,1.1-1.3,2.6-1.3,4.5v2.8c0,1.8,0.5,3.2,1.4,4.1
				c0.9,1,2.3,1.4,4,1.4c0.9,0,1.7-0.2,2.6-0.5c0.9-0.3,1.6-0.8,2.3-1.5l2.8,2.8c-1.1,1-2.3,1.8-3.6,2.4s-2.7,0.8-4,0.8
				C438.4,312.6,436.7,312.3,435.2,311.5z"/>
			<path class="st4" d="M466.4,281.9h4.3v30.4h-4.3V281.9z M469.3,308.3h6.9c2.2,0,4-0.6,5.2-1.7s1.9-2.8,1.9-4.9v-9
				c0-2.1-0.6-3.8-1.9-4.9c-1.2-1.2-3-1.7-5.2-1.7h-6.9v-4.1h6.8c2.4,0,4.5,0.4,6.3,1.3c1.7,0.9,3,2.1,4,3.7
				c0.9,1.6,1.4,3.6,1.4,5.9v8.6c0,2.3-0.5,4.3-1.4,5.9c-0.9,1.6-2.2,2.9-4,3.7s-3.8,1.3-6.3,1.3h-6.7V308.3z"/>
			<path class="st4" d="M498.3,303.8c0,1.5,0.4,2.7,1.2,3.5c0.8,0.8,1.9,1.2,3.3,1.2c1.4,0,2.5-0.4,3.2-1.1c0.8-0.7,1.2-1.8,1.2-3.2
				l0.3,4.5c-0.4,1.1-1.2,2-2.2,2.7c-1,0.7-2.2,1.1-3.7,1.1c-2.4,0-4.3-0.8-5.6-2.3c-1.3-1.5-2-3.7-2-6.5v-13.2h4.3V303.8z
				 M507.2,290.6h4.2v21.7h-4.2V290.6z"/>
			<path class="st4" d="M521.4,311.5c-1.3-0.7-2.4-1.8-3.1-3.2c-0.7-1.4-1.1-3.1-1.1-5.1v-3.5c0-2,0.4-3.7,1.1-5.1
				c0.7-1.4,1.7-2.5,3.1-3.2s2.9-1.1,4.8-1.1c1.9,0,3.5,0.4,4.8,1.1s2.4,1.8,3.1,3.2c0.7,1.4,1.1,3.1,1.1,5.1v3.6
				c0,2-0.4,3.7-1.1,5.1c-0.7,1.4-1.7,2.5-3.1,3.2s-2.9,1.1-4.8,1.1C524.3,312.6,522.7,312.3,521.4,311.5z M529.7,307.2
				c0.8-0.9,1.2-2.2,1.2-3.9v-3.6c0-1.7-0.4-3-1.2-3.9c-0.8-0.9-2-1.4-3.5-1.4s-2.6,0.5-3.5,1.4c-0.8,0.9-1.2,2.2-1.2,3.9v3.6
				c0,1.7,0.4,3,1.2,3.9c0.8,0.9,2,1.4,3.5,1.4S528.9,308.1,529.7,307.2z"/>
		</g>
	</g>
</g>
<g>
	<g>
		<path class="st3" d="M257.6,216.6h3V238h-3V216.6z M259.6,235.1h4.8c1.6,0,2.8-0.4,3.7-1.2c0.9-0.8,1.3-2,1.3-3.5v-6.3
			c0-1.5-0.4-2.6-1.3-3.5c-0.9-0.8-2.1-1.2-3.7-1.2h-4.8v-2.8h4.7c1.7,0,3.2,0.3,4.4,0.9c1.2,0.6,2.1,1.5,2.8,2.6
			c0.6,1.1,1,2.5,1,4.1v6.1c0,1.6-0.3,3-1,4.1c-0.6,1.1-1.6,2-2.8,2.6c-1.2,0.6-2.7,0.9-4.4,0.9h-4.7V235.1z"/>
		<path class="st3" d="M279.7,237.4c-1-0.5-1.8-1.3-2.3-2.3c-0.5-1-0.8-2.3-0.8-3.7v-1.7c0-1.5,0.3-2.8,0.8-3.9
			c0.5-1.1,1.2-1.9,2.2-2.4c1-0.6,2.1-0.8,3.5-0.8c1.3,0,2.4,0.3,3.3,1c0.9,0.6,1.6,1.6,2.1,2.8c0.5,1.2,0.7,2.6,0.7,4.3v1h-10.3
			v-2.4h7.4c-0.1-1.2-0.4-2.2-1-2.9c-0.6-0.7-1.3-1-2.2-1c-1.1,0-2,0.4-2.6,1.1c-0.6,0.7-0.9,1.8-0.9,3.2v1.9c0,1.3,0.3,2.2,1,2.9
			c0.7,0.7,1.6,1,2.8,1c0.6,0,1.2-0.1,1.8-0.4c0.6-0.2,1.1-0.6,1.6-1l2,2c-0.8,0.7-1.6,1.3-2.5,1.7s-1.9,0.6-2.8,0.6
			C281.9,238.2,280.7,237.9,279.7,237.4z"/>
		<path class="st3" d="M292,222.7h7.6v2.6H292V222.7z M293.6,220.7c0-1.4,0.3-2.4,0.9-3c0.6-0.7,1.6-1,2.9-1h2.2v2.8h-2.1
			c-0.3,0-0.5,0.1-0.6,0.3s-0.2,0.5-0.2,0.8V238h-3V220.7z"/>
		<path class="st3" d="M303.4,237c-0.9-0.8-1.4-2-1.4-3.5c0-1.5,0.4-2.6,1.3-3.4s2.1-1.1,3.9-1.1h4.3l0.2,2.4h-4.5
			c-0.8,0-1.4,0.2-1.8,0.5c-0.4,0.3-0.6,0.9-0.6,1.6c0,0.8,0.3,1.3,0.8,1.7s1.3,0.6,2.3,0.6c1.1,0,2-0.1,2.6-0.4
			c0.6-0.2,0.8-0.6,0.8-1.1l0.3,2.1c-0.3,0.4-0.6,0.7-1,1c-0.4,0.3-0.8,0.5-1.3,0.6s-1.1,0.2-1.7,0.2
			C305.7,238.2,304.3,237.8,303.4,237z M311.3,228.3c0-1-0.3-1.8-0.8-2.3s-1.3-0.8-2.3-0.8c-0.6,0-1.2,0.1-1.8,0.3
			c-0.6,0.2-1.1,0.4-1.5,0.8l-2.2-1.5c0.6-0.7,1.3-1.2,2.3-1.6c0.9-0.4,2-0.6,3.2-0.6c1.3,0,2.3,0.2,3.2,0.7
			c0.9,0.4,1.6,1.1,2.1,1.9c0.5,0.8,0.7,1.9,0.7,3.1v9.8h-2.8V228.3z"/>
		<path class="st3" d="M321.7,232c0,1.1,0.3,1.9,0.8,2.5s1.3,0.9,2.3,0.9c1,0,1.7-0.3,2.3-0.8c0.5-0.5,0.8-1.3,0.8-2.2l0.2,3.2
			c-0.3,0.8-0.8,1.4-1.5,1.9c-0.7,0.5-1.6,0.8-2.6,0.8c-1.7,0-3-0.5-3.9-1.6c-0.9-1.1-1.4-2.6-1.4-4.6v-9.3h3V232z M327.9,222.7h3
			V238h-3V222.7z"/>
		<path class="st3" d="M338.5,234c0,0.4,0.1,0.7,0.2,0.9s0.4,0.3,0.7,0.3h1.4v2.8H339c-1.1,0-2-0.4-2.6-1.1c-0.6-0.7-0.9-1.7-0.9-3
			v-17.4h3V234z"/>
		<path class="st3" d="M343,222.7h6.9v2.7H343V222.7z M345.4,237c-0.6-0.7-0.9-1.7-0.9-3v-15.7h3V234c0,0.4,0.1,0.7,0.2,0.9
			s0.4,0.3,0.6,0.3h1.4v2.8h-1.7C346.9,238.1,346,237.7,345.4,237z"/>
		<path class="st3" d="M364.7,237.4c-1-0.5-1.7-1.3-2.3-2.3c-0.5-1-0.8-2.2-0.8-3.6v-2.5c0-1.4,0.3-2.6,0.8-3.5
			c0.5-1,1.3-1.7,2.3-2.2c1-0.5,2.2-0.8,3.6-0.8c0.8,0,1.5,0.1,2.2,0.3s1.3,0.5,1.9,0.8c0.6,0.4,1,0.8,1.4,1.3l-2.2,1.9
			c-0.4-0.5-0.9-0.9-1.5-1.1c-0.6-0.3-1.2-0.4-1.8-0.4c-1.2,0-2.1,0.3-2.7,1c-0.6,0.6-1,1.6-1,2.7v2.5c0,1.2,0.3,2.1,0.9,2.8
			c0.6,0.7,1.5,1,2.7,1c0.6,0,1.2-0.1,1.8-0.4c0.6-0.3,1.1-0.7,1.5-1.2l2.2,2.1c-0.4,0.5-0.9,0.9-1.4,1.3c-0.6,0.4-1.2,0.6-1.9,0.8
			c-0.7,0.2-1.4,0.3-2.2,0.3C366.8,238.2,365.6,237.9,364.7,237.4z"/>
		<path class="st3" d="M377.7,237c-0.9-0.8-1.4-2-1.4-3.5c0-1.5,0.4-2.6,1.3-3.4s2.1-1.1,3.9-1.1h4.3l0.2,2.4h-4.5
			c-0.8,0-1.4,0.2-1.8,0.5c-0.4,0.3-0.6,0.9-0.6,1.6c0,0.8,0.3,1.3,0.8,1.7s1.3,0.6,2.3,0.6c1.1,0,2-0.1,2.6-0.4
			c0.6-0.2,0.8-0.6,0.8-1.1l0.3,2.1c-0.3,0.4-0.6,0.7-1,1c-0.4,0.3-0.8,0.5-1.3,0.6s-1.1,0.2-1.7,0.2
			C380,238.2,378.6,237.8,377.7,237z M385.7,228.3c0-1-0.3-1.8-0.8-2.3s-1.3-0.8-2.3-0.8c-0.6,0-1.2,0.1-1.8,0.3
			c-0.6,0.2-1.1,0.4-1.5,0.8l-2.2-1.5c0.6-0.7,1.3-1.2,2.3-1.6c0.9-0.4,2-0.6,3.2-0.6c1.3,0,2.3,0.2,3.2,0.7
			c0.9,0.4,1.6,1.1,2.1,1.9c0.5,0.8,0.7,1.9,0.7,3.1v9.8h-2.8V228.3z"/>
		<path class="st3" d="M391.9,222.7h6.9v2.7h-6.9V222.7z M394.3,237c-0.6-0.7-0.9-1.7-0.9-3v-15.7h3V234c0,0.4,0.1,0.7,0.2,0.9
			s0.4,0.3,0.6,0.3h1.4v2.8H397C395.8,238.1,394.9,237.7,394.3,237z"/>
		<path class="st3" d="M405.5,237.4c-1-0.5-1.8-1.3-2.3-2.3c-0.5-1-0.8-2.3-0.8-3.7v-1.7c0-1.5,0.3-2.8,0.8-3.9
			c0.5-1.1,1.2-1.9,2.2-2.4c1-0.6,2.1-0.8,3.5-0.8c1.3,0,2.4,0.3,3.3,1c0.9,0.6,1.6,1.6,2.1,2.8c0.5,1.2,0.7,2.6,0.7,4.3v1h-10.3
			v-2.4h7.4c-0.1-1.2-0.4-2.2-1-2.9c-0.6-0.7-1.3-1-2.2-1c-1.1,0-2,0.4-2.6,1.1c-0.6,0.7-0.9,1.8-0.9,3.2v1.9c0,1.3,0.3,2.2,1,2.9
			c0.7,0.7,1.6,1,2.8,1c0.6,0,1.2-0.1,1.8-0.4c0.6-0.2,1.1-0.6,1.6-1l2,2c-0.8,0.7-1.6,1.3-2.5,1.7s-1.9,0.6-2.8,0.6
			C407.7,238.2,406.5,237.9,405.5,237.4z"/>
		<path class="st3" d="M421,237.5c-0.8-0.5-1.4-1.2-1.8-2.1s-0.6-2-0.6-3.3v-3.4c0-1.3,0.2-2.4,0.6-3.4c0.4-0.9,1-1.6,1.8-2.1
			c0.8-0.5,1.7-0.7,2.8-0.7c0.9,0,1.7,0.2,2.5,0.7c0.7,0.5,1.4,1.1,1.8,2l-0.3,3.1c0-0.6-0.1-1.2-0.4-1.7c-0.2-0.5-0.6-0.8-1-1
			c-0.4-0.2-1-0.4-1.6-0.4c-1,0-1.8,0.3-2.3,0.9c-0.5,0.6-0.8,1.5-0.8,2.6v3.3c0,1.1,0.3,2,0.8,2.6c0.5,0.6,1.3,0.9,2.3,0.9
			c0.6,0,1.2-0.1,1.6-0.4c0.4-0.2,0.8-0.6,1-1.1c0.2-0.5,0.4-1,0.4-1.7l0.2,3.2c-0.3,0.8-0.8,1.4-1.5,1.9c-0.7,0.5-1.5,0.8-2.5,0.8
			C422.7,238.2,421.8,238,421,237.5z M421,243.5c-0.9-0.4-1.6-1-2.1-1.8l2-1.8c0.4,0.5,0.9,1,1.4,1.2c0.5,0.3,1.1,0.4,1.7,0.4
			c1.1,0,2-0.3,2.7-0.9c0.6-0.6,0.9-1.5,0.9-2.7v-15.2h3v14.8c0,1.4-0.3,2.6-0.8,3.6c-0.5,1-1.3,1.8-2.2,2.3c-1,0.5-2.2,0.8-3.5,0.8
			C423,244.2,421.9,244,421,243.5z"/>
		<path class="st3" d="M437.7,237.4c-0.9-0.5-1.7-1.3-2.2-2.3c-0.5-1-0.7-2.2-0.7-3.6v-2.5c0-1.4,0.2-2.6,0.7-3.5
			c0.5-1,1.2-1.7,2.2-2.2c0.9-0.5,2.1-0.8,3.4-0.8s2.5,0.3,3.4,0.8s1.7,1.3,2.2,2.2c0.5,1,0.7,2.2,0.7,3.5v2.5
			c0,1.4-0.2,2.6-0.7,3.6c-0.5,1-1.2,1.7-2.2,2.3s-2.1,0.8-3.4,0.8S438.6,237.9,437.7,237.4z M443.5,234.4c0.6-0.7,0.9-1.6,0.9-2.8
			v-2.5c0-1.2-0.3-2.1-0.9-2.7c-0.6-0.6-1.4-1-2.4-1s-1.9,0.3-2.4,1c-0.6,0.6-0.9,1.6-0.9,2.7v2.5c0,1.2,0.3,2.1,0.9,2.8
			c0.6,0.7,1.4,1,2.4,1S442.9,235,443.5,234.4z"/>
		<path class="st3" d="M451.6,222.7h3V238h-3V222.7z M459,225.6c-0.4-0.2-0.9-0.2-1.4-0.2c-0.9,0-1.7,0.3-2.2,0.8
			c-0.5,0.5-0.8,1.3-0.8,2.2l-0.3-2.9c0.5-0.9,1.1-1.6,1.8-2.1s1.6-0.8,2.5-0.8c0.7,0,1.3,0.1,1.9,0.3c0.6,0.2,1.1,0.5,1.5,0.9
			l-2,2.6C459.7,226,459.4,225.8,459,225.6z"/>
		<path class="st3" d="M462.8,222.7h3.1l4.7,13.2l-1.7,3.2L462.8,222.7z M476.3,222.7l-6.5,18.8c-0.2,0.7-0.5,1.2-0.9,1.7
			c-0.4,0.4-0.9,0.7-1.4,0.9s-1.2,0.3-2.1,0.3h-0.6v-2.9h0.6c0.6,0,1-0.1,1.3-0.3c0.3-0.2,0.6-0.6,0.9-1.2l5.6-17.2H476.3z"/>
	</g>
</g>
<path class="st3" d="M237.1,223.4l-14,14c-0.4,0.4-1,0.6-1.5,0.6c-0.5,0-1-0.2-1.3-0.6c-0.4-0.4-0.6-0.9-0.6-1.5
	c0-0.5,0.2-1,0.6-1.4l1.3-1.3l12.6-12.6c0.8-0.8,2.1-0.8,2.9,0C237.9,221.3,237.9,222.6,237.1,223.4z"/>
<path class="st3" d="M223,237.4c-0.4,0.3-0.9,0.6-1.3,0.6c0,0-0.1,0-0.1,0c-0.5,0-1-0.2-1.4-0.6l-13.9-14c-0.8-0.8-0.8-2.1,0-2.9
	c0.8-0.8,2.1-0.8,2.9,0l12.6,12.6l1.3,1.3C223.8,235.3,223.8,236.6,223,237.4z"/>
<g>
	<path class="st3" d="M272.6,320.3h-1.5c-1.6,0-2.9-1.3-2.9-2.9v-38c0-1.6,1.3-2.9,2.9-2.9h1.5c1.6,0,2.9,1.3,2.9,2.9v38
		C275.6,319,274.2,320.3,272.6,320.3z"/>
	<path class="st3" d="M293.8,297.6v1.5c0,1.6-1.3,2.9-2.9,2.9h-38c-1.6,0-2.9-1.3-2.9-2.9v-1.5c0-1.6,1.3-2.9,2.9-2.9h38
		C292.5,294.7,293.8,296,293.8,297.6z"/>
</g>
<path class="st2" d="M1106.8,406.3H412.4c-10.1,0-18.4,8.2-18.4,18.3v151.2c0,10.2,8.2,18.4,18.4,18.4h694.3
	c10.2,0,18.4-8.2,18.4-18.4V424.6C1125.1,414.5,1116.9,406.3,1106.8,406.3z M459.8,449.3l-14,14c-0.4,0.4-1,0.6-1.5,0.6
	c0,0-0.1,0-0.1,0c-0.5,0-1-0.2-1.4-0.6l-13.9-14c-0.8-0.8-0.8-2.1,0-2.9c0.8-0.8,2.1-0.8,2.9,0l12.6,12.6l12.6-12.6
	c0.8-0.8,2.1-0.8,2.9,0S460.6,448.5,459.8,449.3z"/>
<path class="st2" d="M459.8,446.4c0.8,0.8,0.8,2.1,0,2.9l-14,14c-0.4,0.4-1,0.6-1.5,0.6c0,0-0.1,0-0.1,0c-0.5,0-1-0.2-1.4-0.6
	l-13.9-14c-0.8-0.8-0.8-2.1,0-2.9c0.8-0.8,2.1-0.8,2.9,0l12.6,12.6l12.6-12.6C457.7,445.6,459,445.6,459.8,446.4z"/>
<path class="st2" d="M493.8,506.7v35.1c0,1.5-1.8,2.2-2.9,1.2l-10.1-10.1c-0.3-0.3-0.8-0.5-1.2-0.5h-8.4c-0.9,0-1.7-0.7-1.7-1.7
	v-12.8c0-0.9,0.8-1.7,1.7-1.7h8.4c0.4,0,0.8-0.2,1.2-0.5l10.1-10.1C492,504.4,493.8,505.2,493.8,506.7z"/>
<path class="st2" d="M501.3,512.5l-4.2-4.2h3.2c0-0.6,0.1-1.2,0.2-1.7c0.1-0.5,0.2-0.9,0.3-1.3c0-0.1,0.1-0.2,0.1-0.2
	c0.1-0.1,0.1-0.3,0.1-0.4c0.1-0.2,0.2-0.4,0.3-0.6c0,0,0,0,0,0c0.1-0.2,0.2-0.4,0.3-0.6c0,0,0,0,0,0c0.1-0.2,0.2-0.4,0.4-0.6
	c0.1-0.2,0.3-0.3,0.4-0.5c0,0,0,0,0,0c0.1-0.2,0.3-0.3,0.4-0.5h0c0.2-0.3,0.4-0.5,0.7-0.7c0,0,0,0,0,0c0.2-0.2,0.5-0.4,0.7-0.6
	c0.1-0.1,0.2-0.1,0.3-0.2c0.9-0.6,1.9-1,2.9-1.3c0.1,0,0.1,0,0.2,0c0.4-0.1,0.7-0.1,1.1-0.2c0.5,0,1-0.1,1.5,0
	c0.6,0,1.2,0.1,1.8,0.3c0.6,0.1,1.1,0.3,1.7,0.6c0,0,0,0,0,0c0.5,0.2,1,0.5,1.5,0.9h0c0.5,0.4,0.9,0.7,1.3,1.1
	c0.2,0.2,0.4,0.4,0.6,0.6c0.4,0.4,0.7,0.9,1,1.4v0c0.4,0.8,0.8,1.6,1,2.4c0.1,0.6,0.2,1.2,0.3,1.8c0.1,2.7-0.8,5.1-2.5,6.9
	c-0.2,0.2-0.5,0.5-0.7,0.7c-0.2,0.1-0.3,0.3-0.5,0.4c-1.2,1-2.7,1.7-4.4,1.9c-0.5,0.1-1,0.1-1.5,0.1h0c-0.7,0-1.3-0.1-1.9-0.2
	c-0.6-0.1-1.2-0.3-1.8-0.6c-1.1-0.5-2.2-1.2-3-2.1l1.5-1.5c1.3,1.3,3.2,2.2,5.3,2.2c0.2,0,0.5,0,0.7,0h0c0.5-0.1,0.9-0.1,1.4-0.3
	c0.7-0.2,1.3-0.5,1.9-0.8c0.6-0.3,1.1-0.8,1.6-1.3c1.3-1.4,2-3.3,2-5.3c-0.1-2.2-1.1-4.1-2.7-5.5c-0.4-0.3-0.7-0.6-1.1-0.8
	c-0.2-0.1-0.4-0.2-0.6-0.3c-0.8-0.4-1.8-0.6-2.7-0.6c-0.6,0-1.2,0-1.7,0.1c-0.4,0.1-0.8,0.2-1.3,0.3c0,0,0,0,0,0
	c-0.8,0.3-1.6,0.8-2.2,1.4c-0.2,0.1-0.3,0.3-0.5,0.5c-0.1,0.1-0.1,0.1-0.2,0.2c-0.2,0.3-0.5,0.6-0.7,0.9c-0.5,0.8-0.8,1.6-1.1,2.5
	c-0.1,0.2-0.1,0.5-0.1,0.7c0,0.1,0,0.3,0,0.4c0,0.1,0,0.3,0,0.4h3.2l-4.3,4.3v0h0L501.3,512.5L501.3,512.5z"/>
<path class="st2" d="M499.5,532.9C499.5,532.9,499.5,532.9,499.5,532.9c-0.2-0.3-0.3-0.6-0.3-1v-13.5l0,0l0.4,0.4
	c1.7,1.7,3.8,3,6.2,3.7h0c0.1,0.5,0.1,1.1,0.1,1.7c0,1.3-0.2,2.6-0.6,3.8c-0.6,2-1.8,3.7-3.3,5.1c-0.7,0.6-1.7,0.6-2.3,0
	C499.6,533.1,499.6,533,499.5,532.9z"/>
<polygon class="st2" points="510.5,508.5 513.7,510.4 514.3,510.7 514.1,510.9 514.1,511 513.5,512.1 513.4,512.1 513.4,512.1 
	508.9,509.4 508.9,509.4 508.9,504 510.5,504 "/>
<path class="st2" d="M518,522.5c0,0.6,0.1,1.1,0.1,1.7c0,3.4-0.7,6.6-1.9,9.5c-0.5,1.2-1.1,2.3-1.8,3.4c-0.3,0.5-0.7,1-1,1.5
	c-3,4-7.1,7.1-12,8.7c-0.6,0.2-1.3,0-1.7-0.4c-0.3-0.3-0.5-0.7-0.5-1.2v-2.1c0-0.2,0-0.3,0.1-0.5c0.1-0.5,0.5-0.9,1-1.1
	c1.8-0.7,3.5-1.6,5-2.7c0.7-0.6,1.4-1.2,2.1-1.9c3.3-3.4,5.3-8,5.3-13.1c0-0.5,0-0.9-0.1-1.3v0c0.5-0.1,0.9-0.2,1.4-0.3
	c1.4-0.4,2.7-1,3.8-1.8C517.9,521.3,518,521.9,518,522.5z"/>
<g>
	<g>
		<g>
			<path class="st4" d="M554.5,537.1c-1.6-0.9-2.8-2.3-3.7-4c-0.9-1.7-1.3-3.7-1.3-6v-8.3c0-2.3,0.4-4.2,1.3-6c0.9-1.7,2.1-3,3.7-4
				c1.6-0.9,3.4-1.4,5.6-1.4c1.7,0,3.3,0.4,4.8,1.1c1.5,0.7,2.7,1.8,3.7,3.2c1,1.4,1.6,2.9,2,4.7h-4.4c-0.3-0.9-0.7-1.8-1.3-2.5
				c-0.6-0.7-1.3-1.3-2.2-1.7c-0.8-0.4-1.7-0.6-2.6-0.6c-1.2,0-2.3,0.3-3.3,0.9c-0.9,0.6-1.7,1.4-2.2,2.5c-0.5,1.1-0.8,2.3-0.8,3.8
				v8.3c0,1.4,0.3,2.7,0.8,3.8c0.5,1.1,1.2,1.9,2.2,2.5c0.9,0.6,2,0.9,3.3,0.9c0.9,0,1.8-0.2,2.6-0.6c0.8-0.4,1.6-0.9,2.2-1.7
				c0.6-0.7,1.1-1.6,1.3-2.6h4.4c-0.3,1.8-1,3.4-2,4.7c-1,1.4-2.2,2.4-3.7,3.2s-3.1,1.1-4.8,1.1
				C557.9,538.5,556.1,538.1,554.5,537.1z"/>
			<path class="st4" d="M576.2,516.5h4.3v21.7h-4.3V516.5z M586.7,520.6c-0.6-0.2-1.2-0.4-2-0.4c-1.4,0-2.4,0.4-3.1,1.1
				s-1.1,1.8-1.1,3.1l-0.4-4.2c0.7-1.3,1.5-2.3,2.6-3c1.1-0.7,2.2-1.1,3.5-1.1c1,0,1.9,0.1,2.7,0.4c0.8,0.3,1.5,0.7,2.1,1.3
				l-2.8,3.8C587.7,521.2,587.3,520.8,586.7,520.6z"/>
			<path class="st4" d="M598.2,537.4c-1.4-0.8-2.5-1.9-3.3-3.3c-0.7-1.5-1.1-3.2-1.1-5.3v-2.4c0-2.1,0.4-4,1.1-5.5s1.8-2.7,3.1-3.5
				s3-1.2,4.9-1.2c1.8,0,3.4,0.5,4.6,1.4c1.3,0.9,2.3,2.2,2.9,3.9c0.7,1.7,1,3.8,1,6.2v1.4h-14.6v-3.4h10.6
				c-0.1-1.8-0.6-3.1-1.4-4.1c-0.8-1-1.8-1.5-3.2-1.5c-1.6,0-2.9,0.5-3.8,1.6c-0.9,1.1-1.3,2.6-1.3,4.5v2.8c0,1.8,0.5,3.2,1.4,4.1
				c0.9,1,2.3,1.4,4,1.4c0.9,0,1.7-0.2,2.6-0.5c0.9-0.3,1.6-0.8,2.3-1.5l2.8,2.8c-1.1,1-2.3,1.8-3.6,2.4c-1.3,0.6-2.7,0.8-4,0.8
				C601.3,538.5,599.6,538.1,598.2,537.4z"/>
			<path class="st4" d="M618.4,536.9c-1.3-1.1-2-2.8-2-5.1c0-2.1,0.6-3.8,1.8-4.8c1.2-1.1,3-1.6,5.5-1.6h6.2l0.3,3.4h-6.4
				c-1.1,0-1.9,0.2-2.5,0.7c-0.6,0.5-0.8,1.3-0.8,2.3c0,1.1,0.4,1.9,1.1,2.4c0.7,0.5,1.8,0.8,3.3,0.8c1.6,0,2.8-0.2,3.7-0.5
				c0.8-0.3,1.2-0.9,1.2-1.6l0.4,3.1c-0.4,0.6-0.8,1.1-1.4,1.4c-0.6,0.4-1.2,0.7-1.9,0.8c-0.7,0.2-1.5,0.3-2.4,0.3
				C621.7,538.5,619.7,538,618.4,536.9z M629.7,524.4c0-1.4-0.4-2.5-1.1-3.3c-0.8-0.8-1.8-1.2-3.2-1.2c-0.9,0-1.7,0.1-2.5,0.4
				s-1.6,0.6-2.2,1.1l-3.1-2.1c0.8-1,1.9-1.8,3.3-2.3c1.3-0.6,2.8-0.8,4.5-0.8c1.8,0,3.3,0.3,4.6,1c1.3,0.6,2.3,1.6,2.9,2.8
				c0.7,1.2,1,2.7,1,4.4v14h-4.1V524.4z"/>
			<path class="st4" d="M638.5,516.5h9.8v3.8h-9.8V516.5z M642,536.9c-0.8-1-1.2-2.4-1.2-4.3v-22.4h4.3v22.4c0,0.5,0.1,0.9,0.3,1.2
				c0.2,0.3,0.5,0.4,0.9,0.4h2.1v4.1h-2.5C644.1,538.3,642.8,537.8,642,536.9z"/>
			<path class="st4" d="M657.9,537.4c-1.4-0.8-2.5-1.9-3.3-3.3c-0.7-1.5-1.1-3.2-1.1-5.3v-2.4c0-2.1,0.4-4,1.1-5.5s1.8-2.7,3.1-3.5
				s3-1.2,4.9-1.2c1.8,0,3.4,0.5,4.6,1.4c1.3,0.9,2.3,2.2,2.9,3.9c0.7,1.7,1,3.8,1,6.2v1.4h-14.6v-3.4h10.6
				c-0.1-1.8-0.6-3.1-1.4-4.1c-0.8-1-1.8-1.5-3.2-1.5c-1.6,0-2.9,0.5-3.8,1.6c-0.9,1.1-1.3,2.6-1.3,4.5v2.8c0,1.8,0.5,3.2,1.4,4.1
				c0.9,1,2.3,1.4,4,1.4c0.9,0,1.7-0.2,2.6-0.5c0.9-0.3,1.6-0.8,2.3-1.5l2.8,2.8c-1.1,1-2.3,1.8-3.6,2.4c-1.3,0.6-2.7,0.8-4,0.8
				C661.1,538.5,659.4,538.1,657.9,537.4z"/>
			<path class="st4" d="M684.9,507.8h21.5v4.1h-21.5V507.8z M693.5,510.3h4.3v27.9h-4.3V510.3z"/>
			<path class="st4" d="M709.3,516.5h4.3v21.7h-4.3V516.5z M719.8,520.6c-0.6-0.2-1.2-0.4-2-0.4c-1.4,0-2.4,0.4-3.1,1.1
				s-1.1,1.8-1.1,3.1l-0.4-4.2c0.7-1.3,1.5-2.3,2.6-3c1.1-0.7,2.2-1.1,3.5-1.1c1,0,1.9,0.1,2.7,0.4c0.8,0.3,1.5,0.7,2.1,1.3
				l-2.8,3.8C720.9,521.2,720.4,520.8,719.8,520.6z"/>
			<path class="st4" d="M727.6,507.8h4.3v4.3h-4.3V507.8z M727.6,516.5h4.3v21.7h-4.3V516.5z"/>
			<path class="st4" d="M741.8,537.4c-1.3-0.7-2.4-1.8-3.1-3.2c-0.7-1.4-1.1-3.1-1.1-5.1v-3.5c0-2,0.4-3.7,1.1-5.1s1.7-2.5,3.1-3.2
				c1.3-0.7,2.9-1.1,4.8-1.1c1.9,0,3.5,0.4,4.8,1.1c1.3,0.7,2.4,1.8,3.1,3.2c0.7,1.4,1.1,3.1,1.1,5.1v3.6c0,2-0.4,3.7-1.1,5.1
				c-0.7,1.4-1.7,2.5-3.1,3.2s-2.9,1.1-4.8,1.1C744.8,538.5,743.2,538.1,741.8,537.4z M750.1,533.1c0.8-0.9,1.2-2.2,1.2-3.9v-3.6
				c0-1.7-0.4-3-1.2-3.9c-0.8-0.9-2-1.4-3.5-1.4s-2.6,0.5-3.5,1.4c-0.8,0.9-1.2,2.2-1.2,3.9v3.6c0,1.7,0.4,3,1.2,3.9s2,1.4,3.5,1.4
				S749.3,534,750.1,533.1z"/>
		</g>
	</g>
</g>
<g>
	<g>
		<path class="st3" d="M480.3,442.5h3v21.4h-3V442.5z M482.4,461h4.8c1.6,0,2.8-0.4,3.7-1.2c0.9-0.8,1.3-2,1.3-3.5V450
			c0-1.5-0.4-2.6-1.3-3.5c-0.9-0.8-2.1-1.2-3.7-1.2h-4.8v-2.8h4.7c1.7,0,3.2,0.3,4.4,0.9c1.2,0.6,2.1,1.5,2.8,2.6
			c0.6,1.1,1,2.5,1,4.1v6.1c0,1.6-0.3,3-1,4.1c-0.6,1.1-1.6,2-2.8,2.6c-1.2,0.6-2.7,0.9-4.4,0.9h-4.7V461z"/>
		<path class="st3" d="M502.4,463.3c-1-0.5-1.8-1.3-2.3-2.3c-0.5-1-0.8-2.3-0.8-3.7v-1.7c0-1.5,0.3-2.8,0.8-3.9
			c0.5-1.1,1.2-1.9,2.2-2.4c1-0.6,2.1-0.8,3.5-0.8c1.3,0,2.4,0.3,3.3,1s1.6,1.6,2.1,2.8c0.5,1.2,0.7,2.6,0.7,4.3v1h-10.3V455h7.4
			c-0.1-1.2-0.4-2.2-1-2.9c-0.6-0.7-1.3-1-2.2-1c-1.1,0-2,0.4-2.6,1.1c-0.6,0.7-0.9,1.8-0.9,3.2v1.9c0,1.3,0.3,2.2,1,2.9
			c0.7,0.7,1.6,1,2.8,1c0.6,0,1.2-0.1,1.8-0.4c0.6-0.2,1.1-0.6,1.6-1l2,2c-0.8,0.7-1.6,1.3-2.5,1.7s-1.9,0.6-2.8,0.6
			C504.6,464.1,503.4,463.8,502.4,463.3z"/>
		<path class="st3" d="M514.7,448.6h7.6v2.6h-7.6V448.6z M516.3,446.5c0-1.4,0.3-2.4,0.9-3c0.6-0.7,1.6-1,2.9-1h2.2v2.8h-2.1
			c-0.3,0-0.5,0.1-0.6,0.3s-0.2,0.5-0.2,0.8v17.3h-3V446.5z"/>
		<path class="st3" d="M526.1,462.9c-0.9-0.8-1.4-2-1.4-3.5c0-1.5,0.4-2.6,1.3-3.4s2.1-1.1,3.9-1.1h4.3l0.2,2.4h-4.5
			c-0.8,0-1.4,0.2-1.8,0.5c-0.4,0.3-0.6,0.9-0.6,1.6c0,0.8,0.3,1.3,0.8,1.7c0.5,0.4,1.3,0.6,2.3,0.6c1.1,0,2-0.1,2.6-0.4
			c0.6-0.2,0.8-0.6,0.8-1.1l0.3,2.1c-0.3,0.4-0.6,0.7-1,1c-0.4,0.3-0.8,0.5-1.3,0.6c-0.5,0.1-1.1,0.2-1.7,0.2
			C528.4,464.1,527,463.7,526.1,462.9z M534,454.2c0-1-0.3-1.8-0.8-2.3c-0.5-0.6-1.3-0.8-2.3-0.8c-0.6,0-1.2,0.1-1.8,0.3
			c-0.6,0.2-1.1,0.4-1.5,0.8l-2.2-1.5c0.6-0.7,1.3-1.2,2.3-1.6c0.9-0.4,2-0.6,3.2-0.6c1.3,0,2.3,0.2,3.2,0.7
			c0.9,0.4,1.6,1.1,2.1,1.9c0.5,0.8,0.7,1.9,0.7,3.1v9.8H534V454.2z"/>
		<path class="st3" d="M544.4,457.9c0,1.1,0.3,1.9,0.8,2.5s1.3,0.9,2.3,0.9c1,0,1.7-0.3,2.3-0.8c0.5-0.5,0.8-1.3,0.8-2.2l0.2,3.2
			c-0.3,0.8-0.8,1.4-1.5,1.9c-0.7,0.5-1.6,0.8-2.6,0.8c-1.7,0-3-0.5-3.9-1.6c-0.9-1.1-1.4-2.6-1.4-4.6v-9.3h3V457.9z M550.6,448.6h3
			v15.2h-3V448.6z"/>
		<path class="st3" d="M561.2,459.9c0,0.4,0.1,0.7,0.2,0.9s0.4,0.3,0.7,0.3h1.4v2.8h-1.8c-1.1,0-2-0.4-2.6-1.1
			c-0.6-0.7-0.9-1.7-0.9-3v-17.4h3V459.9z"/>
		<path class="st3" d="M565.7,448.6h6.9v2.7h-6.9V448.6z M568.1,462.9c-0.6-0.7-0.9-1.7-0.9-3v-15.7h3v15.7c0,0.4,0.1,0.7,0.2,0.9
			s0.4,0.3,0.6,0.3h1.4v2.8h-1.7C569.6,463.9,568.7,463.6,568.1,462.9z"/>
		<path class="st3" d="M587.4,463.3c-1-0.5-1.7-1.3-2.3-2.3c-0.5-1-0.8-2.2-0.8-3.6v-2.5c0-1.4,0.3-2.6,0.8-3.5
			c0.5-1,1.3-1.7,2.3-2.2c1-0.5,2.2-0.8,3.6-0.8c0.8,0,1.5,0.1,2.2,0.3c0.7,0.2,1.3,0.5,1.9,0.8c0.6,0.4,1,0.8,1.4,1.3l-2.2,1.9
			c-0.4-0.5-0.9-0.9-1.5-1.1c-0.6-0.3-1.2-0.4-1.8-0.4c-1.2,0-2.1,0.3-2.7,1c-0.6,0.6-1,1.6-1,2.7v2.5c0,1.2,0.3,2.1,0.9,2.8
			c0.6,0.7,1.5,1,2.7,1c0.6,0,1.2-0.1,1.8-0.4c0.6-0.3,1.1-0.7,1.5-1.2l2.2,2.1c-0.4,0.5-0.9,0.9-1.4,1.3c-0.6,0.4-1.2,0.6-1.9,0.8
			s-1.4,0.3-2.2,0.3C589.5,464.1,588.4,463.8,587.4,463.3z"/>
		<path class="st3" d="M600.4,462.9c-0.9-0.8-1.4-2-1.4-3.5c0-1.5,0.4-2.6,1.3-3.4s2.1-1.1,3.9-1.1h4.3l0.2,2.4h-4.5
			c-0.8,0-1.4,0.2-1.8,0.5c-0.4,0.3-0.6,0.9-0.6,1.6c0,0.8,0.3,1.3,0.8,1.7c0.5,0.4,1.3,0.6,2.3,0.6c1.1,0,2-0.1,2.6-0.4
			c0.6-0.2,0.8-0.6,0.8-1.1l0.3,2.1c-0.3,0.4-0.6,0.7-1,1c-0.4,0.3-0.8,0.5-1.3,0.6c-0.5,0.1-1.1,0.2-1.7,0.2
			C602.8,464.1,601.3,463.7,600.4,462.9z M608.4,454.2c0-1-0.3-1.8-0.8-2.3c-0.5-0.6-1.3-0.8-2.3-0.8c-0.6,0-1.2,0.1-1.8,0.3
			c-0.6,0.2-1.1,0.4-1.5,0.8l-2.2-1.5c0.6-0.7,1.3-1.2,2.3-1.6c0.9-0.4,2-0.6,3.2-0.6c1.3,0,2.3,0.2,3.2,0.7
			c0.9,0.4,1.6,1.1,2.1,1.9c0.5,0.8,0.7,1.9,0.7,3.1v9.8h-2.8V454.2z"/>
		<path class="st3" d="M614.6,448.6h6.9v2.7h-6.9V448.6z M617,462.9c-0.6-0.7-0.9-1.7-0.9-3v-15.7h3v15.7c0,0.4,0.1,0.7,0.2,0.9
			s0.4,0.3,0.6,0.3h1.4v2.8h-1.7C618.5,463.9,617.6,463.6,617,462.9z"/>
		<path class="st3" d="M628.2,463.3c-1-0.5-1.8-1.3-2.3-2.3c-0.5-1-0.8-2.3-0.8-3.7v-1.7c0-1.5,0.3-2.8,0.8-3.9
			c0.5-1.1,1.2-1.9,2.2-2.4c1-0.6,2.1-0.8,3.5-0.8c1.3,0,2.4,0.3,3.3,1s1.6,1.6,2.1,2.8c0.5,1.2,0.7,2.6,0.7,4.3v1h-10.3V455h7.4
			c-0.1-1.2-0.4-2.2-1-2.9c-0.6-0.7-1.3-1-2.2-1c-1.1,0-2,0.4-2.6,1.1c-0.6,0.7-0.9,1.8-0.9,3.2v1.9c0,1.3,0.3,2.2,1,2.9
			c0.7,0.7,1.6,1,2.8,1c0.6,0,1.2-0.1,1.8-0.4c0.6-0.2,1.1-0.6,1.6-1l2,2c-0.8,0.7-1.6,1.3-2.5,1.7s-1.9,0.6-2.8,0.6
			C630.4,464.1,629.2,463.8,628.2,463.3z"/>
		<path class="st3" d="M643.7,463.4c-0.8-0.5-1.4-1.2-1.8-2.1s-0.6-2-0.6-3.3v-3.4c0-1.3,0.2-2.4,0.6-3.4c0.4-0.9,1-1.6,1.8-2.1
			c0.8-0.5,1.7-0.7,2.8-0.7c0.9,0,1.7,0.2,2.5,0.7s1.4,1.1,1.8,2l-0.3,3.1c0-0.6-0.1-1.2-0.4-1.7c-0.2-0.5-0.6-0.8-1-1
			c-0.4-0.2-1-0.4-1.6-0.4c-1,0-1.8,0.3-2.3,0.9c-0.5,0.6-0.8,1.5-0.8,2.6v3.3c0,1.1,0.3,2,0.8,2.6c0.5,0.6,1.3,0.9,2.3,0.9
			c0.6,0,1.2-0.1,1.6-0.4c0.4-0.2,0.8-0.6,1-1.1c0.2-0.5,0.4-1,0.4-1.7l0.2,3.2c-0.3,0.8-0.8,1.4-1.5,1.9c-0.7,0.5-1.5,0.8-2.5,0.8
			C645.4,464.1,644.5,463.9,643.7,463.4z M643.7,469.4c-0.9-0.4-1.6-1-2.1-1.8l2-1.8c0.4,0.5,0.9,1,1.4,1.2c0.5,0.3,1.1,0.4,1.7,0.4
			c1.1,0,2-0.3,2.7-0.9c0.6-0.6,0.9-1.5,0.9-2.7v-15.2h3v14.8c0,1.4-0.3,2.6-0.8,3.6c-0.5,1-1.3,1.8-2.2,2.3c-1,0.5-2.2,0.8-3.5,0.8
			C645.7,470.1,644.6,469.8,643.7,469.4z"/>
		<path class="st3" d="M660.4,463.3c-0.9-0.5-1.7-1.3-2.2-2.3c-0.5-1-0.7-2.2-0.7-3.6V455c0-1.4,0.2-2.6,0.7-3.5
			c0.5-1,1.2-1.7,2.2-2.2c0.9-0.5,2.1-0.8,3.4-0.8s2.5,0.3,3.4,0.8s1.7,1.3,2.2,2.2c0.5,1,0.7,2.2,0.7,3.5v2.5
			c0,1.4-0.2,2.6-0.7,3.6c-0.5,1-1.2,1.7-2.2,2.3c-0.9,0.5-2.1,0.8-3.4,0.8S661.3,463.8,660.4,463.3z M666.2,460.2
			c0.6-0.7,0.9-1.6,0.9-2.8V455c0-1.2-0.3-2.1-0.9-2.7c-0.6-0.6-1.4-1-2.4-1s-1.9,0.3-2.4,1c-0.6,0.6-0.9,1.6-0.9,2.7v2.5
			c0,1.2,0.3,2.1,0.9,2.8s1.4,1,2.4,1S665.6,460.9,666.2,460.2z"/>
		<path class="st3" d="M674.3,448.6h3v15.2h-3V448.6z M681.7,451.5c-0.4-0.2-0.9-0.2-1.4-0.2c-0.9,0-1.7,0.3-2.2,0.8
			c-0.5,0.5-0.8,1.3-0.8,2.2l-0.3-2.9c0.5-0.9,1.1-1.6,1.8-2.1s1.6-0.8,2.5-0.8c0.7,0,1.3,0.1,1.9,0.3c0.6,0.2,1.1,0.5,1.5,0.9
			l-2,2.6C682.4,451.9,682.1,451.7,681.7,451.5z"/>
		<path class="st3" d="M685.5,448.6h3.1l4.7,13.2l-1.7,3.2L685.5,448.6z M699,448.6l-6.5,18.8c-0.2,0.7-0.5,1.2-0.9,1.7
			c-0.4,0.4-0.9,0.7-1.4,0.9s-1.2,0.3-2.1,0.3h-0.6v-2.9h0.6c0.6,0,1-0.1,1.3-0.3c0.3-0.2,0.6-0.6,0.9-1.2l5.6-17.2H699z"/>
	</g>
</g>
<path class="st3" d="M459.8,449.3l-14,14c-0.4,0.4-1,0.6-1.5,0.6c-0.5,0-1-0.2-1.3-0.6c-0.4-0.4-0.6-0.9-0.6-1.5
	c0-0.5,0.2-1,0.6-1.4l1.3-1.3l12.6-12.6c0.8-0.8,2.1-0.8,2.9,0C460.7,447.2,460.7,448.5,459.8,449.3z"/>
<path class="st3" d="M445.7,463.3c-0.4,0.3-0.9,0.6-1.3,0.6c0,0-0.1,0-0.1,0c-0.5,0-1-0.2-1.4-0.6l-13.9-14c-0.8-0.8-0.8-2.1,0-2.9
	c0.8-0.8,2.1-0.8,2.9,0l12.6,12.6l1.3,1.3C446.5,461.2,446.5,462.5,445.7,463.3z"/>
<g>
	<path class="st3" d="M495.3,546.2h-1.5c-1.6,0-2.9-1.3-2.9-2.9v-38c0-1.6,1.3-2.9,2.9-2.9h1.5c1.6,0,2.9,1.3,2.9,2.9v38
		C498.3,544.9,496.9,546.2,495.3,546.2z"/>
	<path class="st3" d="M516.5,523.5v1.5c0,1.6-1.3,2.9-2.9,2.9h-38c-1.6,0-2.9-1.3-2.9-2.9v-1.5c0-1.6,1.3-2.9,2.9-2.9h38
		C515.2,520.5,516.5,521.8,516.5,523.5z"/>
</g>
<path class="st2" d="M790.9,632.1H96.6c-10.1,0-18.4,8.2-18.4,18.3v151.2c0,10.2,8.2,18.4,18.4,18.4h694.3
	c10.2,0,18.4-8.2,18.4-18.4V650.5C809.3,640.4,801.1,632.1,790.9,632.1z M144,675.2l-14,14c-0.4,0.4-1,0.6-1.5,0.6c0,0-0.1,0-0.1,0
	c-0.5,0-1-0.2-1.4-0.6l-13.9-14c-0.8-0.8-0.8-2.1,0-2.9c0.8-0.8,2.1-0.8,2.9,0l12.6,12.6l12.6-12.6c0.8-0.8,2.1-0.8,2.9,0
	S144.8,674.4,144,675.2z"/>
<path class="st2" d="M144,672.3c0.8,0.8,0.8,2.1,0,2.9l-14,14c-0.4,0.4-1,0.6-1.5,0.6c0,0-0.1,0-0.1,0c-0.5,0-1-0.2-1.4-0.6
	l-13.9-14c-0.8-0.8-0.8-2.1,0-2.9c0.8-0.8,2.1-0.8,2.9,0l12.6,12.6l12.6-12.6C141.9,671.5,143.2,671.5,144,672.3z"/>
<path class="st2" d="M177.9,732.5v35.1c0,1.5-1.8,2.2-2.9,1.2l-10.1-10.1c-0.3-0.3-0.8-0.5-1.2-0.5h-8.4c-0.9,0-1.7-0.7-1.7-1.7
	v-12.8c0-0.9,0.8-1.7,1.7-1.7h8.4c0.4,0,0.8-0.2,1.2-0.5l10.1-10.1C176.1,730.3,177.9,731.1,177.9,732.5z"/>
<path class="st2" d="M185.5,738.3l-4.2-4.2h3.2c0-0.6,0.1-1.2,0.2-1.7c0.1-0.5,0.2-0.9,0.3-1.3c0-0.1,0.1-0.2,0.1-0.2
	c0.1-0.1,0.1-0.3,0.1-0.4c0.1-0.2,0.2-0.4,0.3-0.6c0,0,0,0,0,0c0.1-0.2,0.2-0.4,0.3-0.6c0,0,0,0,0,0c0.1-0.2,0.2-0.4,0.4-0.6
	c0.1-0.2,0.3-0.3,0.4-0.5c0,0,0,0,0,0c0.1-0.2,0.3-0.3,0.4-0.5h0c0.2-0.3,0.4-0.5,0.7-0.7c0,0,0,0,0,0c0.2-0.2,0.5-0.4,0.7-0.6
	c0.1-0.1,0.2-0.1,0.3-0.2c0.9-0.6,1.9-1,2.9-1.3c0.1,0,0.1,0,0.2,0c0.4-0.1,0.7-0.1,1.1-0.2c0.5,0,1-0.1,1.5,0
	c0.6,0,1.2,0.1,1.8,0.3c0.6,0.1,1.1,0.3,1.7,0.6c0,0,0,0,0,0c0.5,0.2,1,0.5,1.5,0.9h0c0.5,0.4,0.9,0.7,1.3,1.1
	c0.2,0.2,0.4,0.4,0.6,0.6c0.4,0.4,0.7,0.9,1,1.4v0c0.4,0.8,0.8,1.6,1,2.4c0.1,0.6,0.2,1.2,0.3,1.8c0.1,2.7-0.8,5.1-2.5,6.9
	c-0.2,0.2-0.5,0.5-0.7,0.7c-0.2,0.1-0.3,0.3-0.5,0.4c-1.2,1-2.7,1.7-4.4,1.9c-0.5,0.1-1,0.1-1.5,0.1h0c-0.7,0-1.3-0.1-1.9-0.2
	c-0.6-0.1-1.2-0.3-1.8-0.6c-1.1-0.5-2.2-1.2-3-2.1l1.5-1.5c1.3,1.3,3.2,2.2,5.3,2.2c0.2,0,0.5,0,0.7,0h0c0.5-0.1,0.9-0.1,1.4-0.3
	c0.7-0.2,1.3-0.5,1.9-0.8c0.6-0.3,1.1-0.8,1.6-1.3c1.3-1.4,2-3.3,2-5.3c-0.1-2.2-1.1-4.1-2.7-5.5c-0.4-0.3-0.7-0.6-1.1-0.8
	c-0.2-0.1-0.4-0.2-0.6-0.3c-0.8-0.4-1.8-0.6-2.7-0.6c-0.6,0-1.2,0-1.7,0.1c-0.4,0.1-0.8,0.2-1.3,0.3c0,0,0,0,0,0
	c-0.8,0.3-1.6,0.8-2.2,1.4c-0.2,0.1-0.3,0.3-0.5,0.5c-0.1,0.1-0.1,0.1-0.2,0.2c-0.2,0.3-0.5,0.6-0.7,0.9c-0.5,0.8-0.8,1.6-1.1,2.5
	c-0.1,0.2-0.1,0.5-0.1,0.7c0,0.1,0,0.3,0,0.4c0,0.1,0,0.3,0,0.4h3.2l-4.3,4.3v0h0L185.5,738.3L185.5,738.3z"/>
<path class="st2" d="M183.6,758.8C183.6,758.8,183.7,758.8,183.6,758.8c-0.2-0.3-0.3-0.6-0.3-1v-13.5l0,0l0.4,0.4
	c1.7,1.7,3.8,3,6.2,3.7h0c0.1,0.5,0.1,1.1,0.1,1.7c0,1.3-0.2,2.6-0.6,3.8c-0.6,2-1.8,3.7-3.3,5.1c-0.7,0.6-1.7,0.6-2.3,0
	C183.8,758.9,183.7,758.9,183.6,758.8z"/>
<polygon class="st2" points="194.7,734.3 197.9,736.2 198.4,736.6 198.3,736.8 198.3,736.8 197.6,737.9 197.6,737.9 197.6,738 
	193.1,735.3 193.1,735.3 193.1,729.9 194.7,729.9 "/>
<path class="st2" d="M202.2,748.3c0,0.6,0.1,1.1,0.1,1.7c0,3.4-0.7,6.6-1.9,9.5c-0.5,1.2-1.1,2.3-1.8,3.4c-0.3,0.5-0.7,1-1,1.5
	c-3,4-7.1,7.1-12,8.7c-0.6,0.2-1.3,0-1.7-0.4c-0.3-0.3-0.5-0.7-0.5-1.2v-2.1c0-0.2,0-0.3,0.1-0.5c0.1-0.5,0.5-0.9,1-1.1
	c1.8-0.7,3.5-1.6,5-2.7c0.7-0.6,1.4-1.2,2.1-1.9c3.3-3.4,5.3-8,5.3-13.1c0-0.5,0-0.9-0.1-1.3v0c0.5-0.1,0.9-0.2,1.4-0.3
	c1.4-0.4,2.7-1,3.8-1.8C202.1,747.2,202.1,747.8,202.2,748.3z"/>
<g>
	<g>
		<g>
			<path class="st4" d="M238.6,763c-1.6-0.9-2.8-2.3-3.7-4c-0.9-1.7-1.3-3.7-1.3-6v-8.3c0-2.3,0.4-4.2,1.3-6c0.9-1.7,2.1-3,3.7-4
				c1.6-0.9,3.4-1.4,5.6-1.4c1.7,0,3.3,0.4,4.8,1.1c1.5,0.7,2.7,1.8,3.7,3.2s1.6,2.9,2,4.7h-4.4c-0.3-0.9-0.7-1.8-1.3-2.5
				c-0.6-0.7-1.3-1.3-2.2-1.7c-0.8-0.4-1.7-0.6-2.6-0.6c-1.2,0-2.3,0.3-3.3,0.9c-0.9,0.6-1.7,1.4-2.2,2.5c-0.5,1.1-0.8,2.3-0.8,3.8
				v8.3c0,1.4,0.3,2.7,0.8,3.8c0.5,1.1,1.2,1.9,2.2,2.5c0.9,0.6,2,0.9,3.3,0.9c0.9,0,1.8-0.2,2.6-0.6c0.8-0.4,1.6-0.9,2.2-1.7
				c0.6-0.7,1.1-1.6,1.3-2.6h4.4c-0.3,1.8-1,3.4-2,4.7c-1,1.4-2.2,2.4-3.7,3.2s-3.1,1.1-4.8,1.1C242.1,764.4,240.2,763.9,238.6,763z
				"/>
			<path class="st4" d="M260.3,742.4h4.3v21.7h-4.3V742.4z M270.8,746.5c-0.6-0.2-1.2-0.4-2-0.4c-1.4,0-2.4,0.4-3.1,1.1
				s-1.1,1.8-1.1,3.1l-0.4-4.2c0.7-1.3,1.5-2.3,2.6-3c1.1-0.7,2.2-1.1,3.5-1.1c1,0,1.9,0.1,2.7,0.4c0.8,0.3,1.5,0.7,2.1,1.3
				l-2.8,3.8C271.9,747,271.4,746.7,270.8,746.5z"/>
			<path class="st4" d="M282.3,763.3c-1.4-0.8-2.5-1.9-3.3-3.3c-0.7-1.5-1.1-3.2-1.1-5.3v-2.4c0-2.1,0.4-4,1.1-5.5s1.8-2.7,3.1-3.5
				s3-1.2,4.9-1.2c1.8,0,3.4,0.5,4.6,1.4c1.3,0.9,2.3,2.2,2.9,3.9c0.7,1.7,1,3.8,1,6.2v1.4h-14.6v-3.4h10.6
				c-0.1-1.8-0.6-3.1-1.4-4.1c-0.8-1-1.8-1.5-3.2-1.5c-1.6,0-2.9,0.5-3.8,1.6c-0.9,1.1-1.3,2.6-1.3,4.5v2.8c0,1.8,0.5,3.2,1.4,4.1
				c0.9,1,2.3,1.4,4,1.4c0.9,0,1.7-0.2,2.6-0.5c0.9-0.3,1.6-0.8,2.3-1.5l2.8,2.8c-1.1,1-2.3,1.8-3.6,2.4c-1.3,0.6-2.7,0.8-4,0.8
				C285.5,764.4,283.8,764,282.3,763.3z"/>
			<path class="st4" d="M302.5,762.7c-1.3-1.1-2-2.8-2-5.1c0-2.1,0.6-3.8,1.8-4.8s3-1.6,5.5-1.6h6.2l0.3,3.4h-6.4
				c-1.1,0-1.9,0.2-2.5,0.7c-0.6,0.5-0.8,1.3-0.8,2.3c0,1.1,0.4,1.9,1.1,2.4c0.7,0.5,1.8,0.8,3.3,0.8c1.6,0,2.8-0.2,3.7-0.5
				c0.8-0.3,1.2-0.9,1.2-1.6l0.4,3.1c-0.4,0.6-0.8,1.1-1.4,1.4c-0.6,0.4-1.2,0.7-1.9,0.8c-0.7,0.2-1.5,0.3-2.4,0.3
				C305.8,764.4,303.8,763.8,302.5,762.7z M313.8,750.3c0-1.4-0.4-2.5-1.1-3.3c-0.8-0.8-1.8-1.2-3.2-1.2c-0.9,0-1.7,0.1-2.5,0.4
				s-1.6,0.6-2.2,1.1l-3.1-2.1c0.8-1,1.9-1.8,3.3-2.3c1.3-0.6,2.8-0.8,4.5-0.8c1.8,0,3.3,0.3,4.6,1c1.3,0.6,2.3,1.6,2.9,2.8
				c0.7,1.2,1,2.7,1,4.4v14h-4.1V750.3z"/>
			<path class="st4" d="M322.7,742.4h9.8v3.8h-9.8V742.4z M326.2,762.7c-0.8-1-1.2-2.4-1.2-4.3V736h4.3v22.4c0,0.5,0.1,0.9,0.3,1.2
				c0.2,0.3,0.5,0.4,0.9,0.4h2.1v4.1H330C328.3,764.2,327,763.7,326.2,762.7z"/>
			<path class="st4" d="M342.1,763.3c-1.4-0.8-2.5-1.9-3.3-3.3c-0.7-1.5-1.1-3.2-1.1-5.3v-2.4c0-2.1,0.4-4,1.1-5.5s1.8-2.7,3.1-3.5
				s3-1.2,4.9-1.2c1.8,0,3.4,0.5,4.6,1.4c1.3,0.9,2.3,2.2,2.9,3.9c0.7,1.7,1,3.8,1,6.2v1.4h-14.6v-3.4h10.6
				c-0.1-1.8-0.6-3.1-1.4-4.1c-0.8-1-1.8-1.5-3.2-1.5c-1.6,0-2.9,0.5-3.8,1.6c-0.9,1.1-1.3,2.6-1.3,4.5v2.8c0,1.8,0.5,3.2,1.4,4.1
				c0.9,1,2.3,1.4,4,1.4c0.9,0,1.7-0.2,2.6-0.5c0.9-0.3,1.6-0.8,2.3-1.5l2.8,2.8c-1.1,1-2.3,1.8-3.6,2.4c-1.3,0.6-2.7,0.8-4,0.8
				C345.2,764.4,343.5,764,342.1,763.3z"/>
			<path class="st4" d="M378.2,764c-1.3-0.3-2.5-0.7-3.7-1.3c-1.1-0.6-2.2-1.3-3.2-2.1l2.7-3.3c1.2,1,2.4,1.8,3.8,2.3
				s2.9,0.8,4.5,0.8c2.2,0,3.9-0.4,5.1-1.2c1.2-0.8,1.8-2,1.8-3.5v0c0-1.1-0.3-1.9-0.8-2.5c-0.6-0.6-1.3-1.1-2.1-1.4
				c-0.9-0.3-2-0.6-3.4-0.8c0,0-0.1,0-0.1,0s-0.1,0-0.1,0l-0.3-0.1c-2-0.3-3.7-0.7-5-1.2c-1.3-0.4-2.4-1.2-3.3-2.4
				c-0.9-1.2-1.4-2.8-1.4-5v0c0-1.9,0.4-3.5,1.3-4.8c0.8-1.3,2.1-2.3,3.7-3c1.6-0.7,3.6-1,5.8-1c1.1,0,2.2,0.1,3.2,0.4
				c1.1,0.2,2.1,0.6,3.1,1.1c1,0.5,2,1.1,3,1.8l-2.4,3.4c-1.2-0.9-2.3-1.5-3.5-1.9c-1.2-0.4-2.3-0.6-3.5-0.6c-2.1,0-3.7,0.4-4.8,1.2
				s-1.7,2-1.7,3.5v0c0,1,0.3,1.9,0.9,2.5s1.3,1,2.2,1.3c0.9,0.3,2.1,0.6,3.7,0.9c0.1,0,0.1,0,0.2,0c0,0,0.1,0,0.2,0
				c0.1,0,0.1,0,0.2,0c0.1,0,0.2,0,0.2,0c1.8,0.4,3.4,0.8,4.6,1.3c1.2,0.5,2.3,1.3,3.1,2.5s1.2,2.7,1.2,4.7v0c0,1.9-0.4,3.4-1.3,4.8
				c-0.9,1.3-2.2,2.3-3.8,3c-1.7,0.7-3.7,1-6,1C380.9,764.4,379.5,764.2,378.2,764z"/>
			<path class="st4" d="M402,763.4c-1.1-0.7-2-1.7-2.6-3s-0.9-2.9-0.9-4.8v-4.8c0-1.9,0.3-3.5,0.9-4.8c0.6-1.3,1.4-2.3,2.5-3
				c1.1-0.7,2.4-1,3.9-1c1.3,0,2.5,0.3,3.5,1s1.9,1.6,2.6,2.8l-0.4,4.4c0-0.9-0.2-1.7-0.5-2.4c-0.3-0.7-0.8-1.2-1.5-1.5
				c-0.6-0.3-1.4-0.5-2.3-0.5c-1.4,0-2.5,0.4-3.3,1.3c-0.8,0.9-1.2,2.1-1.2,3.7v4.7c0,1.6,0.4,2.8,1.2,3.7c0.8,0.9,1.9,1.3,3.3,1.3
				c0.9,0,1.7-0.2,2.3-0.5c0.6-0.4,1.1-0.9,1.5-1.5c0.3-0.7,0.5-1.5,0.5-2.4l0.3,4.6c-0.4,1.1-1.1,2-2.1,2.7c-1,0.7-2.2,1.1-3.6,1.1
				C404.5,764.5,403.1,764.1,402,763.4z M411.5,742.4h4.3v30.5h-4.3V742.4z"/>
			<path class="st4" d="M426.6,755.6c0,1.5,0.4,2.7,1.2,3.5s1.9,1.2,3.3,1.2c1.4,0,2.5-0.4,3.2-1.1s1.2-1.8,1.2-3.2l0.3,4.5
				c-0.4,1.1-1.2,2-2.2,2.7c-1,0.7-2.2,1.1-3.7,1.1c-2.4,0-4.3-0.8-5.6-2.3c-1.3-1.5-2-3.7-2-6.5v-13.2h4.3V755.6z M435.4,742.4h4.2
				v21.7h-4.2V742.4z"/>
			<path class="st4" d="M447.1,762.7c-1.3-1.1-2-2.8-2-5.1c0-2.1,0.6-3.8,1.8-4.8s3-1.6,5.5-1.6h6.2l0.3,3.4h-6.4
				c-1.1,0-1.9,0.2-2.5,0.7c-0.6,0.5-0.8,1.3-0.8,2.3c0,1.1,0.4,1.9,1.1,2.4c0.7,0.5,1.8,0.8,3.3,0.8c1.6,0,2.8-0.2,3.7-0.5
				c0.8-0.3,1.2-0.9,1.2-1.6l0.4,3.1c-0.4,0.6-0.8,1.1-1.4,1.4c-0.6,0.4-1.2,0.7-1.9,0.8c-0.7,0.2-1.5,0.3-2.4,0.3
				C450.4,764.4,448.4,763.8,447.1,762.7z M458.4,750.3c0-1.4-0.4-2.5-1.1-3.3c-0.8-0.8-1.8-1.2-3.2-1.2c-0.9,0-1.7,0.1-2.5,0.4
				s-1.6,0.6-2.2,1.1l-3.1-2.1c0.8-1,1.9-1.8,3.3-2.3c1.3-0.6,2.8-0.8,4.5-0.8c1.8,0,3.3,0.3,4.6,1c1.3,0.6,2.3,1.6,2.9,2.8
				c0.7,1.2,1,2.7,1,4.4v14h-4.1V750.3z"/>
			<path class="st4" d="M471.7,763.4c-1.1-0.7-2-1.7-2.6-3s-0.9-2.9-0.9-4.8v-4.8c0-1.9,0.3-3.5,0.9-4.8c0.6-1.3,1.4-2.3,2.5-3
				c1.1-0.7,2.4-1,3.9-1c1.3,0,2.5,0.3,3.5,1s1.9,1.6,2.6,2.8l-0.4,4.4c0-0.9-0.2-1.7-0.5-2.4c-0.3-0.7-0.8-1.2-1.5-1.5
				c-0.6-0.3-1.4-0.5-2.3-0.5c-1.4,0-2.5,0.4-3.3,1.3c-0.8,0.9-1.2,2.1-1.2,3.7v4.7c0,1.6,0.4,2.8,1.2,3.7c0.8,0.9,1.9,1.3,3.3,1.3
				c0.9,0,1.7-0.2,2.3-0.5c0.6-0.4,1.1-0.9,1.5-1.5c0.3-0.7,0.5-1.5,0.5-2.4l0.3,4.6c-0.4,1.1-1.1,2-2.1,2.7c-1,0.7-2.2,1.1-3.6,1.1
				C474.2,764.5,472.9,764.1,471.7,763.4z M481.3,733.7h4.3v30.4h-4.3V733.7z"/>
		</g>
	</g>
</g>
<g>
	<g>
		<path class="st3" d="M164.5,668.4h3v21.4h-3V668.4z M166.5,686.9h4.8c1.6,0,2.8-0.4,3.7-1.2c0.9-0.8,1.3-2,1.3-3.5v-6.3
			c0-1.5-0.4-2.6-1.3-3.5c-0.9-0.8-2.1-1.2-3.7-1.2h-4.8v-2.8h4.7c1.7,0,3.2,0.3,4.4,0.9c1.2,0.6,2.1,1.5,2.8,2.6s1,2.5,1,4.1v6.1
			c0,1.6-0.3,3-1,4.1c-0.6,1.1-1.6,2-2.8,2.6s-2.7,0.9-4.4,0.9h-4.7V686.9z"/>
		<path class="st3" d="M186.6,689.1c-1-0.5-1.8-1.3-2.3-2.3c-0.5-1-0.8-2.3-0.8-3.7v-1.7c0-1.5,0.3-2.8,0.8-3.9
			c0.5-1.1,1.2-1.9,2.2-2.4c1-0.6,2.1-0.8,3.5-0.8c1.3,0,2.4,0.3,3.3,1c0.9,0.6,1.6,1.6,2.1,2.8s0.7,2.6,0.7,4.3v1h-10.3v-2.4h7.4
			c-0.1-1.2-0.4-2.2-1-2.9c-0.6-0.7-1.3-1-2.2-1c-1.1,0-2,0.4-2.6,1.1c-0.6,0.7-0.9,1.8-0.9,3.2v1.9c0,1.3,0.3,2.2,1,2.9
			c0.7,0.7,1.6,1,2.8,1c0.6,0,1.2-0.1,1.8-0.4s1.1-0.6,1.6-1l2,2c-0.8,0.7-1.6,1.3-2.5,1.7s-1.9,0.6-2.8,0.6
			C188.8,689.9,187.6,689.7,186.6,689.1z"/>
		<path class="st3" d="M198.9,674.5h7.6v2.6h-7.6V674.5z M200.5,672.4c0-1.4,0.3-2.4,0.9-3c0.6-0.7,1.6-1,2.9-1h2.2v2.8h-2.1
			c-0.3,0-0.5,0.1-0.6,0.3c-0.1,0.2-0.2,0.5-0.2,0.8v17.3h-3V672.4z"/>
		<path class="st3" d="M210.2,688.8c-0.9-0.8-1.4-2-1.4-3.5c0-1.5,0.4-2.6,1.3-3.4s2.1-1.1,3.9-1.1h4.3l0.2,2.4H214
			c-0.8,0-1.4,0.2-1.8,0.5c-0.4,0.3-0.6,0.9-0.6,1.6c0,0.8,0.3,1.3,0.8,1.7s1.3,0.6,2.3,0.6c1.1,0,2-0.1,2.6-0.4
			c0.6-0.2,0.8-0.6,0.8-1.1l0.3,2.1c-0.3,0.4-0.6,0.7-1,1c-0.4,0.3-0.8,0.5-1.3,0.6c-0.5,0.1-1.1,0.2-1.7,0.2
			C212.6,689.9,211.2,689.6,210.2,688.8z M218.2,680.1c0-1-0.3-1.8-0.8-2.3c-0.5-0.6-1.3-0.8-2.3-0.8c-0.6,0-1.2,0.1-1.8,0.3
			c-0.6,0.2-1.1,0.4-1.5,0.8l-2.2-1.5c0.6-0.7,1.3-1.2,2.3-1.6c0.9-0.4,2-0.6,3.2-0.6c1.3,0,2.3,0.2,3.2,0.7s1.6,1.1,2.1,1.9
			c0.5,0.8,0.7,1.9,0.7,3.1v9.8h-2.8V680.1z"/>
		<path class="st3" d="M228.6,683.7c0,1.1,0.3,1.9,0.8,2.5c0.5,0.6,1.3,0.9,2.3,0.9c1,0,1.7-0.3,2.3-0.8s0.8-1.3,0.8-2.2l0.2,3.2
			c-0.3,0.8-0.8,1.4-1.5,1.9s-1.6,0.8-2.6,0.8c-1.7,0-3-0.5-3.9-1.6c-0.9-1.1-1.4-2.6-1.4-4.6v-9.3h3V683.7z M234.8,674.5h3v15.2h-3
			V674.5z"/>
		<path class="st3" d="M245.3,685.8c0,0.4,0.1,0.7,0.2,0.9c0.2,0.2,0.4,0.3,0.7,0.3h1.4v2.8h-1.8c-1.1,0-2-0.4-2.6-1.1
			c-0.6-0.7-0.9-1.7-0.9-3v-17.4h3V685.8z"/>
		<path class="st3" d="M249.9,674.5h6.9v2.7h-6.9V674.5z M252.3,688.8c-0.6-0.7-0.9-1.7-0.9-3V670h3v15.7c0,0.4,0.1,0.7,0.2,0.9
			c0.1,0.2,0.4,0.3,0.6,0.3h1.4v2.8H255C253.8,689.8,252.9,689.5,252.3,688.8z"/>
		<path class="st3" d="M271.5,689.2c-1-0.5-1.7-1.3-2.3-2.3c-0.5-1-0.8-2.2-0.8-3.6v-2.5c0-1.4,0.3-2.6,0.8-3.5s1.3-1.7,2.3-2.2
			c1-0.5,2.2-0.8,3.6-0.8c0.8,0,1.5,0.1,2.2,0.3c0.7,0.2,1.3,0.5,1.9,0.8c0.6,0.4,1,0.8,1.4,1.3l-2.2,1.9c-0.4-0.5-0.9-0.9-1.5-1.1
			c-0.6-0.3-1.2-0.4-1.8-0.4c-1.2,0-2.1,0.3-2.7,1s-1,1.6-1,2.7v2.5c0,1.2,0.3,2.1,0.9,2.8c0.6,0.7,1.5,1,2.7,1
			c0.6,0,1.2-0.1,1.8-0.4s1.1-0.7,1.5-1.2l2.2,2.1c-0.4,0.5-0.9,0.9-1.4,1.3c-0.6,0.4-1.2,0.6-1.9,0.8s-1.4,0.3-2.2,0.3
			C273.7,689.9,272.5,689.7,271.5,689.2z"/>
		<path class="st3" d="M284.6,688.8c-0.9-0.8-1.4-2-1.4-3.5c0-1.5,0.4-2.6,1.3-3.4s2.1-1.1,3.9-1.1h4.3l0.2,2.4h-4.5
			c-0.8,0-1.4,0.2-1.8,0.5c-0.4,0.3-0.6,0.9-0.6,1.6c0,0.8,0.3,1.3,0.8,1.7s1.3,0.6,2.3,0.6c1.1,0,2-0.1,2.6-0.4
			c0.6-0.2,0.8-0.6,0.8-1.1l0.3,2.1c-0.3,0.4-0.6,0.7-1,1c-0.4,0.3-0.8,0.5-1.3,0.6c-0.5,0.1-1.1,0.2-1.7,0.2
			C286.9,689.9,285.5,689.6,284.6,688.8z M292.5,680.1c0-1-0.3-1.8-0.8-2.3c-0.5-0.6-1.3-0.8-2.3-0.8c-0.6,0-1.2,0.1-1.8,0.3
			c-0.6,0.2-1.1,0.4-1.5,0.8l-2.2-1.5c0.6-0.7,1.3-1.2,2.3-1.6c0.9-0.4,2-0.6,3.2-0.6c1.3,0,2.3,0.2,3.2,0.7s1.6,1.1,2.1,1.9
			c0.5,0.8,0.7,1.9,0.7,3.1v9.8h-2.8V680.1z"/>
		<path class="st3" d="M298.7,674.5h6.9v2.7h-6.9V674.5z M301.2,688.8c-0.6-0.7-0.9-1.7-0.9-3V670h3v15.7c0,0.4,0.1,0.7,0.2,0.9
			c0.1,0.2,0.4,0.3,0.6,0.3h1.4v2.8h-1.7C302.6,689.8,301.7,689.5,301.2,688.8z"/>
		<path class="st3" d="M312.4,689.1c-1-0.5-1.8-1.3-2.3-2.3c-0.5-1-0.8-2.3-0.8-3.7v-1.7c0-1.5,0.3-2.8,0.8-3.9
			c0.5-1.1,1.2-1.9,2.2-2.4c1-0.6,2.1-0.8,3.5-0.8c1.3,0,2.4,0.3,3.3,1c0.9,0.6,1.6,1.6,2.1,2.8s0.7,2.6,0.7,4.3v1h-10.3v-2.4h7.4
			c-0.1-1.2-0.4-2.2-1-2.9c-0.6-0.7-1.3-1-2.2-1c-1.1,0-2,0.4-2.6,1.1c-0.6,0.7-0.9,1.8-0.9,3.2v1.9c0,1.3,0.3,2.2,1,2.9
			c0.7,0.7,1.6,1,2.8,1c0.6,0,1.2-0.1,1.8-0.4s1.1-0.6,1.6-1l2,2c-0.8,0.7-1.6,1.3-2.5,1.7s-1.9,0.6-2.8,0.6
			C314.6,689.9,313.4,689.7,312.4,689.1z"/>
		<path class="st3" d="M327.8,689.3c-0.8-0.5-1.4-1.2-1.8-2.1c-0.4-0.9-0.6-2-0.6-3.3v-3.4c0-1.3,0.2-2.4,0.6-3.4
			c0.4-0.9,1-1.6,1.8-2.1c0.8-0.5,1.7-0.7,2.8-0.7c0.9,0,1.7,0.2,2.5,0.7c0.7,0.5,1.4,1.1,1.8,2l-0.3,3.1c0-0.6-0.1-1.2-0.4-1.7
			c-0.2-0.5-0.6-0.8-1-1c-0.4-0.2-1-0.4-1.6-0.4c-1,0-1.8,0.3-2.3,0.9c-0.5,0.6-0.8,1.5-0.8,2.6v3.3c0,1.1,0.3,2,0.8,2.6
			c0.5,0.6,1.3,0.9,2.3,0.9c0.6,0,1.2-0.1,1.6-0.4c0.4-0.2,0.8-0.6,1-1.1c0.2-0.5,0.4-1,0.4-1.7l0.2,3.2c-0.3,0.8-0.8,1.4-1.5,1.9
			c-0.7,0.5-1.5,0.8-2.5,0.8C329.6,690,328.6,689.7,327.8,689.3z M327.9,695.3c-0.9-0.4-1.6-1-2.1-1.8l2-1.8c0.4,0.5,0.9,1,1.4,1.2
			s1.1,0.4,1.7,0.4c1.1,0,2-0.3,2.7-0.9c0.6-0.6,0.9-1.5,0.9-2.7v-15.2h3v14.8c0,1.4-0.3,2.6-0.8,3.6s-1.3,1.8-2.2,2.3
			c-1,0.5-2.2,0.8-3.5,0.8C329.8,695.9,328.8,695.7,327.9,695.3z"/>
		<path class="st3" d="M344.5,689.2c-0.9-0.5-1.7-1.3-2.2-2.3c-0.5-1-0.7-2.2-0.7-3.6v-2.5c0-1.4,0.2-2.6,0.7-3.5
			c0.5-1,1.2-1.7,2.2-2.2c0.9-0.5,2.1-0.8,3.4-0.8s2.5,0.3,3.4,0.8c0.9,0.5,1.7,1.3,2.2,2.2c0.5,1,0.7,2.2,0.7,3.5v2.5
			c0,1.4-0.2,2.6-0.7,3.6c-0.5,1-1.2,1.7-2.2,2.3c-0.9,0.5-2.1,0.8-3.4,0.8S345.5,689.7,344.5,689.2z M350.3,686.1
			c0.6-0.7,0.9-1.6,0.9-2.8v-2.5c0-1.2-0.3-2.1-0.9-2.7c-0.6-0.6-1.4-1-2.4-1s-1.9,0.3-2.4,1s-0.9,1.6-0.9,2.7v2.5
			c0,1.2,0.3,2.1,0.9,2.8c0.6,0.7,1.4,1,2.4,1S349.8,686.8,350.3,686.1z"/>
		<path class="st3" d="M358.5,674.5h3v15.2h-3V674.5z M365.9,677.4c-0.4-0.2-0.9-0.2-1.4-0.2c-0.9,0-1.7,0.3-2.2,0.8
			c-0.5,0.5-0.8,1.3-0.8,2.2l-0.3-2.9c0.5-0.9,1.1-1.6,1.8-2.1c0.7-0.5,1.6-0.8,2.5-0.8c0.7,0,1.3,0.1,1.9,0.3
			c0.6,0.2,1.1,0.5,1.5,0.9l-2,2.6C366.6,677.8,366.3,677.5,365.9,677.4z"/>
		<path class="st3" d="M369.7,674.5h3.1l4.7,13.2l-1.7,3.2L369.7,674.5z M383.2,674.5l-6.5,18.8c-0.2,0.7-0.5,1.2-0.9,1.7
			c-0.4,0.4-0.9,0.7-1.4,0.9c-0.6,0.2-1.2,0.3-2.1,0.3h-0.6v-2.9h0.6c0.6,0,1-0.1,1.3-0.3c0.3-0.2,0.6-0.6,0.9-1.2l5.6-17.2H383.2z"
			/>
	</g>
</g>
<path class="st3" d="M144,675.2l-14,14c-0.4,0.4-1,0.6-1.5,0.6c-0.5,0-1-0.2-1.3-0.6c-0.4-0.4-0.6-0.9-0.6-1.5c0-0.5,0.2-1,0.6-1.4
	l1.3-1.3l12.6-12.6c0.8-0.8,2.1-0.8,2.9,0C144.8,673.1,144.8,674.4,144,675.2z"/>
<path class="st3" d="M129.8,689.1c-0.4,0.3-0.9,0.6-1.3,0.6c0,0-0.1,0-0.1,0c-0.5,0-1-0.2-1.4-0.6l-13.9-14c-0.8-0.8-0.8-2.1,0-2.9
	c0.8-0.8,2.1-0.8,2.9,0l12.6,12.6l1.3,1.3C130.6,687,130.6,688.3,129.8,689.1z"/>
<g>
	<path class="st3" d="M179.5,772H178c-1.6,0-2.9-1.3-2.9-2.9v-38c0-1.6,1.3-2.9,2.9-2.9h1.5c1.6,0,2.9,1.3,2.9,2.9v38
		C182.4,770.7,181.1,772,179.5,772z"/>
	<path class="st3" d="M200.7,749.3v1.5c0,1.6-1.3,2.9-2.9,2.9h-38c-1.6,0-2.9-1.3-2.9-2.9v-1.5c0-1.6,1.3-2.9,2.9-2.9h38
		C199.4,746.4,200.7,747.7,200.7,749.3z"/>
</g>
</svg>
