<?xml version="1.0" encoding="utf-8"?>
<!-- Generator: Adobe Illustrator 25.0.0, SVG Export Plug-In . SVG Version: 6.00 Build 0)  -->
<svg version="1.1" id="Layer_1" xmlns="http://www.w3.org/2000/svg" xmlns:xlink="http://www.w3.org/1999/xlink" x="0px" y="0px"
	 viewBox="0 0 1203.4 1000.4" style="enable-background:new 0 0 1203.4 1000.4;" xml:space="preserve">
<style type="text/css">
	.st0{fill:#36393F;}
	.st1{fill:#2F3136;}
	.st2{fill:#292841;}
	.st3{fill:#B9BBBE;}
	.st4{fill:#FFFFFF;}
	.st5{fill:#ED4245;}
	.st6{fill:#F6F6F6;}
	.st7{fill:#5865F2;}
	.st8{fill:#57F287;}
	.st9{fill:#FEE75C;}
	.st10{fill:#EB459E;}
	.st11{fill:#4FDC7C;}
	.st12{opacity:0.24;fill:#B9BBBE;enable-background:new    ;}
	.st13{opacity:0.5;fill:#292841;}
	.st14{opacity:0.5;fill:#FFFFFF;}
	.st15{opacity:0.5;fill:#B9BBBE;}
	.st16{opacity:0.5;fill:#ED4245;}
	.st17{opacity:0.5;fill:#5865F2;}
	.st18{fill:#C2905B;}
	.st19{fill:#9FB35B;}
	.st20{fill:#A17548;}
	.st21{enable-background:new    ;}
	.st22{fill:#523C25;}
	.st23{fill:#725333;}
	.st24{fill:#8D663F;}
	.st25{fill:#606060;}
	.st26{fill:none;}
	.st27{opacity:0.43;}
	.st28{opacity:0.24;fill:url(#SVGID_1_);enable-background:new    ;}
</style>
<path class="st2" d="M966.5,89v827.6c0,10.1-8.2,18.3-18.3,18.3h-693c-10.1,0-18.3-8.2-18.3-18.3V89c0-10.1,8.2-18.3,18.3-18.3h693
	C958.3,70.7,966.5,78.9,966.5,89z"/>
<path class="st12" d="M951.5,105.4v46.6c0,10.1-8.2,18.3-18.3,18.3H270.1c-10.1,0-18.3-8.2-18.3-18.3v-46.6
	c0-10.1,8.2-18.3,18.3-18.3h663.1C943.4,87.1,951.5,95.3,951.5,105.4z"/>
<g class="st27">
	<g>
		<g>
			<path class="st4" d="M286.5,141.2c-1.6-0.9-2.8-2.3-3.7-4c-0.9-1.7-1.3-3.7-1.3-6V123c0-2.3,0.4-4.2,1.3-5.9c0.9-1.7,2.1-3,3.7-4
				s3.4-1.4,5.5-1.4c1.7,0,3.3,0.4,4.8,1.1c1.5,0.7,2.7,1.8,3.7,3.2c1,1.4,1.6,2.9,2,4.7h-4.4c-0.3-0.9-0.7-1.8-1.3-2.5
				c-0.6-0.7-1.3-1.3-2.2-1.7c-0.8-0.4-1.7-0.6-2.6-0.6c-1.2,0-2.3,0.3-3.3,0.9c-0.9,0.6-1.7,1.4-2.2,2.5c-0.5,1.1-0.8,2.3-0.8,3.8
				v8.3c0,1.4,0.3,2.7,0.8,3.8c0.5,1.1,1.2,1.9,2.2,2.5c0.9,0.6,2,0.9,3.3,0.9c0.9,0,1.8-0.2,2.6-0.6c0.8-0.4,1.6-0.9,2.2-1.7
				c0.6-0.7,1.1-1.6,1.3-2.6h4.4c-0.3,1.8-1,3.4-2,4.7c-1,1.4-2.2,2.4-3.7,3.2c-1.5,0.7-3.1,1.1-4.8,1.1
				C289.9,142.6,288.1,142.2,286.5,141.2z"/>
			<path class="st4" d="M308.1,112h4.3v30.4h-4.3V112z M321.3,129.2c0-1.5-0.4-2.7-1.2-3.5c-0.8-0.8-1.9-1.3-3.3-1.3
				c-1.4,0-2.5,0.4-3.2,1.1c-0.8,0.7-1.1,1.7-1.1,3.1l-0.4-4.2c0.7-1.3,1.5-2.3,2.6-3c1.1-0.7,2.3-1.1,3.6-1.1
				c2.4,0,4.2,0.8,5.5,2.3c1.3,1.5,1.9,3.7,1.9,6.5v13.2h-4.3V129.2z"/>
			<path class="st4" d="M335.5,141.5c-1.3-0.7-2.4-1.8-3.1-3.2c-0.7-1.4-1.1-3.1-1.1-5.1v-3.5c0-2,0.4-3.6,1.1-5
				c0.7-1.4,1.7-2.5,3.1-3.2c1.3-0.7,2.9-1.1,4.8-1.1s3.5,0.4,4.8,1.1s2.4,1.8,3.1,3.2c0.7,1.4,1.1,3.1,1.1,5v3.6
				c0,2-0.4,3.7-1.1,5.1c-0.7,1.4-1.7,2.5-3.1,3.2c-1.3,0.7-2.9,1.1-4.8,1.1S336.9,142.3,335.5,141.5z M343.8,137.2
				c0.8-0.9,1.2-2.2,1.2-3.9v-3.6c0-1.7-0.4-3-1.2-3.9c-0.8-0.9-2-1.4-3.5-1.4s-2.6,0.5-3.5,1.4c-0.8,0.9-1.2,2.2-1.2,3.9v3.6
				c0,1.7,0.4,3,1.2,3.9c0.8,0.9,2,1.4,3.5,1.4S343,138.1,343.8,137.2z"/>
			<path class="st4" d="M358.8,141.5c-1.3-0.7-2.4-1.8-3.1-3.2c-0.7-1.4-1.1-3.1-1.1-5.1v-3.5c0-2,0.4-3.6,1.1-5
				c0.7-1.4,1.7-2.5,3.1-3.2c1.3-0.7,2.9-1.1,4.8-1.1s3.5,0.4,4.8,1.1s2.4,1.8,3.1,3.2c0.7,1.4,1.1,3.1,1.1,5v3.6
				c0,2-0.4,3.7-1.1,5.1c-0.7,1.4-1.7,2.5-3.1,3.2c-1.3,0.7-2.9,1.1-4.8,1.1S360.2,142.3,358.8,141.5z M367.1,137.2
				c0.8-0.9,1.2-2.2,1.2-3.9v-3.6c0-1.7-0.4-3-1.2-3.9c-0.8-0.9-2-1.4-3.5-1.4s-2.6,0.5-3.5,1.4c-0.8,0.9-1.2,2.2-1.2,3.9v3.6
				c0,1.7,0.4,3,1.2,3.9c0.8,0.9,2,1.4,3.5,1.4S366.3,138.1,367.1,137.2z"/>
			<path class="st4" d="M382.7,142.3c-1.1-0.3-2.2-0.6-3.1-1.1c-1-0.5-1.9-1.1-2.7-1.9l2.5-3.1c1.2,0.9,2.3,1.6,3.5,2
				c1.2,0.4,2.3,0.7,3.4,0.7c1.7,0,2.9-0.3,3.8-0.8c0.8-0.5,1.3-1.3,1.3-2.3c0-0.7-0.2-1.2-0.7-1.6s-1-0.6-1.7-0.7
				c-0.7-0.1-1.6-0.2-2.9-0.3c-0.1,0-0.2,0-0.4,0c-0.1,0-0.2,0-0.4,0c-0.1,0-0.1,0-0.2,0s-0.1,0-0.2,0c-1.4-0.1-2.6-0.3-3.6-0.6
				c-1-0.3-1.8-0.9-2.4-1.7c-0.6-0.8-1-2-1-3.5c0-1.5,0.3-2.8,0.9-3.8c0.6-1,1.6-1.8,2.8-2.3c1.2-0.5,2.8-0.8,4.7-0.8
				c1.1,0,2.2,0.1,3.2,0.3c1,0.2,2,0.5,2.9,0.9c0.9,0.4,1.8,0.9,2.7,1.6l-2.6,3.1c-1.1-0.7-2.2-1.2-3.2-1.6s-2.1-0.5-3.1-0.5
				c-1.4,0-2.5,0.2-3.3,0.7c-0.7,0.5-1.1,1.2-1.1,2.2c0,0.6,0.2,1,0.6,1.3c0.4,0.3,0.9,0.5,1.6,0.6c0.6,0.1,1.5,0.2,2.7,0.3
				c0.1,0,0.2,0,0.3,0c0.1,0,0.2,0,0.3,0c0,0,0.1,0,0.1,0s0.1,0,0.1,0c1.5,0.1,2.8,0.3,3.9,0.6c1.1,0.3,2,0.9,2.7,1.8
				c0.7,0.9,1.1,2.2,1.1,3.9c0,1.6-0.3,2.8-1,3.9c-0.7,1-1.7,1.8-3,2.3s-3,0.8-5.1,0.8C385,142.6,383.8,142.5,382.7,142.3z"/>
			<path class="st4" d="M404.5,141.5c-1.4-0.8-2.5-1.9-3.2-3.3c-0.7-1.5-1.1-3.2-1.1-5.3v-2.4c0-2.1,0.4-4,1.1-5.5
				c0.7-1.5,1.8-2.7,3.1-3.5s3-1.2,4.9-1.2c1.8,0,3.4,0.5,4.6,1.4c1.3,0.9,2.3,2.2,2.9,3.9c0.7,1.7,1,3.8,1,6.2v1.4h-14.6v-3.4h10.6
				c-0.1-1.8-0.6-3.1-1.4-4.1c-0.8-1-1.8-1.5-3.2-1.5c-1.6,0-2.9,0.5-3.7,1.6s-1.3,2.6-1.3,4.5v2.8c0,1.8,0.5,3.2,1.4,4.1
				c0.9,1,2.3,1.4,4,1.4c0.9,0,1.7-0.2,2.6-0.5s1.6-0.8,2.3-1.5l2.8,2.8c-1.1,1-2.3,1.8-3.6,2.4s-2.7,0.8-4,0.8
				C407.7,142.6,406,142.3,404.5,141.5z"/>
			<path class="st4" d="M436.1,141c-1.3-1.1-2-2.8-2-5c0-2.1,0.6-3.8,1.8-4.8c1.2-1.1,3-1.6,5.5-1.6h6.2l0.3,3.4h-6.4
				c-1.1,0-1.9,0.2-2.5,0.7s-0.8,1.2-0.8,2.3c0,1.1,0.4,1.9,1.1,2.4c0.7,0.5,1.8,0.8,3.3,0.8c1.6,0,2.8-0.2,3.6-0.5
				c0.8-0.3,1.2-0.9,1.2-1.6l0.4,3c-0.4,0.6-0.8,1.1-1.4,1.4s-1.2,0.7-1.9,0.8s-1.5,0.3-2.4,0.3C439.5,142.6,437.5,142.1,436.1,141z
				 M447.4,128.6c0-1.4-0.4-2.5-1.1-3.3c-0.8-0.8-1.8-1.2-3.2-1.2c-0.9,0-1.7,0.1-2.5,0.4c-0.8,0.3-1.6,0.6-2.2,1.1l-3.1-2.1
				c0.8-1,1.9-1.8,3.2-2.3c1.3-0.5,2.8-0.8,4.5-0.8c1.8,0,3.3,0.3,4.6,1c1.3,0.6,2.3,1.6,2.9,2.8s1,2.7,1,4.4v13.9h-4V128.6z"/>
			<path class="st4" d="M473.7,136.7c0,0.5,0.1,0.9,0.3,1.2c0.2,0.3,0.6,0.4,1,0.4h2v4h-2.5c-1.6,0-2.9-0.5-3.7-1.5
				s-1.3-2.4-1.3-4.2V112h4.3V136.7z"/>
			<path class="st4" d="M482.8,141c-1.3-1.1-2-2.8-2-5c0-2.1,0.6-3.8,1.8-4.8c1.2-1.1,3-1.6,5.5-1.6h6.2l0.3,3.4h-6.4
				c-1.1,0-1.9,0.2-2.5,0.7s-0.8,1.2-0.8,2.3c0,1.1,0.4,1.9,1.1,2.4c0.7,0.5,1.8,0.8,3.3,0.8c1.6,0,2.8-0.2,3.6-0.5
				c0.8-0.3,1.2-0.9,1.2-1.6l0.4,3c-0.4,0.6-0.8,1.1-1.4,1.4s-1.2,0.7-1.9,0.8s-1.5,0.3-2.4,0.3C486.1,142.6,484.1,142.1,482.8,141z
				 M494.1,128.6c0-1.4-0.4-2.5-1.1-3.3c-0.8-0.8-1.8-1.2-3.2-1.2c-0.9,0-1.7,0.1-2.5,0.4c-0.8,0.3-1.6,0.6-2.2,1.1l-3.1-2.1
				c0.8-1,1.9-1.8,3.2-2.3c1.3-0.5,2.8-0.8,4.5-0.8c1.8,0,3.3,0.3,4.6,1c1.3,0.6,2.3,1.6,2.9,2.8s1,2.7,1,4.4v13.9h-4V128.6z"/>
			<path class="st4" d="M504.6,120.6h4.3v21.7h-4.3V120.6z M517.7,129.2c0-1.5-0.4-2.7-1.2-3.5c-0.8-0.8-1.9-1.3-3.3-1.3
				c-1.4,0-2.5,0.4-3.2,1.1c-0.8,0.7-1.1,1.8-1.1,3.1l-0.4-4.2c0.7-1.3,1.5-2.3,2.6-3c1.1-0.7,2.3-1.1,3.6-1.1
				c2.4,0,4.2,0.8,5.5,2.3c1.3,1.5,1.9,3.7,1.9,6.5v13.2h-4.3V129.2z"/>
			<path class="st4" d="M531.3,141.7c-1.1-0.7-2-1.7-2.6-3s-0.9-2.9-0.9-4.8v-4.8c0-1.9,0.3-3.5,0.9-4.8c0.6-1.3,1.4-2.3,2.5-3
				c1.1-0.7,2.4-1,3.9-1c1.3,0,2.5,0.3,3.5,1s1.9,1.6,2.6,2.8l-0.4,4.4c0-0.9-0.2-1.7-0.5-2.4s-0.8-1.2-1.5-1.5
				c-0.6-0.3-1.4-0.5-2.3-0.5c-1.4,0-2.5,0.4-3.3,1.3s-1.2,2.1-1.2,3.7v4.7c0,1.6,0.4,2.8,1.2,3.6c0.8,0.9,1.9,1.3,3.3,1.3
				c0.9,0,1.7-0.2,2.3-0.5c0.6-0.4,1.1-0.9,1.5-1.5s0.5-1.5,0.5-2.4l0.3,4.6c-0.4,1.1-1.1,2-2.1,2.7c-1,0.7-2.2,1.1-3.6,1.1
				C533.7,142.7,532.4,142.3,531.3,141.7z M531.3,150.2c-1.3-0.6-2.3-1.5-3-2.6l2.9-2.6c0.6,0.8,1.2,1.4,2,1.8
				c0.8,0.4,1.6,0.6,2.4,0.6c1.6,0,2.9-0.4,3.8-1.3s1.3-2.2,1.3-3.8v-21.6h4.3v21c0,2-0.4,3.7-1.1,5.1c-0.7,1.4-1.8,2.5-3.2,3.2
				c-1.4,0.7-3.1,1.1-5,1.1C534.1,151.1,532.6,150.8,531.3,150.2z"/>
			<path class="st4" d="M555.8,133.8c0,1.5,0.4,2.7,1.2,3.5c0.8,0.8,1.9,1.2,3.3,1.2c1.4,0,2.5-0.4,3.2-1.1c0.8-0.7,1.1-1.8,1.1-3.2
				l0.3,4.5c-0.4,1.1-1.2,2-2.2,2.7s-2.2,1.1-3.7,1.1c-2.4,0-4.2-0.8-5.5-2.3c-1.3-1.5-2-3.7-2-6.5v-13.2h4.3V133.8z M564.6,120.6
				h4.2v21.7h-4.2V120.6z"/>
			<path class="st4" d="M576.2,141c-1.3-1.1-2-2.8-2-5c0-2.1,0.6-3.8,1.8-4.8c1.2-1.1,3-1.6,5.5-1.6h6.2l0.3,3.4h-6.4
				c-1.1,0-1.9,0.2-2.5,0.7s-0.8,1.2-0.8,2.3c0,1.1,0.4,1.9,1.1,2.4c0.7,0.5,1.8,0.8,3.3,0.8c1.6,0,2.8-0.2,3.6-0.5
				c0.8-0.3,1.2-0.9,1.2-1.6l0.4,3c-0.4,0.6-0.8,1.1-1.4,1.4s-1.2,0.7-1.9,0.8s-1.5,0.3-2.4,0.3C579.5,142.6,577.5,142.1,576.2,141z
				 M587.5,128.6c0-1.4-0.4-2.5-1.1-3.3c-0.8-0.8-1.8-1.2-3.2-1.2c-0.9,0-1.7,0.1-2.5,0.4c-0.8,0.3-1.6,0.6-2.2,1.1l-3.1-2.1
				c0.8-1,1.9-1.8,3.2-2.3c1.3-0.5,2.8-0.8,4.5-0.8c1.8,0,3.3,0.3,4.6,1c1.3,0.6,2.3,1.6,2.9,2.8s1,2.7,1,4.4v13.9h-4V128.6z"/>
			<path class="st4" d="M600.8,141.7c-1.1-0.7-2-1.7-2.6-3s-0.9-2.9-0.9-4.8v-4.8c0-1.9,0.3-3.5,0.9-4.8c0.6-1.3,1.4-2.3,2.5-3
				c1.1-0.7,2.4-1,3.9-1c1.3,0,2.5,0.3,3.5,1s1.9,1.6,2.6,2.8l-0.4,4.4c0-0.9-0.2-1.7-0.5-2.4s-0.8-1.2-1.5-1.5
				c-0.6-0.3-1.4-0.5-2.3-0.5c-1.4,0-2.5,0.4-3.3,1.3s-1.2,2.1-1.2,3.7v4.7c0,1.6,0.4,2.8,1.2,3.6c0.8,0.9,1.9,1.3,3.3,1.3
				c0.9,0,1.7-0.2,2.3-0.5c0.6-0.4,1.1-0.9,1.5-1.5s0.5-1.5,0.5-2.4l0.3,4.6c-0.4,1.1-1.1,2-2.1,2.7c-1,0.7-2.2,1.1-3.6,1.1
				C603.3,142.7,602,142.3,600.8,141.7z M600.9,150.2c-1.3-0.6-2.3-1.5-3-2.6l2.9-2.6c0.6,0.8,1.2,1.4,2,1.8
				c0.8,0.4,1.6,0.6,2.4,0.6c1.6,0,2.9-0.4,3.8-1.3s1.3-2.2,1.3-3.8v-21.6h4.3v21c0,2-0.4,3.7-1.1,5.1c-0.7,1.4-1.8,2.5-3.2,3.2
				c-1.4,0.7-3.1,1.1-5,1.1C603.7,151.1,602.2,150.8,600.9,150.2z"/>
			<path class="st4" d="M624.8,141.5c-1.4-0.8-2.5-1.9-3.2-3.3c-0.7-1.5-1.1-3.2-1.1-5.3v-2.4c0-2.1,0.4-4,1.1-5.5
				c0.7-1.5,1.8-2.7,3.1-3.5s3-1.2,4.9-1.2c1.8,0,3.4,0.5,4.6,1.4c1.3,0.9,2.3,2.2,2.9,3.9c0.7,1.7,1,3.8,1,6.2v1.4h-14.6v-3.4h10.6
				c-0.1-1.8-0.6-3.1-1.4-4.1c-0.8-1-1.8-1.5-3.2-1.5c-1.6,0-2.9,0.5-3.7,1.6s-1.3,2.6-1.3,4.5v2.8c0,1.8,0.5,3.2,1.4,4.1
				c0.9,1,2.3,1.4,4,1.4c0.9,0,1.7-0.2,2.6-0.5s1.6-0.8,2.3-1.5l2.8,2.8c-1.1,1-2.3,1.8-3.6,2.4s-2.7,0.8-4,0.8
				C628,142.6,626.2,142.3,624.8,141.5z"/>
		</g>
	</g>
</g>
<path class="st3" d="M913,122.2L913,122.2c0.8,0.8,0.8,2.1,0,2.9L899,139.1c-0.8,0.8-2.1,0.8-2.9,0l0,0c-0.8-0.8-0.8-2.1,0-2.9
	l13.9-13.9C910.9,121.5,912.2,121.5,913,122.2z"/>
<path class="st3" d="M882,122.2L882,122.2c0.8-0.8,2.1-0.8,2.9,0l13.9,13.9c0.8,0.8,0.8,2.1,0,2.9l0,0c-0.8,0.8-2.1,0.8-2.9,0
	L882,125.1C881.2,124.3,881.2,123,882,122.2z"/>
<g>
	<g>
		<g>
			<path class="st4" d="M288.6,224.6c-1.4-0.8-2.5-1.9-3.2-3.3c-0.7-1.5-1.1-3.2-1.1-5.3v-2.4c0-2.1,0.4-4,1.1-5.5
				c0.7-1.5,1.8-2.7,3.1-3.5s3-1.2,4.9-1.2c1.8,0,3.4,0.5,4.6,1.4c1.3,0.9,2.3,2.2,2.9,3.9c0.7,1.7,1,3.8,1,6.2v1.4h-14.6v-3.4h10.6
				c-0.1-1.8-0.6-3.1-1.4-4.1c-0.8-1-1.8-1.5-3.2-1.5c-1.6,0-2.9,0.5-3.7,1.6s-1.3,2.6-1.3,4.5v2.8c0,1.8,0.5,3.2,1.4,4.1
				c0.9,1,2.3,1.4,4,1.4c0.9,0,1.7-0.2,2.6-0.5s1.6-0.8,2.3-1.5l2.8,2.8c-1.1,1-2.3,1.8-3.6,2.4s-2.7,0.8-4,0.8
				C291.7,225.8,290,225.4,288.6,224.6z"/>
			<path class="st4" d="M307.7,203.8h4.3v21.7h-4.3V203.8z M320.9,212.3c0-1.5-0.4-2.7-1.2-3.5c-0.8-0.8-1.9-1.3-3.3-1.3
				c-1.4,0-2.5,0.4-3.2,1.1c-0.8,0.7-1.1,1.8-1.1,3.1l-0.4-4.2c0.7-1.3,1.5-2.3,2.6-3c1.1-0.7,2.3-1.1,3.6-1.1
				c2.4,0,4.2,0.8,5.5,2.3c1.3,1.5,1.9,3.7,1.9,6.5v13.2h-4.3V212.3z"/>
			<path class="st4" d="M334.4,224.8c-1.1-0.7-2-1.7-2.6-3s-0.9-2.9-0.9-4.8v-4.8c0-1.9,0.3-3.5,0.9-4.8c0.6-1.3,1.4-2.3,2.5-3
				c1.1-0.7,2.4-1,3.9-1c1.3,0,2.5,0.3,3.5,1s1.9,1.6,2.6,2.8l-0.4,4.4c0-0.9-0.2-1.7-0.5-2.4s-0.8-1.2-1.5-1.5
				c-0.6-0.3-1.4-0.5-2.3-0.5c-1.4,0-2.5,0.4-3.3,1.3s-1.2,2.1-1.2,3.7v4.7c0,1.6,0.4,2.8,1.2,3.6c0.8,0.9,1.9,1.3,3.3,1.3
				c0.9,0,1.7-0.2,2.3-0.5c0.6-0.4,1.1-0.9,1.5-1.5s0.5-1.5,0.5-2.4l0.3,4.6c-0.4,1.1-1.1,2-2.1,2.7c-1,0.7-2.2,1.1-3.6,1.1
				C336.9,225.8,335.6,225.5,334.4,224.8z M334.5,233.4c-1.3-0.6-2.3-1.5-3-2.6l2.9-2.6c0.6,0.8,1.2,1.4,2,1.8
				c0.8,0.4,1.6,0.6,2.4,0.6c1.6,0,2.9-0.4,3.8-1.3s1.3-2.2,1.3-3.8v-21.6h4.3v21c0,2-0.4,3.7-1.1,5.1c-0.7,1.4-1.8,2.5-3.2,3.2
				c-1.4,0.7-3.1,1.1-5,1.1C337.3,234.3,335.8,234,334.5,233.4z"/>
			<path class="st4" d="M358.9,219.9c0,0.5,0.1,0.9,0.3,1.2c0.2,0.3,0.6,0.4,1,0.4h2v4h-2.5c-1.6,0-2.9-0.5-3.7-1.5
				s-1.3-2.4-1.3-4.2v-24.7h4.3V219.9z"/>
			<path class="st4" d="M367.1,195.1h4.3v4.3h-4.3V195.1z M367.1,203.8h4.3v21.7h-4.3V203.8z"/>
			<path class="st4" d="M381.8,225.4c-1.1-0.3-2.2-0.6-3.1-1.1c-1-0.5-1.9-1.1-2.7-1.9l2.5-3.1c1.2,0.9,2.3,1.6,3.5,2
				c1.2,0.4,2.3,0.7,3.4,0.7c1.7,0,2.9-0.3,3.8-0.8c0.8-0.5,1.3-1.3,1.3-2.3c0-0.7-0.2-1.2-0.7-1.6s-1-0.6-1.7-0.7
				c-0.7-0.1-1.6-0.2-2.9-0.3c-0.1,0-0.2,0-0.4,0c-0.1,0-0.2,0-0.4,0c-0.1,0-0.1,0-0.2,0s-0.1,0-0.2,0c-1.4-0.1-2.6-0.3-3.6-0.6
				c-1-0.3-1.8-0.9-2.4-1.7c-0.6-0.8-1-2-1-3.5s0.3-2.8,0.9-3.8c0.6-1,1.6-1.8,2.8-2.3c1.2-0.5,2.8-0.8,4.7-0.8
				c1.1,0,2.2,0.1,3.2,0.3c1,0.2,2,0.5,2.9,0.9c0.9,0.4,1.8,0.9,2.7,1.6l-2.6,3.1c-1.1-0.7-2.2-1.2-3.2-1.6s-2.1-0.5-3.1-0.5
				c-1.4,0-2.5,0.2-3.3,0.7c-0.7,0.5-1.1,1.2-1.1,2.2c0,0.6,0.2,1,0.6,1.3c0.4,0.3,0.9,0.5,1.6,0.6c0.6,0.1,1.5,0.2,2.7,0.3
				c0.1,0,0.2,0,0.3,0c0.1,0,0.2,0,0.3,0c0,0,0.1,0,0.1,0s0.1,0,0.1,0c1.5,0.1,2.8,0.3,3.9,0.6c1.1,0.3,2,0.9,2.7,1.8
				c0.7,0.9,1.1,2.2,1.1,3.9c0,1.6-0.3,2.8-1,3.9c-0.7,1-1.7,1.8-3,2.3s-3,0.8-5.1,0.8C384.2,225.8,383,225.6,381.8,225.4z"/>
			<path class="st4" d="M400,195.1h4.3v30.4H400V195.1z M413.1,212.3c0-1.5-0.4-2.7-1.2-3.5c-0.8-0.8-1.9-1.3-3.3-1.3
				c-1.4,0-2.5,0.4-3.2,1.1c-0.8,0.7-1.1,1.7-1.1,3.1l-0.4-4.2c0.7-1.3,1.5-2.3,2.6-3c1.1-0.7,2.3-1.1,3.6-1.1
				c2.4,0,4.2,0.8,5.5,2.3c1.3,1.5,1.9,3.7,1.9,6.5v13.2h-4.3V212.3z"/>
		</g>
	</g>
</g>
<path class="st12" d="M600.7,269.4H286.8c-2.9,0-5.3-2.4-5.3-5.3v-14.3c0-2.9,2.4-5.3,5.3-5.3h313.9c2.9,0,5.3,2.4,5.3,5.3V264
	C606,267,603.6,269.4,600.7,269.4z"/>
<g>
	<g>
		<g>
			<path class="st4" d="M287.6,330.7c-1.1-0.7-2-1.7-2.6-3s-0.9-2.9-0.9-4.8v-4.8c0-1.9,0.3-3.5,0.9-4.8c0.6-1.3,1.4-2.3,2.5-3
				c1.1-0.7,2.4-1,3.9-1c1.3,0,2.5,0.3,3.5,1s1.9,1.6,2.6,2.8l-0.4,4.4c0-0.9-0.2-1.7-0.5-2.4s-0.8-1.2-1.5-1.5
				c-0.6-0.3-1.4-0.5-2.3-0.5c-1.4,0-2.5,0.4-3.3,1.3s-1.2,2.1-1.2,3.7v4.7c0,1.6,0.4,2.8,1.2,3.6c0.8,0.9,1.9,1.3,3.3,1.3
				c0.9,0,1.7-0.2,2.3-0.5c0.6-0.4,1.1-0.9,1.5-1.5s0.5-1.5,0.5-2.4l0.3,4.6c-0.4,1.1-1.1,2-2.1,2.7c-1,0.7-2.2,1.1-3.6,1.1
				C290.1,331.7,288.8,331.4,287.6,330.7z M297.1,301h4.3v30.4h-4.3V301z"/>
			<path class="st4" d="M311.6,330.5c-1.4-0.8-2.5-1.9-3.2-3.3c-0.7-1.5-1.1-3.2-1.1-5.3v-2.4c0-2.1,0.4-4,1.1-5.5
				c0.7-1.5,1.8-2.7,3.1-3.5s3-1.2,4.9-1.2c1.8,0,3.4,0.5,4.6,1.4c1.3,0.9,2.3,2.2,2.9,3.9c0.7,1.7,1,3.8,1,6.2v1.4h-14.6v-3.4h10.6
				c-0.1-1.8-0.6-3.1-1.4-4.1c-0.8-1-1.8-1.5-3.2-1.5c-1.6,0-2.9,0.5-3.7,1.6s-1.3,2.6-1.3,4.5v2.8c0,1.8,0.5,3.2,1.4,4.1
				c0.9,1,2.3,1.4,4,1.4c0.9,0,1.7-0.2,2.6-0.5s1.6-0.8,2.3-1.5l2.8,2.8c-1.1,1-2.3,1.8-3.6,2.4s-2.7,0.8-4,0.8
				C314.7,331.7,313,331.3,311.6,330.5z"/>
			<path class="st4" d="M335.1,322.8c0,1.5,0.4,2.7,1.2,3.5c0.8,0.8,1.9,1.2,3.3,1.2c1.4,0,2.5-0.4,3.2-1.1c0.8-0.7,1.1-1.8,1.1-3.2
				l0.3,4.5c-0.4,1.1-1.2,2-2.2,2.7s-2.2,1.1-3.7,1.1c-2.4,0-4.2-0.8-5.5-2.3c-1.3-1.5-2-3.7-2-6.5v-13.2h4.3V322.8z M343.9,309.7
				h4.2v21.7h-4.2V309.7z"/>
			<path class="st4" d="M352.9,309.7h9.8v3.8h-9.8V309.7z M356.4,330c-0.8-1-1.2-2.4-1.2-4.3v-22.3h4.3v22.4c0,0.5,0.1,0.9,0.3,1.2
				c0.2,0.3,0.5,0.4,0.9,0.4h2v4h-2.5C358.5,331.4,357.2,331,356.4,330z"/>
			<path class="st4" d="M372.6,331.3c-1.1-0.3-2.2-0.6-3.1-1.1c-1-0.5-1.9-1.1-2.7-1.9l2.5-3.1c1.2,0.9,2.3,1.6,3.5,2
				c1.2,0.4,2.3,0.7,3.4,0.7c1.7,0,2.9-0.3,3.8-0.8c0.8-0.5,1.3-1.3,1.3-2.3c0-0.7-0.2-1.2-0.7-1.6s-1-0.6-1.7-0.7
				c-0.7-0.1-1.6-0.2-2.9-0.3c-0.1,0-0.2,0-0.4,0c-0.1,0-0.2,0-0.4,0c-0.1,0-0.1,0-0.2,0s-0.1,0-0.2,0c-1.4-0.1-2.6-0.3-3.6-0.6
				c-1-0.3-1.8-0.9-2.4-1.7c-0.6-0.8-1-2-1-3.5s0.3-2.8,0.9-3.8c0.6-1,1.6-1.8,2.8-2.3c1.2-0.5,2.8-0.8,4.7-0.8
				c1.1,0,2.2,0.1,3.2,0.3c1,0.2,2,0.5,2.9,0.9c0.9,0.4,1.8,0.9,2.7,1.6l-2.6,3.1c-1.1-0.7-2.2-1.2-3.2-1.6s-2.1-0.5-3.1-0.5
				c-1.4,0-2.5,0.2-3.3,0.7c-0.7,0.5-1.1,1.2-1.1,2.2c0,0.6,0.2,1,0.6,1.3c0.4,0.3,0.9,0.5,1.6,0.6c0.6,0.1,1.5,0.2,2.7,0.3
				c0.1,0,0.2,0,0.3,0c0.1,0,0.2,0,0.3,0c0,0,0.1,0,0.1,0s0.1,0,0.1,0c1.5,0.1,2.8,0.3,3.9,0.6c1.1,0.3,2,0.9,2.7,1.8
				c0.7,0.9,1.1,2.2,1.1,3.9c0,1.6-0.3,2.8-1,3.9c-0.7,1-1.7,1.8-3,2.3s-3,0.8-5.1,0.8C374.9,331.7,373.7,331.5,372.6,331.3z"/>
			<path class="st4" d="M394.4,330.5c-1.4-0.7-2.5-1.8-3.2-3.2c-0.7-1.4-1.1-3.1-1.1-5.1v-3.6c0-2,0.4-3.6,1.1-5s1.8-2.5,3.2-3.2
				c1.4-0.7,3.1-1.1,5.1-1.1c1.1,0,2.2,0.1,3.2,0.4c1,0.3,1.9,0.7,2.7,1.2c0.8,0.5,1.5,1.1,2,1.9l-3.1,2.8c-0.6-0.7-1.3-1.2-2.2-1.6
				s-1.7-0.6-2.6-0.6c-1.6,0-2.9,0.5-3.8,1.4c-0.9,0.9-1.4,2.2-1.4,3.9v3.6c0,1.7,0.4,3,1.3,4s2.2,1.4,3.8,1.4
				c0.9,0,1.8-0.2,2.6-0.6c0.8-0.4,1.5-1,2.1-1.7l3.1,3c-0.5,0.7-1.2,1.3-2,1.8c-0.8,0.5-1.7,0.9-2.7,1.2c-1,0.3-2,0.4-3.2,0.4
				C397.5,331.7,395.8,331.3,394.4,330.5z"/>
			<path class="st4" d="M412,301h4.3v30.4H412V301z M425.1,318.2c0-1.5-0.4-2.7-1.2-3.5c-0.8-0.8-1.9-1.3-3.3-1.3
				c-1.4,0-2.5,0.4-3.2,1.1c-0.8,0.7-1.1,1.7-1.1,3.1l-0.4-4.2c0.7-1.3,1.5-2.3,2.6-3c1.1-0.7,2.3-1.1,3.6-1.1
				c2.4,0,4.2,0.8,5.5,2.3c1.3,1.5,1.9,3.7,1.9,6.5v13.2h-4.3V318.2z"/>
		</g>
	</g>
</g>
<path class="st12" d="M715.2,375.2H286.8c-2.9,0-5.3-2.4-5.3-5.3v-14.3c0-2.9,2.4-5.3,5.3-5.3h428.4c2.9,0,5.3,2.4,5.3,5.3v14.3
	C720.5,372.9,718.1,375.2,715.2,375.2z"/>
<g>
	<g>
		<g>
			<path class="st4" d="M283.2,415.3H294v3.6h-10.8V415.3z M285.5,412.4c0-1.9,0.4-3.4,1.3-4.3c0.9-1,2.2-1.4,4.1-1.4h3.1v4h-3
				c-0.4,0-0.7,0.2-0.9,0.5c-0.2,0.3-0.3,0.7-0.3,1.2V437h-4.3V412.4z"/>
			<path class="st4" d="M298.4,415.3h4.3V437h-4.3V415.3z M308.9,419.4c-0.6-0.2-1.2-0.4-2-0.4c-1.3,0-2.4,0.4-3.1,1.1
				c-0.7,0.7-1.1,1.8-1.1,3.1l-0.4-4.2c0.7-1.3,1.5-2.3,2.6-3c1.1-0.7,2.2-1.1,3.5-1.1c1,0,1.9,0.1,2.7,0.4c0.8,0.3,1.5,0.7,2.1,1.3
				l-2.8,3.8C309.9,420,309.4,419.6,308.9,419.4z"/>
			<path class="st4" d="M317.6,435.6c-1.3-1.1-2-2.8-2-5c0-2.1,0.6-3.8,1.8-4.8c1.2-1.1,3-1.6,5.5-1.6h6.2l0.3,3.4h-6.4
				c-1.1,0-1.9,0.2-2.5,0.7s-0.8,1.2-0.8,2.3c0,1.1,0.4,1.9,1.1,2.4c0.7,0.5,1.8,0.8,3.3,0.8c1.6,0,2.8-0.2,3.6-0.5
				c0.8-0.3,1.2-0.9,1.2-1.6l0.4,3c-0.4,0.6-0.8,1.1-1.4,1.4s-1.2,0.7-1.9,0.8s-1.5,0.3-2.4,0.3
				C320.9,437.3,318.9,436.8,317.6,435.6z M328.9,423.3c0-1.4-0.4-2.5-1.1-3.3c-0.8-0.8-1.8-1.2-3.2-1.2c-0.9,0-1.7,0.1-2.5,0.4
				c-0.8,0.3-1.6,0.6-2.2,1.1l-3.1-2.1c0.8-1,1.9-1.8,3.2-2.3c1.3-0.5,2.8-0.8,4.5-0.8c1.8,0,3.3,0.3,4.6,1c1.3,0.6,2.3,1.6,2.9,2.8
				s1,2.7,1,4.4V437h-4V423.3z"/>
			<path class="st4" d="M339.4,415.3h4.3V437h-4.3V415.3z M352.5,423.9c0-1.5-0.4-2.7-1.2-3.5c-0.8-0.8-1.9-1.3-3.3-1.3
				c-1.4,0-2.5,0.4-3.2,1.1c-0.8,0.7-1.1,1.8-1.1,3.1l-0.4-4.2c0.7-1.3,1.5-2.3,2.6-3c1.1-0.7,2.3-1.1,3.6-1.1
				c2.4,0,4.2,0.8,5.5,2.3c1.3,1.5,1.9,3.7,1.9,6.5V437h-4.3V423.9z"/>
			<path class="st4" d="M366.9,436.2c-1.4-0.7-2.5-1.8-3.2-3.2c-0.7-1.4-1.1-3.1-1.1-5.1v-3.6c0-2,0.4-3.6,1.1-5s1.8-2.5,3.2-3.2
				c1.4-0.7,3.1-1.1,5.1-1.1c1.1,0,2.2,0.1,3.2,0.4c1,0.3,1.9,0.7,2.7,1.2c0.8,0.5,1.5,1.1,2,1.9l-3.1,2.8c-0.6-0.7-1.3-1.2-2.2-1.6
				s-1.7-0.6-2.6-0.6c-1.6,0-2.9,0.5-3.8,1.4c-0.9,0.9-1.4,2.2-1.4,3.9v3.6c0,1.7,0.4,3,1.3,4s2.2,1.4,3.8,1.4
				c0.9,0,1.8-0.2,2.6-0.6c0.8-0.4,1.5-1,2.1-1.7l3.1,3c-0.5,0.7-1.2,1.3-2,1.8c-0.8,0.5-1.7,0.9-2.7,1.2c-1,0.3-2,0.4-3.2,0.4
				C370,437.3,368.3,436.9,366.9,436.2z M367.5,445.4l0.9-2.9c0.7,0.2,1.3,0.3,2,0.3c0.8,0,1.3-0.1,1.7-0.3c0.4-0.2,0.6-0.4,0.6-0.8
				c0-0.3-0.3-0.6-0.8-0.8s-1.3-0.3-2.3-0.3l1.8-2.4c1.6,0,2.9,0.3,3.7,0.9c0.8,0.6,1.2,1.6,1.2,2.8c0,1.3-0.4,2.2-1.3,2.8
				c-0.9,0.6-2.2,0.9-4,0.9C369.5,445.8,368.4,445.7,367.5,445.4z M369.2,435.1h3.5v5.6h-3.5V435.1z"/>
			<path class="st4" d="M385.5,435.6c-1.3-1.1-2-2.8-2-5c0-2.1,0.6-3.8,1.8-4.8c1.2-1.1,3-1.6,5.5-1.6h6.2l0.3,3.4h-6.4
				c-1.1,0-1.9,0.2-2.5,0.7s-0.8,1.2-0.8,2.3c0,1.1,0.4,1.9,1.1,2.4c0.7,0.5,1.8,0.8,3.3,0.8c1.6,0,2.8-0.2,3.6-0.5
				c0.8-0.3,1.2-0.9,1.2-1.6l0.4,3c-0.4,0.6-0.8,1.1-1.4,1.4s-1.2,0.7-1.9,0.8s-1.5,0.3-2.4,0.3
				C388.8,437.3,386.8,436.8,385.5,435.6z M396.8,423.3c0-1.4-0.4-2.5-1.1-3.3c-0.8-0.8-1.8-1.2-3.2-1.2c-0.9,0-1.7,0.1-2.5,0.4
				c-0.8,0.3-1.6,0.6-2.2,1.1l-3.1-2.1c0.8-1,1.9-1.8,3.2-2.3c1.3-0.5,2.8-0.8,4.5-0.8c1.8,0,3.3,0.3,4.6,1c1.3,0.6,2.3,1.6,2.9,2.8
				s1,2.7,1,4.4V437h-4V423.3z"/>
			<path class="st4" d="M407.3,406.6h4.3v4.3h-4.3V406.6z M407.3,415.3h4.3V437h-4.3V415.3z"/>
			<path class="st4" d="M422.1,436.9c-1.1-0.3-2.2-0.6-3.1-1.1c-1-0.5-1.9-1.1-2.7-1.9l2.5-3.1c1.2,0.9,2.3,1.6,3.5,2
				c1.2,0.4,2.3,0.7,3.4,0.7c1.7,0,2.9-0.3,3.8-0.8c0.8-0.5,1.3-1.3,1.3-2.3c0-0.7-0.2-1.2-0.7-1.6s-1-0.6-1.7-0.7
				c-0.7-0.1-1.6-0.2-2.9-0.3c-0.1,0-0.2,0-0.4,0c-0.1,0-0.2,0-0.4,0c-0.1,0-0.1,0-0.2,0s-0.1,0-0.2,0c-1.4-0.1-2.6-0.3-3.6-0.6
				c-1-0.3-1.8-0.9-2.4-1.7c-0.6-0.8-1-2-1-3.5s0.3-2.8,0.9-3.8c0.6-1,1.6-1.8,2.8-2.3c1.2-0.5,2.8-0.8,4.7-0.8
				c1.1,0,2.2,0.1,3.2,0.3c1,0.2,2,0.5,2.9,0.9c0.9,0.4,1.8,0.9,2.7,1.6l-2.6,3.1c-1.1-0.7-2.2-1.2-3.2-1.6s-2.1-0.5-3.1-0.5
				c-1.4,0-2.5,0.2-3.3,0.7c-0.7,0.5-1.1,1.2-1.1,2.2c0,0.6,0.2,1,0.6,1.3c0.4,0.3,0.9,0.5,1.6,0.6c0.6,0.1,1.5,0.2,2.7,0.3
				c0.1,0,0.2,0,0.3,0c0.1,0,0.2,0,0.3,0c0,0,0.1,0,0.1,0s0.1,0,0.1,0c1.5,0.1,2.8,0.3,3.9,0.6c1.1,0.3,2,0.9,2.7,1.8
				c0.7,0.9,1.1,2.2,1.1,3.9c0,1.6-0.3,2.8-1,3.9c-0.7,1-1.7,1.8-3,2.3s-3,0.8-5.1,0.8C424.4,437.3,423.2,437.2,422.1,436.9z"/>
		</g>
	</g>
</g>
<path class="st12" d="M682,480.9H286.8c-2.9,0-5.3-2.4-5.3-5.3v-14.3c0-2.9,2.4-5.3,5.3-5.3H682c2.9,0,5.3,2.4,5.3,5.3v14.3
	C687.3,478.5,684.9,480.9,682,480.9z"/>
<g>
	<g>
		<g>
			<path class="st4" d="M284.8,512.5h4.3v4.3h-4.3V512.5z M284.8,521.2h4.3v21.7h-4.3V521.2z"/>
			<path class="st4" d="M293.9,521.2h9.8v3.8h-9.8V521.2z M297.3,541.5c-0.8-1-1.2-2.4-1.2-4.3v-22.3h4.3v22.4
				c0,0.5,0.1,0.9,0.3,1.2c0.2,0.3,0.5,0.4,0.9,0.4h2v4h-2.5C299.4,543,298.2,542.5,297.3,541.5z"/>
			<path class="st4" d="M310.4,541.5c-1.3-1.1-2-2.8-2-5c0-2.1,0.6-3.8,1.8-4.8c1.2-1.1,3-1.6,5.5-1.6h6.2l0.3,3.4h-6.4
				c-1.1,0-1.9,0.2-2.5,0.7s-0.8,1.2-0.8,2.3c0,1.1,0.4,1.9,1.1,2.4c0.7,0.5,1.8,0.8,3.3,0.8c1.6,0,2.8-0.2,3.6-0.5
				c0.8-0.3,1.2-0.9,1.2-1.6l0.4,3c-0.4,0.6-0.8,1.1-1.4,1.4s-1.2,0.7-1.9,0.8s-1.5,0.3-2.4,0.3
				C313.8,543.2,311.8,542.6,310.4,541.5z M321.7,529.1c0-1.4-0.4-2.5-1.1-3.3c-0.8-0.8-1.8-1.2-3.2-1.2c-0.9,0-1.7,0.1-2.5,0.4
				c-0.8,0.3-1.6,0.6-2.2,1.1l-3.1-2.1c0.8-1,1.9-1.8,3.2-2.3c1.3-0.5,2.8-0.8,4.5-0.8c1.8,0,3.3,0.3,4.6,1c1.3,0.6,2.3,1.6,2.9,2.8
				s1,2.7,1,4.4v13.9h-4V529.1z"/>
			<path class="st4" d="M336.5,537.3c0,0.5,0.1,0.9,0.3,1.2c0.2,0.3,0.6,0.4,1,0.4h2v4h-2.5c-1.6,0-2.9-0.5-3.7-1.5
				s-1.3-2.4-1.3-4.2v-24.7h4.3V537.3z"/>
			<path class="st4" d="M344.6,512.5h4.3v4.3h-4.3V512.5z M344.6,521.2h4.3v21.7h-4.3V521.2z"/>
			<path class="st4" d="M356.3,541.5c-1.3-1.1-2-2.8-2-5c0-2.1,0.6-3.8,1.8-4.8c1.2-1.1,3-1.6,5.5-1.6h6.2l0.3,3.4h-6.4
				c-1.1,0-1.9,0.2-2.5,0.7s-0.8,1.2-0.8,2.3c0,1.1,0.4,1.9,1.1,2.4c0.7,0.5,1.8,0.8,3.3,0.8c1.6,0,2.8-0.2,3.6-0.5
				c0.8-0.3,1.2-0.9,1.2-1.6l0.4,3c-0.4,0.6-0.8,1.1-1.4,1.4s-1.2,0.7-1.9,0.8s-1.5,0.3-2.4,0.3
				C359.6,543.2,357.6,542.6,356.3,541.5z M367.6,529.1c0-1.4-0.4-2.5-1.1-3.3c-0.8-0.8-1.8-1.2-3.2-1.2c-0.9,0-1.7,0.1-2.5,0.4
				c-0.8,0.3-1.6,0.6-2.2,1.1l-3.1-2.1c0.8-1,1.9-1.8,3.2-2.3c1.3-0.5,2.8-0.8,4.5-0.8c1.8,0,3.3,0.3,4.6,1c1.3,0.6,2.3,1.6,2.9,2.8
				s1,2.7,1,4.4v13.9h-4V529.1z"/>
			<path class="st4" d="M378.1,521.2h4.3v21.7h-4.3V521.2z M391.3,529.7c0-1.5-0.4-2.7-1.2-3.5c-0.8-0.8-1.9-1.3-3.3-1.3
				c-1.4,0-2.5,0.4-3.2,1.1c-0.8,0.7-1.1,1.8-1.1,3.1l-0.4-4.2c0.7-1.3,1.5-2.3,2.6-3c1.1-0.7,2.3-1.1,3.6-1.1
				c2.4,0,4.2,0.8,5.5,2.3c1.3,1.5,1.9,3.7,1.9,6.5v13.2h-4.3V529.7z"/>
			<path class="st4" d="M405.5,542.1c-1.3-0.7-2.4-1.8-3.1-3.2c-0.7-1.4-1.1-3.1-1.1-5.1v-3.5c0-2,0.4-3.6,1.1-5
				c0.7-1.4,1.7-2.5,3.1-3.2c1.3-0.7,2.9-1.1,4.8-1.1s3.5,0.4,4.8,1.1s2.4,1.8,3.1,3.2c0.7,1.4,1.1,3.1,1.1,5v3.6
				c0,2-0.4,3.7-1.1,5.1c-0.7,1.4-1.7,2.5-3.1,3.2c-1.3,0.7-2.9,1.1-4.8,1.1S406.8,542.8,405.5,542.1z M413.8,537.7
				c0.8-0.9,1.2-2.2,1.2-3.9v-3.6c0-1.7-0.4-3-1.2-3.9c-0.8-0.9-2-1.4-3.5-1.4s-2.6,0.5-3.5,1.4c-0.8,0.9-1.2,2.2-1.2,3.9v3.6
				c0,1.7,0.4,3,1.2,3.9c0.8,0.9,2,1.4,3.5,1.4S413,538.7,413.8,537.7z"/>
		</g>
	</g>
</g>
<path class="st12" d="M760.8,586.8h-474c-2.9,0-5.3-2.4-5.3-5.3v-14.3c0-2.9,2.4-5.3,5.3-5.3h474c2.9,0,5.3,2.4,5.3,5.3v14.3
	C766.1,584.4,763.7,586.8,760.8,586.8z"/>
<g>
	<g>
		<g>
			<path class="st4" d="M288.6,655.5c-1.4-0.8-2.5-1.9-3.2-3.3c-0.7-1.5-1.1-3.2-1.1-5.3v-2.4c0-2.1,0.4-4,1.1-5.5
				c0.7-1.5,1.8-2.7,3.1-3.5s3-1.2,4.9-1.2c1.8,0,3.4,0.5,4.6,1.4c1.3,0.9,2.3,2.2,2.9,3.9c0.7,1.7,1,3.8,1,6.2v1.4h-14.6v-3.4h10.6
				c-0.1-1.8-0.6-3.1-1.4-4.1c-0.8-1-1.8-1.5-3.2-1.5c-1.6,0-2.9,0.5-3.7,1.6s-1.3,2.6-1.3,4.5v2.8c0,1.8,0.5,3.2,1.4,4.1
				c0.9,1,2.3,1.4,4,1.4c0.9,0,1.7-0.2,2.6-0.5s1.6-0.8,2.3-1.5l2.8,2.8c-1.1,1-2.3,1.8-3.6,2.4s-2.7,0.8-4,0.8
				C291.7,656.6,290,656.2,288.6,655.5z"/>
			<path class="st4" d="M311.8,656.2c-1.1-0.3-2.2-0.6-3.1-1.1c-1-0.5-1.9-1.1-2.7-1.9l2.5-3.1c1.2,0.9,2.3,1.6,3.5,2
				c1.2,0.4,2.3,0.7,3.4,0.7c1.7,0,2.9-0.3,3.8-0.8c0.8-0.5,1.3-1.3,1.3-2.3c0-0.7-0.2-1.2-0.7-1.6s-1-0.6-1.7-0.7
				c-0.7-0.1-1.6-0.2-2.9-0.3c-0.1,0-0.2,0-0.4,0c-0.1,0-0.2,0-0.4,0c-0.1,0-0.1,0-0.2,0s-0.1,0-0.2,0c-1.4-0.1-2.6-0.3-3.6-0.6
				c-1-0.3-1.8-0.9-2.4-1.7c-0.6-0.8-1-2-1-3.5s0.3-2.8,0.9-3.8c0.6-1,1.6-1.8,2.8-2.3c1.2-0.5,2.8-0.8,4.7-0.8
				c1.1,0,2.2,0.1,3.2,0.3c1,0.2,2,0.5,2.9,0.9c0.9,0.4,1.8,0.9,2.7,1.6l-2.6,3.1c-1.1-0.7-2.2-1.2-3.2-1.6s-2.1-0.5-3.1-0.5
				c-1.4,0-2.5,0.2-3.3,0.7c-0.7,0.5-1.1,1.2-1.1,2.2c0,0.6,0.2,1,0.6,1.3c0.4,0.3,0.9,0.5,1.6,0.6c0.6,0.1,1.5,0.2,2.7,0.3
				c0.1,0,0.2,0,0.3,0c0.1,0,0.2,0,0.3,0c0,0,0.1,0,0.1,0s0.1,0,0.1,0c1.5,0.1,2.8,0.3,3.9,0.6c1.1,0.3,2,0.9,2.7,1.8
				c0.7,0.9,1.1,2.2,1.1,3.9c0,1.6-0.3,2.8-1,3.9c-0.7,1-1.7,1.8-3,2.3s-3,0.8-5.1,0.8C314.1,656.6,312.9,656.5,311.8,656.2z"/>
			<path class="st4" d="M329.9,634.6h4.3v30.5h-4.3V634.6z M336.1,655.6c-1-0.6-1.7-1.6-2.2-2.7l0.3-4.5c0,0.9,0.2,1.7,0.5,2.4
				c0.3,0.7,0.8,1.2,1.5,1.5c0.6,0.3,1.4,0.5,2.3,0.5c1.4,0,2.5-0.4,3.3-1.3c0.8-0.9,1.2-2.1,1.2-3.6v-4.7c0-1.6-0.4-2.8-1.2-3.7
				s-1.9-1.3-3.3-1.3c-0.9,0-1.7,0.2-2.3,0.5c-0.6,0.3-1.1,0.8-1.5,1.5c-0.3,0.6-0.5,1.4-0.5,2.3l-0.4-4.2c0.7-1.3,1.5-2.2,2.6-2.9
				c1.1-0.7,2.2-1,3.5-1c1.5,0,2.8,0.3,3.9,1c1.1,0.7,1.9,1.7,2.5,3s0.9,2.9,0.9,4.8v4.7c0,1.8-0.3,3.4-0.9,4.7
				c-0.6,1.3-1.4,2.3-2.6,3c-1.1,0.7-2.5,1-4,1C338.3,656.6,337.1,656.3,336.1,655.6z"/>
			<path class="st4" d="M354.1,654.9c-1.3-1.1-2-2.8-2-5c0-2.1,0.6-3.8,1.8-4.8c1.2-1.1,3-1.6,5.5-1.6h6.2l0.3,3.4h-6.4
				c-1.1,0-1.9,0.2-2.5,0.7s-0.8,1.2-0.8,2.3c0,1.1,0.4,1.9,1.1,2.4c0.7,0.5,1.8,0.8,3.3,0.8c1.6,0,2.8-0.2,3.6-0.5
				c0.8-0.3,1.2-0.9,1.2-1.6l0.4,3c-0.4,0.6-0.8,1.1-1.4,1.4s-1.2,0.7-1.9,0.8s-1.5,0.3-2.4,0.3C357.4,656.6,355.4,656,354.1,654.9z
				 M365.4,642.5c0-1.4-0.4-2.5-1.1-3.3c-0.8-0.8-1.8-1.2-3.2-1.2c-0.9,0-1.7,0.1-2.5,0.4c-0.8,0.3-1.6,0.6-2.2,1.1l-3.1-2.1
				c0.8-1,1.9-1.8,3.2-2.3c1.3-0.5,2.8-0.8,4.5-0.8c1.8,0,3.3,0.3,4.6,1c1.3,0.6,2.3,1.6,2.9,2.8s1,2.7,1,4.4v13.9h-4V642.5z"/>
			<path class="st4" d="M375.9,634.6h4.3v21.7h-4.3V634.6z M386.2,630c-0.4-0.2-0.9-0.4-1.3-0.7l-0.2-0.1c-0.1-0.1-0.1-0.1-0.2-0.2
				c-0.1-0.1-0.2-0.1-0.2-0.2c-0.5-0.4-1-0.7-1.3-0.9s-0.6-0.3-0.9-0.3c-0.5,0-0.9,0.1-1.1,0.4c-0.2,0.2-0.4,0.6-0.4,1.1v1.1h-3.3
				v-0.9c0-1.7,0.4-3,1.1-3.9s1.8-1.3,3.2-1.3c0.5,0,1,0.1,1.5,0.3s1,0.5,1.5,0.9l0.2,0.1l0.2,0.2c0.5,0.4,0.9,0.6,1.2,0.8
				c0.3,0.2,0.6,0.3,0.9,0.3c0.5,0,0.9-0.1,1.1-0.4s0.4-0.7,0.4-1.2v-0.8h3.3v0.7c0,1.8-0.4,3.1-1.1,4c-0.7,0.9-1.8,1.3-3.2,1.3
				C387.1,630.2,386.7,630.2,386.2,630z M389.1,643.2c0-1.5-0.4-2.7-1.2-3.5c-0.8-0.8-1.9-1.3-3.3-1.3c-1.4,0-2.5,0.4-3.2,1.1
				c-0.8,0.7-1.1,1.8-1.1,3.1l-0.4-4.2c0.7-1.3,1.5-2.3,2.6-3c1.1-0.7,2.3-1.1,3.6-1.1c2.4,0,4.2,0.8,5.5,2.3
				c1.3,1.5,1.9,3.7,1.9,6.5v13.2h-4.3V643.2z"/>
			<path class="st4" d="M403.3,655.5c-1.3-0.7-2.4-1.8-3.1-3.2c-0.7-1.4-1.1-3.1-1.1-5.1v-3.5c0-2,0.4-3.6,1.1-5
				c0.7-1.4,1.7-2.5,3.1-3.2c1.3-0.7,2.9-1.1,4.8-1.1s3.5,0.4,4.8,1.1s2.4,1.8,3.1,3.2c0.7,1.4,1.1,3.1,1.1,5v3.6
				c0,2-0.4,3.7-1.1,5.1c-0.7,1.4-1.7,2.5-3.1,3.2c-1.3,0.7-2.9,1.1-4.8,1.1S404.6,656.2,403.3,655.5z M411.6,651.1
				c0.8-0.9,1.2-2.2,1.2-3.9v-3.6c0-1.7-0.4-3-1.2-3.9c-0.8-0.9-2-1.4-3.5-1.4s-2.6,0.5-3.5,1.4c-0.8,0.9-1.2,2.2-1.2,3.9v3.6
				c0,1.7,0.4,3,1.2,3.9c0.8,0.9,2,1.4,3.5,1.4S410.8,652.1,411.6,651.1z"/>
			<path class="st4" d="M427.4,650.7c0,0.5,0.1,0.9,0.3,1.2c0.2,0.3,0.6,0.4,1,0.4h2v4h-2.5c-1.6,0-2.9-0.5-3.7-1.5
				s-1.3-2.4-1.3-4.2v-24.7h4.3V650.7z"/>
		</g>
	</g>
</g>
<path class="st12" d="M712.1,700.2H286.8c-2.9,0-5.3-2.4-5.3-5.3v-14.3c0-2.9,2.4-5.3,5.3-5.3h425.3c2.9,0,5.3,2.4,5.3,5.3v14.3
	C717.4,697.8,715,700.2,712.1,700.2z"/>
<g>
	<g>
		<g>
			<path class="st4" d="M284.8,740.5h4.3V771h-4.3V740.5z M291,761.5c-1-0.6-1.7-1.6-2.2-2.7l0.3-4.5c0,0.9,0.2,1.7,0.5,2.4
				c0.3,0.7,0.8,1.2,1.5,1.5c0.6,0.3,1.4,0.5,2.3,0.5c1.4,0,2.5-0.4,3.3-1.3c0.8-0.9,1.2-2.1,1.2-3.6V749c0-1.6-0.4-2.8-1.2-3.7
				s-1.9-1.3-3.3-1.3c-0.9,0-1.7,0.2-2.3,0.5c-0.6,0.3-1.1,0.8-1.5,1.5c-0.3,0.6-0.5,1.4-0.5,2.3l-0.4-4.2c0.7-1.3,1.5-2.2,2.6-2.9
				c1.1-0.7,2.2-1,3.5-1c1.5,0,2.8,0.3,3.9,1c1.1,0.7,1.9,1.7,2.5,3s0.9,2.9,0.9,4.8v4.7c0,1.8-0.3,3.4-0.9,4.7
				c-0.6,1.3-1.4,2.3-2.6,3c-1.1,0.7-2.5,1-4,1C293.2,762.5,292,762.2,291,761.5z"/>
			<path class="st4" d="M305.8,740.5h4.3l6.7,18.8l-2.4,4.6L305.8,740.5z M325,740.5l-9.2,26.7c-0.3,1-0.8,1.8-1.3,2.3
				c-0.5,0.6-1.2,1-2,1.2c-0.8,0.2-1.8,0.4-2.9,0.4h-0.9v-4.1h0.9c0.8,0,1.4-0.2,1.9-0.5c0.5-0.3,0.9-0.9,1.2-1.6l8-24.5H325z"/>
			<path class="st4" d="M332.4,761.4c-1.4-0.7-2.5-1.8-3.2-3.2c-0.7-1.4-1.1-3.1-1.1-5.1v-3.6c0-2,0.4-3.6,1.1-5s1.8-2.5,3.2-3.2
				c1.4-0.7,3.1-1.1,5.1-1.1c1.1,0,2.2,0.1,3.2,0.4c1,0.3,1.9,0.7,2.7,1.2c0.8,0.5,1.5,1.1,2,1.9l-3.1,2.8c-0.6-0.7-1.3-1.2-2.2-1.6
				s-1.7-0.6-2.6-0.6c-1.6,0-2.9,0.5-3.8,1.4c-0.9,0.9-1.4,2.2-1.4,3.9v3.6c0,1.7,0.4,3,1.3,4s2.2,1.4,3.8,1.4
				c0.9,0,1.8-0.2,2.6-0.6c0.8-0.4,1.5-1,2.1-1.7l3.1,3c-0.5,0.7-1.2,1.3-2,1.8c-0.8,0.5-1.7,0.9-2.7,1.2c-1,0.3-2,0.4-3.2,0.4
				C335.5,762.5,333.8,762.1,332.4,761.4z"/>
			<path class="st4" d="M353.7,761.4c-1.4-0.7-2.5-1.8-3.2-3.2c-0.7-1.4-1.1-3.1-1.1-5.1v-3.6c0-2,0.4-3.6,1.1-5s1.8-2.5,3.2-3.2
				c1.4-0.7,3.1-1.1,5.1-1.1c1.1,0,2.2,0.1,3.2,0.4c1,0.3,1.9,0.7,2.7,1.2c0.8,0.5,1.5,1.1,2,1.9l-3.1,2.8c-0.6-0.7-1.3-1.2-2.2-1.6
				s-1.7-0.6-2.6-0.6c-1.6,0-2.9,0.5-3.8,1.4c-0.9,0.9-1.4,2.2-1.4,3.9v3.6c0,1.7,0.4,3,1.3,4s2.2,1.4,3.8,1.4
				c0.9,0,1.8-0.2,2.6-0.6c0.8-0.4,1.5-1,2.1-1.7l3.1,3c-0.5,0.7-1.2,1.3-2,1.8c-0.8,0.5-1.7,0.9-2.7,1.2c-1,0.3-2,0.4-3.2,0.4
				C356.8,762.5,355.1,762.1,353.7,761.4z"/>
			<path class="st4" d="M371.3,740.5h4.3v21.7h-4.3V740.5z M373.4,749.3h7.8v4h-7.8V749.3z M377.7,749.7l5.9-9.2h5.1l-9.1,13
				L377.7,749.7z M377.9,753l3.3-2.2l8.8,11.3h-5.7L377.9,753z"/>
			<path class="st4" d="M406.9,762.1v-15.4l0.5,0.5L397,762.1h-3.7v-21.6h4.2v15.7l-0.5-0.5l10.5-15.2h3.7v21.6H406.9z"/>
			<path class="st4" d="M431.4,762.1v-15.4l0.5,0.5l-10.4,14.8h-3.7v-21.6h4.2v15.7l-0.5-0.5l10.5-15.2h3.7v21.6H431.4z
				 M421.9,734.5c-1-1.2-1.6-3.1-1.6-5.6h3.4c0,1.4,0.2,2.4,0.7,3.1c0.5,0.7,1.2,1,2.1,1h0.4c0.9,0,1.6-0.3,2.1-1
				c0.5-0.7,0.7-1.7,0.7-3.1h3.4c0,2.5-0.5,4.4-1.6,5.6c-1,1.2-2.6,1.9-4.7,1.9h-0.4C424.5,736.4,422.9,735.8,421.9,734.5z"/>
		</g>
	</g>
</g>
<path class="st12" d="M682,806.1H286.8c-2.9,0-5.3-2.4-5.3-5.3v-14.3c0-2.9,2.4-5.3,5.3-5.3H682c2.9,0,5.3,2.4,5.3,5.3v14.3
	C687.3,803.7,684.9,806.1,682,806.1z"/>
<linearGradient id="SVGID_1_" gradientUnits="userSpaceOnUse" x1="484.8571" y1="835.1371" x2="484.3259" y2="906.2677">
	<stop  offset="0" style="stop-color:#FFFFFF"/>
	<stop  offset="1" style="stop-color:#292841"/>
</linearGradient>
<path class="st28" d="M682,911.9H286.8c-2.9,0-5.3-2.4-5.3-5.3v-14.3c0-2.9,2.4-5.3,5.3-5.3H682c2.9,0,5.3,2.4,5.3,5.3v14.3
	C687.3,909.6,684.9,911.9,682,911.9z"/>
<path class="st12" d="M474.4,866.9H286.8c-2.9,0-5.3-2.4-5.3-5.3v-14.3c0-2.9,2.4-5.3,5.3-5.3h187.6c2.9,0,5.3,2.4,5.3,5.3v14.3
	C479.7,864.6,477.3,866.9,474.4,866.9z"/>
<path class="st12" d="M942.3,824.3L942.3,824.3c-2.6,0-4.6-2.1-4.6-4.6V353.9c0-2.6,2.1-4.6,4.6-4.6l0,0c2.6,0,4.6,2.1,4.6,4.6
	v465.7C946.9,822.2,944.8,824.3,942.3,824.3z"/>
</svg>
