<?xml version="1.0" encoding="utf-8"?>
<!-- Generator: Adobe Illustrator 25.0.0, SVG Export Plug-In . SVG Version: 6.00 Build 0)  -->
<svg version="1.1" id="Layer_1" xmlns="http://www.w3.org/2000/svg" xmlns:xlink="http://www.w3.org/1999/xlink" x="0px" y="0px"
	 viewBox="0 0 1500 1500" style="enable-background:new 0 0 1500 1500;" xml:space="preserve">
<style type="text/css">
	.st0{fill:#2F3136;}
	.st1{fill:#72767D;}
	.st2{fill:#EB459E;}
	.st3{fill:#FFFFFF;}
	.st4{fill:#57F287;}
	.st5{fill:#FEE75C;}
	.st6{fill:#34373C;}
	.st7{fill:#202225;}
	.st8{fill:#5865F2;}
	.st9{fill:#ED4245;}
	.st10{opacity:0.42;}
	.st11{fill:#4FDC7C;}
</style>
<path class="st1" d="M710.8,766.8L710.8,766.8c0.5,0.5,0.5,1.4,0,1.9l-9.4,9.4c-0.5,0.5-1.4,0.5-1.9,0l0,0c-0.5-0.5-0.5-1.4,0-1.9
	l9.4-9.4C709.4,766.3,710.3,766.3,710.8,766.8z"/>
<path class="st1" d="M690,766.8L690,766.8c0.5-0.5,1.4-0.5,1.9,0l9.4,9.4c0.5,0.5,0.5,1.4,0,1.9l0,0c-0.5,0.5-1.4,0.5-1.9,0
	l-9.4-9.4C689.4,768.2,689.4,767.4,690,766.8z"/>
<g>
	<g>
		<g>
			<path class="st1" d="M726.7,762.7h13.9v2.6h-13.9V762.7z M732.2,764.3h2.8v18h-2.8V764.3z"/>
			<path class="st1" d="M745.4,782.3h-2.8v-19.6h2.8V782.3z"/>
			<path class="st1" d="M764.4,762.7h2.6v19.6h-2.7v-14.7l0.1,0.9l-4.8,11.1h-1.9l-4.8-10.8l0.1-1.1v14.7h-2.7v-19.6h2.6l5.8,13
				L764.4,762.7z"/>
		</g>
	</g>
</g>
<path class="st0" d="M1054,875.5H461.3c-21.9,0-39.6-17.7-39.6-39.6V691.2c0-21.9,17.7-39.6,39.6-39.6H1054
	c21.9,0,39.6,17.7,39.6,39.6v144.7C1093.7,857.8,1075.9,875.5,1054,875.5z"/>
<path class="st1" d="M484.4,700.3c1.9,2,4.4,3.4,7.1,4.2c0.1,0.6,0.1,1.2,0.1,1.9c0,4-1.7,7.6-4.4,10.1c-1.2,1.1-3.2,0.3-3.2-1.4
	v-15.3C484.2,700,484.3,700.1,484.4,700.3z"/>
<path class="st1" d="M486.4,693.1l-4.7-4.7h3.6c0-0.7,0.1-1.3,0.2-2c0.4-2.1,1.4-4,2.8-5.5c2.1-2.2,5.1-3.6,8.5-3.4
	c5.6,0.3,10.1,4.8,10.4,10.4c0.2,3.4-1.3,6.5-3.6,8.6c-1.5,1.4-3.4,2.3-5.5,2.7c-0.6,0.1-1.2,0.1-1.8,0.1c-3,0-5.7-1.2-7.7-3.2
	l1.7-1.7c1.5,1.5,3.6,2.5,6,2.5c0.3,0,0.5,0,0.8,0c2.2-0.2,4.1-1.2,5.5-2.7c1.4-1.6,2.3-3.7,2.2-6c-0.2-4.4-3.7-8-8.1-8.1
	c-2.3-0.1-4.4,0.7-5.9,2.1c-1.5,1.4-2.6,3.3-2.8,5.4c0,0.3-0.1,0.6-0.1,0.9h3.6l-0.8,0.8l-4.1,4.1L486.4,693.1z"/>
<polygon class="st1" points="496.9,688.5 500.5,690.7 501.1,691.1 500.9,691.4 500.2,692.6 495,689.6 495,683.5 496.9,683.5 "/>
<path class="st1" d="M505.1,702.5c0.2,1.3,0.3,2.6,0.3,3.9c0,12.2-7.9,22.5-18.9,26.1c-1.2,0.4-2.5-0.5-2.5-1.8v-2.4
	c0-0.8,0.5-1.5,1.2-1.8c8.2-3,14-10.9,14-20.1c0-0.5,0-1-0.1-1.5C501.4,704.5,503.4,703.6,505.1,702.5z"/>
<path class="st1" d="M505.1,702.5c-1.8,1.1-3.7,2-5.9,2.4c0,0.5,0.1,1,0.1,1.5c0,9.2-5.9,17.1-14,20.1c-0.7,0.3-1.2,1-1.2,1.8v2.4
	c0,1.3,1.3,2.2,2.5,1.8c11-3.6,18.9-13.9,18.9-26.1C505.4,705.1,505.3,703.8,505.1,702.5z M498,699.1c2.1-0.3,4-1.3,5.5-2.7
	c-0.3-0.8-0.7-1.6-1-2.4c-1.4,1.5-3.3,2.5-5.5,2.7C497.4,697.5,497.7,698.3,498,699.1z M500.9,691.4c-0.1-0.2-0.3-0.4-0.4-0.7
	l-3.6-2.2v-2.1c-0.6-0.6-1.2-1.1-1.8-1.6v4.7l5.1,3L500.9,691.4z M490.6,689.2l0.8-0.8h-2C489.8,688.6,490.2,688.9,490.6,689.2z
	 M490.7,682c-0.8-0.4-1.5-0.8-2.3-1.1c-1.4,1.5-2.4,3.4-2.8,5.5c0.8,0.3,1.6,0.6,2.3,1C488.1,685.3,489.1,683.4,490.7,682z
	 M491.5,704.5c-2.7-0.8-5.2-2.3-7.1-4.2c-0.1-0.1-0.3-0.3-0.4-0.4v15.3c0,1.7,2,2.5,3.2,1.4c2.7-2.5,4.4-6.1,4.4-10.1
	C491.7,705.7,491.6,705.1,491.5,704.5z M474.7,685.2l-11.5,11.5c-0.4,0.4-0.8,0.6-1.3,0.6h-9.5c-1.1,0-1.9,0.9-1.9,1.9v14.5
	c0,1.1,0.9,1.9,1.9,1.9h9.5c0.5,0,1,0.2,1.3,0.6l11.5,11.5c1.2,1.2,3.2,0.3,3.2-1.3v-39.7C477.9,684.8,475.9,684,474.7,685.2z"/>
<polygon class="st1" points="496.9,688.5 500.5,690.7 501.1,691.1 500.9,691.4 500.2,692.6 495,689.6 495,683.5 496.9,683.5 "/>
<path class="st1" d="M503.6,696.4c-1.5,1.4-3.4,2.3-5.5,2.7c-0.6,0.1-1.2,0.1-1.8,0.1c-3,0-5.7-1.2-7.7-3.2l1.7-1.7
	c1.5,1.5,3.6,2.5,6,2.5c0.3,0,0.5,0,0.8,0c2.2-0.2,4.1-1.2,5.5-2.7c1.4-1.6,2.3-3.7,2.2-6c-0.2-4.4-3.7-8-8.1-8.1
	c-2.3-0.1-4.4,0.7-5.9,2.1c-1.5,1.4-2.6,3.3-2.8,5.4c0,0.3-0.1,0.6-0.1,0.9h3.6l-0.8,0.8l-4.1,4.1l-0.1-0.2l-4.7-4.7h3.6
	c0-0.7,0.1-1.3,0.2-2c0.4-2.1,1.4-4,2.8-5.5c2.1-2.2,5.1-3.6,8.5-3.4c5.6,0.3,10.1,4.8,10.4,10.4
	C507.3,691.3,505.9,694.3,503.6,696.4z"/>
<path class="st1" d="M484,699.8c0.1,0.1,0.3,0.3,0.4,0.4H484V699.8z"/>
<polygon class="st1" points="496.9,688.5 500.5,690.7 501.1,691.1 500.9,691.4 500.2,692.6 495,689.6 495,683.5 496.9,683.5 "/>
<path class="st1" d="M503.6,696.4c-1.5,1.4-3.4,2.3-5.5,2.7c-0.6,0.1-1.2,0.1-1.8,0.1c-3,0-5.7-1.2-7.7-3.2l1.7-1.7
	c1.5,1.5,3.6,2.5,6,2.5c0.3,0,0.5,0,0.8,0c2.2-0.2,4.1-1.2,5.5-2.7c1.4-1.6,2.3-3.7,2.2-6c-0.2-4.4-3.7-8-8.1-8.1
	c-2.3-0.1-4.4,0.7-5.9,2.1c-1.5,1.4-2.6,3.3-2.8,5.4c0,0.3-0.1,0.6-0.1,0.9h3.6l-0.8,0.8l-4.1,4.1l-0.1-0.2l-4.7-4.7h3.6
	c0-0.7,0.1-1.3,0.2-2c0.4-2.1,1.4-4,2.8-5.5c2.1-2.2,5.1-3.6,8.5-3.4c5.6,0.3,10.1,4.8,10.4,10.4
	C507.3,691.3,505.9,694.3,503.6,696.4z"/>
<path class="st1" d="M500.5,690.7l-3.6-2.2v-5H495v6l5.1,3l0.8-1.3l0.2-0.3L500.5,690.7z M507.1,687.9c-0.3-5.6-4.8-10.1-10.4-10.4
	c-3.3-0.2-6.4,1.2-8.5,3.4c-1.4,1.5-2.4,3.4-2.8,5.5c-0.1,0.6-0.2,1.3-0.2,2h-3.6l4.7,4.7l0.1,0.2l4.1-4.1l0.8-0.8h-3.6
	c0-0.3,0-0.6,0.1-0.9c0.2-2.1,1.3-4.1,2.8-5.4c1.6-1.4,3.7-2.2,5.9-2.1c4.4,0.2,8,3.7,8.1,8.1c0.1,2.3-0.8,4.5-2.2,6
	c-1.4,1.5-3.3,2.5-5.5,2.7c-0.3,0-0.5,0-0.8,0c-2.3,0-4.5-1-6-2.5l-1.7,1.7c2,2,4.7,3.2,7.7,3.2c0.6,0,1.2,0,1.8-0.1
	c2.1-0.3,4-1.3,5.5-2.7C505.9,694.3,507.3,691.3,507.1,687.9z M500.5,690.7c0.2,0.2,0.3,0.4,0.4,0.7l0.2-0.3L500.5,690.7z
	 M496.9,683.5H495v1.4c0.6,0.5,1.2,1,1.8,1.6V683.5z"/>
<g>
	<g>
		<g>
			<path class="st1" d="M534.1,691.1h4.5l7.1,23.1l7.1-23.1h4.5l-9.6,29.5h-3.9L534.1,691.1z"/>
			<path class="st1" d="M569.5,691.1h3.5l10.9,29.5h-4.5l-8.2-23.8l-8.2,23.8h-4.5L569.5,691.1z M563.7,710.2h15.5v3.9h-15.5V710.2z
				"/>
			<path class="st1" d="M588.4,691.1h4.1v29.5h-4.1V691.1z M590.5,716.7h16.9v3.9h-16.9V716.7z"/>
			<path class="st1" d="M616.6,719.6c-1.6-0.9-2.8-2.2-3.6-3.8c-0.9-1.6-1.3-3.5-1.3-5.7v-8.4c0-2.2,0.4-4.1,1.3-5.7
				c0.9-1.6,2.1-2.9,3.6-3.8c1.6-0.9,3.4-1.3,5.4-1.3s3.9,0.5,5.4,1.3c1.6,0.9,2.8,2.2,3.6,3.8c0.9,1.6,1.3,3.5,1.3,5.7v8.4
				c0,2.2-0.4,4.1-1.3,5.7c-0.9,1.6-2.1,2.9-3.6,3.8c-1.6,0.9-3.4,1.3-5.4,1.3S618.1,720.5,616.6,719.6z M625.2,716.1
				c0.9-0.5,1.6-1.3,2.2-2.3c0.5-1,0.8-2.2,0.8-3.5v-8.6c0-1.3-0.3-2.5-0.8-3.5c-0.5-1-1.2-1.8-2.2-2.3s-2-0.8-3.2-0.8
				s-2.3,0.3-3.2,0.8s-1.6,1.3-2.2,2.3c-0.5,1-0.8,2.2-0.8,3.5v8.6c0,1.3,0.3,2.5,0.8,3.5c0.5,1,1.2,1.8,2.2,2.3
				c0.9,0.5,2,0.8,3.2,0.8S624.3,716.6,625.2,716.1z"/>
			<path class="st1" d="M639.1,691.1h4.1v29.5h-4.1V691.1z M640.9,704.2h10.1c0.8,0,1.5-0.2,2.1-0.6c0.6-0.4,1.1-0.9,1.4-1.6
				c0.3-0.7,0.5-1.5,0.5-2.4s-0.2-1.7-0.5-2.4c-0.3-0.7-0.8-1.2-1.4-1.6c-0.6-0.4-1.3-0.6-2.1-0.6h-10.1v-3.9h9.9
				c1.7,0,3.2,0.4,4.5,1.1c1.3,0.7,2.3,1.7,3,3c0.7,1.3,1.1,2.8,1.1,4.5s-0.4,3.2-1.1,4.5c-0.7,1.3-1.7,2.3-3,3
				c-1.3,0.7-2.8,1.1-4.5,1.1h-9.9V704.2z M648.9,707.3l4.1-0.9l7.6,14.3h-4.9L648.9,707.3z"/>
			<path class="st1" d="M674.2,691.1h3.5l10.9,29.5h-4.5l-8.2-23.8l-8.2,23.8h-4.5L674.2,691.1z M668.3,710.2h15.5v3.9h-15.5V710.2z
				"/>
			<path class="st1" d="M693.1,691.1h3.8l14.4,22.8l-0.5,0.5v-23.3h4.1v29.5h-3.8l-14.4-22.5l0.5-0.5v23h-4.1V691.1z"/>
			<path class="st1" d="M718.1,691.1H739v3.9h-20.8V691.1z M726.5,693.6h4.1v27.1h-4.1V693.6z"/>
		</g>
	</g>
</g>
<g>
	<g>
		<g>
			<path class="st1" d="M636.2,812c-1.3-0.6-2.4-1.5-3.2-2.7l3.4-2.4c0.4,0.7,0.9,1.2,1.6,1.5c0.7,0.4,1.5,0.5,2.5,0.5
				c1.6,0,2.9-0.5,3.7-1.5c0.9-1,1.3-2.4,1.3-4.2v-20.1h4.1v20.1c0,2-0.4,3.8-1.1,5.2c-0.7,1.4-1.8,2.6-3.1,3.3s-3,1.1-5,1.1
				C639,813,637.5,812.6,636.2,812z"/>
			<path class="st1" d="M661.4,811.6c-1.6-0.9-2.8-2.2-3.6-3.8c-0.9-1.6-1.3-3.5-1.3-5.7v-8.4c0-2.2,0.4-4.1,1.3-5.7
				c0.9-1.6,2.1-2.9,3.6-3.8c1.6-0.9,3.4-1.3,5.4-1.3s3.9,0.5,5.4,1.3c1.6,0.9,2.8,2.2,3.6,3.8c0.9,1.6,1.3,3.5,1.3,5.7v8.4
				c0,2.2-0.4,4.1-1.3,5.7c-0.9,1.6-2.1,2.9-3.6,3.8c-1.6,0.9-3.4,1.3-5.4,1.3S663,812.5,661.4,811.6z M670,808.1
				c0.9-0.5,1.6-1.3,2.2-2.3c0.5-1,0.8-2.2,0.8-3.5v-8.6c0-1.3-0.3-2.5-0.8-3.5c-0.5-1-1.2-1.8-2.2-2.3s-2-0.8-3.2-0.8
				s-2.3,0.3-3.2,0.8s-1.6,1.3-2.2,2.3c-0.5,1-0.8,2.2-0.8,3.5v8.6c0,1.3,0.3,2.5,0.8,3.5c0.5,1,1.2,1.8,2.2,2.3
				c0.9,0.5,2,0.8,3.2,0.8S669.1,808.6,670,808.1z"/>
			<path class="st1" d="M683.9,783.1h3.8l14.4,22.8l-0.5,0.5v-23.3h4.1v29.5h-3.8l-14.4-22.5l0.5-0.5v23h-4.1V783.1z"/>
			<path class="st1" d="M721,783.1h3.5l10.9,29.5H731l-8.2-23.8l-8.2,23.8h-4.5L721,783.1z M715.2,802.2h15.5v3.9h-15.5V802.2z"/>
			<path class="st1" d="M739.9,783.1h4.1v29.5h-4.1V783.1z M742.5,796.1h16.4v3.9h-16.4V796.1z M756.7,783.1h4.1v29.5h-4.1V783.1z"
				/>
		</g>
	</g>
</g>
<path class="st6" d="M1032.8,681.5h-72.3c-13.2,0-23.8,10.7-23.8,23.8v0c0,13.2,10.7,23.8,23.8,23.8h72.3
	c13.2,0,23.8-10.7,23.8-23.8v0C1056.6,692.2,1046,681.5,1032.8,681.5z"/>
<g>
	<g>
		<g>
			<path class="st1" d="M955.9,714.1c-1-1-1.5-2.5-1.5-4.4v-9.5c0-1.9,0.5-3.3,1.5-4.4s2.5-1.6,4.5-1.6c2,0,3.4,0.5,4.5,1.6
				c1,1,1.5,2.5,1.5,4.4v9.5c0,1.9-0.5,3.3-1.5,4.4c-1,1-2.5,1.6-4.5,1.6C958.4,715.7,956.9,715.1,955.9,714.1z M962.6,712.1
				c0.5-0.5,0.7-1.3,0.7-2.3v-9.5c0-1-0.2-1.8-0.7-2.3c-0.5-0.5-1.3-0.8-2.3-0.8c-1,0-1.8,0.3-2.3,0.8c-0.5,0.5-0.7,1.3-0.7,2.3v9.5
				c0,1,0.2,1.8,0.7,2.3c0.5,0.5,1.3,0.8,2.3,0.8C961.4,712.9,962.1,712.6,962.6,712.1z"/>
			<path class="st1" d="M975.7,715.4h-2.9v-17.8l-3,1.8v-3l3-2h2.9V715.4z"/>
		</g>
	</g>
</g>
<path class="st7" d="M992.3,729.1l8.8-47.6l31.9,0.1c1.4,0,2.9,0.1,4.2,0.4c11.1,2.1,19.5,11.8,19.5,23.5
	c-0.1,13.2-10.8,23.8-23.9,23.7L992.3,729.1z"/>
<g>
	<g>
		<g>
			<path class="st1" d="M1014,714.9c-0.9-0.5-1.5-1.2-2-2.2s-0.7-2.1-0.7-3.4v0c0-0.8,0.1-1.6,0.3-2.5c0.2-0.9,0.4-1.7,0.8-2.5
				c0.1-0.1,0.1-0.3,0.2-0.4s0.1-0.3,0.2-0.4l4.6-9h3.2l-5.3,10.4l0-0.5c0.2-0.5,0.6-0.8,1.1-1.1c0.5-0.2,1-0.4,1.6-0.4
				c1.1,0,2,0.2,2.8,0.7s1.4,1.2,1.8,2.1c0.4,0.9,0.6,2.1,0.6,3.4v0c0,1.3-0.2,2.5-0.7,3.5c-0.5,1-1.1,1.7-2,2.2s-1.9,0.7-3.2,0.7
				C1015.9,715.7,1014.9,715.4,1014,714.9z M1019.3,712c0.5-0.6,0.8-1.4,0.8-2.5v0c0-1.2-0.3-2.1-0.8-2.7c-0.5-0.6-1.3-1-2.3-1
				c-0.9,0-1.6,0.3-2,1s-0.7,1.6-0.7,2.7v0c0,1.1,0.3,1.9,0.8,2.5c0.5,0.6,1.2,0.9,2.1,0.9C1018.1,712.8,1018.8,712.6,1019.3,712z"
				/>
			<path class="st1" d="M1034.3,705l0,0.5c-0.2,0.4-0.6,0.8-1.1,1c-0.5,0.2-1.1,0.3-1.7,0.3c-1,0-1.9-0.3-2.6-0.8
				c-0.8-0.5-1.3-1.2-1.8-2.2s-0.6-2-0.6-3.2v0c0-1.4,0.2-2.5,0.7-3.5s1.1-1.7,2-2.2c0.9-0.5,1.9-0.7,3.2-0.7c1.2,0,2.3,0.3,3.2,0.8
				c0.9,0.5,1.5,1.2,2,2.2c0.5,1,0.7,2.1,0.7,3.5v0c0,0.7-0.1,1.5-0.3,2.4c-0.2,0.9-0.5,1.7-0.8,2.5c-0.1,0.1-0.1,0.3-0.2,0.4
				c-0.1,0.1-0.1,0.3-0.2,0.4l-4.5,9h-3.2L1034.3,705z M1034.4,703.2c0.5-0.6,0.8-1.5,0.8-2.6v0c0-1.1-0.3-2-0.8-2.6
				c-0.5-0.6-1.2-0.9-2.1-0.9c-0.9,0-1.7,0.3-2.2,0.9c-0.5,0.6-0.8,1.5-0.8,2.6v0c0,1.1,0.3,2,0.8,2.6c0.5,0.6,1.2,0.9,2.2,0.9
				C1033.2,704.2,1033.9,703.9,1034.4,703.2z"/>
		</g>
	</g>
</g>
<circle class="st8" cx="573.2" cy="799.9" r="32.6"/>
<g>
	<g>
		<g>
			<path class="st1" d="M201.5,533.8c-2.6-1.4-4.5-3.4-5.9-6c-1.3-2.6-2-5.8-2-9.5v-13c0-3.7,0.7-6.9,2-9.5c1.3-2.6,3.3-4.6,5.9-6
				c2.6-1.4,5.6-2.1,9.2-2.1c3,0,5.6,0.6,8,1.9s4.3,3.1,5.8,5.6s2.6,5.4,3.2,8.8h-9.2c-0.3-1.6-0.9-2.9-1.6-4
				c-0.7-1.1-1.6-2-2.6-2.5c-1-0.6-2.2-0.9-3.5-0.9c-1.7,0-3.1,0.3-4.3,1s-2.1,1.7-2.7,3c-0.6,1.3-0.9,2.9-0.9,4.7v13
				c0,1.8,0.3,3.4,0.9,4.7s1.5,2.3,2.7,3s2.6,1,4.3,1c1.3,0,2.5-0.3,3.5-0.9c1-0.6,1.9-1.4,2.6-2.5c0.7-1.1,1.2-2.4,1.6-4h9.2
				c-0.6,3.4-1.7,6.4-3.2,8.8s-3.5,4.3-5.8,5.6c-2.3,1.3-5,1.9-7.9,1.9C207.2,535.8,204.1,535.1,201.5,533.8z"/>
			<path class="st1" d="M235.8,488.1h8.9v47.3h-8.9V488.1z M240,507.6h27.5v8.6H240V507.6z M261.7,488.1h8.9v47.3h-8.9V488.1z"/>
			<path class="st1" d="M294.6,488.1h5.7l18.1,47.3h-9.6l-11.3-32.3l-11.3,32.3h-9.6L294.6,488.1z M285.2,519.2H310v8.6h-24.9V519.2
				z"/>
			<path class="st1" d="M324.1,488.1H335l17.6,36.2l-0.8,0.8v-37.1h8.5v47.2h-11l-17.5-35.7l0.8-0.8v36.5h-8.5V488.1z"/>
			<path class="st1" d="M370.8,488.1h10.9l17.6,36.2l-0.8,0.8v-37.1h8.5v47.2h-11l-17.5-35.7l0.8-0.8v36.5h-8.5V488.1z"/>
			<path class="st1" d="M417.4,488.1h8.9v47.3h-8.9V488.1z M420.6,488.1h28.5v8.6h-28.5V488.1z M420.6,507.6h24.9v8.6h-24.9V507.6z
				 M420.6,526.8h28.5v8.6h-28.5V526.8z"/>
			<path class="st1" d="M457.2,488.1h8.9v47.3h-8.9V488.1z M461.2,526.8h27.7v8.6h-27.7V526.8z"/>
			<path class="st1" d="M513.9,488.1h6.6v47.3h-6.6V488.1z M517.2,529h27.1v6.3h-27.1V529z"/>
			<path class="st1" d="M558.7,535.3h-6.6v-47.3h6.6V535.3z"/>
			<path class="st1" d="M604.4,488.1h6.2v47.3h-6.5v-35.4l0.3,2.1l-11.6,26.8h-4.6l-11.6-26.1l0.3-2.7v35.4h-6.5v-47.3h6.2
				l13.9,31.2L604.4,488.1z"/>
			<path class="st1" d="M628.9,535.3h-6.6v-47.3h6.6V535.3z"/>
			<path class="st1" d="M634.1,488.1h33.4v6.3h-33.4V488.1z M647.5,491.9h6.6v43.4h-6.6V491.9z"/>
		</g>
	</g>
</g>
<g>
	<g>
		<g>
			<path class="st1" d="M501.5,275.4c-2.6-1.4-4.5-3.4-5.9-6c-1.3-2.6-2-5.8-2-9.5v-13c0-3.7,0.7-6.9,2-9.5c1.3-2.6,3.3-4.6,5.9-6
				c2.6-1.4,5.6-2.1,9.2-2.1c3,0,5.6,0.6,8,1.9s4.3,3.1,5.8,5.6s2.6,5.4,3.2,8.8h-9.2c-0.3-1.6-0.9-2.9-1.6-4
				c-0.7-1.1-1.6-2-2.6-2.5c-1-0.6-2.2-0.9-3.5-0.9c-1.7,0-3.1,0.3-4.3,1s-2.1,1.7-2.7,3c-0.6,1.3-0.9,2.9-0.9,4.7v13
				c0,1.8,0.3,3.4,0.9,4.7s1.5,2.3,2.7,3s2.6,1,4.3,1c1.3,0,2.5-0.3,3.5-0.9c1-0.6,1.9-1.4,2.6-2.5c0.7-1.1,1.2-2.4,1.6-4h9.2
				c-0.6,3.4-1.7,6.4-3.2,8.8s-3.5,4.3-5.8,5.6c-2.3,1.3-5,1.9-7.9,1.9C507.2,277.5,504.1,276.8,501.5,275.4z"/>
			<path class="st1" d="M535.8,229.7h8.9V277h-8.9V229.7z M540,249.3h27.5v8.6H540V249.3z M561.7,229.7h8.9V277h-8.9V229.7z"/>
			<path class="st1" d="M594.6,229.7h5.7l18.1,47.3h-9.6l-11.3-32.3L586.1,277h-9.6L594.6,229.7z M585.2,260.8H610v8.6h-24.9V260.8z
				"/>
			<path class="st1" d="M624.2,229.7h10.9l17.6,36.2l-0.8,0.8v-37.1h8.5V277h-11l-17.5-35.7l0.8-0.8V277h-8.5V229.7z"/>
			<path class="st1" d="M670.8,229.7h10.9l17.6,36.2l-0.8,0.8v-37.1h8.5V277h-11l-17.5-35.7l0.8-0.8V277h-8.5V229.7z"/>
			<path class="st1" d="M717.4,229.7h8.9V277h-8.9V229.7z M720.6,229.7h28.5v8.6h-28.5V229.7z M720.6,249.2h24.9v8.6h-24.9V249.2z
				 M720.6,268.4h28.5v8.6h-28.5V268.4z"/>
			<path class="st1" d="M757.2,229.7h8.9V277h-8.9V229.7z M761.2,268.4h27.7v8.6h-27.7V268.4z"/>
			<path class="st1" d="M813.9,229.7h6l23.1,36.5l-0.8,0.8v-37.4h6.6V277h-6.1l-23.1-36l0.8-0.8V277h-6.6V229.7z"/>
			<path class="st1" d="M873.4,229.7h5.7l17.4,47.3h-7.2l-13.1-38.1L863.1,277H856L873.4,229.7z M864,260.3h24.9v6.3H864V260.3z"/>
			<path class="st1" d="M937.6,229.7h6.2V277h-6.5v-35.4l0.3,2.1l-11.6,26.8h-4.6l-11.6-26.1l0.3-2.7V277h-6.5v-47.3h6.2l13.9,31.2
				L937.6,229.7z"/>
			<path class="st1" d="M955.6,229.7h6.6V277h-6.6V229.7z M958.8,229.7h27.2v6.3h-27.2V229.7z M958.8,250.4h23.6v6.3h-23.6V250.4z
				 M958.8,270.7h27.2v6.3h-27.2V270.7z"/>
		</g>
	</g>
</g>
<g>
	<g>
		<g>
			<path class="st1" d="M848.9,476c-2.6-1.4-4.5-3.4-5.9-6c-1.3-2.6-2-5.8-2-9.5v-13c0-3.7,0.7-6.9,2-9.5c1.3-2.6,3.3-4.6,5.9-6
				c2.6-1.4,5.6-2.1,9.2-2.1c3,0,5.6,0.6,8,1.9c2.3,1.3,4.3,3.1,5.8,5.6c1.5,2.4,2.6,5.4,3.2,8.8h-9.2c-0.3-1.6-0.9-2.9-1.6-4
				c-0.7-1.1-1.6-2-2.6-2.5c-1-0.6-2.2-0.9-3.5-0.9c-1.7,0-3.1,0.3-4.3,1c-1.2,0.7-2.1,1.7-2.7,3c-0.6,1.3-0.9,2.9-0.9,4.7v13
				c0,1.8,0.3,3.4,0.9,4.7c0.6,1.3,1.5,2.3,2.7,3c1.2,0.7,2.6,1,4.3,1c1.3,0,2.5-0.3,3.5-0.9c1-0.6,1.9-1.4,2.6-2.5
				c0.7-1.1,1.2-2.4,1.6-4h9.2c-0.6,3.4-1.7,6.4-3.2,8.8c-1.5,2.4-3.5,4.3-5.8,5.6c-2.3,1.3-5,1.9-7.9,1.9
				C854.5,478.1,851.4,477.4,848.9,476z"/>
			<path class="st1" d="M883.2,430.3h8.9v47.3h-8.9V430.3z M887.3,449.8h27.5v8.6h-27.5V449.8z M909.1,430.3h8.9v47.3h-8.9V430.3z"
				/>
			<path class="st1" d="M941.9,430.3h5.7l18.1,47.3H956l-11.3-32.3l-11.3,32.3h-9.6L941.9,430.3z M932.5,461.4h24.9v8.6h-24.9V461.4
				z"/>
			<path class="st1" d="M971.5,430.3h10.9l17.6,36.2l-0.8,0.8v-37.1h8.5v47.2h-11l-17.5-35.7l0.8-0.8v36.5h-8.5V430.3z"/>
			<path class="st1" d="M1018.1,430.3h10.9l17.6,36.2l-0.8,0.8v-37.1h8.5v47.2h-11l-17.5-35.7l0.8-0.8v36.5h-8.5V430.3z"/>
			<path class="st1" d="M1064.7,430.3h8.9v47.3h-8.9V430.3z M1068,430.3h28.5v8.6H1068V430.3z M1068,449.8h24.9v8.6H1068V449.8z
				 M1068,469h28.5v8.6H1068V469z"/>
			<path class="st1" d="M1104.5,430.3h8.9v47.3h-8.9V430.3z M1108.5,469h27.7v8.6h-27.7V469z"/>
			<path class="st1" d="M1161.2,430.3h6.6v47.3h-6.6V430.3z M1164.1,451.3h16.1c1.3,0,2.4-0.3,3.3-0.9c1-0.6,1.7-1.5,2.3-2.6
				s0.8-2.4,0.8-3.9s-0.3-2.7-0.8-3.9c-0.5-1.1-1.3-2-2.2-2.6c-1-0.6-2.1-0.9-3.4-0.9h-16.1v-6.3h15.9c2.7,0,5.1,0.6,7.2,1.7
				s3.7,2.7,4.8,4.8c1.1,2.1,1.7,4.5,1.7,7.2c0,2.7-0.6,5.1-1.7,7.2c-1.1,2.1-2.8,3.7-4.8,4.8c-2.1,1.1-4.5,1.7-7.2,1.7h-15.9V451.3
				z M1177,456.1l6.6-1.5l12.1,23h-7.9L1177,456.1z"/>
			<path class="st1" d="M1204.7,430.3h6.6v47.3h-6.6V430.3z M1207.9,430.3h27.2v6.3h-27.2V430.3z M1207.9,451h23.6v6.3h-23.6V451z
				 M1207.9,471.3h27.2v6.3h-27.2V471.3z"/>
			<path class="st1" d="M1276.8,452.1v8.3c0,3.5-0.7,6.6-2,9.3s-3.3,4.7-5.8,6.2c-2.5,1.5-5.4,2.2-8.7,2.2c-3.3,0-6.3-0.7-8.8-2.1
				c-2.5-1.4-4.5-3.3-5.9-5.8s-2.1-5.4-2.1-8.7v-13.9c0-3.5,0.7-6.6,2-9.3c1.4-2.7,3.3-4.7,5.8-6.2s5.4-2.2,8.7-2.2
				c2.7,0,5.2,0.6,7.5,1.7s4.2,2.8,5.7,4.9c1.5,2.1,2.6,4.6,3.1,7.4h-7.2c-0.4-1.6-1.1-2.9-2-4.1c-0.9-1.1-2-2-3.3-2.6
				c-1.3-0.6-2.6-0.9-3.9-0.9c-2,0-3.7,0.5-5.1,1.4s-2.6,2.2-3.4,3.9s-1.2,3.6-1.2,5.9v13.9c0,2,0.4,3.8,1.2,5.3
				c0.8,1.5,2,2.7,3.5,3.6c1.5,0.8,3.2,1.3,5.2,1.3c2,0,3.7-0.4,5.1-1.3c1.5-0.9,2.6-2.2,3.4-3.8c0.8-1.7,1.2-3.7,1.2-6v-2h-9.6
				v-6.3H1276.8z"/>
			<path class="st1" d="M1294.1,477.6h-6.6v-47.3h6.6V477.6z"/>
			<path class="st1" d="M1312.8,475.9c-2.5-1.4-4.5-3.5-5.8-6.1c-1.4-2.6-2.1-5.7-2.1-9.2v-13.4c0-3.5,0.7-6.5,2.1-9.2
				c1.4-2.6,3.3-4.7,5.8-6.1c2.5-1.4,5.4-2.2,8.7-2.2s6.2,0.7,8.7,2.2c2.5,1.4,4.5,3.5,5.8,6.1s2.1,5.7,2.1,9.2v13.4
				c0,3.5-0.7,6.5-2.1,9.2s-3.3,4.7-5.8,6.1c-2.5,1.4-5.4,2.2-8.7,2.2S1315.3,477.4,1312.8,475.9z M1326.6,470.2
				c1.5-0.9,2.6-2.1,3.4-3.7c0.8-1.6,1.2-3.5,1.2-5.6V447c0-2.1-0.4-4-1.2-5.6c-0.8-1.6-2-2.9-3.4-3.7s-3.2-1.3-5.2-1.3
				s-3.7,0.4-5.2,1.3c-1.5,0.9-2.6,2.1-3.4,3.7c-0.8,1.6-1.2,3.5-1.2,5.6v13.9c0,2.1,0.4,4,1.2,5.6s2,2.9,3.4,3.7
				c1.5,0.9,3.2,1.3,5.2,1.3S1325.1,471.1,1326.6,470.2z"/>
			<path class="st1" d="M1348.8,430.3h6l23.1,36.5l-0.8,0.8v-37.4h6.6v47.2h-6.1l-23.1-36l0.8-0.8v36.8h-6.6V430.3z"/>
		</g>
	</g>
</g>
<g>
	<g>
		<g>
			<path class="st1" d="M161.2,1039.4c-2.6-1.4-4.5-3.4-5.9-6c-1.3-2.6-2-5.8-2-9.5v-13c0-3.7,0.7-6.9,2-9.5c1.3-2.6,3.3-4.6,5.9-6
				c2.6-1.4,5.6-2.1,9.2-2.1c3,0,5.6,0.6,8,1.9s4.3,3.1,5.8,5.6s2.6,5.4,3.2,8.8h-9.2c-0.3-1.6-0.9-2.9-1.6-4
				c-0.7-1.1-1.6-2-2.6-2.5c-1-0.6-2.2-0.9-3.5-0.9c-1.7,0-3.1,0.3-4.3,1s-2.1,1.7-2.7,3c-0.6,1.3-0.9,2.9-0.9,4.7v13
				c0,1.8,0.3,3.4,0.9,4.7s1.5,2.3,2.7,3s2.6,1,4.3,1c1.3,0,2.5-0.3,3.5-0.9c1-0.6,1.9-1.4,2.6-2.5c0.7-1.1,1.2-2.4,1.6-4h9.2
				c-0.6,3.4-1.7,6.4-3.2,8.8s-3.5,4.3-5.8,5.6c-2.3,1.3-5,1.9-7.9,1.9C166.8,1041.5,163.8,1040.8,161.2,1039.4z"/>
			<path class="st1" d="M195.5,993.7h8.9v47.3h-8.9V993.7z M199.6,1013.2h27.5v8.6h-27.5V1013.2z M221.4,993.7h8.9v47.3h-8.9V993.7z
				"/>
			<path class="st1" d="M254.2,993.7h5.7L278,1041h-9.6l-11.3-32.3l-11.3,32.3h-9.6L254.2,993.7z M244.8,1024.8h24.9v8.6h-24.9
				V1024.8z"/>
			<path class="st1" d="M283.8,993.7h10.9l17.6,36.2l-0.8,0.8v-37.1h8.5v47.2h-11l-17.5-35.7l0.8-0.8v36.5h-8.5V993.7z"/>
			<path class="st1" d="M330.4,993.7h10.9l17.6,36.2l-0.8,0.8v-37.1h8.5v47.2h-11l-17.5-35.7l0.8-0.8v36.5h-8.5V993.7z"/>
			<path class="st1" d="M377.1,993.7h8.9v47.3h-8.9V993.7z M380.3,993.7h28.5v8.6h-28.5V993.7z M380.3,1013.2h24.9v8.6h-24.9V1013.2
				z M380.3,1032.4h28.5v8.6h-28.5V1032.4z"/>
			<path class="st1" d="M416.9,993.7h8.9v47.3h-8.9V993.7z M420.8,1032.4h27.7v8.6h-27.7V1032.4z"/>
			<path class="st1" d="M507.5,993.7h6.2v47.3h-6.5v-35.4l0.3,2.1l-11.6,26.8h-4.6l-11.6-26.1l0.3-2.7v35.4h-6.5v-47.3h6.2
				l13.9,31.2L507.5,993.7z"/>
			<path class="st1" d="M532.4,1039.3c-2.5-1.4-4.5-3.5-5.8-6.1c-1.4-2.6-2.1-5.7-2.1-9.2v-13.4c0-3.5,0.7-6.5,2.1-9.2
				c1.4-2.6,3.3-4.7,5.8-6.1s5.4-2.2,8.7-2.2s6.2,0.7,8.7,2.2s4.5,3.5,5.8,6.1c1.4,2.6,2.1,5.7,2.1,9.2v13.4c0,3.5-0.7,6.5-2.1,9.2
				c-1.4,2.6-3.3,4.7-5.8,6.1c-2.5,1.4-5.4,2.2-8.7,2.2S534.9,1040.7,532.4,1039.3z M546.3,1033.6c1.5-0.9,2.6-2.1,3.4-3.7
				c0.8-1.6,1.2-3.5,1.2-5.6v-13.9c0-2.1-0.4-4-1.2-5.6c-0.8-1.6-2-2.9-3.4-3.7c-1.5-0.9-3.2-1.3-5.2-1.3s-3.7,0.4-5.2,1.3
				c-1.5,0.9-2.6,2.1-3.4,3.7c-0.8,1.6-1.2,3.5-1.2,5.6v13.9c0,2.1,0.4,4,1.2,5.6c0.8,1.6,2,2.9,3.4,3.7c1.5,0.9,3.2,1.3,5.2,1.3
				S544.8,1034.5,546.3,1033.6z"/>
			<path class="st1" d="M568.4,993.7h6.6v47.3h-6.6V993.7z M572.9,1034.7h10.7c3.5,0,6.2-0.9,8.1-2.7c1.9-1.8,2.9-4.4,2.9-7.7v-13.9
				c0-3.3-1-5.8-2.9-7.7c-1.9-1.8-4.6-2.7-8.1-2.7h-10.7v-6.3h10.5c3.8,0,7,0.7,9.7,2s4.7,3.3,6.1,5.8s2.1,5.6,2.1,9.2v13.4
				c0,3.6-0.7,6.6-2.1,9.2s-3.5,4.5-6.2,5.8c-2.7,1.3-5.9,2-9.7,2h-10.5V1034.7z"/>
			<path class="st1" d="M612.1,993.7h6.6v47.3h-6.6V993.7z M615.4,993.7h27.2v6.3h-27.2V993.7z M615.4,1014.3h23.6v6.3h-23.6V1014.3
				z M615.4,1034.7h27.2v6.3h-27.2V1034.7z"/>
		</g>
	</g>
</g>
<g>
	<g>
		<g>
			<path class="st1" d="M871.5,1100.3c-2.6-1.4-4.5-3.4-5.9-6c-1.3-2.6-2-5.8-2-9.5v-13c0-3.7,0.7-6.9,2-9.5c1.3-2.6,3.3-4.6,5.9-6
				c2.6-1.4,5.6-2.1,9.2-2.1c3,0,5.6,0.6,8,1.9s4.3,3.1,5.8,5.6s2.6,5.4,3.2,8.8h-9.2c-0.3-1.6-0.9-2.9-1.6-4
				c-0.7-1.1-1.6-2-2.6-2.5c-1-0.6-2.2-0.9-3.5-0.9c-1.7,0-3.1,0.3-4.3,1s-2.1,1.7-2.7,3c-0.6,1.3-0.9,2.9-0.9,4.7v13
				c0,1.8,0.3,3.4,0.9,4.7s1.5,2.3,2.7,3s2.6,1,4.3,1c1.3,0,2.5-0.3,3.5-0.9c1-0.6,1.9-1.4,2.6-2.5c0.7-1.1,1.2-2.4,1.6-4h9.2
				c-0.6,3.4-1.7,6.4-3.2,8.8s-3.5,4.3-5.8,5.6c-2.3,1.3-5,1.9-7.9,1.9C877.1,1102.3,874,1101.6,871.5,1100.3z"/>
			<path class="st1" d="M905.8,1054.6h8.9v47.3h-8.9V1054.6z M909.9,1074.1h27.5v8.6h-27.5V1074.1z M931.6,1054.6h8.9v47.3h-8.9
				V1054.6z"/>
			<path class="st1" d="M964.5,1054.6h5.7l18.1,47.3h-9.6l-11.3-32.3l-11.3,32.3h-9.6L964.5,1054.6z M955.1,1085.7H980v8.6h-24.9
				V1085.7z"/>
			<path class="st1" d="M994.1,1054.6h10.9l17.6,36.2l-0.8,0.8v-37.1h8.5v47.2h-11l-17.5-35.7l0.8-0.8v36.5h-8.5V1054.6z"/>
			<path class="st1" d="M1040.7,1054.6h10.9l17.6,36.2l-0.8,0.8v-37.1h8.5v47.2h-11l-17.5-35.7l0.8-0.8v36.5h-8.5V1054.6z"/>
			<path class="st1" d="M1087.3,1054.6h8.9v47.3h-8.9V1054.6z M1090.5,1054.6h28.5v8.6h-28.5V1054.6z M1090.5,1074.1h24.9v8.6h-24.9
				V1074.1z M1090.5,1093.2h28.5v8.6h-28.5V1093.2z"/>
			<path class="st1" d="M1127.1,1054.6h8.9v47.3h-8.9V1054.6z M1131.1,1093.2h27.7v8.6h-27.7V1093.2z"/>
			<path class="st1" d="M1190.7,1100.1c-2.5-1.5-4.4-3.5-5.8-6.2c-1.4-2.7-2-5.8-2-9.3v-13c0-3.5,0.7-6.6,2-9.3
				c1.4-2.7,3.3-4.7,5.8-6.2c2.5-1.5,5.4-2.2,8.6-2.2c2.7,0,5.2,0.6,7.5,1.7c2.3,1.2,4.2,2.8,5.7,4.9c1.5,2.1,2.6,4.6,3.1,7.4h-6.8
				c-0.4-1.5-1.1-2.8-2.1-4c-1-1.2-2.1-2.1-3.4-2.7s-2.6-0.9-4-0.9c-1.9,0-3.6,0.5-5.1,1.4c-1.5,0.9-2.6,2.2-3.4,3.9
				c-0.8,1.7-1.2,3.6-1.2,5.9v13c0,2.2,0.4,4.2,1.2,5.9c0.8,1.7,1.9,3,3.4,3.9c1.5,0.9,3.1,1.4,5.1,1.4c1.4,0,2.8-0.3,4-0.9
				c1.3-0.6,2.4-1.5,3.4-2.6c1-1.1,1.7-2.5,2.1-4.1h6.8c-0.5,2.8-1.6,5.3-3.1,7.4c-1.5,2.1-3.4,3.8-5.7,4.9
				c-2.3,1.2-4.8,1.7-7.4,1.7C1196,1102.3,1193.2,1101.6,1190.7,1100.1z"/>
			<path class="st1" d="M1225,1054.6h6.6v47.3h-6.6V1054.6z M1228.3,1095.5h27.1v6.3h-27.1V1095.5z"/>
			<path class="st1" d="M1276.1,1054.6h5.7l17.4,47.3h-7.2l-13.1-38.1l-13.1,38.1h-7.2L1276.1,1054.6z M1266.7,1085.2h24.9v6.3
				h-24.9V1085.2z"/>
			<path class="st1" d="M1312.9,1101.8h-6.6v-47.3h6.6V1101.8z"/>
			<path class="st1" d="M1358.6,1054.6h6.2v47.3h-6.5v-35.4l0.3,2.1l-11.6,26.8h-4.6l-11.6-26.1l0.3-2.7v35.4h-6.5v-47.3h6.2
				l13.9,31.2L1358.6,1054.6z"/>
		</g>
	</g>
</g>
<g>
	<g>
		<g>
			<path class="st1" d="M389.9,1301c-2.6-1.4-4.5-3.4-5.9-6c-1.3-2.6-2-5.8-2-9.5v-13c0-3.7,0.7-6.9,2-9.5c1.3-2.6,3.3-4.6,5.9-6
				c2.6-1.4,5.6-2.1,9.2-2.1c3,0,5.6,0.6,8,1.9s4.3,3.1,5.8,5.6c1.5,2.4,2.6,5.4,3.2,8.8h-9.2c-0.3-1.6-0.9-2.9-1.6-4
				c-0.7-1.1-1.6-2-2.6-2.5c-1-0.6-2.2-0.9-3.5-0.9c-1.7,0-3.1,0.3-4.3,1c-1.2,0.7-2.1,1.7-2.7,3c-0.6,1.3-0.9,2.9-0.9,4.7v13
				c0,1.8,0.3,3.4,0.9,4.7s1.5,2.3,2.7,3c1.2,0.7,2.6,1,4.3,1c1.3,0,2.5-0.3,3.5-0.9c1-0.6,1.9-1.4,2.6-2.5c0.7-1.1,1.2-2.4,1.6-4
				h9.2c-0.6,3.4-1.7,6.4-3.2,8.8c-1.5,2.4-3.5,4.3-5.8,5.6c-2.3,1.3-5,1.9-7.9,1.9C395.5,1303.1,392.5,1302.4,389.9,1301z"/>
			<path class="st1" d="M424.2,1255.3h8.9v47.3h-8.9V1255.3z M428.3,1274.9h27.5v8.6h-27.5V1274.9z M450.1,1255.3h8.9v47.3h-8.9
				V1255.3z"/>
			<path class="st1" d="M482.9,1255.3h5.7l18.1,47.3h-9.6l-11.3-32.3l-11.3,32.3h-9.6L482.9,1255.3z M473.5,1286.5h24.9v8.6h-24.9
				V1286.5z"/>
			<path class="st1" d="M512.5,1255.3h10.9l17.6,36.2l-0.8,0.8v-37.1h8.5v47.2h-11l-17.5-35.7l0.8-0.8v36.5h-8.5V1255.3z"/>
			<path class="st1" d="M559.1,1255.3H570l17.6,36.2l-0.8,0.8v-37.1h8.5v47.2h-11l-17.5-35.7l0.8-0.8v36.5h-8.5V1255.3z"/>
			<path class="st1" d="M605.8,1255.3h8.9v47.3h-8.9V1255.3z M609,1255.3h28.5v8.6H609V1255.3z M609,1274.9h24.9v8.6H609V1274.9z
				 M609,1294h28.5v8.6H609V1294z"/>
			<path class="st1" d="M645.6,1255.3h8.9v47.3h-8.9V1255.3z M649.5,1294h27.7v8.6h-27.7V1294z"/>
			<path class="st1" d="M695.8,1255.3h33.4v6.3h-33.4V1255.3z M709.1,1259.2h6.6v43.4h-6.6V1259.2z"/>
			<path class="st1" d="M734.3,1255.3h6.6v47.3h-6.6V1255.3z M737.2,1276.3h16.1c1.3,0,2.4-0.3,3.3-0.9c1-0.6,1.7-1.5,2.3-2.6
				c0.5-1.1,0.8-2.4,0.8-3.9c0-1.5-0.3-2.7-0.8-3.9s-1.3-2-2.2-2.6c-1-0.6-2.1-0.9-3.4-0.9h-16.1v-6.3h15.9c2.7,0,5.1,0.6,7.2,1.7
				s3.7,2.7,4.8,4.8c1.1,2.1,1.7,4.5,1.7,7.2c0,2.7-0.6,5.1-1.7,7.2c-1.1,2.1-2.8,3.7-4.8,4.8c-2.1,1.1-4.5,1.7-7.2,1.7h-15.9
				V1276.3z M750.1,1281.2l6.6-1.5l12.1,23h-7.9L750.1,1281.2z"/>
			<path class="st1" d="M790.6,1255.3h5.7l17.4,47.3h-7.2l-13.1-38.1l-13.1,38.1h-7.2L790.6,1255.3z M781.2,1285.9h24.9v6.3h-24.9
				V1285.9z"/>
			<path class="st1" d="M820.8,1255.3h6l23.1,36.5l-0.8,0.8v-37.4h6.6v47.2h-6.1l-23.1-36l0.8-0.8v36.8h-6.6V1255.3z"/>
			<path class="st1" d="M875.2,1302.5c-2-0.4-3.9-1.1-5.7-2c-1.8-0.9-3.4-2-5-3.3l4.1-5.1c1.8,1.6,3.8,2.7,6,3.5
				c2.2,0.8,4.5,1.2,7.1,1.2c3.4,0,6.1-0.6,8-1.9c1.9-1.3,2.8-3.1,2.8-5.4v0c0-1.6-0.4-3-1.3-3.9c-0.9-1-2-1.7-3.3-2.1
				c-1.4-0.5-3.1-0.9-5.3-1.3c-0.1,0-0.1,0-0.2,0s-0.1,0-0.2,0l-0.5-0.1c-3.2-0.5-5.7-1.2-7.7-1.8c-2-0.7-3.7-1.9-5.1-3.7
				c-1.4-1.8-2.1-4.4-2.1-7.7v0c0-2.9,0.7-5.4,2-7.5c1.3-2.1,3.2-3.6,5.7-4.7c2.5-1.1,5.5-1.6,9.1-1.6c1.7,0,3.4,0.2,5,0.6
				c1.6,0.4,3.3,0.9,4.8,1.6c1.6,0.7,3.2,1.6,4.7,2.7l-3.8,5.3c-1.8-1.3-3.6-2.3-5.4-3c-1.8-0.7-3.6-1-5.4-1c-3.2,0-5.7,0.6-7.5,1.9
				c-1.8,1.3-2.7,3.1-2.7,5.5v0c0,1.6,0.5,2.9,1.4,3.8c0.9,0.9,2.1,1.6,3.4,2.1c1.4,0.4,3.3,0.9,5.7,1.4c0.1,0,0.2,0,0.2,0
				c0.1,0,0.2,0,0.2,0c0.1,0,0.2,0,0.4,0.1c0.1,0,0.2,0,0.4,0.1c2.9,0.6,5.3,1.3,7.2,2.1c1.9,0.8,3.5,2.1,4.8,3.9
				c1.3,1.8,1.9,4.2,1.9,7.3v0.1c0,2.9-0.7,5.3-2,7.4c-1.4,2-3.3,3.6-5.9,4.7c-2.6,1.1-5.7,1.6-9.4,1.6
				C879.4,1303.1,877.3,1302.9,875.2,1302.5z"/>
			<path class="st1" d="M908.5,1255.3h6.6v47.3h-6.6V1255.3z M911.7,1255.3h26.5v6.3h-26.5V1255.3z M911.7,1276.4h22.9v6.3h-22.9
				V1276.4z"/>
			<path class="st1" d="M945.7,1255.3h6.6v47.3h-6.6V1255.3z M948.9,1255.3h27.2v6.3h-27.2V1255.3z M948.9,1276h23.6v6.3h-23.6V1276
				z M948.9,1296.3h27.2v6.3h-27.2V1296.3z"/>
			<path class="st1" d="M985.5,1255.3h6.6v47.3h-6.6V1255.3z M988.4,1276.3h16.1c1.3,0,2.4-0.3,3.3-0.9c1-0.6,1.7-1.5,2.3-2.6
				c0.5-1.1,0.8-2.4,0.8-3.9c0-1.5-0.3-2.7-0.8-3.9s-1.3-2-2.2-2.6c-1-0.6-2.1-0.9-3.4-0.9h-16.1v-6.3h15.9c2.7,0,5.1,0.6,7.2,1.7
				s3.7,2.7,4.8,4.8c1.1,2.1,1.7,4.5,1.7,7.2c0,2.7-0.6,5.1-1.7,7.2c-1.1,2.1-2.8,3.7-4.8,4.8s-4.5,1.7-7.2,1.7h-15.9V1276.3z
				 M1001.3,1281.2l6.6-1.5l12.1,23h-7.9L1001.3,1281.2z"/>
		</g>
	</g>
</g>
</svg>
