<?xml version="1.0" encoding="utf-8"?>
<!-- Generator: Adobe Illustrator 25.0.0, SVG Export Plug-In . SVG Version: 6.00 Build 0)  -->
<svg version="1.1" id="Layer_1" xmlns="http://www.w3.org/2000/svg" xmlns:xlink="http://www.w3.org/1999/xlink" x="0px" y="0px"
	 viewBox="0 0 1500 1500" style="enable-background:new 0 0 1500 1500;" xml:space="preserve">
<style type="text/css">
	.st0{fill:#2F3136;}
	.st1{fill:#72767D;}
	.st2{fill:#EB459E;}
	.st3{fill:#FFFFFF;}
	.st4{fill:#57F287;}
	.st5{fill:#FEE75C;}
	.st6{fill:#34373C;}
	.st7{fill:#202225;}
	.st8{fill:#5865F2;}
	.st9{fill:#ED4245;}
	.st10{opacity:0.42;}
	.st11{fill:#4FDC7C;}
</style>
<path class="st0" d="M700,300H74.3c-12.8,0-23.2-10.4-23.2-23.2v0c0-12.8,10.4-23.2,23.2-23.2H700c12.8,0,23.2,10.4,23.2,23.2v0
	C723.2,289.6,712.8,300,700,300z"/>
<path class="st0" d="M683.5,423.8H90.8c-21.9,0-39.6-17.7-39.6-39.6v-21.7c0-21.9,17.7-39.6,39.6-39.6h592.8
	c21.9,0,39.6,17.7,39.6,39.6v21.7C723.2,406,705.4,423.8,683.5,423.8z"/>
<path class="st1" d="M113.5,368.1c0.1,0.1,0.3,0.3,0.4,0.4h-0.4V368.1z"/>
<g>
	<g>
		<g>
			<path class="st1" d="M169.9,387.9c-1.5-0.9-2.8-2.2-3.6-3.9c-0.9-1.7-1.3-3.6-1.3-5.8v-8.1c0-2.2,0.4-4.1,1.3-5.8s2.1-3,3.6-3.9
				c1.5-0.9,3.3-1.4,5.4-1.4c1.7,0,3.2,0.4,4.7,1.1s2.6,1.7,3.6,3.1c1,1.3,1.6,2.9,1.9,4.6h-4.2c-0.3-0.9-0.7-1.7-1.3-2.5
				s-1.3-1.3-2.1-1.7c-0.8-0.4-1.7-0.6-2.5-0.6c-1.2,0-2.3,0.3-3.2,0.9c-0.9,0.6-1.6,1.4-2.1,2.4c-0.5,1-0.8,2.3-0.8,3.7v8.1
				c0,1.4,0.3,2.6,0.8,3.7c0.5,1.1,1.2,1.9,2.1,2.4c0.9,0.6,2,0.9,3.2,0.9c0.9,0,1.7-0.2,2.5-0.5c0.8-0.4,1.5-0.9,2.1-1.6
				c0.6-0.7,1-1.6,1.3-2.6h4.2c-0.3,1.7-1,3.3-1.9,4.6c-1,1.3-2.2,2.4-3.6,3.1c-1.4,0.7-3,1.1-4.6,1.1
				C173.2,389.2,171.4,388.8,169.9,387.9z"/>
			<path class="st1" d="M191.3,359.4h4.1v29.5h-4.1V359.4z M193.1,372.5h10.1c0.8,0,1.5-0.2,2.1-0.6c0.6-0.4,1.1-0.9,1.4-1.6
				c0.3-0.7,0.5-1.5,0.5-2.4s-0.2-1.7-0.5-2.4c-0.3-0.7-0.8-1.2-1.4-1.6c-0.6-0.4-1.3-0.6-2.1-0.6h-10.1v-3.9h9.9
				c1.7,0,3.2,0.4,4.5,1.1c1.3,0.7,2.3,1.7,3,3c0.7,1.3,1.1,2.8,1.1,4.5s-0.4,3.2-1.1,4.5c-0.7,1.3-1.7,2.3-3,3
				c-1.3,0.7-2.8,1.1-4.5,1.1h-9.9V372.5z M201.2,375.5l4.1-0.9l7.6,14.3h-4.9L201.2,375.5z"/>
			<path class="st1" d="M218.4,359.4h4.1v29.5h-4.1V359.4z M220.4,359.4h16.9v3.9h-16.9V359.4z M220.4,372.3h14.7v3.9h-14.7V372.3z
				 M220.4,385h16.9v3.9h-16.9V385z"/>
			<path class="st1" d="M251.3,359.4h3.5l10.9,29.5h-4.5l-8.2-23.8l-8.2,23.8h-4.5L251.3,359.4z M245.4,378.5H261v3.9h-15.5V378.5z"
				/>
			<path class="st1" d="M266.1,359.4h20.8v3.9h-20.8V359.4z M274.5,361.8h4.1v27.1h-4.1V361.8z"/>
			<path class="st1" d="M290.2,359.4h4.1v29.5h-4.1V359.4z M292.2,359.4h16.9v3.9h-16.9V359.4z M292.2,372.3h14.7v3.9h-14.7V372.3z
				 M292.2,385h16.9v3.9h-16.9V385z"/>
			<path class="st1" d="M330.5,387.9c-1.5-0.9-2.8-2.2-3.6-3.9c-0.9-1.7-1.3-3.6-1.3-5.8v-8.1c0-2.2,0.4-4.1,1.3-5.8s2.1-3,3.6-3.9
				c1.5-0.9,3.3-1.4,5.4-1.4c1.7,0,3.2,0.4,4.7,1.1s2.6,1.7,3.6,3.1c1,1.3,1.6,2.9,1.9,4.6h-4.2c-0.3-0.9-0.7-1.7-1.3-2.5
				s-1.3-1.3-2.1-1.7c-0.8-0.4-1.7-0.6-2.5-0.6c-1.2,0-2.3,0.3-3.2,0.9c-0.9,0.6-1.6,1.4-2.1,2.4c-0.5,1-0.8,2.3-0.8,3.7v8.1
				c0,1.4,0.3,2.6,0.8,3.7c0.5,1.1,1.2,1.9,2.1,2.4c0.9,0.6,2,0.9,3.2,0.9c0.9,0,1.7-0.2,2.5-0.5c0.8-0.4,1.5-0.9,2.1-1.6
				c0.6-0.7,1-1.6,1.3-2.6h4.2c-0.3,1.7-1,3.3-1.9,4.6c-1,1.3-2.2,2.4-3.6,3.1c-1.4,0.7-3,1.1-4.6,1.1
				C333.8,389.2,332,388.8,330.5,387.9z"/>
			<path class="st1" d="M351.9,359.4h4.1v29.5h-4.1V359.4z M354.5,372.4h16.4v3.9h-16.4V372.4z M368.7,359.4h4.1v29.5h-4.1V359.4z"
				/>
			<path class="st1" d="M388.2,359.4h3.5l10.9,29.5h-4.5l-8.2-23.8l-8.2,23.8h-4.5L388.2,359.4z M382.3,378.5h15.5v3.9h-15.5V378.5z
				"/>
			<path class="st1" d="M407,359.4h3.8l14.4,22.8l-0.5,0.5v-23.3h4.1v29.5H425l-14.4-22.5l0.5-0.5v23H407V359.4z"/>
			<path class="st1" d="M436.1,359.4h3.8l14.4,22.8l-0.5,0.5v-23.3h4.1v29.5h-3.8l-14.4-22.5l0.5-0.5v23h-4.1V359.4z"/>
			<path class="st1" d="M465.2,359.4h4.1v29.5h-4.1V359.4z M467.3,359.4h16.9v3.9h-16.9V359.4z M467.3,372.3H482v3.9h-14.7V372.3z
				 M467.3,385h16.9v3.9h-16.9V385z"/>
			<path class="st1" d="M490.1,359.4h4.1v29.5h-4.1V359.4z M492.2,385H509v3.9h-16.9V385z"/>
		</g>
	</g>
</g>
<path class="st1" d="M111.2,400.8L111.2,400.8c-2.7,0-4.8-2.2-4.8-4.8v-46.5c0-2.7,2.2-4.8,4.8-4.8h0c2.7,0,4.8,2.2,4.8,4.8v46.5
	C116.1,398.6,113.9,400.8,111.2,400.8z"/>
<path class="st1" d="M139.3,372.7L139.3,372.7c0,2.7-2.2,4.8-4.8,4.8H88c-2.7,0-4.8-2.2-4.8-4.8l0,0c0-2.7,2.2-4.8,4.8-4.8h46.5
	C137.2,367.9,139.3,370,139.3,372.7z"/>
<path class="st1" d="M90.3,271.2L90.3,271.2c0.5,0.5,0.5,1.4,0,1.9l-9.4,9.4c-0.5,0.5-1.4,0.5-1.9,0l0,0c-0.5-0.5-0.5-1.4,0-1.9
	l9.4-9.4C88.9,270.6,89.8,270.6,90.3,271.2z"/>
<path class="st1" d="M69.5,271.2L69.5,271.2c0.5-0.5,1.4-0.5,1.9,0l9.4,9.4c0.5,0.5,0.5,1.4,0,1.9h0c-0.5,0.5-1.4,0.5-1.9,0
	l-9.4-9.4C68.9,272.6,68.9,271.7,69.5,271.2z"/>
<g>
	<g>
		<g>
			<path class="st1" d="M108.9,267h2.8v19.6h-2.8V267z M110.2,267h11v2.6h-11V267z M110.2,275.8h9.5v2.6h-9.5V275.8z"/>
			<path class="st1" d="M127.2,286c-1-0.6-1.9-1.4-2.4-2.5c-0.6-1.1-0.9-2.4-0.9-3.8v-5.6c0-1.4,0.3-2.7,0.9-3.8
				c0.6-1.1,1.4-1.9,2.4-2.5s2.3-0.9,3.6-0.9c1.4,0,2.6,0.3,3.6,0.9c1,0.6,1.9,1.4,2.4,2.5c0.6,1.1,0.9,2.4,0.9,3.8v5.6
				c0,1.4-0.3,2.7-0.9,3.8c-0.6,1.1-1.4,1.9-2.4,2.5c-1,0.6-2.3,0.9-3.6,0.9C129.5,286.9,128.3,286.6,127.2,286z M133,283.6
				c0.6-0.4,1.1-0.9,1.4-1.6c0.3-0.7,0.5-1.4,0.5-2.3V274c0-0.9-0.2-1.7-0.5-2.3c-0.3-0.7-0.8-1.2-1.4-1.6c-0.6-0.4-1.3-0.5-2.1-0.5
				c-0.8,0-1.5,0.2-2.1,0.5c-0.6,0.4-1.1,0.9-1.4,1.6c-0.3,0.7-0.5,1.4-0.5,2.3v5.8c0,0.9,0.2,1.7,0.5,2.3c0.3,0.7,0.8,1.2,1.4,1.6
				c0.6,0.4,1.3,0.5,2.1,0.5C131.6,284.2,132.4,284,133,283.6z"/>
			<path class="st1" d="M142.2,267h2.8v19.7h-2.8V267z M143.4,275.8h6.7c0.5,0,1-0.1,1.4-0.4c0.4-0.3,0.7-0.6,0.9-1.1s0.3-1,0.3-1.6
				c0-0.6-0.1-1.1-0.3-1.6c-0.2-0.5-0.5-0.8-0.9-1.1s-0.9-0.4-1.4-0.4h-6.7V267h6.6c1.1,0,2.1,0.2,3,0.7c0.9,0.5,1.5,1.1,2,2
				c0.5,0.9,0.7,1.9,0.7,3c0,1.1-0.2,2.1-0.7,3c-0.5,0.9-1.1,1.5-2,2c-0.9,0.5-1.9,0.7-3,0.7h-6.6V275.8z M148.7,277.8l2.7-0.6
				l5,9.5h-3.3L148.7,277.8z"/>
			<path class="st1" d="M163.1,286c-1-0.6-1.8-1.5-2.4-2.6s-0.9-2.4-0.9-3.8v-5.4c0-1.5,0.3-2.7,0.9-3.8s1.4-2,2.4-2.6
				c1-0.6,2.2-0.9,3.6-0.9c1.1,0,2.2,0.2,3.1,0.7s1.7,1.2,2.4,2c0.6,0.9,1.1,1.9,1.3,3.1h-2.8c-0.2-0.6-0.5-1.2-0.9-1.6
				c-0.4-0.5-0.9-0.9-1.4-1.1c-0.5-0.3-1.1-0.4-1.7-0.4c-0.8,0-1.5,0.2-2.1,0.6c-0.6,0.4-1.1,0.9-1.4,1.6c-0.3,0.7-0.5,1.5-0.5,2.4
				v5.4c0,0.9,0.2,1.7,0.5,2.4c0.3,0.7,0.8,1.2,1.4,1.6c0.6,0.4,1.3,0.6,2.1,0.6c0.6,0,1.1-0.1,1.7-0.4s1-0.6,1.4-1.1
				c0.4-0.5,0.7-1,0.9-1.7h2.8c-0.2,1.2-0.7,2.2-1.3,3.1c-0.6,0.9-1.4,1.6-2.4,2c-0.9,0.5-2,0.7-3.1,0.7
				C165.3,286.9,164.1,286.6,163.1,286z"/>
			<path class="st1" d="M177.3,267h2.8v19.6h-2.8V267z M178.7,267h11.3v2.6h-11.3V267z M178.7,275.6h9.8v2.6h-9.8V275.6z
				 M178.7,284.1h11.3v2.6h-11.3V284.1z"/>
			<path class="st1" d="M193.9,267h2.8v19.6h-2.8V267z M195.7,284.1h4.4c1.4,0,2.6-0.4,3.4-1.1c0.8-0.8,1.2-1.8,1.2-3.2V274
				c0-1.4-0.4-2.4-1.2-3.2c-0.8-0.8-1.9-1.1-3.4-1.1h-4.4V267h4.4c1.6,0,2.9,0.3,4,0.8c1.1,0.5,2,1.4,2.6,2.4
				c0.6,1.1,0.9,2.3,0.9,3.8v5.6c0,1.5-0.3,2.8-0.9,3.8c-0.6,1.1-1.4,1.9-2.6,2.4c-1.1,0.5-2.5,0.8-4,0.8h-4.3V284.1z"/>
			<path class="st1" d="M219.4,267h2.5l9.6,15.2l-0.3,0.4V267h2.7v19.6h-2.5l-9.6-15l0.3-0.4v15.3h-2.7V267z"/>
			<path class="st1" d="M244.2,267h2.3l7.2,19.6h-3l-5.4-15.8l-5.4,15.8h-3L244.2,267z M240.2,279.8h10.3v2.6h-10.3V279.8z"/>
			<path class="st1" d="M270.8,267h2.6v19.6h-2.7V272l0.1,0.9L266,284h-1.9l-4.8-10.8l0.1-1.1v14.7h-2.7V267h2.6l5.8,13L270.8,267z"
				/>
			<path class="st1" d="M278.3,267h2.8v19.6h-2.8V267z M279.6,267h11.3v2.6h-11.3V267z M279.6,275.6h9.8v2.6h-9.8V275.6z
				 M279.6,284.1h11.3v2.6h-11.3V284.1z"/>
			<path class="st1" d="M311,278.3v2.6H302v-2.6H311z"/>
			<path class="st1" d="M336.3,276.1v3.4c0,1.5-0.3,2.7-0.9,3.9c-0.6,1.1-1.4,2-2.4,2.6s-2.2,0.9-3.6,0.9c-1.4,0-2.6-0.3-3.7-0.9
				c-1-0.6-1.9-1.4-2.4-2.4c-0.6-1-0.9-2.3-0.9-3.6v-5.8c0-1.5,0.3-2.7,0.9-3.8s1.4-2,2.4-2.6c1-0.6,2.2-0.9,3.6-0.9
				c1.1,0,2.2,0.2,3.1,0.7c0.9,0.5,1.7,1.2,2.4,2c0.6,0.9,1.1,1.9,1.3,3.1h-3c-0.2-0.7-0.4-1.2-0.8-1.7s-0.8-0.8-1.4-1.1
				c-0.5-0.2-1.1-0.4-1.6-0.4c-0.8,0-1.5,0.2-2.1,0.6s-1.1,0.9-1.4,1.6c-0.3,0.7-0.5,1.5-0.5,2.4v5.8c0,0.8,0.2,1.6,0.5,2.2
				c0.3,0.6,0.8,1.1,1.5,1.5s1.3,0.5,2.2,0.5c0.8,0,1.5-0.2,2.1-0.5c0.6-0.4,1.1-0.9,1.4-1.6s0.5-1.5,0.5-2.5v-0.9h-4v-2.6H336.3z"
				/>
			<path class="st1" d="M346.1,267h2.3l7.2,19.6h-3l-5.4-15.8l-5.4,15.8h-3L346.1,267z M342.2,279.8h10.3v2.6h-10.3V279.8z"/>
			<path class="st1" d="M372.8,267h2.6v19.6h-2.7V272l0.1,0.9L368,284h-1.9l-4.8-10.8l0.1-1.1v14.7h-2.7V267h2.6l5.8,13L372.8,267z"
				/>
			<path class="st1" d="M380.3,267h2.8v19.6h-2.8V267z M381.6,267h11.3v2.6h-11.3V267z M381.6,275.6h9.8v2.6h-9.8V275.6z
				 M381.6,284.1h11.3v2.6h-11.3V284.1z"/>
			<path class="st1" d="M404.2,267h2.5l9.6,15.2l-0.3,0.4V267h2.7v19.6h-2.5l-9.6-15l0.3-0.4v15.3h-2.7V267z"/>
			<path class="st1" d="M426.3,286.7h-2.8V267h2.8V286.7z"/>
			<path class="st1" d="M444.6,276.1v3.4c0,1.5-0.3,2.7-0.9,3.9c-0.6,1.1-1.4,2-2.4,2.6s-2.2,0.9-3.6,0.9c-1.4,0-2.6-0.3-3.7-0.9
				c-1-0.6-1.9-1.4-2.4-2.4c-0.6-1-0.9-2.3-0.9-3.6v-5.8c0-1.5,0.3-2.7,0.9-3.8s1.4-2,2.4-2.6c1-0.6,2.2-0.9,3.6-0.9
				c1.1,0,2.2,0.2,3.1,0.7c0.9,0.5,1.7,1.2,2.4,2c0.6,0.9,1.1,1.9,1.3,3.1h-3c-0.2-0.7-0.4-1.2-0.8-1.7s-0.8-0.8-1.4-1.1
				c-0.5-0.2-1.1-0.4-1.6-0.4c-0.8,0-1.5,0.2-2.1,0.6s-1.1,0.9-1.4,1.6c-0.3,0.7-0.5,1.5-0.5,2.4v5.8c0,0.8,0.2,1.6,0.5,2.2
				c0.3,0.6,0.8,1.1,1.5,1.5s1.3,0.5,2.2,0.5c0.8,0,1.5-0.2,2.1-0.5c0.6-0.4,1.1-0.9,1.4-1.6s0.5-1.5,0.5-2.5v-0.9h-4v-2.6H444.6z"
				/>
			<path class="st1" d="M449.1,267h2.8v19.6h-2.8V267z M450.8,275.7h10.9v2.6h-10.9V275.7z M460.2,267h2.8v19.6h-2.8V267z"/>
			<path class="st1" d="M465.2,267H479v2.6h-13.9V267z M470.7,268.6h2.8v18h-2.8V268.6z"/>
		</g>
	</g>
</g>
<path class="st0" d="M683.5,673.5H90.8c-21.9,0-39.6-17.7-39.6-39.6V486.2c0-21.9,17.7-39.6,39.6-39.6h592.8
	c21.9,0,39.6,17.7,39.6,39.6v147.7C723.2,655.8,705.4,673.5,683.5,673.5z"/>
<path class="st1" d="M113.9,492.3c1.9,2,4.4,3.4,7.1,4.2c0.1,0.6,0.1,1.2,0.1,1.9c0,4-1.7,7.6-4.4,10.1c-1.2,1.1-3.2,0.3-3.2-1.4
	v-15.3C113.7,492,113.8,492.2,113.9,492.3z"/>
<path class="st1" d="M116,485.1l-4.7-4.7h3.6c0-0.7,0.1-1.3,0.2-2c0.4-2.1,1.4-4,2.8-5.5c2.1-2.2,5.1-3.6,8.5-3.4
	c5.6,0.3,10.1,4.8,10.4,10.4c0.2,3.4-1.3,6.5-3.6,8.6c-1.5,1.4-3.4,2.3-5.5,2.7c-0.6,0.1-1.2,0.1-1.8,0.1c-3,0-5.7-1.2-7.7-3.2
	l1.7-1.7c1.5,1.5,3.6,2.5,6,2.5c0.3,0,0.5,0,0.8,0c2.2-0.2,4.1-1.2,5.5-2.7c1.4-1.6,2.3-3.7,2.2-6c-0.2-4.4-3.7-8-8.1-8.1
	c-2.3-0.1-4.4,0.7-5.9,2.1c-1.5,1.4-2.6,3.3-2.8,5.4c0,0.3-0.1,0.6-0.1,0.9h3.6l-0.8,0.8l-4.1,4.1L116,485.1z"/>
<polygon class="st1" points="126.4,480.6 130,482.7 130.6,483.1 130.4,483.4 129.7,484.7 124.5,481.6 124.5,475.6 126.4,475.6 "/>
<path class="st1" d="M134.6,494.5c0.2,1.3,0.3,2.6,0.3,3.9c0,12.2-7.9,22.5-18.9,26.1c-1.2,0.4-2.5-0.5-2.5-1.8v-2.4
	c0-0.8,0.5-1.5,1.2-1.8c8.2-3,14-10.9,14-20.1c0-0.5,0-1-0.1-1.5C130.9,496.5,132.9,495.7,134.6,494.5z"/>
<path class="st1" d="M134.6,494.5c-1.8,1.1-3.7,2-5.9,2.4c0,0.5,0.1,1,0.1,1.5c0,9.2-5.9,17.1-14,20.1c-0.7,0.3-1.2,1-1.2,1.8v2.4
	c0,1.3,1.3,2.2,2.5,1.8c11-3.6,18.9-13.9,18.9-26.1C134.9,497.1,134.8,495.8,134.6,494.5z M127.5,491.1c2.1-0.3,4-1.3,5.5-2.7
	c-0.3-0.8-0.7-1.6-1-2.4c-1.4,1.5-3.3,2.5-5.5,2.7C126.9,489.6,127.2,490.3,127.5,491.1z M130.4,483.4c-0.1-0.2-0.3-0.4-0.4-0.7
	l-3.6-2.2v-2.1c-0.6-0.6-1.2-1.1-1.8-1.6v4.7l5.1,3L130.4,483.4z M120.1,481.2l0.8-0.8h-2C119.4,480.6,119.7,480.9,120.1,481.2z
	 M120.2,474c-0.8-0.4-1.5-0.8-2.3-1.1c-1.4,1.5-2.4,3.4-2.8,5.5c0.8,0.3,1.6,0.6,2.3,1C117.6,477.3,118.6,475.4,120.2,474z
	 M121,496.5c-2.7-0.8-5.2-2.3-7.1-4.2c-0.1-0.1-0.3-0.3-0.4-0.4v15.3c0,1.7,2,2.5,3.2,1.4c2.7-2.5,4.4-6.1,4.4-10.1
	C121.2,497.8,121.1,497.1,121,496.5z M104.2,477.2l-11.5,11.5c-0.4,0.4-0.8,0.6-1.3,0.6h-9.5c-1.1,0-1.9,0.9-1.9,1.9v14.5
	c0,1.1,0.9,1.9,1.9,1.9h9.5c0.5,0,1,0.2,1.3,0.6l11.5,11.5c1.2,1.2,3.2,0.3,3.2-1.3v-39.7C107.4,476.9,105.4,476,104.2,477.2z"/>
<polygon class="st1" points="126.4,480.6 130,482.7 130.6,483.1 130.4,483.4 129.7,484.7 124.5,481.6 124.5,475.6 126.4,475.6 "/>
<path class="st1" d="M133.1,488.5c-1.5,1.4-3.4,2.3-5.5,2.7c-0.6,0.1-1.2,0.1-1.8,0.1c-3,0-5.7-1.2-7.7-3.2l1.7-1.7
	c1.5,1.5,3.6,2.5,6,2.5c0.3,0,0.5,0,0.8,0c2.2-0.2,4.1-1.2,5.5-2.7c1.4-1.6,2.3-3.7,2.2-6c-0.2-4.4-3.7-8-8.1-8.1
	c-2.3-0.1-4.4,0.7-5.9,2.1c-1.5,1.4-2.6,3.3-2.8,5.4c0,0.3-0.1,0.6-0.1,0.9h3.6l-0.8,0.8l-4.1,4.1l-0.1-0.2l-4.7-4.7h3.6
	c0-0.7,0.1-1.3,0.2-2c0.4-2.1,1.4-4,2.8-5.5c2.1-2.2,5.1-3.6,8.5-3.4c5.6,0.3,10.1,4.8,10.4,10.4
	C136.8,483.3,135.4,486.4,133.1,488.5z"/>
<path class="st1" d="M113.5,491.9c0.1,0.1,0.3,0.3,0.4,0.4h-0.4V491.9z"/>
<polygon class="st1" points="126.4,480.6 130,482.7 130.6,483.1 130.4,483.4 129.7,484.7 124.5,481.6 124.5,475.6 126.4,475.6 "/>
<path class="st1" d="M133.1,488.5c-1.5,1.4-3.4,2.3-5.5,2.7c-0.6,0.1-1.2,0.1-1.8,0.1c-3,0-5.7-1.2-7.7-3.2l1.7-1.7
	c1.5,1.5,3.6,2.5,6,2.5c0.3,0,0.5,0,0.8,0c2.2-0.2,4.1-1.2,5.5-2.7c1.4-1.6,2.3-3.7,2.2-6c-0.2-4.4-3.7-8-8.1-8.1
	c-2.3-0.1-4.4,0.7-5.9,2.1c-1.5,1.4-2.6,3.3-2.8,5.4c0,0.3-0.1,0.6-0.1,0.9h3.6l-0.8,0.8l-4.1,4.1l-0.1-0.2l-4.7-4.7h3.6
	c0-0.7,0.1-1.3,0.2-2c0.4-2.1,1.4-4,2.8-5.5c2.1-2.2,5.1-3.6,8.5-3.4c5.6,0.3,10.1,4.8,10.4,10.4
	C136.8,483.3,135.4,486.4,133.1,488.5z"/>
<path class="st1" d="M130,482.7l-3.6-2.2v-5h-1.8v6l5.1,3l0.8-1.3l0.2-0.3L130,482.7z M136.6,479.9c-0.3-5.6-4.8-10.1-10.4-10.4
	c-3.3-0.2-6.4,1.2-8.5,3.4c-1.4,1.5-2.4,3.4-2.8,5.5c-0.1,0.6-0.2,1.3-0.2,2h-3.6l4.7,4.7l0.1,0.2l4.1-4.1l0.8-0.8h-3.6
	c0-0.3,0-0.6,0.1-0.9c0.2-2.1,1.3-4.1,2.8-5.4c1.6-1.4,3.7-2.2,5.9-2.1c4.4,0.2,8,3.7,8.1,8.1c0.1,2.3-0.8,4.5-2.2,6
	c-1.4,1.5-3.3,2.5-5.5,2.7c-0.3,0-0.5,0-0.8,0c-2.3,0-4.5-1-6-2.5l-1.7,1.7c2,2,4.7,3.2,7.7,3.2c0.6,0,1.2,0,1.8-0.1
	c2.1-0.3,4-1.3,5.5-2.7C135.4,486.4,136.8,483.3,136.6,479.9z M130,482.7c0.2,0.2,0.3,0.4,0.4,0.7l0.2-0.3L130,482.7z M126.4,475.6
	h-1.8v1.4c0.6,0.5,1.2,1,1.8,1.6V475.6z"/>
<g>
	<g>
		<g>
			<path class="st1" d="M161.5,483.2h20.8v3.9h-20.8V483.2z M169.9,485.6h4.1v27.1h-4.1V485.6z"/>
			<path class="st1" d="M189.9,511.6c-1.6-0.9-2.8-2.2-3.6-3.8c-0.9-1.6-1.3-3.5-1.3-5.7v-8.4c0-2.2,0.4-4.1,1.3-5.7
				c0.9-1.6,2.1-2.9,3.6-3.8c1.6-0.9,3.4-1.3,5.4-1.3s3.9,0.5,5.4,1.3c1.6,0.9,2.8,2.2,3.6,3.8c0.9,1.6,1.3,3.5,1.3,5.7v8.4
				c0,2.2-0.4,4.1-1.3,5.7c-0.9,1.6-2.1,2.9-3.6,3.8c-1.6,0.9-3.4,1.3-5.4,1.3S191.5,512.5,189.9,511.6z M198.6,508.1
				c0.9-0.5,1.6-1.3,2.2-2.3c0.5-1,0.8-2.2,0.8-3.5v-8.6c0-1.3-0.3-2.5-0.8-3.5c-0.5-1-1.2-1.8-2.2-2.3s-2-0.8-3.2-0.8
				s-2.3,0.3-3.2,0.8s-1.6,1.3-2.2,2.3c-0.5,1-0.8,2.2-0.8,3.5v8.6c0,1.3,0.3,2.5,0.8,3.5c0.5,1,1.2,1.8,2.2,2.3
				c0.9,0.5,2,0.8,3.2,0.8S197.7,508.6,198.6,508.1z"/>
			<path class="st1" d="M212.4,483.2h4.1v29.5h-4.1V483.2z M214.9,508.9h8c2.1,0,3.6-0.4,4.6-1.2c1-0.8,1.4-1.9,1.4-3.4v-0.1
				c0-1-0.2-1.9-0.5-2.6c-0.3-0.7-0.9-1.3-1.6-1.7c-0.7-0.4-1.7-0.6-2.9-0.6h-9v-3.7h9c1.5,0,2.7-0.4,3.5-1.1
				c0.8-0.7,1.2-1.8,1.2-3.2c0-1.5-0.4-2.6-1.3-3.3c-0.9-0.7-2.2-1.1-3.9-1.1h-8.4v-3.8h9.2c1.9,0,3.5,0.3,4.8,1s2.2,1.6,2.9,2.8
				s1,2.6,1,4.3c0,1-0.2,2-0.6,2.9c-0.4,0.9-1,1.6-1.8,2.3s-1.8,1.1-3,1.3c1.2,0.2,2.2,0.6,3.1,1.3c0.9,0.7,1.5,1.5,2,2.5
				s0.7,2.1,0.7,3.2v0.1c0,1.6-0.4,3-1.1,4.2c-0.7,1.2-1.7,2.2-3,2.8c-1.3,0.7-2.8,1-4.6,1h-9.5V508.9z"/>
			<path class="st1" d="M243.4,512.7h-4.1v-29.5h4.1V512.7z"/>
			<path class="st1" d="M275.1,500.1v3.9h-13.6v-3.9H275.1z"/>
			<path class="st1" d="M313.2,496.8v5.2c0,2.2-0.4,4.1-1.3,5.8c-0.9,1.7-2.1,3-3.6,3.9c-1.6,0.9-3.4,1.4-5.4,1.4
				c-2.1,0-3.9-0.4-5.5-1.3s-2.8-2.1-3.7-3.6c-0.9-1.6-1.3-3.4-1.3-5.5v-8.7c0-2.2,0.4-4.1,1.3-5.8s2.1-3,3.6-3.9
				c1.6-0.9,3.4-1.4,5.4-1.4c1.7,0,3.3,0.4,4.7,1.1s2.6,1.7,3.6,3.1c1,1.3,1.6,2.9,1.9,4.6h-4.5c-0.2-1-0.7-1.8-1.2-2.5
				c-0.6-0.7-1.3-1.3-2.1-1.6c-0.8-0.4-1.6-0.6-2.4-0.6c-1.2,0-2.3,0.3-3.2,0.9c-0.9,0.6-1.6,1.4-2.1,2.4c-0.5,1-0.8,2.3-0.8,3.7
				v8.7c0,1.3,0.3,2.4,0.8,3.3c0.5,1,1.2,1.7,2.2,2.2c0.9,0.5,2,0.8,3.3,0.8c1.2,0,2.3-0.3,3.2-0.8s1.6-1.3,2.1-2.4s0.8-2.3,0.8-3.7
				v-1.3h-6v-4H313.2z"/>
			<path class="st1" d="M327.9,483.2h3.5l10.9,29.5h-4.5l-8.2-23.8l-8.2,23.8H317L327.9,483.2z M322,502.3h15.5v3.9H322V502.3z"/>
			<path class="st1" d="M368,483.2h3.9v29.5h-4v-22.1l0.2,1.3l-7.3,16.7h-2.9l-7.3-16.3l0.2-1.7v22.1h-4v-29.5h3.9l8.7,19.5
				L368,483.2z"/>
			<path class="st1" d="M379.2,483.2h4.1v29.5h-4.1V483.2z M381.2,483.2h16.9v3.9h-16.9V483.2z M381.2,496.1h14.7v3.9h-14.7V496.1z
				 M381.2,508.7h16.9v3.9h-16.9V508.7z"/>
			<path class="st1" d="M415.2,483.2h3.8l14.4,22.8l-0.5,0.5v-23.3h4.1v29.5h-3.8l-14.4-22.5l0.5-0.5v23h-4.1V483.2z"/>
			<path class="st1" d="M448.4,512.7h-4.1v-29.5h4.1V512.7z"/>
			<path class="st1" d="M475.9,496.8v5.2c0,2.2-0.4,4.1-1.3,5.8c-0.9,1.7-2.1,3-3.6,3.9c-1.6,0.9-3.4,1.4-5.4,1.4
				c-2.1,0-3.9-0.4-5.5-1.3s-2.8-2.1-3.7-3.6c-0.9-1.6-1.3-3.4-1.3-5.5v-8.7c0-2.2,0.4-4.1,1.3-5.8s2.1-3,3.6-3.9
				c1.6-0.9,3.4-1.4,5.4-1.4c1.7,0,3.3,0.4,4.7,1.1s2.6,1.7,3.6,3.1c1,1.3,1.6,2.9,1.9,4.6h-4.5c-0.2-1-0.7-1.8-1.2-2.5
				c-0.6-0.7-1.3-1.3-2.1-1.6c-0.8-0.4-1.6-0.6-2.4-0.6c-1.2,0-2.3,0.3-3.2,0.9c-0.9,0.6-1.6,1.4-2.1,2.4c-0.5,1-0.8,2.3-0.8,3.7
				v8.7c0,1.3,0.3,2.4,0.8,3.3c0.5,1,1.2,1.7,2.2,2.2c0.9,0.5,2,0.8,3.3,0.8c1.2,0,2.3-0.3,3.2-0.8s1.6-1.3,2.1-2.4s0.8-2.3,0.8-3.7
				v-1.3h-6v-4H475.9z"/>
			<path class="st1" d="M482.6,483.2h4.1v29.5h-4.1V483.2z M485.2,496.2h16.4v3.9h-16.4V496.2z M499.4,483.2h4.1v29.5h-4.1V483.2z"
				/>
			<path class="st1" d="M506.7,483.2h20.8v3.9h-20.8V483.2z M515.1,485.6h4.1v27.1h-4.1V485.6z"/>
		</g>
	</g>
</g>
<g>
	<g>
		<g>
			<path class="st1" d="M261.5,581.2h20.8v3.9h-20.8V581.2z M269.8,583.6h4.1v27.1h-4.1V583.6z"/>
			<path class="st1" d="M289.9,609.6c-1.6-0.9-2.8-2.2-3.6-3.8c-0.9-1.6-1.3-3.5-1.3-5.7v-8.4c0-2.2,0.4-4.1,1.3-5.7
				c0.9-1.6,2.1-2.9,3.6-3.8c1.6-0.9,3.4-1.3,5.4-1.3s3.9,0.5,5.4,1.3c1.6,0.9,2.8,2.2,3.6,3.8c0.9,1.6,1.3,3.5,1.3,5.7v8.4
				c0,2.2-0.4,4.1-1.3,5.7c-0.9,1.6-2.1,2.9-3.6,3.8c-1.6,0.9-3.4,1.3-5.4,1.3S291.5,610.5,289.9,609.6z M298.5,606.1
				c0.9-0.5,1.6-1.3,2.2-2.3c0.5-1,0.8-2.2,0.8-3.5v-8.6c0-1.3-0.3-2.5-0.8-3.5c-0.5-1-1.2-1.8-2.2-2.3s-2-0.8-3.2-0.8
				s-2.3,0.3-3.2,0.8s-1.6,1.3-2.2,2.3c-0.5,1-0.8,2.2-0.8,3.5v8.6c0,1.3,0.3,2.5,0.8,3.5c0.5,1,1.2,1.8,2.2,2.3
				c0.9,0.5,2,0.8,3.2,0.8S297.6,606.6,298.5,606.1z"/>
			<path class="st1" d="M312.4,581.2h4.1v29.5h-4.1V581.2z M314.8,606.8h8c2.1,0,3.6-0.4,4.6-1.2c1-0.8,1.4-1.9,1.4-3.4v-0.1
				c0-1-0.2-1.9-0.5-2.6c-0.3-0.7-0.9-1.3-1.6-1.7c-0.7-0.4-1.7-0.6-2.9-0.6h-9v-3.7h9c1.5,0,2.7-0.4,3.5-1.1
				c0.8-0.7,1.2-1.8,1.2-3.2c0-1.5-0.4-2.6-1.3-3.3c-0.9-0.7-2.2-1.1-3.9-1.1h-8.4v-3.8h9.2c1.9,0,3.5,0.3,4.8,1s2.2,1.6,2.9,2.8
				s1,2.6,1,4.3c0,1-0.2,2-0.6,2.9c-0.4,0.9-1,1.6-1.8,2.3s-1.8,1.1-3,1.3c1.2,0.2,2.2,0.6,3.1,1.3c0.9,0.7,1.5,1.5,2,2.5
				s0.7,2.1,0.7,3.2v0.1c0,1.6-0.4,3-1.1,4.2c-0.7,1.2-1.7,2.2-3,2.8c-1.3,0.7-2.8,1-4.6,1h-9.5V606.8z"/>
			<path class="st1" d="M343.4,610.7h-4.1v-29.5h4.1V610.7z"/>
		</g>
	</g>
</g>
<circle class="st2" cx="202.7" cy="597.9" r="32.6"/>
<path class="st0" d="M683.5,1023.2H90.8c-21.9,0-39.6-17.7-39.6-39.6V731.4c0-21.9,17.7-39.6,39.6-39.6h592.8
	c21.9,0,39.6,17.7,39.6,39.6v252.2C723.2,1005.5,705.4,1023.2,683.5,1023.2z"/>
<path class="st1" d="M113.9,737.5c1.9,2,4.4,3.4,7.1,4.2c0.1,0.6,0.1,1.2,0.1,1.9c0,4-1.7,7.6-4.4,10.1c-1.2,1.1-3.2,0.3-3.2-1.4
	v-15.3C113.7,737.2,113.8,737.4,113.9,737.5z"/>
<path class="st1" d="M116,730.3l-4.7-4.7h3.6c0-0.7,0.1-1.3,0.2-2c0.4-2.1,1.4-4,2.8-5.5c2.1-2.2,5.1-3.6,8.5-3.4
	c5.6,0.3,10.1,4.8,10.4,10.4c0.2,3.4-1.3,6.5-3.6,8.6c-1.5,1.4-3.4,2.3-5.5,2.7c-0.6,0.1-1.2,0.1-1.8,0.1c-3,0-5.7-1.2-7.7-3.2
	l1.7-1.7c1.5,1.5,3.6,2.5,6,2.5c0.3,0,0.5,0,0.8,0c2.2-0.2,4.1-1.2,5.5-2.7c1.4-1.6,2.3-3.7,2.2-6c-0.2-4.4-3.7-8-8.1-8.1
	c-2.3-0.1-4.4,0.7-5.9,2.1c-1.5,1.4-2.6,3.3-2.8,5.4c0,0.3-0.1,0.6-0.1,0.9h3.6l-0.8,0.8l-4.1,4.1L116,730.3z"/>
<polygon class="st1" points="126.4,725.8 130,727.9 130.6,728.3 130.4,728.6 129.7,729.9 124.5,726.8 124.5,720.8 126.4,720.8 "/>
<path class="st1" d="M134.6,739.7c0.2,1.3,0.3,2.6,0.3,3.9c0,12.2-7.9,22.5-18.9,26.1c-1.2,0.4-2.5-0.5-2.5-1.8v-2.4
	c0-0.8,0.5-1.5,1.2-1.8c8.2-3,14-10.9,14-20.1c0-0.5,0-1-0.1-1.5C130.9,741.7,132.9,740.9,134.6,739.7z"/>
<path class="st1" d="M134.6,739.7c-1.8,1.1-3.7,2-5.9,2.4c0,0.5,0.1,1,0.1,1.5c0,9.2-5.9,17.1-14,20.1c-0.7,0.3-1.2,1-1.2,1.8v2.4
	c0,1.3,1.3,2.2,2.5,1.8c11-3.6,18.9-13.9,18.9-26.1C134.9,742.3,134.8,741,134.6,739.7z M127.5,736.3c2.1-0.3,4-1.3,5.5-2.7
	c-0.3-0.8-0.7-1.6-1-2.4c-1.4,1.5-3.3,2.5-5.5,2.7C126.9,734.8,127.2,735.6,127.5,736.3z M130.4,728.6c-0.1-0.2-0.3-0.4-0.4-0.7
	l-3.6-2.2v-2.1c-0.6-0.6-1.2-1.1-1.8-1.6v4.7l5.1,3L130.4,728.6z M120.1,726.4l0.8-0.8h-2C119.4,725.9,119.7,726.1,120.1,726.4z
	 M120.2,719.3c-0.8-0.4-1.5-0.8-2.3-1.1c-1.4,1.5-2.4,3.4-2.8,5.5c0.8,0.3,1.6,0.6,2.3,1C117.6,722.5,118.6,720.6,120.2,719.3z
	 M121,741.7c-2.7-0.8-5.2-2.3-7.1-4.2c-0.1-0.1-0.3-0.3-0.4-0.4v15.3c0,1.7,2,2.5,3.2,1.4c2.7-2.5,4.4-6.1,4.4-10.1
	C121.2,743,121.1,742.4,121,741.7z M104.2,722.4l-11.5,11.5c-0.4,0.4-0.8,0.6-1.3,0.6h-9.5c-1.1,0-1.9,0.9-1.9,1.9v14.5
	c0,1.1,0.9,1.9,1.9,1.9h9.5c0.5,0,1,0.2,1.3,0.6l11.5,11.5c1.2,1.2,3.2,0.3,3.2-1.3v-39.7C107.4,722.1,105.4,721.2,104.2,722.4z"/>
<polygon class="st1" points="126.4,725.8 130,727.9 130.6,728.3 130.4,728.6 129.7,729.9 124.5,726.8 124.5,720.8 126.4,720.8 "/>
<path class="st1" d="M133.1,733.7c-1.5,1.4-3.4,2.3-5.5,2.7c-0.6,0.1-1.2,0.1-1.8,0.1c-3,0-5.7-1.2-7.7-3.2l1.7-1.7
	c1.5,1.5,3.6,2.5,6,2.5c0.3,0,0.5,0,0.8,0c2.2-0.2,4.1-1.2,5.5-2.7c1.4-1.6,2.3-3.7,2.2-6c-0.2-4.4-3.7-8-8.1-8.1
	c-2.3-0.1-4.4,0.7-5.9,2.1c-1.5,1.4-2.6,3.3-2.8,5.4c0,0.3-0.1,0.6-0.1,0.9h3.6l-0.8,0.8l-4.1,4.1l-0.1-0.2l-4.7-4.7h3.6
	c0-0.7,0.1-1.3,0.2-2c0.4-2.1,1.4-4,2.8-5.5c2.1-2.2,5.1-3.6,8.5-3.4c5.6,0.3,10.1,4.8,10.4,10.4
	C136.8,728.5,135.4,731.6,133.1,733.7z"/>
<path class="st1" d="M113.5,737.1c0.1,0.1,0.3,0.3,0.4,0.4h-0.4V737.1z"/>
<polygon class="st1" points="126.4,725.8 130,727.9 130.6,728.3 130.4,728.6 129.7,729.9 124.5,726.8 124.5,720.8 126.4,720.8 "/>
<path class="st1" d="M133.1,733.7c-1.5,1.4-3.4,2.3-5.5,2.7c-0.6,0.1-1.2,0.1-1.8,0.1c-3,0-5.7-1.2-7.7-3.2l1.7-1.7
	c1.5,1.5,3.6,2.5,6,2.5c0.3,0,0.5,0,0.8,0c2.2-0.2,4.1-1.2,5.5-2.7c1.4-1.6,2.3-3.7,2.2-6c-0.2-4.4-3.7-8-8.1-8.1
	c-2.3-0.1-4.4,0.7-5.9,2.1c-1.5,1.4-2.6,3.3-2.8,5.4c0,0.3-0.1,0.6-0.1,0.9h3.6l-0.8,0.8l-4.1,4.1l-0.1-0.2l-4.7-4.7h3.6
	c0-0.7,0.1-1.3,0.2-2c0.4-2.1,1.4-4,2.8-5.5c2.1-2.2,5.1-3.6,8.5-3.4c5.6,0.3,10.1,4.8,10.4,10.4
	C136.8,728.5,135.4,731.6,133.1,733.7z"/>
<path class="st1" d="M130,727.9l-3.6-2.2v-5h-1.8v6l5.1,3l0.8-1.3l0.2-0.3L130,727.9z M136.6,725.1c-0.3-5.6-4.8-10.1-10.4-10.4
	c-3.3-0.2-6.4,1.2-8.5,3.4c-1.4,1.5-2.4,3.4-2.8,5.5c-0.1,0.6-0.2,1.3-0.2,2h-3.6l4.7,4.7l0.1,0.2l4.1-4.1l0.8-0.8h-3.6
	c0-0.3,0-0.6,0.1-0.9c0.2-2.1,1.3-4.1,2.8-5.4c1.6-1.4,3.7-2.2,5.9-2.1c4.4,0.2,8,3.7,8.1,8.1c0.1,2.3-0.8,4.5-2.2,6
	c-1.4,1.5-3.3,2.5-5.5,2.7c-0.3,0-0.5,0-0.8,0c-2.3,0-4.5-1-6-2.5l-1.7,1.7c2,2,4.7,3.2,7.7,3.2c0.6,0,1.2,0,1.8-0.1
	c2.1-0.3,4-1.3,5.5-2.7C135.4,731.6,136.8,728.5,136.6,725.1z M130,727.9c0.2,0.2,0.3,0.4,0.4,0.7l0.2-0.3L130,727.9z M126.4,720.8
	h-1.8v1.4c0.6,0.5,1.2,1,1.8,1.6V720.8z"/>
<g>
	<g>
		<g>
			<path class="st1" d="M161.5,728.4h20.8v3.9h-20.8V728.4z M169.9,730.8h4.1v27.1h-4.1V730.8z"/>
			<path class="st1" d="M189.8,757.9h-4.1v-29.5h4.1V757.9z"/>
			<path class="st1" d="M218.3,728.4h3.9v29.5h-4v-22.1l0.2,1.3l-7.3,16.7h-2.9l-7.3-16.3l0.2-1.7v22.1h-4v-29.5h3.9l8.7,19.5
				L218.3,728.4z"/>
			<path class="st1" d="M253.9,745.4v3.9h-13.6v-3.9H253.9z"/>
			<path class="st1" d="M291.9,742v5.2c0,2.2-0.4,4.1-1.3,5.8c-0.9,1.7-2.1,3-3.6,3.9c-1.6,0.9-3.4,1.4-5.4,1.4
				c-2.1,0-3.9-0.4-5.5-1.3s-2.8-2.1-3.7-3.6c-0.9-1.6-1.3-3.4-1.3-5.5v-8.7c0-2.2,0.4-4.1,1.3-5.8s2.1-3,3.6-3.9
				c1.6-0.9,3.4-1.4,5.4-1.4c1.7,0,3.3,0.4,4.7,1.1s2.6,1.7,3.6,3.1c1,1.3,1.6,2.9,1.9,4.6h-4.5c-0.2-1-0.7-1.8-1.2-2.5
				c-0.6-0.7-1.3-1.3-2.1-1.6c-0.8-0.4-1.6-0.6-2.4-0.6c-1.2,0-2.3,0.3-3.2,0.9c-0.9,0.6-1.6,1.4-2.1,2.4c-0.5,1-0.8,2.3-0.8,3.7
				v8.7c0,1.3,0.3,2.4,0.8,3.3c0.5,1,1.2,1.7,2.2,2.2c0.9,0.5,2,0.8,3.3,0.8c1.2,0,2.3-0.3,3.2-0.8s1.6-1.3,2.1-2.4s0.8-2.3,0.8-3.7
				V746h-6v-4H291.9z"/>
			<path class="st1" d="M306.6,728.4h3.5l10.9,29.5h-4.5l-8.2-23.8l-8.2,23.8h-4.5L306.6,728.4z M300.8,747.5h15.5v3.9h-15.5V747.5z
				"/>
			<path class="st1" d="M346.7,728.4h3.9v29.5h-4v-22.1l0.2,1.3l-7.3,16.7h-2.9l-7.3-16.3l0.2-1.7v22.1h-4v-29.5h3.9l8.7,19.5
				L346.7,728.4z"/>
			<path class="st1" d="M357.9,728.4h4.1v29.5h-4.1V728.4z M359.9,728.4h16.9v3.9h-16.9V728.4z M359.9,741.3h14.7v3.9h-14.7V741.3z
				 M359.9,754h16.9v3.9h-16.9V754z"/>
			<path class="st1" d="M393.9,728.4h3.8l14.4,22.8l-0.5,0.5v-23.3h4.1v29.5h-3.8l-14.4-22.5l0.5-0.5v23h-4.1V728.4z"/>
			<path class="st1" d="M427.1,757.9H423v-29.5h4.1V757.9z"/>
			<path class="st1" d="M454.6,742v5.2c0,2.2-0.4,4.1-1.3,5.8c-0.9,1.7-2.1,3-3.6,3.9c-1.6,0.9-3.4,1.4-5.4,1.4
				c-2.1,0-3.9-0.4-5.5-1.3s-2.8-2.1-3.7-3.6c-0.9-1.6-1.3-3.4-1.3-5.5v-8.7c0-2.2,0.4-4.1,1.3-5.8s2.1-3,3.6-3.9
				c1.6-0.9,3.4-1.4,5.4-1.4c1.7,0,3.3,0.4,4.7,1.1s2.6,1.7,3.6,3.1c1,1.3,1.6,2.9,1.9,4.6h-4.5c-0.2-1-0.7-1.8-1.2-2.5
				c-0.6-0.7-1.3-1.3-2.1-1.6c-0.8-0.4-1.6-0.6-2.4-0.6c-1.2,0-2.3,0.3-3.2,0.9c-0.9,0.6-1.6,1.4-2.1,2.4c-0.5,1-0.8,2.3-0.8,3.7
				v8.7c0,1.3,0.3,2.4,0.8,3.3c0.5,1,1.2,1.7,2.2,2.2c0.9,0.5,2,0.8,3.3,0.8c1.2,0,2.3-0.3,3.2-0.8s1.6-1.3,2.1-2.4s0.8-2.3,0.8-3.7
				V746h-6v-4H454.6z"/>
			<path class="st1" d="M461.3,728.4h4.1v29.5h-4.1V728.4z M463.9,741.4h16.4v3.9h-16.4V741.4z M478.1,728.4h4.1v29.5h-4.1V728.4z"
				/>
			<path class="st1" d="M485.5,728.4h20.8v3.9h-20.8V728.4z M493.8,730.8h4.1v27.1h-4.1V730.8z"/>
		</g>
	</g>
</g>
<g>
	<g>
		<g>
			<path class="st1" d="M261.5,826.4h20.8v3.9h-20.8V826.4z M269.8,828.8h4.1v27.1h-4.1V828.8z"/>
			<path class="st1" d="M289.7,855.9h-4.1v-29.5h4.1V855.9z"/>
			<path class="st1" d="M318.2,826.4h3.9v29.5h-4v-22.1l0.2,1.3l-7.3,16.7h-2.9l-7.3-16.3l0.2-1.7v22.1h-4v-29.5h3.9l8.7,19.5
				L318.2,826.4z"/>
		</g>
	</g>
</g>
<circle class="st3" cx="202.7" cy="843.1" r="32.6"/>
<g>
	<g>
		<g>
			<path class="st1" d="M265.7,955.4c-1.3-0.6-2.4-1.5-3.2-2.7l3.4-2.4c0.4,0.7,0.9,1.2,1.6,1.5c0.7,0.4,1.5,0.5,2.5,0.5
				c1.6,0,2.9-0.5,3.7-1.5c0.9-1,1.3-2.4,1.3-4.2v-20.1h4.1v20.1c0,2-0.4,3.8-1.1,5.2c-0.7,1.4-1.8,2.6-3.1,3.3s-3,1.1-5,1.1
				C268.5,956.3,267,956,265.7,955.4z"/>
			<path class="st1" d="M290.9,955.1c-1.5-0.9-2.7-2.1-3.5-3.8c-0.8-1.6-1.2-3.6-1.2-5.9v-18.8h4.1v19c0,2.2,0.5,3.8,1.6,5
				c1.1,1.2,2.6,1.8,4.6,1.8c2,0,3.5-0.6,4.6-1.8c1.1-1.2,1.6-2.8,1.6-5v-19h4.1v18.8c0,2.3-0.4,4.3-1.2,5.9c-0.8,1.6-2,2.9-3.6,3.8
				s-3.4,1.3-5.6,1.3C294.3,956.3,292.5,955.9,290.9,955.1z"/>
		</g>
	</g>
</g>
<circle class="st4" cx="202.7" cy="943.3" r="32.6"/>
<path class="st1" d="M1066,690.6L1066,690.6c0.5,0.5,0.5,1.4,0,1.9l-9.4,9.4c-0.5,0.5-1.4,0.5-1.9,0l0,0c-0.5-0.5-0.5-1.4,0-1.9
	l9.4-9.4C1064.6,690,1065.5,690,1066,690.6z"/>
<path class="st1" d="M1045.2,690.6L1045.2,690.6c0.5-0.5,1.4-0.5,1.9,0l9.4,9.4c0.5,0.5,0.5,1.4,0,1.9l0,0c-0.5,0.5-1.4,0.5-1.9,0
	l-9.4-9.4C1044.6,692,1044.6,691.1,1045.2,690.6z"/>
<g>
	<g>
		<g>
			<path class="st1" d="M1081.8,686.4h13.9v2.6h-13.9V686.4z M1087.4,688.1h2.8v18h-2.8V688.1z"/>
			<path class="st1" d="M1100.6,706.1h-2.8v-19.6h2.8V706.1z"/>
			<path class="st1" d="M1119.6,686.4h2.6v19.6h-2.7v-14.7l0.1,0.9l-4.8,11.1h-1.9l-4.8-10.8l0.1-1.1v14.7h-2.7v-19.6h2.6l5.8,13
				L1119.6,686.4z"/>
		</g>
	</g>
</g>
<path class="st0" d="M1425.7,435H800c-12.8,0-23.2-10.4-23.2-23.2v0c0-12.8,10.4-23.2,23.2-23.2h625.7c12.8,0,23.2,10.4,23.2,23.2v0
	C1448.8,424.6,1438.5,435,1425.7,435z"/>
<path class="st0" d="M1409.2,558.7H816.5c-21.9,0-39.6-17.7-39.6-39.6v-21.7c0-21.9,17.7-39.6,39.6-39.6h592.8
	c21.9,0,39.6,17.7,39.6,39.6v21.7C1448.8,541,1431.1,558.7,1409.2,558.7z"/>
<path class="st1" d="M839.2,503.1c0.1,0.1,0.3,0.3,0.4,0.4h-0.4V503.1z"/>
<g>
	<g>
		<g>
			<path class="st1" d="M895.5,522.9c-1.5-0.9-2.8-2.2-3.6-3.9c-0.9-1.7-1.3-3.6-1.3-5.8v-8.1c0-2.2,0.4-4.1,1.3-5.8s2.1-3,3.6-3.9
				c1.5-0.9,3.3-1.4,5.4-1.4c1.7,0,3.2,0.4,4.7,1.1s2.6,1.7,3.6,3.1c1,1.3,1.6,2.9,1.9,4.6h-4.2c-0.3-0.9-0.7-1.7-1.3-2.5
				s-1.3-1.3-2.1-1.7c-0.8-0.4-1.7-0.6-2.5-0.6c-1.2,0-2.3,0.3-3.2,0.9c-0.9,0.6-1.6,1.4-2.1,2.4c-0.5,1-0.8,2.3-0.8,3.7v8.1
				c0,1.4,0.3,2.6,0.8,3.7c0.5,1.1,1.2,1.9,2.1,2.4c0.9,0.6,2,0.9,3.2,0.9c0.9,0,1.7-0.2,2.5-0.5c0.8-0.4,1.5-0.9,2.1-1.6
				c0.6-0.7,1-1.6,1.3-2.6h4.2c-0.3,1.7-1,3.3-1.9,4.6c-1,1.3-2.2,2.4-3.6,3.1c-1.4,0.7-3,1.1-4.6,1.1
				C898.9,524.2,897.1,523.8,895.5,522.9z"/>
			<path class="st1" d="M917,494.4h4.1v29.5H917V494.4z M918.8,507.5h10.1c0.8,0,1.5-0.2,2.1-0.6c0.6-0.4,1.1-0.9,1.4-1.6
				c0.3-0.7,0.5-1.5,0.5-2.4s-0.2-1.7-0.5-2.4c-0.3-0.7-0.8-1.2-1.4-1.6c-0.6-0.4-1.3-0.6-2.1-0.6h-10.1v-3.9h9.9
				c1.7,0,3.2,0.4,4.5,1.1c1.3,0.7,2.3,1.7,3,3c0.7,1.3,1.1,2.8,1.1,4.5s-0.4,3.2-1.1,4.5c-0.7,1.3-1.7,2.3-3,3
				c-1.3,0.7-2.8,1.1-4.5,1.1h-9.9V507.5z M926.8,510.5l4.1-0.9l7.6,14.3h-4.9L926.8,510.5z"/>
			<path class="st1" d="M944.1,494.4h4.1v29.5h-4.1V494.4z M946.1,494.4H963v3.9h-16.9V494.4z M946.1,507.3h14.7v3.9h-14.7V507.3z
				 M946.1,520H963v3.9h-16.9V520z"/>
			<path class="st1" d="M977,494.4h3.5l10.9,29.5h-4.5l-8.2-23.8l-8.2,23.8h-4.5L977,494.4z M971.1,513.5h15.5v3.9h-15.5V513.5z"/>
			<path class="st1" d="M991.8,494.4h20.8v3.9h-20.8V494.4z M1000.1,496.8h4.1v27.1h-4.1V496.8z"/>
			<path class="st1" d="M1015.9,494.4h4.1v29.5h-4.1V494.4z M1017.9,494.4h16.9v3.9h-16.9V494.4z M1017.9,507.3h14.7v3.9h-14.7
				V507.3z M1017.9,520h16.9v3.9h-16.9V520z"/>
			<path class="st1" d="M1056.1,522.9c-1.5-0.9-2.8-2.2-3.6-3.9c-0.9-1.7-1.3-3.6-1.3-5.8v-8.1c0-2.2,0.4-4.1,1.3-5.8s2.1-3,3.6-3.9
				c1.5-0.9,3.3-1.4,5.4-1.4c1.7,0,3.2,0.4,4.7,1.1s2.6,1.7,3.6,3.1c1,1.3,1.6,2.9,1.9,4.6h-4.2c-0.3-0.9-0.7-1.7-1.3-2.5
				s-1.3-1.3-2.1-1.7c-0.8-0.4-1.7-0.6-2.5-0.6c-1.2,0-2.3,0.3-3.2,0.9c-0.9,0.6-1.6,1.4-2.1,2.4c-0.5,1-0.8,2.3-0.8,3.7v8.1
				c0,1.4,0.3,2.6,0.8,3.7c0.5,1.1,1.2,1.9,2.1,2.4c0.9,0.6,2,0.9,3.2,0.9c0.9,0,1.7-0.2,2.5-0.5c0.8-0.4,1.5-0.9,2.1-1.6
				c0.6-0.7,1-1.6,1.3-2.6h4.2c-0.3,1.7-1,3.3-1.9,4.6c-1,1.3-2.2,2.4-3.6,3.1c-1.4,0.7-3,1.1-4.6,1.1
				C1059.5,524.2,1057.7,523.8,1056.1,522.9z"/>
			<path class="st1" d="M1077.6,494.4h4.1v29.5h-4.1V494.4z M1080.2,507.4h16.4v3.9h-16.4V507.4z M1094.3,494.4h4.1v29.5h-4.1V494.4
				z"/>
			<path class="st1" d="M1113.8,494.4h3.5l10.9,29.5h-4.5l-8.2-23.8l-8.2,23.8h-4.5L1113.8,494.4z M1108,513.5h15.5v3.9H1108V513.5z
				"/>
			<path class="st1" d="M1132.7,494.4h3.8l14.4,22.8l-0.5,0.5v-23.3h4.1v29.5h-3.8l-14.4-22.5l0.5-0.5v23h-4.1V494.4z"/>
			<path class="st1" d="M1161.8,494.4h3.8l14.4,22.8l-0.5,0.5v-23.3h4.1v29.5h-3.8l-14.4-22.5l0.5-0.5v23h-4.1V494.4z"/>
			<path class="st1" d="M1190.9,494.4h4.1v29.5h-4.1V494.4z M1192.9,494.4h16.9v3.9h-16.9V494.4z M1192.9,507.3h14.7v3.9h-14.7
				V507.3z M1192.9,520h16.9v3.9h-16.9V520z"/>
			<path class="st1" d="M1215.8,494.4h4.1v29.5h-4.1V494.4z M1217.8,520h16.9v3.9h-16.9V520z"/>
		</g>
	</g>
</g>
<path class="st1" d="M836.9,535.8L836.9,535.8c-2.7,0-4.8-2.2-4.8-4.8v-46.5c0-2.7,2.2-4.8,4.8-4.8l0,0c2.7,0,4.8,2.2,4.8,4.8v46.5
	C841.7,533.6,839.6,535.8,836.9,535.8z"/>
<path class="st1" d="M865,507.7L865,507.7c0,2.7-2.2,4.8-4.8,4.8h-46.5c-2.7,0-4.8-2.2-4.8-4.8l0,0c0-2.7,2.2-4.8,4.8-4.8h46.5
	C862.8,502.9,865,505,865,507.7z"/>
<path class="st1" d="M816,406.2L816,406.2c0.5,0.5,0.5,1.4,0,1.9l-9.4,9.4c-0.5,0.5-1.4,0.5-1.9,0l0,0c-0.5-0.5-0.5-1.4,0-1.9
	l9.4-9.4C814.6,405.6,815.5,405.6,816,406.2z"/>
<path class="st1" d="M795.1,406.2L795.1,406.2c0.5-0.5,1.4-0.5,1.9,0l9.4,9.4c0.5,0.5,0.5,1.4,0,1.9l0,0c-0.5,0.5-1.4,0.5-1.9,0
	l-9.4-9.4C794.6,407.6,794.6,406.7,795.1,406.2z"/>
<g>
	<g>
		<g>
			<path class="st1" d="M834.5,402h2.8v19.6h-2.8V402z M835.9,402h11v2.6h-11V402z M835.9,410.8h9.5v2.6h-9.5V410.8z"/>
			<path class="st1" d="M852.9,421c-1-0.6-1.9-1.4-2.4-2.5c-0.6-1.1-0.9-2.4-0.9-3.8v-5.6c0-1.4,0.3-2.7,0.9-3.8
				c0.6-1.1,1.4-1.9,2.4-2.5s2.3-0.9,3.6-0.9c1.4,0,2.6,0.3,3.6,0.9c1,0.6,1.9,1.4,2.4,2.5c0.6,1.1,0.9,2.4,0.9,3.8v5.6
				c0,1.4-0.3,2.7-0.9,3.8c-0.6,1.1-1.4,1.9-2.4,2.5c-1,0.6-2.3,0.9-3.6,0.9C855.1,421.9,853.9,421.6,852.9,421z M858.6,418.6
				c0.6-0.4,1.1-0.9,1.4-1.6c0.3-0.7,0.5-1.4,0.5-2.3V409c0-0.9-0.2-1.7-0.5-2.3c-0.3-0.7-0.8-1.2-1.4-1.6c-0.6-0.4-1.3-0.5-2.1-0.5
				c-0.8,0-1.5,0.2-2.1,0.5c-0.6,0.4-1.1,0.9-1.4,1.6c-0.3,0.7-0.5,1.4-0.5,2.3v5.8c0,0.9,0.2,1.7,0.5,2.3c0.3,0.7,0.8,1.2,1.4,1.6
				c0.6,0.4,1.3,0.5,2.1,0.5C857.3,419.2,858,419,858.6,418.6z"/>
			<path class="st1" d="M867.9,402h2.8v19.7h-2.8V402z M869.1,410.8h6.7c0.5,0,1-0.1,1.4-0.4c0.4-0.3,0.7-0.6,0.9-1.1s0.3-1,0.3-1.6
				c0-0.6-0.1-1.1-0.3-1.6c-0.2-0.5-0.5-0.8-0.9-1.1s-0.9-0.4-1.4-0.4h-6.7V402h6.6c1.1,0,2.1,0.2,3,0.7c0.9,0.5,1.5,1.1,2,2
				c0.5,0.9,0.7,1.9,0.7,3c0,1.1-0.2,2.1-0.7,3c-0.5,0.9-1.1,1.5-2,2c-0.9,0.5-1.9,0.7-3,0.7h-6.6V410.8z M874.4,412.8l2.7-0.6
				l5,9.5h-3.3L874.4,412.8z"/>
			<path class="st1" d="M888.7,421c-1-0.6-1.8-1.5-2.4-2.6s-0.9-2.4-0.9-3.8v-5.4c0-1.5,0.3-2.7,0.9-3.8s1.4-2,2.4-2.6
				c1-0.6,2.2-0.9,3.6-0.9c1.1,0,2.2,0.2,3.1,0.7s1.7,1.2,2.4,2c0.6,0.9,1.1,1.9,1.3,3.1h-2.8c-0.2-0.6-0.5-1.2-0.9-1.6
				c-0.4-0.5-0.9-0.9-1.4-1.1c-0.5-0.3-1.1-0.4-1.7-0.4c-0.8,0-1.5,0.2-2.1,0.6c-0.6,0.4-1.1,0.9-1.4,1.6c-0.3,0.7-0.5,1.5-0.5,2.4
				v5.4c0,0.9,0.2,1.7,0.5,2.4c0.3,0.7,0.8,1.2,1.4,1.6c0.6,0.4,1.3,0.6,2.1,0.6c0.6,0,1.1-0.1,1.7-0.4s1-0.6,1.4-1.1
				c0.4-0.5,0.7-1,0.9-1.7h2.8c-0.2,1.2-0.7,2.2-1.3,3.1c-0.6,0.9-1.4,1.6-2.4,2c-0.9,0.5-2,0.7-3.1,0.7
				C891,421.9,889.8,421.6,888.7,421z"/>
			<path class="st1" d="M903,402h2.8v19.6H903V402z M904.3,402h11.3v2.6h-11.3V402z M904.3,410.6h9.8v2.6h-9.8V410.6z M904.3,419.1
				h11.3v2.6h-11.3V419.1z"/>
			<path class="st1" d="M919.5,402h2.8v19.6h-2.8V402z M921.4,419.1h4.4c1.4,0,2.6-0.4,3.4-1.1c0.8-0.8,1.2-1.8,1.2-3.2V409
				c0-1.4-0.4-2.4-1.2-3.2c-0.8-0.8-1.9-1.1-3.4-1.1h-4.4V402h4.4c1.6,0,2.9,0.3,4,0.8c1.1,0.5,2,1.4,2.6,2.4
				c0.6,1.1,0.9,2.3,0.9,3.8v5.6c0,1.5-0.3,2.8-0.9,3.8c-0.6,1.1-1.4,1.9-2.6,2.4c-1.1,0.5-2.5,0.8-4,0.8h-4.3V419.1z"/>
			<path class="st1" d="M945.1,402h2.8v19.6h-2.8V402z M946.5,419.1h11.2v2.6h-11.2V419.1z"/>
			<path class="st1" d="M963.7,421.7H961V402h2.8V421.7z"/>
			<path class="st1" d="M982.7,402h2.6v19.6h-2.7V407l0.1,0.9l-4.8,11.1H976l-4.8-10.8l0.1-1.1v14.7h-2.7V402h2.6l5.8,13L982.7,402z
				"/>
			<path class="st1" d="M992.9,421.7h-2.8V402h2.8V421.7z"/>
			<path class="st1" d="M995.1,402h13.9v2.6h-13.9V402z M1000.6,403.6h2.8v18h-2.8V403.6z"/>
			<path class="st1" d="M1027.3,413.3v2.6h-9.1v-2.6H1027.3z"/>
			<path class="st1" d="M1038.5,419.3l6.8-9.1c0.4-0.5,0.7-1.1,0.9-1.6s0.3-1.1,0.3-1.6v0c0-0.8-0.2-1.4-0.7-1.8
				c-0.5-0.4-1.1-0.6-2-0.6c-0.8,0-1.4,0.2-1.9,0.7s-0.8,1.1-0.9,2v0h-2.8v0c0.2-1.1,0.5-2.1,1-2.9c0.5-0.8,1.1-1.4,1.9-1.8
				c0.8-0.4,1.7-0.6,2.7-0.6c1.2,0,2.2,0.2,3,0.6c0.8,0.4,1.5,1,1.9,1.7c0.4,0.8,0.6,1.7,0.6,2.8v0c0,0.7-0.1,1.4-0.4,2.2
				s-0.7,1.5-1.2,2.2l-5.7,7.7h7.4v2.6h-11.1V419.3z"/>
		</g>
	</g>
</g>
<path class="st0" d="M1409.2,902.5H816.5c-21.9,0-39.6-17.7-39.6-39.6v-248c0-21.9,17.7-39.6,39.6-39.6h592.8
	c21.9,0,39.6,17.7,39.6,39.6v248C1448.8,884.8,1431.1,902.5,1409.2,902.5z"/>
<path class="st1" d="M839.6,624c1.9,2,4.4,3.4,7.1,4.2c0.1,0.6,0.1,1.2,0.1,1.9c0,4-1.7,7.6-4.4,10.1c-1.2,1.1-3.2,0.3-3.2-1.4
	v-15.3C839.3,623.7,839.5,623.9,839.6,624z"/>
<path class="st1" d="M841.6,616.8l-4.7-4.7h3.6c0-0.7,0.1-1.3,0.2-2c0.4-2.1,1.4-4,2.8-5.5c2.1-2.2,5.1-3.6,8.5-3.4
	c5.6,0.3,10.1,4.8,10.4,10.4c0.2,3.4-1.3,6.5-3.6,8.6c-1.5,1.4-3.4,2.3-5.5,2.7c-0.6,0.1-1.2,0.1-1.8,0.1c-3,0-5.7-1.2-7.7-3.2
	l1.7-1.7c1.5,1.5,3.6,2.5,6,2.5c0.3,0,0.5,0,0.8,0c2.2-0.2,4.1-1.2,5.5-2.7c1.4-1.6,2.3-3.7,2.2-6c-0.2-4.4-3.7-8-8.1-8.1
	c-2.3-0.1-4.4,0.7-5.9,2.1c-1.5,1.4-2.6,3.3-2.8,5.4c0,0.3-0.1,0.6-0.1,0.9h3.6l-0.8,0.8l-4.1,4.1L841.6,616.8z"/>
<polygon class="st1" points="852,612.3 855.7,614.4 856.3,614.8 856.1,615.1 855.4,616.4 850.2,613.3 850.2,607.3 852,607.3 "/>
<path class="st1" d="M860.3,626.2c0.2,1.3,0.3,2.6,0.3,3.9c0,12.2-7.9,22.5-18.9,26.1c-1.2,0.4-2.5-0.5-2.5-1.8V652
	c0-0.8,0.5-1.5,1.2-1.8c8.2-3,14-10.9,14-20.1c0-0.5,0-1-0.1-1.5C856.6,628.2,858.6,627.4,860.3,626.2z"/>
<path class="st1" d="M860.3,626.2c-1.8,1.1-3.7,2-5.9,2.4c0,0.5,0.1,1,0.1,1.5c0,9.2-5.9,17.1-14,20.1c-0.7,0.3-1.2,1-1.2,1.8v2.4
	c0,1.3,1.3,2.2,2.5,1.8c11-3.6,18.9-13.9,18.9-26.1C860.6,628.8,860.5,627.5,860.3,626.2z M853.2,622.8c2.1-0.3,4-1.3,5.5-2.7
	c-0.3-0.8-0.7-1.6-1-2.4c-1.4,1.5-3.3,2.5-5.5,2.7C852.6,621.3,852.9,622.1,853.2,622.8z M856.1,615.1c-0.1-0.2-0.3-0.4-0.4-0.7
	l-3.6-2.2v-2.1c-0.6-0.6-1.2-1.1-1.8-1.6v4.7l5.1,3L856.1,615.1z M845.8,612.9l0.8-0.8h-2C845,612.4,845.4,612.6,845.8,612.9z
	 M845.8,605.8c-0.8-0.4-1.5-0.8-2.3-1.1c-1.4,1.5-2.4,3.4-2.8,5.5c0.8,0.3,1.6,0.6,2.3,1C843.3,609,844.3,607.1,845.8,605.8z
	 M846.7,628.2c-2.7-0.8-5.2-2.3-7.1-4.2c-0.1-0.1-0.3-0.3-0.4-0.4v15.3c0,1.7,2,2.5,3.2,1.4c2.7-2.5,4.4-6.1,4.4-10.1
	C846.8,629.5,846.8,628.9,846.7,628.2z M829.8,608.9l-11.5,11.5c-0.4,0.4-0.8,0.6-1.3,0.6h-9.5c-1.1,0-1.9,0.9-1.9,1.9v14.5
	c0,1.1,0.9,1.9,1.9,1.9h9.5c0.5,0,1,0.2,1.3,0.6l11.5,11.5c1.2,1.2,3.2,0.3,3.2-1.3v-39.7C833.1,608.6,831,607.7,829.8,608.9z"/>
<polygon class="st1" points="852,612.3 855.7,614.4 856.3,614.8 856.1,615.1 855.4,616.4 850.2,613.3 850.2,607.3 852,607.3 "/>
<path class="st1" d="M858.7,620.2c-1.5,1.4-3.4,2.3-5.5,2.7c-0.6,0.1-1.2,0.1-1.8,0.1c-3,0-5.7-1.2-7.7-3.2l1.7-1.7
	c1.5,1.5,3.6,2.5,6,2.5c0.3,0,0.5,0,0.8,0c2.2-0.2,4.1-1.2,5.5-2.7c1.4-1.6,2.3-3.7,2.2-6c-0.2-4.4-3.7-8-8.1-8.1
	c-2.3-0.1-4.4,0.7-5.9,2.1c-1.5,1.4-2.6,3.3-2.8,5.4c0,0.3-0.1,0.6-0.1,0.9h3.6l-0.8,0.8l-4.1,4.1l-0.1-0.2l-4.7-4.7h3.6
	c0-0.7,0.1-1.3,0.2-2c0.4-2.1,1.4-4,2.8-5.5c2.1-2.2,5.1-3.6,8.5-3.4c5.6,0.3,10.1,4.8,10.4,10.4C862.5,615,861.1,618.1,858.7,620.2
	z"/>
<path class="st1" d="M839.2,623.6c0.1,0.1,0.3,0.3,0.4,0.4h-0.4V623.6z"/>
<polygon class="st1" points="852,612.3 855.7,614.4 856.3,614.8 856.1,615.1 855.4,616.4 850.2,613.3 850.2,607.3 852,607.3 "/>
<path class="st1" d="M858.7,620.2c-1.5,1.4-3.4,2.3-5.5,2.7c-0.6,0.1-1.2,0.1-1.8,0.1c-3,0-5.7-1.2-7.7-3.2l1.7-1.7
	c1.5,1.5,3.6,2.5,6,2.5c0.3,0,0.5,0,0.8,0c2.2-0.2,4.1-1.2,5.5-2.7c1.4-1.6,2.3-3.7,2.2-6c-0.2-4.4-3.7-8-8.1-8.1
	c-2.3-0.1-4.4,0.7-5.9,2.1c-1.5,1.4-2.6,3.3-2.8,5.4c0,0.3-0.1,0.6-0.1,0.9h3.6l-0.8,0.8l-4.1,4.1l-0.1-0.2l-4.7-4.7h3.6
	c0-0.7,0.1-1.3,0.2-2c0.4-2.1,1.4-4,2.8-5.5c2.1-2.2,5.1-3.6,8.5-3.4c5.6,0.3,10.1,4.8,10.4,10.4C862.5,615,861.1,618.1,858.7,620.2
	z"/>
<path class="st1" d="M855.7,614.4l-3.6-2.2v-5h-1.8v6l5.1,3l0.8-1.3l0.2-0.3L855.7,614.4z M862.3,611.6c-0.3-5.6-4.8-10.1-10.4-10.4
	c-3.3-0.2-6.4,1.2-8.5,3.4c-1.4,1.5-2.4,3.4-2.8,5.5c-0.1,0.6-0.2,1.3-0.2,2h-3.6l4.7,4.7l0.1,0.2l4.1-4.1l0.8-0.8H843
	c0-0.3,0-0.6,0.1-0.9c0.2-2.1,1.3-4.1,2.8-5.4c1.6-1.4,3.7-2.2,5.9-2.1c4.4,0.2,8,3.7,8.1,8.1c0.1,2.3-0.8,4.5-2.2,6
	c-1.4,1.5-3.3,2.5-5.5,2.7c-0.3,0-0.5,0-0.8,0c-2.3,0-4.5-1-6-2.5l-1.7,1.7c2,2,4.7,3.2,7.7,3.2c0.6,0,1.2,0,1.8-0.1
	c2.1-0.3,4-1.3,5.5-2.7C861.1,618.1,862.5,615,862.3,611.6z M855.7,614.4c0.2,0.2,0.3,0.4,0.4,0.7l0.2-0.3L855.7,614.4z M852,607.3
	h-1.8v1.4c0.6,0.5,1.2,1,1.8,1.6V607.3z"/>
<g>
	<g>
		<g>
			<path class="st1" d="M889.2,614.9h4.5l7.1,23.1l7.1-23.1h4.5l-9.6,29.5h-3.9L889.2,614.9z"/>
			<path class="st1" d="M921,643.4c-1.6-0.9-2.8-2.2-3.6-3.8c-0.9-1.6-1.3-3.5-1.3-5.7v-8.4c0-2.2,0.4-4.1,1.3-5.7
				c0.9-1.6,2.1-2.9,3.6-3.8c1.6-0.9,3.4-1.3,5.4-1.3s3.9,0.5,5.4,1.3c1.6,0.9,2.8,2.2,3.6,3.8c0.9,1.6,1.3,3.5,1.3,5.7v8.4
				c0,2.2-0.4,4.1-1.3,5.7c-0.9,1.6-2.1,2.9-3.6,3.8c-1.6,0.9-3.4,1.3-5.4,1.3S922.6,644.3,921,643.4z M929.7,639.8
				c0.9-0.5,1.6-1.3,2.2-2.3c0.5-1,0.8-2.2,0.8-3.5v-8.6c0-1.3-0.3-2.5-0.8-3.5c-0.5-1-1.2-1.8-2.2-2.3s-2-0.8-3.2-0.8
				s-2.3,0.3-3.2,0.8s-1.6,1.3-2.2,2.3c-0.5,1-0.8,2.2-0.8,3.5v8.6c0,1.3,0.3,2.5,0.8,3.5c0.5,1,1.2,1.8,2.2,2.3
				c0.9,0.5,2,0.8,3.2,0.8S928.7,640.4,929.7,639.8z"/>
			<path class="st1" d="M947.6,644.4h-4.1v-29.5h4.1V644.4z"/>
			<path class="st1" d="M959.2,643.3c-1.5-0.9-2.8-2.2-3.6-3.9c-0.9-1.7-1.3-3.6-1.3-5.8v-8.1c0-2.2,0.4-4.1,1.3-5.8s2.1-3,3.6-3.9
				c1.5-0.9,3.3-1.4,5.4-1.4c1.7,0,3.2,0.4,4.7,1.1s2.6,1.7,3.6,3.1c1,1.3,1.6,2.9,1.9,4.6h-4.2c-0.3-0.9-0.7-1.7-1.3-2.5
				s-1.3-1.3-2.1-1.7c-0.8-0.4-1.7-0.6-2.5-0.6c-1.2,0-2.3,0.3-3.2,0.9c-0.9,0.6-1.6,1.4-2.1,2.4c-0.5,1-0.8,2.3-0.8,3.7v8.1
				c0,1.4,0.3,2.6,0.8,3.7c0.5,1.1,1.2,1.9,2.1,2.4c0.9,0.6,2,0.9,3.2,0.9c0.9,0,1.7-0.2,2.5-0.5c0.8-0.4,1.5-0.9,2.1-1.6
				c0.6-0.7,1-1.6,1.3-2.6h4.2c-0.3,1.7-1,3.3-1.9,4.6c-1,1.3-2.2,2.4-3.6,3.1c-1.4,0.7-3,1.1-4.6,1.1
				C962.6,644.7,960.8,644.3,959.2,643.3z"/>
			<path class="st1" d="M980.7,614.9h4.1v29.5h-4.1V614.9z M982.7,614.9h16.9v3.9h-16.9V614.9z M982.7,627.8h14.7v3.9h-14.7V627.8z
				 M982.7,640.5h16.9v3.9h-16.9V640.5z"/>
			<path class="st1" d="M1020.9,643.3c-1.5-0.9-2.8-2.2-3.6-3.9c-0.9-1.7-1.3-3.6-1.3-5.8v-8.1c0-2.2,0.4-4.1,1.3-5.8s2.1-3,3.6-3.9
				c1.5-0.9,3.3-1.4,5.4-1.4c1.7,0,3.2,0.4,4.7,1.1s2.6,1.7,3.6,3.1c1,1.3,1.6,2.9,1.9,4.6h-4.2c-0.3-0.9-0.7-1.7-1.3-2.5
				s-1.3-1.3-2.1-1.7c-0.8-0.4-1.7-0.6-2.5-0.6c-1.2,0-2.3,0.3-3.2,0.9c-0.9,0.6-1.6,1.4-2.1,2.4c-0.5,1-0.8,2.3-0.8,3.7v8.1
				c0,1.4,0.3,2.6,0.8,3.7c0.5,1.1,1.2,1.9,2.1,2.4c0.9,0.6,2,0.9,3.2,0.9c0.9,0,1.7-0.2,2.5-0.5c0.8-0.4,1.5-0.9,2.1-1.6
				c0.6-0.7,1-1.6,1.3-2.6h4.2c-0.3,1.7-1,3.3-1.9,4.6c-1,1.3-2.2,2.4-3.6,3.1c-1.4,0.7-3,1.1-4.6,1.1
				C1024.3,644.7,1022.5,644.3,1020.9,643.3z"/>
			<path class="st1" d="M1042.4,614.9h4.1v29.5h-4.1V614.9z M1045,627.9h16.4v3.9H1045V627.9z M1059.2,614.9h4.1v29.5h-4.1V614.9z"
				/>
			<path class="st1" d="M1078.6,614.9h3.5l10.9,29.5h-4.5l-8.2-23.8l-8.2,23.8h-4.5L1078.6,614.9z M1072.8,634h15.5v3.9h-15.5V634z"
				/>
			<path class="st1" d="M1097.5,614.9h3.8l14.4,22.8l-0.5,0.5v-23.3h4.1v29.5h-3.8l-14.4-22.5l0.5-0.5v23h-4.1V614.9z"/>
			<path class="st1" d="M1126.6,614.9h3.8l14.4,22.8l-0.5,0.5v-23.3h4.1v29.5h-3.8l-14.4-22.5l0.5-0.5v23h-4.1V614.9z"/>
			<path class="st1" d="M1155.7,614.9h4.1v29.5h-4.1V614.9z M1157.7,614.9h16.9v3.9h-16.9V614.9z M1157.7,627.8h14.7v3.9h-14.7
				V627.8z M1157.7,640.5h16.9v3.9h-16.9V640.5z"/>
			<path class="st1" d="M1180.6,614.9h4.1v29.5h-4.1V614.9z M1182.6,640.5h16.9v3.9h-16.9V640.5z"/>
		</g>
	</g>
</g>
<g>
	<g>
		<g>
			<path class="st1" d="M1012.4,706.9h3.9v29.5h-4v-22.1l0.2,1.3l-7.3,16.7h-2.9l-7.3-16.3l0.2-1.7v22.1h-4v-29.5h3.9l8.7,19.5
				L1012.4,706.9z"/>
			<path class="st1" d="M1031.7,706.9h3.5l10.9,29.5h-4.5l-8.2-23.8l-8.2,23.8h-4.5L1031.7,706.9z M1025.8,726h15.5v3.9h-15.5V726z"
				/>
			<path class="st1" d="M1054.7,736.4h-4.1v-29.5h4.1V736.4z"/>
			<path class="st1" d="M1062,706.9h4.1v29.5h-4.1V706.9z M1065.2,723.4l13-16.6h5.1l-18.7,22.8L1065.2,723.4z M1070.1,720.6l3.3-3
				l11.2,18.8h-5.1L1070.1,720.6z"/>
		</g>
	</g>
</g>
<circle class="st5" cx="928.4" cy="723.6" r="32.6"/>
<g>
	<g>
		<g>
			<path class="st1" d="M991.2,803h4.1v29.5h-4.1V803z M993.3,828.6h16.9v3.9h-16.9V828.6z"/>
			<path class="st1" d="M1015.1,803h4.1v29.5h-4.1V803z M1017.1,803h16.9v3.9h-16.9V803z M1017.1,815.9h14.7v3.9h-14.7V815.9z
				 M1017.1,828.6h16.9v3.9h-16.9V828.6z"/>
			<path class="st1" d="M1039.9,803h3.8l14.4,22.8l-0.5,0.5V803h4.1v29.5h-3.8l-14.4-22.5l0.5-0.5v23h-4.1V803z"/>
			<path class="st1" d="M1077,803h3.5l10.9,29.5h-4.5l-8.2-23.8l-8.2,23.8h-4.5L1077,803z M1071.2,822.1h15.5v3.9h-15.5V822.1z"/>
		</g>
	</g>
</g>
<path class="st6" d="M1388,605.3h-72.3c-13.2,0-23.8,10.7-23.8,23.8v0c0,13.2,10.7,23.8,23.8,23.8h72.3c13.2,0,23.8-10.7,23.8-23.8
	v0C1411.8,615.9,1401.1,605.3,1388,605.3z"/>
<g>
	<g>
		<g>
			<path class="st1" d="M1309.1,637.8c-1-1-1.5-2.5-1.5-4.4v-9.5c0-1.9,0.5-3.3,1.5-4.4s2.5-1.6,4.5-1.6c2,0,3.4,0.5,4.5,1.6
				c1,1,1.5,2.5,1.5,4.4v9.5c0,1.9-0.5,3.3-1.5,4.4c-1,1-2.5,1.6-4.5,1.6C1311.6,639.4,1310.1,638.9,1309.1,637.8z M1315.8,635.8
				c0.5-0.5,0.7-1.3,0.7-2.3v-9.5c0-1-0.2-1.8-0.7-2.3c-0.5-0.5-1.3-0.8-2.3-0.8c-1,0-1.8,0.3-2.3,0.8c-0.5,0.5-0.7,1.3-0.7,2.3v9.5
				c0,1,0.2,1.8,0.7,2.3c0.5,0.5,1.3,0.8,2.3,0.8C1314.6,636.6,1315.3,636.3,1315.8,635.8z"/>
			<path class="st1" d="M1323.5,636.6l7.3-9.7c0.4-0.6,0.8-1.1,1-1.7c0.2-0.6,0.4-1.2,0.4-1.7v0c0-0.8-0.2-1.5-0.7-1.9
				c-0.5-0.5-1.2-0.7-2.1-0.7c-0.9,0-1.5,0.3-2.1,0.8c-0.5,0.5-0.8,1.2-1,2.1v0h-3v0c0.2-1.2,0.5-2.2,1.1-3.1
				c0.5-0.9,1.2-1.5,2.1-1.9s1.8-0.7,2.9-0.7c1.2,0,2.3,0.2,3.2,0.6c0.9,0.4,1.6,1,2,1.9c0.5,0.8,0.7,1.8,0.7,3v0
				c0,0.7-0.2,1.5-0.5,2.3s-0.7,1.6-1.3,2.3l-6.1,8.2h7.9v2.8h-11.8V636.6z"/>
		</g>
	</g>
</g>
<path class="st7" d="M1347.4,652.8l8.8-47.6l31.9,0.1c1.4,0,2.9,0.1,4.2,0.4c11.1,2.1,19.5,11.8,19.5,23.5
	c-0.1,13.2-10.8,23.8-23.9,23.7L1347.4,652.8z"/>
<g>
	<g>
		<g>
			<path class="st1" d="M1368.4,637.8c-1-1-1.5-2.5-1.5-4.4v-9.5c0-1.9,0.5-3.3,1.5-4.4s2.5-1.6,4.5-1.6c2,0,3.4,0.5,4.5,1.6
				c1,1,1.5,2.5,1.5,4.4v9.5c0,1.9-0.5,3.3-1.5,4.4c-1,1-2.5,1.6-4.5,1.6C1370.9,639.4,1369.4,638.9,1368.4,637.8z M1375.2,635.8
				c0.5-0.5,0.7-1.3,0.7-2.3v-9.5c0-1-0.2-1.8-0.7-2.3c-0.5-0.5-1.3-0.8-2.3-0.8c-1,0-1.8,0.3-2.3,0.8c-0.5,0.5-0.7,1.3-0.7,2.3v9.5
				c0,1,0.2,1.8,0.7,2.3c0.5,0.5,1.3,0.8,2.3,0.8C1373.9,636.6,1374.7,636.3,1375.2,635.8z"/>
			<path class="st1" d="M1382.9,636.6l7.3-9.7c0.4-0.6,0.8-1.1,1-1.7c0.2-0.6,0.4-1.2,0.4-1.7v0c0-0.8-0.2-1.5-0.7-1.9
				c-0.5-0.5-1.2-0.7-2.1-0.7c-0.9,0-1.5,0.3-2.1,0.8c-0.5,0.5-0.8,1.2-1,2.1v0h-3v0c0.2-1.2,0.5-2.2,1.1-3.1
				c0.5-0.9,1.2-1.5,2.1-1.9s1.8-0.7,2.9-0.7c1.2,0,2.3,0.2,3.2,0.6c0.9,0.4,1.6,1,2,1.9c0.5,0.8,0.7,1.8,0.7,3v0
				c0,0.7-0.2,1.5-0.5,2.3s-0.7,1.6-1.3,2.3l-6.1,8.2h7.9v2.8h-11.8V636.6z"/>
		</g>
	</g>
</g>
<path class="st1" d="M1066,1034.4L1066,1034.4c0.5,0.5,0.5,1.4,0,1.9l-9.4,9.4c-0.5,0.5-1.4,0.5-1.9,0l0,0c-0.5-0.5-0.5-1.4,0-1.9
	l9.4-9.4C1064.6,1033.8,1065.5,1033.8,1066,1034.4z"/>
<path class="st1" d="M1045.2,1034.4L1045.2,1034.4c0.5-0.5,1.4-0.5,1.9,0l9.4,9.4c0.5,0.5,0.5,1.4,0,1.9l0,0c-0.5,0.5-1.4,0.5-1.9,0
	l-9.4-9.4C1044.6,1035.8,1044.6,1034.9,1045.2,1034.4z"/>
<g>
	<g>
		<g>
			<path class="st1" d="M1081.8,1030.2h13.9v2.6h-13.9V1030.2z M1087.4,1031.8h2.8v18h-2.8V1031.8z"/>
			<path class="st1" d="M1100.6,1049.9h-2.8v-19.6h2.8V1049.9z"/>
			<path class="st1" d="M1119.6,1030.2h2.6v19.6h-2.7v-14.7l0.1,0.9l-4.8,11.1h-1.9l-4.8-10.8l0.1-1.1v14.7h-2.7v-19.6h2.6l5.8,13
				L1119.6,1030.2z"/>
		</g>
	</g>
</g>
<path class="st0" d="M1409.2,1246.3H816.5c-21.9,0-39.6-17.7-39.6-39.6v-248c0-21.9,17.7-39.6,39.6-39.6h592.8
	c21.9,0,39.6,17.7,39.6,39.6v248C1448.8,1228.6,1431.1,1246.3,1409.2,1246.3z"/>
<path class="st1" d="M839.6,967.8c1.9,2,4.4,3.4,7.1,4.2c0.1,0.6,0.1,1.2,0.1,1.9c0,4-1.7,7.6-4.4,10.1c-1.2,1.1-3.2,0.3-3.2-1.4
	v-15.3C839.3,967.5,839.5,967.7,839.6,967.8z"/>
<path class="st1" d="M841.6,960.6l-4.7-4.7h3.6c0-0.7,0.1-1.3,0.2-2c0.4-2.1,1.4-4,2.8-5.5c2.1-2.2,5.1-3.6,8.5-3.4
	c5.6,0.3,10.1,4.8,10.4,10.4c0.2,3.4-1.3,6.5-3.6,8.6c-1.5,1.4-3.4,2.3-5.5,2.7c-0.6,0.1-1.2,0.1-1.8,0.1c-3,0-5.7-1.2-7.7-3.2
	l1.7-1.7c1.5,1.5,3.6,2.5,6,2.5c0.3,0,0.5,0,0.8,0c2.2-0.2,4.1-1.2,5.5-2.7c1.4-1.6,2.3-3.7,2.2-6c-0.2-4.4-3.7-8-8.1-8.1
	c-2.3-0.1-4.4,0.7-5.9,2.1c-1.5,1.4-2.6,3.3-2.8,5.4c0,0.3-0.1,0.6-0.1,0.9h3.6l-0.8,0.8l-4.1,4.1L841.6,960.6z"/>
<polygon class="st1" points="852,956.1 855.7,958.2 856.3,958.6 856.1,958.9 855.4,960.1 850.2,957.1 850.2,951.1 852,951.1 "/>
<path class="st1" d="M860.3,970c0.2,1.3,0.3,2.6,0.3,3.9c0,12.2-7.9,22.5-18.9,26.1c-1.2,0.4-2.5-0.5-2.5-1.8v-2.4
	c0-0.8,0.5-1.5,1.2-1.8c8.2-3,14-10.9,14-20.1c0-0.5,0-1-0.1-1.5C856.6,972,858.6,971.2,860.3,970z"/>
<path class="st1" d="M860.3,970c-1.8,1.1-3.7,2-5.9,2.4c0,0.5,0.1,1,0.1,1.5c0,9.2-5.9,17.1-14,20.1c-0.7,0.3-1.2,1-1.2,1.8v2.4
	c0,1.3,1.3,2.2,2.5,1.8c11-3.6,18.9-13.9,18.9-26.1C860.6,972.6,860.5,971.3,860.3,970z M853.2,966.6c2.1-0.3,4-1.3,5.5-2.7
	c-0.3-0.8-0.7-1.6-1-2.4c-1.4,1.5-3.3,2.5-5.5,2.7C852.6,965.1,852.9,965.8,853.2,966.6z M856.1,958.9c-0.1-0.2-0.3-0.4-0.4-0.7
	l-3.6-2.2V954c-0.6-0.6-1.2-1.1-1.8-1.6v4.7l5.1,3L856.1,958.9z M845.8,956.7l0.8-0.8h-2C845,956.1,845.4,956.4,845.8,956.7z
	 M845.8,949.5c-0.8-0.4-1.5-0.8-2.3-1.1c-1.4,1.5-2.4,3.4-2.8,5.5c0.8,0.3,1.6,0.6,2.3,1C843.3,952.8,844.3,950.9,845.8,949.5z
	 M846.7,972c-2.7-0.8-5.2-2.3-7.1-4.2c-0.1-0.1-0.3-0.3-0.4-0.4v15.3c0,1.7,2,2.5,3.2,1.4c2.7-2.5,4.4-6.1,4.4-10.1
	C846.8,973.3,846.8,972.6,846.7,972z M829.8,952.7l-11.5,11.5c-0.4,0.4-0.8,0.6-1.3,0.6h-9.5c-1.1,0-1.9,0.9-1.9,1.9v14.5
	c0,1.1,0.9,1.9,1.9,1.9h9.5c0.5,0,1,0.2,1.3,0.6l11.5,11.5c1.2,1.2,3.2,0.3,3.2-1.3V954C833.1,952.3,831,951.5,829.8,952.7z"/>
<polygon class="st1" points="852,956.1 855.7,958.2 856.3,958.6 856.1,958.9 855.4,960.1 850.2,957.1 850.2,951.1 852,951.1 "/>
<path class="st1" d="M858.7,964c-1.5,1.4-3.4,2.3-5.5,2.7c-0.6,0.1-1.2,0.1-1.8,0.1c-3,0-5.7-1.2-7.7-3.2l1.7-1.7
	c1.5,1.5,3.6,2.5,6,2.5c0.3,0,0.5,0,0.8,0c2.2-0.2,4.1-1.2,5.5-2.7c1.4-1.6,2.3-3.7,2.2-6c-0.2-4.4-3.7-8-8.1-8.1
	c-2.3-0.1-4.4,0.7-5.9,2.1c-1.5,1.4-2.6,3.3-2.8,5.4c0,0.3-0.1,0.6-0.1,0.9h3.6l-0.8,0.8l-4.1,4.1l-0.1-0.2l-4.7-4.7h3.6
	c0-0.7,0.1-1.3,0.2-2c0.4-2.1,1.4-4,2.8-5.5c2.1-2.2,5.1-3.6,8.5-3.4c5.6,0.3,10.1,4.8,10.4,10.4C862.5,958.8,861.1,961.9,858.7,964
	z"/>
<path class="st1" d="M839.2,967.4c0.1,0.1,0.3,0.3,0.4,0.4h-0.4V967.4z"/>
<polygon class="st1" points="852,956.1 855.7,958.2 856.3,958.6 856.1,958.9 855.4,960.1 850.2,957.1 850.2,951.1 852,951.1 "/>
<path class="st1" d="M858.7,964c-1.5,1.4-3.4,2.3-5.5,2.7c-0.6,0.1-1.2,0.1-1.8,0.1c-3,0-5.7-1.2-7.7-3.2l1.7-1.7
	c1.5,1.5,3.6,2.5,6,2.5c0.3,0,0.5,0,0.8,0c2.2-0.2,4.1-1.2,5.5-2.7c1.4-1.6,2.3-3.7,2.2-6c-0.2-4.4-3.7-8-8.1-8.1
	c-2.3-0.1-4.4,0.7-5.9,2.1c-1.5,1.4-2.6,3.3-2.8,5.4c0,0.3-0.1,0.6-0.1,0.9h3.6l-0.8,0.8l-4.1,4.1l-0.1-0.2l-4.7-4.7h3.6
	c0-0.7,0.1-1.3,0.2-2c0.4-2.1,1.4-4,2.8-5.5c2.1-2.2,5.1-3.6,8.5-3.4c5.6,0.3,10.1,4.8,10.4,10.4C862.5,958.8,861.1,961.9,858.7,964
	z"/>
<path class="st1" d="M855.7,958.2l-3.6-2.2v-5h-1.8v6l5.1,3l0.8-1.3l0.2-0.3L855.7,958.2z M862.3,955.4c-0.3-5.6-4.8-10.1-10.4-10.4
	c-3.3-0.2-6.4,1.2-8.5,3.4c-1.4,1.5-2.4,3.4-2.8,5.5c-0.1,0.6-0.2,1.3-0.2,2h-3.6l4.7,4.7l0.1,0.2l4.1-4.1l0.8-0.8H843
	c0-0.3,0-0.6,0.1-0.9c0.2-2.1,1.3-4.1,2.8-5.4c1.6-1.4,3.7-2.2,5.9-2.1c4.4,0.2,8,3.7,8.1,8.1c0.1,2.3-0.8,4.5-2.2,6
	c-1.4,1.5-3.3,2.5-5.5,2.7c-0.3,0-0.5,0-0.8,0c-2.3,0-4.5-1-6-2.5l-1.7,1.7c2,2,4.7,3.2,7.7,3.2c0.6,0,1.2,0,1.8-0.1
	c2.1-0.3,4-1.3,5.5-2.7C861.1,961.9,862.5,958.8,862.3,955.4z M855.7,958.2c0.2,0.2,0.3,0.4,0.4,0.7l0.2-0.3L855.7,958.2z
	 M852,951.1h-1.8v1.4c0.6,0.5,1.2,1,1.8,1.6V951.1z"/>
<g>
	<g>
		<g>
			<path class="st1" d="M889.2,958.7h4.5l7.1,23.1l7.1-23.1h4.5l-9.6,29.5h-3.9L889.2,958.7z"/>
			<path class="st1" d="M921,987.1c-1.6-0.9-2.8-2.2-3.6-3.8c-0.9-1.6-1.3-3.5-1.3-5.7v-8.4c0-2.2,0.4-4.1,1.3-5.7
				c0.9-1.6,2.1-2.9,3.6-3.8c1.6-0.9,3.4-1.3,5.4-1.3s3.9,0.5,5.4,1.3c1.6,0.9,2.8,2.2,3.6,3.8c0.9,1.6,1.3,3.5,1.3,5.7v8.4
				c0,2.2-0.4,4.1-1.3,5.7c-0.9,1.6-2.1,2.9-3.6,3.8c-1.6,0.9-3.4,1.3-5.4,1.3S922.6,988,921,987.1z M929.7,983.6
				c0.9-0.5,1.6-1.3,2.2-2.3c0.5-1,0.8-2.2,0.8-3.5v-8.6c0-1.3-0.3-2.5-0.8-3.5c-0.5-1-1.2-1.8-2.2-2.3s-2-0.8-3.2-0.8
				s-2.3,0.3-3.2,0.8s-1.6,1.3-2.2,2.3c-0.5,1-0.8,2.2-0.8,3.5v8.6c0,1.3,0.3,2.5,0.8,3.5c0.5,1,1.2,1.8,2.2,2.3
				c0.9,0.5,2,0.8,3.2,0.8S928.7,984.1,929.7,983.6z"/>
			<path class="st1" d="M947.6,988.2h-4.1v-29.5h4.1V988.2z"/>
			<path class="st1" d="M959.2,987.1c-1.5-0.9-2.8-2.2-3.6-3.9c-0.9-1.7-1.3-3.6-1.3-5.8v-8.1c0-2.2,0.4-4.1,1.3-5.8s2.1-3,3.6-3.9
				c1.5-0.9,3.3-1.4,5.4-1.4c1.7,0,3.2,0.4,4.7,1.1s2.6,1.7,3.6,3.1c1,1.3,1.6,2.9,1.9,4.6h-4.2c-0.3-0.9-0.7-1.7-1.3-2.5
				s-1.3-1.3-2.1-1.7c-0.8-0.4-1.7-0.6-2.5-0.6c-1.2,0-2.3,0.3-3.2,0.9c-0.9,0.6-1.6,1.4-2.1,2.4c-0.5,1-0.8,2.3-0.8,3.7v8.1
				c0,1.4,0.3,2.6,0.8,3.7c0.5,1.1,1.2,1.9,2.1,2.4c0.9,0.6,2,0.9,3.2,0.9c0.9,0,1.7-0.2,2.5-0.5c0.8-0.4,1.5-0.9,2.1-1.6
				c0.6-0.7,1-1.6,1.3-2.6h4.2c-0.3,1.7-1,3.3-1.9,4.6c-1,1.3-2.2,2.4-3.6,3.1c-1.4,0.7-3,1.1-4.6,1.1
				C962.6,988.5,960.8,988,959.2,987.1z"/>
			<path class="st1" d="M980.7,958.7h4.1v29.5h-4.1V958.7z M982.7,958.7h16.9v3.9h-16.9V958.7z M982.7,971.6h14.7v3.9h-14.7V971.6z
				 M982.7,984.2h16.9v3.9h-16.9V984.2z"/>
			<path class="st1" d="M1020.9,987.1c-1.5-0.9-2.8-2.2-3.6-3.9c-0.9-1.7-1.3-3.6-1.3-5.8v-8.1c0-2.2,0.4-4.1,1.3-5.8s2.1-3,3.6-3.9
				c1.5-0.9,3.3-1.4,5.4-1.4c1.7,0,3.2,0.4,4.7,1.1s2.6,1.7,3.6,3.1c1,1.3,1.6,2.9,1.9,4.6h-4.2c-0.3-0.9-0.7-1.7-1.3-2.5
				s-1.3-1.3-2.1-1.7c-0.8-0.4-1.7-0.6-2.5-0.6c-1.2,0-2.3,0.3-3.2,0.9c-0.9,0.6-1.6,1.4-2.1,2.4c-0.5,1-0.8,2.3-0.8,3.7v8.1
				c0,1.4,0.3,2.6,0.8,3.7c0.5,1.1,1.2,1.9,2.1,2.4c0.9,0.6,2,0.9,3.2,0.9c0.9,0,1.7-0.2,2.5-0.5c0.8-0.4,1.5-0.9,2.1-1.6
				c0.6-0.7,1-1.6,1.3-2.6h4.2c-0.3,1.7-1,3.3-1.9,4.6c-1,1.3-2.2,2.4-3.6,3.1c-1.4,0.7-3,1.1-4.6,1.1
				C1024.3,988.5,1022.5,988,1020.9,987.1z"/>
			<path class="st1" d="M1042.4,958.7h4.1v29.5h-4.1V958.7z M1045,971.7h16.4v3.9H1045V971.7z M1059.2,958.7h4.1v29.5h-4.1V958.7z"
				/>
			<path class="st1" d="M1078.6,958.7h3.5l10.9,29.5h-4.5l-8.2-23.8l-8.2,23.8h-4.5L1078.6,958.7z M1072.8,977.8h15.5v3.9h-15.5
				V977.8z"/>
			<path class="st1" d="M1097.5,958.7h3.8l14.4,22.8l-0.5,0.5v-23.3h4.1v29.5h-3.8l-14.4-22.5l0.5-0.5v23h-4.1V958.7z"/>
			<path class="st1" d="M1126.6,958.7h3.8l14.4,22.8l-0.5,0.5v-23.3h4.1v29.5h-3.8l-14.4-22.5l0.5-0.5v23h-4.1V958.7z"/>
			<path class="st1" d="M1155.7,958.7h4.1v29.5h-4.1V958.7z M1157.7,958.7h16.9v3.9h-16.9V958.7z M1157.7,971.6h14.7v3.9h-14.7
				V971.6z M1157.7,984.2h16.9v3.9h-16.9V984.2z"/>
			<path class="st1" d="M1180.6,958.7h4.1v29.5h-4.1V958.7z M1182.6,984.2h16.9v3.9h-16.9V984.2z"/>
		</g>
	</g>
</g>
<g>
	<g>
		<g>
			<path class="st1" d="M991.4,1079.5c-1.3-0.6-2.4-1.5-3.2-2.7l3.4-2.4c0.4,0.7,0.9,1.2,1.6,1.5c0.7,0.4,1.5,0.5,2.5,0.5
				c1.6,0,2.9-0.5,3.7-1.5c0.9-1,1.3-2.4,1.3-4.2v-20.1h4.1v20.1c0,2-0.4,3.8-1.1,5.2c-0.7,1.4-1.8,2.6-3.1,3.3s-3,1.1-5,1.1
				C994.1,1080.5,992.7,1080.2,991.4,1079.5z"/>
			<path class="st1" d="M1016.6,1079.1c-1.6-0.9-2.8-2.2-3.6-3.8c-0.9-1.6-1.3-3.5-1.3-5.7v-8.4c0-2.2,0.4-4.1,1.3-5.7
				c0.9-1.6,2.1-2.9,3.6-3.8c1.6-0.9,3.4-1.3,5.4-1.3s3.9,0.5,5.4,1.3c1.6,0.9,2.8,2.2,3.6,3.8c0.9,1.6,1.3,3.5,1.3,5.7v8.4
				c0,2.2-0.4,4.1-1.3,5.7c-0.9,1.6-2.1,2.9-3.6,3.8c-1.6,0.9-3.4,1.3-5.4,1.3S1018.1,1080,1016.6,1079.1z M1025.2,1075.6
				c0.9-0.5,1.6-1.3,2.2-2.3c0.5-1,0.8-2.2,0.8-3.5v-8.6c0-1.3-0.3-2.5-0.8-3.5c-0.5-1-1.2-1.8-2.2-2.3s-2-0.8-3.2-0.8
				s-2.3,0.3-3.2,0.8s-1.6,1.3-2.2,2.3c-0.5,1-0.8,2.2-0.8,3.5v8.6c0,1.3,0.3,2.5,0.8,3.5c0.5,1,1.2,1.8,2.2,2.3
				c0.9,0.5,2,0.8,3.2,0.8S1024.3,1076.1,1025.2,1075.6z"/>
			<path class="st1" d="M1039.1,1050.7h3.8l14.4,22.8l-0.5,0.5v-23.3h4.1v29.5h-3.8l-14.4-22.5l0.5-0.5v23h-4.1V1050.7z"/>
			<path class="st1" d="M1076.2,1050.7h3.5l10.9,29.5h-4.5l-8.2-23.8l-8.2,23.8h-4.5L1076.2,1050.7z M1070.3,1069.8h15.5v3.9h-15.5
				V1069.8z"/>
			<path class="st1" d="M1095.1,1050.7h4.1v29.5h-4.1V1050.7z M1097.7,1063.7h16.4v3.9h-16.4V1063.7z M1111.8,1050.7h4.1v29.5h-4.1
				V1050.7z"/>
		</g>
	</g>
</g>
<circle class="st8" cx="928.4" cy="1067.4" r="32.6"/>
<g>
	<g>
		<g>
			<path class="st1" d="M1012.4,1146.8h3.9v29.5h-4v-22.1l0.2,1.3l-7.3,16.7h-2.9l-7.3-16.3l0.2-1.7v22.1h-4v-29.5h3.9l8.7,19.5
				L1012.4,1146.8z"/>
			<path class="st1" d="M1031.7,1146.8h3.5l10.9,29.5h-4.5l-8.2-23.8l-8.2,23.8h-4.5L1031.7,1146.8z M1025.8,1165.9h15.5v3.9h-15.5
				V1165.9z"/>
			<path class="st1" d="M1050.5,1146.8h4.1v29.5h-4.1V1146.8z M1052.3,1159.9h10.1c0.8,0,1.5-0.2,2.1-0.6c0.6-0.4,1.1-0.9,1.4-1.6
				c0.3-0.7,0.5-1.5,0.5-2.4s-0.2-1.7-0.5-2.4c-0.3-0.7-0.8-1.2-1.4-1.6c-0.6-0.4-1.3-0.6-2.1-0.6h-10.1v-3.9h9.9
				c1.7,0,3.2,0.4,4.5,1.1c1.3,0.7,2.3,1.7,3,3c0.7,1.3,1.1,2.8,1.1,4.5s-0.4,3.2-1.1,4.5c-0.7,1.3-1.7,2.3-3,3
				c-1.3,0.7-2.8,1.1-4.5,1.1h-9.9V1159.9z M1060.4,1162.9l4.1-0.9l7.6,14.3h-4.9L1060.4,1162.9z"/>
			<path class="st1" d="M1081.8,1176.3h-4.1v-29.5h4.1V1176.3z"/>
			<path class="st1" d="M1089.1,1146.8h4.1v29.5h-4.1V1146.8z M1091.1,1146.8h16.9v3.9h-16.9V1146.8z M1091.1,1159.7h14.7v3.9h-14.7
				V1159.7z M1091.1,1172.4h16.9v3.9h-16.9V1172.4z"/>
		</g>
	</g>
</g>
<circle class="st9" cx="928.4" cy="1163.6" r="32.6"/>
<path class="st6" d="M1388,949.1h-72.3c-13.2,0-23.8,10.7-23.8,23.8v0c0,13.2,10.7,23.8,23.8,23.8h72.3c13.2,0,23.8-10.7,23.8-23.8
	v0C1411.8,959.7,1401.1,949.1,1388,949.1z"/>
<g>
	<g>
		<g>
			<path class="st1" d="M1309.1,981.6c-1-1-1.5-2.5-1.5-4.4v-9.5c0-1.9,0.5-3.3,1.5-4.4c1-1,2.5-1.6,4.5-1.6c2,0,3.4,0.5,4.5,1.6
				c1,1,1.5,2.5,1.5,4.4v9.5c0,1.9-0.5,3.3-1.5,4.4s-2.5,1.6-4.5,1.6C1311.6,983.2,1310.1,982.7,1309.1,981.6z M1315.8,979.6
				c0.5-0.5,0.7-1.3,0.7-2.3v-9.5c0-1-0.2-1.8-0.7-2.3s-1.3-0.8-2.3-0.8c-1,0-1.8,0.3-2.3,0.8c-0.5,0.5-0.7,1.3-0.7,2.3v9.5
				c0,1,0.2,1.8,0.7,2.3c0.5,0.5,1.3,0.8,2.3,0.8C1314.6,980.4,1315.3,980.1,1315.8,979.6z"/>
			<path class="st1" d="M1323.5,980.4l7.3-9.7c0.4-0.6,0.8-1.1,1-1.7s0.4-1.2,0.4-1.7v0c0-0.8-0.2-1.5-0.7-1.9
				c-0.5-0.5-1.2-0.7-2.1-0.7c-0.9,0-1.5,0.3-2.1,0.8s-0.8,1.2-1,2.1v0h-3v0c0.2-1.2,0.5-2.2,1.1-3.1c0.5-0.9,1.2-1.5,2.1-1.9
				c0.8-0.4,1.8-0.7,2.9-0.7c1.2,0,2.3,0.2,3.2,0.6c0.9,0.4,1.6,1,2,1.9s0.7,1.8,0.7,3v0c0,0.7-0.2,1.5-0.5,2.3
				c-0.3,0.8-0.7,1.6-1.3,2.3l-6.1,8.2h7.9v2.8h-11.8V980.4z"/>
		</g>
	</g>
</g>
<path class="st7" d="M1347.4,996.6l8.8-47.6l31.9,0.1c1.4,0,2.9,0.1,4.2,0.4c11.1,2.1,19.5,11.8,19.5,23.5
	c-0.1,13.2-10.8,23.8-23.9,23.7L1347.4,996.6z"/>
<g>
	<g>
		<g>
			<path class="st1" d="M1368.4,981.6c-1-1-1.5-2.5-1.5-4.4v-9.5c0-1.9,0.5-3.3,1.5-4.4c1-1,2.5-1.6,4.5-1.6c2,0,3.4,0.5,4.5,1.6
				c1,1,1.5,2.5,1.5,4.4v9.5c0,1.9-0.5,3.3-1.5,4.4c-1,1-2.5,1.6-4.5,1.6C1370.9,983.2,1369.4,982.7,1368.4,981.6z M1375.2,979.6
				c0.5-0.5,0.7-1.3,0.7-2.3v-9.5c0-1-0.2-1.8-0.7-2.3c-0.5-0.5-1.3-0.8-2.3-0.8c-1,0-1.8,0.3-2.3,0.8c-0.5,0.5-0.7,1.3-0.7,2.3v9.5
				c0,1,0.2,1.8,0.7,2.3c0.5,0.5,1.3,0.8,2.3,0.8C1373.9,980.4,1374.7,980.1,1375.2,979.6z"/>
			<path class="st1" d="M1382.9,980.4l7.3-9.7c0.4-0.6,0.8-1.1,1-1.7c0.2-0.6,0.4-1.2,0.4-1.7v0c0-0.8-0.2-1.5-0.7-1.9
				s-1.2-0.7-2.1-0.7c-0.9,0-1.5,0.3-2.1,0.8c-0.5,0.5-0.8,1.2-1,2.1v0h-3v0c0.2-1.2,0.5-2.2,1.1-3.1s1.2-1.5,2.1-1.9
				c0.8-0.4,1.8-0.7,2.9-0.7c1.2,0,2.3,0.2,3.2,0.6c0.9,0.4,1.6,1,2,1.9c0.5,0.8,0.7,1.8,0.7,3v0c0,0.7-0.2,1.5-0.5,2.3
				c-0.3,0.8-0.7,1.6-1.3,2.3l-6.1,8.2h7.9v2.8h-11.8V980.4z"/>
		</g>
	</g>
</g>
<path class="st9" d="M637.2,595h3.1c0,1.4,0.3,2.8,0.8,4l-2.2,2.4C637.8,599.4,637.2,597.3,637.2,595z M644.5,595.3
	c0-0.1,0-0.2,0-0.3v-11.7c0-3.2,2.4-5.9,5.4-5.9c3,0,5.4,2.6,5.4,5.9v0.4L644.5,595.3z M663.7,579.3l2.3,2.5l-10.8,11.7v1.4
	c0,3.2-2.4,5.9-5.4,5.9c-0.4,0-0.8-0.1-1.2-0.2l-3,3.2c1.3,0.6,2.7,1,4.2,1c5,0,9.5-4.1,9.5-10h3.1c0,6.7-4.9,12.2-10.8,13.1v6.4
	H648v-6.4c-1.6-0.3-3.2-0.9-4.6-1.8l-7.5,8.2l-2.3-2.5L663.7,579.3z"/>
<path class="st1" d="M1373.7,1062.6v-6.6c0-1-0.8-1.9-1.9-1.9h-22.5c-1,0-1.9,0.8-1.9,1.9v18.7c0,1,0.8,1.9,1.9,1.9h22.5
	c1,0,1.9-0.8,1.9-1.9v-6.6l7.5,7.5v-20.6L1373.7,1062.6z"/>
<path class="st1" d="M1373.7,1154.9v-6.6c0-1-0.8-1.9-1.9-1.9h-22.5c-1,0-1.9,0.8-1.9,1.9v18.7c0,1,0.8,1.9,1.9,1.9h22.5
	c1,0,1.9-0.8,1.9-1.9v-6.6l7.5,7.5v-20.6L1373.7,1154.9z"/>
<path class="st9" d="M1382.8,745.6h-62c-12.1,0-21.9-9.8-21.9-21.9v0c0-12.1,9.8-21.9,21.9-21.9h62c12.1,0,21.9,9.8,21.9,21.9v0
	C1404.7,735.8,1394.9,745.6,1382.8,745.6z"/>
<g>
	<g>
		<path class="st3" d="M1320.8,711.6h4.4v23.3h-4.4V711.6z M1322.8,730.7h13.6v4.2h-13.6V730.7z"/>
		<path class="st3" d="M1343.9,734.9h-4.5v-23.3h4.5V734.9z"/>
		<path class="st3" d="M1346.3,711.6h4.5l4.9,15.5l4.9-15.5h4.5l-7.8,23.3h-3.4L1346.3,711.6z"/>
		<path class="st3" d="M1367.9,711.6h4.4v23.3h-4.4V711.6z M1369.5,711.6h14v4.2h-14V711.6z M1369.5,721.3h12.3v4.2h-12.3V721.3z
			 M1369.5,730.7h14v4.2h-14V730.7z"/>
	</g>
</g>
<path class="st1" d="M637.2,840.7h3.1c0,1.4,0.3,2.8,0.8,4l-2.2,2.4C637.8,845.2,637.2,843,637.2,840.7z M644.5,841
	c0-0.1,0-0.2,0-0.3V829c0-3.2,2.4-5.9,5.4-5.9c3,0,5.4,2.6,5.4,5.9v0.4L644.5,841z M663.7,825.1l2.3,2.5l-10.8,11.7v1.4
	c0,3.2-2.4,5.9-5.4,5.9c-0.4,0-0.8-0.1-1.2-0.2l-3,3.2c1.3,0.6,2.7,1,4.2,1c5,0,9.5-4.1,9.5-10h3.1c0,6.7-4.9,12.2-10.8,13.1v6.4
	H648v-6.4c-1.6-0.3-3.2-0.9-4.6-1.8l-7.5,8.2l-2.3-2.5L663.7,825.1z"/>
<circle class="st11" cx="928.4" cy="819.8" r="37.7"/>
<circle class="st2" cx="928.4" cy="819.8" r="32.6"/>
</svg>
