<?xml version="1.0" encoding="utf-8"?>
<!-- Generator: Adobe Illustrator 25.0.0, SVG Export Plug-In . SVG Version: 6.00 Build 0)  -->
<svg version="1.1" id="Layer_1" xmlns="http://www.w3.org/2000/svg" xmlns:xlink="http://www.w3.org/1999/xlink" x="0px" y="0px"
	 viewBox="0 0 500 500" style="enable-background:new 0 0 500 500;" xml:space="preserve">
<style type="text/css">
	.st0{fill:#5764F4;}
	.st1{fill:none;}
	.st2{fill:#FFFFFF;}
</style>
<path class="st0" d="M248.8,156.3v192.8c0,8.2-9.9,12.3-15.8,6.5L177.3,300c-1.7-1.7-4.1-2.7-6.5-2.7h-46.3c-5.1,0-9.2-4.1-9.2-9.2
	v-70.6c0-5.1,4.1-9.2,9.2-9.2h46.3c2.5,0,4.8-1,6.5-2.7l55.7-55.7C238.9,144,248.8,148.1,248.8,156.3z"/>
<path class="st0" d="M280.5,223.1c9.3,9.5,21.2,16.7,34.4,20.5c0.4,3,0.6,6,0.6,9.2c0,19.5-8.3,36.9-21.6,49
	c-5.9,5.4-15.5,1.3-15.5-6.8V221C279.1,221.7,279.8,222.4,280.5,223.1z"/>
<path class="st0" d="M290.3,188.1l-22.8-22.8h17.6c0-3.3,0.3-6.5,0.9-9.6c1.9-10.1,6.6-19.3,13.4-26.5
	c10.2-10.9,24.9-17.4,41.1-16.7c27.1,1.2,49,23.2,50.3,50.3c0.8,16.5-6.1,31.5-17.3,41.7c-7.4,6.7-16.6,11.3-26.8,13
	c-2.8,0.5-5.7,0.7-8.6,0.7c-14.6,0-27.8-5.9-37.3-15.5l8.3-8.3c7.4,7.5,17.7,12.1,29,12.1c1.3,0,2.5-0.1,3.8-0.2
	c10.5-1,19.9-5.9,26.6-13.2c7-7.7,11.1-18,10.7-29.3c-0.8-21.3-18.2-38.7-39.5-39.5c-11.1-0.4-21.2,3.5-28.8,10.3
	c-7.5,6.6-12.5,15.8-13.6,26.2c-0.2,1.5-0.2,3-0.2,4.6h17.6l-3.9,3.9l-19.8,19.8L290.3,188.1z"/>
<polygon class="st0" points="340.8,166.1 358.5,176.6 361.5,178.4 360.6,179.8 357,186 332,171.2 332,141.8 340.8,141.8 "/>
<path class="st0" d="M381,233.8c0.9,6.2,1.3,12.5,1.3,18.9c0,59.1-38.4,109.2-91.7,126.8c-6,2-12.1-2.5-12.1-8.8v-11.8
	c0-3.8,2.4-7.3,6-8.6c39.8-14.5,68.2-52.8,68.2-97.6c0-2.5-0.1-5-0.3-7.4C362.8,243.4,372.5,239.4,381,233.8z"/>
<path class="st2" d="M381,233.8c-8.5,5.6-18.2,9.5-28.6,11.5c0.2,2.4,0.3,4.9,0.3,7.4c0,44.8-28.4,83-68.2,97.6
	c-3.6,1.3-6,4.8-6,8.6v11.8c0,6.3,6.2,10.7,12.1,8.8c53.3-17.5,91.7-67.7,91.7-126.8C382.3,246.3,381.9,240,381,233.8z M346.5,217.4
	c10.2-1.7,19.5-6.3,26.8-13c-1.5-3.9-3.2-7.7-5.1-11.5c-6.7,7.3-16.1,12.2-26.6,13.2C343.5,209.8,345.1,213.6,346.5,217.4z
	 M360.6,179.8c-0.7-1.1-1.4-2.2-2.2-3.2l-17.6-10.5V156c-2.8-2.7-5.8-5.2-8.8-7.7v22.8L357,186L360.6,179.8z M310.5,169.2l3.9-3.9
	h-9.6C306.8,166.5,308.7,167.8,310.5,169.2z M310.7,134.5c-3.7-1.9-7.5-3.7-11.4-5.3c-6.8,7.2-11.5,16.4-13.4,26.5
	c3.8,1.5,7.5,3.1,11.1,5C298.2,150.3,303.2,141.1,310.7,134.5z M314.9,243.6c-13.3-3.8-25.1-11-34.4-20.5c-0.7-0.7-1.4-1.4-2-2.1
	V295c0,8,9.6,12.2,15.5,6.8c13.3-12.1,21.6-29.6,21.6-49C315.6,249.6,315.4,246.6,314.9,243.6z M233.1,149.8l-55.7,55.7
	c-1.7,1.7-4.1,2.7-6.5,2.7h-46.3c-5.1,0-9.2,4.1-9.2,9.2V288c0,5.1,4.1,9.2,9.2,9.2h46.3c2.5,0,4.8,1,6.5,2.7l55.7,55.7
	c5.8,5.8,15.8,1.7,15.8-6.5V156.3C248.8,148.1,238.9,144,233.1,149.8z"/>
<polygon class="st0" points="340.8,166.1 358.5,176.6 361.5,178.4 360.6,179.8 357,186 332,171.2 332,141.8 340.8,141.8 "/>
<path class="st0" d="M373.3,204.5c-7.4,6.7-16.6,11.3-26.8,13c-2.8,0.5-5.7,0.7-8.6,0.7c-14.6,0-27.8-5.9-37.3-15.5l8.3-8.3
	c7.4,7.5,17.7,12.1,29,12.1c1.3,0,2.5-0.1,3.8-0.2c10.5-1,19.9-5.9,26.6-13.2c7-7.7,11.1-18,10.7-29.3
	c-0.8-21.3-18.2-38.7-39.5-39.5c-11.1-0.4-21.2,3.5-28.8,10.3c-7.5,6.6-12.5,15.8-13.6,26.2c-0.2,1.5-0.2,3-0.2,4.6h17.6l-3.9,3.9
	l-19.8,19.8l-0.4-0.8l-22.8-22.8h17.6c0-3.3,0.3-6.5,0.9-9.6c1.9-10.1,6.6-19.3,13.4-26.5c10.2-10.9,24.9-17.4,41.1-16.7
	c27.1,1.2,49,23.2,50.3,50.3C391.4,179.3,384.6,194.3,373.3,204.5z"/>
<path class="st1" d="M278.5,221c0.7,0.7,1.3,1.4,2,2.1h-2V221z"/>
<polygon class="st1" points="340.8,166.1 358.5,176.6 361.5,178.4 360.6,179.8 357,186 332,171.2 332,141.8 340.8,141.8 "/>
<path class="st1" d="M373.3,204.5c-7.4,6.7-16.6,11.3-26.8,13c-2.8,0.5-5.7,0.7-8.6,0.7c-14.6,0-27.8-5.9-37.3-15.5l8.3-8.3
	c7.4,7.5,17.7,12.1,29,12.1c1.3,0,2.5-0.1,3.8-0.2c10.5-1,19.9-5.9,26.6-13.2c7-7.7,11.1-18,10.7-29.3
	c-0.8-21.3-18.2-38.7-39.5-39.5c-11.1-0.4-21.2,3.5-28.8,10.3c-7.5,6.6-12.5,15.8-13.6,26.2c-0.2,1.5-0.2,3-0.2,4.6h17.6l-3.9,3.9
	l-19.8,19.8l-0.4-0.8l-22.8-22.8h17.6c0-3.3,0.3-6.5,0.9-9.6c1.9-10.1,6.6-19.3,13.4-26.5c10.2-10.9,24.9-17.4,41.1-16.7
	c27.1,1.2,49,23.2,50.3,50.3C391.4,179.3,384.6,194.3,373.3,204.5z"/>
<path class="st2" d="M358.5,176.6l-17.6-10.5v-24.3H332v29.4L357,186l3.7-6.2l0.8-1.4L358.5,176.6z M390.7,162.8
	c-1.2-27.1-23.2-49-50.3-50.3c-16.2-0.8-30.9,5.8-41.1,16.7c-6.8,7.2-11.5,16.4-13.4,26.5c-0.6,3.1-0.9,6.3-0.9,9.6h-17.6l22.8,22.8
	l0.4,0.8l19.8-19.8l3.9-3.9h-17.6c0-1.5,0.1-3.1,0.2-4.6c1.2-10.4,6.2-19.7,13.6-26.2c7.6-6.7,17.7-10.7,28.8-10.3
	c21.3,0.8,38.7,18.2,39.5,39.5c0.4,11.3-3.7,21.6-10.7,29.3c-6.7,7.3-16.1,12.2-26.6,13.2c-1.2,0.1-2.5,0.2-3.8,0.2
	c-11.3,0-21.6-4.6-29-12.1l-8.3,8.3c9.6,9.6,22.7,15.5,37.3,15.5c2.9,0,5.8-0.2,8.6-0.7c10.2-1.7,19.5-6.3,26.8-13
	C384.6,194.3,391.4,179.3,390.7,162.8z M358.5,176.6c0.8,1.1,1.5,2.1,2.2,3.2l0.8-1.4L358.5,176.6z M340.8,141.8H332v6.6
	c3,2.4,6,5,8.8,7.7V141.8z"/>
</svg>
