<svg id="Layer_1" data-name="Layer 1" xmlns="http://www.w3.org/2000/svg" viewBox="0 0 1200 600"><defs><style>.cls-1,.cls-2{fill:#fff;}.cls-2{opacity:0.39;}</style></defs><path class="cls-1" d="M731.72,386.25A131.53,131.53,0,0,1,616.47,516.82V483.56c46.59-7.9,82.32-48.41,82.32-97.31A98.87,98.87,0,0,0,600,287.46v49.4L534.14,271,600,205.13v49.4A131.68,131.68,0,0,1,731.72,386.25Z"/><path class="cls-2" d="M583.53,483.56v33.26a131.71,131.71,0,0,1-76.72-223.76l23.38,23.38a98.43,98.43,0,0,0-29,69.81C501.21,435.15,536.94,475.66,583.53,483.56Z"/><path class="cls-1" d="M351.47,69.54h12.34v88H351.47Zm6.17,76.22H408V157.5H357.64Z"/><path class="cls-1" d="M434.83,157.5H422.49v-88h12.34Z"/><path class="cls-1" d="M456.61,69.54H469v88H456.61Zm6,0H512V81.28H462.65Zm0,39.2H505.3v11.74H462.65Z"/><path class="cls-1" d="M527.08,69.54h12.34v88H527.08Zm6,0h50.51V81.28H533.07Zm0,38.42h43.85v11.73H533.07Zm0,37.8h50.51V157.5H533.07Z"/><path class="cls-1" d="M591.44,69.54H653.5V81.28H591.44Zm24.86,7.2h12.34V157.5H616.3Z"/><path class="cls-1" d="M677.94,157.5H665.6v-88h12.34Z"/><path class="cls-1" d="M762.93,69.54h11.56v88h-12V91.62l.6,3.87L741.4,145.28h-8.59L711.15,96.7l.61-5.08V157.5h-12v-88h11.55l25.83,58.08Z"/><path class="cls-1" d="M796.26,69.54H808.6v88H796.26Zm6,0h50.51V81.28H802.25Zm0,38.42h43.86v11.73H802.25Zm0,37.8h50.51V157.5H802.25Z"/></svg>