<?xml version="1.0" encoding="utf-8"?>
<!-- Generator: Adobe Illustrator 25.0.0, SVG Export Plug-In . SVG Version: 6.00 Build 0)  -->
<svg version="1.1" id="Layer_1" xmlns="http://www.w3.org/2000/svg" xmlns:xlink="http://www.w3.org/1999/xlink" x="0px" y="0px"
	 viewBox="0 0 1500 1500" style="enable-background:new 0 0 1500 1500;" xml:space="preserve">
<style type="text/css">
	.st0{fill:#2F3136;}
	.st1{fill:#72767D;}
	.st2{fill:#EB459E;}
	.st3{fill:#FFFFFF;}
	.st4{fill:#57F287;}
	.st5{fill:#FEE75C;}
	.st6{fill:#34373C;}
	.st7{fill:#202225;}
	.st8{fill:#5865F2;}
	.st9{fill:#ED4245;}
	.st10{opacity:0.42;}
	.st11{fill:#4FDC7C;}
</style>
<path class="st0" d="M700,272.1H74.3c-12.8,0-23.2-10.4-23.2-23.2v0c0-12.8,10.4-23.2,23.2-23.2H700c12.8,0,23.2,10.4,23.2,23.2v0
	C723.2,261.7,712.8,272.1,700,272.1z"/>
<path class="st0" d="M683.5,395.8H90.8c-21.9,0-39.6-17.7-39.6-39.6v-21.7c0-21.9,17.7-39.6,39.6-39.6h592.8
	c21.9,0,39.6,17.7,39.6,39.6v21.7C723.2,378.1,705.4,395.8,683.5,395.8z"/>
<path class="st1" d="M113.5,340.2c0.1,0.1,0.3,0.3,0.4,0.4h-0.4V340.2z"/>
<g>
	<g>
		<g>
			<path class="st1" d="M169.9,359.9c-1.5-0.9-2.8-2.2-3.6-3.9c-0.9-1.7-1.3-3.6-1.3-5.8v-8.1c0-2.2,0.4-4.1,1.3-5.8s2.1-3,3.6-3.9
				c1.5-0.9,3.3-1.4,5.4-1.4c1.7,0,3.2,0.4,4.7,1.1s2.6,1.7,3.6,3.1c1,1.3,1.6,2.9,1.9,4.6h-4.2c-0.3-0.9-0.7-1.7-1.3-2.5
				s-1.3-1.3-2.1-1.7c-0.8-0.4-1.7-0.6-2.5-0.6c-1.2,0-2.3,0.3-3.2,0.9c-0.9,0.6-1.6,1.4-2.1,2.4c-0.5,1-0.8,2.3-0.8,3.7v8.1
				c0,1.4,0.3,2.6,0.8,3.7c0.5,1.1,1.2,1.9,2.1,2.4c0.9,0.6,2,0.9,3.2,0.9c0.9,0,1.7-0.2,2.5-0.5c0.8-0.4,1.5-0.9,2.1-1.6
				c0.6-0.7,1-1.6,1.3-2.6h4.2c-0.3,1.7-1,3.3-1.9,4.6c-1,1.3-2.2,2.4-3.6,3.1c-1.4,0.7-3,1.1-4.6,1.1
				C173.2,361.3,171.4,360.8,169.9,359.9z"/>
			<path class="st1" d="M191.3,331.5h4.1V361h-4.1V331.5z M193.1,344.6h10.1c0.8,0,1.5-0.2,2.1-0.6c0.6-0.4,1.1-0.9,1.4-1.6
				c0.3-0.7,0.5-1.5,0.5-2.4s-0.2-1.7-0.5-2.4c-0.3-0.7-0.8-1.2-1.4-1.6c-0.6-0.4-1.3-0.6-2.1-0.6h-10.1v-3.9h9.9
				c1.7,0,3.2,0.4,4.5,1.1c1.3,0.7,2.3,1.7,3,3c0.7,1.3,1.1,2.8,1.1,4.5s-0.4,3.2-1.1,4.5c-0.7,1.3-1.7,2.3-3,3
				c-1.3,0.7-2.8,1.1-4.5,1.1h-9.9V344.6z M201.2,347.6l4.1-0.9l7.6,14.3h-4.9L201.2,347.6z"/>
			<path class="st1" d="M218.4,331.5h4.1V361h-4.1V331.5z M220.4,331.5h16.9v3.9h-16.9V331.5z M220.4,344.4h14.7v3.9h-14.7V344.4z
				 M220.4,357.1h16.9v3.9h-16.9V357.1z"/>
			<path class="st1" d="M251.3,331.5h3.5l10.9,29.5h-4.5l-8.2-23.8l-8.2,23.8h-4.5L251.3,331.5z M245.4,350.6H261v3.9h-15.5V350.6z"
				/>
			<path class="st1" d="M266.1,331.5h20.8v3.9h-20.8V331.5z M274.5,333.9h4.1V361h-4.1V333.9z"/>
			<path class="st1" d="M290.2,331.5h4.1V361h-4.1V331.5z M292.2,331.5h16.9v3.9h-16.9V331.5z M292.2,344.4h14.7v3.9h-14.7V344.4z
				 M292.2,357.1h16.9v3.9h-16.9V357.1z"/>
			<path class="st1" d="M330.5,359.9c-1.5-0.9-2.8-2.2-3.6-3.9c-0.9-1.7-1.3-3.6-1.3-5.8v-8.1c0-2.2,0.4-4.1,1.3-5.8s2.1-3,3.6-3.9
				c1.5-0.9,3.3-1.4,5.4-1.4c1.7,0,3.2,0.4,4.7,1.1s2.6,1.7,3.6,3.1c1,1.3,1.6,2.9,1.9,4.6h-4.2c-0.3-0.9-0.7-1.7-1.3-2.5
				s-1.3-1.3-2.1-1.7c-0.8-0.4-1.7-0.6-2.5-0.6c-1.2,0-2.3,0.3-3.2,0.9c-0.9,0.6-1.6,1.4-2.1,2.4c-0.5,1-0.8,2.3-0.8,3.7v8.1
				c0,1.4,0.3,2.6,0.8,3.7c0.5,1.1,1.2,1.9,2.1,2.4c0.9,0.6,2,0.9,3.2,0.9c0.9,0,1.7-0.2,2.5-0.5c0.8-0.4,1.5-0.9,2.1-1.6
				c0.6-0.7,1-1.6,1.3-2.6h4.2c-0.3,1.7-1,3.3-1.9,4.6c-1,1.3-2.2,2.4-3.6,3.1c-1.4,0.7-3,1.1-4.6,1.1
				C333.8,361.3,332,360.8,330.5,359.9z"/>
			<path class="st1" d="M351.9,331.5h4.1V361h-4.1V331.5z M354.5,344.5h16.4v3.9h-16.4V344.5z M368.7,331.5h4.1V361h-4.1V331.5z"/>
			<path class="st1" d="M388.2,331.5h3.5l10.9,29.5h-4.5l-8.2-23.8l-8.2,23.8h-4.5L388.2,331.5z M382.3,350.6h15.5v3.9h-15.5V350.6z
				"/>
			<path class="st1" d="M407,331.5h3.8l14.4,22.8l-0.5,0.5v-23.3h4.1V361H425l-14.4-22.5l0.5-0.5v23H407V331.5z"/>
			<path class="st1" d="M436.1,331.5h3.8l14.4,22.8l-0.5,0.5v-23.3h4.1V361h-3.8l-14.4-22.5l0.5-0.5v23h-4.1V331.5z"/>
			<path class="st1" d="M465.2,331.5h4.1V361h-4.1V331.5z M467.3,331.5h16.9v3.9h-16.9V331.5z M467.3,344.4H482v3.9h-14.7V344.4z
				 M467.3,357.1h16.9v3.9h-16.9V357.1z"/>
			<path class="st1" d="M490.1,331.5h4.1V361h-4.1V331.5z M492.2,357.1H509v3.9h-16.9V357.1z"/>
		</g>
	</g>
</g>
<path class="st1" d="M111.2,372.8L111.2,372.8c-2.7,0-4.8-2.2-4.8-4.8v-46.5c0-2.7,2.2-4.8,4.8-4.8h0c2.7,0,4.8,2.2,4.8,4.8V368
	C116.1,370.7,113.9,372.8,111.2,372.8z"/>
<path class="st1" d="M139.3,344.7L139.3,344.7c0,2.7-2.2,4.8-4.8,4.8H88c-2.7,0-4.8-2.2-4.8-4.8l0,0c0-2.7,2.2-4.8,4.8-4.8h46.5
	C137.2,339.9,139.3,342.1,139.3,344.7z"/>
<path class="st1" d="M90.3,243.2L90.3,243.2c0.5,0.5,0.5,1.4,0,1.9l-9.4,9.4c-0.5,0.5-1.4,0.5-1.9,0v0c-0.5-0.5-0.5-1.4,0-1.9
	l9.4-9.4C88.9,242.7,89.8,242.7,90.3,243.2z"/>
<path class="st1" d="M69.5,243.2L69.5,243.2c0.5-0.5,1.4-0.5,1.9,0l9.4,9.4c0.5,0.5,0.5,1.4,0,1.9h0c-0.5,0.5-1.4,0.5-1.9,0
	l-9.4-9.4C68.9,244.6,68.9,243.8,69.5,243.2z"/>
<g>
	<g>
		<g>
			<path class="st1" d="M108.9,239.1h2.8v19.6h-2.8V239.1z M110.2,239.1h11.3v2.6h-11.3V239.1z M110.2,247.7h9.8v2.6h-9.8V247.7z
				 M110.2,256.1h11.3v2.6h-11.3V256.1z"/>
			<path class="st1" d="M130.7,239.1h2.3l7.2,19.6h-3l-5.4-15.8l-5.4,15.8h-3L130.7,239.1z M126.8,251.8h10.3v2.6h-10.3V251.8z"/>
			<path class="st1" d="M146.1,258c-1-0.6-1.8-1.5-2.4-2.6s-0.9-2.4-0.9-3.8v-5.4c0-1.5,0.3-2.7,0.9-3.8s1.4-2,2.4-2.6
				c1-0.6,2.2-0.9,3.6-0.9c1.1,0,2.2,0.2,3.1,0.7s1.7,1.2,2.4,2c0.6,0.9,1.1,1.9,1.3,3.1h-2.8c-0.2-0.6-0.5-1.2-0.9-1.6
				c-0.4-0.5-0.9-0.9-1.4-1.1c-0.5-0.3-1.1-0.4-1.7-0.4c-0.8,0-1.5,0.2-2.1,0.6c-0.6,0.4-1.1,0.9-1.4,1.6c-0.3,0.7-0.5,1.5-0.5,2.4
				v5.4c0,0.9,0.2,1.7,0.5,2.4c0.3,0.7,0.8,1.2,1.4,1.6c0.6,0.4,1.3,0.6,2.1,0.6c0.6,0,1.1-0.1,1.7-0.4s1-0.6,1.4-1.1
				c0.4-0.5,0.7-1,0.9-1.7h2.8c-0.2,1.2-0.7,2.2-1.3,3.1c-0.6,0.9-1.4,1.6-2.4,2c-0.9,0.5-2,0.7-3.1,0.7
				C148.4,258.9,147.2,258.6,146.1,258z"/>
			<path class="st1" d="M160.4,239.1h2.8v19.6h-2.8V239.1z M162.1,247.8H173v2.6h-10.9V247.8z M171.6,239.1h2.8v19.6h-2.8V239.1z"/>
			<path class="st1" d="M189.5,258c-1-0.6-1.8-1.5-2.4-2.6s-0.9-2.4-0.9-3.8v-5.4c0-1.5,0.3-2.7,0.9-3.8s1.4-2,2.4-2.6
				c1-0.6,2.2-0.9,3.6-0.9c1.1,0,2.2,0.2,3.1,0.7s1.7,1.2,2.4,2c0.6,0.9,1.1,1.9,1.3,3.1H197c-0.2-0.6-0.5-1.2-0.9-1.6
				c-0.4-0.5-0.9-0.9-1.4-1.1c-0.5-0.3-1.1-0.4-1.7-0.4c-0.8,0-1.5,0.2-2.1,0.6c-0.6,0.4-1.1,0.9-1.4,1.6c-0.3,0.7-0.5,1.5-0.5,2.4
				v5.4c0,0.9,0.2,1.7,0.5,2.4c0.3,0.7,0.8,1.2,1.4,1.6c0.6,0.4,1.3,0.6,2.1,0.6c0.6,0,1.1-0.1,1.7-0.4s1-0.6,1.4-1.1
				c0.4-0.5,0.7-1,0.9-1.7h2.8c-0.2,1.2-0.7,2.2-1.3,3.1c-0.6,0.9-1.4,1.6-2.4,2c-0.9,0.5-2,0.7-3.1,0.7
				C191.7,258.9,190.5,258.6,189.5,258z"/>
			<path class="st1" d="M203.7,239.1h2.8v19.6h-2.8V239.1z M205.4,247.8h10.9v2.6h-10.9V247.8z M214.9,239.1h2.8v19.6h-2.8V239.1z"
				/>
			<path class="st1" d="M227.9,239.1h2.3l7.2,19.6h-3l-5.4-15.8l-5.4,15.8h-3L227.9,239.1z M223.9,251.8h10.3v2.6h-10.3V251.8z"/>
			<path class="st1" d="M240.4,239.1h2.5l9.6,15.2l-0.3,0.4v-15.5h2.7v19.6h-2.5l-9.6-15l0.3-0.4v15.3h-2.7V239.1z"/>
			<path class="st1" d="M259.8,239.1h2.5l9.6,15.2l-0.3,0.4v-15.5h2.7v19.6h-2.5l-9.6-15l0.3-0.4v15.3h-2.7V239.1z"/>
			<path class="st1" d="M279.1,239.1h2.8v19.6h-2.8V239.1z M280.5,239.1h11.3v2.6h-11.3V239.1z M280.5,247.7h9.8v2.6h-9.8V247.7z
				 M280.5,256.1h11.3v2.6h-11.3V256.1z"/>
			<path class="st1" d="M295.7,239.1h2.8v19.6h-2.8V239.1z M297.1,256.1h11.2v2.6h-11.2V256.1z"/>
			<path class="st1" d="M319,239.1h2.8v19.6H319V239.1z M320.7,247.8h10.9v2.6h-10.9V247.8z M330.1,239.1h2.8v19.6h-2.8V239.1z"/>
			<path class="st1" d="M343.1,239.1h2.3l7.2,19.6h-3l-5.4-15.8l-5.4,15.8h-3L343.1,239.1z M339.2,251.8h10.3v2.6h-10.3V251.8z"/>
			<path class="st1" d="M358.9,258.7c-0.8-0.2-1.6-0.5-2.4-0.8c-0.7-0.4-1.4-0.8-2.1-1.4l1.7-2.1c0.7,0.6,1.6,1.1,2.5,1.5
				s1.9,0.5,2.9,0.5c1.4,0,2.5-0.3,3.3-0.8s1.2-1.3,1.2-2.2v0c0-0.7-0.2-1.2-0.5-1.6s-0.8-0.7-1.4-0.9c-0.6-0.2-1.3-0.4-2.2-0.5
				c0,0-0.1,0-0.1,0s-0.1,0-0.1,0l-0.2,0c-1.3-0.2-2.4-0.5-3.2-0.8c-0.8-0.3-1.5-0.8-2.1-1.6c-0.6-0.8-0.9-1.8-0.9-3.2v0
				c0-1.2,0.3-2.3,0.8-3.1c0.5-0.9,1.3-1.5,2.4-2c1-0.5,2.3-0.7,3.8-0.7c0.7,0,1.4,0.1,2.1,0.2c0.7,0.2,1.4,0.4,2,0.7
				c0.7,0.3,1.3,0.7,2,1.1l-1.6,2.2c-0.7-0.5-1.5-1-2.2-1.2c-0.7-0.3-1.5-0.4-2.2-0.4c-1.3,0-2.4,0.3-3.1,0.8
				c-0.7,0.5-1.1,1.3-1.1,2.3v0c0,0.7,0.2,1.2,0.6,1.6c0.4,0.4,0.9,0.7,1.4,0.9c0.6,0.2,1.4,0.4,2.4,0.6c0,0,0.1,0,0.1,0
				c0,0,0.1,0,0.1,0c0,0,0.1,0,0.1,0c0.1,0,0.1,0,0.1,0c1.2,0.2,2.2,0.5,3,0.9s1.5,0.9,2,1.6c0.5,0.7,0.8,1.8,0.8,3v0
				c0,1.2-0.3,2.2-0.9,3.1c-0.6,0.9-1.4,1.5-2.5,1.9c-1.1,0.4-2.4,0.7-3.9,0.7C360.6,258.9,359.7,258.9,358.9,258.7z"/>
			<path class="st1" d="M382.9,258.7h-2.8v-19.6h2.8V258.7z"/>
			<path class="st1" d="M385,239.1h13.9v2.6H385V239.1z M390.6,240.7h2.8v18h-2.8V240.7z"/>
			<path class="st1" d="M404.2,258.7c-0.8-0.2-1.6-0.5-2.4-0.8c-0.7-0.4-1.4-0.8-2.1-1.4l1.7-2.1c0.7,0.6,1.6,1.1,2.5,1.5
				s1.9,0.5,2.9,0.5c1.4,0,2.5-0.3,3.3-0.8s1.2-1.3,1.2-2.2v0c0-0.7-0.2-1.2-0.5-1.6s-0.8-0.7-1.4-0.9c-0.6-0.2-1.3-0.4-2.2-0.5
				c0,0-0.1,0-0.1,0s-0.1,0-0.1,0l-0.2,0c-1.3-0.2-2.4-0.5-3.2-0.8c-0.8-0.3-1.5-0.8-2.1-1.6c-0.6-0.8-0.9-1.8-0.9-3.2v0
				c0-1.2,0.3-2.3,0.8-3.1c0.5-0.9,1.3-1.5,2.4-2c1-0.5,2.3-0.7,3.8-0.7c0.7,0,1.4,0.1,2.1,0.2c0.7,0.2,1.4,0.4,2,0.7
				c0.7,0.3,1.3,0.7,2,1.1l-1.6,2.2c-0.7-0.5-1.5-1-2.2-1.2c-0.7-0.3-1.5-0.4-2.2-0.4c-1.3,0-2.4,0.3-3.1,0.8
				c-0.7,0.5-1.1,1.3-1.1,2.3v0c0,0.7,0.2,1.2,0.6,1.6c0.4,0.4,0.9,0.7,1.4,0.9c0.6,0.2,1.4,0.4,2.4,0.6c0,0,0.1,0,0.1,0
				c0,0,0.1,0,0.1,0c0,0,0.1,0,0.1,0c0.1,0,0.1,0,0.1,0c1.2,0.2,2.2,0.5,3,0.9s1.5,0.9,2,1.6c0.5,0.7,0.8,1.8,0.8,3v0
				c0,1.2-0.3,2.2-0.9,3.1c-0.6,0.9-1.4,1.5-2.5,1.9c-1.1,0.4-2.4,0.7-3.9,0.7C406,258.9,405.1,258.9,404.2,258.7z"/>
			<path class="st1" d="M428.4,258.1c-1-0.6-1.9-1.4-2.4-2.5c-0.6-1.1-0.9-2.4-0.9-3.8v-5.6c0-1.4,0.3-2.7,0.9-3.8
				c0.6-1.1,1.4-1.9,2.4-2.5s2.3-0.9,3.6-0.9c1.4,0,2.6,0.3,3.6,0.9c1,0.6,1.9,1.4,2.4,2.5c0.6,1.1,0.9,2.4,0.9,3.8v5.6
				c0,1.4-0.3,2.7-0.9,3.8c-0.6,1.1-1.4,1.9-2.4,2.5c-1,0.6-2.3,0.9-3.6,0.9C430.6,258.9,429.4,258.7,428.4,258.1z M434.1,255.7
				c0.6-0.4,1.1-0.9,1.4-1.6c0.3-0.7,0.5-1.4,0.5-2.3v-5.8c0-0.9-0.2-1.7-0.5-2.3c-0.3-0.7-0.8-1.2-1.4-1.6
				c-0.6-0.4-1.3-0.5-2.1-0.5c-0.8,0-1.5,0.2-2.1,0.5c-0.6,0.4-1.1,0.9-1.4,1.6c-0.3,0.7-0.5,1.4-0.5,2.3v5.8c0,0.9,0.2,1.7,0.5,2.3
				c0.3,0.7,0.8,1.2,1.4,1.6c0.6,0.4,1.3,0.5,2.1,0.5C432.8,256.2,433.5,256.1,434.1,255.7z"/>
			<path class="st1" d="M451.7,239.1h1.9l4,15.4l3.5-15.4h2.9l-4.8,19.6h-2.8l-3.6-13.7l-3.8,13.7h-2.8l-4.8-19.6h2.9l3.5,15.4
				L451.7,239.1z"/>
			<path class="st1" d="M466.8,239.1h2.5l9.6,15.2l-0.3,0.4v-15.5h2.7v19.6h-2.5l-9.6-15l0.3-0.4v15.3h-2.7V239.1z"/>
			<path class="st1" d="M496.4,258c-1-0.6-1.8-1.5-2.4-2.6s-0.9-2.4-0.9-3.8v-5.4c0-1.5,0.3-2.7,0.9-3.8s1.4-2,2.4-2.6
				c1-0.6,2.2-0.9,3.6-0.9c1.1,0,2.2,0.2,3.1,0.7s1.7,1.2,2.4,2c0.6,0.9,1.1,1.9,1.3,3.1h-2.8c-0.2-0.6-0.5-1.2-0.9-1.6
				c-0.4-0.5-0.9-0.9-1.4-1.1c-0.5-0.3-1.1-0.4-1.7-0.4c-0.8,0-1.5,0.2-2.1,0.6c-0.6,0.4-1.1,0.9-1.4,1.6c-0.3,0.7-0.5,1.5-0.5,2.4
				v5.4c0,0.9,0.2,1.7,0.5,2.4c0.3,0.7,0.8,1.2,1.4,1.6c0.6,0.4,1.3,0.6,2.1,0.6c0.6,0,1.1-0.1,1.7-0.4s1-0.6,1.4-1.1
				c0.4-0.5,0.7-1,0.9-1.7h2.8c-0.2,1.2-0.7,2.2-1.3,3.1c-0.6,0.9-1.4,1.6-2.4,2c-0.9,0.5-2,0.7-3.1,0.7
				C498.6,258.9,497.4,258.6,496.4,258z"/>
			<path class="st1" d="M516,239.1h2.3l7.2,19.6h-3l-5.4-15.8l-5.4,15.8h-3L516,239.1z M512.1,251.8h10.3v2.6h-10.3V251.8z"/>
			<path class="st1" d="M525.9,239.1h13.9v2.6h-13.9V239.1z M531.4,240.7h2.8v18h-2.8V240.7z"/>
			<path class="st1" d="M541.9,239.1h2.8v19.6h-2.8V239.1z M543.2,239.1h11.3v2.6h-11.3V239.1z M543.2,247.7h9.8v2.6h-9.8V247.7z
				 M543.2,256.1h11.3v2.6h-11.3V256.1z"/>
			<path class="st1" d="M571.9,248.2v3.4c0,1.5-0.3,2.7-0.9,3.9c-0.6,1.1-1.4,2-2.4,2.6s-2.2,0.9-3.6,0.9c-1.4,0-2.6-0.3-3.7-0.9
				c-1-0.6-1.9-1.4-2.4-2.4c-0.6-1-0.9-2.3-0.9-3.6v-5.8c0-1.5,0.3-2.7,0.9-3.8s1.4-2,2.4-2.6c1-0.6,2.2-0.9,3.6-0.9
				c1.1,0,2.2,0.2,3.1,0.7c0.9,0.5,1.7,1.2,2.4,2c0.6,0.9,1.1,1.9,1.3,3.1h-3c-0.2-0.7-0.4-1.2-0.8-1.7s-0.8-0.8-1.4-1.1
				c-0.5-0.2-1.1-0.4-1.6-0.4c-0.8,0-1.5,0.2-2.1,0.6s-1.1,0.9-1.4,1.6c-0.3,0.7-0.5,1.5-0.5,2.4v5.8c0,0.8,0.2,1.6,0.5,2.2
				c0.3,0.6,0.8,1.1,1.5,1.5s1.3,0.5,2.2,0.5c0.8,0,1.5-0.2,2.1-0.5c0.6-0.4,1.1-0.9,1.4-1.6s0.5-1.5,0.5-2.5v-0.9h-4v-2.6H571.9z"
				/>
			<path class="st1" d="M579.2,258.1c-1-0.6-1.9-1.4-2.4-2.5c-0.6-1.1-0.9-2.4-0.9-3.8v-5.6c0-1.4,0.3-2.7,0.9-3.8
				c0.6-1.1,1.4-1.9,2.4-2.5s2.3-0.9,3.6-0.9c1.4,0,2.6,0.3,3.6,0.9c1,0.6,1.9,1.4,2.4,2.5c0.6,1.1,0.9,2.4,0.9,3.8v5.6
				c0,1.4-0.3,2.7-0.9,3.8c-0.6,1.1-1.4,1.9-2.4,2.5c-1,0.6-2.3,0.9-3.6,0.9C581.4,258.9,580.2,258.7,579.2,258.1z M584.9,255.7
				c0.6-0.4,1.1-0.9,1.4-1.6c0.3-0.7,0.5-1.4,0.5-2.3v-5.8c0-0.9-0.2-1.7-0.5-2.3c-0.3-0.7-0.8-1.2-1.4-1.6
				c-0.6-0.4-1.3-0.5-2.1-0.5c-0.8,0-1.5,0.2-2.1,0.5c-0.6,0.4-1.1,0.9-1.4,1.6c-0.3,0.7-0.5,1.4-0.5,2.3v5.8c0,0.9,0.2,1.7,0.5,2.3
				c0.3,0.7,0.8,1.2,1.4,1.6c0.6,0.4,1.3,0.5,2.1,0.5C583.6,256.2,584.3,256.1,584.9,255.7z"/>
			<path class="st1" d="M594.2,239.1h2.8v19.7h-2.8V239.1z M595.4,247.8h6.7c0.5,0,1-0.1,1.4-0.4c0.4-0.3,0.7-0.6,0.9-1.1
				s0.3-1,0.3-1.6c0-0.6-0.1-1.1-0.3-1.6c-0.2-0.5-0.5-0.8-0.9-1.1s-0.9-0.4-1.4-0.4h-6.7v-2.6h6.6c1.1,0,2.1,0.2,3,0.7
				c0.9,0.5,1.5,1.1,2,2c0.5,0.9,0.7,1.9,0.7,3c0,1.1-0.2,2.1-0.7,3c-0.5,0.9-1.1,1.5-2,2c-0.9,0.5-1.9,0.7-3,0.7h-6.6V247.8z
				 M600.7,249.8l2.7-0.6l5,9.5h-3.3L600.7,249.8z"/>
			<path class="st1" d="M618.1,250.8v8h-2.8v-8l-6-11.7h3.1l4.3,8.9l4.3-8.9h3.1L618.1,250.8z"/>
		</g>
	</g>
</g>
<path class="st1" d="M1066,662.6L1066,662.6c0.5,0.5,0.5,1.4,0,1.9l-9.4,9.4c-0.5,0.5-1.4,0.5-1.9,0l0,0c-0.5-0.5-0.5-1.4,0-1.9
	l9.4-9.4C1064.6,662.1,1065.5,662.1,1066,662.6z"/>
<path class="st1" d="M1045.2,662.6L1045.2,662.6c0.5-0.5,1.4-0.5,1.9,0l9.4,9.4c0.5,0.5,0.5,1.4,0,1.9l0,0c-0.5,0.5-1.4,0.5-1.9,0
	l-9.4-9.4C1044.6,664,1044.6,663.2,1045.2,662.6z"/>
<g>
	<g>
		<g>
			<path class="st1" d="M1081.8,658.5h13.9v2.6h-13.9V658.5z M1087.4,660.1h2.8v18h-2.8V660.1z"/>
			<path class="st1" d="M1100.6,678.1h-2.8v-19.6h2.8V678.1z"/>
			<path class="st1" d="M1119.6,658.5h2.6v19.6h-2.7v-14.7l0.1,0.9l-4.8,11.1h-1.9l-4.8-10.8l0.1-1.1v14.7h-2.7v-19.6h2.6l5.8,13
				L1119.6,658.5z"/>
		</g>
	</g>
</g>
<path class="st0" d="M1425.7,407.1H800c-12.8,0-23.2-10.4-23.2-23.2v0c0-12.8,10.4-23.2,23.2-23.2h625.7c12.8,0,23.2,10.4,23.2,23.2
	v0C1448.8,396.7,1438.5,407.1,1425.7,407.1z"/>
<path class="st0" d="M1409.2,530.8H816.5c-21.9,0-39.6-17.7-39.6-39.6v-21.7c0-21.9,17.7-39.6,39.6-39.6h592.8
	c21.9,0,39.6,17.7,39.6,39.6v21.7C1448.8,513.1,1431.1,530.8,1409.2,530.8z"/>
<path class="st1" d="M839.2,475.2c0.1,0.1,0.3,0.3,0.4,0.4h-0.4V475.2z"/>
<g>
	<g>
		<g>
			<path class="st1" d="M895.5,494.9c-1.5-0.9-2.8-2.2-3.6-3.9c-0.9-1.7-1.3-3.6-1.3-5.8v-8.1c0-2.2,0.4-4.1,1.3-5.8s2.1-3,3.6-3.9
				c1.5-0.9,3.3-1.4,5.4-1.4c1.7,0,3.2,0.4,4.7,1.1s2.6,1.7,3.6,3.1c1,1.3,1.6,2.9,1.9,4.6h-4.2c-0.3-0.9-0.7-1.7-1.3-2.5
				s-1.3-1.3-2.1-1.7c-0.8-0.4-1.7-0.6-2.5-0.6c-1.2,0-2.3,0.3-3.2,0.9c-0.9,0.6-1.6,1.4-2.1,2.4c-0.5,1-0.8,2.3-0.8,3.7v8.1
				c0,1.4,0.3,2.6,0.8,3.7c0.5,1.1,1.2,1.9,2.1,2.4c0.9,0.6,2,0.9,3.2,0.9c0.9,0,1.7-0.2,2.5-0.5c0.8-0.4,1.5-0.9,2.1-1.6
				c0.6-0.7,1-1.6,1.3-2.6h4.2c-0.3,1.7-1,3.3-1.9,4.6c-1,1.3-2.2,2.4-3.6,3.1c-1.4,0.7-3,1.1-4.6,1.1
				C898.9,496.3,897.1,495.8,895.5,494.9z"/>
			<path class="st1" d="M917,466.5h4.1V496H917V466.5z M918.8,479.6h10.1c0.8,0,1.5-0.2,2.1-0.6c0.6-0.4,1.1-0.9,1.4-1.6
				c0.3-0.7,0.5-1.5,0.5-2.4s-0.2-1.7-0.5-2.4c-0.3-0.7-0.8-1.2-1.4-1.6c-0.6-0.4-1.3-0.6-2.1-0.6h-10.1v-3.9h9.9
				c1.7,0,3.2,0.4,4.5,1.1c1.3,0.7,2.3,1.7,3,3c0.7,1.3,1.1,2.8,1.1,4.5s-0.4,3.2-1.1,4.5c-0.7,1.3-1.7,2.3-3,3
				c-1.3,0.7-2.8,1.1-4.5,1.1h-9.9V479.6z M926.8,482.6l4.1-0.9l7.6,14.3h-4.9L926.8,482.6z"/>
			<path class="st1" d="M944.1,466.5h4.1V496h-4.1V466.5z M946.1,466.5H963v3.9h-16.9V466.5z M946.1,479.4h14.7v3.9h-14.7V479.4z
				 M946.1,492H963v3.9h-16.9V492z"/>
			<path class="st1" d="M977,466.5h3.5l10.9,29.5h-4.5l-8.2-23.8l-8.2,23.8h-4.5L977,466.5z M971.1,485.6h15.5v3.9h-15.5V485.6z"/>
			<path class="st1" d="M991.8,466.5h20.8v3.9h-20.8V466.5z M1000.1,468.9h4.1V496h-4.1V468.9z"/>
			<path class="st1" d="M1015.9,466.5h4.1V496h-4.1V466.5z M1017.9,466.5h16.9v3.9h-16.9V466.5z M1017.9,479.4h14.7v3.9h-14.7V479.4
				z M1017.9,492h16.9v3.9h-16.9V492z"/>
			<path class="st1" d="M1056.1,494.9c-1.5-0.9-2.8-2.2-3.6-3.9c-0.9-1.7-1.3-3.6-1.3-5.8v-8.1c0-2.2,0.4-4.1,1.3-5.8s2.1-3,3.6-3.9
				c1.5-0.9,3.3-1.4,5.4-1.4c1.7,0,3.2,0.4,4.7,1.1s2.6,1.7,3.6,3.1c1,1.3,1.6,2.9,1.9,4.6h-4.2c-0.3-0.9-0.7-1.7-1.3-2.5
				s-1.3-1.3-2.1-1.7c-0.8-0.4-1.7-0.6-2.5-0.6c-1.2,0-2.3,0.3-3.2,0.9c-0.9,0.6-1.6,1.4-2.1,2.4c-0.5,1-0.8,2.3-0.8,3.7v8.1
				c0,1.4,0.3,2.6,0.8,3.7c0.5,1.1,1.2,1.9,2.1,2.4c0.9,0.6,2,0.9,3.2,0.9c0.9,0,1.7-0.2,2.5-0.5c0.8-0.4,1.5-0.9,2.1-1.6
				c0.6-0.7,1-1.6,1.3-2.6h4.2c-0.3,1.7-1,3.3-1.9,4.6c-1,1.3-2.2,2.4-3.6,3.1c-1.4,0.7-3,1.1-4.6,1.1
				C1059.5,496.3,1057.7,495.8,1056.1,494.9z"/>
			<path class="st1" d="M1077.6,466.5h4.1V496h-4.1V466.5z M1080.2,479.5h16.4v3.9h-16.4V479.5z M1094.3,466.5h4.1V496h-4.1V466.5z"
				/>
			<path class="st1" d="M1113.8,466.5h3.5l10.9,29.5h-4.5l-8.2-23.8l-8.2,23.8h-4.5L1113.8,466.5z M1108,485.6h15.5v3.9H1108V485.6z
				"/>
			<path class="st1" d="M1132.7,466.5h3.8l14.4,22.8l-0.5,0.5v-23.3h4.1V496h-3.8l-14.4-22.5l0.5-0.5v23h-4.1V466.5z"/>
			<path class="st1" d="M1161.8,466.5h3.8l14.4,22.8l-0.5,0.5v-23.3h4.1V496h-3.8l-14.4-22.5l0.5-0.5v23h-4.1V466.5z"/>
			<path class="st1" d="M1190.9,466.5h4.1V496h-4.1V466.5z M1192.9,466.5h16.9v3.9h-16.9V466.5z M1192.9,479.4h14.7v3.9h-14.7V479.4
				z M1192.9,492h16.9v3.9h-16.9V492z"/>
			<path class="st1" d="M1215.8,466.5h4.1V496h-4.1V466.5z M1217.8,492h16.9v3.9h-16.9V492z"/>
		</g>
	</g>
</g>
<path class="st1" d="M836.9,507.8L836.9,507.8c-2.7,0-4.8-2.2-4.8-4.8v-46.5c0-2.7,2.2-4.8,4.8-4.8l0,0c2.7,0,4.8,2.2,4.8,4.8V503
	C841.7,505.7,839.6,507.8,836.9,507.8z"/>
<path class="st1" d="M865,479.7L865,479.7c0,2.7-2.2,4.8-4.8,4.8h-46.5c-2.7,0-4.8-2.2-4.8-4.8l0,0c0-2.7,2.2-4.8,4.8-4.8h46.5
	C862.8,474.9,865,477.1,865,479.7z"/>
<path class="st1" d="M816,378.2L816,378.2c0.5,0.5,0.5,1.4,0,1.9l-9.4,9.4c-0.5,0.5-1.4,0.5-1.9,0l0,0c-0.5-0.5-0.5-1.4,0-1.9
	l9.4-9.4C814.6,377.7,815.5,377.7,816,378.2z"/>
<path class="st1" d="M795.1,378.2L795.1,378.2c0.5-0.5,1.4-0.5,1.9,0l9.4,9.4c0.5,0.5,0.5,1.4,0,1.9l0,0c-0.5,0.5-1.4,0.5-1.9,0
	l-9.4-9.4C794.6,379.6,794.6,378.8,795.1,378.2z"/>
<g>
	<g>
		<g>
			<path class="st1" d="M839.9,374.1h2.3l7.2,19.6h-3l-5.4-15.8l-5.4,15.8h-3L839.9,374.1z M836,386.8h10.3v2.6H836V386.8z"/>
			<path class="st1" d="M852.4,374.1h2.8v19.6h-2.8V374.1z M853.8,391.1h11.2v2.6h-11.2V391.1z"/>
			<path class="st1" d="M868.3,374.1h2.8v19.6h-2.8V374.1z M869.7,391.1h11.2v2.6h-11.2V391.1z"/>
			<path class="st1" d="M894.4,393c-1-0.6-1.8-1.5-2.4-2.6s-0.9-2.4-0.9-3.8v-5.4c0-1.5,0.3-2.7,0.9-3.8s1.4-2,2.4-2.6
				c1-0.6,2.2-0.9,3.6-0.9c1.1,0,2.2,0.2,3.1,0.7s1.7,1.2,2.4,2c0.6,0.9,1.1,1.9,1.3,3.1H902c-0.2-0.6-0.5-1.2-0.9-1.6
				c-0.4-0.5-0.9-0.9-1.4-1.1c-0.5-0.3-1.1-0.4-1.7-0.4c-0.8,0-1.5,0.2-2.1,0.6c-0.6,0.4-1.1,0.9-1.4,1.6c-0.3,0.7-0.5,1.5-0.5,2.4
				v5.4c0,0.9,0.2,1.7,0.5,2.4c0.3,0.7,0.8,1.2,1.4,1.6c0.6,0.4,1.3,0.6,2.1,0.6c0.6,0,1.1-0.1,1.7-0.4s1-0.6,1.4-1.1
				c0.4-0.5,0.7-1,0.9-1.7h2.8c-0.2,1.2-0.7,2.2-1.3,3.1c-0.6,0.9-1.4,1.6-2.4,2c-0.9,0.5-2,0.7-3.1,0.7
				C896.7,393.9,895.5,393.6,894.4,393z"/>
			<path class="st1" d="M908.7,374.1h2.8v19.6h-2.8V374.1z M910.4,382.8h10.9v2.6h-10.9V382.8z M919.9,374.1h2.8v19.6h-2.8V374.1z"
				/>
			<path class="st1" d="M932.8,374.1h2.3l7.2,19.6h-3l-5.4-15.8l-5.4,15.8h-3L932.8,374.1z M928.9,386.8h10.3v2.6h-10.3V386.8z"/>
			<path class="st1" d="M945.4,374.1h2.5l9.6,15.2l-0.3,0.4v-15.5h2.7v19.6h-2.5l-9.6-15l0.3-0.4v15.3h-2.7V374.1z"/>
			<path class="st1" d="M964.7,374.1h2.5l9.6,15.2l-0.3,0.4v-15.5h2.7v19.6h-2.5l-9.6-15l0.3-0.4v15.3h-2.7V374.1z"/>
			<path class="st1" d="M984.1,374.1h2.8v19.6h-2.8V374.1z M985.5,374.1h11.3v2.6h-11.3V374.1z M985.5,382.7h9.8v2.6h-9.8V382.7z
				 M985.5,391.1h11.3v2.6h-11.3V391.1z"/>
			<path class="st1" d="M1000.6,374.1h2.8v19.6h-2.8V374.1z M1002,391.1h11.2v2.6H1002V391.1z"/>
			<path class="st1" d="M1023.9,374.1h2.8v19.6h-2.8V374.1z M1025.6,382.8h10.9v2.6h-10.9V382.8z M1035.1,374.1h2.8v19.6h-2.8V374.1
				z"/>
			<path class="st1" d="M1048.1,374.1h2.3l7.2,19.6h-3l-5.4-15.8l-5.4,15.8h-3L1048.1,374.1z M1044.1,386.8h10.3v2.6h-10.3V386.8z"
				/>
			<path class="st1" d="M1058.6,374.1h3l4.7,15.4l4.7-15.4h3l-6.4,19.6h-2.6L1058.6,374.1z"/>
			<path class="st1" d="M1076.8,374.1h2.8v19.6h-2.8V374.1z M1078.2,374.1h11.3v2.6h-11.3V374.1z M1078.2,382.7h9.8v2.6h-9.8V382.7z
				 M1078.2,391.1h11.3v2.6h-11.3V391.1z"/>
			<path class="st1" d="M1098.1,374.1h13.9v2.6h-13.9V374.1z M1103.7,375.7h2.8v18h-2.8V375.7z"/>
			<path class="st1" d="M1114.1,374.1h2.8v19.6h-2.8V374.1z M1115.8,382.8h10.9v2.6h-10.9V382.8z M1125.3,374.1h2.8v19.6h-2.8V374.1
				z"/>
			<path class="st1" d="M1132.9,374.1h2.8v19.6h-2.8V374.1z M1134.2,374.1h11.3v2.6h-11.3V374.1z M1134.2,382.7h9.8v2.6h-9.8V382.7z
				 M1134.2,391.1h11.3v2.6h-11.3V391.1z"/>
			<path class="st1" d="M1160.1,393.7c-0.8-0.2-1.6-0.5-2.4-0.8c-0.7-0.4-1.4-0.8-2.1-1.4l1.7-2.1c0.7,0.6,1.6,1.1,2.5,1.5
				s1.9,0.5,2.9,0.5c1.4,0,2.5-0.3,3.3-0.8s1.2-1.3,1.2-2.2v0c0-0.7-0.2-1.2-0.5-1.6s-0.8-0.7-1.4-0.9c-0.6-0.2-1.3-0.4-2.2-0.5
				c0,0-0.1,0-0.1,0s-0.1,0-0.1,0l-0.2,0c-1.3-0.2-2.4-0.5-3.2-0.8c-0.8-0.3-1.5-0.8-2.1-1.6c-0.6-0.8-0.9-1.8-0.9-3.2v0
				c0-1.2,0.3-2.3,0.8-3.1c0.5-0.9,1.3-1.5,2.4-2c1-0.5,2.3-0.7,3.8-0.7c0.7,0,1.4,0.1,2.1,0.2c0.7,0.2,1.4,0.4,2,0.7
				c0.7,0.3,1.3,0.7,2,1.1l-1.6,2.2c-0.7-0.5-1.5-1-2.2-1.2c-0.7-0.3-1.5-0.4-2.2-0.4c-1.3,0-2.4,0.3-3.1,0.8
				c-0.7,0.5-1.1,1.3-1.1,2.3v0c0,0.7,0.2,1.2,0.6,1.6c0.4,0.4,0.9,0.7,1.4,0.9c0.6,0.2,1.4,0.4,2.4,0.6c0,0,0.1,0,0.1,0
				c0,0,0.1,0,0.1,0c0,0,0.1,0,0.1,0c0.1,0,0.1,0,0.1,0c1.2,0.2,2.2,0.5,3,0.9s1.5,0.9,2,1.6c0.5,0.7,0.8,1.8,0.8,3v0
				c0,1.2-0.3,2.2-0.9,3.1c-0.6,0.9-1.4,1.5-2.5,1.9c-1.1,0.4-2.4,0.7-3.9,0.7C1161.8,393.9,1160.9,393.9,1160.1,393.7z"/>
			<path class="st1" d="M1179.2,374.1h2.3l7.2,19.6h-3l-5.4-15.8l-5.4,15.8h-3L1179.2,374.1z M1175.3,386.8h10.3v2.6h-10.3V386.8z"
				/>
			<path class="st1" d="M1205.9,374.1h2.6v19.6h-2.7V379l0.1,0.9l-4.8,11.1h-1.9l-4.8-10.8l0.1-1.1v14.7h-2.7v-19.6h2.6l5.8,13
				L1205.9,374.1z"/>
			<path class="st1" d="M1213.3,374.1h2.8v19.6h-2.8V374.1z M1214.7,374.1h11.3v2.6h-11.3V374.1z M1214.7,382.7h9.8v2.6h-9.8V382.7z
				 M1214.7,391.1h11.3v2.6h-11.3V391.1z"/>
			<path class="st1" d="M1240.1,393c-1-0.6-1.8-1.5-2.4-2.6s-0.9-2.4-0.9-3.8v-5.4c0-1.5,0.3-2.7,0.9-3.8s1.4-2,2.4-2.6
				c1-0.6,2.2-0.9,3.6-0.9c1.1,0,2.2,0.2,3.1,0.7s1.7,1.2,2.4,2c0.6,0.9,1.1,1.9,1.3,3.1h-2.8c-0.2-0.6-0.5-1.2-0.9-1.6
				c-0.4-0.5-0.9-0.9-1.4-1.1c-0.5-0.3-1.1-0.4-1.7-0.4c-0.8,0-1.5,0.2-2.1,0.6c-0.6,0.4-1.1,0.9-1.4,1.6c-0.3,0.7-0.5,1.5-0.5,2.4
				v5.4c0,0.9,0.2,1.7,0.5,2.4c0.3,0.7,0.8,1.2,1.4,1.6c0.6,0.4,1.3,0.6,2.1,0.6c0.6,0,1.1-0.1,1.7-0.4s1-0.6,1.4-1.1
				c0.4-0.5,0.7-1,0.9-1.7h2.8c-0.2,1.2-0.7,2.2-1.3,3.1c-0.6,0.9-1.4,1.6-2.4,2c-0.9,0.5-2,0.7-3.1,0.7
				C1242.4,393.9,1241.2,393.6,1240.1,393z"/>
			<path class="st1" d="M1259.8,374.1h2.3l7.2,19.6h-3l-5.4-15.8l-5.4,15.8h-3L1259.8,374.1z M1255.9,386.8h10.3v2.6h-10.3V386.8z"
				/>
			<path class="st1" d="M1269.6,374.1h13.9v2.6h-13.9V374.1z M1275.2,375.7h2.8v18h-2.8V375.7z"/>
			<path class="st1" d="M1285.6,374.1h2.8v19.6h-2.8V374.1z M1287,374.1h11.3v2.6H1287V374.1z M1287,382.7h9.8v2.6h-9.8V382.7z
				 M1287,391.1h11.3v2.6H1287V391.1z"/>
			<path class="st1" d="M1315.6,383.2v3.4c0,1.5-0.3,2.7-0.9,3.9c-0.6,1.1-1.4,2-2.4,2.6s-2.2,0.9-3.6,0.9c-1.4,0-2.6-0.3-3.7-0.9
				c-1-0.6-1.9-1.4-2.4-2.4c-0.6-1-0.9-2.3-0.9-3.6v-5.8c0-1.5,0.3-2.7,0.9-3.8s1.4-2,2.4-2.6c1-0.6,2.2-0.9,3.6-0.9
				c1.1,0,2.2,0.2,3.1,0.7c0.9,0.5,1.7,1.2,2.4,2c0.6,0.9,1.1,1.9,1.3,3.1h-3c-0.2-0.7-0.4-1.2-0.8-1.7s-0.8-0.8-1.4-1.1
				c-0.5-0.2-1.1-0.4-1.6-0.4c-0.8,0-1.5,0.2-2.1,0.6s-1.1,0.9-1.4,1.6c-0.3,0.7-0.5,1.5-0.5,2.4v5.8c0,0.8,0.2,1.6,0.5,2.2
				c0.3,0.6,0.8,1.1,1.5,1.5s1.3,0.5,2.2,0.5c0.8,0,1.5-0.2,2.1-0.5c0.6-0.4,1.1-0.9,1.4-1.6s0.5-1.5,0.5-2.5v-0.9h-4v-2.6H1315.6z"
				/>
			<path class="st1" d="M1322.9,393c-1-0.6-1.9-1.4-2.4-2.5c-0.6-1.1-0.9-2.4-0.9-3.8v-5.6c0-1.4,0.3-2.7,0.9-3.8
				c0.6-1.1,1.4-1.9,2.4-2.5s2.3-0.9,3.6-0.9c1.4,0,2.6,0.3,3.6,0.9c1,0.6,1.9,1.4,2.4,2.5c0.6,1.1,0.9,2.4,0.9,3.8v5.6
				c0,1.4-0.3,2.7-0.9,3.8c-0.6,1.1-1.4,1.9-2.4,2.5c-1,0.6-2.3,0.9-3.6,0.9C1325.2,393.9,1324,393.6,1322.9,393z M1328.7,390.7
				c0.6-0.4,1.1-0.9,1.4-1.6c0.3-0.7,0.5-1.4,0.5-2.3V381c0-0.9-0.2-1.7-0.5-2.3c-0.3-0.7-0.8-1.2-1.4-1.6c-0.6-0.4-1.3-0.5-2.1-0.5
				c-0.8,0-1.5,0.2-2.1,0.5c-0.6,0.4-1.1,0.9-1.4,1.6c-0.3,0.7-0.5,1.4-0.5,2.3v5.8c0,0.9,0.2,1.7,0.5,2.3c0.3,0.7,0.8,1.2,1.4,1.6
				c0.6,0.4,1.3,0.5,2.1,0.5C1327.4,391.2,1328.1,391,1328.7,390.7z"/>
			<path class="st1" d="M1337.9,374.1h2.8v19.7h-2.8V374.1z M1339.1,382.8h6.7c0.5,0,1-0.1,1.4-0.4c0.4-0.3,0.7-0.6,0.9-1.1
				s0.3-1,0.3-1.6c0-0.6-0.1-1.1-0.3-1.6c-0.2-0.5-0.5-0.8-0.9-1.1s-0.9-0.4-1.4-0.4h-6.7v-2.6h6.6c1.1,0,2.1,0.2,3,0.7
				c0.9,0.5,1.5,1.1,2,2c0.5,0.9,0.7,1.9,0.7,3c0,1.1-0.2,2.1-0.7,3c-0.5,0.9-1.1,1.5-2,2c-0.9,0.5-1.9,0.7-3,0.7h-6.6V382.8z
				 M1344.5,384.8l2.7-0.6l5,9.5h-3.3L1344.5,384.8z"/>
			<path class="st1" d="M1361.8,385.8v8h-2.8v-8l-6-11.7h3.1l4.3,8.9l4.3-8.9h3.1L1361.8,385.8z"/>
		</g>
	</g>
</g>
<path class="st0" d="M1409.2,874.6H816.5c-21.9,0-39.6-17.7-39.6-39.6V587c0-21.9,17.7-39.6,39.6-39.6h592.8
	c21.9,0,39.6,17.7,39.6,39.6v248C1448.8,856.9,1431.1,874.6,1409.2,874.6z"/>
<path class="st1" d="M839.6,596.1c1.9,2,4.4,3.4,7.1,4.2c0.1,0.6,0.1,1.2,0.1,1.9c0,4-1.7,7.6-4.4,10.1c-1.2,1.1-3.2,0.3-3.2-1.4
	v-15.3C839.3,595.8,839.5,595.9,839.6,596.1z"/>
<path class="st1" d="M841.6,588.9l-4.7-4.7h3.6c0-0.7,0.1-1.3,0.2-2c0.4-2.1,1.4-4,2.8-5.5c2.1-2.2,5.1-3.6,8.5-3.4
	c5.6,0.3,10.1,4.8,10.4,10.4c0.2,3.4-1.3,6.5-3.6,8.6c-1.5,1.4-3.4,2.3-5.5,2.7c-0.6,0.1-1.2,0.1-1.8,0.1c-3,0-5.7-1.2-7.7-3.2
	l1.7-1.7c1.5,1.5,3.6,2.5,6,2.5c0.3,0,0.5,0,0.8,0c2.2-0.2,4.1-1.2,5.5-2.7c1.4-1.6,2.3-3.7,2.2-6c-0.2-4.4-3.7-8-8.1-8.1
	c-2.3-0.1-4.4,0.7-5.9,2.1c-1.5,1.4-2.6,3.3-2.8,5.4c0,0.3-0.1,0.6-0.1,0.9h3.6l-0.8,0.8l-4.1,4.1L841.6,588.9z"/>
<polygon class="st1" points="852,584.3 855.7,586.5 856.3,586.9 856.1,587.2 855.4,588.4 850.2,585.4 850.2,579.3 852,579.3 "/>
<path class="st1" d="M860.3,598.3c0.2,1.3,0.3,2.6,0.3,3.9c0,12.2-7.9,22.5-18.9,26.1c-1.2,0.4-2.5-0.5-2.5-1.8v-2.4
	c0-0.8,0.5-1.5,1.2-1.8c8.2-3,14-10.9,14-20.1c0-0.5,0-1-0.1-1.5C856.6,600.3,858.6,599.4,860.3,598.3z"/>
<path class="st1" d="M860.3,598.3c-1.8,1.1-3.7,2-5.9,2.4c0,0.5,0.1,1,0.1,1.5c0,9.2-5.9,17.1-14,20.1c-0.7,0.3-1.2,1-1.2,1.8v2.4
	c0,1.3,1.3,2.2,2.5,1.8c11-3.6,18.9-13.9,18.9-26.1C860.6,600.9,860.5,599.6,860.3,598.3z M853.2,594.9c2.1-0.3,4-1.3,5.5-2.7
	c-0.3-0.8-0.7-1.6-1-2.4c-1.4,1.5-3.3,2.5-5.5,2.7C852.6,593.4,852.9,594.1,853.2,594.9z M856.1,587.2c-0.1-0.2-0.3-0.4-0.4-0.7
	l-3.6-2.2v-2.1c-0.6-0.6-1.2-1.1-1.8-1.6v4.7l5.1,3L856.1,587.2z M845.8,585l0.8-0.8h-2C845,584.4,845.4,584.7,845.8,585z
	 M845.8,577.8c-0.8-0.4-1.5-0.8-2.3-1.1c-1.4,1.5-2.4,3.4-2.8,5.5c0.8,0.3,1.6,0.6,2.3,1C843.3,581.1,844.3,579.2,845.8,577.8z
	 M846.7,600.3c-2.7-0.8-5.2-2.3-7.1-4.2c-0.1-0.1-0.3-0.3-0.4-0.4v15.3c0,1.7,2,2.5,3.2,1.4c2.7-2.5,4.4-6.1,4.4-10.1
	C846.8,601.6,846.8,600.9,846.7,600.3z M829.8,581l-11.5,11.5c-0.4,0.4-0.8,0.6-1.3,0.6h-9.5c-1.1,0-1.9,0.9-1.9,1.9v14.5
	c0,1.1,0.9,1.9,1.9,1.9h9.5c0.5,0,1,0.2,1.3,0.6l11.5,11.5c1.2,1.2,3.2,0.3,3.2-1.3v-39.7C833.1,580.6,831,579.8,829.8,581z"/>
<polygon class="st1" points="852,584.3 855.7,586.5 856.3,586.9 856.1,587.2 855.4,588.4 850.2,585.4 850.2,579.3 852,579.3 "/>
<path class="st1" d="M858.7,592.2c-1.5,1.4-3.4,2.3-5.5,2.7c-0.6,0.1-1.2,0.1-1.8,0.1c-3,0-5.7-1.2-7.7-3.2l1.7-1.7
	c1.5,1.5,3.6,2.5,6,2.5c0.3,0,0.5,0,0.8,0c2.2-0.2,4.1-1.2,5.5-2.7c1.4-1.6,2.3-3.7,2.2-6c-0.2-4.4-3.7-8-8.1-8.1
	c-2.3-0.1-4.4,0.7-5.9,2.1c-1.5,1.4-2.6,3.3-2.8,5.4c0,0.3-0.1,0.6-0.1,0.9h3.6l-0.8,0.8l-4.1,4.1l-0.1-0.2l-4.7-4.7h3.6
	c0-0.7,0.1-1.3,0.2-2c0.4-2.1,1.4-4,2.8-5.5c2.1-2.2,5.1-3.6,8.5-3.4c5.6,0.3,10.1,4.8,10.4,10.4
	C862.5,587.1,861.1,590.1,858.7,592.2z"/>
<path class="st1" d="M839.2,595.6c0.1,0.1,0.3,0.3,0.4,0.4h-0.4V595.6z"/>
<polygon class="st1" points="852,584.3 855.7,586.5 856.3,586.9 856.1,587.2 855.4,588.4 850.2,585.4 850.2,579.3 852,579.3 "/>
<path class="st1" d="M858.7,592.2c-1.5,1.4-3.4,2.3-5.5,2.7c-0.6,0.1-1.2,0.1-1.8,0.1c-3,0-5.7-1.2-7.7-3.2l1.7-1.7
	c1.5,1.5,3.6,2.5,6,2.5c0.3,0,0.5,0,0.8,0c2.2-0.2,4.1-1.2,5.5-2.7c1.4-1.6,2.3-3.7,2.2-6c-0.2-4.4-3.7-8-8.1-8.1
	c-2.3-0.1-4.4,0.7-5.9,2.1c-1.5,1.4-2.6,3.3-2.8,5.4c0,0.3-0.1,0.6-0.1,0.9h3.6l-0.8,0.8l-4.1,4.1l-0.1-0.2l-4.7-4.7h3.6
	c0-0.7,0.1-1.3,0.2-2c0.4-2.1,1.4-4,2.8-5.5c2.1-2.2,5.1-3.6,8.5-3.4c5.6,0.3,10.1,4.8,10.4,10.4
	C862.5,587.1,861.1,590.1,858.7,592.2z"/>
<path class="st1" d="M855.7,586.5l-3.6-2.2v-5h-1.8v6l5.1,3l0.8-1.3l0.2-0.3L855.7,586.5z M862.3,583.7c-0.3-5.6-4.8-10.1-10.4-10.4
	c-3.3-0.2-6.4,1.2-8.5,3.4c-1.4,1.5-2.4,3.4-2.8,5.5c-0.1,0.6-0.2,1.3-0.2,2h-3.6l4.7,4.7l0.1,0.2l4.1-4.1l0.8-0.8H843
	c0-0.3,0-0.6,0.1-0.9c0.2-2.1,1.3-4.1,2.8-5.4c1.6-1.4,3.7-2.2,5.9-2.1c4.4,0.2,8,3.7,8.1,8.1c0.1,2.3-0.8,4.5-2.2,6
	c-1.4,1.5-3.3,2.5-5.5,2.7c-0.3,0-0.5,0-0.8,0c-2.3,0-4.5-1-6-2.5l-1.7,1.7c2,2,4.7,3.2,7.7,3.2c0.6,0,1.2,0,1.8-0.1
	c2.1-0.3,4-1.3,5.5-2.7C861.1,590.1,862.5,587.1,862.3,583.7z M855.7,586.5c0.2,0.2,0.3,0.4,0.4,0.7l0.2-0.3L855.7,586.5z
	 M852,579.3h-1.8v1.4c0.6,0.5,1.2,1,1.8,1.6V579.3z"/>
<g>
	<g>
		<g>
			<path class="st1" d="M889.2,587h4.5l7.1,23.1l7.1-23.1h4.5l-9.6,29.5h-3.9L889.2,587z"/>
			<path class="st1" d="M921,615.4c-1.6-0.9-2.8-2.2-3.6-3.8c-0.9-1.6-1.3-3.5-1.3-5.7v-8.4c0-2.2,0.4-4.1,1.3-5.7
				c0.9-1.6,2.1-2.9,3.6-3.8c1.6-0.9,3.4-1.3,5.4-1.3s3.9,0.5,5.4,1.3c1.6,0.9,2.8,2.2,3.6,3.8c0.9,1.6,1.3,3.5,1.3,5.7v8.4
				c0,2.2-0.4,4.1-1.3,5.7c-0.9,1.6-2.1,2.9-3.6,3.8c-1.6,0.9-3.4,1.3-5.4,1.3S922.6,616.3,921,615.4z M929.7,611.9
				c0.9-0.5,1.6-1.3,2.2-2.3c0.5-1,0.8-2.2,0.8-3.5v-8.6c0-1.3-0.3-2.5-0.8-3.5c-0.5-1-1.2-1.8-2.2-2.3c-0.9-0.5-2-0.8-3.2-0.8
				c-1.2,0-2.3,0.3-3.2,0.8c-0.9,0.5-1.6,1.3-2.2,2.3c-0.5,1-0.8,2.2-0.8,3.5v8.6c0,1.3,0.3,2.5,0.8,3.5c0.5,1,1.2,1.8,2.2,2.3
				c0.9,0.5,2,0.8,3.2,0.8C927.7,612.7,928.7,612.4,929.7,611.9z"/>
			<path class="st1" d="M947.6,616.5h-4.1V587h4.1V616.5z"/>
			<path class="st1" d="M959.2,615.4c-1.6-0.9-2.8-2.2-3.6-3.9c-0.9-1.7-1.3-3.6-1.3-5.8v-8.1c0-2.2,0.4-4.1,1.3-5.8
				c0.9-1.7,2.1-3,3.6-3.9c1.5-0.9,3.3-1.4,5.4-1.4c1.7,0,3.2,0.4,4.7,1.1c1.4,0.7,2.6,1.7,3.6,3.1c1,1.3,1.6,2.9,1.9,4.6h-4.2
				c-0.3-0.9-0.7-1.7-1.3-2.5c-0.6-0.7-1.3-1.3-2.1-1.7c-0.8-0.4-1.7-0.6-2.5-0.6c-1.2,0-2.3,0.3-3.2,0.9c-0.9,0.6-1.6,1.4-2.1,2.4
				s-0.8,2.3-0.8,3.7v8.1c0,1.4,0.3,2.6,0.8,3.7s1.2,1.9,2.1,2.4c0.9,0.6,2,0.9,3.2,0.9c0.9,0,1.7-0.2,2.5-0.5
				c0.8-0.4,1.5-0.9,2.1-1.6c0.6-0.7,1-1.6,1.3-2.6h4.2c-0.3,1.7-1,3.3-1.9,4.6c-1,1.3-2.2,2.4-3.6,3.1c-1.4,0.7-3,1.1-4.6,1.1
				C962.6,616.8,960.8,616.3,959.2,615.4z"/>
			<path class="st1" d="M980.7,587h4.1v29.5h-4.1V587z M982.7,587h16.9v3.9h-16.9V587z M982.7,599.8h14.7v3.9h-14.7V599.8z
				 M982.7,612.5h16.9v3.9h-16.9V612.5z"/>
			<path class="st1" d="M1020.9,615.4c-1.5-0.9-2.8-2.2-3.6-3.9c-0.9-1.7-1.3-3.6-1.3-5.8v-8.1c0-2.2,0.4-4.1,1.3-5.8
				c0.9-1.7,2.1-3,3.6-3.9c1.5-0.9,3.3-1.4,5.4-1.4c1.7,0,3.2,0.4,4.7,1.1c1.4,0.7,2.6,1.7,3.6,3.1c1,1.3,1.6,2.9,1.9,4.6h-4.2
				c-0.3-0.9-0.7-1.7-1.3-2.5c-0.6-0.7-1.3-1.3-2.1-1.7c-0.8-0.4-1.7-0.6-2.5-0.6c-1.2,0-2.3,0.3-3.2,0.9c-0.9,0.6-1.6,1.4-2.1,2.4
				c-0.5,1-0.8,2.3-0.8,3.7v8.1c0,1.4,0.2,2.6,0.8,3.7c0.5,1.1,1.2,1.9,2.1,2.4c0.9,0.6,2,0.9,3.2,0.9c0.9,0,1.7-0.2,2.5-0.5
				s1.5-0.9,2.1-1.6c0.6-0.7,1-1.6,1.3-2.6h4.2c-0.3,1.7-1,3.3-1.9,4.6s-2.2,2.4-3.6,3.1s-3,1.1-4.6,1.1
				C1024.3,616.8,1022.5,616.3,1020.9,615.4z"/>
			<path class="st1" d="M1042.4,587h4.1v29.5h-4.1V587z M1045,600h16.4v3.9H1045V600z M1059.2,587h4.1v29.5h-4.1V587z"/>
			<path class="st1" d="M1078.6,587h3.5l10.9,29.5h-4.5l-8.2-23.8l-8.2,23.8h-4.5L1078.6,587z M1072.8,606.1h15.5v3.9h-15.5V606.1z"
				/>
			<path class="st1" d="M1097.5,587h3.8l14.4,22.8l-0.5,0.5V587h4.1v29.5h-3.8l-14.4-22.5l0.5-0.5v23h-4.1V587z"/>
			<path class="st1" d="M1126.6,587h3.8l14.4,22.8l-0.5,0.5V587h4.1v29.5h-3.8l-14.4-22.5l0.5-0.5v23h-4.1V587z"/>
			<path class="st1" d="M1155.7,587h4.1v29.5h-4.1V587z M1157.7,587h16.9v3.9h-16.9V587z M1157.7,599.8h14.7v3.9h-14.7V599.8z
				 M1157.7,612.5h16.9v3.9h-16.9V612.5z"/>
			<path class="st1" d="M1180.6,587h4.1v29.5h-4.1V587z M1182.6,612.5h16.9v3.9h-16.9V612.5z"/>
		</g>
	</g>
</g>
<g>
	<g>
		<g>
			<path class="st1" d="M1012.4,678.9h3.9v29.5h-4v-22.1l0.2,1.3l-7.3,16.7h-2.9l-7.3-16.3l0.2-1.7v22.1h-4v-29.5h3.9l8.7,19.5
				L1012.4,678.9z"/>
			<path class="st1" d="M1031.7,678.9h3.5l10.9,29.5h-4.5l-8.2-23.8l-8.2,23.8h-4.5L1031.7,678.9z M1025.8,698h15.5v3.9h-15.5V698z"
				/>
			<path class="st1" d="M1050.5,678.9h4.1v29.5h-4.1V678.9z M1052.3,692h10.1c0.8,0,1.5-0.2,2.1-0.6c0.6-0.4,1.1-0.9,1.4-1.6
				c0.3-0.7,0.5-1.5,0.5-2.4s-0.2-1.7-0.5-2.4c-0.3-0.7-0.8-1.2-1.4-1.6c-0.6-0.4-1.3-0.6-2.1-0.6h-10.1v-3.9h9.9
				c1.7,0,3.2,0.4,4.5,1.1c1.3,0.7,2.3,1.7,3,3c0.7,1.3,1.1,2.8,1.1,4.5s-0.4,3.2-1.1,4.5c-0.7,1.3-1.7,2.3-3,3
				c-1.3,0.7-2.8,1.1-4.5,1.1h-9.9V692z M1060.4,695.1l4.1-0.9l7.6,14.3h-4.9L1060.4,695.1z"/>
			<path class="st1" d="M1073.6,678.9h20.8v3.9h-20.8V678.9z M1081.9,681.4h4.1v27.1h-4.1V681.4z"/>
			<path class="st1" d="M1097.6,678.9h4.1v29.5h-4.1V678.9z M1099.7,678.9h16.9v3.9h-16.9V678.9z M1099.7,691.8h14.7v3.9h-14.7
				V691.8z M1099.7,704.5h16.9v3.9h-16.9V704.5z"/>
			<path class="st1" d="M1122.5,678.9h3.8l14.4,22.8l-0.5,0.5v-23.3h4.1v29.5h-3.8l-14.4-22.5l0.5-0.5v23h-4.1V678.9z"/>
		</g>
	</g>
</g>
<circle class="st8" cx="928.4" cy="695.7" r="32.6"/>
<g>
	<g>
		<g>
			<path class="st1" d="M991.2,775.1h4.1v29.5h-4.1V775.1z M993.8,788.1h16.4v3.9h-16.4V788.1z M1008,775.1h4.1v29.5h-4.1V775.1z"/>
			<path class="st1" d="M1019.4,775.1h4.1v29.5h-4.1V775.1z M1021.4,775.1h16.9v3.9h-16.9V775.1z M1021.4,788h14.7v3.9h-14.7V788z
				 M1021.4,800.7h16.9v3.9h-16.9V800.7z"/>
			<path class="st1" d="M1044.3,775.1h3.8l14.4,22.8l-0.5,0.5v-23.3h4.1v29.5h-3.8l-14.4-22.5l0.5-0.5v23h-4.1V775.1z"/>
			<path class="st1" d="M1073.4,775.1h4.1v29.5h-4.1V775.1z M1075.2,788.2h10.1c0.8,0,1.5-0.2,2.1-0.6c0.6-0.4,1.1-0.9,1.4-1.6
				c0.3-0.7,0.5-1.5,0.5-2.4s-0.2-1.7-0.5-2.4c-0.3-0.7-0.8-1.2-1.4-1.6c-0.6-0.4-1.3-0.6-2.1-0.6h-10.1v-3.9h9.9
				c1.7,0,3.2,0.4,4.5,1.1c1.3,0.7,2.3,1.7,3,3c0.7,1.3,1.1,2.8,1.1,4.5s-0.4,3.2-1.1,4.5c-0.7,1.3-1.7,2.3-3,3
				c-1.3,0.7-2.8,1.1-4.5,1.1h-9.9V788.2z M1083.2,791.2l4.1-0.9l7.6,14.3h-4.9L1083.2,791.2z"/>
			<path class="st1" d="M1104.6,804.6h-4.1v-29.5h4.1V804.6z"/>
		</g>
	</g>
</g>
<circle class="st2" cx="928.4" cy="791.9" r="32.6"/>
<path class="st1" d="M1066,1006.4L1066,1006.4c0.5,0.5,0.5,1.4,0,1.9l-9.4,9.4c-0.5,0.5-1.4,0.5-1.9,0l0,0c-0.5-0.5-0.5-1.4,0-1.9
	l9.4-9.4C1064.6,1005.9,1065.5,1005.9,1066,1006.4z"/>
<path class="st1" d="M1045.2,1006.4L1045.2,1006.4c0.5-0.5,1.4-0.5,1.9,0l9.4,9.4c0.5,0.5,0.5,1.4,0,1.9l0,0c-0.5,0.5-1.4,0.5-1.9,0
	l-9.4-9.4C1044.6,1007.8,1044.6,1007,1045.2,1006.4z"/>
<g>
	<g>
		<g>
			<path class="st1" d="M1081.8,1002.3h13.9v2.6h-13.9V1002.3z M1087.4,1003.9h2.8v18h-2.8V1003.9z"/>
			<path class="st1" d="M1100.6,1021.9h-2.8v-19.6h2.8V1021.9z"/>
			<path class="st1" d="M1119.6,1002.3h2.6v19.6h-2.7v-14.7l0.1,0.9l-4.8,11.1h-1.9l-4.8-10.8l0.1-1.1v14.7h-2.7v-19.6h2.6l5.8,13
				L1119.6,1002.3z"/>
		</g>
	</g>
</g>
<path class="st0" d="M1409.2,1218.4H816.5c-21.9,0-39.6-17.7-39.6-39.6v-248c0-21.9,17.7-39.6,39.6-39.6h592.8
	c21.9,0,39.6,17.7,39.6,39.6v248C1448.8,1200.6,1431.1,1218.4,1409.2,1218.4z"/>
<path class="st1" d="M839.6,939.9c1.9,2,4.4,3.4,7.1,4.2c0.1,0.6,0.1,1.2,0.1,1.9c0,4-1.7,7.6-4.4,10.1c-1.2,1.1-3.2,0.3-3.2-1.4
	v-15.3C839.3,939.6,839.5,939.7,839.6,939.9z"/>
<path class="st1" d="M841.6,932.7l-4.7-4.7h3.6c0-0.7,0.1-1.3,0.2-2c0.4-2.1,1.4-4,2.8-5.5c2.1-2.2,5.1-3.6,8.5-3.4
	c5.6,0.3,10.1,4.8,10.4,10.4c0.2,3.4-1.3,6.5-3.6,8.6c-1.5,1.4-3.4,2.3-5.5,2.7c-0.6,0.1-1.2,0.1-1.8,0.1c-3,0-5.7-1.2-7.7-3.2
	l1.7-1.7c1.5,1.5,3.6,2.5,6,2.5c0.3,0,0.5,0,0.8,0c2.2-0.2,4.1-1.2,5.5-2.7c1.4-1.6,2.3-3.7,2.2-6c-0.2-4.4-3.7-8-8.1-8.1
	c-2.3-0.1-4.4,0.7-5.9,2.1c-1.5,1.4-2.6,3.3-2.8,5.4c0,0.3-0.1,0.6-0.1,0.9h3.6l-0.8,0.8l-4.1,4.1L841.6,932.7z"/>
<polygon class="st1" points="852,928.1 855.7,930.3 856.3,930.7 856.1,930.9 855.4,932.2 850.2,929.2 850.2,923.1 852,923.1 "/>
<path class="st1" d="M860.3,942.1c0.2,1.3,0.3,2.6,0.3,3.9c0,12.2-7.9,22.5-18.9,26.1c-1.2,0.4-2.5-0.5-2.5-1.8v-2.4
	c0-0.8,0.5-1.5,1.2-1.8c8.2-3,14-10.9,14-20.1c0-0.5,0-1-0.1-1.5C856.6,944,858.6,943.2,860.3,942.1z"/>
<path class="st1" d="M860.3,942.1c-1.8,1.1-3.7,2-5.9,2.4c0,0.5,0.1,1,0.1,1.5c0,9.2-5.9,17.1-14,20.1c-0.7,0.3-1.2,1-1.2,1.8v2.4
	c0,1.3,1.3,2.2,2.5,1.8c11-3.6,18.9-13.9,18.9-26.1C860.6,944.7,860.5,943.4,860.3,942.1z M853.2,938.7c2.1-0.3,4-1.3,5.5-2.7
	c-0.3-0.8-0.7-1.6-1-2.4c-1.4,1.5-3.3,2.5-5.5,2.7C852.6,937.1,852.9,937.9,853.2,938.7z M856.1,930.9c-0.1-0.2-0.3-0.4-0.4-0.7
	l-3.6-2.2v-2.1c-0.6-0.6-1.2-1.1-1.8-1.6v4.7l5.1,3L856.1,930.9z M845.8,928.8l0.8-0.8h-2C845,928.2,845.4,928.5,845.8,928.8z
	 M845.8,921.6c-0.8-0.4-1.5-0.8-2.3-1.1c-1.4,1.5-2.4,3.4-2.8,5.5c0.8,0.3,1.6,0.6,2.3,1C843.3,924.9,844.3,923,845.8,921.6z
	 M846.7,944.1c-2.7-0.8-5.2-2.3-7.1-4.2c-0.1-0.1-0.3-0.3-0.4-0.4v15.3c0,1.7,2,2.5,3.2,1.4c2.7-2.5,4.4-6.1,4.4-10.1
	C846.8,945.3,846.8,944.7,846.7,944.1z M829.8,924.8l-11.5,11.5c-0.4,0.4-0.8,0.6-1.3,0.6h-9.5c-1.1,0-1.9,0.9-1.9,1.9v14.5
	c0,1.1,0.9,1.9,1.9,1.9h9.5c0.5,0,1,0.2,1.3,0.6l11.5,11.5c1.2,1.2,3.2,0.3,3.2-1.3v-39.7C833.1,924.4,831,923.6,829.8,924.8z"/>
<polygon class="st1" points="852,928.1 855.7,930.3 856.3,930.7 856.1,930.9 855.4,932.2 850.2,929.2 850.2,923.1 852,923.1 "/>
<path class="st1" d="M858.7,936c-1.5,1.4-3.4,2.3-5.5,2.7c-0.6,0.1-1.2,0.1-1.8,0.1c-3,0-5.7-1.2-7.7-3.2l1.7-1.7
	c1.5,1.5,3.6,2.5,6,2.5c0.3,0,0.5,0,0.8,0c2.2-0.2,4.1-1.2,5.5-2.7c1.4-1.6,2.3-3.7,2.2-6c-0.2-4.4-3.7-8-8.1-8.1
	c-2.3-0.1-4.4,0.7-5.9,2.1c-1.5,1.4-2.6,3.3-2.8,5.4c0,0.3-0.1,0.6-0.1,0.9h3.6l-0.8,0.8l-4.1,4.1l-0.1-0.2l-4.7-4.7h3.6
	c0-0.7,0.1-1.3,0.2-2c0.4-2.1,1.4-4,2.8-5.5c2.1-2.2,5.1-3.6,8.5-3.4c5.6,0.3,10.1,4.8,10.4,10.4C862.5,930.8,861.1,933.9,858.7,936
	z"/>
<path class="st1" d="M839.2,939.4c0.1,0.1,0.3,0.3,0.4,0.4h-0.4V939.4z"/>
<polygon class="st1" points="852,928.1 855.7,930.3 856.3,930.7 856.1,930.9 855.4,932.2 850.2,929.2 850.2,923.1 852,923.1 "/>
<path class="st1" d="M858.7,936c-1.5,1.4-3.4,2.3-5.5,2.7c-0.6,0.1-1.2,0.1-1.8,0.1c-3,0-5.7-1.2-7.7-3.2l1.7-1.7
	c1.5,1.5,3.6,2.5,6,2.5c0.3,0,0.5,0,0.8,0c2.2-0.2,4.1-1.2,5.5-2.7c1.4-1.6,2.3-3.7,2.2-6c-0.2-4.4-3.7-8-8.1-8.1
	c-2.3-0.1-4.4,0.7-5.9,2.1c-1.5,1.4-2.6,3.3-2.8,5.4c0,0.3-0.1,0.6-0.1,0.9h3.6l-0.8,0.8l-4.1,4.1l-0.1-0.2l-4.7-4.7h3.6
	c0-0.7,0.1-1.3,0.2-2c0.4-2.1,1.4-4,2.8-5.5c2.1-2.2,5.1-3.6,8.5-3.4c5.6,0.3,10.1,4.8,10.4,10.4C862.5,930.8,861.1,933.9,858.7,936
	z"/>
<path class="st1" d="M855.7,930.3l-3.6-2.2v-5h-1.8v6l5.1,3l0.8-1.3l0.2-0.3L855.7,930.3z M862.3,927.4c-0.3-5.6-4.8-10.1-10.4-10.4
	c-3.3-0.2-6.4,1.2-8.5,3.4c-1.4,1.5-2.4,3.4-2.8,5.5c-0.1,0.6-0.2,1.3-0.2,2h-3.6l4.7,4.7l0.1,0.2l4.1-4.1l0.8-0.8H843
	c0-0.3,0-0.6,0.1-0.9c0.2-2.1,1.3-4.1,2.8-5.4c1.6-1.4,3.7-2.2,5.9-2.1c4.4,0.2,8,3.7,8.1,8.1c0.1,2.3-0.8,4.5-2.2,6
	c-1.4,1.5-3.3,2.5-5.5,2.7c-0.3,0-0.5,0-0.8,0c-2.3,0-4.5-1-6-2.5l-1.7,1.7c2,2,4.7,3.2,7.7,3.2c0.6,0,1.2,0,1.8-0.1
	c2.1-0.3,4-1.3,5.5-2.7C861.1,933.9,862.5,930.8,862.3,927.4z M855.7,930.3c0.2,0.2,0.3,0.4,0.4,0.7l0.2-0.3L855.7,930.3z
	 M852,923.1h-1.8v1.4c0.6,0.5,1.2,1,1.8,1.6V923.1z"/>
<g>
	<g>
		<g>
			<path class="st1" d="M889.2,930.7h4.5l7.1,23.1l7.1-23.1h4.5l-9.6,29.5h-3.9L889.2,930.7z"/>
			<path class="st1" d="M921,959.2c-1.6-0.9-2.8-2.2-3.6-3.8c-0.9-1.6-1.3-3.5-1.3-5.7v-8.4c0-2.2,0.4-4.1,1.3-5.7
				c0.9-1.6,2.1-2.9,3.6-3.8c1.6-0.9,3.4-1.3,5.4-1.3s3.9,0.5,5.4,1.3c1.6,0.9,2.8,2.2,3.6,3.8c0.9,1.6,1.3,3.5,1.3,5.7v8.4
				c0,2.2-0.4,4.1-1.3,5.7c-0.9,1.6-2.1,2.9-3.6,3.8c-1.6,0.9-3.4,1.3-5.4,1.3S922.6,960.1,921,959.2z M929.7,955.7
				c0.9-0.5,1.6-1.3,2.2-2.3c0.5-1,0.8-2.2,0.8-3.5v-8.6c0-1.3-0.3-2.5-0.8-3.5c-0.5-1-1.2-1.8-2.2-2.3c-0.9-0.5-2-0.8-3.2-0.8
				c-1.2,0-2.3,0.3-3.2,0.8c-0.9,0.5-1.6,1.3-2.2,2.3c-0.5,1-0.8,2.2-0.8,3.5v8.6c0,1.3,0.3,2.5,0.8,3.5c0.5,1,1.2,1.8,2.2,2.3
				c0.9,0.5,2,0.8,3.2,0.8C927.7,956.5,928.7,956.2,929.7,955.7z"/>
			<path class="st1" d="M947.6,960.3h-4.1v-29.5h4.1V960.3z"/>
			<path class="st1" d="M959.2,959.2c-1.6-0.9-2.8-2.2-3.6-3.9c-0.9-1.7-1.3-3.6-1.3-5.8v-8.1c0-2.2,0.4-4.1,1.3-5.8
				c0.9-1.7,2.1-3,3.6-3.9c1.5-0.9,3.3-1.4,5.4-1.4c1.7,0,3.2,0.4,4.7,1.1c1.4,0.7,2.6,1.7,3.6,3.1c1,1.3,1.6,2.9,1.9,4.6h-4.2
				c-0.3-0.9-0.7-1.7-1.3-2.5c-0.6-0.7-1.3-1.3-2.1-1.7c-0.8-0.4-1.7-0.6-2.5-0.6c-1.2,0-2.3,0.3-3.2,0.9c-0.9,0.6-1.6,1.4-2.1,2.4
				s-0.8,2.3-0.8,3.7v8.1c0,1.4,0.3,2.6,0.8,3.7s1.2,1.9,2.1,2.4c0.9,0.6,2,0.9,3.2,0.9c0.9,0,1.7-0.2,2.5-0.5
				c0.8-0.4,1.5-0.9,2.1-1.6c0.6-0.7,1-1.6,1.3-2.6h4.2c-0.3,1.7-1,3.3-1.9,4.6c-1,1.3-2.2,2.4-3.6,3.1c-1.4,0.7-3,1.1-4.6,1.1
				C962.6,960.6,960.8,960.1,959.2,959.2z"/>
			<path class="st1" d="M980.7,930.7h4.1v29.5h-4.1V930.7z M982.7,930.7h16.9v3.9h-16.9V930.7z M982.7,943.6h14.7v3.9h-14.7V943.6z
				 M982.7,956.3h16.9v3.9h-16.9V956.3z"/>
			<path class="st1" d="M1020.9,959.2c-1.5-0.9-2.8-2.2-3.6-3.9c-0.9-1.7-1.3-3.6-1.3-5.8v-8.1c0-2.2,0.4-4.1,1.3-5.8
				c0.9-1.7,2.1-3,3.6-3.9c1.5-0.9,3.3-1.4,5.4-1.4c1.7,0,3.2,0.4,4.7,1.1c1.4,0.7,2.6,1.7,3.6,3.1c1,1.3,1.6,2.9,1.9,4.6h-4.2
				c-0.3-0.9-0.7-1.7-1.3-2.5c-0.6-0.7-1.3-1.3-2.1-1.7c-0.8-0.4-1.7-0.6-2.5-0.6c-1.2,0-2.3,0.3-3.2,0.9c-0.9,0.6-1.6,1.4-2.1,2.4
				c-0.5,1-0.8,2.3-0.8,3.7v8.1c0,1.4,0.2,2.6,0.8,3.7c0.5,1.1,1.2,1.9,2.1,2.4c0.9,0.6,2,0.9,3.2,0.9c0.9,0,1.7-0.2,2.5-0.5
				s1.5-0.9,2.1-1.6c0.6-0.7,1-1.6,1.3-2.6h4.2c-0.3,1.7-1,3.3-1.9,4.6s-2.2,2.4-3.6,3.1s-3,1.1-4.6,1.1
				C1024.3,960.6,1022.5,960.1,1020.9,959.2z"/>
			<path class="st1" d="M1042.4,930.7h4.1v29.5h-4.1V930.7z M1045,943.8h16.4v3.9H1045V943.8z M1059.2,930.7h4.1v29.5h-4.1V930.7z"
				/>
			<path class="st1" d="M1078.6,930.7h3.5l10.9,29.5h-4.5l-8.2-23.8l-8.2,23.8h-4.5L1078.6,930.7z M1072.8,949.8h15.5v3.9h-15.5
				V949.8z"/>
			<path class="st1" d="M1097.5,930.7h3.8l14.4,22.8l-0.5,0.5v-23.3h4.1v29.5h-3.8l-14.4-22.5l0.5-0.5v23h-4.1V930.7z"/>
			<path class="st1" d="M1126.6,930.7h3.8l14.4,22.8l-0.5,0.5v-23.3h4.1v29.5h-3.8l-14.4-22.5l0.5-0.5v23h-4.1V930.7z"/>
			<path class="st1" d="M1155.7,930.7h4.1v29.5h-4.1V930.7z M1157.7,930.7h16.9v3.9h-16.9V930.7z M1157.7,943.6h14.7v3.9h-14.7
				V943.6z M1157.7,956.3h16.9v3.9h-16.9V956.3z"/>
			<path class="st1" d="M1180.6,930.7h4.1v29.5h-4.1V930.7z M1182.6,956.3h16.9v3.9h-16.9V956.3z"/>
		</g>
	</g>
</g>
<g>
	<g>
		<g>
			<path class="st1" d="M991.4,1051.6c-1.3-0.6-2.4-1.5-3.2-2.7l3.4-2.4c0.4,0.7,0.9,1.2,1.6,1.5c0.7,0.4,1.5,0.5,2.5,0.5
				c1.6,0,2.9-0.5,3.7-1.5c0.9-1,1.3-2.4,1.3-4.2v-20.1h4.1v20.1c0,2-0.4,3.8-1.1,5.2c-0.7,1.4-1.8,2.6-3.1,3.3s-3,1.1-5,1.1
				C994.1,1052.5,992.7,1052.2,991.4,1051.6z"/>
			<path class="st1" d="M1016.6,1051.3c-1.5-0.9-2.7-2.1-3.5-3.8c-0.8-1.6-1.2-3.6-1.2-5.9v-18.8h4.1v19c0,2.2,0.5,3.8,1.6,5
				c1.1,1.2,2.6,1.8,4.6,1.8c2,0,3.5-0.6,4.6-1.8c1.1-1.2,1.6-2.8,1.6-5v-19h4.1v18.8c0,2.3-0.4,4.3-1.2,5.9c-0.8,1.6-2,2.9-3.6,3.8
				s-3.4,1.3-5.6,1.3C1020,1052.5,1018.1,1052.1,1016.6,1051.3z"/>
			<path class="st1" d="M1039.5,1022.7h4.1v29.5h-4.1V1022.7z M1041.5,1048.3h16.9v3.9h-16.9V1048.3z"/>
			<path class="st1" d="M1067.4,1052.2h-4.1v-29.5h4.1V1052.2z"/>
			<path class="st1" d="M1082.8,1022.7h3.5l10.9,29.5h-4.5l-8.2-23.8l-8.2,23.8h-4.5L1082.8,1022.7z M1076.9,1041.8h15.5v3.9h-15.5
				V1041.8z"/>
			<path class="st1" d="M1101.7,1022.7h3.8l14.4,22.8l-0.5,0.5v-23.3h4.1v29.5h-3.8l-14.4-22.5l0.5-0.5v23h-4.1V1022.7z"/>
		</g>
	</g>
</g>
<circle class="st5" cx="928.4" cy="1039.5" r="32.6"/>
<g>
	<g>
		<g>
			<path class="st1" d="M991.2,1118.9h4.1v29.5h-4.1V1118.9z M993.4,1133h9.4c0.9,0,1.7-0.2,2.4-0.6c0.7-0.4,1.2-1,1.6-1.8
				c0.4-0.8,0.6-1.7,0.6-2.7c0-1-0.2-1.9-0.6-2.7c-0.4-0.8-0.9-1.4-1.6-1.8c-0.7-0.4-1.5-0.6-2.4-0.6h-9.4v-3.9h9.3
				c1.8,0,3.3,0.4,4.6,1.1c1.3,0.8,2.4,1.8,3.1,3.2c0.7,1.4,1.1,2.9,1.1,4.7s-0.4,3.4-1.1,4.7c-0.7,1.4-1.8,2.4-3.1,3.2
				c-1.3,0.7-2.9,1.1-4.6,1.1h-9.3V1133z"/>
			<path class="st1" d="M1017.1,1118.9h4.1v29.5h-4.1V1118.9z M1019.7,1131.9h16.4v3.9h-16.4V1131.9z M1033.9,1118.9h4.1v29.5h-4.1
				V1118.9z"/>
			<path class="st1" d="M1049.5,1148.4h-4.1v-29.5h4.1V1148.4z"/>
			<path class="st1" d="M1056.8,1118.9h4.1v29.5h-4.1V1118.9z M1058.8,1144.5h16.9v3.9h-16.9V1144.5z"/>
			<path class="st1" d="M1084.7,1148.4h-4.1v-29.5h4.1V1148.4z"/>
			<path class="st1" d="M1092,1118.9h4.1v29.5h-4.1V1118.9z M1094.2,1133h9.4c0.9,0,1.7-0.2,2.4-0.6c0.7-0.4,1.2-1,1.6-1.8
				c0.4-0.8,0.6-1.7,0.6-2.7c0-1-0.2-1.9-0.6-2.7c-0.4-0.8-0.9-1.4-1.6-1.8c-0.7-0.4-1.5-0.6-2.4-0.6h-9.4v-3.9h9.3
				c1.8,0,3.3,0.4,4.6,1.1c1.3,0.8,2.4,1.8,3.1,3.2c0.7,1.4,1.1,2.9,1.1,4.7s-0.4,3.4-1.1,4.7c-0.7,1.4-1.8,2.4-3.1,3.2
				c-1.3,0.7-2.9,1.1-4.6,1.1h-9.3V1133z"/>
			<path class="st1" d="M1117.9,1118.9h4.1v29.5h-4.1V1118.9z M1120,1133h9.4c0.9,0,1.7-0.2,2.4-0.6c0.7-0.4,1.2-1,1.6-1.8
				c0.4-0.8,0.6-1.7,0.6-2.7c0-1-0.2-1.9-0.6-2.7c-0.4-0.8-0.9-1.4-1.6-1.8c-0.7-0.4-1.5-0.6-2.4-0.6h-9.4v-3.9h9.3
				c1.8,0,3.3,0.4,4.6,1.1c1.3,0.8,2.4,1.8,3.1,3.2c0.7,1.4,1.1,2.9,1.1,4.7s-0.4,3.4-1.1,4.7c-0.7,1.4-1.8,2.4-3.1,3.2
				c-1.3,0.7-2.9,1.1-4.6,1.1h-9.3V1133z"/>
		</g>
	</g>
</g>
<circle class="st10" cx="928.4" cy="1135.6" r="32.6"/>
<path class="st0" d="M683.5,1259.1H90.8c-21.9,0-39.6-17.7-39.6-39.6v-248c0-21.9,17.7-39.6,39.6-39.6h592.8
	c21.9,0,39.6,17.7,39.6,39.6v248C723.2,1241.4,705.4,1259.1,683.5,1259.1z"/>
<path class="st1" d="M113.9,977.6c1.9,2,4.4,3.4,7.1,4.2c0.1,0.6,0.1,1.2,0.1,1.9c0,4-1.7,7.6-4.4,10.1c-1.2,1.1-3.2,0.3-3.2-1.4
	v-15.3C113.7,977.3,113.8,977.4,113.9,977.6z"/>
<path class="st1" d="M116,970.4l-4.7-4.7h3.6c0-0.7,0.1-1.3,0.2-2c0.4-2.1,1.4-4,2.8-5.5c2.1-2.2,5.1-3.6,8.5-3.4
	c5.6,0.3,10.1,4.8,10.4,10.4c0.2,3.4-1.3,6.5-3.6,8.6c-1.5,1.4-3.4,2.3-5.5,2.7c-0.6,0.1-1.2,0.1-1.8,0.1c-3,0-5.7-1.2-7.7-3.2
	l1.7-1.7c1.5,1.5,3.6,2.5,6,2.5c0.3,0,0.5,0,0.8,0c2.2-0.2,4.1-1.2,5.5-2.7c1.4-1.6,2.3-3.7,2.2-6c-0.2-4.4-3.7-8-8.1-8.1
	c-2.3-0.1-4.4,0.7-5.9,2.1c-1.5,1.4-2.6,3.3-2.8,5.4c0,0.3-0.1,0.6-0.1,0.9h3.6l-0.8,0.8l-4.1,4.1L116,970.4z"/>
<polygon class="st1" points="126.4,965.8 130,968 130.6,968.4 130.4,968.7 129.7,969.9 124.5,966.9 124.5,960.8 126.4,960.8 "/>
<path class="st1" d="M134.6,979.8c0.2,1.3,0.3,2.6,0.3,3.9c0,12.2-7.9,22.5-18.9,26.1c-1.2,0.4-2.5-0.5-2.5-1.8v-2.4
	c0-0.8,0.5-1.5,1.2-1.8c8.2-3,14-10.9,14-20.1c0-0.5,0-1-0.1-1.5C130.9,981.8,132.9,980.9,134.6,979.8z"/>
<path class="st1" d="M134.6,979.8c-1.8,1.1-3.7,2-5.9,2.4c0,0.5,0.1,1,0.1,1.5c0,9.2-5.9,17.1-14,20.1c-0.7,0.3-1.2,1-1.2,1.8v2.4
	c0,1.3,1.3,2.2,2.5,1.8c11-3.6,18.9-13.9,18.9-26.1C134.9,982.4,134.8,981.1,134.6,979.8z M127.5,976.4c2.1-0.3,4-1.3,5.5-2.7
	c-0.3-0.8-0.7-1.6-1-2.4c-1.4,1.5-3.3,2.5-5.5,2.7C126.9,974.9,127.2,975.6,127.5,976.4z M130.4,968.7c-0.1-0.2-0.3-0.4-0.4-0.7
	l-3.6-2.2v-2.1c-0.6-0.6-1.2-1.1-1.8-1.6v4.7l5.1,3L130.4,968.7z M120.1,966.5l0.8-0.8h-2C119.4,965.9,119.7,966.2,120.1,966.5z
	 M120.2,959.3c-0.8-0.4-1.5-0.8-2.3-1.1c-1.4,1.5-2.4,3.4-2.8,5.5c0.8,0.3,1.6,0.6,2.3,1C117.6,962.6,118.6,960.7,120.2,959.3z
	 M121,981.8c-2.7-0.8-5.2-2.3-7.1-4.2c-0.1-0.1-0.3-0.3-0.4-0.4v15.3c0,1.7,2,2.5,3.2,1.4c2.7-2.5,4.4-6.1,4.4-10.1
	C121.2,983.1,121.1,982.4,121,981.8z M104.2,962.5L92.7,974c-0.4,0.4-0.8,0.6-1.3,0.6h-9.5c-1.1,0-1.9,0.9-1.9,1.9V991
	c0,1.1,0.9,1.9,1.9,1.9h9.5c0.5,0,1,0.2,1.3,0.6l11.5,11.5c1.2,1.2,3.2,0.3,3.2-1.3v-39.7C107.4,962.1,105.4,961.3,104.2,962.5z"/>
<polygon class="st1" points="126.4,965.8 130,968 130.6,968.4 130.4,968.7 129.7,969.9 124.5,966.9 124.5,960.8 126.4,960.8 "/>
<path class="st1" d="M133.1,973.7c-1.5,1.4-3.4,2.3-5.5,2.7c-0.6,0.1-1.2,0.1-1.8,0.1c-3,0-5.7-1.2-7.7-3.2l1.7-1.7
	c1.5,1.5,3.6,2.5,6,2.5c0.3,0,0.5,0,0.8,0c2.2-0.2,4.1-1.2,5.5-2.7c1.4-1.6,2.3-3.7,2.2-6c-0.2-4.4-3.7-8-8.1-8.1
	c-2.3-0.1-4.4,0.7-5.9,2.1c-1.5,1.4-2.6,3.3-2.8,5.4c0,0.3-0.1,0.6-0.1,0.9h3.6l-0.8,0.8l-4.1,4.1l-0.1-0.2l-4.7-4.7h3.6
	c0-0.7,0.1-1.3,0.2-2c0.4-2.1,1.4-4,2.8-5.5c2.1-2.2,5.1-3.6,8.5-3.4c5.6,0.3,10.1,4.8,10.4,10.4
	C136.8,968.6,135.4,971.6,133.1,973.7z"/>
<path class="st1" d="M113.5,977.1c0.1,0.1,0.3,0.3,0.4,0.4h-0.4V977.1z"/>
<polygon class="st1" points="126.4,965.8 130,968 130.6,968.4 130.4,968.7 129.7,969.9 124.5,966.9 124.5,960.8 126.4,960.8 "/>
<path class="st1" d="M133.1,973.7c-1.5,1.4-3.4,2.3-5.5,2.7c-0.6,0.1-1.2,0.1-1.8,0.1c-3,0-5.7-1.2-7.7-3.2l1.7-1.7
	c1.5,1.5,3.6,2.5,6,2.5c0.3,0,0.5,0,0.8,0c2.2-0.2,4.1-1.2,5.5-2.7c1.4-1.6,2.3-3.7,2.2-6c-0.2-4.4-3.7-8-8.1-8.1
	c-2.3-0.1-4.4,0.7-5.9,2.1c-1.5,1.4-2.6,3.3-2.8,5.4c0,0.3-0.1,0.6-0.1,0.9h3.6l-0.8,0.8l-4.1,4.1l-0.1-0.2l-4.7-4.7h3.6
	c0-0.7,0.1-1.3,0.2-2c0.4-2.1,1.4-4,2.8-5.5c2.1-2.2,5.1-3.6,8.5-3.4c5.6,0.3,10.1,4.8,10.4,10.4
	C136.8,968.6,135.4,971.6,133.1,973.7z"/>
<path class="st1" d="M130,968l-3.6-2.2v-5h-1.8v6l5.1,3l0.8-1.3l0.2-0.3L130,968z M136.6,965.2c-0.3-5.6-4.8-10.1-10.4-10.4
	c-3.3-0.2-6.4,1.2-8.5,3.4c-1.4,1.5-2.4,3.4-2.8,5.5c-0.1,0.6-0.2,1.3-0.2,2h-3.6l4.7,4.7l0.1,0.2l4.1-4.1l0.8-0.8h-3.6
	c0-0.3,0-0.6,0.1-0.9c0.2-2.1,1.3-4.1,2.8-5.4c1.6-1.4,3.7-2.2,5.9-2.1c4.4,0.2,8,3.7,8.1,8.1c0.1,2.3-0.8,4.5-2.2,6
	c-1.4,1.5-3.3,2.5-5.5,2.7c-0.3,0-0.5,0-0.8,0c-2.3,0-4.5-1-6-2.5l-1.7,1.7c2,2,4.7,3.2,7.7,3.2c0.6,0,1.2,0,1.8-0.1
	c2.1-0.3,4-1.3,5.5-2.7C135.4,971.6,136.8,968.6,136.6,965.2z M130,968c0.2,0.2,0.3,0.4,0.4,0.7l0.2-0.3L130,968z M126.4,960.8h-1.8
	v1.4c0.6,0.5,1.2,1,1.8,1.6V960.8z"/>
<g>
	<g>
		<g>
			<path class="st1" d="M162.6,968.5h4.5l7.1,23.1l7.1-23.1h4.5l-9.6,29.5h-3.9L162.6,968.5z"/>
			<path class="st1" d="M194.3,996.9c-1.6-0.9-2.8-2.2-3.6-3.8c-0.9-1.6-1.3-3.5-1.3-5.7V979c0-2.2,0.4-4.1,1.3-5.7
				c0.9-1.6,2.1-2.9,3.6-3.8c1.6-0.9,3.4-1.3,5.4-1.3s3.9,0.5,5.4,1.3c1.6,0.9,2.8,2.2,3.6,3.8c0.9,1.6,1.3,3.5,1.3,5.7v8.4
				c0,2.2-0.4,4.1-1.3,5.7c-0.9,1.6-2.1,2.9-3.6,3.8c-1.6,0.9-3.4,1.3-5.4,1.3S195.9,997.8,194.3,996.9z M203,993.4
				c0.9-0.5,1.6-1.3,2.2-2.3c0.5-1,0.8-2.2,0.8-3.5v-8.6c0-1.3-0.3-2.5-0.8-3.5c-0.5-1-1.2-1.8-2.2-2.3s-2-0.8-3.2-0.8
				s-2.3,0.3-3.2,0.8s-1.6,1.3-2.2,2.3c-0.5,1-0.8,2.2-0.8,3.5v8.6c0,1.3,0.3,2.5,0.8,3.5c0.5,1,1.2,1.8,2.2,2.3
				c0.9,0.5,2,0.8,3.2,0.8S202.1,993.9,203,993.4z"/>
			<path class="st1" d="M221,998h-4.1v-29.5h4.1V998z"/>
			<path class="st1" d="M232.6,996.9c-1.5-0.9-2.8-2.2-3.6-3.9c-0.9-1.7-1.3-3.6-1.3-5.8v-8.1c0-2.2,0.4-4.1,1.3-5.8s2.1-3,3.6-3.9
				c1.5-0.9,3.3-1.4,5.4-1.4c1.7,0,3.2,0.4,4.7,1.1s2.6,1.7,3.6,3.1c1,1.3,1.6,2.9,1.9,4.6h-4.2c-0.3-0.9-0.7-1.7-1.3-2.5
				s-1.3-1.3-2.1-1.7c-0.8-0.4-1.7-0.6-2.5-0.6c-1.2,0-2.3,0.3-3.2,0.9c-0.9,0.6-1.6,1.4-2.1,2.4c-0.5,1-0.8,2.3-0.8,3.7v8.1
				c0,1.4,0.3,2.6,0.8,3.7c0.5,1.1,1.2,1.9,2.1,2.4c0.9,0.6,2,0.9,3.2,0.9c0.9,0,1.7-0.2,2.5-0.5c0.8-0.4,1.5-0.9,2.1-1.6
				c0.6-0.7,1-1.6,1.3-2.6h4.2c-0.3,1.7-1,3.3-1.9,4.6c-1,1.3-2.2,2.4-3.6,3.1c-1.4,0.7-3,1.1-4.6,1.1
				C235.9,998.3,234.1,997.8,232.6,996.9z"/>
			<path class="st1" d="M254,968.5h4.1V998H254V968.5z M256,968.5H273v3.9H256V968.5z M256,981.3h14.7v3.9H256V981.3z M256,994H273
				v3.9H256V994z"/>
			<path class="st1" d="M294.3,996.9c-1.5-0.9-2.8-2.2-3.6-3.9c-0.9-1.7-1.3-3.6-1.3-5.8v-8.1c0-2.2,0.4-4.1,1.3-5.8s2.1-3,3.6-3.9
				c1.5-0.9,3.3-1.4,5.4-1.4c1.7,0,3.2,0.4,4.7,1.1s2.6,1.7,3.6,3.1c1,1.3,1.6,2.9,1.9,4.6h-4.2c-0.3-0.9-0.7-1.7-1.3-2.5
				s-1.3-1.3-2.1-1.7c-0.8-0.4-1.7-0.6-2.5-0.6c-1.2,0-2.3,0.3-3.2,0.9c-0.9,0.6-1.6,1.4-2.1,2.4c-0.5,1-0.8,2.3-0.8,3.7v8.1
				c0,1.4,0.3,2.6,0.8,3.7c0.5,1.1,1.2,1.9,2.1,2.4c0.9,0.6,2,0.9,3.2,0.9c0.9,0,1.7-0.2,2.5-0.5c0.8-0.4,1.5-0.9,2.1-1.6
				c0.6-0.7,1-1.6,1.3-2.6h4.2c-0.3,1.7-1,3.3-1.9,4.6c-1,1.3-2.2,2.4-3.6,3.1c-1.4,0.7-3,1.1-4.6,1.1
				C297.6,998.3,295.8,997.8,294.3,996.9z"/>
			<path class="st1" d="M315.7,968.5h4.1V998h-4.1V968.5z M318.3,981.5h16.4v3.9h-16.4V981.5z M332.5,968.5h4.1V998h-4.1V968.5z"/>
			<path class="st1" d="M352,968.5h3.5l10.9,29.5h-4.5l-8.2-23.8l-8.2,23.8h-4.5L352,968.5z M346.1,987.6h15.5v3.9h-15.5V987.6z"/>
			<path class="st1" d="M370.8,968.5h3.8l14.4,22.8l-0.5,0.5v-23.3h4.1v29.5h-3.8l-14.4-22.5l0.5-0.5v23h-4.1V968.5z"/>
			<path class="st1" d="M399.9,968.5h3.8l14.4,22.8l-0.5,0.5v-23.3h4.1v29.5h-3.8l-14.4-22.5l0.5-0.5v23h-4.1V968.5z"/>
			<path class="st1" d="M429.1,968.5h4.1V998h-4.1V968.5z M431.1,968.5H448v3.9h-16.9V968.5z M431.1,981.3h14.7v3.9h-14.7V981.3z
				 M431.1,994H448v3.9h-16.9V994z"/>
			<path class="st1" d="M453.9,968.5h4.1V998h-4.1V968.5z M456,994h16.9v3.9H456V994z"/>
		</g>
	</g>
</g>
<g>
	<g>
		<g>
			<path class="st1" d="M269.8,1094.9c-1.5-0.9-2.8-2.2-3.6-3.9c-0.9-1.7-1.3-3.6-1.3-5.8v-8.1c0-2.2,0.4-4.1,1.3-5.8s2.1-3,3.6-3.9
				c1.5-0.9,3.3-1.4,5.4-1.4c1.7,0,3.2,0.4,4.7,1.1s2.6,1.7,3.6,3.1c1,1.3,1.6,2.9,1.9,4.6h-4.2c-0.3-0.9-0.7-1.7-1.3-2.5
				s-1.3-1.3-2.1-1.7c-0.8-0.4-1.7-0.6-2.5-0.6c-1.2,0-2.3,0.3-3.2,0.9c-0.9,0.6-1.6,1.4-2.1,2.4c-0.5,1-0.8,2.3-0.8,3.7v8.1
				c0,1.4,0.3,2.6,0.8,3.7c0.5,1.1,1.2,1.9,2.1,2.4c0.9,0.6,2,0.9,3.2,0.9c0.9,0,1.7-0.2,2.5-0.5c0.8-0.4,1.5-0.9,2.1-1.6
				c0.6-0.7,1-1.6,1.3-2.6h4.2c-0.3,1.7-1,3.3-1.9,4.6c-1,1.3-2.2,2.4-3.6,3.1c-1.4,0.7-3,1.1-4.6,1.1
				C273.2,1096.3,271.4,1095.8,269.8,1094.9z"/>
			<path class="st1" d="M295.6,1094.9c-1.6-0.9-2.8-2.2-3.6-3.8c-0.9-1.6-1.3-3.5-1.3-5.7v-8.4c0-2.2,0.4-4.1,1.3-5.7
				c0.9-1.6,2.1-2.9,3.6-3.8c1.6-0.9,3.4-1.3,5.4-1.3s3.9,0.5,5.4,1.3c1.6,0.9,2.8,2.2,3.6,3.8c0.9,1.6,1.3,3.5,1.3,5.7v8.4
				c0,2.2-0.4,4.1-1.3,5.7c-0.9,1.6-2.1,2.9-3.6,3.8c-1.6,0.9-3.4,1.3-5.4,1.3S297.2,1095.8,295.6,1094.9z M304.2,1091.4
				c0.9-0.5,1.6-1.3,2.2-2.3c0.5-1,0.8-2.2,0.8-3.5v-8.6c0-1.3-0.3-2.5-0.8-3.5c-0.5-1-1.2-1.8-2.2-2.3s-2-0.8-3.2-0.8
				s-2.3,0.3-3.2,0.8s-1.6,1.3-2.2,2.3c-0.5,1-0.8,2.2-0.8,3.5v8.6c0,1.3,0.3,2.5,0.8,3.5c0.5,1,1.2,1.8,2.2,2.3
				c0.9,0.5,2,0.8,3.2,0.8S303.3,1091.9,304.2,1091.4z"/>
			<path class="st1" d="M318.1,1066.4h4.1v29.5h-4.1V1066.4z M320.2,1092h16.9v3.9h-16.9V1092z"/>
			<path class="st1" d="M346.1,1096h-4.1v-29.5h4.1V1096z"/>
			<path class="st1" d="M353.4,1066.4h3.8l14.4,22.8l-0.5,0.5v-23.3h4.1v29.5h-3.8l-14.4-22.5l0.5-0.5v23h-4.1V1066.4z"/>
		</g>
	</g>
</g>
<circle class="st9" cx="202.7" cy="1083.2" r="32.6"/>
<g>
	<g>
		<g>
			<path class="st1" d="M286.8,1166.6h3.9v29.5h-4V1174l0.2,1.3l-7.3,16.7h-2.9l-7.3-16.3l0.2-1.7v22.1h-4v-29.5h3.9l8.7,19.5
				L286.8,1166.6z"/>
			<path class="st1" d="M302.1,1196.1h-4.1v-29.5h4.1V1196.1z"/>
			<path class="st1" d="M313.7,1195.1c-1.5-0.9-2.8-2.2-3.6-3.9c-0.9-1.7-1.3-3.6-1.3-5.8v-8.1c0-2.2,0.4-4.1,1.3-5.8s2.1-3,3.6-3.9
				c1.5-0.9,3.3-1.4,5.4-1.4c1.7,0,3.2,0.4,4.7,1.1s2.6,1.7,3.6,3.1c1,1.3,1.6,2.9,1.9,4.6H325c-0.3-0.9-0.7-1.7-1.3-2.5
				s-1.3-1.3-2.1-1.7c-0.8-0.4-1.7-0.6-2.5-0.6c-1.2,0-2.3,0.3-3.2,0.9c-0.9,0.6-1.6,1.4-2.1,2.4c-0.5,1-0.8,2.3-0.8,3.7v8.1
				c0,1.4,0.3,2.6,0.8,3.7c0.5,1.1,1.2,1.9,2.1,2.4c0.9,0.6,2,0.9,3.2,0.9c0.9,0,1.7-0.2,2.5-0.5c0.8-0.4,1.5-0.9,2.1-1.6
				c0.6-0.7,1-1.6,1.3-2.6h4.2c-0.3,1.7-1,3.3-1.9,4.6c-1,1.3-2.2,2.4-3.6,3.1c-1.4,0.7-3,1.1-4.6,1.1
				C317,1196.4,315.2,1196,313.7,1195.1z"/>
			<path class="st1" d="M335.1,1166.6h4.1v29.5h-4.1V1166.6z M337.7,1179.6h16.4v3.9h-16.4V1179.6z M351.9,1166.6h4.1v29.5h-4.1
				V1166.6z"/>
			<path class="st1" d="M367.5,1196.1h-4.1v-29.5h4.1V1196.1z"/>
		</g>
	</g>
</g>
<circle class="st4" cx="202.7" cy="1183.4" r="32.6"/>
<path class="st0" d="M700,483.3H74.3c-12.8,0-23.2-10.4-23.2-23.2v0c0-12.8,10.4-23.2,23.2-23.2H700c12.8,0,23.2,10.4,23.2,23.2v0
	C723.2,473,712.8,483.3,700,483.3z"/>
<path class="st1" d="M90.3,454.5L90.3,454.5c0.5,0.5,0.5,1.4,0,1.9l-9.4,9.4c-0.5,0.5-1.4,0.5-1.9,0l0,0c-0.5-0.5-0.5-1.4,0-1.9
	l9.4-9.4C88.9,454,89.8,454,90.3,454.5z"/>
<path class="st1" d="M69.5,454.5L69.5,454.5c0.5-0.5,1.4-0.5,1.9,0l9.4,9.4c0.5,0.5,0.5,1.4,0,1.9h0c-0.5,0.5-1.4,0.5-1.9,0
	l-9.4-9.4C68.9,455.9,68.9,455,69.5,454.5z"/>
<g>
	<g>
		<g>
			<path class="st1" d="M123,450.4h2.6V470h-2.7v-14.7l0.1,0.9l-4.8,11.1h-1.9l-4.8-10.8l0.1-1.1V470h-2.7v-19.6h2.6l5.8,13
				L123,450.4z"/>
			<path class="st1" d="M135.8,450.4h2.3l7.2,19.6h-3l-5.4-15.8l-5.4,15.8h-3L135.8,450.4z M131.9,463.1h10.3v2.6h-10.3V463.1z"/>
			<path class="st1" d="M153,458.8l4.9-8.4h3.1l-6.5,10.6l-5.3,9h-3.1L153,458.8z M153.1,461.4l-0.4-0.7l-6.4-10.3h3.1l4.7,8
				l0.4,0.7l6.7,10.9h-3.1L153.1,461.4z"/>
		</g>
	</g>
</g>
<path class="st0" d="M700,914.3H74.3c-12.8,0-23.2-10.4-23.2-23.2l0,0c0-12.8,10.4-23.2,23.2-23.2H700c12.8,0,23.2,10.4,23.2,23.2
	l0,0C723.2,904,712.8,914.3,700,914.3z"/>
<path class="st1" d="M90.3,885.5L90.3,885.5c0.5,0.5,0.5,1.4,0,1.9l-9.4,9.4c-0.5,0.5-1.4,0.5-1.9,0l0,0c-0.5-0.5-0.5-1.4,0-1.9
	l9.4-9.4C88.9,885,89.8,885,90.3,885.5z"/>
<path class="st1" d="M69.5,885.5L69.5,885.5c0.5-0.5,1.4-0.5,1.9,0l9.4,9.4c0.5,0.5,0.5,1.4,0,1.9h0c-0.5,0.5-1.4,0.5-1.9,0
	l-9.4-9.4C68.9,886.9,68.9,886,69.5,885.5z"/>
<g>
	<g>
		<g>
			<path class="st1" d="M123,881.4h2.6V901h-2.7v-14.7l0.1,0.9l-4.8,11.1h-1.9l-4.8-10.8l0.1-1.1V901h-2.7v-19.6h2.6l5.8,13
				L123,881.4z"/>
			<path class="st1" d="M133.2,901h-2.8v-19.6h2.8V901z"/>
			<path class="st1" d="M140.9,900.3c-1-0.6-1.8-1.5-2.4-2.6s-0.9-2.4-0.9-3.8v-5.4c0-1.5,0.3-2.7,0.9-3.8s1.4-2,2.4-2.6
				c1-0.6,2.2-0.9,3.6-0.9c1.1,0,2.2,0.2,3.1,0.7s1.7,1.2,2.4,2c0.6,0.9,1.1,1.9,1.3,3.1h-2.8c-0.2-0.6-0.5-1.2-0.9-1.6
				c-0.4-0.5-0.9-0.9-1.4-1.1c-0.5-0.3-1.1-0.4-1.7-0.4c-0.8,0-1.5,0.2-2.1,0.6c-0.6,0.4-1.1,0.9-1.4,1.6c-0.3,0.7-0.5,1.5-0.5,2.4
				v5.4c0,0.9,0.2,1.7,0.5,2.4c0.3,0.7,0.8,1.2,1.4,1.6c0.6,0.4,1.3,0.6,2.1,0.6c0.6,0,1.1-0.1,1.7-0.4s1-0.6,1.4-1.1
				c0.4-0.5,0.7-1,0.9-1.7h2.8c-0.2,1.2-0.7,2.2-1.3,3.1c-0.6,0.9-1.4,1.6-2.4,2c-0.9,0.5-2,0.7-3.1,0.7
				C143.1,901.2,141.9,900.9,140.9,900.3z"/>
			<path class="st1" d="M155.2,881.4h2.8V901h-2.8V881.4z M156.9,890h10.9v2.6h-10.9V890z M166.3,881.4h2.8V901h-2.8V881.4z"/>
			<path class="st1" d="M176.7,901h-2.8v-19.6h2.8V901z"/>
		</g>
	</g>
</g>
<path class="st1" d="M340.3,618.8L340.3,618.8c0.5,0.5,0.5,1.4,0,1.9l-9.4,9.4c-0.5,0.5-1.4,0.5-1.9,0l0,0c-0.5-0.5-0.5-1.4,0-1.9
	l9.4-9.4C338.9,618.2,339.8,618.2,340.3,618.8z"/>
<path class="st1" d="M319.5,618.8L319.5,618.8c0.5-0.5,1.4-0.5,1.9,0l9.4,9.4c0.5,0.5,0.5,1.4,0,1.9l0,0c-0.5,0.5-1.4,0.5-1.9,0
	l-9.4-9.4C318.9,620.2,318.9,619.3,319.5,618.8z"/>
<g>
	<g>
		<g>
			<path class="st1" d="M356.2,614.6H370v2.6h-13.9V614.6z M361.7,616.3h2.8v18h-2.8V616.3z"/>
			<path class="st1" d="M374.9,634.3h-2.8v-19.6h2.8V634.3z"/>
			<path class="st1" d="M393.9,614.6h2.6v19.6h-2.7v-14.7l0.1,0.9l-4.8,11.1h-1.9l-4.8-10.8l0.1-1.1v14.7h-2.7v-19.6h2.6l5.8,13
				L393.9,614.6z"/>
		</g>
	</g>
</g>
<path class="st0" d="M683.5,830.7H90.8c-21.9,0-39.6-17.7-39.6-39.6v-248c0-21.9,17.7-39.6,39.6-39.6h592.8
	c21.9,0,39.6,17.7,39.6,39.6v248C723.2,813,705.4,830.7,683.5,830.7z"/>
<path class="st1" d="M113.9,552.2c1.9,2,4.4,3.4,7.1,4.2c0.1,0.6,0.1,1.2,0.1,1.9c0,4-1.7,7.6-4.4,10.1c-1.2,1.1-3.2,0.3-3.2-1.4
	v-15.3C113.7,551.9,113.8,552.1,113.9,552.2z"/>
<path class="st1" d="M116,545l-4.7-4.7h3.6c0-0.7,0.1-1.3,0.2-2c0.4-2.1,1.4-4,2.8-5.5c2.1-2.2,5.1-3.6,8.5-3.4
	c5.6,0.3,10.1,4.8,10.4,10.4c0.2,3.4-1.3,6.5-3.6,8.6c-1.5,1.4-3.4,2.3-5.5,2.7c-0.6,0.1-1.2,0.1-1.8,0.1c-3,0-5.7-1.2-7.7-3.2
	l1.7-1.7c1.5,1.5,3.6,2.5,6,2.5c0.3,0,0.5,0,0.8,0c2.2-0.2,4.1-1.2,5.5-2.7c1.4-1.6,2.3-3.7,2.2-6c-0.2-4.4-3.7-8-8.1-8.1
	c-2.3-0.1-4.4,0.7-5.9,2.1c-1.5,1.4-2.6,3.3-2.8,5.4c0,0.3-0.1,0.6-0.1,0.9h3.6l-0.8,0.8l-4.1,4.1L116,545z"/>
<polygon class="st1" points="126.4,540.5 130,542.6 130.6,543 130.4,543.3 129.7,544.6 124.5,541.5 124.5,535.5 126.4,535.5 "/>
<path class="st1" d="M134.6,554.4c0.2,1.3,0.3,2.6,0.3,3.9c0,12.2-7.9,22.5-18.9,26.1c-1.2,0.4-2.5-0.5-2.5-1.8v-2.4
	c0-0.8,0.5-1.5,1.2-1.8c8.2-3,14-10.9,14-20.1c0-0.5,0-1-0.1-1.5C130.9,556.4,132.9,555.6,134.6,554.4z"/>
<path class="st1" d="M134.6,554.4c-1.8,1.1-3.7,2-5.9,2.4c0,0.5,0.1,1,0.1,1.5c0,9.2-5.9,17.1-14,20.1c-0.7,0.3-1.2,1-1.2,1.8v2.4
	c0,1.3,1.3,2.2,2.5,1.8c11-3.6,18.9-13.9,18.9-26.1C134.9,557,134.8,555.7,134.6,554.4z M127.5,551c2.1-0.3,4-1.3,5.5-2.7
	c-0.3-0.8-0.7-1.6-1-2.4c-1.4,1.5-3.3,2.5-5.5,2.7C126.9,549.5,127.2,550.3,127.5,551z M130.4,543.3c-0.1-0.2-0.3-0.4-0.4-0.7
	l-3.6-2.2v-2.1c-0.6-0.6-1.2-1.1-1.8-1.6v4.7l5.1,3L130.4,543.3z M120.1,541.1l0.8-0.8h-2C119.4,540.6,119.7,540.8,120.1,541.1z
	 M120.2,534c-0.8-0.4-1.5-0.8-2.3-1.1c-1.4,1.5-2.4,3.4-2.8,5.5c0.8,0.3,1.6,0.6,2.3,1C117.6,537.2,118.6,535.3,120.2,534z
	 M121,556.4c-2.7-0.8-5.2-2.3-7.1-4.2c-0.1-0.1-0.3-0.3-0.4-0.4V567c0,1.7,2,2.5,3.2,1.4c2.7-2.5,4.4-6.1,4.4-10.1
	C121.2,557.7,121.1,557.1,121,556.4z M104.2,537.1l-11.5,11.5c-0.4,0.4-0.8,0.6-1.3,0.6h-9.5c-1.1,0-1.9,0.9-1.9,1.9v14.5
	c0,1.1,0.9,1.9,1.9,1.9h9.5c0.5,0,1,0.2,1.3,0.6l11.5,11.5c1.2,1.2,3.2,0.3,3.2-1.3v-39.7C107.4,536.8,105.4,535.9,104.2,537.1z"/>
<polygon class="st1" points="126.4,540.5 130,542.6 130.6,543 130.4,543.3 129.7,544.6 124.5,541.5 124.5,535.5 126.4,535.5 "/>
<path class="st1" d="M133.1,548.4c-1.5,1.4-3.4,2.3-5.5,2.7c-0.6,0.1-1.2,0.1-1.8,0.1c-3,0-5.7-1.2-7.7-3.2l1.7-1.7
	c1.5,1.5,3.6,2.5,6,2.5c0.3,0,0.5,0,0.8,0c2.2-0.2,4.1-1.2,5.5-2.7c1.4-1.6,2.3-3.7,2.2-6c-0.2-4.4-3.7-8-8.1-8.1
	c-2.3-0.1-4.4,0.7-5.9,2.1c-1.5,1.4-2.6,3.3-2.8,5.4c0,0.3-0.1,0.6-0.1,0.9h3.6l-0.8,0.8l-4.1,4.1L116,545l-4.7-4.7h3.6
	c0-0.7,0.1-1.3,0.2-2c0.4-2.1,1.4-4,2.8-5.5c2.1-2.2,5.1-3.6,8.5-3.4c5.6,0.3,10.1,4.8,10.4,10.4
	C136.8,543.2,135.4,546.3,133.1,548.4z"/>
<path class="st1" d="M113.5,551.8c0.1,0.1,0.3,0.3,0.4,0.4h-0.4V551.8z"/>
<polygon class="st1" points="126.4,540.5 130,542.6 130.6,543 130.4,543.3 129.7,544.6 124.5,541.5 124.5,535.5 126.4,535.5 "/>
<path class="st1" d="M133.1,548.4c-1.5,1.4-3.4,2.3-5.5,2.7c-0.6,0.1-1.2,0.1-1.8,0.1c-3,0-5.7-1.2-7.7-3.2l1.7-1.7
	c1.5,1.5,3.6,2.5,6,2.5c0.3,0,0.5,0,0.8,0c2.2-0.2,4.1-1.2,5.5-2.7c1.4-1.6,2.3-3.7,2.2-6c-0.2-4.4-3.7-8-8.1-8.1
	c-2.3-0.1-4.4,0.7-5.9,2.1c-1.5,1.4-2.6,3.3-2.8,5.4c0,0.3-0.1,0.6-0.1,0.9h3.6l-0.8,0.8l-4.1,4.1L116,545l-4.7-4.7h3.6
	c0-0.7,0.1-1.3,0.2-2c0.4-2.1,1.4-4,2.8-5.5c2.1-2.2,5.1-3.6,8.5-3.4c5.6,0.3,10.1,4.8,10.4,10.4
	C136.8,543.2,135.4,546.3,133.1,548.4z"/>
<path class="st1" d="M130,542.6l-3.6-2.2v-5h-1.8v6l5.1,3l0.8-1.3l0.2-0.3L130,542.6z M136.6,539.8c-0.3-5.6-4.8-10.1-10.4-10.4
	c-3.3-0.2-6.4,1.2-8.5,3.4c-1.4,1.5-2.4,3.4-2.8,5.5c-0.1,0.6-0.2,1.3-0.2,2h-3.6l4.7,4.7l0.1,0.2l4.1-4.1l0.8-0.8h-3.6
	c0-0.3,0-0.6,0.1-0.9c0.2-2.1,1.3-4.1,2.8-5.4c1.6-1.4,3.7-2.2,5.9-2.1c4.4,0.2,8,3.7,8.1,8.1c0.1,2.3-0.8,4.5-2.2,6
	c-1.4,1.5-3.3,2.5-5.5,2.7c-0.3,0-0.5,0-0.8,0c-2.3,0-4.5-1-6-2.5l-1.7,1.7c2,2,4.7,3.2,7.7,3.2c0.6,0,1.2,0,1.8-0.1
	c2.1-0.3,4-1.3,5.5-2.7C135.4,546.3,136.8,543.2,136.6,539.8z M130,542.6c0.2,0.2,0.3,0.4,0.4,0.7l0.2-0.3L130,542.6z M126.4,535.5
	h-1.8v1.4c0.6,0.5,1.2,1,1.8,1.6V535.5z"/>
<g>
	<g>
		<g>
			<path class="st1" d="M163.6,543.1h4.5l7.1,23.1l7.1-23.1h4.5l-9.6,29.5h-3.9L163.6,543.1z"/>
			<path class="st1" d="M195.3,571.6c-1.6-0.9-2.8-2.2-3.6-3.8c-0.9-1.6-1.3-3.5-1.3-5.7v-8.4c0-2.2,0.4-4.1,1.3-5.7
				c0.9-1.6,2.1-2.9,3.6-3.8c1.6-0.9,3.4-1.3,5.4-1.3s3.9,0.5,5.4,1.3c1.6,0.9,2.8,2.2,3.6,3.8c0.9,1.6,1.3,3.5,1.3,5.7v8.4
				c0,2.2-0.4,4.1-1.3,5.7c-0.9,1.6-2.1,2.9-3.6,3.8c-1.6,0.9-3.4,1.3-5.4,1.3S196.9,572.5,195.3,571.6z M204,568
				c0.9-0.5,1.6-1.3,2.2-2.3c0.5-1,0.8-2.2,0.8-3.5v-8.6c0-1.3-0.3-2.5-0.8-3.5c-0.5-1-1.2-1.8-2.2-2.3s-2-0.8-3.2-0.8
				s-2.3,0.3-3.2,0.8s-1.6,1.3-2.2,2.3c-0.5,1-0.8,2.2-0.8,3.5v8.6c0,1.3,0.3,2.5,0.8,3.5c0.5,1,1.2,1.8,2.2,2.3
				c0.9,0.5,2,0.8,3.2,0.8S203.1,568.6,204,568z"/>
			<path class="st1" d="M222,572.6h-4.1v-29.5h4.1V572.6z"/>
			<path class="st1" d="M233.6,571.5c-1.5-0.9-2.8-2.2-3.6-3.9c-0.9-1.7-1.3-3.6-1.3-5.8v-8.1c0-2.2,0.4-4.1,1.3-5.8s2.1-3,3.6-3.9
				c1.5-0.9,3.3-1.4,5.4-1.4c1.7,0,3.2,0.4,4.7,1.1s2.6,1.7,3.6,3.1c1,1.3,1.6,2.9,1.9,4.6h-4.2c-0.3-0.9-0.7-1.7-1.3-2.5
				s-1.3-1.3-2.1-1.7c-0.8-0.4-1.7-0.6-2.5-0.6c-1.2,0-2.3,0.3-3.2,0.9c-0.9,0.6-1.6,1.4-2.1,2.4c-0.5,1-0.8,2.3-0.8,3.7v8.1
				c0,1.4,0.3,2.6,0.8,3.7c0.5,1.1,1.2,1.9,2.1,2.4c0.9,0.6,2,0.9,3.2,0.9c0.9,0,1.7-0.2,2.5-0.5c0.8-0.4,1.5-0.9,2.1-1.6
				c0.6-0.7,1-1.6,1.3-2.6h4.2c-0.3,1.7-1,3.3-1.9,4.6c-1,1.3-2.2,2.4-3.6,3.1c-1.4,0.7-3,1.1-4.6,1.1
				C236.9,572.9,235.1,572.5,233.6,571.5z"/>
			<path class="st1" d="M255,543.1h4.1v29.5H255V543.1z M257,543.1H274v3.9H257V543.1z M257,556h14.7v3.9H257V556z M257,568.7H274
				v3.9H257V568.7z"/>
			<path class="st1" d="M295.3,571.5c-1.5-0.9-2.8-2.2-3.6-3.9c-0.9-1.7-1.3-3.6-1.3-5.8v-8.1c0-2.2,0.4-4.1,1.3-5.8s2.1-3,3.6-3.9
				c1.5-0.9,3.3-1.4,5.4-1.4c1.7,0,3.2,0.4,4.7,1.1s2.6,1.7,3.6,3.1c1,1.3,1.6,2.9,1.9,4.6h-4.2c-0.3-0.9-0.7-1.7-1.3-2.5
				s-1.3-1.3-2.1-1.7c-0.8-0.4-1.7-0.6-2.5-0.6c-1.2,0-2.3,0.3-3.2,0.9c-0.9,0.6-1.6,1.4-2.1,2.4c-0.5,1-0.8,2.3-0.8,3.7v8.1
				c0,1.4,0.3,2.6,0.8,3.7c0.5,1.1,1.2,1.9,2.1,2.4c0.9,0.6,2,0.9,3.2,0.9c0.9,0,1.7-0.2,2.5-0.5c0.8-0.4,1.5-0.9,2.1-1.6
				c0.6-0.7,1-1.6,1.3-2.6h4.2c-0.3,1.7-1,3.3-1.9,4.6c-1,1.3-2.2,2.4-3.6,3.1c-1.4,0.7-3,1.1-4.6,1.1
				C298.6,572.9,296.8,572.5,295.3,571.5z"/>
			<path class="st1" d="M316.7,543.1h4.1v29.5h-4.1V543.1z M319.3,556.1h16.4v3.9h-16.4V556.1z M333.5,543.1h4.1v29.5h-4.1V543.1z"
				/>
			<path class="st1" d="M353,543.1h3.5l10.9,29.5h-4.5l-8.2-23.8l-8.2,23.8h-4.5L353,543.1z M347.1,562.2h15.5v3.9h-15.5V562.2z"/>
			<path class="st1" d="M371.8,543.1h3.8l14.4,22.8l-0.5,0.5v-23.3h4.1v29.5h-3.8l-14.4-22.5l0.5-0.5v23h-4.1V543.1z"/>
			<path class="st1" d="M400.9,543.1h3.8l14.4,22.8l-0.5,0.5v-23.3h4.1v29.5h-3.8l-14.4-22.5l0.5-0.5v23h-4.1V543.1z"/>
			<path class="st1" d="M430.1,543.1h4.1v29.5h-4.1V543.1z M432.1,543.1H449v3.9h-16.9V543.1z M432.1,556h14.7v3.9h-14.7V556z
				 M432.1,568.7H449v3.9h-16.9V568.7z"/>
			<path class="st1" d="M454.9,543.1h4.1v29.5h-4.1V543.1z M457,568.7h16.9v3.9H457V568.7z"/>
		</g>
	</g>
</g>
<g>
	<g>
		<g>
			<path class="st1" d="M265.6,635.1h4.1v29.5h-4.1V635.1z M267.6,635.1h16.9v3.9h-16.9V635.1z M267.6,648h14.7v3.9h-14.7V648z
				 M267.6,660.7h16.9v3.9h-16.9V660.7z"/>
			<path class="st1" d="M311.6,635.1h3.9v29.5h-4v-22.1l0.2,1.3l-7.3,16.7h-2.9l-7.3-16.3l0.2-1.7v22.1h-4v-29.5h3.9l8.7,19.5
				L311.6,635.1z"/>
			<path class="st1" d="M326.9,664.6h-4.1v-29.5h4.1V664.6z"/>
		</g>
	</g>
</g>
<g>
	<g>
		<g>
			<path class="st1" d="M265.6,731.2h4.1v29.5h-4.1V731.2z M268,756.9h8c2.1,0,3.6-0.4,4.6-1.2c1-0.8,1.4-1.9,1.4-3.4v-0.1
				c0-1-0.2-1.9-0.5-2.6c-0.3-0.7-0.9-1.3-1.6-1.7c-0.7-0.4-1.7-0.6-2.9-0.6h-9v-3.7h9c1.5,0,2.7-0.4,3.5-1.1
				c0.8-0.7,1.2-1.8,1.2-3.2c0-1.5-0.4-2.6-1.3-3.3c-0.9-0.7-2.2-1.1-3.9-1.1H268v-3.8h9.2c1.9,0,3.5,0.3,4.8,1s2.2,1.6,2.9,2.8
				s1,2.6,1,4.3c0,1-0.2,2-0.6,2.9c-0.4,0.9-1,1.6-1.8,2.3s-1.8,1.1-3,1.3c1.2,0.2,2.2,0.6,3.1,1.3c0.9,0.7,1.5,1.5,2,2.5
				s0.7,2.1,0.7,3.2v0.1c0,1.6-0.4,3-1.1,4.2c-0.7,1.2-1.7,2.2-3,2.8c-1.3,0.7-2.8,1-4.6,1H268V756.9z"/>
			<path class="st1" d="M296.7,759.7c-1.6-0.9-2.8-2.2-3.6-3.8c-0.9-1.6-1.3-3.5-1.3-5.7v-8.4c0-2.2,0.4-4.1,1.3-5.7
				c0.9-1.6,2.1-2.9,3.6-3.8c1.6-0.9,3.4-1.3,5.4-1.3s3.9,0.5,5.4,1.3c1.6,0.9,2.8,2.2,3.6,3.8c0.9,1.6,1.3,3.5,1.3,5.7v8.4
				c0,2.2-0.4,4.1-1.3,5.7c-0.9,1.6-2.1,2.9-3.6,3.8c-1.6,0.9-3.4,1.3-5.4,1.3S298.3,760.6,296.7,759.7z M305.4,756.1
				c0.9-0.5,1.6-1.3,2.2-2.3c0.5-1,0.8-2.2,0.8-3.5v-8.6c0-1.3-0.3-2.5-0.8-3.5c-0.5-1-1.2-1.8-2.2-2.3s-2-0.8-3.2-0.8
				s-2.3,0.3-3.2,0.8s-1.6,1.3-2.2,2.3c-0.5,1-0.8,2.2-0.8,3.5v8.6c0,1.3,0.3,2.5,0.8,3.5c0.5,1,1.2,1.8,2.2,2.3
				c0.9,0.5,2,0.8,3.2,0.8S304.4,756.7,305.4,756.1z"/>
			<path class="st1" d="M328.1,748.7v12h-4.1v-12l-9-17.5h4.6l6.5,13.3l6.5-13.3h4.6L328.1,748.7z"/>
		</g>
	</g>
</g>
<path class="st6" d="M662.3,533.5H590c-13.2,0-23.8,10.7-23.8,23.8l0,0c0,13.2,10.7,23.8,23.8,23.8h72.3c13.2,0,23.8-10.7,23.8-23.8
	l0,0C686.1,544.1,675.5,533.5,662.3,533.5z"/>
<g>
	<g>
		<g>
			<path class="st1" d="M583.4,566c-1-1-1.5-2.5-1.5-4.4v-9.5c0-1.9,0.5-3.3,1.5-4.4s2.5-1.6,4.5-1.6c2,0,3.4,0.5,4.5,1.6
				c1,1,1.5,2.5,1.5,4.4v9.5c0,1.9-0.5,3.3-1.5,4.4c-1,1-2.5,1.6-4.5,1.6C585.9,567.6,584.4,567.1,583.4,566z M590.1,564
				c0.5-0.5,0.7-1.3,0.7-2.3v-9.5c0-1-0.2-1.8-0.7-2.3c-0.5-0.5-1.3-0.8-2.3-0.8c-1,0-1.8,0.3-2.3,0.8c-0.5,0.5-0.7,1.3-0.7,2.3v9.5
				c0,1,0.2,1.8,0.7,2.3c0.5,0.5,1.3,0.8,2.3,0.8C588.9,564.8,589.6,564.5,590.1,564z"/>
			<path class="st1" d="M597.8,564.8l7.3-9.7c0.4-0.6,0.8-1.1,1-1.7c0.2-0.6,0.4-1.2,0.4-1.7v0c0-0.8-0.2-1.5-0.7-1.9
				c-0.5-0.5-1.2-0.7-2.1-0.7c-0.9,0-1.5,0.3-2.1,0.8c-0.5,0.5-0.8,1.2-1,2.1v0h-3v0c0.2-1.2,0.5-2.2,1.1-3.1
				c0.5-0.9,1.2-1.5,2.1-1.9s1.8-0.7,2.9-0.7c1.2,0,2.3,0.2,3.2,0.6c0.9,0.4,1.6,1,2,1.9c0.5,0.8,0.7,1.8,0.7,3v0
				c0,0.7-0.2,1.5-0.5,2.3s-0.7,1.6-1.3,2.3l-6.1,8.2h7.9v2.8h-11.8V564.8z"/>
		</g>
	</g>
</g>
<path class="st7" d="M621.8,581l8.8-47.6l31.9,0.1c1.4,0,2.9,0.1,4.2,0.4c11.1,2.1,19.5,11.8,19.5,23.5
	c-0.1,13.2-10.8,23.8-23.9,23.7L621.8,581z"/>
<g>
	<g>
		<g>
			<path class="st1" d="M642.8,566c-1-1-1.5-2.5-1.5-4.4v-9.5c0-1.9,0.5-3.3,1.5-4.4s2.5-1.6,4.5-1.6c2,0,3.4,0.5,4.5,1.6
				c1,1,1.5,2.5,1.5,4.4v9.5c0,1.9-0.5,3.3-1.5,4.4c-1,1-2.5,1.6-4.5,1.6C645.3,567.6,643.8,567.1,642.8,566z M649.5,564
				c0.5-0.5,0.7-1.3,0.7-2.3v-9.5c0-1-0.2-1.8-0.7-2.3c-0.5-0.5-1.3-0.8-2.3-0.8c-1,0-1.8,0.3-2.3,0.8c-0.5,0.5-0.7,1.3-0.7,2.3v9.5
				c0,1,0.2,1.8,0.7,2.3c0.5,0.5,1.3,0.8,2.3,0.8C648.3,564.8,649,564.5,649.5,564z"/>
			<path class="st1" d="M657.2,564.8l7.3-9.7c0.4-0.6,0.8-1.1,1-1.7c0.2-0.6,0.4-1.2,0.4-1.7v0c0-0.8-0.2-1.5-0.7-1.9
				c-0.5-0.5-1.2-0.7-2.1-0.7c-0.9,0-1.5,0.3-2.1,0.8c-0.5,0.5-0.8,1.2-1,2.1v0h-3v0c0.2-1.2,0.5-2.2,1.1-3.1
				c0.5-0.9,1.2-1.5,2.1-1.9s1.8-0.7,2.9-0.7c1.2,0,2.3,0.2,3.2,0.6c0.9,0.4,1.6,1,2,1.9c0.5,0.8,0.7,1.8,0.7,3v0
				c0,0.7-0.2,1.5-0.5,2.3s-0.7,1.6-1.3,2.3l-6.1,8.2h7.9v2.8h-11.8V564.8z"/>
		</g>
	</g>
</g>
<path class="st1" d="M648,647v-6.6c0-1-0.8-1.9-1.9-1.9h-22.5c-1,0-1.9,0.8-1.9,1.9v18.7c0,1,0.8,1.9,1.9,1.9h22.5
	c1,0,1.9-0.8,1.9-1.9v-6.6l7.5,7.5v-20.6L648,647z"/>
<path class="st1" d="M648,739.3v-6.6c0-1-0.8-1.9-1.9-1.9h-22.5c-1,0-1.9,0.8-1.9,1.9v18.7c0,1,0.8,1.9,1.9,1.9h22.5
	c1,0,1.9-0.8,1.9-1.9v-6.6l7.5,7.5v-20.6L648,739.3z"/>
<circle class="st11" cx="202.7" cy="748" r="37.7"/>
<circle class="st10" cx="202.7" cy="651.8" r="32.6"/>
<circle class="st8" cx="202.7" cy="748" r="32.6"/>
</svg>
