<svg id="Layer_1" data-name="Layer 1" xmlns="http://www.w3.org/2000/svg" viewBox="0 0 1200 600"><defs><style>.cls-1{fill:#fff;}</style></defs><path class="cls-1" d="M600,254.53v-49.4L534.14,271,600,336.86v-49.4a98.87,98.87,0,0,1,98.79,98.79c0,48.9-35.73,89.41-82.32,97.31v33.26A131.66,131.66,0,0,0,600,254.53Z"/><path class="cls-1" d="M501.21,386.25a98.43,98.43,0,0,1,29-69.81l-23.38-23.38a131.71,131.71,0,0,0,76.72,223.76V483.56C536.94,475.66,501.21,435.15,501.21,386.25Z"/><path class="cls-1" d="M403,69.54h11.55v88h-12V91.62l.6,3.87L381.5,145.28h-8.58L351.26,96.7l.6-5.08V157.5h-12v-88h11.55l25.83,58.08Z"/><path class="cls-1" d="M449.26,154.38A27.45,27.45,0,0,1,438.4,143a36.24,36.24,0,0,1-3.84-17V101.06a36.27,36.27,0,0,1,3.84-17,27.45,27.45,0,0,1,10.86-11.37,34.69,34.69,0,0,1,32.42,0A27.45,27.45,0,0,1,492.54,84a36.27,36.27,0,0,1,3.84,17V126a36.24,36.24,0,0,1-3.84,17,27.45,27.45,0,0,1-10.86,11.37,34.62,34.62,0,0,1-32.42,0Zm25.8-10.58a16.5,16.5,0,0,0,6.41-7,22.91,22.91,0,0,0,2.27-10.43V100.64a23,23,0,0,0-2.27-10.44,16.47,16.47,0,0,0-6.41-7,20,20,0,0,0-19.18,0,16.47,16.47,0,0,0-6.41,7,23,23,0,0,0-2.27,10.44v25.77a22.91,22.91,0,0,0,2.27,10.43,16.5,16.5,0,0,0,6.41,7,20,20,0,0,0,19.18,0Z"/><path class="cls-1" d="M515.13,69.54h11.19l43,68-1.45,1.57V69.54H580.1v87.9H568.79l-42.89-67,1.45-1.57v68.54H515.13Z"/><path class="cls-1" d="M594.62,69.54h62.06V81.28H594.62Zm24.86,7.2h12.34V157.5H619.48Z"/><path class="cls-1" d="M668.78,69.54h12.34v88H668.78Zm7.68,38.78h48.82v11.73H676.46Zm42.29-38.78h12.33v88H718.75Z"/><path class="cls-1" d="M752.86,69.54H765.2v88H752.86ZM759,145.76h50.33V157.5H759Z"/><path class="cls-1" d="M846.08,121.75V157.5H833.74V121.75l-26.8-52.21h13.73l19.24,39.69,19.24-39.69h13.73Z"/></svg>