<?xml version="1.0" encoding="utf-8"?>
<!-- Generator: Adobe Illustrator 25.0.0, SVG Export Plug-In . SVG Version: 6.00 Build 0)  -->
<svg version="1.1" id="Layer_1" xmlns="http://www.w3.org/2000/svg" xmlns:xlink="http://www.w3.org/1999/xlink" x="0px" y="0px"
	 viewBox="0 0 1528.7 1068.6" style="enable-background:new 0 0 1528.7 1068.6;" xml:space="preserve">
<style type="text/css">
	.st0{fill:#292841;}
	.st1{fill:#B9BBBE;}
	.st2{fill:#FFFFFF;}
	.st3{fill:#ED4245;}
	.st4{fill:#FEE75C;}
	.st5{fill:#EB459E;}
	.st6{fill:#5865F2;}
	.st7{fill:#57F287;}
	.st8{fill:#F6F6F6;}
	.st9{fill:#4FDC7C;}
	.st10{opacity:0.24;fill:#B9BBBE;enable-background:new    ;}
	.st11{opacity:0.5;fill:#292841;}
	.st12{opacity:0.5;fill:#FFFFFF;}
	.st13{opacity:0.5;fill:#B9BBBE;}
	.st14{opacity:0.5;fill:#ED4245;}
	.st15{opacity:0.5;fill:#5865F2;}
</style>
<path class="st0" d="M742.8,334.4v302.8c0,10.1-8.2,18.4-18.3,18.4c0,0,0,0,0,0H30.1c-10.1,0-18.4-8.2-18.4-18.3c0,0,0,0,0,0V334.4
	c0-10.1,8.2-18.4,18.4-18.3h694.3C734.6,316,742.8,324.3,742.8,334.4z"/>
<path class="st1" d="M117.2,428.6c1.7,1.8,3.9,3,6.3,3.7c0.1,0.6,0.1,1.1,0.1,1.7c0,3.4-1.4,6.6-3.9,8.9c-0.7,0.6-1.7,0.6-2.4-0.1
	c-0.3-0.3-0.4-0.7-0.4-1.1v-13.5L117.2,428.6z"/>
<path class="st1" d="M119,422.2l-4.2-4.2h3.2c0-0.6,0.1-1.2,0.2-1.7c0.9-5.2,5.9-8.7,11.2-7.8s8.7,5.9,7.8,11.2
	c-0.4,2.1-1.4,4-3,5.5c-1.4,1.2-3.1,2.1-4.9,2.4c-0.5,0.1-1,0.1-1.6,0.1c-2.5,0-5-1-6.8-2.8l1.5-1.5c1.4,1.4,3.3,2.2,5.3,2.2h0.7
	c4.1-0.4,7.1-4,6.8-8.1c-0.4-4.1-4-7.1-8.1-6.8c-3.5,0.3-6.4,3.1-6.7,6.6c0,0.3,0,0.6,0,0.8h3.2l-0.7,0.7l-3.6,3.6L119,422.2z"/>
<polygon class="st1" points="128.2,418.2 131.4,420.1 131.9,420.5 131.8,420.7 131.1,421.9 126.6,419.2 126.6,413.8 128.2,413.8 "/>
<path class="st1" d="M135.5,430.6c1.6,11.6-5.3,22.8-16.4,26.5c-0.9,0.3-1.8-0.2-2.1-1.1c-0.1-0.2-0.1-0.3-0.1-0.5v-2.1
	c0-0.7,0.4-1.3,1.1-1.6c7.4-2.7,12.4-9.8,12.4-17.8c0-0.5,0-0.9-0.1-1.4C132.1,432.3,133.9,431.6,135.5,430.6z"/>
<path class="st1" d="M135.5,430.6c-1.6,1-3.4,1.8-5.2,2.1c0,0.4,0.1,0.9,0.1,1.3c0,7.9-5,15-12.4,17.8c-0.7,0.2-1.1,0.9-1.1,1.6v2.2
	c0,0.9,0.8,1.7,1.7,1.7c0.2,0,0.4,0,0.5-0.1c10-3.3,16.7-12.6,16.7-23.1C135.7,432.8,135.6,431.7,135.5,430.6z M129.2,427.6
	c1.8-0.3,3.5-1.1,4.9-2.4c-0.3-0.7-0.6-1.4-0.9-2.1c-1.3,1.4-3,2.2-4.8,2.4C128.7,426.2,129,426.9,129.2,427.6L129.2,427.6z
	 M131.8,420.7c-0.1-0.2-0.2-0.4-0.4-0.6l-3.2-1.9v-1.8c-0.5-0.5-1-1-1.6-1.4v4.2l4.5,2.7L131.8,420.7z M122.7,418.8l0.7-0.7h-1.7
	C122,418.3,122.3,418.6,122.7,418.8L122.7,418.8z M122.7,412.5c-0.7-0.3-1.4-0.7-2.1-1c-1.3,1.3-2.1,3-2.4,4.8
	c0.7,0.3,1.3,0.6,2,0.9C120.4,415.4,121.3,413.7,122.7,412.5L122.7,412.5z M123.4,432.3c-2.4-0.7-4.5-2-6.3-3.7
	c-0.1-0.1-0.2-0.2-0.4-0.4v13.5c0,0.9,0.8,1.7,1.7,1.7c0.4,0,0.8-0.2,1.1-0.4c2.5-2.3,3.9-5.5,3.9-8.9
	C123.6,433.4,123.5,432.9,123.4,432.3L123.4,432.3z M108.5,415.2l-10.1,10.1c-0.3,0.3-0.7,0.5-1.2,0.5h-8.4c-0.9,0-1.7,0.8-1.7,1.7
	v12.8c0,0.9,0.8,1.7,1.7,1.7h8.4c0.4,0,0.9,0.2,1.2,0.5l10.1,10.1c0.7,0.7,1.7,0.7,2.4,0c0.3-0.3,0.5-0.7,0.5-1.2v-35.1
	c0-0.9-0.8-1.7-1.7-1.6C109.3,414.8,108.9,415,108.5,415.2L108.5,415.2z"/>
<polygon class="st1" points="128.2,418.2 131.4,420.1 131.9,420.5 131.8,420.7 131.1,421.9 126.6,419.2 126.6,413.8 128.2,413.8 "/>
<path class="st1" d="M134.1,425.2c-1.4,1.2-3.1,2.1-4.9,2.4c-0.5,0.1-1,0.1-1.6,0.1c-2.5,0-5-1-6.8-2.8l1.5-1.5
	c1.4,1.4,3.3,2.2,5.3,2.2h0.7c4.1-0.4,7.1-4,6.8-8.1c-0.4-4.1-4-7.1-8.1-6.8c-3.5,0.3-6.4,3.1-6.7,6.6c0,0.3,0,0.6,0,0.8h3.2
	l-0.7,0.7l-3.6,3.6l-0.1-0.2l-4.2-4.2h3.2c0-0.6,0.1-1.2,0.2-1.7c1-5.2,6-8.7,11.2-7.7c4.4,0.8,7.6,4.5,7.8,9
	C137.4,420.5,136.2,423.3,134.1,425.2z"/>
<path class="st1" d="M116.8,428.2c0.1,0.1,0.2,0.3,0.4,0.4h-0.4V428.2z"/>
<polygon class="st1" points="128.2,418.2 131.4,420.1 131.9,420.5 131.8,420.7 131.1,421.9 126.6,419.2 126.6,413.8 128.2,413.8 "/>
<path class="st1" d="M134.1,425.2c-1.4,1.2-3.1,2.1-4.9,2.4c-0.5,0.1-1,0.1-1.6,0.1c-2.5,0-5-1-6.8-2.8l1.5-1.5
	c1.4,1.4,3.3,2.2,5.3,2.2h0.7c4.1-0.4,7.1-4,6.8-8.1c-0.4-4.1-4-7.1-8.1-6.8c-3.5,0.3-6.4,3.1-6.7,6.6c0,0.3,0,0.6,0,0.8h3.2
	l-0.7,0.7l-3.6,3.6l-0.1-0.2l-4.2-4.2h3.2c0-0.6,0.1-1.2,0.2-1.7c1-5.2,6-8.7,11.2-7.7c4.4,0.8,7.6,4.5,7.8,9
	C137.4,420.5,136.2,423.3,134.1,425.2z"/>
<path class="st1" d="M131.4,420.2l-3.2-2v-4.4h-1.6v5.4l4.5,2.7l0.7-1.1l0.2-0.2L131.4,420.2z M137.2,417.7
	c-0.3-5.3-4.8-9.4-10.1-9.1c-4.4,0.2-8.1,3.5-9,7.8c-0.1,0.6-0.2,1.2-0.2,1.7h-3.2l4.2,4.2l0.1,0.2l3.6-3.6l0.7-0.7h-3.2
	c0-0.3,0-0.5,0-0.8c0.2-1.8,1.1-3.5,2.5-4.8c1.4-1.3,3.3-2,5.2-1.9c4.1,0.2,7.3,3.7,7.2,7.8c-0.2,3.7-3,6.8-6.8,7.1h-0.7
	c-2,0-3.9-0.8-5.3-2.2l-1.4,1.5c1.8,1.8,4.2,2.8,6.8,2.8c0.5,0,1,0,1.6-0.1C134,426.8,137.5,422.5,137.2,417.7L137.2,417.7z
	 M131.4,420.2l0.4,0.6l0.2-0.2L131.4,420.2z M128.2,413.9h-1.6v1.2c0.6,0.4,1.1,0.9,1.6,1.4V413.9z"/>
<path class="st2" d="M167.9,413.4h4.3v30.4h-4.3V413.4z M170.8,439.8h6.9c1.9,0.1,3.8-0.5,5.2-1.8c1.3-1.3,2-3.1,1.9-4.9v-9
	c0.1-1.8-0.6-3.6-1.9-4.9c-1.4-1.2-3.3-1.9-5.2-1.8h-6.9v-4.1h6.8c2.2-0.1,4.3,0.4,6.3,1.3c1.7,0.8,3.1,2.1,3.9,3.7
	c1,1.8,1.4,3.8,1.4,5.9v8.6c0.1,2.1-0.4,4.1-1.4,5.9c-0.9,1.6-2.3,2.9-4,3.7c-2,0.9-4.1,1.3-6.3,1.3h-6.7L170.8,439.8z"/>
<path class="st2" d="M195.5,413.4h3.9l14.9,23.5l-0.5,0.5v-24.1h4.2v30.4h-3.9l-14.8-23.2l0.5-0.5v23.7h-4.2V413.4z"/>
<path class="st2" d="M225.5,413.4h4.3v30.4h-4.3V413.4z M228.4,439.8h6.9c1.9,0.1,3.8-0.5,5.2-1.8c1.3-1.3,2-3.1,1.9-4.9v-9
	c0.1-1.8-0.6-3.6-1.9-4.9c-1.4-1.2-3.3-1.9-5.2-1.8h-6.9v-4.1h6.8c2.2-0.1,4.3,0.4,6.2,1.3c1.7,0.8,3.1,2.1,4,3.7
	c1,1.8,1.4,3.8,1.4,5.9v8.6c0.1,2.1-0.4,4.1-1.4,5.9c-0.9,1.6-2.3,2.9-4,3.7c-2,0.9-4.1,1.3-6.3,1.3h-6.7L228.4,439.8z"/>
<path class="st1" d="M98,352.3h3v21.3h-3V352.3z M100,370.8h4.8c1.3,0.1,2.7-0.4,3.7-1.2c0.9-0.9,1.4-2.2,1.3-3.5v-6.3
	c0.1-1.3-0.4-2.5-1.3-3.5c-1-0.9-2.3-1.3-3.7-1.2H100v-2.8h4.7c1.5,0,3,0.3,4.4,0.9c1.2,0.6,2.2,1.5,2.8,2.6c0.7,1.3,1,2.7,1,4.1v6
	c0,1.4-0.3,2.9-1,4.1c-0.6,1.1-1.6,2.1-2.8,2.6c-1.4,0.6-2.9,0.9-4.4,0.9H100L100,370.8z"/>
<path class="st1" d="M120.1,373.1c-1-0.5-1.8-1.3-2.3-2.3c-0.5-1.2-0.8-2.4-0.8-3.7v-1.7c0-1.3,0.2-2.7,0.8-3.9
	c0.5-1,1.2-1.9,2.2-2.4c1.1-0.6,2.3-0.9,3.5-0.8c1.2,0,2.3,0.3,3.3,1c0.9,0.7,1.7,1.7,2.1,2.8c0.5,1.4,0.7,2.9,0.7,4.3v1h-10.3v-2.4
	h7.4c0-1-0.4-2.1-1-2.9c-0.5-0.7-1.4-1-2.2-1c-1-0.1-2,0.4-2.6,1.1c-0.7,0.9-1,2-0.9,3.2v1.9c-0.1,1.1,0.3,2.1,1,2.9
	c0.8,0.7,1.8,1.1,2.8,1c0.6,0,1.2-0.1,1.8-0.4c0.6-0.2,1.1-0.6,1.6-1l2,2c-0.7,0.7-1.6,1.3-2.6,1.7c-0.9,0.4-1.9,0.6-2.8,0.6
	C122.4,373.9,121.2,373.6,120.1,373.1z"/>
<path class="st1" d="M132.4,358.4h7.6v2.5h-7.6V358.4z M134,356.3c-0.1-1.1,0.3-2.2,0.9-3c0.8-0.7,1.8-1.1,2.9-1h2.2v2.8h-2.1
	c-0.3,0-0.5,0.1-0.6,0.3c-0.2,0.3-0.2,0.5-0.2,0.8v17.3h-3L134,356.3z"/>
<path class="st1" d="M143.2,372.7c-1-0.9-1.5-2.2-1.4-3.5c-0.1-1.3,0.4-2.5,1.3-3.4c1.1-0.8,2.5-1.2,3.9-1.1h4.3l0.2,2.4h-4.6
	c-0.6,0-1.3,0.1-1.8,0.5c-0.4,0.4-0.6,1-0.6,1.6c0,0.7,0.2,1.3,0.8,1.7c0.7,0.4,1.5,0.6,2.3,0.6c0.9,0,1.7-0.1,2.6-0.4
	c0.5-0.2,0.8-0.6,0.9-1.2l0.3,2.2c-0.3,0.4-0.6,0.7-1,1c-0.4,0.3-0.9,0.5-1.3,0.6c-0.6,0.1-1.1,0.2-1.7,0.2
	C145.9,373.9,144.4,373.5,143.2,372.7z M151.2,364c0.1-0.9-0.2-1.7-0.8-2.3c-0.6-0.6-1.4-0.9-2.3-0.8c-0.6,0-1.2,0.1-1.8,0.3
	c-0.6,0.2-1.1,0.4-1.6,0.8l-2.2-1.5c0.6-0.7,1.4-1.3,2.3-1.6c1-0.4,2.1-0.6,3.1-0.6c1.1,0,2.2,0.2,3.2,0.7c0.8,0.4,1.5,1.1,2,1.9
	c0.5,0.9,0.7,2,0.7,3.1v9.8h-2.9L151.2,364z"/>
<path class="st1" d="M161.5,367.7c-0.1,0.9,0.2,1.8,0.8,2.5c0.6,0.6,1.4,0.9,2.3,0.9c0.8,0,1.7-0.2,2.3-0.8c0.6-0.6,0.9-1.4,0.8-2.2
	l0.2,3.2c-0.3,0.8-0.9,1.4-1.5,1.9c-0.8,0.5-1.7,0.8-2.6,0.8c-1.5,0.1-2.9-0.5-3.9-1.7c-1-1.3-1.5-2.9-1.4-4.6v-9.3h3L161.5,367.7z
	 M167.7,358.4h3v15.2h-3V358.4z"/>
<path class="st1" d="M178.2,369.7c0,0.3,0.1,0.6,0.2,0.9c0.2,0.2,0.4,0.3,0.7,0.3h1.4v2.8h-1.8c-1,0.1-2-0.3-2.6-1.1
	c-0.7-0.8-1-1.9-0.9-3v-17.4h3L178.2,369.7z"/>
<path class="st1" d="M182.8,358.4h6.9v2.7h-6.9V358.4z M185.2,372.7c-0.6-0.9-0.9-1.9-0.9-3v-15.7h3v15.8c0,0.3,0.1,0.6,0.2,0.9
	c0.2,0.2,0.4,0.3,0.6,0.3h1.4v2.8h-1.8C186.9,373.8,185.9,373.4,185.2,372.7z"/>
<path class="st1" d="M204.4,373.1c-1-0.5-1.8-1.3-2.2-2.3c-0.5-1.1-0.8-2.3-0.8-3.6v-2.5c0-1.2,0.2-2.4,0.8-3.5
	c0.5-1,1.3-1.7,2.2-2.2c1.1-0.5,2.3-0.8,3.6-0.8c0.8,0,1.5,0.1,2.2,0.3c0.7,0.2,1.3,0.5,1.9,0.8c0.5,0.4,1,0.8,1.4,1.3l-2.2,1.9
	c-0.4-0.5-0.9-0.9-1.5-1.1c-0.6-0.3-1.2-0.4-1.8-0.4c-1-0.1-2,0.3-2.7,1c-0.7,0.7-1,1.7-0.9,2.7v2.5c-0.1,1,0.3,2,0.9,2.8
	c0.7,0.7,1.7,1.1,2.7,1c0.6,0,1.3-0.2,1.8-0.4c0.6-0.3,1.1-0.7,1.5-1.2l2.2,2.1c-0.4,0.5-0.9,1-1.4,1.3c-0.6,0.4-1.2,0.6-1.9,0.8
	c-0.7,0.2-1.5,0.3-2.2,0.3C206.8,373.9,205.5,373.6,204.4,373.1z"/>
<path class="st1" d="M217.5,372.7c-1-0.9-1.5-2.2-1.4-3.5c-0.1-1.3,0.4-2.5,1.3-3.4c1.1-0.8,2.5-1.2,3.9-1.1h4.3l0.2,2.4h-4.5
	c-0.6,0-1.3,0.1-1.8,0.5c-0.4,0.4-0.6,1-0.6,1.6c0,0.7,0.2,1.3,0.8,1.7c0.7,0.4,1.5,0.6,2.3,0.6c0.9,0,1.7-0.1,2.6-0.4
	c0.5-0.2,0.8-0.6,0.9-1.2l0.3,2.2c-0.3,0.4-0.6,0.7-1,1c-0.4,0.3-0.9,0.5-1.3,0.6c-0.6,0.1-1.1,0.2-1.7,0.2
	C220.2,373.9,218.7,373.5,217.5,372.7z M225.4,364c0.1-0.9-0.2-1.7-0.8-2.3c-0.6-0.6-1.4-0.9-2.3-0.8c-0.6,0-1.2,0.1-1.8,0.3
	c-0.6,0.2-1.1,0.4-1.5,0.8l-2.2-1.5c0.6-0.7,1.4-1.3,2.3-1.6c1-0.4,2.1-0.6,3.1-0.6c1.1,0,2.2,0.2,3.2,0.7c0.9,0.4,1.6,1.1,2,1.9
	c0.5,0.9,0.7,2,0.7,3.1v9.8h-2.9L225.4,364z"/>
<path class="st1" d="M231.7,358.4h6.9v2.7h-6.9V358.4z M234.1,372.7c-0.6-0.9-0.9-1.9-0.9-3v-15.7h3v15.8c0,0.3,0.1,0.6,0.2,0.9
	c0.2,0.2,0.4,0.3,0.6,0.3h1.4v2.8h-1.7C235.8,373.8,234.8,373.4,234.1,372.7z"/>
<path class="st1" d="M245.3,373.1c-1-0.5-1.8-1.3-2.3-2.3c-0.6-1.2-0.8-2.4-0.8-3.7v-1.7c0-1.3,0.2-2.7,0.8-3.9
	c0.5-1,1.2-1.9,2.2-2.4c1.1-0.6,2.3-0.9,3.5-0.8c1.2,0,2.3,0.3,3.3,1c0.9,0.7,1.7,1.7,2.1,2.8c0.5,1.4,0.7,2.9,0.7,4.3v1h-10.3v-2.4
	h7.4c0-1-0.4-2.1-1-2.9c-0.5-0.7-1.4-1-2.2-1c-1-0.1-2,0.4-2.6,1.1c-0.7,0.9-1,2-0.9,3.2v1.9c-0.1,1.1,0.3,2.1,1,2.9
	c0.8,0.7,1.8,1.1,2.8,1c0.6,0,1.2-0.1,1.8-0.4c0.6-0.2,1.1-0.6,1.6-1l2,2c-0.7,0.7-1.6,1.3-2.5,1.7c-0.9,0.4-1.9,0.6-2.8,0.6
	C247.6,373.9,246.4,373.6,245.3,373.1z"/>
<path class="st1" d="M260.7,373.2c-0.8-0.5-1.4-1.2-1.8-2.1c-0.4-1.1-0.6-2.2-0.6-3.3v-3.4c0-1.2,0.2-2.3,0.6-3.4
	c0.4-0.9,1-1.6,1.8-2.1c0.8-0.5,1.8-0.8,2.8-0.7c0.9,0,1.7,0.2,2.5,0.7c0.8,0.5,1.4,1.2,1.8,2l-0.3,3.1c0-0.6-0.1-1.1-0.4-1.7
	c-0.2-0.4-0.6-0.8-1-1c-0.5-0.3-1.1-0.4-1.6-0.4c-0.9-0.1-1.7,0.3-2.3,0.9c-0.6,0.7-0.9,1.7-0.8,2.6v3.3c-0.1,0.9,0.2,1.8,0.8,2.6
	c0.6,0.6,1.4,1,2.3,0.9c0.6,0,1.1-0.1,1.6-0.4c0.4-0.2,0.8-0.6,1-1.1c0.3-0.5,0.4-1.1,0.4-1.7l0.2,3.2c-0.3,0.8-0.8,1.4-1.5,1.9
	c-0.7,0.5-1.6,0.8-2.5,0.8C262.6,374,261.6,373.7,260.7,373.2z M260.7,379.2c-0.9-0.4-1.6-1-2.1-1.8l2-1.8c0.4,0.5,0.9,0.9,1.4,1.2
	c1.4,0.7,3.2,0.5,4.4-0.5c0.7-0.7,1-1.7,0.9-2.7v-15.2h3v14.8c0,1.2-0.2,2.5-0.8,3.6c-0.5,1-1.3,1.8-2.2,2.3
	c-1.1,0.5-2.3,0.8-3.5,0.8C262.8,379.9,261.7,379.6,260.7,379.2L260.7,379.2z"/>
<path class="st1" d="M277.4,373.1c-0.9-0.5-1.7-1.3-2.1-2.3c-0.5-1.1-0.8-2.4-0.7-3.6v-2.5c0-1.2,0.2-2.4,0.7-3.5
	c0.5-1,1.2-1.7,2.1-2.2c2.1-1,4.6-1,6.8,0c0.9,0.5,1.7,1.3,2.2,2.2c0.5,1.1,0.8,2.3,0.7,3.5v2.5c0,1.2-0.2,2.4-0.7,3.6
	c-0.5,1-1.2,1.7-2.2,2.3C282.1,374.1,279.6,374.1,277.4,373.1z M283.3,370c0.6-0.8,0.9-1.8,0.9-2.8v-2.5c0.1-1-0.2-2-0.9-2.7
	c-1.4-1.3-3.5-1.3-4.9,0c-0.6,0.8-0.9,1.8-0.9,2.7v2.5c-0.1,1,0.2,2,0.9,2.8C279.7,371.3,281.9,371.3,283.3,370z"/>
<path class="st1" d="M291.4,358.4h3v15.2h-3V358.4z M298.8,361.3c-0.4-0.2-0.9-0.3-1.4-0.2c-1.5-0.2-2.8,0.9-3,2.4
	c0,0.2,0,0.4,0,0.6l-0.3-2.9c0.4-0.9,1-1.6,1.8-2.1c0.7-0.5,1.6-0.8,2.5-0.8c0.6,0,1.3,0.1,1.9,0.3c0.5,0.2,1.1,0.5,1.5,0.9l-2,2.6
	C299.5,361.7,299.1,361.4,298.8,361.3L298.8,361.3z"/>
<path class="st1" d="M302.6,358.4h3l4.7,13.2l-1.7,3.2L302.6,358.4z M316.1,358.4l-6.5,18.8c-0.2,0.6-0.5,1.2-0.9,1.7
	c-0.4,0.4-0.9,0.7-1.4,0.9c-0.7,0.2-1.4,0.3-2.1,0.3h-0.6v-2.9h0.6c0.5,0,0.9-0.1,1.3-0.3c0.4-0.3,0.7-0.7,0.9-1.2l5.6-17.2H316.1z"
	/>
<path class="st1" d="M77.5,356.2L77.5,356.2c0.8,0.8,0.8,2,0.1,2.8c0,0,0,0-0.1,0.1l-14,14c-0.8,0.8-2,0.8-2.8,0.1c0,0,0,0-0.1-0.1
	l0,0c-0.8-0.8-0.8-2-0.1-2.8c0,0,0,0,0.1-0.1l14-14C75.4,355.4,76.7,355.4,77.5,356.2C77.5,356.2,77.5,356.2,77.5,356.2z"/>
<path class="st1" d="M46.5,356.2L46.5,356.2c0.8-0.8,2-0.8,2.8-0.1c0,0,0,0,0.1,0.1l14,14c0.8,0.8,0.8,2,0.1,2.8c0,0,0,0-0.1,0.1
	l0,0c-0.8,0.8-2,0.8-2.8,0.1c0,0,0,0-0.1-0.1l-14-14C45.7,358.3,45.7,357,46.5,356.2C46.5,356.2,46.5,356.2,46.5,356.2z"/>
<ellipse transform="matrix(0.9951 -9.853759e-02 9.853759e-02 0.9951 -48.4672 21.4714)" class="st3" cx="193.1" cy="501.4" rx="25.9" ry="25.9"/>
<path class="st2" d="M243.3,489.1h2.7l8.2,22.2h-3.4l-6.2-18l-6.2,18h-3.4L243.3,489.1z M238.9,503.5h11.7v3h-11.7V503.5z"/>
<path class="st2" d="M257.2,495.5h3.1v15.9h-3.1V495.5z M266.9,501.7c0.1-0.9-0.3-1.9-0.9-2.6c-0.6-0.6-1.5-1-2.5-0.9
	c-0.9-0.1-1.7,0.2-2.4,0.8c-0.6,0.6-0.9,1.4-0.8,2.3l-0.3-3.1c0.4-0.9,1.1-1.7,1.9-2.2c0.8-0.5,1.7-0.8,2.6-0.8c1.5-0.1,3,0.5,4,1.7
	c1,1.4,1.5,3.1,1.4,4.8v9.6h-3.1L266.9,501.7z"/>
<path class="st2" d="M273.5,495.5h7.2v2.8h-7.2V495.5z M276.1,510.4c-0.7-0.9-1-2-0.9-3.2v-16.4h3.1v16.4c0,0.3,0.1,0.6,0.2,0.9
	c0.2,0.2,0.4,0.3,0.7,0.3h1.5v3h-1.8C277.8,511.5,276.8,511.1,276.1,510.4L276.1,510.4z"/>
<path class="st2" d="M287.5,510.8c-1-0.5-1.8-1.4-2.2-2.4c-0.5-1.2-0.8-2.4-0.8-3.7v-2.6c0-1.3,0.2-2.5,0.8-3.7
	c0.5-1,1.3-1.8,2.2-2.3c2.2-1.1,4.8-1.1,7.1,0c1,0.5,1.8,1.3,2.2,2.3c0.5,1.2,0.8,2.4,0.8,3.7v2.6c0,1.3-0.2,2.6-0.8,3.7
	c-0.5,1-1.3,1.8-2.2,2.3C292.4,511.8,289.8,511.8,287.5,510.8z M293.6,507.6c0.6-0.8,1-1.8,0.9-2.9v-2.6c0.1-1-0.3-2-0.9-2.9
	c-1.4-1.3-3.6-1.3-5.1,0c-0.6,0.8-1,1.8-0.9,2.9v2.6c-0.1,1,0.3,2.1,0.9,2.9C290,508.9,292.2,508.9,293.6,507.6z"/>
<path class="st2" d="M302.1,495.5h3.1v15.9h-3.1V495.5z M311.7,501.7c0.1-0.9-0.3-1.9-0.9-2.6c-0.6-0.6-1.5-1-2.5-0.9
	c-0.9-0.1-1.7,0.2-2.4,0.8c-0.6,0.6-0.9,1.4-0.8,2.3l-0.3-3.1c0.4-0.9,1.1-1.7,1.9-2.2c0.8-0.5,1.7-0.8,2.6-0.8c1.5-0.1,3,0.5,4,1.7
	c1,1.4,1.5,3.1,1.4,4.8v9.6h-3.2L311.7,501.7z"/>
<ellipse transform="matrix(0.9951 -9.853759e-02 9.853759e-02 0.9951 -55.354 21.8115)" class="st6" cx="193.1" cy="571.3" rx="25.9" ry="25.9"/>
<path class="st2" d="M237.3,559h3.1v22.2h-3.1V559z M238.8,578.3h12.7v3h-12.7V578.3z"/>
<path class="st2" d="M257.7,580.6c-1-0.5-1.9-1.4-2.4-2.4c-0.6-1.2-0.9-2.5-0.8-3.9v-1.8c0-1.4,0.2-2.7,0.8-4
	c0.5-1.1,1.3-1.9,2.3-2.5c1.1-0.6,2.4-0.9,3.6-0.9c1.2,0,2.4,0.3,3.4,1c1,0.7,1.7,1.7,2.1,2.9c0.5,1.4,0.8,3,0.7,4.5v1h-10.7V572
	h7.7c0-1.1-0.4-2.1-1-3c-0.6-0.7-1.4-1.1-2.3-1.1c-1-0.1-2.1,0.4-2.7,1.2c-0.7,0.9-1.1,2.1-1,3.3v2c-0.1,1.1,0.3,2.2,1,3
	c0.8,0.7,1.9,1.1,3,1c0.6,0,1.3-0.1,1.9-0.4c0.6-0.2,1.2-0.6,1.7-1.1l2,2c-0.8,0.7-1.7,1.3-2.6,1.8c-0.9,0.4-2,0.6-3,0.6
	C260.1,581.4,258.8,581.2,257.7,580.6z"/>
<path class="st2" d="M271.7,565.3h3.2v15.8h-3.1L271.7,565.3z M281.4,571.6c0.1-1-0.3-1.9-0.9-2.6c-0.7-0.6-1.5-1-2.5-0.9
	c-0.9-0.1-1.7,0.2-2.4,0.8c-0.6,0.6-0.8,1.5-0.8,2.3l-0.3-3.1c0.4-0.9,1.1-1.7,1.9-2.2c0.8-0.5,1.7-0.8,2.6-0.8c1.5-0.1,3,0.5,4,1.7
	c1,1.4,1.5,3.1,1.4,4.8v9.6h-3.1L281.4,571.6z"/>
<path class="st2" d="M289.9,580.2c-1.9-2-2-5.1-0.1-7.2c1.2-0.9,2.6-1.3,4-1.2h4.5l0.2,2.5h-4.7c-0.7,0-1.3,0.1-1.8,0.5
	c-0.4,0.4-0.7,1-0.6,1.7c-0.1,0.7,0.2,1.4,0.8,1.8c0.7,0.4,1.6,0.6,2.4,0.6c0.9,0,1.8-0.1,2.7-0.4c0.5-0.2,0.9-0.6,0.9-1.2l0.3,2.2
	c-0.3,0.4-0.6,0.8-1,1.1c-0.4,0.3-0.9,0.5-1.4,0.6c-0.6,0.1-1.2,0.2-1.8,0.2C292.7,581.5,291.2,581.1,289.9,580.2z M298.2,571.1
	c0.1-0.9-0.2-1.8-0.8-2.4c-0.6-0.6-1.5-0.9-2.4-0.9c-0.6,0-1.3,0.1-1.9,0.3c-0.6,0.2-1.1,0.5-1.6,0.8l-2.3-1.6
	c0.6-0.8,1.5-1.3,2.4-1.7c1-0.4,2.2-0.6,3.3-0.6c1.2,0,2.3,0.2,3.4,0.7c0.9,0.4,1.6,1.1,2.1,2c0.5,1,0.8,2.1,0.7,3.2v10.2h-3
	L298.2,571.1z"/>
<path class="st2" d="M305.9,565.3h3.1v15.8h-3.1V565.3z M313.6,568.3c-0.5-0.2-1-0.3-1.5-0.3c-0.8-0.1-1.7,0.2-2.3,0.8
	c-0.6,0.6-0.9,1.4-0.8,2.3l-0.3-3.1c0.4-0.9,1.1-1.6,1.9-2.2c0.8-0.5,1.7-0.8,2.6-0.8c0.7,0,1.4,0.1,2,0.3c0.6,0.2,1.1,0.5,1.5,0.9
	l-2,2.8C314.4,568.8,314,568.5,313.6,568.3L313.6,568.3z"/>
<path class="st2" d="M321,580.7c-0.8-0.5-1.5-1.3-1.9-2.2c-0.5-1.1-0.7-2.3-0.6-3.5v-3.5c0-1.2,0.2-2.4,0.6-3.5
	c0.4-0.9,1-1.7,1.8-2.2c0.9-0.5,1.9-0.8,2.9-0.8c0.9,0,1.8,0.3,2.6,0.7c0.8,0.5,1.5,1.2,1.9,2.1l-0.3,3.2c0-0.6-0.1-1.2-0.4-1.7
	c-0.2-0.5-0.6-0.8-1.1-1.1c-0.5-0.3-1.1-0.4-1.7-0.4c-0.9,0-1.8,0.3-2.4,1c-0.6,0.8-0.9,1.7-0.9,2.7v3.5c-0.1,1,0.2,1.9,0.9,2.7
	c0.6,0.7,1.5,1,2.4,0.9c0.6,0,1.2-0.1,1.7-0.4c0.5-0.3,0.8-0.6,1.1-1.1c0.3-0.6,0.4-1.2,0.4-1.8l0.2,3.3c-0.3,0.8-0.9,1.5-1.5,2
	c-0.8,0.5-1.7,0.8-2.7,0.8C323,581.6,321.9,581.3,321,580.7z M328,559h3.1v22.2H328V559z"/>
<path class="st11" d="M1513.3,495.5v302.8c0,10.1-8.2,18.4-18.3,18.4c0,0,0,0,0,0H800.6c-10.1,0-18.4-8.2-18.4-18.3c0,0,0,0,0,0
	V495.5c0-10.1,8.2-18.3,18.4-18.3l0,0H1495C1505.1,477.2,1513.3,485.4,1513.3,495.5z"/>
<path class="st12" d="M938.4,574.6h4.3V605h-4.3V574.6z M941.3,600.9h6.9c1.9,0.1,3.8-0.5,5.2-1.8c1.3-1.3,2-3.1,1.9-4.9v-9
	c0.1-1.8-0.6-3.6-1.9-4.9c-1.4-1.2-3.3-1.9-5.2-1.8h-6.9v-4.1h6.8c2.2-0.1,4.3,0.4,6.2,1.3c1.7,0.8,3.1,2.1,4,3.7
	c1,1.8,1.4,3.8,1.4,5.9v8.6c0.1,2.1-0.4,4.1-1.4,5.9c-0.9,1.6-2.3,2.9-4,3.7c-2,0.9-4.1,1.3-6.3,1.3h-6.7L941.3,600.9z"/>
<path class="st12" d="M966.1,574.6h3.9l14.9,23.5l-0.5,0.5v-24.1h4.2V605h-3.9l-14.8-23.2l0.5-0.5V605h-4.2L966.1,574.6z"/>
<path class="st12" d="M996.1,574.6h4.3V605h-4.3V574.6z M999,600.9h6.9c1.9,0.1,3.8-0.5,5.2-1.8c1.3-1.3,2-3.1,1.8-4.9v-9
	c0.1-1.8-0.6-3.6-1.8-4.9c-1.4-1.2-3.3-1.9-5.2-1.8H999v-4.1h6.8c2.2-0.1,4.3,0.4,6.2,1.3c1.7,0.8,3.1,2.1,4,3.7
	c1,1.8,1.4,3.8,1.4,5.9v8.6c0.1,2.1-0.4,4.1-1.4,5.9c-0.9,1.6-2.3,2.9-4,3.7c-2,0.9-4.1,1.3-6.3,1.3H999L999,600.9z"/>
<path class="st13" d="M868.5,513.4h3v21.3h-3V513.4z M870.5,531.9h4.8c1.3,0.1,2.7-0.4,3.7-1.2c0.9-0.9,1.4-2.2,1.3-3.5v-6.3
	c0.1-1.3-0.4-2.5-1.3-3.5c-1-0.9-2.3-1.3-3.7-1.2h-4.8v-2.8h4.7c1.5,0,3,0.3,4.4,0.9c1.2,0.6,2.1,1.5,2.8,2.6c0.7,1.3,1,2.7,1,4.1v6
	c0,1.4-0.3,2.9-1,4.1c-0.6,1.1-1.6,2.1-2.8,2.6c-1.4,0.6-2.9,0.9-4.4,0.9h-4.7V531.9z"/>
<path class="st13" d="M890.6,534.2c-1-0.5-1.8-1.3-2.3-2.3c-0.6-1.2-0.8-2.4-0.8-3.7v-1.7c0-1.3,0.2-2.7,0.8-3.9
	c0.5-1,1.2-1.9,2.2-2.4c1.1-0.6,2.3-0.9,3.5-0.8c1.2,0,2.3,0.3,3.3,1c0.9,0.7,1.7,1.7,2.1,2.8c0.5,1.4,0.8,2.9,0.7,4.3v1h-10.3v-2.4
	h7.4c0-1-0.4-2.1-1-2.9c-0.5-0.7-1.4-1-2.2-1c-1-0.1-2,0.4-2.6,1.1c-0.7,0.9-1,2-0.9,3.2v1.9c-0.1,1.1,0.3,2.1,1,2.9
	c0.8,0.7,1.8,1.1,2.8,1c0.6,0,1.2-0.1,1.8-0.4c0.6-0.2,1.1-0.6,1.6-1l2,2c-0.7,0.7-1.6,1.3-2.5,1.7c-0.9,0.4-1.9,0.6-2.8,0.6
	C893,535,891.7,534.8,890.6,534.2z"/>
<path class="st13" d="M902.9,519.5h7.6v2.5h-7.6V519.5z M904.5,517.4c-0.1-1.1,0.3-2.1,0.9-3c0.8-0.7,1.8-1.1,2.9-1h2.2v2.8h-2.2
	c-0.3,0-0.5,0.1-0.6,0.3c-0.2,0.3-0.2,0.5-0.2,0.8v17.3h-3L904.5,517.4z"/>
<path class="st13" d="M913.7,533.8c-1-0.9-1.5-2.2-1.4-3.5c-0.1-1.3,0.4-2.5,1.3-3.4c1.1-0.8,2.5-1.2,3.9-1.1h4.3l0.2,2.4h-4.5
	c-0.6,0-1.3,0.1-1.8,0.5c-0.4,0.4-0.6,1-0.6,1.6c0,0.7,0.2,1.3,0.8,1.7c0.7,0.4,1.5,0.6,2.3,0.6c0.9,0,1.7-0.1,2.6-0.4
	c0.5-0.2,0.8-0.6,0.8-1.2l0.3,2.2c-0.3,0.4-0.6,0.7-1,1c-0.4,0.3-0.9,0.5-1.3,0.6c-0.6,0.1-1.1,0.2-1.7,0.2
	C916.4,535.1,914.9,534.7,913.7,533.8z M921.7,525.1c0-0.9-0.2-1.7-0.8-2.3c-0.6-0.6-1.4-0.9-2.3-0.8c-0.6,0-1.2,0.1-1.8,0.3
	c-0.6,0.2-1.1,0.4-1.5,0.8l-2.2-1.5c0.6-0.7,1.4-1.3,2.3-1.6c1-0.4,2.1-0.6,3.2-0.6c1.1,0,2.2,0.2,3.2,0.7c0.9,0.4,1.6,1.1,2,1.9
	c0.5,0.9,0.7,2,0.7,3.1v9.8h-2.8L921.7,525.1z"/>
<path class="st13" d="M932.1,528.8c-0.1,0.9,0.2,1.8,0.8,2.5c0.6,0.6,1.4,0.9,2.3,0.9c0.8,0.1,1.7-0.2,2.3-0.8
	c0.6-0.6,0.9-1.4,0.8-2.2l0.2,3.2c-0.3,0.8-0.9,1.4-1.6,1.9c-0.8,0.5-1.7,0.8-2.6,0.8c-1.5,0.1-2.9-0.5-3.9-1.6
	c-1-1.3-1.5-2.9-1.4-4.6v-9.3h3L932.1,528.8z M938.3,519.5h3v15.2h-3V519.5z"/>
<path class="st13" d="M948.8,530.8c0,0.3,0.1,0.6,0.2,0.9c0.2,0.2,0.4,0.3,0.7,0.3h1.4v2.8h-1.8c-1,0.1-2-0.3-2.6-1.1
	c-0.7-0.8-1-1.9-0.9-3v-17.4h3L948.8,530.8z"/>
<path class="st13" d="M953.3,519.5h6.9v2.7h-6.9V519.5z M955.8,533.8c-0.6-0.9-0.9-1.9-0.9-3v-15.7h3v15.8c0,0.3,0.1,0.6,0.2,0.9
	c0.2,0.2,0.4,0.3,0.7,0.3h1.4v2.8h-1.7C957.5,534.9,956.5,534.6,955.8,533.8z"/>
<path class="st13" d="M975,534.2c-1-0.5-1.8-1.3-2.2-2.3c-0.5-1.1-0.8-2.3-0.8-3.6v-2.5c0-1.2,0.2-2.4,0.8-3.5
	c0.5-1,1.3-1.7,2.2-2.2c1.1-0.5,2.3-0.8,3.6-0.8c0.8,0,1.5,0.1,2.2,0.3c0.7,0.2,1.3,0.5,1.9,0.8c0.5,0.4,1,0.8,1.4,1.3l-2.2,1.9
	c-0.4-0.5-0.9-0.9-1.5-1.1c-0.6-0.3-1.2-0.4-1.8-0.4c-1-0.1-2,0.3-2.7,1c-0.7,0.7-1,1.7-1,2.7v2.5c-0.1,1,0.3,2,1,2.8
	c0.7,0.7,1.7,1.1,2.7,1c0.6,0,1.3-0.1,1.8-0.4c0.6-0.3,1.1-0.7,1.5-1.2l2.2,2.1c-0.4,0.5-0.9,1-1.4,1.3c-0.6,0.4-1.2,0.6-1.9,0.8
	c-0.7,0.2-1.5,0.3-2.2,0.3C977.3,535,976.1,534.8,975,534.2z"/>
<path class="st13" d="M988,533.8c-1-0.9-1.5-2.2-1.4-3.5c-0.1-1.3,0.4-2.5,1.3-3.4c1.1-0.8,2.5-1.2,3.9-1.1h4.3l0.2,2.4h-4.5
	c-0.6,0-1.3,0.1-1.8,0.5c-0.8,1-0.8,2.4,0.2,3.3c0.7,0.4,1.5,0.6,2.3,0.6c0.9,0,1.7-0.1,2.6-0.4c0.5-0.2,0.8-0.6,0.8-1.2l0.3,2.2
	c-0.3,0.4-0.6,0.7-1,1c-0.4,0.3-0.9,0.5-1.3,0.6c-0.6,0.1-1.1,0.2-1.7,0.2C990.7,535.1,989.2,534.7,988,533.8z M996,525.1
	c0-0.9-0.2-1.7-0.8-2.3c-0.6-0.6-1.4-0.9-2.3-0.8c-0.6,0-1.2,0.1-1.8,0.3c-0.6,0.2-1.1,0.4-1.6,0.8l-2.2-1.5
	c0.6-0.7,1.4-1.3,2.3-1.6c1-0.4,2.1-0.6,3.2-0.6c1.1,0,2.2,0.2,3.2,0.7c0.9,0.4,1.6,1.1,2,1.9c0.5,0.9,0.7,2,0.7,3.1v9.8h-2.8
	L996,525.1z"/>
<path class="st13" d="M1002.2,519.5h6.9v2.7h-6.9V519.5z M1004.6,533.8c-0.6-0.9-0.9-1.9-0.9-3v-15.7h3v15.8c0,0.3,0.1,0.6,0.2,0.9
	c0.1,0.2,0.4,0.3,0.6,0.3h1.4v2.8h-1.7C1006.3,534.9,1005.3,534.5,1004.6,533.8L1004.6,533.8z"/>
<path class="st13" d="M1015.8,534.2c-1-0.5-1.8-1.3-2.3-2.3c-0.6-1.2-0.8-2.4-0.8-3.7v-1.7c0-1.3,0.2-2.7,0.8-3.9
	c0.5-1,1.2-1.9,2.2-2.4c1.1-0.6,2.3-0.9,3.5-0.8c1.2,0,2.3,0.3,3.3,1c0.9,0.7,1.7,1.7,2.1,2.8c0.5,1.4,0.7,2.9,0.7,4.3v1h-10.3v-2.4
	h7.4c0-1-0.4-2.1-1-2.9c-0.5-0.7-1.4-1-2.2-1c-1-0.1-2,0.4-2.6,1.1c-0.7,0.9-1,2-0.9,3.2v1.9c-0.1,1.1,0.3,2.1,1,2.9
	c0.8,0.7,1.8,1.1,2.8,1c0.6,0,1.2-0.1,1.8-0.4c0.6-0.2,1.1-0.6,1.6-1l2,2c-0.7,0.7-1.6,1.3-2.5,1.7c-0.9,0.4-1.9,0.6-2.8,0.6
	C1018.2,535,1016.9,534.8,1015.8,534.2z"/>
<path class="st13" d="M1031.3,534.3c-0.8-0.5-1.4-1.2-1.8-2.1c-0.4-1.1-0.6-2.2-0.6-3.3v-3.4c0-1.2,0.2-2.3,0.6-3.4
	c0.4-0.9,1-1.6,1.8-2.1c0.8-0.5,1.8-0.8,2.8-0.7c0.9,0,1.7,0.2,2.5,0.7c0.8,0.5,1.4,1.2,1.8,2l-0.3,3.1c0-0.6-0.1-1.1-0.4-1.7
	c-0.2-0.4-0.6-0.8-1-1c-0.5-0.3-1.1-0.4-1.6-0.4c-0.9-0.1-1.7,0.3-2.3,0.9c-0.6,0.7-0.9,1.7-0.8,2.6v3.3c-0.1,0.9,0.2,1.8,0.8,2.6
	c0.6,0.6,1.4,1,2.3,0.9c0.6,0,1.1-0.1,1.6-0.4c0.4-0.2,0.8-0.6,1-1.1c0.3-0.5,0.4-1.1,0.4-1.7l0.2,3.2c-0.3,0.8-0.8,1.4-1.5,1.9
	c-0.7,0.5-1.6,0.8-2.6,0.8C1033.1,535.1,1032.2,534.8,1031.3,534.3z M1031.4,540.3c-0.9-0.4-1.6-1-2.1-1.8l2-1.8
	c0.4,0.5,0.8,0.9,1.4,1.2c1.4,0.7,3.2,0.5,4.4-0.5c0.7-0.7,1-1.7,0.9-2.7v-15.2h3v14.8c0,1.2-0.2,2.5-0.8,3.6
	c-0.5,1-1.3,1.8-2.2,2.3c-1.1,0.5-2.3,0.8-3.5,0.8C1033.4,541,1032.3,540.8,1031.4,540.3L1031.4,540.3z"/>
<path class="st13" d="M1048,534.2c-0.9-0.5-1.7-1.3-2.2-2.3c-0.5-1.1-0.8-2.4-0.7-3.6v-2.5c0-1.2,0.2-2.4,0.7-3.5
	c0.5-1,1.2-1.7,2.2-2.2c2.1-1,4.6-1,6.8,0c0.9,0.5,1.7,1.3,2.2,2.2c0.5,1.1,0.8,2.3,0.7,3.5v2.5c0,1.2-0.2,2.4-0.7,3.6
	c-0.5,1-1.2,1.7-2.2,2.3C1052.6,535.2,1050.1,535.2,1048,534.2z M1053.8,531.1c0.6-0.8,0.9-1.8,0.9-2.8v-2.5c0.1-1-0.2-2-0.9-2.7
	c-1.4-1.3-3.5-1.3-4.9,0c-0.6,0.8-0.9,1.8-0.9,2.7v2.5c-0.1,1,0.2,2,0.9,2.8C1050.3,532.5,1052.5,532.5,1053.8,531.1z"/>
<path class="st13" d="M1061.9,519.5h3v15.2h-3V519.5z M1069.3,522.4c-0.4-0.2-0.9-0.3-1.4-0.2c-0.8-0.1-1.6,0.2-2.2,0.8
	c-0.5,0.6-0.8,1.4-0.8,2.2l-0.3-2.9c0.4-0.9,1-1.6,1.8-2.1c0.7-0.5,1.6-0.8,2.5-0.8c0.6,0,1.3,0.1,1.9,0.3c0.5,0.2,1.1,0.5,1.5,0.9
	l-1.9,2.6C1070,522.8,1069.7,522.6,1069.3,522.4L1069.3,522.4z"/>
<path class="st13" d="M1073.1,519.5h3.1l4.7,13.2l-1.7,3.2L1073.1,519.5z M1086.6,519.5l-6.5,18.8c-0.2,0.6-0.5,1.2-0.9,1.7
	c-0.4,0.4-0.9,0.7-1.4,0.9c-0.7,0.2-1.4,0.3-2.1,0.3h-0.6v-2.9h0.6c0.5,0,0.9-0.1,1.3-0.3c0.4-0.3,0.7-0.7,0.8-1.2l5.7-17.2H1086.6z
	"/>
<path class="st13" d="M848,517.3L848,517.3c0.8,0.8,0.8,2,0.1,2.8c0,0,0,0-0.1,0.1l-14,14c-0.8,0.8-2,0.8-2.8,0.1c0,0,0,0-0.1-0.1
	l0,0c-0.8-0.8-0.8-2-0.1-2.8c0,0,0,0,0.1-0.1l14-14C846,516.5,847.2,516.5,848,517.3z"/>
<path class="st13" d="M817.1,517.3L817.1,517.3c0.8-0.8,2-0.8,2.8-0.1c0,0,0,0,0.1,0.1l14,14c0.8,0.8,0.8,2,0.1,2.8c0,0,0,0-0.1,0.1
	l0,0c-0.8,0.8-2,0.8-2.8,0.1c0,0,0,0-0.1-0.1l-14-14C816.3,519.4,816.2,518.2,817.1,517.3C817,517.3,817,517.3,817.1,517.3z"/>
<circle class="st14" cx="963.7" cy="662.5" r="25.9"/>
<path class="st12" d="M1013.9,650.2h2.7l8.2,22.3h-3.4l-6.2-18l-6.2,18h-3.4L1013.9,650.2z M1009.5,664.6h11.7v3h-11.7V664.6z"/>
<path class="st12" d="M1027.8,656.6h3.1v15.9h-3.1L1027.8,656.6z M1037.4,662.8c0.1-0.9-0.3-1.9-0.9-2.6c-1.4-1.2-3.4-1.2-4.8-0.1
	c-0.6,0.6-0.9,1.4-0.8,2.3l-0.3-3.1c0.4-0.9,1.1-1.7,1.9-2.2c0.8-0.5,1.7-0.8,2.6-0.8c1.5-0.1,3,0.5,4,1.7c1,1.4,1.5,3.1,1.4,4.8
	v9.7h-3.1L1037.4,662.8z"/>
<path class="st12" d="M1044.1,656.6h7.2v2.8h-7.2V656.6z M1046.6,671.5c-0.7-0.9-1-2-0.9-3.2V652h3.1v16.4c0,0.3,0.1,0.6,0.2,0.9
	c0.2,0.2,0.4,0.3,0.7,0.3h1.5v3h-1.8C1048.4,672.7,1047.3,672.3,1046.6,671.5L1046.6,671.5z"/>
<path class="st12" d="M1058.1,671.9c-1-0.5-1.8-1.4-2.2-2.4c-0.5-1.2-0.8-2.4-0.8-3.7v-2.6c0-1.3,0.2-2.5,0.8-3.7
	c0.5-1,1.3-1.8,2.2-2.3c2.2-1.1,4.8-1.1,7.1,0c1,0.5,1.8,1.3,2.2,2.3c0.5,1.2,0.8,2.4,0.8,3.7v2.6c0,1.3-0.2,2.5-0.8,3.7
	c-0.5,1-1.3,1.8-2.2,2.3C1062.9,673,1060.3,673,1058.1,671.9z M1064.1,668.7c0.6-0.8,1-1.8,0.9-2.9v-2.6c0.1-1-0.3-2.1-0.9-2.9
	c-1.4-1.3-3.6-1.3-5.1,0c-0.6,0.8-1,1.8-0.9,2.9v2.6c-0.1,1,0.3,2.1,0.9,2.9C1060.5,670.1,1062.7,670.1,1064.1,668.7z"/>
<path class="st12" d="M1072.6,656.6h3.1v15.9h-3.1V656.6z M1082.2,662.8c0.1-0.9-0.3-1.9-0.9-2.6c-1.4-1.2-3.4-1.2-4.8-0.1
	c-0.6,0.6-0.9,1.4-0.8,2.3l-0.3-3.1c0.4-0.9,1.1-1.7,1.9-2.2c0.8-0.5,1.7-0.8,2.6-0.8c1.5-0.1,3,0.5,4,1.7c1,1.4,1.5,3.1,1.4,4.8
	v9.7h-3.1L1082.2,662.8z"/>
<circle class="st15" cx="963.7" cy="732.4" r="25.9"/>
<path class="st12" d="M1007.8,720.1h3.1v22.2h-3.1L1007.8,720.1z M1009.4,739.4h12.7v3h-12.7V739.4z"/>
<path class="st12" d="M1028.2,741.8c-1-0.5-1.9-1.4-2.4-2.4c-0.6-1.2-0.8-2.5-0.8-3.9v-1.8c0-1.4,0.2-2.7,0.8-4
	c0.5-1.1,1.3-1.9,2.3-2.5c1.1-0.6,2.4-0.9,3.6-0.9c1.2,0,2.4,0.3,3.4,1c1,0.7,1.7,1.7,2.2,2.9c0.5,1.4,0.8,3,0.7,4.5v1h-10.7v-2.5
	h7.7c0-1.1-0.4-2.1-1-3c-0.6-0.7-1.4-1.1-2.3-1.1c-1-0.1-2.1,0.4-2.7,1.2c-0.7,0.9-1.1,2.1-1,3.3v2c-0.1,1.1,0.3,2.2,1,3
	c0.8,0.7,1.9,1.1,3,1c0.6,0,1.3-0.1,1.9-0.4c0.6-0.2,1.2-0.6,1.7-1.1l2,2c-0.8,0.7-1.7,1.3-2.7,1.8c-0.9,0.4-2,0.6-3,0.6
	C1030.6,742.5,1029.3,742.3,1028.2,741.8z"/>
<path class="st12" d="M1042.3,726.5h3.1v15.9h-3.1V726.5z M1051.9,732.7c0.1-0.9-0.3-1.9-0.9-2.6c-0.6-0.6-1.5-1-2.4-0.9
	c-0.9-0.1-1.7,0.2-2.4,0.8c-0.6,0.6-0.9,1.4-0.8,2.3l-0.3-3.1c0.4-0.9,1.1-1.7,1.9-2.2c0.8-0.5,1.7-0.8,2.6-0.8c1.5-0.1,3,0.5,4,1.7
	c1,1.4,1.5,3.1,1.4,4.8v9.6h-3.1L1051.9,732.7z"/>
<path class="st12" d="M1060.5,741.4c-1-0.9-1.6-2.3-1.4-3.7c-0.1-1.3,0.4-2.6,1.3-3.5c1.1-0.9,2.6-1.3,4-1.2h4.6l0.2,2.5h-4.7
	c-0.7,0-1.3,0.1-1.8,0.5c-0.4,0.4-0.6,1-0.6,1.7c-0.1,0.7,0.2,1.4,0.8,1.8c0.7,0.4,1.6,0.6,2.4,0.6c0.9,0,1.8-0.1,2.7-0.4
	c0.5-0.2,0.9-0.6,0.9-1.2l0.3,2.2c-0.3,0.4-0.6,0.8-1,1.1c-0.4,0.3-0.9,0.5-1.4,0.6c-0.6,0.1-1.2,0.2-1.8,0.2
	C1063.3,742.7,1061.8,742.3,1060.5,741.4z M1068.7,732.3c0.1-0.9-0.2-1.8-0.8-2.4c-0.6-0.6-1.5-0.9-2.4-0.9c-0.6,0-1.3,0.1-1.9,0.3
	c-0.6,0.2-1.1,0.5-1.6,0.8l-2.3-1.6c0.6-0.7,1.5-1.3,2.4-1.7c1-0.4,2.2-0.6,3.3-0.6c1.2,0,2.3,0.2,3.4,0.7c0.9,0.4,1.7,1.1,2.1,2
	c0.5,1,0.8,2.1,0.7,3.2v10.2h-3L1068.7,732.3z"/>
<path class="st12" d="M1076.5,726.5h3.1v15.9h-3.1V726.5z M1084.2,729.5c-0.5-0.2-1-0.3-1.4-0.3c-0.8-0.1-1.7,0.2-2.3,0.8
	c-0.6,0.6-0.9,1.4-0.8,2.3l-0.3-3.1c0.4-0.9,1.1-1.6,1.9-2.2c0.8-0.5,1.7-0.8,2.6-0.8c0.7,0,1.4,0.1,2,0.3c0.6,0.2,1.1,0.5,1.5,0.9
	l-2,2.8C1085,729.9,1084.6,729.6,1084.2,729.5L1084.2,729.5z"/>
<path class="st12" d="M1091.6,741.9c-0.8-0.5-1.5-1.3-1.9-2.2c-0.5-1.1-0.7-2.3-0.6-3.5v-3.5c0-1.2,0.2-2.4,0.6-3.5
	c0.4-0.9,1-1.7,1.8-2.2c0.9-0.5,1.9-0.8,2.9-0.8c0.9,0,1.8,0.3,2.6,0.7c0.8,0.5,1.4,1.2,1.9,2.1l-0.3,3.2c0-0.6-0.1-1.2-0.4-1.7
	c-0.2-0.5-0.6-0.9-1.1-1.1c-0.5-0.3-1.1-0.4-1.7-0.4c-0.9,0-1.8,0.3-2.4,1c-0.6,0.8-0.9,1.7-0.8,2.7v3.4c-0.1,1,0.2,1.9,0.8,2.7
	c0.6,0.7,1.5,1,2.4,0.9c0.6,0,1.2-0.1,1.7-0.4c0.5-0.3,0.8-0.6,1.1-1.1c0.3-0.6,0.4-1.2,0.4-1.8l0.2,3.3c-0.3,0.8-0.9,1.5-1.6,2
	c-0.8,0.5-1.7,0.8-2.7,0.8C1093.5,742.7,1092.5,742.4,1091.6,741.9z M1098.6,720.1h3.1v22.2h-3.1V720.1z"/>
<path class="st13" d="M893.7,582.9h-2V579c0-5.4-4.4-9.8-9.8-9.8s-9.8,4.4-9.8,9.8v3.9h-2c-2.1,0-3.9,1.8-3.9,3.9v19.5
	c0,2.2,1.7,3.9,3.9,3.9h23.5c2.2,0,3.9-1.8,3.9-3.9v-19.5C897.6,584.7,895.8,582.9,893.7,582.9z M882,600.5c-2.2,0-3.9-1.7-3.9-3.9
	c0-2.2,1.7-3.9,3.9-3.9c2.2,0,3.9,1.7,3.9,3.9c0,0,0,0,0,0C885.9,598.7,884.1,600.5,882,600.5L882,600.5z M888,582.9h-12.1V579
	c-0.1-3.3,2.5-6.2,5.8-6.3c3.3-0.1,6.2,2.5,6.3,5.8c0,0.2,0,0.3,0,0.5L888,582.9z"/>
<path class="st0" d="M807.8,395.6h305.8c14.1,0,25.6,11.4,25.6,25.5l0,0c0,14.1-11.4,25.5-25.6,25.5H807.8
	c-14.1,0-25.5-11.4-25.5-25.5l0,0C782.3,407,793.7,395.6,807.8,395.6z"/>
<circle class="st3" cx="808.5" cy="420.3" r="15.9"/>
<path class="st1" d="M841.4,411.4h2.7v19.1h-2.7V411.4z M842.9,428h5.2c1.1,0.1,2.1-0.2,3-0.8c0.6-0.5,1-1.3,0.9-2.2l0,0
	c0-0.6-0.1-1.1-0.3-1.7c-0.2-0.5-0.6-0.8-1.1-1.1c-0.6-0.3-1.2-0.4-1.8-0.4h-5.9v-2.4h5.8c0.8,0.1,1.6-0.2,2.2-0.7
	c0.5-0.5,0.8-1.3,0.8-2.1c0.1-0.8-0.2-1.6-0.8-2.1c-0.7-0.5-1.6-0.8-2.5-0.7h-5.4v-2.5h6c1.1,0,2.1,0.2,3.1,0.6
	c0.8,0.4,1.4,1,1.9,1.8c0.4,0.9,0.6,1.8,0.6,2.8c0,0.6-0.1,1.3-0.4,1.8c-0.3,0.6-0.7,1.1-1.2,1.5c-0.6,0.4-1.2,0.7-1.9,0.8
	c0.7,0.1,1.4,0.4,2,0.8c0.6,0.4,1,1,1.3,1.6c0.3,0.7,0.4,1.4,0.4,2.1l0,0c0,1-0.2,1.9-0.7,2.7c-0.5,0.8-1.2,1.4-2,1.8
	c-0.9,0.5-2,0.7-3,0.7h-6.2V428z"/>
<path class="st1" d="M858.7,411.4h2.7v19.1h-2.7V411.4z M860,427.9h10.9v2.5H860V427.9z"/>
<path class="st1" d="M876.4,429.8c-1-0.6-1.8-1.4-2.3-2.5c-0.6-1.1-0.9-2.4-0.8-3.7v-5.4c0-1.3,0.3-2.5,0.8-3.7
	c0.5-1,1.3-1.9,2.3-2.5c2.2-1.2,4.8-1.2,7,0c1,0.6,1.8,1.4,2.3,2.5c0.6,1.1,0.9,2.4,0.8,3.7v5.4c0,1.3-0.3,2.6-0.8,3.7
	c-0.5,1-1.3,1.9-2.3,2.5C881.2,430.9,878.5,430.9,876.4,429.8L876.4,429.8z M881.9,427.5c0.6-0.4,1.1-0.9,1.4-1.5
	c0.3-0.7,0.5-1.5,0.5-2.3v-5.6c0-0.8-0.2-1.6-0.5-2.3c-0.3-0.6-0.8-1.2-1.4-1.5c-1.3-0.7-2.9-0.7-4.2,0c-0.6,0.4-1.1,0.9-1.4,1.5
	c-0.3,0.7-0.5,1.5-0.5,2.3v5.6c0,0.8,0.2,1.6,0.5,2.3c0.3,0.6,0.8,1.2,1.4,1.5C879.1,428.2,880.7,428.2,881.9,427.5z"/>
<path class="st1" d="M893.1,429.8c-1-0.6-1.8-1.4-2.3-2.5c-0.6-1.2-0.8-2.4-0.8-3.7v-5.2c0-1.3,0.3-2.6,0.8-3.7
	c0.5-1,1.3-1.9,2.3-2.5c1.1-0.6,2.3-0.9,3.5-0.9c1,0,2.1,0.2,3,0.7c0.9,0.5,1.7,1.2,2.3,2c0.6,0.9,1.1,1.9,1.2,3h-2.7
	c-0.3-1.2-1.1-2.1-2.2-2.7c-0.5-0.2-1.1-0.4-1.6-0.4c-1.5,0-2.8,0.8-3.4,2.2c-0.3,0.7-0.5,1.5-0.5,2.4v5.2c0,0.8,0.1,1.6,0.5,2.4
	c0.6,1.3,1.9,2.2,3.4,2.1c1.2,0,2.3-0.5,3-1.4c0.4-0.5,0.7-1,0.8-1.7h2.7c-0.2,1.1-0.6,2.1-1.3,3c-0.6,0.8-1.4,1.5-2.3,2
	c-0.9,0.5-2,0.7-3,0.7C895.4,430.7,894.2,430.4,893.1,429.8z"/>
<path class="st1" d="M906.7,411.4h2.7v19.1h-2.7V411.4z M908.8,422.1l8.4-10.7h3.3l-12.1,14.7L908.8,422.1z M912,420.3l2.1-2
	l7.2,12.1h-3.3L912,420.3z"/>
<path class="st1" d="M924.2,411.4h2.7v19.1h-2.7V411.4z M925.5,411.4h11v2.5h-11V411.4z M925.5,419.7h9.5v2.5h-9.5V419.7z
	 M925.5,427.9h11v2.5h-11V427.9z"/>
<path class="st1" d="M940.3,411.4h2.6v19.1h-2.7L940.3,411.4z M942.1,427.9h4.3c1.2,0.1,2.4-0.3,3.3-1.1c0.8-0.8,1.2-1.9,1.2-3.1
	v-5.6c0.1-1.1-0.3-2.3-1.2-3.1c-0.9-0.8-2.1-1.2-3.3-1.1h-4.3v-2.5h4.2c1.4,0,2.7,0.2,3.9,0.8c1.1,0.5,1.9,1.3,2.5,2.3
	c0.6,1.1,0.9,2.4,0.8,3.7v5.4c0,1.3-0.3,2.6-0.8,3.7c-0.6,1-1.4,1.8-2.5,2.3c-1.2,0.6-2.6,0.8-3.9,0.8h-4.2V427.9z"/>
<path class="st1" d="M970.3,411.4h2.3l7,19.1h-2.9l-5.3-15.4l-5.3,15.4h-2.9L970.3,411.4z M966.5,423.7h10v2.5h-10V423.7z"/>
<path class="st1" d="M984.2,429.8c-1-0.6-1.8-1.4-2.3-2.5c-0.6-1.2-0.8-2.4-0.8-3.7v-5.2c0-1.3,0.3-2.6,0.8-3.7
	c0.5-1,1.3-1.9,2.3-2.5c1.1-0.6,2.3-0.9,3.5-0.9c1,0,2.1,0.2,3,0.7c0.9,0.5,1.7,1.2,2.3,2c0.6,0.9,1.1,1.9,1.2,3h-2.7
	c-0.3-1.2-1.1-2.1-2.2-2.7c-0.5-0.2-1.1-0.4-1.6-0.4c-0.7,0-1.4,0.2-2,0.6c-0.6,0.4-1.1,0.9-1.4,1.6c-0.3,0.7-0.5,1.5-0.5,2.4v5.2
	c0,0.8,0.1,1.6,0.5,2.4c0.3,0.6,0.8,1.2,1.4,1.6c0.6,0.4,1.3,0.6,2,0.5c1.2,0,2.3-0.5,3-1.4c0.4-0.5,0.7-1,0.8-1.7h2.7
	c-0.2,1.1-0.6,2.1-1.3,3c-1.2,1.7-3.2,2.7-5.3,2.7C986.4,430.7,985.2,430.4,984.2,429.8z"/>
<path class="st1" d="M1000.3,429.8c-1-0.6-1.8-1.4-2.3-2.5c-0.6-1.2-0.9-2.4-0.8-3.7v-5.2c0-1.3,0.3-2.6,0.8-3.7
	c0.5-1,1.3-1.9,2.3-2.5c1.1-0.6,2.3-0.9,3.5-0.9c1,0,2.1,0.2,3,0.7c0.9,0.5,1.7,1.2,2.3,2c0.6,0.9,1.1,1.9,1.2,3h-2.7
	c-0.2-0.6-0.4-1.1-0.8-1.6c-0.4-0.5-0.8-0.8-1.4-1.1c-0.5-0.2-1.1-0.4-1.6-0.4c-1.5,0-2.8,0.8-3.4,2.2c-0.3,0.7-0.5,1.5-0.5,2.4v5.2
	c0,0.8,0.2,1.6,0.5,2.4c0.6,1.3,1.9,2.2,3.4,2.1c1.2,0,2.3-0.5,3-1.4c0.4-0.5,0.7-1,0.8-1.7h2.7c-0.2,1.1-0.6,2.1-1.3,3
	c-0.6,0.8-1.4,1.5-2.3,2c-0.9,0.5-2,0.7-3,0.7C1002.5,430.7,1001.3,430.4,1000.3,429.8z"/>
<path class="st1" d="M1013.9,411.4h2.7v19.1h-2.7V411.4z M1015.2,411.4h10.9v2.5h-10.9V411.4z M1015.2,419.7h9.5v2.5h-9.5V419.7z
	 M1015.2,427.9h10.9v2.5h-10.9V427.9z"/>
<path class="st1" d="M1033,430.4c-0.8-0.2-1.6-0.4-2.3-0.8c-0.7-0.3-1.4-0.8-2-1.3l1.7-2c0.7,0.6,1.5,1.1,2.4,1.4
	c0.9,0.3,1.9,0.5,2.8,0.5c1.1,0.1,2.2-0.2,3.2-0.8c0.7-0.5,1.2-1.3,1.1-2.2l0,0c0-0.6-0.2-1.1-0.5-1.6c-0.4-0.4-0.8-0.7-1.3-0.9
	c-0.7-0.2-1.4-0.4-2.1-0.5h-0.1h-0.2c-1.1-0.2-2.1-0.4-3.1-0.8c-0.8-0.3-1.5-0.8-2.1-1.5c-0.6-0.9-0.9-2-0.9-3.1l0,0
	c0-1.1,0.2-2.1,0.8-3c0.6-0.9,1.4-1.5,2.3-1.9c1.2-0.5,2.4-0.7,3.7-0.7c0.7,0,1.3,0.1,2,0.2c0.7,0.2,1.4,0.4,2,0.7
	c0.7,0.3,1.3,0.7,1.9,1.1l-1.5,2.1c-0.7-0.5-1.4-0.9-2.2-1.2c-0.7-0.3-1.4-0.4-2.2-0.4c-1.1-0.1-2.1,0.2-3,0.8
	c-0.7,0.5-1.1,1.3-1.1,2.2l0,0c0,0.6,0.2,1.1,0.6,1.5c0.4,0.4,0.9,0.7,1.4,0.8c0.8,0.2,1.5,0.4,2.3,0.6h0.1h0.1h0.1h0.2
	c1,0.2,2,0.5,2.9,0.8c0.7,0.3,1.4,0.9,1.8,1.6c0.6,0.9,0.8,1.9,0.8,3l0,0c0,1.1-0.3,2.1-0.8,3c-0.6,0.9-1.4,1.5-2.4,1.9
	c-1.2,0.5-2.5,0.7-3.8,0.7C1034.8,430.7,1033.9,430.6,1033,430.4z"/>
<path class="st1" d="M1049.1,430.4c-0.8-0.2-1.6-0.4-2.3-0.8c-0.7-0.3-1.4-0.8-2-1.3l1.7-2c0.7,0.6,1.5,1.1,2.4,1.4
	c0.9,0.3,1.9,0.5,2.8,0.5c1.1,0.1,2.2-0.2,3.2-0.8c0.7-0.5,1.2-1.3,1.1-2.2l0,0c0-0.6-0.2-1.1-0.5-1.6c-0.4-0.4-0.8-0.7-1.3-0.9
	c-0.7-0.2-1.4-0.4-2.1-0.5h-0.2h-0.2c-1.1-0.2-2.1-0.4-3.1-0.8c-0.8-0.3-1.5-0.8-2.1-1.5c-0.6-0.9-0.9-2-0.8-3.1l0,0
	c0-1.1,0.2-2.1,0.8-3c0.6-0.9,1.4-1.5,2.3-1.9c1.2-0.5,2.4-0.7,3.7-0.7c0.7,0,1.3,0.1,2,0.2c0.7,0.2,1.4,0.4,2,0.7
	c0.7,0.3,1.3,0.7,1.9,1.1l-1.5,2.1c-0.7-0.5-1.4-0.9-2.2-1.2c-0.7-0.3-1.4-0.4-2.2-0.4c-1.1-0.1-2.1,0.2-3,0.8
	c-0.7,0.5-1.1,1.3-1.1,2.2l0,0c0,0.6,0.2,1.1,0.6,1.5c0.4,0.4,0.9,0.7,1.4,0.8c0.8,0.2,1.5,0.4,2.3,0.6h0.1h0.1h0.1h0.2
	c1,0.2,2,0.5,2.9,0.8c0.7,0.3,1.4,0.9,1.8,1.6c0.6,0.9,0.8,1.9,0.8,3l0,0c0,1.1-0.3,2.1-0.8,3c-0.6,0.9-1.4,1.5-2.4,1.9
	c-1.2,0.5-2.5,0.7-3.8,0.7C1050.8,430.7,1049.9,430.6,1049.1,430.4z"/>
<path class="st0" d="M37.3,234.9H343c14.1,0,25.5,11.4,25.5,25.6l0,0c0,14.1-11.4,25.5-25.5,25.5H37.3c-14.1,0-25.5-11.4-25.5-25.5
	l0,0C11.7,246.4,23.2,234.9,37.3,234.9z"/>
<circle class="st7" cx="37.9" cy="259.6" r="15.9"/>
<path class="st1" d="M70.8,250.7h2.7v19.1h-2.7V250.7z M72.4,267.3h5.2c1.1,0.1,2.1-0.2,3-0.8c0.6-0.5,1-1.3,0.9-2.2l0,0
	c0-0.6-0.1-1.1-0.3-1.7c-0.2-0.5-0.6-0.8-1.1-1.1c-0.6-0.3-1.2-0.4-1.8-0.4h-5.8v-2.4h5.8c0.8,0.1,1.6-0.2,2.2-0.7
	c1-1.2,1-3-0.1-4.2c-0.7-0.5-1.6-0.8-2.5-0.7h-5.5v-2.5h5.9c1.1,0,2.1,0.2,3.1,0.6c0.8,0.4,1.4,1,1.9,1.8c0.4,0.9,0.6,1.8,0.6,2.8
	c0,0.6-0.1,1.3-0.4,1.8c-0.3,0.6-0.7,1.1-1.2,1.5c-0.6,0.4-1.2,0.7-1.9,0.8c0.7,0.1,1.4,0.4,2,0.8c0.6,0.4,1,1,1.3,1.6
	c0.3,0.7,0.4,1.4,0.4,2.1l0,0c0,1-0.2,1.9-0.7,2.7c-0.4,0.8-1.1,1.4-1.9,1.8c-0.9,0.5-2,0.7-3,0.7h-6.2L72.4,267.3z"/>
<path class="st1" d="M93.9,262v7.8h-2.7V262l-5.8-11.3h3l4.2,8.6l4.2-8.6h3L93.9,262z"/>
<path class="st1" d="M101.8,250.7h2.7v19.1h-2.7V250.7z M103.2,259.8h6.1c0.5,0,1.1-0.1,1.5-0.4c0.4-0.3,0.8-0.7,1-1.2
	c0.2-0.5,0.4-1.1,0.4-1.7c0-0.6-0.1-1.2-0.4-1.7c-0.2-0.5-0.6-0.9-1-1.2c-0.5-0.3-1-0.4-1.5-0.4h-6.1v-2.5h6c1,0,2.1,0.2,3,0.7
	c0.8,0.5,1.5,1.2,2,2c0.5,0.9,0.7,2,0.7,3.1c0,1.1-0.2,2.1-0.7,3.1c-0.5,0.8-1.2,1.5-2,2c-0.9,0.5-2,0.7-3,0.7h-6V259.8z"/>
<path class="st1" d="M122.5,250.7h2.3l7,19.1h-2.9l-5.3-15.4l-5.3,15.4h-2.9L122.5,250.7z M118.7,263h10v2.5h-10V263z"/>
<path class="st1" d="M136.8,269.7c-0.8-0.2-1.6-0.4-2.3-0.8c-0.7-0.4-1.4-0.8-2-1.3l1.7-2c0.7,0.6,1.5,1.1,2.4,1.4
	c0.9,0.3,1.9,0.5,2.8,0.5c1.1,0.1,2.2-0.2,3.2-0.8c0.7-0.5,1.2-1.3,1.1-2.2l0,0c0-0.6-0.2-1.1-0.5-1.6c-0.4-0.4-0.8-0.7-1.3-0.9
	c-0.7-0.2-1.4-0.4-2.1-0.5h-0.2h-0.2c-1.1-0.2-2.1-0.4-3.1-0.7c-0.8-0.3-1.5-0.8-2-1.5c-0.6-0.9-0.9-2-0.9-3.1l0,0
	c0-1.1,0.2-2.1,0.8-3c0.5-0.9,1.3-1.6,2.3-2c1.8-0.7,3.8-0.8,5.7-0.4c0.7,0.2,1.3,0.4,1.9,0.7c0.7,0.3,1.3,0.7,1.9,1.1l-1.5,2.1
	c-0.7-0.5-1.4-0.9-2.2-1.2c-0.7-0.3-1.4-0.4-2.2-0.4c-1.1-0.1-2.1,0.2-3,0.8c-0.7,0.5-1.1,1.3-1.1,2.2l0,0c0,0.6,0.2,1.1,0.6,1.5
	c0.4,0.4,0.9,0.7,1.4,0.8c0.8,0.2,1.5,0.4,2.3,0.5h0.1h0.1h0.1h0.1c1,0.2,2,0.5,2.9,0.8c0.8,0.3,1.5,0.9,1.9,1.6
	c0.6,0.9,0.9,1.9,0.8,3l0,0c0.1,2.2-1.2,4.1-3.2,4.9c-1.2,0.5-2.5,0.7-3.8,0.6C138.5,269.9,137.6,269.9,136.8,269.7z"/>
<path class="st1" d="M152.8,269.7c-0.8-0.2-1.6-0.4-2.3-0.8c-0.7-0.4-1.4-0.8-2-1.3l1.7-2c0.7,0.6,1.5,1.1,2.4,1.4
	c0.9,0.3,1.9,0.5,2.8,0.5c1.1,0.1,2.2-0.2,3.2-0.8c0.7-0.5,1.2-1.3,1.1-2.2l0,0c0-0.6-0.2-1.1-0.5-1.6c-0.4-0.4-0.8-0.7-1.3-0.9
	c-0.7-0.2-1.4-0.4-2.1-0.5h-0.2h-0.2c-1.1-0.2-2.1-0.4-3.1-0.7c-0.8-0.3-1.5-0.8-2.1-1.5c-0.6-0.9-0.9-2-0.9-3.1l0,0
	c0-1.1,0.2-2.1,0.8-3c0.6-0.9,1.4-1.5,2.3-1.9c1.8-0.7,3.8-0.8,5.7-0.4c0.7,0.2,1.3,0.4,1.9,0.7c0.7,0.3,1.3,0.7,1.9,1.1l-1.5,2.1
	c-0.7-0.5-1.4-0.9-2.2-1.2c-0.7-0.3-1.4-0.4-2.2-0.4c-1.1-0.1-2.1,0.2-3,0.8c-0.7,0.5-1.1,1.3-1.1,2.2l0,0c0,0.6,0.2,1.1,0.6,1.5
	c0.4,0.4,0.9,0.7,1.4,0.8c0.8,0.2,1.5,0.4,2.3,0.5h0.1h0.1h0.1h0.1c1,0.2,2,0.5,2.9,0.8c0.8,0.3,1.5,0.9,1.9,1.6
	c0.6,0.9,0.8,1.9,0.8,3l0,0c0.1,2.2-1.2,4.1-3.2,4.9c-1.2,0.5-2.5,0.7-3.8,0.6C154.5,270,153.7,269.9,152.8,269.7z"/>
<path class="st1" d="M178.6,250.7h2.3l7,19.1H185l-5.3-15.4l-5.3,15.4h-2.9L178.6,250.7z M174.8,263h10v2.5h-10V263z"/>
<path class="st1" d="M192.5,269.1c-1-0.6-1.8-1.5-2.3-2.5c-0.6-1.2-0.9-2.4-0.8-3.7v-5.2c0-1.3,0.3-2.6,0.8-3.7
	c0.5-1,1.3-1.9,2.3-2.5c1.1-0.6,2.3-0.9,3.5-0.9c1,0,2.1,0.2,3,0.7c0.9,0.5,1.7,1.2,2.3,2c0.6,0.9,1.1,1.9,1.3,3h-2.8
	c-0.2-0.6-0.4-1.1-0.8-1.6c-0.4-0.5-0.8-0.8-1.4-1.1c-0.5-0.3-1.1-0.4-1.6-0.4c-0.7,0-1.4,0.2-2,0.6c-0.6,0.4-1.1,0.9-1.4,1.6
	c-0.3,0.7-0.5,1.6-0.5,2.4v5.2c0,0.8,0.1,1.6,0.5,2.4c0.3,0.6,0.8,1.2,1.4,1.6c0.6,0.4,1.3,0.6,2,0.5c0.6,0,1.1-0.1,1.6-0.3
	c0.5-0.2,1-0.6,1.4-1c0.4-0.5,0.7-1,0.8-1.7h2.8c-0.2,1.1-0.6,2.1-1.3,3c-1.2,1.7-3.2,2.7-5.3,2.7
	C194.8,270.1,193.6,269.7,192.5,269.1z"/>
<path class="st1" d="M208.6,269.1c-1-0.6-1.8-1.5-2.3-2.5c-0.6-1.2-0.9-2.4-0.8-3.7v-5.2c0-1.3,0.3-2.6,0.8-3.7
	c0.5-1,1.3-1.9,2.3-2.5c1.1-0.6,2.3-0.9,3.5-0.9c1,0,2.1,0.2,3,0.7c0.9,0.5,1.7,1.2,2.3,2c0.6,0.9,1.1,1.9,1.2,3h-2.7
	c-0.2-0.6-0.4-1.1-0.8-1.6c-0.4-0.5-0.8-0.8-1.4-1.1c-0.5-0.3-1.1-0.4-1.6-0.4c-0.7,0-1.4,0.2-2.1,0.6c-0.6,0.4-1.1,0.9-1.4,1.6
	c-0.3,0.7-0.5,1.6-0.5,2.4v5.2c0,0.8,0.1,1.6,0.5,2.4c0.3,0.6,0.8,1.2,1.4,1.6c0.6,0.4,1.3,0.6,2.1,0.5c0.6,0,1.1-0.1,1.6-0.3
	c0.5-0.2,1-0.6,1.4-1c0.4-0.5,0.7-1,0.8-1.7h2.7c-0.2,1.1-0.6,2.1-1.2,3c-1.2,1.7-3.2,2.7-5.3,2.7
	C210.8,270.1,209.6,269.7,208.6,269.1z"/>
<path class="st1" d="M222.2,250.7h2.7v19.1h-2.7L222.2,250.7z M223.5,250.7h11v2.5h-11V250.7z M223.5,259h9.5v2.5h-9.5V259z
	 M223.5,267.2h11v2.5h-11V267.2z"/>
<path class="st1" d="M241.4,269.7c-0.8-0.2-1.6-0.4-2.3-0.8c-0.7-0.4-1.4-0.8-2-1.3l1.7-2c0.7,0.6,1.5,1.1,2.4,1.4
	c0.9,0.3,1.9,0.5,2.8,0.5c1.1,0.1,2.2-0.2,3.2-0.8c0.7-0.5,1.2-1.3,1.1-2.2l0,0c0-0.6-0.2-1.1-0.5-1.6c-0.4-0.4-0.8-0.7-1.3-0.9
	c-0.7-0.2-1.4-0.4-2.1-0.5h-0.2H244c-1.1-0.2-2.1-0.4-3.1-0.7c-0.8-0.3-1.5-0.8-2-1.5c-0.6-0.9-0.9-2-0.9-3.1l0,0
	c0-1.1,0.2-2.1,0.8-3c0.6-0.9,1.4-1.5,2.3-1.9c1.8-0.7,3.8-0.8,5.7-0.4c0.7,0.2,1.3,0.4,2,0.7c0.7,0.3,1.3,0.7,1.9,1.1l-1.5,2.1
	c-0.7-0.5-1.4-0.9-2.2-1.2c-0.7-0.3-1.4-0.4-2.2-0.4c-1.1-0.1-2.1,0.2-3,0.8c-0.7,0.5-1.1,1.3-1.1,2.2l0,0c0,0.6,0.2,1.1,0.5,1.5
	c0.4,0.4,0.9,0.7,1.4,0.8c0.8,0.2,1.5,0.4,2.3,0.5h0.1h0.1h0.1h0.1c1,0.2,2,0.5,2.9,0.8c0.8,0.3,1.5,0.9,1.9,1.6
	c0.6,0.9,0.8,1.9,0.8,3l0,0c0.1,2.2-1.2,4.1-3.2,4.9c-1.2,0.5-2.5,0.7-3.8,0.6C243.1,270,242.2,269.9,241.4,269.7z"/>
<path class="st1" d="M257.4,269.7c-0.8-0.2-1.6-0.4-2.3-0.8c-0.7-0.4-1.4-0.8-2-1.3l1.7-2c0.7,0.6,1.5,1.1,2.4,1.4
	c0.9,0.3,1.9,0.5,2.8,0.5c1.1,0.1,2.2-0.2,3.2-0.8c0.7-0.5,1.2-1.3,1.1-2.2l0,0c0-0.6-0.2-1.1-0.5-1.6c-0.4-0.4-0.8-0.7-1.3-0.9
	c-0.7-0.2-1.4-0.4-2.1-0.5h-0.2H260c-1.1-0.2-2.1-0.4-3.1-0.7c-0.8-0.3-1.5-0.8-2-1.5c-0.6-0.9-0.9-2-0.9-3.1l0,0
	c0-1.1,0.2-2.1,0.8-3c0.6-0.9,1.4-1.5,2.3-1.9c1.8-0.7,3.8-0.8,5.7-0.4c0.7,0.2,1.3,0.4,2,0.7c0.7,0.3,1.3,0.7,1.9,1.1l-1.5,2.1
	c-0.7-0.5-1.4-0.9-2.2-1.2c-0.7-0.3-1.4-0.4-2.2-0.4c-1.1-0.1-2.1,0.2-3,0.8c-0.7,0.5-1.1,1.3-1.1,2.2l0,0c0,0.6,0.2,1.1,0.5,1.5
	c0.4,0.4,0.9,0.7,1.4,0.8c0.8,0.2,1.5,0.4,2.3,0.5h0.1h0.1h0.1h0.1c1,0.2,2,0.5,2.9,0.8c0.8,0.3,1.5,0.9,1.9,1.6
	c0.6,0.9,0.8,1.9,0.8,3l0,0c0.1,2.2-1.2,4.1-3.2,4.9c-1.2,0.5-2.5,0.7-3.8,0.6C259.1,270,258.2,269.9,257.4,269.7z"/>
</svg>
