<?xml version="1.0" encoding="utf-8"?>
<!-- Generator: Adobe Illustrator 25.0.0, SVG Export Plug-In . SVG Version: 6.00 Build 0)  -->
<svg version="1.1" id="Layer_1" xmlns="http://www.w3.org/2000/svg" xmlns:xlink="http://www.w3.org/1999/xlink" x="0px" y="0px"
	 viewBox="0 0 1615.65 1017.97" style="enable-background:new 0 0 1615.65 1017.97;" xml:space="preserve">
<style type="text/css">
	.st0{fill:#2F3136;}
	.st1{fill:#72767D;}
	.st2{fill:#4FDC7C;}
	.st3{fill:#5764F4;}
	.st4{fill:#202225;}
	.st5{fill:#EB459E;}
</style>
<path class="st0" d="M1104.21,678.53H511.44c-21.88,0-39.61-17.74-39.61-39.61V388.07c0-21.88,17.74-39.61,39.61-39.61h592.77
	c21.88,0,39.61,17.74,39.61,39.61v250.85C1143.82,660.79,1126.09,678.53,1104.21,678.53z"/>
<path class="st1" d="M534.6,394.14c1.93,1.96,4.36,3.44,7.09,4.23c0.09,0.62,0.13,1.24,0.13,1.88c0,4.01-1.72,7.61-4.45,10.1
	c-1.22,1.12-3.19,0.26-3.19-1.39V393.7C534.32,393.85,534.45,394,534.6,394.14z"/>
<path class="st1" d="M536.61,386.94l-4.71-4.7h3.63c0-0.67,0.06-1.33,0.18-1.97c0.38-2.09,1.36-3.97,2.76-5.46
	c2.1-2.24,5.12-3.59,8.46-3.44c5.58,0.26,10.1,4.78,10.36,10.36c0.16,3.41-1.25,6.49-3.57,8.59c-1.52,1.37-3.42,2.32-5.53,2.67
	c-0.58,0.09-1.17,0.14-1.77,0.14c-3.01,0-5.72-1.22-7.69-3.19l1.72-1.72c1.52,1.53,3.64,2.49,5.97,2.49c0.26,0,0.52-0.01,0.78-0.04
	c2.16-0.2,4.09-1.21,5.47-2.72c1.44-1.58,2.29-3.71,2.21-6.04c-0.16-4.39-3.74-7.97-8.13-8.13c-2.28-0.09-4.36,0.73-5.93,2.11
	c-1.53,1.36-2.57,3.26-2.81,5.41c-0.04,0.31-0.05,0.62-0.05,0.94h3.63l-0.81,0.8l-4.08,4.07L536.61,386.94z"/>
<polygon class="st1" points="547.02,382.41 550.66,384.57 551.28,384.93 551.11,385.23 550.35,386.49 545.21,383.45 545.21,377.4 
	547.02,377.4 "/>
<path class="st1" d="M555.3,396.35c0.18,1.27,0.27,2.58,0.27,3.9c0,12.18-7.92,22.5-18.9,26.11c-1.23,0.41-2.5-0.51-2.5-1.8v-2.43
	c0-0.79,0.49-1.5,1.23-1.77c8.19-3,14.05-10.87,14.05-20.1c0-0.51-0.02-1.02-0.06-1.53C551.55,398.32,553.55,397.5,555.3,396.35z"/>
<path class="st1" d="M555.3,396.35c-1.76,1.15-3.75,1.97-5.9,2.37c0.04,0.5,0.06,1.01,0.06,1.53c0,9.23-5.85,17.1-14.05,20.1
	c-0.74,0.27-1.23,0.98-1.23,1.77v2.43c0,1.3,1.27,2.21,2.5,1.8c10.98-3.61,18.9-13.94,18.9-26.11
	C555.58,398.93,555.48,397.63,555.3,396.35z M548.19,392.98c2.11-0.35,4.01-1.3,5.53-2.67c-0.31-0.81-0.66-1.59-1.05-2.36
	c-1.38,1.51-3.31,2.52-5.47,2.72C547.57,391.41,547.91,392.18,548.19,392.98z M551.11,385.23c-0.14-0.22-0.29-0.44-0.45-0.66
	l-3.64-2.16v-2.07c-0.58-0.55-1.18-1.08-1.81-1.58v4.69l5.14,3.05L551.11,385.23z M540.78,383.04l0.81-0.8h-1.97
	C540.01,382.49,540.4,382.76,540.78,383.04z M540.81,375.89c-0.76-0.4-1.54-0.76-2.34-1.09c-1.39,1.49-2.37,3.37-2.76,5.46
	c0.79,0.3,1.55,0.65,2.29,1.03C538.24,379.15,539.28,377.25,540.81,375.89z M541.69,398.37c-2.73-0.79-5.17-2.27-7.09-4.23
	c-0.14-0.14-0.28-0.29-0.42-0.44v15.26c0,1.66,1.97,2.51,3.19,1.39c2.73-2.5,4.45-6.09,4.45-10.1
	C541.82,399.61,541.78,398.98,541.69,398.37z M524.82,379.04l-11.48,11.48c-0.36,0.36-0.84,0.56-1.34,0.56h-9.54
	c-1.05,0-1.9,0.85-1.9,1.9v14.54c0,1.05,0.85,1.9,1.9,1.9H512c0.5,0,0.99,0.2,1.34,0.56l11.48,11.48c1.2,1.2,3.24,0.35,3.24-1.35
	v-39.73C528.07,378.69,526.02,377.85,524.82,379.04z"/>
<polygon class="st1" points="547.02,382.41 550.66,384.57 551.28,384.93 551.11,385.23 550.35,386.49 545.21,383.45 545.21,377.4 
	547.02,377.4 "/>
<path class="st1" d="M553.72,390.31c-1.52,1.37-3.42,2.32-5.53,2.67c-0.58,0.09-1.17,0.14-1.77,0.14c-3.01,0-5.72-1.22-7.69-3.19
	l1.72-1.72c1.52,1.53,3.64,2.49,5.97,2.49c0.26,0,0.52-0.01,0.78-0.04c2.16-0.2,4.09-1.21,5.47-2.72c1.44-1.58,2.29-3.71,2.21-6.04
	c-0.16-4.39-3.74-7.97-8.13-8.13c-2.28-0.09-4.36,0.73-5.93,2.11c-1.53,1.36-2.57,3.26-2.81,5.41c-0.04,0.31-0.05,0.62-0.05,0.94
	h3.63l-0.81,0.8l-4.08,4.07l-0.08-0.17l-4.71-4.7h3.63c0-0.67,0.06-1.33,0.18-1.97c0.38-2.09,1.36-3.97,2.76-5.46
	c2.1-2.24,5.12-3.59,8.46-3.44c5.58,0.26,10.1,4.78,10.36,10.36C557.45,385.13,556.04,388.21,553.72,390.31z"/>
<path class="st1" d="M534.18,393.7c0.14,0.15,0.27,0.29,0.42,0.44h-0.42V393.7z"/>
<polygon class="st1" points="547.02,382.41 550.66,384.57 551.28,384.93 551.11,385.23 550.35,386.49 545.21,383.45 545.21,377.4 
	547.02,377.4 "/>
<path class="st1" d="M553.72,390.31c-1.52,1.37-3.42,2.32-5.53,2.67c-0.58,0.09-1.17,0.14-1.77,0.14c-3.01,0-5.72-1.22-7.69-3.19
	l1.72-1.72c1.52,1.53,3.64,2.49,5.97,2.49c0.26,0,0.52-0.01,0.78-0.04c2.16-0.2,4.09-1.21,5.47-2.72c1.44-1.58,2.29-3.71,2.21-6.04
	c-0.16-4.39-3.74-7.97-8.13-8.13c-2.28-0.09-4.36,0.73-5.93,2.11c-1.53,1.36-2.57,3.26-2.81,5.41c-0.04,0.31-0.05,0.62-0.05,0.94
	h3.63l-0.81,0.8l-4.08,4.07l-0.08-0.17l-4.71-4.7h3.63c0-0.67,0.06-1.33,0.18-1.97c0.38-2.09,1.36-3.97,2.76-5.46
	c2.1-2.24,5.12-3.59,8.46-3.44c5.58,0.26,10.1,4.78,10.36,10.36C557.45,385.13,556.04,388.21,553.72,390.31z"/>
<path class="st1" d="M550.66,384.57l-3.64-2.16v-5.01h-1.81v6.05l5.14,3.05l0.76-1.27l0.18-0.29L550.66,384.57z M557.29,381.72
	c-0.26-5.58-4.78-10.1-10.36-10.36c-3.34-0.15-6.37,1.2-8.46,3.44c-1.39,1.49-2.37,3.37-2.76,5.46c-0.12,0.64-0.18,1.3-0.18,1.97
	h-3.63l4.71,4.7l0.08,0.17l4.08-4.07l0.81-0.8h-3.63c0-0.32,0.02-0.63,0.05-0.94c0.24-2.15,1.28-4.05,2.81-5.41
	c1.57-1.39,3.65-2.2,5.93-2.11c4.39,0.16,7.97,3.74,8.13,8.13c0.09,2.33-0.76,4.46-2.21,6.04c-1.38,1.51-3.31,2.52-5.47,2.72
	c-0.26,0.02-0.52,0.04-0.78,0.04c-2.33,0-4.45-0.96-5.97-2.49l-1.72,1.72c1.97,1.97,4.68,3.19,7.69,3.19c0.6,0,1.2-0.05,1.77-0.14
	c2.11-0.35,4.01-1.3,5.53-2.67C556.04,388.21,557.45,385.13,557.29,381.72z M550.66,384.57c0.15,0.22,0.3,0.44,0.45,0.66l0.18-0.29
	L550.66,384.57z M547.02,377.4h-1.81v1.36c0.63,0.5,1.23,1.03,1.81,1.58V377.4z"/>
<g>
	<g>
		<g>
			<path class="st1" d="M586.26,385.02h4.14v29.51h-4.14V385.02z M588.27,385.02h16.95v3.94h-16.95V385.02z M588.27,397.91h14.71
				v3.94h-14.71V397.91z M588.27,410.59h16.95v3.94h-16.95V410.59z"/>
			<path class="st1" d="M618.13,397.66l7.41-12.64h4.65l-9.76,15.97l-7.92,13.54h-4.65L618.13,397.66z M618.31,401.56l-0.63-1.01
				l-9.58-15.53h4.65l7.12,12.01l0.67,1.1l10.09,16.4h-4.65L618.31,401.56z"/>
			<path class="st1" d="M638.96,413.47c-1.55-0.91-2.75-2.19-3.6-3.86c-0.85-1.66-1.28-3.59-1.28-5.78v-8.1
				c0-2.19,0.43-4.12,1.28-5.78s2.05-2.95,3.6-3.87c1.55-0.91,3.35-1.37,5.39-1.37c1.69,0,3.25,0.36,4.67,1.09s2.61,1.75,3.56,3.07
				c0.95,1.33,1.6,2.86,1.94,4.61h-4.24c-0.26-0.92-0.69-1.74-1.29-2.47s-1.31-1.28-2.12-1.67c-0.81-0.39-1.65-0.59-2.52-0.59
				c-1.2,0-2.26,0.29-3.17,0.87c-0.91,0.58-1.61,1.4-2.11,2.45c-0.5,1.05-0.75,2.27-0.75,3.66v8.1c0,1.38,0.25,2.6,0.75,3.65
				c0.5,1.06,1.2,1.87,2.11,2.45c0.91,0.58,1.96,0.86,3.17,0.86c0.88,0,1.72-0.18,2.53-0.55c0.8-0.37,1.51-0.91,2.11-1.62
				c0.6-0.72,1.03-1.57,1.29-2.56h4.24c-0.34,1.75-0.99,3.28-1.95,4.61c-0.96,1.33-2.15,2.35-3.57,3.08
				c-1.42,0.72-2.97,1.09-4.65,1.09C642.31,414.83,640.51,414.38,638.96,413.47z"/>
			<path class="st1" d="M660.41,385.02h4.14v29.51h-4.14V385.02z M662.48,410.59h16.89v3.94h-16.89V410.59z"/>
			<path class="st1" d="M688.59,413.54c-1.55-0.86-2.73-2.11-3.54-3.75c-0.81-1.64-1.22-3.62-1.22-5.94v-18.83h4.14v18.98
				c0,2.15,0.54,3.82,1.62,4.99c1.08,1.18,2.61,1.77,4.59,1.77c1.99,0,3.53-0.59,4.62-1.77c1.09-1.18,1.63-2.84,1.63-4.99v-18.98
				h4.14v18.83c0,2.31-0.41,4.29-1.22,5.94c-0.81,1.64-2,2.9-3.55,3.75s-3.43,1.29-5.62,1.29C692,414.83,690.14,414.4,688.59,413.54
				z"/>
			<path class="st1" d="M716.3,414.43c-1.27-0.27-2.46-0.68-3.56-1.22s-2.13-1.22-3.09-2.03l2.58-3.17
				c1.12,0.97,2.36,1.71,3.71,2.19c1.35,0.49,2.82,0.73,4.41,0.73c2.14,0,3.79-0.4,4.97-1.19c1.18-0.79,1.77-1.91,1.77-3.36v-0.02
				c0-1.03-0.27-1.84-0.8-2.45c-0.54-0.6-1.22-1.05-2.07-1.34s-1.94-0.56-3.28-0.8c-0.04-0.01-0.08-0.02-0.13-0.02
				s-0.09-0.01-0.13-0.02l-0.3-0.06c-1.98-0.34-3.58-0.72-4.82-1.15c-1.24-0.43-2.3-1.2-3.18-2.33c-0.88-1.13-1.32-2.74-1.32-4.82
				v-0.02c0-1.83,0.41-3.39,1.23-4.68s2.01-2.28,3.58-2.95c1.57-0.68,3.46-1.01,5.66-1.01c1.06,0,2.09,0.12,3.12,0.34
				c1.02,0.23,2.03,0.57,3.02,1.03s1.97,1.02,2.93,1.71l-2.35,3.29c-1.12-0.83-2.24-1.44-3.36-1.86c-1.12-0.41-2.24-0.62-3.36-0.62
				c-2.02,0-3.58,0.4-4.7,1.21c-1.12,0.8-1.67,1.95-1.67,3.42v0.02c0,1.01,0.29,1.81,0.86,2.39c0.58,0.58,1.29,1.01,2.15,1.29
				s2.05,0.57,3.58,0.86c0.05,0.01,0.1,0.02,0.15,0.03c0.05,0.01,0.1,0.02,0.15,0.03c0.07,0.01,0.14,0.03,0.22,0.04
				c0.08,0.01,0.16,0.03,0.22,0.04c1.79,0.37,3.28,0.8,4.47,1.3c1.2,0.5,2.2,1.31,3,2.43c0.81,1.12,1.21,2.64,1.21,4.58v0.04
				c0,1.8-0.43,3.34-1.28,4.62s-2.09,2.25-3.7,2.92c-1.62,0.67-3.57,1-5.86,1C718.92,414.83,717.58,414.7,716.3,414.43z"/>
			<path class="st1" d="M741.21,414.53h-4.14v-29.51h4.14V414.53z"/>
			<path class="st1" d="M745.47,385.02h4.5l7.08,23.14l7.08-23.14h4.51l-9.62,29.51h-3.94L745.47,385.02z"/>
			<path class="st1" d="M772.91,385.02h4.14v29.51h-4.14V385.02z M774.92,385.02h16.95v3.94h-16.95V385.02z M774.92,397.91h14.71
				v3.94h-14.71V397.91z M774.92,410.59h16.95v3.94h-16.95V410.59z"/>
			<path class="st1" d="M813.19,413.47c-1.55-0.91-2.75-2.19-3.6-3.86c-0.85-1.66-1.28-3.59-1.28-5.78v-8.1
				c0-2.19,0.43-4.12,1.28-5.78s2.05-2.95,3.6-3.87c1.55-0.91,3.35-1.37,5.39-1.37c1.69,0,3.25,0.36,4.67,1.09s2.61,1.75,3.56,3.07
				c0.95,1.33,1.6,2.86,1.94,4.61h-4.24c-0.26-0.92-0.69-1.74-1.29-2.47s-1.31-1.28-2.12-1.67c-0.81-0.39-1.65-0.59-2.52-0.59
				c-1.2,0-2.26,0.29-3.17,0.87c-0.91,0.58-1.61,1.4-2.11,2.45c-0.5,1.05-0.75,2.27-0.75,3.66v8.1c0,1.38,0.25,2.6,0.75,3.65
				c0.5,1.06,1.2,1.87,2.11,2.45c0.91,0.58,1.96,0.86,3.17,0.86c0.88,0,1.72-0.18,2.53-0.55c0.8-0.37,1.51-0.91,2.11-1.62
				c0.6-0.72,1.03-1.57,1.29-2.56h4.24c-0.34,1.75-0.99,3.28-1.95,4.61c-0.96,1.33-2.15,2.35-3.57,3.08
				c-1.42,0.72-2.97,1.09-4.65,1.09C816.53,414.83,814.74,414.38,813.19,413.47z"/>
			<path class="st1" d="M834.63,385.02h4.14v29.51h-4.14V385.02z M836.7,410.59h16.89v3.94H836.7V410.59z"/>
			<path class="st1" d="M862.81,413.54c-1.55-0.86-2.73-2.11-3.54-3.75c-0.81-1.64-1.22-3.62-1.22-5.94v-18.83h4.14v18.98
				c0,2.15,0.54,3.82,1.62,4.99c1.08,1.18,2.61,1.77,4.59,1.77c1.99,0,3.53-0.59,4.62-1.77c1.09-1.18,1.63-2.84,1.63-4.99v-18.98
				h4.14v18.83c0,2.31-0.41,4.29-1.22,5.94c-0.81,1.64-2,2.9-3.55,3.75s-3.43,1.29-5.62,1.29
				C866.23,414.83,864.36,414.4,862.81,413.54z"/>
			<path class="st1" d="M885.7,385.02h4.12v29.51h-4.12V385.02z M888.13,410.69h8c2.1,0,3.63-0.4,4.59-1.2
				c0.96-0.8,1.44-1.92,1.44-3.37v-0.06c0-1-0.17-1.86-0.52-2.58c-0.35-0.72-0.89-1.27-1.63-1.65c-0.75-0.39-1.7-0.58-2.86-0.58
				h-9.01v-3.73h9.01c1.53,0,2.68-0.36,3.46-1.08c0.78-0.72,1.17-1.78,1.17-3.19c0-1.47-0.43-2.58-1.3-3.31
				c-0.87-0.73-2.17-1.1-3.9-1.1h-8.44v-3.84h9.19c1.91,0,3.5,0.32,4.79,0.97s2.25,1.57,2.88,2.76s0.95,2.61,0.95,4.26
				c0,1.01-0.2,1.97-0.59,2.85c-0.39,0.89-0.99,1.64-1.8,2.27s-1.8,1.05-2.99,1.27c1.19,0.18,2.22,0.6,3.08,1.27
				c0.87,0.67,1.53,1.51,1.99,2.51s0.69,2.08,0.69,3.25v0.06c0,1.6-0.35,3-1.06,4.22c-0.7,1.22-1.71,2.16-3.02,2.82
				c-1.31,0.66-2.84,0.99-4.59,0.99h-9.54V410.69z"/>
		</g>
	</g>
</g>
<g>
	<g>
		<g>
			<path class="st1" d="M686.37,511.87c-1.31-0.64-2.38-1.53-3.21-2.68l3.39-2.44c0.38,0.66,0.93,1.18,1.64,1.54
				c0.72,0.37,1.55,0.55,2.5,0.55c1.61,0,2.86-0.5,3.75-1.5c0.89-1,1.33-2.41,1.33-4.22v-20.11h4.14v20.13
				c0,2.04-0.36,3.79-1.08,5.24c-0.72,1.45-1.77,2.55-3.15,3.31s-3.04,1.14-4.99,1.14C689.13,512.83,687.69,512.51,686.37,511.87z"
				/>
			<path class="st1" d="M711.54,511.48c-1.57-0.9-2.78-2.17-3.64-3.82c-0.86-1.64-1.29-3.55-1.29-5.71v-8.36
				c0-2.17,0.43-4.07,1.29-5.71c0.86-1.64,2.07-2.92,3.64-3.82c1.57-0.9,3.38-1.35,5.44-1.35s3.87,0.45,5.44,1.35
				c1.57,0.9,2.78,2.17,3.64,3.82c0.86,1.64,1.29,3.55,1.29,5.71v8.36c0,2.17-0.43,4.07-1.29,5.71c-0.86,1.64-2.07,2.92-3.64,3.82
				c-1.57,0.9-3.38,1.35-5.44,1.35S713.11,512.38,711.54,511.48z M720.2,507.92c0.93-0.55,1.64-1.33,2.15-2.33
				c0.51-1.01,0.76-2.17,0.76-3.5v-8.65c0-1.33-0.25-2.49-0.76-3.5c-0.51-1.01-1.22-1.79-2.15-2.33s-2-0.82-3.22-0.82
				s-2.29,0.27-3.22,0.82s-1.64,1.33-2.15,2.33c-0.51,1.01-0.76,2.18-0.76,3.5v8.65c0,1.33,0.25,2.49,0.76,3.5
				c0.51,1.01,1.22,1.79,2.15,2.33c0.93,0.55,2,0.82,3.22,0.82S719.27,508.47,720.2,507.92z"/>
			<path class="st1" d="M734.05,483.01h3.75l14.43,22.81l-0.49,0.53v-23.34h4.1v29.49h-3.8l-14.39-22.47l0.49-0.53v23h-4.1V483.01z"
				/>
			<path class="st1" d="M771.19,483.01h3.53l10.88,29.51h-4.47l-8.18-23.81l-8.18,23.81h-4.47L771.19,483.01z M765.33,502.11h15.53
				v3.94h-15.53V502.11z"/>
			<path class="st1" d="M790.07,483.01h4.14v29.51h-4.14V483.01z M792.65,496.02h16.38v3.94h-16.38V496.02z M806.83,483.01h4.14
				v29.51h-4.14V483.01z"/>
		</g>
	</g>
</g>
<circle class="st2" cx="623.38" cy="499.78" r="37.73"/>
<circle class="st3" cx="623.38" cy="499.78" r="32.65"/>
<g>
	<g>
		<g>
			<path class="st1" d="M936.82,873.53c-2.65-1.47-4.67-3.61-6.06-6.43c-1.39-2.82-2.08-6.2-2.08-10.17v-32.25h7.09v32.49
				c0,3.68,0.93,6.53,2.78,8.55c1.85,2.02,4.47,3.02,7.85,3.02c3.41,0,6.04-1.01,7.91-3.02c1.86-2.02,2.8-4.87,2.8-8.55v-32.49h7.09
				v32.25c0,3.96-0.7,7.35-2.08,10.17c-1.39,2.81-3.42,4.96-6.08,6.43c-2.66,1.47-5.87,2.21-9.63,2.21
				C942.66,875.73,939.47,875,936.82,873.53z"/>
			<path class="st1" d="M984.27,875.04c-2.18-0.46-4.21-1.16-6.1-2.08c-1.89-0.93-3.65-2.08-5.3-3.48l4.41-5.42
				c1.92,1.67,4.04,2.92,6.36,3.75s4.83,1.25,7.54,1.25c3.66,0,6.5-0.68,8.51-2.03s3.02-3.27,3.02-5.75v-0.03
				c0-1.76-0.46-3.16-1.37-4.19c-0.92-1.03-2.1-1.79-3.54-2.29c-1.45-0.5-3.32-0.96-5.61-1.37c-0.07-0.02-0.14-0.04-0.23-0.04
				c-0.08,0-0.16-0.01-0.23-0.04l-0.52-0.1c-3.38-0.58-6.13-1.23-8.25-1.96s-3.93-2.06-5.44-4s-2.26-4.69-2.26-8.25v-0.03
				c0-3.13,0.7-5.8,2.1-8.01c1.4-2.21,3.45-3.9,6.13-5.06c2.69-1.16,5.92-1.74,9.7-1.74c1.81,0,3.58,0.2,5.33,0.59
				c1.75,0.39,3.48,0.98,5.18,1.75c1.7,0.78,3.38,1.75,5.02,2.94l-4.03,5.63c-1.92-1.41-3.84-2.47-5.75-3.18
				c-1.91-0.71-3.83-1.06-5.75-1.06c-3.45,0-6.13,0.69-8.04,2.07c-1.91,1.38-2.87,3.33-2.87,5.86v0.04c0,1.74,0.49,3.1,1.48,4.1
				c0.98,1,2.21,1.73,3.68,2.21c1.47,0.48,3.51,0.97,6.13,1.48c0.09,0.02,0.18,0.04,0.26,0.05c0.08,0.01,0.17,0.03,0.26,0.05
				c0.12,0.02,0.24,0.05,0.38,0.07c0.14,0.02,0.27,0.05,0.38,0.07c3.06,0.62,5.61,1.37,7.66,2.22c2.05,0.86,3.76,2.24,5.14,4.15
				c1.38,1.91,2.07,4.52,2.07,7.84v0.07c0,3.08-0.73,5.72-2.19,7.91c-1.46,2.19-3.57,3.86-6.34,5c-2.77,1.15-6.11,1.72-10.03,1.72
				C988.75,875.73,986.45,875.5,984.27,875.04z"/>
			<path class="st1" d="M1019.82,824.68h7.09v50.53h-7.09V824.68z M1023.26,824.68h29.02v6.74h-29.02V824.68z M1023.26,846.75h25.19
				v6.74h-25.19V846.75z M1023.26,868.47h29.02v6.74h-29.02V868.47z"/>
			<path class="st1" d="M1062.35,824.65h7.09v50.56h-7.09V824.65z M1065.45,847.1h17.24c1.34,0,2.54-0.32,3.58-0.97
				c1.04-0.65,1.85-1.57,2.42-2.76c0.57-1.19,0.85-2.57,0.85-4.12c0-1.55-0.28-2.92-0.85-4.12c-0.57-1.19-1.37-2.11-2.4-2.76
				c-1.03-0.65-2.23-0.97-3.6-0.97h-17.24v-6.74h16.96c2.92,0,5.48,0.6,7.7,1.81c2.21,1.21,3.93,2.91,5.14,5.13
				c1.22,2.21,1.82,4.77,1.82,7.66c0,2.9-0.61,5.45-1.84,7.66c-1.23,2.21-2.95,3.92-5.16,5.13c-2.21,1.21-4.77,1.81-7.66,1.81
				h-16.96V847.1z M1079.21,852.28l7.05-1.6l12.93,24.53h-8.41L1079.21,852.28z"/>
			<path class="st1" d="M1127.17,824.68h9.52v50.53h-9.52V824.68z M1131.34,866.04h16.12c2.18,0,3.86-0.53,5.06-1.58
				c1.19-1.05,1.79-2.53,1.79-4.43v-0.1c0-1.27-0.27-2.36-0.8-3.27c-0.53-0.9-1.32-1.59-2.35-2.07c-1.03-0.47-2.26-0.71-3.7-0.71
				h-16.12v-9.17h16.12c1.97,0,3.49-0.5,4.57-1.49s1.62-2.4,1.62-4.21c0-1.62-0.54-2.88-1.62-3.79c-1.08-0.9-2.6-1.36-4.57-1.36
				h-16.12v-9.17h16.44c3.27,0,6.06,0.54,8.38,1.62c2.32,1.08,4.08,2.64,5.28,4.69c1.2,2.05,1.81,4.51,1.81,7.38
				c0,1.97-0.39,3.71-1.16,5.23c-0.78,1.52-1.91,2.76-3.39,3.74c-1.48,0.97-3.27,1.63-5.35,1.98c2.22,0.3,4.13,0.98,5.72,2.03
				c1.59,1.05,2.79,2.43,3.61,4.12c0.82,1.69,1.23,3.65,1.23,5.87v0.1c0,2.9-0.61,5.38-1.82,7.44c-1.22,2.06-2.99,3.63-5.32,4.71
				c-2.33,1.08-5.12,1.62-8.39,1.62h-17.03V866.04z"/>
			<path class="st1" d="M1173.11,824.68h9.52v50.53h-9.52V824.68z M1177.35,866.04h29.61v9.17h-29.61V866.04z"/>
			<path class="st1" d="M1228.36,824.68h6.05l19.32,50.53h-10.25l-12.09-34.51l-12.09,34.51h-10.25L1228.36,824.68z M1218.32,857.94
				h26.58v9.17h-26.58V857.94z"/>
			<path class="st1" d="M1267.35,873.53c-2.73-1.47-4.82-3.61-6.26-6.43c-1.44-2.82-2.15-6.21-2.15-10.2v-13.87
				c0-3.98,0.72-7.38,2.15-10.2s3.52-4.96,6.26-6.45c2.73-1.48,6.02-2.22,9.87-2.22c3.17,0,6.01,0.68,8.51,2.05s4.57,3.35,6.2,5.96
				c1.63,2.61,2.76,5.75,3.39,9.43h-9.87c-0.37-1.67-0.94-3.09-1.72-4.27s-1.71-2.08-2.81-2.71c-1.1-0.63-2.33-0.94-3.7-0.94
				c-1.78,0-3.3,0.36-4.55,1.09c-1.25,0.73-2.21,1.79-2.87,3.2c-0.66,1.4-0.99,3.09-0.99,5.06v13.87c0,1.97,0.33,3.65,0.99,5.04
				c0.66,1.39,1.62,2.45,2.87,3.18c1.25,0.73,2.77,1.09,4.55,1.09c1.39,0,2.64-0.31,3.75-0.92c1.11-0.61,2.05-1.51,2.81-2.69
				c0.76-1.18,1.32-2.62,1.67-4.31h9.87c-0.65,3.68-1.79,6.83-3.42,9.43c-1.63,2.61-3.7,4.59-6.19,5.96
				c-2.49,1.37-5.32,2.05-8.5,2.05C1273.38,875.73,1270.08,875,1267.35,873.53z"/>
			<path class="st1" d="M1304.01,824.68h9.52v50.53h-9.52V824.68z M1309.75,855.47l20.26-30.79H1342l-31.03,43.16L1309.75,855.47z
				 M1318.16,849.63l8.2-5.18l17.76,30.75h-11.29L1318.16,849.63z"/>
			<path class="st1" d="M1349.68,824.68h9.52v50.53h-9.52V824.68z M1353.92,866.04h29.61v9.17h-29.61V866.04z"/>
			<path class="st1" d="M1399.65,875.21h-9.87v-50.53h9.87V875.21z"/>
			<path class="st1" d="M1418.88,875c-2.3-0.49-4.47-1.2-6.5-2.14s-3.84-2.07-5.44-3.39l4.41-7.85c1.95,1.6,4.19,2.83,6.74,3.7
				c2.55,0.87,5.17,1.3,7.85,1.3c3.1,0,5.51-0.53,7.23-1.58c1.71-1.05,2.57-2.54,2.57-4.46v-0.04c0-1.34-0.38-2.41-1.15-3.2
				c-0.76-0.79-1.76-1.37-2.99-1.74c-1.23-0.37-2.8-0.71-4.73-1.01c-0.07-0.02-0.13-0.04-0.19-0.04s-0.12-0.01-0.19-0.03l-0.76-0.1
				c-3.38-0.53-6.19-1.2-8.41-2c-2.22-0.8-4.11-2.2-5.66-4.21c-1.55-2-2.33-4.85-2.33-8.53v-0.04c0-3.27,0.73-6.06,2.19-8.38
				c1.46-2.32,3.58-4.08,6.36-5.3c2.78-1.22,6.14-1.83,10.08-1.83c1.81,0,3.65,0.21,5.54,0.63c1.89,0.42,3.74,1.02,5.54,1.81
				c1.81,0.79,3.52,1.74,5.14,2.85l-4.03,8.06c-1.95-1.34-3.98-2.39-6.1-3.13c-2.12-0.74-4.15-1.11-6.1-1.11
				c-2.92,0-5.18,0.48-6.78,1.44c-1.6,0.96-2.4,2.31-2.4,4.05v0.04c0,1.46,0.42,2.61,1.25,3.46s1.86,1.46,3.09,1.86
				c1.23,0.39,2.95,0.81,5.18,1.25c0.09,0.02,0.18,0.04,0.28,0.05s0.19,0.03,0.28,0.05c0.14,0.02,0.27,0.05,0.4,0.09
				c0.13,0.04,0.26,0.06,0.4,0.09c3.2,0.63,5.87,1.38,8.01,2.28c2.14,0.89,3.93,2.33,5.37,4.31c1.44,1.98,2.15,4.69,2.15,8.12v0.07
				c0,3.22-0.75,5.98-2.26,8.27s-3.7,4.04-6.58,5.25c-2.88,1.21-6.35,1.81-10.41,1.81C1423.55,875.73,1421.19,875.49,1418.88,875z"
				/>
			<path class="st1" d="M1446.95,824.68h37.04v9.17h-37.04V824.68z M1460.71,828.82h9.52v46.39h-9.52V828.82z"/>
		</g>
	</g>
</g>
<g>
	<g>
		<g>
			<path class="st1" d="M125.64,264.91c-2.65-1.47-4.67-3.61-6.06-6.43c-1.39-2.82-2.08-6.2-2.08-10.17v-32.25h7.09v32.49
				c0,3.68,0.93,6.53,2.78,8.55c1.85,2.02,4.47,3.02,7.85,3.02c3.41,0,6.04-1.01,7.91-3.02c1.86-2.02,2.8-4.87,2.8-8.55v-32.49H153
				v32.25c0,3.96-0.7,7.35-2.08,10.17c-1.39,2.81-3.42,4.96-6.08,6.43c-2.66,1.47-5.87,2.21-9.63,2.21
				C131.48,267.12,128.29,266.39,125.64,264.91z"/>
			<path class="st1" d="M173.09,266.43c-2.18-0.46-4.21-1.16-6.1-2.08c-1.89-0.93-3.65-2.08-5.3-3.48l4.41-5.42
				c1.92,1.67,4.04,2.92,6.36,3.75s4.83,1.25,7.54,1.25c3.66,0,6.5-0.68,8.51-2.03s3.02-3.27,3.02-5.75v-0.03
				c0-1.76-0.46-3.16-1.37-4.19c-0.92-1.03-2.1-1.79-3.54-2.29c-1.45-0.5-3.32-0.96-5.61-1.37c-0.07-0.02-0.14-0.04-0.23-0.04
				c-0.08,0-0.16-0.01-0.23-0.04l-0.52-0.1c-3.38-0.58-6.13-1.23-8.25-1.96s-3.93-2.06-5.44-4s-2.26-4.69-2.26-8.25v-0.03
				c0-3.13,0.7-5.8,2.1-8.01c1.4-2.21,3.45-3.9,6.13-5.06c2.69-1.16,5.92-1.74,9.7-1.74c1.81,0,3.58,0.2,5.33,0.59
				c1.75,0.39,3.48,0.98,5.18,1.75c1.7,0.78,3.38,1.75,5.02,2.94l-4.03,5.63c-1.92-1.41-3.84-2.47-5.75-3.18
				c-1.91-0.71-3.83-1.06-5.75-1.06c-3.45,0-6.13,0.69-8.04,2.07c-1.91,1.38-2.87,3.33-2.87,5.86v0.04c0,1.74,0.49,3.1,1.48,4.1
				c0.98,1,2.21,1.73,3.68,2.21c1.47,0.48,3.51,0.97,6.13,1.48c0.09,0.02,0.18,0.04,0.26,0.05c0.08,0.01,0.17,0.03,0.26,0.05
				c0.12,0.02,0.24,0.05,0.38,0.07c0.14,0.02,0.27,0.05,0.38,0.07c3.06,0.62,5.61,1.37,7.66,2.22c2.05,0.86,3.76,2.24,5.14,4.15
				c1.38,1.91,2.07,4.52,2.07,7.84v0.07c0,3.08-0.73,5.72-2.19,7.91c-1.46,2.19-3.57,3.86-6.34,5c-2.77,1.15-6.11,1.72-10.03,1.72
				C177.57,267.12,175.27,266.89,173.09,266.43z"/>
			<path class="st1" d="M208.64,216.07h7.09v50.53h-7.09V216.07z M212.08,216.07h29.02v6.74h-29.02V216.07z M212.08,238.14h25.19
				v6.74h-25.19V238.14z M212.08,259.86h29.02v6.74h-29.02V259.86z"/>
			<path class="st1" d="M251.18,216.04h7.09v50.56h-7.09V216.04z M254.27,238.49h17.24c1.34,0,2.54-0.32,3.58-0.97
				c1.04-0.65,1.85-1.57,2.42-2.76c0.57-1.19,0.85-2.57,0.85-4.12c0-1.55-0.28-2.92-0.85-4.12c-0.57-1.19-1.37-2.11-2.4-2.76
				c-1.03-0.65-2.23-0.97-3.6-0.97h-17.24v-6.74h16.96c2.92,0,5.48,0.6,7.7,1.81c2.21,1.21,3.93,2.91,5.14,5.13
				c1.22,2.21,1.82,4.77,1.82,7.66c0,2.9-0.61,5.45-1.84,7.66c-1.23,2.21-2.95,3.92-5.16,5.13c-2.21,1.21-4.77,1.81-7.66,1.81
				h-16.96V238.49z M268.03,243.66l7.05-1.6l12.93,24.53h-8.41L268.03,243.66z"/>
			<path class="st1" d="M336.73,216.07h7.65l9.66,33.71l6.5-33.71h9.8L358.7,266.6h-8.97l-8.97-35.31l-9.38,35.31h-8.97
				l-11.64-50.53h9.8l6.5,33.71L336.73,216.07z"/>
			<path class="st1" d="M376.25,216.07h9.52v50.53h-9.52V216.07z M380.66,236.96h29.43v9.17h-29.43V236.96z M403.91,216.07h9.52
				v50.53h-9.52V216.07z"/>
			<path class="st1" d="M433.72,266.6h-9.87v-50.53h9.87V266.6z"/>
			<path class="st1" d="M437.2,216.07h37.04v9.17H437.2V216.07z M450.96,220.21h9.52v46.39h-9.52V220.21z"/>
			<path class="st1" d="M478.41,216.07h9.52v50.53h-9.52V216.07z M481.85,216.07h30.41v9.17h-30.41V216.07z M481.85,236.92h26.58
				v9.17h-26.58V236.92z M481.85,257.43h30.41v9.17h-30.41V257.43z"/>
			<path class="st1" d="M520.95,216.07h9.52v50.53h-9.52V216.07z M525.19,257.43h29.61v9.17h-29.61V257.43z"/>
			<path class="st1" d="M570.92,266.6h-9.87v-50.53h9.87V266.6z"/>
			<path class="st1" d="M590.16,266.39c-2.3-0.49-4.47-1.2-6.5-2.14s-3.84-2.07-5.44-3.39l4.41-7.85c1.95,1.6,4.19,2.83,6.74,3.7
				c2.55,0.87,5.17,1.3,7.85,1.3c3.1,0,5.51-0.53,7.23-1.58c1.71-1.05,2.57-2.54,2.57-4.46v-0.04c0-1.34-0.38-2.41-1.15-3.2
				c-0.76-0.79-1.76-1.37-2.99-1.74c-1.23-0.37-2.8-0.71-4.73-1.01c-0.07-0.02-0.13-0.04-0.19-0.04s-0.12-0.01-0.19-0.03l-0.76-0.1
				c-3.38-0.53-6.19-1.2-8.41-2c-2.22-0.8-4.11-2.2-5.66-4.21c-1.55-2-2.33-4.85-2.33-8.53v-0.04c0-3.27,0.73-6.06,2.19-8.38
				c1.46-2.32,3.58-4.08,6.36-5.3c2.78-1.22,6.14-1.83,10.08-1.83c1.81,0,3.65,0.21,5.54,0.63c1.89,0.42,3.74,1.02,5.54,1.81
				c1.81,0.79,3.52,1.74,5.14,2.85l-4.03,8.06c-1.95-1.34-3.98-2.39-6.1-3.13c-2.12-0.74-4.15-1.11-6.1-1.11
				c-2.92,0-5.18,0.48-6.78,1.44c-1.6,0.96-2.4,2.31-2.4,4.05v0.04c0,1.46,0.42,2.61,1.25,3.46s1.86,1.46,3.09,1.86
				c1.23,0.39,2.95,0.81,5.18,1.25c0.09,0.02,0.18,0.04,0.28,0.05s0.19,0.03,0.28,0.05c0.14,0.02,0.27,0.05,0.4,0.09
				c0.13,0.04,0.26,0.06,0.4,0.09c3.2,0.63,5.87,1.38,8.01,2.28c2.14,0.89,3.93,2.33,5.37,4.31c1.44,1.98,2.15,4.69,2.15,8.12v0.07
				c0,3.22-0.75,5.98-2.26,8.27s-3.7,4.04-6.58,5.25c-2.88,1.21-6.35,1.81-10.41,1.81C594.82,267.12,592.46,266.88,590.16,266.39z"
				/>
			<path class="st1" d="M618.22,216.07h37.04v9.17h-37.04V216.07z M631.98,220.21h9.52v46.39h-9.52V220.21z"/>
		</g>
	</g>
</g>
<g>
	<g>
		<g>
			<path class="st1" d="M261.91,852.33c-2.65-1.47-4.67-3.61-6.06-6.43c-1.39-2.82-2.08-6.2-2.08-10.17v-32.25h7.09v32.49
				c0,3.68,0.93,6.53,2.78,8.55c1.85,2.02,4.47,3.02,7.85,3.02c3.41,0,6.04-1.01,7.91-3.02c1.86-2.02,2.8-4.87,2.8-8.55v-32.49h7.09
				v32.25c0,3.96-0.7,7.35-2.08,10.17c-1.39,2.81-3.42,4.96-6.08,6.43c-2.66,1.47-5.87,2.21-9.63,2.21
				C267.75,854.54,264.56,853.8,261.91,852.33z"/>
			<path class="st1" d="M309.36,853.84c-2.18-0.46-4.21-1.16-6.1-2.08c-1.89-0.93-3.65-2.08-5.3-3.48l4.41-5.42
				c1.92,1.67,4.04,2.92,6.36,3.75s4.83,1.25,7.54,1.25c3.66,0,6.5-0.68,8.51-2.03s3.02-3.27,3.02-5.75v-0.03
				c0-1.76-0.46-3.16-1.37-4.19c-0.92-1.03-2.1-1.79-3.54-2.29c-1.45-0.5-3.32-0.96-5.61-1.37c-0.07-0.02-0.14-0.04-0.23-0.04
				c-0.08,0-0.16-0.01-0.23-0.04l-0.52-0.1c-3.38-0.58-6.13-1.23-8.25-1.96s-3.93-2.06-5.44-4s-2.26-4.69-2.26-8.25v-0.03
				c0-3.13,0.7-5.8,2.1-8.01c1.4-2.21,3.45-3.9,6.13-5.06c2.69-1.16,5.92-1.74,9.7-1.74c1.81,0,3.58,0.2,5.33,0.59
				c1.75,0.39,3.48,0.98,5.18,1.75c1.7,0.78,3.38,1.75,5.02,2.94l-4.03,5.63c-1.92-1.41-3.84-2.47-5.75-3.18
				c-1.91-0.71-3.83-1.06-5.75-1.06c-3.45,0-6.13,0.69-8.04,2.07c-1.91,1.38-2.87,3.33-2.87,5.86v0.04c0,1.74,0.49,3.1,1.48,4.1
				c0.98,1,2.21,1.73,3.68,2.21c1.47,0.48,3.51,0.97,6.13,1.48c0.09,0.02,0.18,0.04,0.26,0.05c0.08,0.01,0.17,0.03,0.26,0.05
				c0.12,0.02,0.24,0.05,0.38,0.07c0.14,0.02,0.27,0.05,0.38,0.07c3.06,0.62,5.61,1.37,7.66,2.22c2.05,0.86,3.76,2.24,5.14,4.15
				c1.38,1.91,2.07,4.52,2.07,7.84v0.07c0,3.08-0.73,5.72-2.19,7.91c-1.46,2.19-3.57,3.86-6.34,5c-2.77,1.15-6.11,1.72-10.03,1.72
				C313.85,854.54,311.54,854.31,309.36,853.84z"/>
			<path class="st1" d="M344.91,803.49H352v50.53h-7.09V803.49z M348.35,803.49h29.02v6.74h-29.02V803.49z M348.35,825.56h25.19
				v6.74h-25.19V825.56z M348.35,847.28h29.02v6.74h-29.02V847.28z"/>
			<path class="st1" d="M387.45,803.46h7.09v50.56h-7.09V803.46z M390.54,825.91h17.24c1.34,0,2.54-0.32,3.58-0.97
				c1.04-0.65,1.85-1.57,2.42-2.76c0.57-1.19,0.85-2.57,0.85-4.12c0-1.55-0.28-2.92-0.85-4.12c-0.57-1.19-1.37-2.11-2.4-2.76
				c-1.03-0.65-2.23-0.97-3.6-0.97h-17.24v-6.74h16.96c2.92,0,5.48,0.6,7.7,1.81c2.21,1.21,3.93,2.91,5.14,5.13
				c1.22,2.21,1.82,4.77,1.82,7.66c0,2.9-0.61,5.45-1.84,7.66c-1.23,2.21-2.95,3.92-5.16,5.13c-2.21,1.21-4.77,1.81-7.66,1.81
				h-16.96V825.91z M404.3,831.08l7.05-1.6l12.93,24.53h-8.41L404.3,831.08z"/>
			<path class="st1" d="M452.26,803.49h9.52v50.53h-9.52V803.49z M457.99,834.28l20.26-30.79h11.99l-31.03,43.16L457.99,834.28z
				 M466.4,828.44l8.2-5.18l17.76,30.75h-11.29L466.4,828.44z"/>
			<path class="st1" d="M507.1,854.02h-9.87v-50.53h9.87V854.02z"/>
			<path class="st1" d="M524.89,852.33c-2.73-1.47-4.82-3.61-6.26-6.43c-1.44-2.82-2.15-6.21-2.15-10.2v-13.87
				c0-3.98,0.72-7.38,2.15-10.2s3.52-4.96,6.26-6.45c2.73-1.48,6.02-2.22,9.87-2.22c3.17,0,6.01,0.68,8.51,2.05s4.57,3.35,6.2,5.96
				c1.63,2.61,2.76,5.75,3.39,9.43H543c-0.37-1.67-0.94-3.09-1.72-4.27s-1.71-2.08-2.81-2.71c-1.1-0.63-2.33-0.94-3.7-0.94
				c-1.78,0-3.3,0.36-4.55,1.09c-1.25,0.73-2.21,1.79-2.87,3.2c-0.66,1.4-0.99,3.09-0.99,5.06v13.87c0,1.97,0.33,3.65,0.99,5.04
				c0.66,1.39,1.62,2.45,2.87,3.18c1.25,0.73,2.77,1.09,4.55,1.09c1.39,0,2.64-0.31,3.75-0.92c1.11-0.61,2.05-1.51,2.81-2.69
				c0.76-1.18,1.32-2.62,1.67-4.31h9.87c-0.65,3.68-1.79,6.83-3.42,9.43c-1.63,2.61-3.7,4.59-6.19,5.96
				c-2.49,1.37-5.32,2.05-8.5,2.05C530.91,854.54,527.62,853.8,524.89,852.33z"/>
			<path class="st1" d="M561.55,803.49h9.52v50.53h-9.52V803.49z M567.29,834.28l20.26-30.79h11.99l-31.03,43.16L567.29,834.28z
				 M575.7,828.44l8.2-5.18l17.76,30.75h-11.29L575.7,828.44z"/>
		</g>
	</g>
</g>
<g>
	<g>
		<g>
			<path class="st1" d="M999.97,297.83c-2.65-1.47-4.67-3.61-6.06-6.43c-1.39-2.82-2.08-6.2-2.08-10.17v-32.25h7.09v32.49
				c0,3.68,0.93,6.53,2.78,8.55c1.85,2.02,4.47,3.02,7.85,3.02c3.41,0,6.04-1.01,7.91-3.02c1.86-2.02,2.8-4.87,2.8-8.55v-32.49h7.09
				v32.25c0,3.96-0.7,7.35-2.08,10.17c-1.39,2.81-3.42,4.96-6.08,6.43c-2.66,1.47-5.87,2.21-9.63,2.21
				C1005.81,300.04,1002.62,299.3,999.97,297.83z"/>
			<path class="st1" d="M1047.42,299.34c-2.18-0.46-4.21-1.16-6.1-2.08c-1.89-0.93-3.65-2.08-5.3-3.48l4.41-5.42
				c1.92,1.67,4.04,2.92,6.36,3.75s4.83,1.25,7.54,1.25c3.66,0,6.5-0.68,8.51-2.03s3.02-3.27,3.02-5.75v-0.03
				c0-1.76-0.46-3.16-1.37-4.19c-0.92-1.03-2.1-1.79-3.54-2.29c-1.45-0.5-3.32-0.96-5.61-1.37c-0.07-0.02-0.14-0.04-0.23-0.04
				c-0.08,0-0.16-0.01-0.23-0.04l-0.52-0.1c-3.38-0.58-6.13-1.23-8.25-1.96s-3.93-2.06-5.44-4s-2.26-4.69-2.26-8.25v-0.03
				c0-3.13,0.7-5.8,2.1-8.01c1.4-2.21,3.45-3.9,6.13-5.06c2.69-1.16,5.92-1.74,9.7-1.74c1.81,0,3.58,0.2,5.33,0.59
				c1.75,0.39,3.48,0.98,5.18,1.75c1.7,0.78,3.38,1.75,5.02,2.94l-4.03,5.63c-1.92-1.41-3.84-2.47-5.75-3.18
				c-1.91-0.71-3.83-1.06-5.75-1.06c-3.45,0-6.13,0.69-8.04,2.07c-1.91,1.38-2.87,3.33-2.87,5.86v0.04c0,1.74,0.49,3.1,1.48,4.1
				c0.98,1,2.21,1.73,3.68,2.21c1.47,0.48,3.51,0.97,6.13,1.48c0.09,0.02,0.18,0.04,0.26,0.05c0.08,0.01,0.17,0.03,0.26,0.05
				c0.12,0.02,0.24,0.05,0.38,0.07c0.14,0.02,0.27,0.05,0.38,0.07c3.06,0.62,5.61,1.37,7.66,2.22c2.05,0.86,3.76,2.24,5.14,4.15
				c1.38,1.91,2.07,4.52,2.07,7.84v0.07c0,3.08-0.73,5.72-2.19,7.91c-1.46,2.19-3.57,3.86-6.34,5c-2.77,1.15-6.11,1.72-10.03,1.72
				C1051.9,300.04,1049.6,299.81,1047.42,299.34z"/>
			<path class="st1" d="M1082.97,248.99h7.09v50.53h-7.09V248.99z M1086.41,248.99h29.02v6.74h-29.02V248.99z M1086.41,271.06h25.19
				v6.74h-25.19V271.06z M1086.41,292.77h29.02v6.74h-29.02V292.77z"/>
			<path class="st1" d="M1125.5,248.95h7.09v50.56h-7.09V248.95z M1128.6,271.4h17.24c1.34,0,2.54-0.32,3.58-0.97
				c1.04-0.65,1.85-1.57,2.42-2.76c0.57-1.19,0.85-2.57,0.85-4.12c0-1.55-0.28-2.92-0.85-4.12c-0.57-1.19-1.37-2.11-2.4-2.76
				c-1.03-0.65-2.23-0.97-3.6-0.97h-17.24v-6.74h16.96c2.92,0,5.48,0.6,7.7,1.81c2.21,1.21,3.93,2.91,5.14,5.13
				c1.22,2.21,1.82,4.77,1.82,7.66c0,2.9-0.61,5.45-1.84,7.66c-1.23,2.21-2.95,3.92-5.16,5.13c-2.21,1.21-4.77,1.81-7.66,1.81
				h-16.96V271.4z M1142.36,276.58l7.05-1.6l12.93,24.53h-8.41L1142.36,276.58z"/>
			<path class="st1" d="M1199.49,299.52h-9.87v-50.53h9.87V299.52z"/>
			<path class="st1" d="M1209.92,248.99h11.64l18.8,38.71l-0.83,0.9v-39.62h9.1v50.49h-11.71l-18.73-38.12l0.83-0.9v39.03h-9.1
				V248.99z"/>
			<path class="st1" d="M1254.54,248.99h9.8l10.74,33.71l10.74-33.71h9.8l-16.82,50.53h-7.44L1254.54,248.99z"/>
			<path class="st1" d="M1310.69,299.52h-9.87v-50.53h9.87V299.52z"/>
			<path class="st1" d="M1314.17,248.99h37.04v9.17h-37.04V248.99z M1327.93,253.12h9.52v46.39h-9.52V253.12z"/>
			<path class="st1" d="M1355.38,248.99h9.52v50.53h-9.52V248.99z M1358.82,248.99h30.41v9.17h-30.41V248.99z M1358.82,269.84h26.58
				v9.17h-26.58V269.84z M1358.82,290.34h30.41v9.17h-30.41V290.34z"/>
		</g>
	</g>
</g>
<g>
	<g>
		<g>
			<path class="st1" d="M682.76,583.16h20.82v3.94h-20.82V583.16z M691.1,585.57h4.14v27.1h-4.14V585.57z"/>
			<path class="st1" d="M711.16,611.62c-1.57-0.9-2.78-2.17-3.64-3.82c-0.86-1.64-1.29-3.55-1.29-5.71v-8.36
				c0-2.17,0.43-4.07,1.29-5.71c0.86-1.64,2.07-2.92,3.64-3.82c1.57-0.9,3.38-1.35,5.44-1.35s3.87,0.45,5.44,1.35
				c1.57,0.9,2.78,2.17,3.64,3.82c0.86,1.64,1.29,3.55,1.29,5.71v8.36c0,2.17-0.43,4.07-1.29,5.71c-0.86,1.64-2.07,2.92-3.64,3.82
				c-1.57,0.9-3.38,1.35-5.44,1.35S712.73,612.52,711.16,611.62z M719.81,608.07c0.93-0.55,1.64-1.33,2.15-2.33
				c0.51-1.01,0.76-2.17,0.76-3.5v-8.65c0-1.33-0.25-2.49-0.76-3.5c-0.51-1.01-1.22-1.79-2.15-2.33s-2-0.82-3.22-0.82
				s-2.29,0.27-3.22,0.82s-1.64,1.33-2.15,2.33c-0.51,1.01-0.76,2.18-0.76,3.5v8.65c0,1.33,0.25,2.49,0.76,3.5
				c0.51,1.01,1.22,1.79,2.15,2.33c0.93,0.55,2,0.82,3.22,0.82S718.89,608.62,719.81,608.07z"/>
			<path class="st1" d="M733.67,583.16h4.12v29.51h-4.12V583.16z M736.1,608.83h8c2.1,0,3.63-0.4,4.59-1.2
				c0.96-0.8,1.44-1.92,1.44-3.37v-0.06c0-1-0.17-1.86-0.52-2.58c-0.35-0.72-0.89-1.27-1.63-1.65c-0.75-0.39-1.7-0.58-2.86-0.58
				h-9.01v-3.73h9.01c1.53,0,2.68-0.36,3.46-1.08c0.78-0.72,1.17-1.78,1.17-3.19c0-1.47-0.43-2.58-1.3-3.31
				c-0.87-0.73-2.17-1.1-3.9-1.1h-8.44v-3.84h9.19c1.91,0,3.5,0.32,4.79,0.97s2.25,1.57,2.88,2.76s0.95,2.61,0.95,4.26
				c0,1.01-0.2,1.97-0.59,2.85c-0.39,0.89-0.99,1.64-1.8,2.27s-1.8,1.05-2.99,1.27c1.19,0.18,2.22,0.6,3.08,1.27
				c0.87,0.67,1.53,1.51,1.99,2.51s0.69,2.08,0.69,3.25v0.06c0,1.6-0.35,3-1.06,4.22c-0.7,1.22-1.71,2.16-3.02,2.82
				c-1.31,0.66-2.84,0.99-4.59,0.99h-9.54V608.83z"/>
			<path class="st1" d="M764.64,612.67h-4.14v-29.51h4.14V612.67z"/>
			<path class="st1" d="M779.98,583.16h3.53l10.88,29.51h-4.47l-8.18-23.81l-8.18,23.81h-4.47L779.98,583.16z M774.12,602.26h15.53
				v3.94h-15.53V602.26z"/>
			<path class="st1" d="M803.69,612.57c-1.27-0.27-2.46-0.68-3.56-1.22s-2.13-1.22-3.09-2.03l2.58-3.17
				c1.12,0.97,2.36,1.71,3.71,2.19c1.35,0.49,2.82,0.73,4.41,0.73c2.14,0,3.79-0.4,4.97-1.19c1.18-0.79,1.77-1.91,1.77-3.36v-0.02
				c0-1.03-0.27-1.84-0.8-2.45c-0.54-0.6-1.22-1.05-2.07-1.34s-1.94-0.56-3.28-0.8c-0.04-0.01-0.08-0.02-0.13-0.02
				s-0.09-0.01-0.13-0.02l-0.3-0.06c-1.98-0.34-3.58-0.72-4.82-1.15c-1.24-0.43-2.3-1.2-3.18-2.33c-0.88-1.13-1.32-2.74-1.32-4.82
				v-0.02c0-1.83,0.41-3.39,1.23-4.68s2.01-2.28,3.58-2.95c1.57-0.68,3.46-1.01,5.66-1.01c1.06,0,2.09,0.12,3.12,0.34
				c1.02,0.23,2.03,0.57,3.02,1.03s1.97,1.02,2.93,1.71l-2.35,3.29c-1.12-0.83-2.24-1.44-3.36-1.86c-1.12-0.41-2.24-0.62-3.36-0.62
				c-2.02,0-3.58,0.4-4.7,1.21c-1.12,0.8-1.67,1.95-1.67,3.42v0.02c0,1.01,0.29,1.81,0.86,2.39c0.58,0.58,1.29,1.01,2.15,1.29
				s2.05,0.57,3.58,0.86c0.05,0.01,0.1,0.02,0.15,0.03c0.05,0.01,0.1,0.02,0.15,0.03c0.07,0.01,0.14,0.03,0.22,0.04
				c0.08,0.01,0.16,0.03,0.22,0.04c1.79,0.37,3.28,0.8,4.47,1.3c1.2,0.5,2.2,1.31,3,2.43c0.81,1.12,1.21,2.64,1.21,4.58v0.04
				c0,1.8-0.43,3.34-1.28,4.62s-2.09,2.25-3.7,2.92c-1.62,0.67-3.57,1-5.86,1C806.31,612.97,804.96,612.84,803.69,612.57z"/>
		</g>
	</g>
</g>
<circle class="st5" cx="623.38" cy="596.73" r="32.65"/>
</svg>
