<?xml version="1.0" encoding="utf-8"?>
<!-- Generator: Adobe Illustrator 25.0.0, SVG Export Plug-In . SVG Version: 6.00 Build 0)  -->
<svg version="1.1" id="Layer_1" xmlns="http://www.w3.org/2000/svg" xmlns:xlink="http://www.w3.org/1999/xlink" x="0px" y="0px"
	 viewBox="0 0 1603.26 1603.26" style="enable-background:new 0 0 1603.26 1603.26;" xml:space="preserve">
<style type="text/css">
	.st0{fill:#2F3136;}
	.st1{fill:#72767D;}
	.st2{fill:#4FDC7C;}
	.st3{fill:#5764F4;}
	.st4{fill:#FEE75C;}
	.st5{fill:#EB459E;}
	.st6{fill:#FFFFFF;}
	.st7{fill:#57F287;}
</style>
<path class="st0" d="M732.85,472.52h-625.7c-12.79,0-23.15-10.37-23.15-23.15v0c0-12.79,10.37-23.15,23.15-23.15h625.7
	c12.79,0,23.15,10.37,23.15,23.15v0C756,462.16,745.63,472.52,732.85,472.52z"/>
<path class="st0" d="M716.38,725.56H123.61c-21.88,0-39.61-17.74-39.61-39.61V538.27c0-21.88,17.74-39.61,39.61-39.61h592.77
	c21.88,0,39.61,17.74,39.61,39.61v147.68C756,707.83,738.26,725.56,716.38,725.56z"/>
<path class="st1" d="M146.77,544.34c1.93,1.96,4.36,3.44,7.09,4.23c0.09,0.62,0.13,1.24,0.13,1.89c0,4.01-1.72,7.61-4.45,10.1
	c-1.22,1.12-3.19,0.26-3.19-1.39V543.9C146.49,544.05,146.63,544.2,146.77,544.34z"/>
<path class="st1" d="M148.79,537.14l-4.71-4.7h3.63c0-0.67,0.06-1.33,0.18-1.97c0.38-2.09,1.36-3.97,2.76-5.46
	c2.1-2.24,5.12-3.59,8.46-3.44c5.58,0.26,10.1,4.78,10.36,10.36c0.16,3.41-1.25,6.49-3.57,8.59c-1.52,1.37-3.42,2.32-5.53,2.67
	c-0.58,0.09-1.17,0.14-1.77,0.14c-3.01,0-5.72-1.22-7.69-3.19l1.72-1.72c1.52,1.53,3.64,2.49,5.97,2.49c0.26,0,0.52-0.01,0.78-0.04
	c2.16-0.2,4.09-1.21,5.47-2.72c1.44-1.58,2.29-3.71,2.21-6.04c-0.16-4.39-3.74-7.97-8.13-8.13c-2.28-0.09-4.36,0.73-5.93,2.11
	c-1.53,1.36-2.57,3.26-2.81,5.41c-0.04,0.31-0.05,0.62-0.05,0.94h3.63l-0.81,0.8l-4.08,4.07L148.79,537.14z"/>
<polygon class="st1" points="159.2,532.61 162.83,534.76 163.46,535.13 163.28,535.43 162.53,536.69 157.39,533.65 157.39,527.6 
	159.2,527.6 "/>
<path class="st1" d="M167.48,546.55c0.18,1.27,0.27,2.58,0.27,3.9c0,12.18-7.92,22.5-18.9,26.11c-1.23,0.41-2.5-0.51-2.5-1.8v-2.43
	c0-0.79,0.49-1.5,1.23-1.77c8.19-3,14.05-10.87,14.05-20.1c0-0.51-0.02-1.02-0.06-1.53C163.73,548.52,165.72,547.7,167.48,546.55z"
	/>
<path class="st1" d="M167.48,546.55c-1.76,1.15-3.75,1.97-5.9,2.37c0.04,0.5,0.06,1.01,0.06,1.53c0,9.23-5.85,17.1-14.05,20.1
	c-0.74,0.27-1.23,0.98-1.23,1.77v2.43c0,1.3,1.27,2.21,2.5,1.8c10.98-3.61,18.9-13.94,18.9-26.11
	C167.75,549.13,167.66,547.83,167.48,546.55z M160.37,543.18c2.11-0.35,4.01-1.3,5.53-2.67c-0.31-0.81-0.66-1.59-1.05-2.36
	c-1.38,1.51-3.31,2.52-5.47,2.72C159.75,541.61,160.08,542.38,160.37,543.18z M163.28,535.43c-0.14-0.22-0.29-0.44-0.45-0.66
	l-3.64-2.16v-2.07c-0.58-0.55-1.18-1.08-1.81-1.58v4.69l5.14,3.05L163.28,535.43z M152.95,533.24l0.81-0.8h-1.97
	C152.19,532.69,152.57,532.96,152.95,533.24z M152.99,526.09c-0.76-0.4-1.54-0.76-2.34-1.09c-1.39,1.49-2.37,3.37-2.76,5.46
	c0.79,0.3,1.55,0.65,2.29,1.03C150.42,529.35,151.45,527.44,152.99,526.09z M153.87,548.57c-2.73-0.79-5.17-2.27-7.09-4.23
	c-0.14-0.14-0.28-0.29-0.42-0.44v15.26c0,1.66,1.97,2.51,3.19,1.39c2.73-2.5,4.45-6.09,4.45-10.1
	C154,549.81,153.95,549.18,153.87,548.57z M137,529.24l-11.48,11.48c-0.36,0.36-0.84,0.56-1.34,0.56h-9.54c-1.05,0-1.9,0.85-1.9,1.9
	v14.54c0,1.05,0.85,1.9,1.9,1.9h9.54c0.5,0,0.99,0.2,1.34,0.56L137,571.66c1.2,1.2,3.24,0.35,3.24-1.35v-39.73
	C140.24,528.89,138.2,528.05,137,529.24z"/>
<polygon class="st1" points="159.2,532.61 162.83,534.76 163.46,535.13 163.28,535.43 162.53,536.69 157.39,533.65 157.39,527.6 
	159.2,527.6 "/>
<path class="st1" d="M165.9,540.51c-1.52,1.37-3.42,2.32-5.53,2.67c-0.58,0.09-1.17,0.14-1.77,0.14c-3.01,0-5.72-1.22-7.69-3.19
	l1.72-1.72c1.52,1.53,3.64,2.49,5.97,2.49c0.26,0,0.52-0.01,0.78-0.04c2.16-0.2,4.09-1.21,5.47-2.72c1.44-1.58,2.29-3.71,2.21-6.04
	c-0.16-4.39-3.74-7.97-8.13-8.13c-2.28-0.09-4.36,0.73-5.93,2.11c-1.53,1.36-2.57,3.26-2.81,5.41c-0.04,0.31-0.05,0.62-0.05,0.94
	h3.63l-0.81,0.8l-4.08,4.07l-0.08-0.17l-4.71-4.7h3.63c0-0.67,0.06-1.33,0.18-1.97c0.38-2.09,1.36-3.97,2.76-5.46
	c2.1-2.24,5.12-3.59,8.46-3.44c5.58,0.26,10.1,4.78,10.36,10.36C169.62,535.33,168.21,538.41,165.9,540.51z"/>
<path class="st1" d="M146.36,543.9c0.14,0.15,0.27,0.29,0.42,0.44h-0.42V543.9z"/>
<polygon class="st1" points="159.2,532.61 162.83,534.76 163.46,535.13 163.28,535.43 162.53,536.69 157.39,533.65 157.39,527.6 
	159.2,527.6 "/>
<path class="st1" d="M165.9,540.51c-1.52,1.37-3.42,2.32-5.53,2.67c-0.58,0.09-1.17,0.14-1.77,0.14c-3.01,0-5.72-1.22-7.69-3.19
	l1.72-1.72c1.52,1.53,3.64,2.49,5.97,2.49c0.26,0,0.52-0.01,0.78-0.04c2.16-0.2,4.09-1.21,5.47-2.72c1.44-1.58,2.29-3.71,2.21-6.04
	c-0.16-4.39-3.74-7.97-8.13-8.13c-2.28-0.09-4.36,0.73-5.93,2.11c-1.53,1.36-2.57,3.26-2.81,5.41c-0.04,0.31-0.05,0.62-0.05,0.94
	h3.63l-0.81,0.8l-4.08,4.07l-0.08-0.17l-4.71-4.7h3.63c0-0.67,0.06-1.33,0.18-1.97c0.38-2.09,1.36-3.97,2.76-5.46
	c2.1-2.24,5.12-3.59,8.46-3.44c5.58,0.26,10.1,4.78,10.36,10.36C169.62,535.33,168.21,538.41,165.9,540.51z"/>
<path class="st1" d="M162.83,534.76l-3.64-2.16v-5.01h-1.81v6.05l5.14,3.05l0.76-1.27l0.18-0.29L162.83,534.76z M169.47,531.92
	c-0.26-5.58-4.78-10.1-10.36-10.36c-3.34-0.15-6.37,1.2-8.46,3.44c-1.39,1.49-2.37,3.37-2.76,5.46c-0.12,0.64-0.18,1.3-0.18,1.97
	h-3.63l4.71,4.7l0.08,0.17l4.08-4.07l0.81-0.8h-3.63c0-0.32,0.02-0.63,0.05-0.94c0.24-2.15,1.28-4.05,2.81-5.41
	c1.57-1.39,3.65-2.2,5.93-2.11c4.39,0.16,7.97,3.74,8.13,8.13c0.09,2.33-0.76,4.46-2.21,6.04c-1.38,1.51-3.31,2.52-5.47,2.72
	c-0.26,0.02-0.52,0.04-0.78,0.04c-2.33,0-4.45-0.96-5.97-2.49l-1.72,1.72c1.97,1.97,4.68,3.19,7.69,3.19c0.6,0,1.2-0.05,1.77-0.14
	c2.11-0.35,4.01-1.3,5.53-2.67C168.21,538.41,169.62,535.33,169.47,531.92z M162.83,534.76c0.15,0.22,0.3,0.44,0.45,0.66l0.18-0.29
	L162.83,534.76z M159.2,527.6h-1.81v1.36c0.63,0.5,1.23,1.03,1.81,1.58V527.6z"/>
<g>
	<g>
		<g>
			<path class="st1" d="M194.38,535.22h20.82v3.94h-20.82V535.22z M202.72,537.63h4.14v27.1h-4.14V537.63z"/>
			<path class="st1" d="M218.45,535.22h4.14v29.51h-4.14V535.22z M220.46,535.22h16.95v3.94h-16.95V535.22z M220.46,548.1h14.71
				v3.94h-14.71V548.1z M220.46,560.79h16.95v3.94h-16.95V560.79z"/>
			<path class="st1" d="M264.5,535.22h3.88v29.51h-4.04v-22.1l0.2,1.3l-7.27,16.7h-2.88l-7.27-16.3l0.2-1.7v22.1h-4.04v-29.51h3.88
				l8.67,19.48L264.5,535.22z"/>
			<path class="st1" d="M275.69,535.22h4.14v29.51h-4.14V535.22z M277.82,549.34h9.44c0.89,0,1.68-0.21,2.35-0.63
				c0.68-0.42,1.2-1.02,1.57-1.79c0.37-0.77,0.56-1.66,0.56-2.66c0-1.01-0.19-1.91-0.56-2.68c-0.37-0.77-0.9-1.37-1.57-1.8
				c-0.68-0.43-1.46-0.64-2.35-0.64h-9.44v-3.94h9.3c1.76,0,3.31,0.38,4.65,1.13c1.34,0.75,2.38,1.81,3.12,3.18
				c0.74,1.37,1.11,2.95,1.11,4.75s-0.37,3.38-1.11,4.74c-0.74,1.36-1.78,2.41-3.12,3.16c-1.34,0.74-2.89,1.12-4.65,1.12h-9.3
				V549.34z"/>
			<path class="st1" d="M305.89,563.68c-1.57-0.9-2.78-2.17-3.64-3.82c-0.86-1.64-1.29-3.55-1.29-5.71v-8.36
				c0-2.17,0.43-4.07,1.29-5.71c0.86-1.64,2.07-2.92,3.64-3.82c1.57-0.9,3.38-1.35,5.44-1.35s3.87,0.45,5.44,1.35
				c1.57,0.9,2.78,2.17,3.64,3.82c0.86,1.64,1.29,3.55,1.29,5.71v8.36c0,2.17-0.43,4.07-1.29,5.71c-0.86,1.64-2.07,2.92-3.64,3.82
				c-1.57,0.9-3.38,1.35-5.44,1.35S307.46,564.58,305.89,563.68z M314.54,560.13c0.93-0.55,1.64-1.33,2.15-2.33
				c0.51-1.01,0.76-2.17,0.76-3.5v-8.65c0-1.33-0.25-2.49-0.76-3.5c-0.51-1.01-1.22-1.79-2.15-2.33s-2-0.82-3.22-0.82
				s-2.29,0.27-3.22,0.82s-1.64,1.33-2.15,2.33c-0.51,1.01-0.76,2.18-0.76,3.5v8.65c0,1.33,0.25,2.49,0.76,3.5
				c0.51,1.01,1.22,1.79,2.15,2.33c0.93,0.55,2,0.82,3.22,0.82S313.62,560.68,314.54,560.13z"/>
			<path class="st1" d="M328.4,535.2h4.14v29.53h-4.14V535.2z M330.2,548.31h10.07c0.78,0,1.48-0.19,2.09-0.57
				c0.61-0.38,1.08-0.92,1.41-1.61c0.33-0.7,0.5-1.5,0.5-2.41s-0.17-1.71-0.5-2.41c-0.33-0.7-0.8-1.23-1.4-1.61
				c-0.6-0.38-1.3-0.57-2.1-0.57H330.2v-3.94h9.9c1.71,0,3.2,0.35,4.5,1.05c1.29,0.7,2.29,1.7,3,2.99c0.71,1.29,1.07,2.78,1.07,4.48
				s-0.36,3.18-1.08,4.48c-0.72,1.29-1.72,2.29-3.01,2.99c-1.29,0.7-2.78,1.06-4.48,1.06h-9.9V548.31z M338.24,551.33l4.12-0.93
				l7.55,14.33H345L338.24,551.33z"/>
			<path class="st1" d="M363.53,535.22h3.53l10.88,29.51h-4.47l-8.18-23.81l-8.18,23.81h-4.47L363.53,535.22z M357.67,554.32h15.53
				v3.94h-15.53V554.32z"/>
			<path class="st1" d="M382.41,535.2h4.14v29.53h-4.14V535.2z M384.21,548.31h10.07c0.78,0,1.48-0.19,2.09-0.57
				c0.61-0.38,1.08-0.92,1.41-1.61c0.33-0.7,0.5-1.5,0.5-2.41s-0.17-1.71-0.5-2.41c-0.33-0.7-0.8-1.23-1.4-1.61
				c-0.6-0.38-1.3-0.57-2.1-0.57h-10.07v-3.94h9.9c1.71,0,3.2,0.35,4.5,1.05c1.29,0.7,2.29,1.7,3,2.99
				c0.71,1.29,1.07,2.78,1.07,4.48s-0.36,3.18-1.08,4.48c-0.72,1.29-1.72,2.29-3.01,2.99c-1.29,0.7-2.78,1.06-4.48,1.06h-9.9V548.31
				z M392.25,551.33l4.12-0.93l7.55,14.33h-4.91L392.25,551.33z"/>
			<path class="st1" d="M418.37,552.73v12h-4.14v-12l-8.99-17.52h4.61l6.46,13.31l6.45-13.31h4.61L418.37,552.73z"/>
			<path class="st1" d="M445.84,563.67c-1.55-0.91-2.75-2.19-3.6-3.86c-0.85-1.66-1.28-3.59-1.28-5.78v-8.1
				c0-2.19,0.43-4.12,1.28-5.78s2.05-2.95,3.6-3.87c1.55-0.91,3.35-1.37,5.39-1.37c1.69,0,3.25,0.36,4.67,1.09s2.61,1.75,3.56,3.07
				c0.95,1.33,1.6,2.86,1.94,4.61h-4.24c-0.26-0.92-0.69-1.74-1.29-2.47s-1.31-1.28-2.12-1.67c-0.81-0.39-1.65-0.59-2.52-0.59
				c-1.2,0-2.26,0.29-3.17,0.87c-0.91,0.58-1.61,1.4-2.11,2.45c-0.5,1.05-0.75,2.27-0.75,3.66v8.1c0,1.38,0.25,2.6,0.75,3.65
				c0.5,1.06,1.2,1.87,2.11,2.45c0.91,0.58,1.96,0.86,3.17,0.86c0.88,0,1.72-0.18,2.53-0.55c0.8-0.37,1.51-0.91,2.11-1.62
				c0.6-0.72,1.03-1.57,1.29-2.56h4.24c-0.34,1.75-0.99,3.28-1.95,4.61c-0.96,1.33-2.15,2.35-3.57,3.08
				c-1.42,0.72-2.97,1.09-4.65,1.09C449.19,565.03,447.39,564.58,445.84,563.67z"/>
			<path class="st1" d="M467.29,535.22h4.14v29.51h-4.14V535.22z M469.87,548.23h16.38v3.94h-16.38V548.23z M484.05,535.22h4.14
				v29.51h-4.14V535.22z"/>
			<path class="st1" d="M503.54,535.22h3.53l10.88,29.51h-4.47l-8.18-23.81l-8.18,23.81h-4.47L503.54,535.22z M497.67,554.32h15.53
				v3.94h-15.53V554.32z"/>
			<path class="st1" d="M522.41,535.22h3.75l14.43,22.81l-0.49,0.53v-23.34h4.1v29.49h-3.8l-14.39-22.47l0.49-0.53v23h-4.1V535.22z"
				/>
			<path class="st1" d="M551.52,535.22h3.75l14.43,22.81l-0.49,0.53v-23.34h4.1v29.49h-3.8l-14.39-22.47l0.49-0.53v23h-4.1V535.22z"
				/>
			<path class="st1" d="M580.62,535.22h4.14v29.51h-4.14V535.22z M582.63,535.22h16.95v3.94h-16.95V535.22z M582.63,548.1h14.71
				v3.94h-14.71V548.1z M582.63,560.79h16.95v3.94h-16.95V560.79z"/>
			<path class="st1" d="M605.47,535.22h4.14v29.51h-4.14V535.22z M607.54,560.79h16.89v3.94h-16.89V560.79z"/>
		</g>
	</g>
</g>
<path class="st0" d="M716.38,377.19H123.61c-21.88,0-39.61-17.74-39.61-39.61V315.9c0-21.88,17.74-39.61,39.61-39.61h592.77
	c21.88,0,39.61,17.74,39.61,39.61v21.68C756,359.45,738.26,377.19,716.38,377.19z"/>
<path class="st1" d="M146.36,321.53c0.14,0.15,0.27,0.29,0.42,0.44h-0.42V321.53z"/>
<g>
	<g>
		<g>
			<path class="st1" d="M202.71,341.3c-1.55-0.91-2.75-2.19-3.6-3.86c-0.85-1.66-1.28-3.59-1.28-5.78v-8.1
				c0-2.19,0.43-4.12,1.28-5.78s2.05-2.95,3.6-3.87c1.55-0.91,3.35-1.37,5.39-1.37c1.69,0,3.25,0.36,4.67,1.09s2.61,1.75,3.56,3.07
				c0.95,1.33,1.6,2.86,1.94,4.61h-4.24c-0.26-0.92-0.69-1.74-1.29-2.47s-1.31-1.28-2.12-1.67c-0.81-0.39-1.65-0.59-2.52-0.59
				c-1.2,0-2.26,0.29-3.17,0.87c-0.91,0.58-1.61,1.4-2.11,2.45c-0.5,1.05-0.75,2.27-0.75,3.66v8.1c0,1.38,0.25,2.6,0.75,3.65
				c0.5,1.06,1.2,1.87,2.11,2.45c0.91,0.58,1.96,0.86,3.17,0.86c0.88,0,1.72-0.18,2.53-0.55c0.8-0.37,1.51-0.91,2.11-1.62
				c0.6-0.72,1.03-1.57,1.29-2.56h4.24c-0.34,1.75-0.99,3.28-1.95,4.61c-0.96,1.33-2.15,2.35-3.57,3.08
				c-1.42,0.72-2.97,1.09-4.65,1.09C206.06,342.66,204.26,342.21,202.71,341.3z"/>
			<path class="st1" d="M224.15,312.83h4.14v29.53h-4.14V312.83z M225.96,325.94h10.07c0.78,0,1.48-0.19,2.09-0.57
				c0.61-0.38,1.08-0.92,1.41-1.61c0.33-0.7,0.5-1.5,0.5-2.41s-0.17-1.71-0.5-2.41c-0.33-0.7-0.8-1.23-1.4-1.61
				c-0.6-0.38-1.3-0.57-2.1-0.57h-10.07v-3.94h9.9c1.71,0,3.2,0.35,4.5,1.05c1.29,0.7,2.29,1.7,3,2.99
				c0.71,1.29,1.07,2.78,1.07,4.48s-0.36,3.18-1.08,4.48c-0.72,1.29-1.72,2.29-3.01,2.99c-1.29,0.7-2.78,1.06-4.48,1.06h-9.9V325.94
				z M234,328.96l4.12-0.93l7.55,14.33h-4.91L234,328.96z"/>
			<path class="st1" d="M251.25,312.85h4.14v29.51h-4.14V312.85z M253.26,312.85h16.95v3.94h-16.95V312.85z M253.26,325.73h14.71
				v3.94h-14.71V325.73z M253.26,338.42h16.95v3.94h-16.95V338.42z"/>
			<path class="st1" d="M284.13,312.85h3.53l10.88,29.51h-4.47l-8.18-23.81l-8.18,23.81h-4.47L284.13,312.85z M278.26,331.95h15.53
				v3.94h-15.53V331.95z"/>
			<path class="st1" d="M298.95,312.85h20.82v3.94h-20.82V312.85z M307.29,315.26h4.14v27.1h-4.14V315.26z"/>
			<path class="st1" d="M323.02,312.85h4.14v29.51h-4.14V312.85z M325.03,312.85h16.95v3.94h-16.95V312.85z M325.03,325.73h14.71
				v3.94h-14.71V325.73z M325.03,338.42h16.95v3.94h-16.95V338.42z"/>
			<path class="st1" d="M363.3,341.3c-1.55-0.91-2.75-2.19-3.6-3.86c-0.85-1.66-1.28-3.59-1.28-5.78v-8.1
				c0-2.19,0.43-4.12,1.28-5.78s2.05-2.95,3.6-3.87c1.55-0.91,3.35-1.37,5.39-1.37c1.69,0,3.25,0.36,4.67,1.09s2.61,1.75,3.56,3.07
				c0.95,1.33,1.6,2.86,1.94,4.61h-4.24c-0.26-0.92-0.69-1.74-1.29-2.47s-1.31-1.28-2.12-1.67c-0.81-0.39-1.65-0.59-2.52-0.59
				c-1.2,0-2.26,0.29-3.17,0.87c-0.91,0.58-1.61,1.4-2.11,2.45c-0.5,1.05-0.75,2.27-0.75,3.66v8.1c0,1.38,0.25,2.6,0.75,3.65
				c0.5,1.06,1.2,1.87,2.11,2.45c0.91,0.58,1.96,0.86,3.17,0.86c0.88,0,1.72-0.18,2.53-0.55c0.8-0.37,1.51-0.91,2.11-1.62
				c0.6-0.72,1.03-1.57,1.29-2.56h4.24c-0.34,1.75-0.99,3.28-1.95,4.61c-0.96,1.33-2.15,2.35-3.57,3.08
				c-1.42,0.72-2.97,1.09-4.65,1.09C366.64,342.66,364.85,342.21,363.3,341.3z"/>
			<path class="st1" d="M384.74,312.85h4.14v29.51h-4.14V312.85z M387.32,325.86h16.38v3.94h-16.38V325.86z M401.5,312.85h4.14
				v29.51h-4.14V312.85z"/>
			<path class="st1" d="M420.99,312.85h3.53l10.88,29.51h-4.47l-8.18-23.81l-8.18,23.81h-4.47L420.99,312.85z M415.12,331.95h15.53
				v3.94h-15.53V331.95z"/>
			<path class="st1" d="M439.87,312.85h3.75l14.43,22.81l-0.49,0.53v-23.34h4.1v29.49h-3.8l-14.39-22.47l0.49-0.53v23h-4.1V312.85z"
				/>
			<path class="st1" d="M468.97,312.85h3.75l14.43,22.81l-0.49,0.53v-23.34h4.1v29.49h-3.8l-14.39-22.47l0.49-0.53v23h-4.1V312.85z"
				/>
			<path class="st1" d="M498.08,312.85h4.14v29.51h-4.14V312.85z M500.09,312.85h16.95v3.94h-16.95V312.85z M500.09,325.73h14.71
				v3.94h-14.71V325.73z M500.09,338.42h16.95v3.94h-16.95V338.42z"/>
			<path class="st1" d="M522.92,312.85h4.14v29.51h-4.14V312.85z M524.99,338.42h16.89v3.94h-16.89V338.42z"/>
		</g>
	</g>
</g>
<path class="st1" d="M144.08,354.19L144.08,354.19c-2.66,0-4.81-2.15-4.81-4.81v-46.53c0-2.66,2.15-4.81,4.81-4.81l0,0
	c2.66,0,4.81,2.15,4.81,4.81v46.53C148.89,352.04,146.74,354.19,144.08,354.19z"/>
<path class="st1" d="M172.16,326.11L172.16,326.11c0,2.66-2.15,4.81-4.81,4.81h-46.53c-2.66,0-4.81-2.15-4.81-4.81l0,0
	c0-2.66,2.15-4.81,4.81-4.81h46.53C170.01,321.3,172.16,323.46,172.16,326.11z"/>
<g>
	<g>
		<g>
			<path class="st1" d="M298.55,662.07c-1.31-0.64-2.38-1.53-3.21-2.68l3.39-2.44c0.38,0.66,0.93,1.18,1.64,1.54
				c0.72,0.37,1.55,0.55,2.5,0.55c1.61,0,2.86-0.5,3.75-1.5c0.89-1,1.33-2.41,1.33-4.22v-20.11h4.14v20.13
				c0,2.04-0.36,3.79-1.08,5.24c-0.72,1.45-1.77,2.55-3.15,3.31s-3.04,1.14-4.99,1.14C301.3,663.02,299.86,662.71,298.55,662.07z"/>
			<path class="st1" d="M323.72,661.67c-1.57-0.9-2.78-2.17-3.64-3.82c-0.86-1.64-1.29-3.55-1.29-5.71v-8.36
				c0-2.17,0.43-4.07,1.29-5.71c0.86-1.64,2.07-2.92,3.64-3.82c1.57-0.9,3.38-1.35,5.44-1.35s3.87,0.45,5.44,1.35
				c1.57,0.9,2.78,2.17,3.64,3.82c0.86,1.64,1.29,3.55,1.29,5.71v8.36c0,2.17-0.43,4.07-1.29,5.71c-0.86,1.64-2.07,2.92-3.64,3.82
				c-1.57,0.9-3.38,1.35-5.44,1.35S325.29,662.57,323.72,661.67z M332.37,658.12c0.93-0.55,1.64-1.33,2.15-2.33
				c0.51-1.01,0.76-2.17,0.76-3.5v-8.65c0-1.33-0.25-2.49-0.76-3.5c-0.51-1.01-1.22-1.79-2.15-2.33s-2-0.82-3.22-0.82
				s-2.29,0.27-3.22,0.82s-1.64,1.33-2.15,2.33c-0.51,1.01-0.76,2.18-0.76,3.5v8.65c0,1.33,0.25,2.49,0.76,3.5
				c0.51,1.01,1.22,1.79,2.15,2.33c0.93,0.55,2,0.82,3.22,0.82S331.45,658.67,332.37,658.12z"/>
			<path class="st1" d="M346.23,633.21h3.75l14.43,22.81l-0.49,0.53v-23.34h4.1v29.49h-3.8l-14.39-22.47l0.49-0.53v23h-4.1V633.21z"
				/>
			<path class="st1" d="M383.37,633.21h3.53l10.88,29.51h-4.47l-8.18-23.81l-8.18,23.81h-4.47L383.37,633.21z M377.5,652.31h15.53
				v3.94H377.5V652.31z"/>
			<path class="st1" d="M402.25,633.21h4.14v29.51h-4.14V633.21z M404.82,646.22h16.38v3.94h-16.38V646.22z M419.01,633.21h4.14
				v29.51h-4.14V633.21z"/>
		</g>
	</g>
</g>
<circle class="st2" cx="235.56" cy="649.98" r="37.73"/>
<circle class="st3" cx="235.56" cy="649.98" r="32.65"/>
<path class="st0" d="M721.69,1077.43H128.92c-21.88,0-39.61-17.74-39.61-39.61V785.64c0-21.88,17.74-39.61,39.61-39.61h592.77
	c21.88,0,39.61,17.74,39.61,39.61v252.18C761.3,1059.7,743.57,1077.43,721.69,1077.43z"/>
<path class="st1" d="M152.08,791.71c1.93,1.96,4.36,3.44,7.09,4.23c0.09,0.62,0.13,1.24,0.13,1.88c0,4.01-1.72,7.61-4.45,10.1
	c-1.22,1.12-3.19,0.26-3.19-1.39v-15.26C151.8,791.42,151.93,791.57,152.08,791.71z"/>
<path class="st1" d="M154.09,784.51l-4.71-4.7h3.63c0-0.67,0.06-1.33,0.18-1.97c0.38-2.09,1.36-3.97,2.76-5.46
	c2.1-2.24,5.12-3.59,8.46-3.44c5.58,0.26,10.1,4.78,10.36,10.36c0.16,3.41-1.25,6.49-3.57,8.59c-1.52,1.37-3.42,2.32-5.53,2.67
	c-0.58,0.09-1.17,0.14-1.77,0.14c-3.01,0-5.72-1.22-7.69-3.19l1.72-1.72c1.52,1.53,3.64,2.49,5.97,2.49c0.26,0,0.52-0.01,0.78-0.04
	c2.16-0.2,4.09-1.21,5.47-2.72c1.44-1.58,2.29-3.71,2.21-6.04c-0.16-4.39-3.74-7.97-8.13-8.13c-2.28-0.09-4.36,0.73-5.93,2.11
	c-1.53,1.36-2.57,3.26-2.81,5.41c-0.04,0.31-0.05,0.62-0.05,0.94h3.63l-0.81,0.8l-4.08,4.07L154.09,784.51z"/>
<polygon class="st1" points="164.5,779.98 168.14,782.14 168.76,782.51 168.58,782.8 167.83,784.07 162.69,781.02 162.69,774.97 
	164.5,774.97 "/>
<path class="st1" d="M172.78,793.93c0.18,1.27,0.27,2.58,0.27,3.9c0,12.18-7.92,22.5-18.9,26.11c-1.23,0.41-2.5-0.51-2.5-1.8v-2.43
	c0-0.79,0.49-1.5,1.23-1.77c8.19-3,14.05-10.87,14.05-20.1c0-0.51-0.02-1.02-0.06-1.53C169.03,795.89,171.03,795.07,172.78,793.93z"
	/>
<path class="st1" d="M172.78,793.93c-1.76,1.15-3.75,1.97-5.9,2.37c0.04,0.5,0.06,1.01,0.06,1.53c0,9.23-5.85,17.1-14.05,20.1
	c-0.74,0.27-1.23,0.98-1.23,1.77v2.43c0,1.3,1.27,2.21,2.5,1.8c10.98-3.61,18.9-13.94,18.9-26.11
	C173.06,796.5,172.96,795.2,172.78,793.93z M165.67,790.55c2.11-0.35,4.01-1.3,5.53-2.67c-0.31-0.81-0.66-1.59-1.05-2.36
	c-1.38,1.51-3.31,2.52-5.47,2.72C165.05,788.98,165.39,789.76,165.67,790.55z M168.58,782.8c-0.14-0.22-0.29-0.44-0.45-0.66
	l-3.64-2.16v-2.07c-0.58-0.55-1.18-1.08-1.81-1.58v4.69l5.14,3.05L168.58,782.8z M158.26,780.61l0.81-0.8h-1.97
	C157.49,780.06,157.88,780.33,158.26,780.61z M158.29,773.46c-0.76-0.4-1.54-0.76-2.34-1.09c-1.39,1.49-2.37,3.37-2.76,5.46
	c0.79,0.3,1.55,0.65,2.29,1.03C155.72,776.72,156.76,774.82,158.29,773.46z M159.17,795.94c-2.73-0.79-5.17-2.27-7.09-4.23
	c-0.14-0.14-0.28-0.29-0.42-0.44v15.26c0,1.66,1.97,2.51,3.19,1.39c2.73-2.5,4.45-6.09,4.45-10.1
	C159.3,797.18,159.26,796.56,159.17,795.94z M142.3,776.62l-11.48,11.48c-0.36,0.36-0.84,0.56-1.34,0.56h-9.54
	c-1.05,0-1.9,0.85-1.9,1.9v14.54c0,1.05,0.85,1.9,1.9,1.9h9.54c0.5,0,0.99,0.2,1.34,0.56l11.48,11.48c1.2,1.2,3.24,0.35,3.24-1.35
	v-39.73C145.55,776.27,143.5,775.42,142.3,776.62z"/>
<polygon class="st1" points="164.5,779.98 168.14,782.14 168.76,782.51 168.58,782.8 167.83,784.07 162.69,781.02 162.69,774.97 
	164.5,774.97 "/>
<path class="st1" d="M171.2,787.88c-1.52,1.37-3.42,2.32-5.53,2.67c-0.58,0.09-1.17,0.14-1.77,0.14c-3.01,0-5.72-1.22-7.69-3.19
	l1.72-1.72c1.52,1.53,3.64,2.49,5.97,2.49c0.26,0,0.52-0.01,0.78-0.04c2.16-0.2,4.09-1.21,5.47-2.72c1.44-1.58,2.29-3.71,2.21-6.04
	c-0.16-4.39-3.74-7.97-8.13-8.13c-2.28-0.09-4.36,0.73-5.93,2.11c-1.53,1.36-2.57,3.26-2.81,5.41c-0.04,0.31-0.05,0.62-0.05,0.94
	h3.63l-0.81,0.8l-4.08,4.07l-0.08-0.17l-4.71-4.7h3.63c0-0.67,0.06-1.33,0.18-1.97c0.38-2.09,1.36-3.97,2.76-5.46
	c2.1-2.24,5.12-3.59,8.46-3.44c5.58,0.26,10.1,4.78,10.36,10.36C174.93,782.7,173.52,785.78,171.2,787.88z"/>
<path class="st1" d="M151.66,791.28c0.14,0.15,0.27,0.29,0.42,0.44h-0.42V791.28z"/>
<polygon class="st1" points="164.5,779.98 168.14,782.14 168.76,782.51 168.58,782.8 167.83,784.07 162.69,781.02 162.69,774.97 
	164.5,774.97 "/>
<path class="st1" d="M171.2,787.88c-1.52,1.37-3.42,2.32-5.53,2.67c-0.58,0.09-1.17,0.14-1.77,0.14c-3.01,0-5.72-1.22-7.69-3.19
	l1.72-1.72c1.52,1.53,3.64,2.49,5.97,2.49c0.26,0,0.52-0.01,0.78-0.04c2.16-0.2,4.09-1.21,5.47-2.72c1.44-1.58,2.29-3.71,2.21-6.04
	c-0.16-4.39-3.74-7.97-8.13-8.13c-2.28-0.09-4.36,0.73-5.93,2.11c-1.53,1.36-2.57,3.26-2.81,5.41c-0.04,0.31-0.05,0.62-0.05,0.94
	h3.63l-0.81,0.8l-4.08,4.07l-0.08-0.17l-4.71-4.7h3.63c0-0.67,0.06-1.33,0.18-1.97c0.38-2.09,1.36-3.97,2.76-5.46
	c2.1-2.24,5.12-3.59,8.46-3.44c5.58,0.26,10.1,4.78,10.36,10.36C174.93,782.7,173.52,785.78,171.2,787.88z"/>
<path class="st1" d="M168.14,782.14l-3.64-2.16v-5.01h-1.81v6.05l5.14,3.05l0.76-1.27l0.18-0.29L168.14,782.14z M174.77,779.29
	c-0.26-5.58-4.78-10.1-10.36-10.36c-3.34-0.15-6.37,1.2-8.46,3.44c-1.39,1.49-2.37,3.37-2.76,5.46c-0.12,0.64-0.18,1.3-0.18,1.97
	h-3.63l4.71,4.7l0.08,0.17l4.08-4.07l0.81-0.8h-3.63c0-0.32,0.02-0.63,0.05-0.94c0.24-2.15,1.28-4.05,2.81-5.41
	c1.57-1.39,3.65-2.2,5.93-2.11c4.39,0.16,7.97,3.74,8.13,8.13c0.09,2.33-0.76,4.46-2.21,6.04c-1.38,1.51-3.31,2.52-5.47,2.72
	c-0.26,0.02-0.52,0.04-0.78,0.04c-2.33,0-4.45-0.96-5.97-2.49l-1.72,1.72c1.97,1.97,4.68,3.19,7.69,3.19c0.6,0,1.2-0.05,1.77-0.14
	c2.11-0.35,4.01-1.3,5.53-2.67C173.52,785.78,174.93,782.7,174.77,779.29z M168.14,782.14c0.15,0.22,0.3,0.44,0.45,0.66l0.18-0.29
	L168.14,782.14z M164.5,774.97h-1.81v1.36c0.63,0.5,1.23,1.03,1.81,1.58V774.97z"/>
<g>
	<g>
		<g>
			<path class="st1" d="M199.68,782.59h20.82v3.94h-20.82V782.59z M208.02,785h4.14v27.1h-4.14V785z"/>
			<path class="st1" d="M223.75,782.59h4.14v29.51h-4.14V782.59z M225.76,782.59h16.95v3.94h-16.95V782.59z M225.76,795.48h14.71
				v3.94h-14.71V795.48z M225.76,808.16h16.95v3.94h-16.95V808.16z"/>
			<path class="st1" d="M269.81,782.59h3.88v29.51h-4.04V790l0.2,1.3l-7.27,16.7h-2.88l-7.27-16.3l0.2-1.7v22.1h-4.04v-29.51h3.88
				l8.67,19.48L269.81,782.59z"/>
			<path class="st1" d="M280.99,782.59h4.14v29.51h-4.14V782.59z M283.12,796.72h9.44c0.89,0,1.68-0.21,2.35-0.63
				c0.68-0.42,1.2-1.02,1.57-1.79c0.37-0.77,0.56-1.66,0.56-2.66c0-1.01-0.19-1.91-0.56-2.68c-0.37-0.77-0.9-1.37-1.57-1.8
				c-0.68-0.43-1.46-0.64-2.35-0.64h-9.44v-3.94h9.3c1.76,0,3.31,0.38,4.65,1.13c1.34,0.75,2.38,1.81,3.12,3.18
				c0.74,1.37,1.11,2.95,1.11,4.75s-0.37,3.38-1.11,4.74c-0.74,1.36-1.78,2.41-3.12,3.16c-1.34,0.74-2.89,1.12-4.65,1.12h-9.3
				V796.72z"/>
			<path class="st1" d="M311.19,811.06c-1.57-0.9-2.78-2.17-3.64-3.82c-0.86-1.64-1.29-3.55-1.29-5.71v-8.36
				c0-2.17,0.43-4.07,1.29-5.71c0.86-1.64,2.07-2.92,3.64-3.82c1.57-0.9,3.38-1.35,5.44-1.35s3.87,0.45,5.44,1.35
				c1.57,0.9,2.78,2.17,3.64,3.82c0.86,1.64,1.29,3.55,1.29,5.71v8.36c0,2.17-0.43,4.07-1.29,5.71c-0.86,1.64-2.07,2.92-3.64,3.82
				c-1.57,0.9-3.38,1.35-5.44,1.35S312.76,811.96,311.19,811.06z M319.85,807.5c0.93-0.55,1.64-1.33,2.15-2.33
				c0.51-1.01,0.76-2.17,0.76-3.5v-8.65c0-1.33-0.25-2.49-0.76-3.5c-0.51-1.01-1.22-1.79-2.15-2.33s-2-0.82-3.22-0.82
				s-2.29,0.27-3.22,0.82s-1.64,1.33-2.15,2.33c-0.51,1.01-0.76,2.18-0.76,3.5v8.65c0,1.33,0.25,2.49,0.76,3.5
				c0.51,1.01,1.22,1.79,2.15,2.33c0.93,0.55,2,0.82,3.22,0.82S318.92,808.05,319.85,807.5z"/>
			<path class="st1" d="M333.7,782.57h4.14v29.53h-4.14V782.57z M335.51,795.68h10.07c0.78,0,1.48-0.19,2.09-0.57
				c0.61-0.38,1.08-0.92,1.41-1.61c0.33-0.7,0.5-1.5,0.5-2.41s-0.17-1.71-0.5-2.41c-0.33-0.7-0.8-1.23-1.4-1.61
				c-0.6-0.38-1.3-0.57-2.1-0.57h-10.07v-3.94h9.9c1.71,0,3.2,0.35,4.5,1.05c1.29,0.7,2.29,1.7,3,2.99
				c0.71,1.29,1.07,2.78,1.07,4.48s-0.36,3.18-1.08,4.48c-0.72,1.29-1.72,2.29-3.01,2.99c-1.29,0.7-2.78,1.06-4.48,1.06h-9.9V795.68
				z M343.54,798.71l4.12-0.93l7.55,14.33h-4.91L343.54,798.71z"/>
			<path class="st1" d="M368.83,782.59h3.53l10.88,29.51h-4.47l-8.18-23.81l-8.18,23.81h-4.47L368.83,782.59z M362.97,801.69h15.53
				v3.94h-15.53V801.69z"/>
			<path class="st1" d="M387.71,782.57h4.14v29.53h-4.14V782.57z M389.52,795.68h10.07c0.78,0,1.48-0.19,2.09-0.57
				c0.61-0.38,1.08-0.92,1.41-1.61c0.33-0.7,0.5-1.5,0.5-2.41s-0.17-1.71-0.5-2.41c-0.33-0.7-0.8-1.23-1.4-1.61
				c-0.6-0.38-1.3-0.57-2.1-0.57h-10.07v-3.94h9.9c1.71,0,3.2,0.35,4.5,1.05c1.29,0.7,2.29,1.7,3,2.99
				c0.71,1.29,1.07,2.78,1.07,4.48s-0.36,3.18-1.08,4.48c-0.72,1.29-1.72,2.29-3.01,2.99c-1.29,0.7-2.78,1.06-4.48,1.06h-9.9V795.68
				z M397.55,798.71l4.12-0.93l7.55,14.33h-4.91L397.55,798.71z"/>
			<path class="st1" d="M423.68,800.11v12h-4.14v-12l-8.99-17.52h4.61l6.46,13.31l6.45-13.31h4.61L423.68,800.11z"/>
			<path class="st1" d="M451.15,811.04c-1.55-0.91-2.75-2.19-3.6-3.86c-0.85-1.66-1.28-3.59-1.28-5.78v-8.1
				c0-2.19,0.43-4.12,1.28-5.78s2.05-2.95,3.6-3.87c1.55-0.91,3.35-1.37,5.39-1.37c1.69,0,3.25,0.36,4.67,1.09s2.61,1.75,3.56,3.07
				c0.95,1.33,1.6,2.86,1.94,4.61h-4.24c-0.26-0.92-0.69-1.74-1.29-2.47s-1.31-1.28-2.12-1.67c-0.81-0.39-1.65-0.59-2.52-0.59
				c-1.2,0-2.26,0.29-3.17,0.87c-0.91,0.58-1.61,1.4-2.11,2.45c-0.5,1.05-0.75,2.27-0.75,3.66v8.1c0,1.38,0.25,2.6,0.75,3.65
				c0.5,1.06,1.2,1.87,2.11,2.45c0.91,0.58,1.96,0.86,3.17,0.86c0.88,0,1.72-0.18,2.53-0.55c0.8-0.37,1.51-0.91,2.11-1.62
				c0.6-0.72,1.03-1.57,1.29-2.56h4.24c-0.34,1.75-0.99,3.28-1.95,4.61c-0.96,1.33-2.15,2.35-3.57,3.08
				c-1.42,0.72-2.97,1.09-4.65,1.09C454.49,812.41,452.7,811.95,451.15,811.04z"/>
			<path class="st1" d="M472.59,782.59h4.14v29.51h-4.14V782.59z M475.17,795.6h16.38v3.94h-16.38V795.6z M489.36,782.59h4.14v29.51
				h-4.14V782.59z"/>
			<path class="st1" d="M508.84,782.59h3.53l10.88,29.51h-4.47l-8.18-23.81l-8.18,23.81h-4.47L508.84,782.59z M502.97,801.69h15.53
				v3.94h-15.53V801.69z"/>
			<path class="st1" d="M527.72,782.59h3.75l14.43,22.81l-0.49,0.53v-23.34h4.1v29.49h-3.8l-14.39-22.47l0.49-0.53v23h-4.1V782.59z"
				/>
			<path class="st1" d="M556.82,782.59h3.75l14.43,22.81l-0.49,0.53v-23.34h4.1v29.49h-3.8l-14.39-22.47l0.49-0.53v23h-4.1V782.59z"
				/>
			<path class="st1" d="M585.93,782.59h4.14v29.51h-4.14V782.59z M587.94,782.59h16.95v3.94h-16.95V782.59z M587.94,795.48h14.71
				v3.94h-14.71V795.48z M587.94,808.16h16.95v3.94h-16.95V808.16z"/>
			<path class="st1" d="M610.77,782.59h4.14v29.51h-4.14V782.59z M612.84,808.16h16.89v3.94h-16.89V808.16z"/>
		</g>
	</g>
</g>
<g>
	<g>
		<g>
			<path class="st1" d="M324.9,880.58h3.88v29.51h-4.04v-22.1l0.2,1.3l-7.27,16.7h-2.88l-7.27-16.3l0.2-1.7v22.1h-4.04v-29.51h3.88
				l8.67,19.48L324.9,880.58z"/>
			<path class="st1" d="M344.12,880.58h3.53l10.88,29.51h-4.47l-8.18-23.81l-8.18,23.81h-4.47L344.12,880.58z M338.26,899.68h15.53
				v3.94h-15.53V899.68z"/>
			<path class="st1" d="M367.14,910.09H363v-29.51h4.14V910.09z"/>
			<path class="st1" d="M374.45,880.58h4.14v29.51h-4.14V880.58z M377.69,897.14l13.03-16.56h5.09l-18.73,22.77L377.69,897.14z
				 M382.6,894.34l3.27-3.02l11.18,18.77h-5.07L382.6,894.34z"/>
		</g>
	</g>
</g>
<circle class="st4" cx="240.86" cy="897.35" r="32.65"/>
<g>
	<g>
		<g>
			<path class="st1" d="M303.69,980.73h4.14v29.51h-4.14V980.73z M305.76,1006.3h16.89v3.94h-16.89V1006.3z"/>
			<path class="st1" d="M327.52,980.73h4.14v29.51h-4.14V980.73z M329.53,980.73h16.95v3.94h-16.95V980.73z M329.53,993.62h14.71
				v3.94h-14.71V993.62z M329.53,1006.3h16.95v3.94h-16.95V1006.3z"/>
			<path class="st1" d="M352.36,980.73h3.76l14.43,22.81l-0.49,0.53v-23.34h4.1v29.49h-3.79l-14.39-22.47l0.49-0.53v23h-4.1V980.73z
				"/>
			<path class="st1" d="M389.5,980.73h3.53l10.88,29.51h-4.47l-8.18-23.81l-8.18,23.81h-4.47L389.5,980.73z M383.64,999.83h15.53
				v3.94h-15.53V999.83z"/>
		</g>
	</g>
</g>
<circle class="st5" cx="240.86" cy="997.5" r="32.65"/>
<path class="st1" d="M123.16,443.7L123.16,443.7c0.54,0.54,0.54,1.41,0,1.94l-9.39,9.39c-0.54,0.54-1.41,0.54-1.94,0l0,0
	c-0.54-0.54-0.54-1.41,0-1.94l9.39-9.39C121.75,443.17,122.62,443.17,123.16,443.7z"/>
<path class="st1" d="M102.31,443.7L102.31,443.7c0.54-0.54,1.41-0.54,1.94,0l9.39,9.39c0.54,0.54,0.54,1.41,0,1.94l0,0
	c-0.54,0.54-1.41,0.54-1.94,0l-9.39-9.39C101.77,445.11,101.77,444.24,102.31,443.7z"/>
<g>
	<g>
		<g>
			<path class="st1" d="M141.7,439.58h2.76v19.64h-2.76V439.58z M143.57,456.59h4.44c1.45,0,2.57-0.38,3.37-1.13
				c0.8-0.75,1.2-1.81,1.2-3.18v-5.78c0-1.37-0.4-2.43-1.2-3.18c-0.8-0.75-1.92-1.13-3.37-1.13h-4.44v-2.62h4.36
				c1.58,0,2.92,0.27,4.04,0.82c1.12,0.55,1.97,1.35,2.55,2.4c0.58,1.05,0.88,2.32,0.88,3.81v5.56c0,1.49-0.29,2.75-0.88,3.81
				c-0.59,1.05-1.44,1.85-2.56,2.4c-1.12,0.55-2.47,0.82-4.04,0.82h-4.35V456.59z"/>
			<path class="st1" d="M159.85,439.58h2.76v19.64h-2.76V439.58z M161.19,439.58h11.28v2.62h-11.28V439.58z M161.19,448.15h9.79
				v2.62h-9.79V448.15z M161.19,456.59h11.28v2.62h-11.28V456.59z"/>
			<path class="st1" d="M176.39,439.58h2.76v19.64h-2.76V439.58z M177.74,439.58h11.01v2.62h-11.01V439.58z M177.74,448.33h9.52
				v2.62h-9.52V448.33z"/>
			<path class="st1" d="M197.2,439.58h2.35l7.24,19.64h-2.97l-5.44-15.84l-5.44,15.84h-2.97L197.2,439.58z M193.29,452.28h10.33
				v2.62h-10.33V452.28z"/>
			<path class="st1" d="M212.65,458.56c-1.03-0.57-1.82-1.4-2.36-2.5c-0.54-1.09-0.81-2.41-0.81-3.95v-12.53h2.75v12.63
				c0,1.43,0.36,2.54,1.08,3.32c0.72,0.78,1.74,1.18,3.05,1.18c1.32,0,2.35-0.39,3.07-1.18c0.72-0.78,1.09-1.89,1.09-3.32v-12.63
				h2.76v12.53c0,1.54-0.27,2.86-0.81,3.95s-1.33,1.93-2.36,2.5c-1.04,0.57-2.28,0.86-3.74,0.86
				C214.93,459.41,213.69,459.13,212.65,458.56z"/>
			<path class="st1" d="M227.88,439.58h2.76v19.64h-2.76V439.58z M229.26,456.59h11.24v2.62h-11.24V456.59z"/>
			<path class="st1" d="M241.04,439.58h13.86v2.62h-13.86V439.58z M246.59,441.18h2.76v18.03h-2.76V441.18z"/>
			<path class="st1" d="M267.33,458.51c-1.03-0.6-1.83-1.46-2.4-2.57s-0.85-2.39-0.85-3.85v-5.39c0-1.46,0.28-2.74,0.85-3.85
				s1.37-1.96,2.4-2.57c1.03-0.61,2.23-0.91,3.58-0.91c1.13,0,2.16,0.24,3.11,0.72s1.74,1.16,2.37,2.05
				c0.63,0.88,1.06,1.9,1.29,3.07h-2.82c-0.17-0.61-0.46-1.16-0.86-1.64c-0.4-0.48-0.87-0.85-1.41-1.11
				c-0.54-0.26-1.1-0.39-1.67-0.39c-0.8,0-1.5,0.19-2.11,0.58c-0.6,0.39-1.07,0.93-1.4,1.63c-0.33,0.7-0.5,1.51-0.5,2.44v5.39
				c0,0.92,0.17,1.73,0.5,2.43c0.33,0.7,0.8,1.25,1.4,1.63c0.6,0.38,1.31,0.57,2.11,0.57c0.59,0,1.15-0.12,1.68-0.36s1-0.6,1.4-1.08
				c0.4-0.48,0.69-1.04,0.86-1.7h2.82c-0.23,1.16-0.66,2.18-1.3,3.07c-0.64,0.88-1.43,1.56-2.38,2.05
				c-0.95,0.48-1.98,0.72-3.09,0.72C269.55,459.41,268.36,459.11,267.33,458.51z"/>
			<path class="st1" d="M286.94,439.58h2.35l7.24,19.64h-2.97l-5.44-15.84l-5.44,15.84h-2.97L286.94,439.58z M283.04,452.28h10.33
				v2.62h-10.33V452.28z"/>
			<path class="st1" d="M296.8,439.58h13.86v2.62H296.8V439.58z M302.35,441.18h2.76v18.03h-2.76V441.18z"/>
			<path class="st1" d="M312.82,439.58h2.76v19.64h-2.76V439.58z M314.16,439.58h11.28v2.62h-11.28V439.58z M314.16,448.15h9.79
				v2.62h-9.79V448.15z M314.16,456.59h11.28v2.62h-11.28V456.59z"/>
			<path class="st1" d="M342.77,448.64v3.43c0,1.46-0.28,2.74-0.85,3.86c-0.57,1.11-1.37,1.97-2.41,2.58s-2.24,0.91-3.61,0.91
				c-1.39,0-2.6-0.29-3.65-0.86c-1.05-0.57-1.86-1.38-2.44-2.42c-0.58-1.04-0.87-2.26-0.87-3.63v-5.79c0-1.46,0.28-2.74,0.85-3.85
				s1.37-1.96,2.41-2.57c1.04-0.61,2.24-0.91,3.61-0.91c1.12,0,2.16,0.24,3.11,0.72c0.95,0.48,1.74,1.16,2.38,2.05
				c0.64,0.88,1.07,1.9,1.3,3.07h-2.98c-0.16-0.66-0.44-1.22-0.82-1.7s-0.84-0.83-1.36-1.08c-0.52-0.25-1.06-0.37-1.62-0.37
				c-0.81,0-1.52,0.19-2.13,0.58s-1.08,0.93-1.42,1.63c-0.33,0.7-0.5,1.51-0.5,2.44v5.79c0,0.85,0.17,1.59,0.51,2.22
				c0.34,0.63,0.83,1.13,1.45,1.48s1.35,0.53,2.17,0.53c0.81,0,1.52-0.18,2.13-0.55c0.61-0.36,1.08-0.89,1.42-1.59
				s0.5-1.52,0.5-2.47v-0.85h-3.98v-2.63H342.77z"/>
			<path class="st1" d="M350.11,458.52c-1.04-0.6-1.85-1.45-2.42-2.54c-0.57-1.09-0.86-2.36-0.86-3.8v-5.56
				c0-1.44,0.29-2.71,0.86-3.8c0.57-1.09,1.38-1.94,2.42-2.54s2.25-0.9,3.62-0.9c1.37,0,2.58,0.3,3.62,0.9
				c1.04,0.6,1.85,1.45,2.42,2.54c0.57,1.09,0.86,2.36,0.86,3.8v5.56c0,1.44-0.29,2.71-0.86,3.8c-0.57,1.09-1.38,1.94-2.42,2.54
				c-1.04,0.6-2.25,0.9-3.62,0.9C352.36,459.41,351.15,459.12,350.11,458.52z M355.87,456.15c0.62-0.37,1.09-0.88,1.43-1.55
				c0.34-0.67,0.51-1.45,0.51-2.33v-5.75c0-0.88-0.17-1.66-0.51-2.33c-0.34-0.67-0.81-1.19-1.43-1.55
				c-0.62-0.36-1.33-0.55-2.14-0.55c-0.81,0-1.52,0.18-2.14,0.55c-0.62,0.36-1.09,0.88-1.43,1.55c-0.34,0.67-0.51,1.45-0.51,2.33
				v5.75c0,0.88,0.17,1.66,0.51,2.33c0.34,0.67,0.82,1.19,1.43,1.55c0.62,0.36,1.33,0.55,2.14,0.55
				C354.54,456.7,355.25,456.52,355.87,456.15z"/>
			<path class="st1" d="M365.08,439.56h2.76v19.65h-2.76V439.56z M366.29,448.29h6.7c0.52,0,0.99-0.13,1.39-0.38
				c0.41-0.25,0.72-0.61,0.94-1.07s0.33-1,0.33-1.6c0-0.6-0.11-1.14-0.33-1.6c-0.22-0.46-0.53-0.82-0.93-1.07s-0.87-0.38-1.4-0.38
				h-6.7v-2.62h6.59c1.13,0,2.13,0.23,2.99,0.7c0.86,0.47,1.53,1.13,2,1.99c0.47,0.86,0.71,1.85,0.71,2.98
				c0,1.13-0.24,2.12-0.72,2.98c-0.48,0.86-1.15,1.52-2,1.99c-0.86,0.47-1.85,0.7-2.98,0.7h-6.59V448.29z M371.64,450.3l2.74-0.62
				l5.02,9.54h-3.27L371.64,450.3z"/>
			<path class="st1" d="M389.02,451.23v7.98h-2.75v-7.98l-5.98-11.66h3.07l4.29,8.86l4.29-8.86H395L389.02,451.23z"/>
		</g>
	</g>
</g>
<path class="st0" d="M1490.17,619.06h-625.7c-12.79,0-23.15-10.37-23.15-23.15v0c0-12.79,10.37-23.15,23.15-23.15h625.7
	c12.79,0,23.15,10.37,23.15,23.15v0C1513.32,608.7,1502.96,619.06,1490.17,619.06z"/>
<path class="st0" d="M1473.71,872.1H880.94c-21.88,0-39.61-17.74-39.61-39.61V684.81c0-21.88,17.74-39.61,39.61-39.61h592.77
	c21.88,0,39.61,17.74,39.61,39.61v147.68C1513.32,854.37,1495.59,872.1,1473.71,872.1z"/>
<path class="st1" d="M904.1,690.88c1.93,1.96,4.36,3.44,7.09,4.23c0.09,0.62,0.13,1.24,0.13,1.88c0,4.01-1.72,7.61-4.45,10.1
	c-1.22,1.12-3.19,0.26-3.19-1.39v-15.26C903.82,690.59,903.95,690.74,904.1,690.88z"/>
<path class="st1" d="M906.11,683.68l-4.71-4.7h3.63c0-0.67,0.06-1.33,0.18-1.97c0.38-2.09,1.36-3.97,2.76-5.46
	c2.1-2.24,5.12-3.59,8.46-3.44c5.58,0.26,10.1,4.78,10.36,10.36c0.16,3.41-1.25,6.49-3.57,8.59c-1.52,1.37-3.42,2.32-5.53,2.67
	c-0.58,0.09-1.17,0.14-1.77,0.14c-3.01,0-5.72-1.22-7.69-3.19l1.72-1.72c1.52,1.53,3.64,2.49,5.97,2.49c0.26,0,0.52-0.01,0.78-0.04
	c2.16-0.2,4.09-1.21,5.47-2.72c1.44-1.58,2.29-3.71,2.21-6.04c-0.16-4.39-3.74-7.97-8.13-8.13c-2.28-0.09-4.36,0.73-5.93,2.11
	c-1.53,1.36-2.57,3.26-2.81,5.41c-0.04,0.31-0.05,0.62-0.05,0.94h3.63l-0.81,0.8l-4.08,4.07L906.11,683.68z"/>
<polygon class="st1" points="916.52,679.15 920.16,681.31 920.78,681.67 920.61,681.97 919.85,683.23 914.71,680.19 914.71,674.14 
	916.52,674.14 "/>
<path class="st1" d="M924.8,693.1c0.18,1.27,0.27,2.58,0.27,3.9c0,12.18-7.92,22.5-18.9,26.11c-1.23,0.41-2.5-0.51-2.5-1.8v-2.43
	c0-0.79,0.49-1.5,1.23-1.77c8.19-3,14.05-10.87,14.05-20.1c0-0.51-0.02-1.02-0.06-1.53C921.05,695.06,923.05,694.24,924.8,693.1z"/>
<path class="st1" d="M924.8,693.1c-1.76,1.15-3.75,1.97-5.9,2.37c0.04,0.5,0.06,1.01,0.06,1.53c0,9.23-5.85,17.1-14.05,20.1
	c-0.74,0.27-1.23,0.98-1.23,1.77v2.43c0,1.3,1.27,2.21,2.5,1.8c10.98-3.61,18.9-13.94,18.9-26.11
	C925.08,695.67,924.98,694.37,924.8,693.1z M917.69,689.72c2.11-0.35,4.01-1.3,5.53-2.67c-0.31-0.81-0.66-1.59-1.05-2.36
	c-1.38,1.51-3.31,2.52-5.47,2.72C917.08,688.15,917.41,688.92,917.69,689.72z M920.61,681.97c-0.14-0.22-0.29-0.44-0.45-0.66
	l-3.64-2.16v-2.07c-0.58-0.55-1.18-1.08-1.81-1.58v4.69l5.14,3.05L920.61,681.97z M910.28,679.78l0.81-0.8h-1.97
	C909.51,679.23,909.9,679.5,910.28,679.78z M910.31,672.63c-0.76-0.4-1.54-0.76-2.34-1.09c-1.39,1.49-2.37,3.37-2.76,5.46
	c0.79,0.3,1.55,0.65,2.29,1.03C907.74,675.89,908.78,673.99,910.31,672.63z M911.19,695.11c-2.73-0.79-5.17-2.27-7.09-4.23
	c-0.14-0.14-0.28-0.29-0.42-0.44v15.26c0,1.66,1.97,2.51,3.19,1.39c2.73-2.5,4.45-6.09,4.45-10.1
	C911.32,696.35,911.28,695.72,911.19,695.11z M894.32,675.78l-11.48,11.48c-0.36,0.36-0.84,0.56-1.34,0.56h-9.54
	c-1.05,0-1.9,0.85-1.9,1.9v14.54c0,1.05,0.85,1.9,1.9,1.9h9.54c0.5,0,0.99,0.2,1.34,0.56l11.48,11.48c1.2,1.2,3.24,0.35,3.24-1.35
	v-39.73C897.57,675.43,895.52,674.59,894.32,675.78z"/>
<polygon class="st1" points="916.52,679.15 920.16,681.31 920.78,681.67 920.61,681.97 919.85,683.23 914.71,680.19 914.71,674.14 
	916.52,674.14 "/>
<path class="st1" d="M923.22,687.05c-1.52,1.37-3.42,2.32-5.53,2.67c-0.58,0.09-1.17,0.14-1.77,0.14c-3.01,0-5.72-1.22-7.69-3.19
	l1.72-1.72c1.52,1.53,3.64,2.49,5.97,2.49c0.26,0,0.52-0.01,0.78-0.04c2.16-0.2,4.09-1.21,5.47-2.72c1.44-1.58,2.29-3.71,2.21-6.04
	c-0.16-4.39-3.74-7.97-8.13-8.13c-2.28-0.09-4.36,0.73-5.93,2.11c-1.53,1.36-2.57,3.26-2.81,5.41c-0.04,0.31-0.05,0.62-0.05,0.94
	h3.63l-0.81,0.8l-4.08,4.07l-0.08-0.17l-4.71-4.7h3.63c0-0.67,0.06-1.33,0.18-1.97c0.38-2.09,1.36-3.97,2.76-5.46
	c2.1-2.24,5.12-3.59,8.46-3.44c5.58,0.26,10.1,4.78,10.36,10.36C926.95,681.87,925.54,684.95,923.22,687.05z"/>
<path class="st1" d="M903.68,690.44c0.14,0.15,0.27,0.29,0.42,0.44h-0.42V690.44z"/>
<polygon class="st1" points="916.52,679.15 920.16,681.31 920.78,681.67 920.61,681.97 919.85,683.23 914.71,680.19 914.71,674.14 
	916.52,674.14 "/>
<path class="st1" d="M923.22,687.05c-1.52,1.37-3.42,2.32-5.53,2.67c-0.58,0.09-1.17,0.14-1.77,0.14c-3.01,0-5.72-1.22-7.69-3.19
	l1.72-1.72c1.52,1.53,3.64,2.49,5.97,2.49c0.26,0,0.52-0.01,0.78-0.04c2.16-0.2,4.09-1.21,5.47-2.72c1.44-1.58,2.29-3.71,2.21-6.04
	c-0.16-4.39-3.74-7.97-8.13-8.13c-2.28-0.09-4.36,0.73-5.93,2.11c-1.53,1.36-2.57,3.26-2.81,5.41c-0.04,0.31-0.05,0.62-0.05,0.94
	h3.63l-0.81,0.8l-4.08,4.07l-0.08-0.17l-4.71-4.7h3.63c0-0.67,0.06-1.33,0.18-1.97c0.38-2.09,1.36-3.97,2.76-5.46
	c2.1-2.24,5.12-3.59,8.46-3.44c5.58,0.26,10.1,4.78,10.36,10.36C926.95,681.87,925.54,684.95,923.22,687.05z"/>
<path class="st1" d="M920.16,681.31l-3.64-2.16v-5.01h-1.81v6.05l5.14,3.05l0.76-1.27l0.18-0.29L920.16,681.31z M926.79,678.46
	c-0.26-5.58-4.78-10.1-10.36-10.36c-3.34-0.15-6.37,1.2-8.46,3.44c-1.39,1.49-2.37,3.37-2.76,5.46c-0.12,0.64-0.18,1.3-0.18,1.97
	h-3.63l4.71,4.7l0.08,0.17l4.08-4.07l0.81-0.8h-3.63c0-0.32,0.02-0.63,0.05-0.94c0.24-2.15,1.28-4.05,2.81-5.41
	c1.57-1.39,3.65-2.2,5.93-2.11c4.39,0.16,7.97,3.74,8.13,8.13c0.09,2.33-0.76,4.46-2.21,6.04c-1.38,1.51-3.31,2.52-5.47,2.72
	c-0.26,0.02-0.52,0.04-0.78,0.04c-2.33,0-4.45-0.96-5.97-2.49l-1.72,1.72c1.97,1.97,4.68,3.19,7.69,3.19c0.6,0,1.2-0.05,1.77-0.14
	c2.11-0.35,4.01-1.3,5.53-2.67C925.54,684.95,926.95,681.87,926.79,678.46z M920.16,681.31c0.15,0.22,0.3,0.44,0.45,0.66l0.18-0.29
	L920.16,681.31z M916.52,674.14h-1.81v1.36c0.63,0.5,1.23,1.03,1.81,1.58V674.14z"/>
<g>
	<g>
		<g>
			<path class="st1" d="M951.7,681.76h20.82v3.94H951.7V681.76z M960.05,684.17h4.14v27.1h-4.14V684.17z"/>
			<path class="st1" d="M975.78,681.76h4.14v29.51h-4.14V681.76z M977.79,681.76h16.95v3.94h-16.95V681.76z M977.79,694.65h14.71
				v3.94h-14.71V694.65z M977.79,707.33h16.95v3.94h-16.95V707.33z"/>
			<path class="st1" d="M1021.83,681.76h3.88v29.51h-4.04v-22.1l0.2,1.3l-7.27,16.7h-2.88l-7.27-16.3l0.2-1.7v22.1h-4.04v-29.51
				h3.88l8.67,19.48L1021.83,681.76z"/>
			<path class="st1" d="M1033.01,681.76h4.14v29.51h-4.14V681.76z M1035.14,695.88h9.44c0.89,0,1.68-0.21,2.35-0.63
				c0.68-0.42,1.2-1.02,1.57-1.79c0.37-0.77,0.56-1.66,0.56-2.66c0-1.01-0.19-1.91-0.56-2.68c-0.37-0.77-0.9-1.37-1.57-1.8
				c-0.68-0.43-1.46-0.64-2.35-0.64h-9.44v-3.94h9.3c1.76,0,3.31,0.38,4.65,1.13c1.34,0.75,2.38,1.81,3.12,3.18
				c0.74,1.37,1.11,2.95,1.11,4.75s-0.37,3.38-1.11,4.74c-0.74,1.36-1.78,2.41-3.12,3.16c-1.34,0.74-2.89,1.12-4.65,1.12h-9.3
				V695.88z"/>
			<path class="st1" d="M1063.21,710.22c-1.57-0.9-2.78-2.17-3.64-3.82c-0.86-1.64-1.29-3.55-1.29-5.71v-8.36
				c0-2.17,0.43-4.07,1.29-5.71c0.86-1.64,2.07-2.92,3.64-3.82c1.57-0.9,3.38-1.35,5.44-1.35s3.87,0.45,5.44,1.35
				c1.57,0.9,2.78,2.17,3.64,3.82c0.86,1.64,1.29,3.55,1.29,5.71v8.36c0,2.17-0.43,4.07-1.29,5.71c-0.86,1.64-2.07,2.92-3.64,3.82
				c-1.57,0.9-3.38,1.35-5.44,1.35S1064.78,711.12,1063.21,710.22z M1071.87,706.67c0.93-0.55,1.64-1.33,2.15-2.33
				c0.51-1.01,0.76-2.17,0.76-3.5v-8.65c0-1.33-0.25-2.49-0.76-3.5c-0.51-1.01-1.22-1.79-2.15-2.33s-2-0.82-3.22-0.82
				s-2.29,0.27-3.22,0.82s-1.64,1.33-2.15,2.33c-0.51,1.01-0.76,2.18-0.76,3.5v8.65c0,1.33,0.25,2.49,0.76,3.5
				c0.51,1.01,1.22,1.79,2.15,2.33c0.93,0.55,2,0.82,3.22,0.82S1070.94,707.22,1071.87,706.67z"/>
			<path class="st1" d="M1085.72,681.74h4.14v29.53h-4.14V681.74z M1087.53,694.85h10.07c0.78,0,1.48-0.19,2.09-0.57
				c0.61-0.38,1.08-0.92,1.41-1.61c0.33-0.7,0.5-1.5,0.5-2.41s-0.17-1.71-0.5-2.41c-0.33-0.7-0.8-1.23-1.4-1.61
				c-0.6-0.38-1.3-0.57-2.1-0.57h-10.07v-3.94h9.9c1.71,0,3.2,0.35,4.5,1.05c1.29,0.7,2.29,1.7,3,2.99
				c0.71,1.29,1.07,2.78,1.07,4.48s-0.36,3.18-1.08,4.48c-0.72,1.29-1.72,2.29-3.01,2.99c-1.29,0.7-2.78,1.06-4.48,1.06h-9.9V694.85
				z M1095.57,697.87l4.12-0.93l7.55,14.33h-4.91L1095.57,697.87z"/>
			<path class="st1" d="M1120.86,681.76h3.53l10.88,29.51h-4.47l-8.18-23.81l-8.18,23.81h-4.47L1120.86,681.76z M1114.99,700.86
				h15.53v3.94h-15.53V700.86z"/>
			<path class="st1" d="M1139.73,681.74h4.14v29.53h-4.14V681.74z M1141.54,694.85h10.07c0.78,0,1.48-0.19,2.09-0.57
				c0.61-0.38,1.08-0.92,1.41-1.61c0.33-0.7,0.5-1.5,0.5-2.41s-0.17-1.71-0.5-2.41c-0.33-0.7-0.8-1.23-1.4-1.61
				c-0.6-0.38-1.3-0.57-2.1-0.57h-10.07v-3.94h9.9c1.71,0,3.2,0.35,4.5,1.05c1.29,0.7,2.29,1.7,3,2.99
				c0.71,1.29,1.07,2.78,1.07,4.48s-0.36,3.18-1.08,4.48c-0.72,1.29-1.72,2.29-3.01,2.99c-1.29,0.7-2.78,1.06-4.48,1.06h-9.9V694.85
				z M1149.58,697.87l4.12-0.93l7.55,14.33h-4.91L1149.58,697.87z"/>
			<path class="st1" d="M1175.7,699.27v12h-4.14v-12l-8.99-17.52h4.61l6.46,13.31l6.45-13.31h4.61L1175.7,699.27z"/>
			<path class="st1" d="M1203.17,710.21c-1.55-0.91-2.75-2.19-3.6-3.86c-0.85-1.66-1.28-3.59-1.28-5.78v-8.1
				c0-2.19,0.43-4.12,1.28-5.78s2.05-2.95,3.6-3.87c1.55-0.91,3.35-1.37,5.39-1.37c1.69,0,3.25,0.36,4.67,1.09s2.61,1.75,3.56,3.07
				c0.95,1.33,1.6,2.86,1.94,4.61h-4.24c-0.26-0.92-0.69-1.74-1.29-2.47s-1.31-1.28-2.12-1.67c-0.81-0.39-1.65-0.59-2.52-0.59
				c-1.2,0-2.26,0.29-3.17,0.87c-0.91,0.58-1.61,1.4-2.11,2.45c-0.5,1.05-0.75,2.27-0.75,3.66v8.1c0,1.38,0.25,2.6,0.75,3.65
				c0.5,1.06,1.2,1.87,2.11,2.45c0.91,0.58,1.96,0.86,3.17,0.86c0.88,0,1.72-0.18,2.53-0.55c0.8-0.37,1.51-0.91,2.11-1.62
				c0.6-0.72,1.03-1.57,1.29-2.56h4.24c-0.34,1.75-0.99,3.28-1.95,4.61c-0.96,1.33-2.15,2.35-3.57,3.08
				c-1.42,0.72-2.97,1.09-4.65,1.09C1206.51,711.57,1204.72,711.12,1203.17,710.21z"/>
			<path class="st1" d="M1224.61,681.76h4.14v29.51h-4.14V681.76z M1227.19,694.77h16.38v3.94h-16.38V694.77z M1241.38,681.76h4.14
				v29.51h-4.14V681.76z"/>
			<path class="st1" d="M1260.86,681.76h3.53l10.88,29.51h-4.47l-8.18-23.81l-8.18,23.81h-4.47L1260.86,681.76z M1255,700.86h15.53
				v3.94H1255V700.86z"/>
			<path class="st1" d="M1279.74,681.76h3.75l14.43,22.81l-0.49,0.53v-23.34h4.1v29.49h-3.8l-14.39-22.47l0.49-0.53v23h-4.1V681.76z
				"/>
			<path class="st1" d="M1308.84,681.76h3.75l14.43,22.81l-0.49,0.53v-23.34h4.1v29.49h-3.8l-14.39-22.47l0.49-0.53v23h-4.1V681.76z
				"/>
			<path class="st1" d="M1337.95,681.76h4.14v29.51h-4.14V681.76z M1339.96,681.76h16.95v3.94h-16.95V681.76z M1339.96,694.65h14.71
				v3.94h-14.71V694.65z M1339.96,707.33h16.95v3.94h-16.95V707.33z"/>
			<path class="st1" d="M1362.79,681.76h4.14v29.51h-4.14V681.76z M1364.86,707.33h16.89v3.94h-16.89V707.33z"/>
		</g>
	</g>
</g>
<path class="st0" d="M1473.71,523.73H880.94c-21.88,0-39.61-17.74-39.61-39.61v-21.68c0-21.88,17.74-39.61,39.61-39.61h592.77
	c21.88,0,39.61,17.74,39.61,39.61v21.68C1513.32,505.99,1495.59,523.73,1473.71,523.73z"/>
<path class="st1" d="M903.68,468.07c0.14,0.15,0.27,0.29,0.42,0.44h-0.42V468.07z"/>
<g>
	<g>
		<g>
			<path class="st1" d="M960.04,487.84c-1.55-0.91-2.75-2.19-3.6-3.86c-0.85-1.66-1.28-3.59-1.28-5.78v-8.1
				c0-2.19,0.43-4.12,1.28-5.78s2.05-2.95,3.6-3.87c1.55-0.91,3.35-1.37,5.39-1.37c1.69,0,3.25,0.36,4.67,1.09s2.61,1.75,3.56,3.07
				c0.95,1.33,1.6,2.86,1.94,4.61h-4.24c-0.26-0.92-0.69-1.74-1.29-2.47s-1.31-1.28-2.12-1.67c-0.81-0.39-1.65-0.59-2.52-0.59
				c-1.2,0-2.26,0.29-3.17,0.87c-0.91,0.58-1.61,1.4-2.11,2.45c-0.5,1.05-0.75,2.27-0.75,3.66v8.1c0,1.38,0.25,2.6,0.75,3.65
				c0.5,1.06,1.2,1.87,2.11,2.45c0.91,0.58,1.96,0.86,3.17,0.86c0.88,0,1.72-0.18,2.53-0.55c0.8-0.37,1.51-0.91,2.11-1.62
				c0.6-0.72,1.03-1.57,1.29-2.56h4.24c-0.34,1.75-0.99,3.28-1.95,4.61c-0.96,1.33-2.15,2.35-3.57,3.08
				c-1.42,0.72-2.97,1.09-4.65,1.09C963.38,489.2,961.58,488.75,960.04,487.84z"/>
			<path class="st1" d="M981.48,459.37h4.14v29.53h-4.14V459.37z M983.29,472.48h10.07c0.78,0,1.48-0.19,2.09-0.57
				c0.61-0.38,1.08-0.92,1.41-1.61c0.33-0.7,0.5-1.5,0.5-2.41s-0.17-1.71-0.5-2.41c-0.33-0.7-0.8-1.23-1.4-1.61
				c-0.6-0.38-1.3-0.57-2.1-0.57h-10.07v-3.94h9.9c1.71,0,3.2,0.35,4.5,1.05c1.29,0.7,2.29,1.7,3,2.99
				c0.71,1.29,1.07,2.78,1.07,4.48s-0.36,3.18-1.08,4.48c-0.72,1.29-1.72,2.29-3.01,2.99c-1.29,0.7-2.78,1.06-4.48,1.06h-9.9V472.48
				z M991.32,475.5l4.12-0.93l7.55,14.33h-4.91L991.32,475.5z"/>
			<path class="st1" d="M1008.58,459.39h4.14v29.51h-4.14V459.39z M1010.58,459.39h16.95v3.94h-16.95V459.39z M1010.58,472.28h14.71
				v3.94h-14.71V472.28z M1010.58,484.96h16.95v3.94h-16.95V484.96z"/>
			<path class="st1" d="M1041.46,459.39h3.53l10.88,29.51h-4.47l-8.18-23.81l-8.18,23.81h-4.47L1041.46,459.39z M1035.59,478.49
				h15.53v3.94h-15.53V478.49z"/>
			<path class="st1" d="M1056.27,459.39h20.82v3.94h-20.82V459.39z M1064.61,461.8h4.14v27.1h-4.14V461.8z"/>
			<path class="st1" d="M1080.34,459.39h4.14v29.51h-4.14V459.39z M1082.35,459.39h16.95v3.94h-16.95V459.39z M1082.35,472.28h14.71
				v3.94h-14.71V472.28z M1082.35,484.96h16.95v3.94h-16.95V484.96z"/>
			<path class="st1" d="M1120.62,487.84c-1.55-0.91-2.75-2.19-3.6-3.86c-0.85-1.66-1.28-3.59-1.28-5.78v-8.1
				c0-2.19,0.43-4.12,1.28-5.78s2.05-2.95,3.6-3.87c1.55-0.91,3.35-1.37,5.39-1.37c1.69,0,3.25,0.36,4.67,1.09s2.61,1.75,3.56,3.07
				c0.95,1.33,1.6,2.86,1.94,4.61h-4.24c-0.26-0.92-0.69-1.74-1.29-2.47s-1.31-1.28-2.12-1.67c-0.81-0.39-1.65-0.59-2.52-0.59
				c-1.2,0-2.26,0.29-3.17,0.87c-0.91,0.58-1.61,1.4-2.11,2.45c-0.5,1.05-0.75,2.27-0.75,3.66v8.1c0,1.38,0.25,2.6,0.75,3.65
				c0.5,1.06,1.2,1.87,2.11,2.45c0.91,0.58,1.96,0.86,3.17,0.86c0.88,0,1.72-0.18,2.53-0.55c0.8-0.37,1.51-0.91,2.11-1.62
				c0.6-0.72,1.03-1.57,1.29-2.56h4.24c-0.34,1.75-0.99,3.28-1.95,4.61c-0.96,1.33-2.15,2.35-3.57,3.08
				c-1.42,0.72-2.97,1.09-4.65,1.09C1123.97,489.2,1122.17,488.75,1120.62,487.84z"/>
			<path class="st1" d="M1142.07,459.39h4.14v29.51h-4.14V459.39z M1144.64,472.4h16.38v3.94h-16.38V472.4z M1158.83,459.39h4.14
				v29.51h-4.14V459.39z"/>
			<path class="st1" d="M1178.32,459.39h3.53l10.88,29.51h-4.47l-8.18-23.81l-8.18,23.81h-4.47L1178.32,459.39z M1172.45,478.49
				h15.53v3.94h-15.53V478.49z"/>
			<path class="st1" d="M1197.19,459.39h3.75l14.43,22.81l-0.49,0.53v-23.34h4.1v29.49h-3.8l-14.39-22.47l0.49-0.53v23h-4.1V459.39z
				"/>
			<path class="st1" d="M1226.3,459.39h3.75l14.43,22.81l-0.49,0.53v-23.34h4.1v29.49h-3.8l-14.39-22.47l0.49-0.53v23h-4.1V459.39z"
				/>
			<path class="st1" d="M1255.4,459.39h4.14v29.51h-4.14V459.39z M1257.41,459.39h16.95v3.94h-16.95V459.39z M1257.41,472.28h14.71
				v3.94h-14.71V472.28z M1257.41,484.96h16.95v3.94h-16.95V484.96z"/>
			<path class="st1" d="M1280.25,459.39h4.14v29.51h-4.14V459.39z M1282.32,484.96h16.89v3.94h-16.89V484.96z"/>
		</g>
	</g>
</g>
<path class="st1" d="M901.41,500.73L901.41,500.73c-2.66,0-4.81-2.15-4.81-4.81v-46.53c0-2.66,2.15-4.81,4.81-4.81l0,0
	c2.66,0,4.81,2.15,4.81,4.81v46.53C906.22,498.58,904.06,500.73,901.41,500.73z"/>
<path class="st1" d="M929.48,472.65L929.48,472.65c0,2.66-2.15,4.81-4.81,4.81h-46.53c-2.66,0-4.81-2.15-4.81-4.81l0,0
	c0-2.66,2.15-4.81,4.81-4.81h46.53C927.33,467.84,929.48,470,929.48,472.65z"/>
<g>
	<g>
		<g>
			<path class="st1" d="M1051.65,779.75h20.82v3.94h-20.82V779.75z M1059.99,782.17h4.14v27.1h-4.14V782.17z"/>
			<path class="st1" d="M1080.05,808.22c-1.57-0.9-2.78-2.17-3.64-3.82c-0.86-1.64-1.29-3.55-1.29-5.71v-8.36
				c0-2.17,0.43-4.07,1.29-5.71c0.86-1.64,2.07-2.92,3.64-3.82c1.57-0.9,3.38-1.35,5.44-1.35s3.87,0.45,5.44,1.35
				c1.57,0.9,2.78,2.17,3.64,3.82c0.86,1.64,1.29,3.55,1.29,5.71v8.36c0,2.17-0.43,4.07-1.29,5.71c-0.86,1.64-2.07,2.92-3.64,3.82
				c-1.57,0.9-3.38,1.35-5.44,1.35S1081.62,809.12,1080.05,808.22z M1088.7,804.66c0.93-0.55,1.64-1.33,2.15-2.33
				c0.51-1.01,0.76-2.17,0.76-3.5v-8.65c0-1.33-0.25-2.49-0.76-3.5c-0.51-1.01-1.22-1.79-2.15-2.33s-2-0.82-3.22-0.82
				s-2.29,0.27-3.22,0.82s-1.64,1.33-2.15,2.33c-0.51,1.01-0.76,2.18-0.76,3.5v8.65c0,1.33,0.25,2.49,0.76,3.5
				c0.51,1.01,1.22,1.79,2.15,2.33c0.93,0.55,2,0.82,3.22,0.82S1087.78,805.21,1088.7,804.66z"/>
			<path class="st1" d="M1102.56,779.75h4.12v29.51h-4.12V779.75z M1104.99,805.42h8c2.1,0,3.63-0.4,4.59-1.2
				c0.96-0.8,1.44-1.92,1.44-3.37v-0.06c0-1-0.17-1.86-0.52-2.58c-0.35-0.72-0.89-1.27-1.63-1.65c-0.75-0.39-1.7-0.58-2.86-0.58
				h-9.01v-3.73h9.01c1.53,0,2.68-0.36,3.46-1.08c0.78-0.72,1.17-1.78,1.17-3.19c0-1.47-0.43-2.58-1.3-3.31
				c-0.87-0.73-2.17-1.1-3.9-1.1h-8.44v-3.84h9.19c1.91,0,3.5,0.32,4.79,0.97s2.25,1.57,2.88,2.76s0.95,2.61,0.95,4.26
				c0,1.01-0.2,1.97-0.59,2.85c-0.39,0.89-0.99,1.64-1.8,2.27s-1.8,1.05-2.99,1.27c1.19,0.18,2.22,0.6,3.08,1.27
				c0.87,0.67,1.53,1.51,1.99,2.51s0.69,2.08,0.69,3.25v0.06c0,1.6-0.35,3-1.06,4.22c-0.7,1.22-1.71,2.16-3.02,2.82
				c-1.31,0.66-2.84,0.99-4.59,0.99h-9.54V805.42z"/>
			<path class="st1" d="M1133.53,809.26h-4.14v-29.51h4.14V809.26z"/>
			<path class="st1" d="M1148.87,779.75h3.53l10.88,29.51h-4.47l-8.18-23.81l-8.18,23.81h-4.47L1148.87,779.75z M1143.01,798.85
				h15.53v3.94h-15.53V798.85z"/>
			<path class="st1" d="M1172.58,809.16c-1.27-0.27-2.46-0.68-3.56-1.22s-2.13-1.22-3.09-2.03l2.58-3.17
				c1.12,0.97,2.36,1.71,3.71,2.19c1.35,0.49,2.82,0.73,4.41,0.73c2.14,0,3.79-0.4,4.97-1.19c1.18-0.79,1.77-1.91,1.77-3.36v-0.02
				c0-1.03-0.27-1.84-0.8-2.45c-0.54-0.6-1.22-1.05-2.07-1.34s-1.94-0.56-3.28-0.8c-0.04-0.01-0.08-0.02-0.13-0.02
				s-0.09-0.01-0.13-0.02l-0.3-0.06c-1.98-0.34-3.58-0.72-4.82-1.15c-1.24-0.43-2.3-1.2-3.18-2.33c-0.88-1.13-1.32-2.74-1.32-4.82
				v-0.02c0-1.83,0.41-3.39,1.23-4.68s2.01-2.28,3.58-2.95c1.57-0.68,3.46-1.01,5.66-1.01c1.06,0,2.09,0.12,3.12,0.34
				c1.02,0.23,2.03,0.57,3.02,1.03s1.97,1.02,2.93,1.71l-2.35,3.29c-1.12-0.83-2.24-1.44-3.36-1.86c-1.12-0.41-2.24-0.62-3.36-0.62
				c-2.02,0-3.58,0.4-4.7,1.21c-1.12,0.8-1.67,1.95-1.67,3.42v0.02c0,1.01,0.29,1.81,0.86,2.39c0.58,0.58,1.29,1.01,2.15,1.29
				s2.05,0.57,3.58,0.86c0.05,0.01,0.1,0.02,0.15,0.03c0.05,0.01,0.1,0.02,0.15,0.03c0.07,0.01,0.14,0.03,0.22,0.04
				c0.08,0.01,0.16,0.03,0.22,0.04c1.79,0.37,3.28,0.8,4.47,1.3c1.2,0.5,2.2,1.31,3,2.43c0.81,1.12,1.21,2.64,1.21,4.58v0.04
				c0,1.8-0.43,3.34-1.28,4.62s-2.09,2.25-3.7,2.92c-1.62,0.67-3.57,1-5.86,1C1175.2,809.57,1173.85,809.43,1172.58,809.16z"/>
		</g>
	</g>
</g>
<circle class="st2" cx="992.88" cy="796.52" r="37.73"/>
<circle class="st5" cx="992.88" cy="796.52" r="32.65"/>
<path class="st0" d="M1479.01,1326.97H886.24c-21.88,0-39.61-17.74-39.61-39.61v-252.18c0-21.88,17.74-39.61,39.61-39.61h592.77
	c21.88,0,39.61,17.74,39.61,39.61v252.18C1518.63,1309.24,1500.89,1326.97,1479.01,1326.97z"/>
<path class="st1" d="M909.4,1041.25c1.93,1.96,4.36,3.44,7.09,4.23c0.09,0.62,0.13,1.24,0.13,1.89c0,4.01-1.72,7.61-4.45,10.1
	c-1.22,1.12-3.19,0.26-3.19-1.39v-15.26C909.12,1040.97,909.26,1041.11,909.4,1041.25z"/>
<path class="st1" d="M911.41,1034.05l-4.71-4.7h3.63c0-0.67,0.06-1.33,0.18-1.97c0.38-2.09,1.36-3.97,2.76-5.46
	c2.1-2.24,5.12-3.59,8.46-3.44c5.58,0.26,10.1,4.78,10.36,10.36c0.16,3.41-1.25,6.49-3.57,8.59c-1.52,1.37-3.42,2.32-5.53,2.67
	c-0.58,0.09-1.17,0.14-1.77,0.14c-3.01,0-5.72-1.22-7.69-3.19l1.72-1.72c1.52,1.53,3.64,2.49,5.97,2.49c0.26,0,0.52-0.01,0.78-0.04
	c2.16-0.2,4.09-1.21,5.47-2.72c1.44-1.58,2.29-3.71,2.21-6.04c-0.16-4.39-3.74-7.97-8.13-8.13c-2.28-0.09-4.36,0.73-5.93,2.11
	c-1.53,1.36-2.57,3.26-2.81,5.41c-0.04,0.31-0.05,0.62-0.05,0.94h3.63l-0.81,0.8l-4.08,4.07L911.41,1034.05z"/>
<polygon class="st1" points="921.83,1029.52 925.46,1031.68 926.08,1032.05 925.91,1032.34 925.15,1033.61 920.01,1030.56 
	920.01,1024.51 921.83,1024.51 "/>
<path class="st1" d="M930.11,1043.47c0.18,1.27,0.27,2.58,0.27,3.9c0,12.18-7.92,22.5-18.9,26.11c-1.23,0.41-2.5-0.51-2.5-1.8v-2.43
	c0-0.79,0.49-1.5,1.23-1.77c8.19-3,14.05-10.87,14.05-20.1c0-0.51-0.02-1.02-0.06-1.53
	C926.36,1045.43,928.35,1044.61,930.11,1043.47z"/>
<path class="st1" d="M930.11,1043.47c-1.76,1.15-3.75,1.97-5.9,2.37c0.04,0.5,0.06,1.01,0.06,1.53c0,9.23-5.85,17.1-14.05,20.1
	c-0.74,0.27-1.23,0.98-1.23,1.77v2.43c0,1.3,1.27,2.21,2.5,1.8c10.98-3.61,18.9-13.94,18.9-26.11
	C930.38,1046.04,930.29,1044.74,930.11,1043.47z M923,1040.09c2.11-0.35,4.01-1.3,5.53-2.67c-0.31-0.81-0.66-1.59-1.05-2.36
	c-1.38,1.51-3.31,2.52-5.47,2.72C922.38,1038.53,922.71,1039.3,923,1040.09z M925.91,1032.34c-0.14-0.22-0.29-0.44-0.45-0.66
	l-3.64-2.16v-2.07c-0.58-0.55-1.18-1.08-1.81-1.58v4.69l5.14,3.05L925.91,1032.34z M915.58,1030.15l0.81-0.8h-1.97
	C914.81,1029.6,915.2,1029.87,915.58,1030.15z M915.62,1023c-0.76-0.4-1.54-0.76-2.34-1.09c-1.39,1.49-2.37,3.37-2.76,5.46
	c0.79,0.3,1.55,0.65,2.29,1.03C913.04,1026.26,914.08,1024.36,915.62,1023z M916.49,1045.48c-2.73-0.79-5.17-2.27-7.09-4.23
	c-0.14-0.14-0.28-0.29-0.42-0.44v15.26c0,1.66,1.97,2.51,3.19,1.39c2.73-2.5,4.45-6.09,4.45-10.1
	C916.62,1046.73,916.58,1046.1,916.49,1045.48z M899.63,1026.16l-11.48,11.48c-0.36,0.36-0.84,0.56-1.34,0.56h-9.54
	c-1.05,0-1.9,0.85-1.9,1.9v14.54c0,1.05,0.85,1.9,1.9,1.9h9.54c0.5,0,0.99,0.2,1.34,0.56l11.48,11.48c1.2,1.2,3.24,0.35,3.24-1.35
	v-39.73C902.87,1025.81,900.82,1024.96,899.63,1026.16z"/>
<polygon class="st1" points="921.83,1029.52 925.46,1031.68 926.08,1032.05 925.91,1032.34 925.15,1033.61 920.01,1030.56 
	920.01,1024.51 921.83,1024.51 "/>
<path class="st1" d="M928.52,1037.42c-1.52,1.37-3.42,2.32-5.53,2.67c-0.58,0.09-1.17,0.14-1.77,0.14c-3.01,0-5.72-1.22-7.69-3.19
	l1.72-1.72c1.52,1.53,3.64,2.49,5.97,2.49c0.26,0,0.52-0.01,0.78-0.04c2.16-0.2,4.09-1.21,5.47-2.72c1.44-1.58,2.29-3.71,2.21-6.04
	c-0.16-4.39-3.74-7.97-8.13-8.13c-2.28-0.09-4.36,0.73-5.93,2.11c-1.53,1.36-2.57,3.26-2.81,5.41c-0.04,0.31-0.05,0.62-0.05,0.94
	h3.63l-0.81,0.8l-4.08,4.07l-0.08-0.17l-4.71-4.7h3.63c0-0.67,0.06-1.33,0.18-1.97c0.38-2.09,1.36-3.97,2.76-5.46
	c2.1-2.24,5.12-3.59,8.46-3.44c5.58,0.26,10.1,4.78,10.36,10.36C932.25,1032.24,930.84,1035.32,928.52,1037.42z"/>
<path class="st1" d="M908.98,1040.82c0.14,0.15,0.27,0.29,0.42,0.44h-0.42V1040.82z"/>
<polygon class="st1" points="921.83,1029.52 925.46,1031.68 926.08,1032.05 925.91,1032.34 925.15,1033.61 920.01,1030.56 
	920.01,1024.51 921.83,1024.51 "/>
<path class="st1" d="M928.52,1037.42c-1.52,1.37-3.42,2.32-5.53,2.67c-0.58,0.09-1.17,0.14-1.77,0.14c-3.01,0-5.72-1.22-7.69-3.19
	l1.72-1.72c1.52,1.53,3.64,2.49,5.97,2.49c0.26,0,0.52-0.01,0.78-0.04c2.16-0.2,4.09-1.21,5.47-2.72c1.44-1.58,2.29-3.71,2.21-6.04
	c-0.16-4.39-3.74-7.97-8.13-8.13c-2.28-0.09-4.36,0.73-5.93,2.11c-1.53,1.36-2.57,3.26-2.81,5.41c-0.04,0.31-0.05,0.62-0.05,0.94
	h3.63l-0.81,0.8l-4.08,4.07l-0.08-0.17l-4.71-4.7h3.63c0-0.67,0.06-1.33,0.18-1.97c0.38-2.09,1.36-3.97,2.76-5.46
	c2.1-2.24,5.12-3.59,8.46-3.44c5.58,0.26,10.1,4.78,10.36,10.36C932.25,1032.24,930.84,1035.32,928.52,1037.42z"/>
<path class="st1" d="M925.46,1031.68l-3.64-2.16v-5.01h-1.81v6.05l5.14,3.05l0.76-1.27l0.18-0.29L925.46,1031.68z M932.09,1028.84
	c-0.26-5.58-4.78-10.1-10.36-10.36c-3.34-0.15-6.37,1.2-8.46,3.44c-1.39,1.49-2.37,3.37-2.76,5.46c-0.12,0.64-0.18,1.3-0.18,1.97
	h-3.63l4.71,4.7l0.08,0.17l4.08-4.07l0.81-0.8h-3.63c0-0.32,0.02-0.63,0.05-0.94c0.24-2.15,1.28-4.05,2.81-5.41
	c1.57-1.39,3.65-2.2,5.93-2.11c4.39,0.16,7.97,3.74,8.13,8.13c0.09,2.33-0.76,4.46-2.21,6.04c-1.38,1.51-3.31,2.52-5.47,2.72
	c-0.26,0.02-0.52,0.04-0.78,0.04c-2.33,0-4.45-0.96-5.97-2.49l-1.72,1.72c1.97,1.97,4.68,3.19,7.69,3.19c0.6,0,1.2-0.05,1.77-0.14
	c2.11-0.35,4.01-1.3,5.53-2.67C930.84,1035.32,932.25,1032.24,932.09,1028.84z M925.46,1031.68c0.15,0.22,0.3,0.44,0.45,0.66
	l0.18-0.29L925.46,1031.68z M921.83,1024.51h-1.81v1.36c0.63,0.5,1.23,1.03,1.81,1.58V1024.51z"/>
<g>
	<g>
		<g>
			<path class="st1" d="M957.01,1032.13h20.82v3.94h-20.82V1032.13z M965.35,1034.55h4.14v27.1h-4.14V1034.55z"/>
			<path class="st1" d="M981.08,1032.13h4.14v29.51h-4.14V1032.13z M983.09,1032.13h16.95v3.94h-16.95V1032.13z M983.09,1045.02
				h14.71v3.94h-14.71V1045.02z M983.09,1057.71h16.95v3.94h-16.95V1057.71z"/>
			<path class="st1" d="M1027.13,1032.13h3.88v29.51h-4.04v-22.1l0.2,1.3l-7.27,16.7h-2.88l-7.27-16.3l0.2-1.7v22.1h-4.04v-29.51
				h3.88l8.67,19.48L1027.13,1032.13z"/>
			<path class="st1" d="M1038.32,1032.13h4.14v29.51h-4.14V1032.13z M1040.45,1046.26h9.44c0.89,0,1.68-0.21,2.35-0.63
				c0.68-0.42,1.2-1.02,1.57-1.79c0.37-0.77,0.56-1.66,0.56-2.66c0-1.01-0.19-1.91-0.56-2.68c-0.37-0.77-0.9-1.37-1.57-1.8
				c-0.68-0.43-1.46-0.64-2.35-0.64h-9.44v-3.94h9.3c1.76,0,3.31,0.38,4.65,1.13c1.34,0.75,2.38,1.81,3.12,3.18
				c0.74,1.37,1.11,2.95,1.11,4.75s-0.37,3.38-1.11,4.74c-0.74,1.36-1.78,2.41-3.12,3.16c-1.34,0.74-2.89,1.12-4.65,1.12h-9.3
				V1046.26z"/>
			<path class="st1" d="M1068.52,1060.6c-1.57-0.9-2.78-2.17-3.64-3.82c-0.86-1.64-1.29-3.55-1.29-5.71v-8.36
				c0-2.17,0.43-4.07,1.29-5.71c0.86-1.64,2.07-2.92,3.64-3.82c1.57-0.9,3.38-1.35,5.44-1.35s3.87,0.45,5.44,1.35
				c1.57,0.9,2.78,2.17,3.64,3.82c0.86,1.64,1.29,3.55,1.29,5.71v8.36c0,2.17-0.43,4.07-1.29,5.71c-0.86,1.64-2.07,2.92-3.64,3.82
				c-1.57,0.9-3.38,1.35-5.44,1.35S1070.09,1061.5,1068.52,1060.6z M1077.17,1057.04c0.93-0.55,1.64-1.33,2.15-2.33
				c0.51-1.01,0.76-2.17,0.76-3.5v-8.65c0-1.33-0.25-2.49-0.76-3.5c-0.51-1.01-1.22-1.79-2.15-2.33s-2-0.82-3.22-0.82
				s-2.29,0.27-3.22,0.82s-1.64,1.33-2.15,2.33c-0.51,1.01-0.76,2.18-0.76,3.5v8.65c0,1.33,0.25,2.49,0.76,3.5
				c0.51,1.01,1.22,1.79,2.15,2.33c0.93,0.55,2,0.82,3.22,0.82S1076.25,1057.59,1077.17,1057.04z"/>
			<path class="st1" d="M1091.03,1032.11h4.14v29.53h-4.14V1032.11z M1092.83,1045.22h10.07c0.78,0,1.48-0.19,2.09-0.57
				c0.61-0.38,1.08-0.92,1.41-1.61c0.33-0.7,0.5-1.5,0.5-2.41s-0.17-1.71-0.5-2.41c-0.33-0.7-0.8-1.23-1.4-1.61
				c-0.6-0.38-1.3-0.57-2.1-0.57h-10.07v-3.94h9.9c1.71,0,3.2,0.35,4.5,1.05c1.29,0.7,2.29,1.7,3,2.99
				c0.71,1.29,1.07,2.78,1.07,4.48s-0.36,3.18-1.08,4.48c-0.72,1.29-1.72,2.29-3.01,2.99c-1.29,0.7-2.78,1.06-4.48,1.06h-9.9
				V1045.22z M1100.87,1048.25l4.12-0.93l7.55,14.33h-4.91L1100.87,1048.25z"/>
			<path class="st1" d="M1126.16,1032.13h3.53l10.88,29.51h-4.47l-8.18-23.81l-8.18,23.81h-4.47L1126.16,1032.13z M1120.29,1051.23
				h15.53v3.94h-15.53V1051.23z"/>
			<path class="st1" d="M1145.03,1032.11h4.14v29.53h-4.14V1032.11z M1146.84,1045.22h10.07c0.78,0,1.48-0.19,2.09-0.57
				c0.61-0.38,1.08-0.92,1.41-1.61c0.33-0.7,0.5-1.5,0.5-2.41s-0.17-1.71-0.5-2.41c-0.33-0.7-0.8-1.23-1.4-1.61
				c-0.6-0.38-1.3-0.57-2.1-0.57h-10.07v-3.94h9.9c1.71,0,3.2,0.35,4.5,1.05c1.29,0.7,2.29,1.7,3,2.99
				c0.71,1.29,1.07,2.78,1.07,4.48s-0.36,3.18-1.08,4.48c-0.72,1.29-1.72,2.29-3.01,2.99c-1.29,0.7-2.78,1.06-4.48,1.06h-9.9
				V1045.22z M1154.88,1048.25l4.12-0.93l7.55,14.33h-4.91L1154.88,1048.25z"/>
			<path class="st1" d="M1181,1049.65v12h-4.14v-12l-8.99-17.52h4.61l6.46,13.31l6.45-13.31h4.61L1181,1049.65z"/>
			<path class="st1" d="M1208.47,1060.59c-1.55-0.91-2.75-2.19-3.6-3.86c-0.85-1.66-1.28-3.59-1.28-5.78v-8.1
				c0-2.19,0.43-4.12,1.28-5.78s2.05-2.95,3.6-3.87c1.55-0.91,3.35-1.37,5.39-1.37c1.69,0,3.25,0.36,4.67,1.09s2.61,1.75,3.56,3.07
				c0.95,1.33,1.6,2.86,1.94,4.61h-4.24c-0.26-0.92-0.69-1.74-1.29-2.47s-1.31-1.28-2.12-1.67c-0.81-0.39-1.65-0.59-2.52-0.59
				c-1.2,0-2.26,0.29-3.17,0.87c-0.91,0.58-1.61,1.4-2.11,2.45c-0.5,1.05-0.75,2.27-0.75,3.66v8.1c0,1.38,0.25,2.6,0.75,3.65
				c0.5,1.06,1.2,1.87,2.11,2.45c0.91,0.58,1.96,0.86,3.17,0.86c0.88,0,1.72-0.18,2.53-0.55c0.8-0.37,1.51-0.91,2.11-1.62
				c0.6-0.72,1.03-1.57,1.29-2.56h4.24c-0.34,1.75-0.99,3.28-1.95,4.61c-0.96,1.33-2.15,2.35-3.57,3.08
				c-1.42,0.72-2.97,1.09-4.65,1.09C1211.82,1061.95,1210.02,1061.49,1208.47,1060.59z"/>
			<path class="st1" d="M1229.92,1032.13h4.14v29.51h-4.14V1032.13z M1232.49,1045.14h16.38v3.94h-16.38V1045.14z M1246.68,1032.13
				h4.14v29.51h-4.14V1032.13z"/>
			<path class="st1" d="M1266.16,1032.13h3.53l10.88,29.51h-4.47l-8.18-23.81l-8.18,23.81h-4.47L1266.16,1032.13z M1260.3,1051.23
				h15.53v3.94h-15.53V1051.23z"/>
			<path class="st1" d="M1285.04,1032.13h3.75l14.43,22.81l-0.49,0.53v-23.34h4.1v29.49h-3.8l-14.39-22.47l0.49-0.53v23h-4.1
				V1032.13z"/>
			<path class="st1" d="M1314.15,1032.13h3.75l14.43,22.81l-0.49,0.53v-23.34h4.1v29.49h-3.8l-14.39-22.47l0.49-0.53v23h-4.1
				V1032.13z"/>
			<path class="st1" d="M1343.25,1032.13h4.14v29.51h-4.14V1032.13z M1345.26,1032.13h16.95v3.94h-16.95V1032.13z M1345.26,1045.02
				h14.71v3.94h-14.71V1045.02z M1345.26,1057.71h16.95v3.94h-16.95V1057.71z"/>
			<path class="st1" d="M1368.09,1032.13h4.14v29.51h-4.14V1032.13z M1370.16,1057.71h16.89v3.94h-16.89V1057.71z"/>
		</g>
	</g>
</g>
<g>
	<g>
		<g>
			<path class="st1" d="M1056.96,1130.12h20.82v3.94h-20.82V1130.12z M1065.3,1132.54h4.14v27.1h-4.14V1132.54z"/>
			<path class="st1" d="M1085.17,1159.63h-4.14v-29.51h4.14V1159.63z"/>
			<path class="st1" d="M1113.69,1130.12h3.88v29.51h-4.04v-22.1l0.2,1.3l-7.27,16.7h-2.88l-7.27-16.3l0.2-1.7v22.1h-4.04v-29.51
				h3.88l8.67,19.48L1113.69,1130.12z"/>
		</g>
	</g>
</g>
<circle class="st6" cx="998.19" cy="1146.89" r="32.65"/>
<g>
	<g>
		<g>
			<path class="st1" d="M1061.18,1259.13c-1.31-0.64-2.38-1.53-3.21-2.68l3.39-2.44c0.38,0.66,0.93,1.18,1.64,1.54
				c0.72,0.37,1.55,0.55,2.5,0.55c1.61,0,2.86-0.5,3.75-1.5c0.89-1,1.33-2.41,1.33-4.22v-20.11h4.14v20.13
				c0,2.04-0.36,3.79-1.08,5.24c-0.72,1.45-1.77,2.55-3.15,3.31s-3.04,1.14-4.99,1.14
				C1063.93,1260.09,1062.49,1259.77,1061.18,1259.13z"/>
			<path class="st1" d="M1086.38,1258.8c-1.55-0.86-2.73-2.11-3.54-3.75c-0.81-1.64-1.22-3.62-1.22-5.94v-18.83h4.14v18.98
				c0,2.15,0.54,3.82,1.62,4.99c1.08,1.18,2.61,1.77,4.59,1.77c1.99,0,3.53-0.59,4.62-1.77c1.09-1.18,1.63-2.84,1.63-4.99v-18.98
				h4.14v18.83c0,2.31-0.41,4.29-1.22,5.94c-0.81,1.64-2,2.9-3.55,3.75s-3.43,1.29-5.62,1.29
				C1089.79,1260.09,1087.93,1259.66,1086.38,1258.8z"/>
		</g>
	</g>
</g>
<circle class="st7" cx="998.19" cy="1247.04" r="32.65"/>
<path class="st1" d="M880.48,590.24L880.48,590.24c0.54,0.54,0.54,1.41,0,1.94l-9.39,9.39c-0.54,0.54-1.41,0.54-1.94,0l0,0
	c-0.54-0.54-0.54-1.41,0-1.94l9.39-9.39C879.08,589.71,879.95,589.71,880.48,590.24z"/>
<path class="st1" d="M859.63,590.24L859.63,590.24c0.54-0.54,1.41-0.54,1.94,0l9.39,9.39c0.54,0.54,0.54,1.41,0,1.94l0,0
	c-0.54,0.54-1.41,0.54-1.94,0l-9.39-9.39C859.1,591.65,859.1,590.78,859.63,590.24z"/>
<g>
	<g>
		<g>
			<path class="st1" d="M896.33,586.12h13.86v2.62h-13.86V586.12z M901.88,587.72h2.76v18.03h-2.76V587.72z"/>
			<path class="st1" d="M915.22,605.06c-1.04-0.6-1.85-1.45-2.42-2.54c-0.57-1.09-0.86-2.36-0.86-3.8v-5.56
				c0-1.44,0.29-2.71,0.86-3.8c0.57-1.09,1.38-1.94,2.42-2.54s2.25-0.9,3.62-0.9c1.37,0,2.58,0.3,3.62,0.9
				c1.04,0.6,1.85,1.45,2.42,2.54c0.57,1.09,0.86,2.36,0.86,3.8v5.56c0,1.44-0.29,2.71-0.86,3.8c-0.57,1.09-1.38,1.94-2.42,2.54
				c-1.04,0.6-2.25,0.9-3.62,0.9C917.47,605.96,916.27,605.66,915.22,605.06z M920.98,602.7c0.62-0.37,1.09-0.88,1.43-1.55
				c0.34-0.67,0.51-1.45,0.51-2.33v-5.75c0-0.88-0.17-1.66-0.51-2.33c-0.34-0.67-0.81-1.19-1.43-1.55
				c-0.62-0.36-1.33-0.55-2.14-0.55c-0.81,0-1.52,0.18-2.14,0.55c-0.62,0.36-1.09,0.88-1.43,1.55c-0.34,0.67-0.51,1.45-0.51,2.33
				v5.75c0,0.88,0.17,1.66,0.51,2.33c0.34,0.67,0.82,1.19,1.43,1.55c0.62,0.36,1.33,0.55,2.14,0.55
				C919.65,603.24,920.36,603.06,920.98,602.7z"/>
			<path class="st1" d="M930.2,586.12h2.74v19.64h-2.74V586.12z M931.82,603.2h5.32c1.4,0,2.41-0.27,3.05-0.8
				c0.64-0.53,0.96-1.28,0.96-2.24v-0.04c0-0.67-0.11-1.24-0.34-1.71c-0.23-0.48-0.59-0.84-1.09-1.1c-0.5-0.26-1.13-0.38-1.9-0.38
				h-6v-2.48h6c1.02,0,1.79-0.24,2.3-0.72c0.52-0.48,0.78-1.18,0.78-2.12c0-0.98-0.29-1.71-0.87-2.2s-1.44-0.73-2.59-0.73h-5.62
				v-2.55h6.12c1.27,0,2.33,0.22,3.19,0.65c0.85,0.43,1.49,1.04,1.92,1.84c0.42,0.79,0.63,1.74,0.63,2.84c0,0.68-0.13,1.31-0.39,1.9
				c-0.26,0.59-0.66,1.09-1.2,1.51c-0.54,0.42-1.2,0.7-1.99,0.84c0.79,0.12,1.48,0.4,2.05,0.84c0.58,0.45,1.02,1,1.32,1.67
				c0.31,0.67,0.46,1.39,0.46,2.16v0.04c0,1.06-0.23,2-0.7,2.81s-1.14,1.44-2.01,1.88c-0.87,0.44-1.89,0.66-3.05,0.66h-6.35V603.2z"
				/>
			<path class="st1" d="M950.81,605.75h-2.76v-19.64h2.76V605.75z"/>
			<path class="st1" d="M961.02,586.12h2.35l7.24,19.64h-2.97l-5.44-15.84l-5.44,15.84h-2.97L961.02,586.12z M957.12,598.83h10.33
				v2.62h-10.33V598.83z"/>
			<path class="st1" d="M976.79,605.69c-0.85-0.18-1.64-0.45-2.37-0.81c-0.73-0.36-1.42-0.81-2.06-1.35l1.71-2.11
				c0.75,0.65,1.57,1.13,2.47,1.46s1.88,0.49,2.93,0.49c1.42,0,2.53-0.26,3.31-0.79s1.17-1.27,1.17-2.24v-0.01
				c0-0.68-0.18-1.23-0.53-1.63s-0.81-0.7-1.38-0.89c-0.56-0.19-1.29-0.37-2.18-0.53c-0.03-0.01-0.06-0.01-0.09-0.01
				s-0.06,0-0.09-0.01l-0.2-0.04c-1.31-0.23-2.38-0.48-3.21-0.76c-0.82-0.28-1.53-0.8-2.11-1.55c-0.59-0.75-0.88-1.82-0.88-3.21
				v-0.01c0-1.22,0.27-2.25,0.82-3.11c0.54-0.86,1.34-1.51,2.38-1.96c1.04-0.45,2.3-0.68,3.77-0.68c0.7,0,1.39,0.08,2.07,0.23
				c0.68,0.15,1.35,0.38,2.01,0.68c0.66,0.3,1.31,0.68,1.95,1.14l-1.57,2.19c-0.75-0.55-1.49-0.96-2.24-1.24
				c-0.74-0.27-1.49-0.41-2.24-0.41c-1.34,0-2.38,0.27-3.13,0.8c-0.74,0.54-1.11,1.29-1.11,2.28v0.01c0,0.68,0.19,1.21,0.57,1.59
				c0.38,0.39,0.86,0.67,1.43,0.86c0.57,0.18,1.37,0.38,2.38,0.57c0.04,0.01,0.07,0.02,0.1,0.02s0.07,0.01,0.1,0.02
				c0.04,0.01,0.09,0.02,0.15,0.03c0.05,0.01,0.1,0.02,0.15,0.03c1.19,0.24,2.18,0.53,2.98,0.86s1.46,0.87,2,1.61
				c0.54,0.74,0.8,1.76,0.8,3.04v0.03c0,1.2-0.28,2.22-0.85,3.07c-0.57,0.85-1.39,1.5-2.46,1.95c-1.08,0.45-2.38,0.67-3.9,0.67
				C978.54,605.96,977.64,605.87,976.79,605.69z"/>
		</g>
	</g>
</g>
<path class="st0" d="M1496.11,971.51h-625.7c-12.79,0-23.15-10.37-23.15-23.15l0,0c0-12.79,10.37-23.15,23.15-23.15h625.7
	c12.79,0,23.15,10.37,23.15,23.15l0,0C1519.26,961.14,1508.89,971.51,1496.11,971.51z"/>
<path class="st1" d="M886.42,942.69L886.42,942.69c0.54,0.54,0.54,1.41,0,1.94l-9.39,9.39c-0.54,0.54-1.41,0.54-1.94,0l0,0
	c-0.54-0.54-0.54-1.41,0-1.94l9.39-9.39C885.01,942.15,885.88,942.15,886.42,942.69z"/>
<path class="st1" d="M865.57,942.69L865.57,942.69c0.54-0.54,1.41-0.54,1.94,0l9.39,9.39c0.54,0.54,0.54,1.41,0,1.94l0,0
	c-0.54,0.54-1.41,0.54-1.94,0l-9.39-9.39C865.03,944.09,865.03,943.22,865.57,942.69z"/>
<g>
	<g>
		<g>
			<path class="st1" d="M902.26,938.56h13.86v2.62h-13.86V938.56z M907.81,940.17h2.76v18.03h-2.76V940.17z"/>
			<path class="st1" d="M921.04,958.2h-2.76v-19.64h2.76V958.2z"/>
			<path class="st1" d="M940.01,938.56h2.58v19.64h-2.69v-14.71l0.13,0.87l-4.83,11.11h-1.92l-4.83-10.84l0.13-1.13v14.71h-2.69
				v-19.64h2.58l5.77,12.96L940.01,938.56z"/>
		</g>
	</g>
</g>
</svg>
