<?xml version="1.0" encoding="utf-8"?>
<!-- Generator: Adobe Illustrator 25.0.0, SVG Export Plug-In . SVG Version: 6.00 Build 0)  -->
<svg version="1.1" id="Layer_1" xmlns="http://www.w3.org/2000/svg" xmlns:xlink="http://www.w3.org/1999/xlink" x="0px" y="0px"
	 viewBox="0 0 1615.65 1017.97" style="enable-background:new 0 0 1615.65 1017.97;" xml:space="preserve">
<style type="text/css">
	.st0{fill:#2F3136;}
	.st1{fill:#72767D;}
	.st2{fill:#4FDC7C;}
	.st3{fill:#5764F4;}
	.st4{fill:#202225;}
	.st5{fill:#EB459E;}
</style>
<g>
	<g>
		<g>
			<path class="st1" d="M790.49,887.46c-2.65-1.47-4.67-3.61-6.06-6.43c-1.39-2.82-2.08-6.2-2.08-10.17v-32.25h7.09v32.49
				c0,3.68,0.93,6.53,2.78,8.55c1.85,2.02,4.47,3.02,7.85,3.02c3.41,0,6.04-1.01,7.91-3.02c1.86-2.02,2.8-4.87,2.8-8.55v-32.49h7.09
				v32.25c0,3.96-0.7,7.35-2.08,10.17c-1.39,2.81-3.42,4.96-6.08,6.43c-2.66,1.47-5.87,2.21-9.63,2.21
				C796.34,889.67,793.15,888.93,790.49,887.46z"/>
			<path class="st1" d="M837.95,888.97c-2.18-0.46-4.21-1.16-6.1-2.08c-1.89-0.93-3.65-2.08-5.3-3.48l4.41-5.42
				c1.92,1.67,4.04,2.92,6.36,3.75s4.83,1.25,7.54,1.25c3.66,0,6.5-0.68,8.51-2.03s3.02-3.27,3.02-5.75v-0.03
				c0-1.76-0.46-3.16-1.37-4.19c-0.92-1.03-2.1-1.79-3.54-2.29c-1.45-0.5-3.32-0.96-5.61-1.37c-0.07-0.02-0.14-0.04-0.23-0.04
				c-0.08,0-0.16-0.01-0.23-0.04l-0.52-0.1c-3.38-0.58-6.13-1.23-8.25-1.96s-3.93-2.06-5.44-4s-2.26-4.69-2.26-8.25v-0.03
				c0-3.13,0.7-5.8,2.1-8.01c1.4-2.21,3.45-3.9,6.13-5.06c2.69-1.16,5.92-1.74,9.7-1.74c1.81,0,3.58,0.2,5.33,0.59
				c1.75,0.39,3.48,0.98,5.18,1.75c1.7,0.78,3.38,1.75,5.02,2.94l-4.03,5.63c-1.92-1.41-3.84-2.47-5.75-3.18
				c-1.91-0.71-3.83-1.06-5.75-1.06c-3.45,0-6.13,0.69-8.04,2.07c-1.91,1.38-2.87,3.33-2.87,5.86v0.04c0,1.74,0.49,3.1,1.48,4.1
				c0.98,1,2.21,1.73,3.68,2.21c1.47,0.48,3.51,0.97,6.13,1.48c0.09,0.02,0.18,0.04,0.26,0.05c0.08,0.01,0.17,0.03,0.26,0.05
				c0.12,0.02,0.24,0.05,0.38,0.07c0.14,0.02,0.27,0.05,0.38,0.07c3.06,0.62,5.61,1.37,7.66,2.22c2.05,0.86,3.76,2.24,5.14,4.15
				c1.38,1.91,2.07,4.52,2.07,7.84v0.07c0,3.08-0.73,5.72-2.19,7.91c-1.46,2.19-3.57,3.86-6.34,5c-2.77,1.15-6.11,1.72-10.03,1.72
				C842.43,889.67,840.12,889.43,837.95,888.97z"/>
			<path class="st1" d="M873.5,838.62h7.09v50.53h-7.09V838.62z M876.94,838.62h29.02v6.74h-29.02V838.62z M876.94,860.68h25.19
				v6.74h-25.19V860.68z M876.94,882.4h29.02v6.74h-29.02V882.4z"/>
			<path class="st1" d="M916.03,838.58h7.09v50.56h-7.09V838.58z M919.12,861.03h17.24c1.34,0,2.54-0.32,3.58-0.97
				c1.04-0.65,1.85-1.57,2.42-2.76c0.57-1.19,0.85-2.57,0.85-4.12c0-1.55-0.28-2.92-0.85-4.12c-0.57-1.19-1.37-2.11-2.4-2.76
				c-1.03-0.65-2.23-0.97-3.6-0.97h-17.24v-6.74h16.96c2.92,0,5.48,0.6,7.7,1.81c2.21,1.21,3.93,2.91,5.14,5.13
				c1.22,2.21,1.82,4.77,1.82,7.66c0,2.9-0.61,5.45-1.84,7.66c-1.23,2.21-2.95,3.92-5.16,5.13c-2.21,1.21-4.77,1.81-7.66,1.81
				h-16.96V861.03z M932.89,866.21l7.05-1.6l12.93,24.53h-8.41L932.89,866.21z"/>
			<path class="st1" d="M980.84,838.62h9.52v50.53h-9.52V838.62z M985.01,879.97h16.12c2.18,0,3.86-0.53,5.06-1.58
				c1.19-1.05,1.79-2.53,1.79-4.43v-0.1c0-1.27-0.27-2.36-0.8-3.27c-0.53-0.9-1.32-1.59-2.35-2.07c-1.03-0.47-2.26-0.71-3.7-0.71
				h-16.12v-9.17h16.12c1.97,0,3.49-0.5,4.57-1.49s1.62-2.4,1.62-4.21c0-1.62-0.54-2.88-1.62-3.79c-1.08-0.9-2.6-1.36-4.57-1.36
				h-16.12v-9.17h16.44c3.27,0,6.06,0.54,8.38,1.62c2.32,1.08,4.08,2.64,5.28,4.69c1.2,2.05,1.81,4.51,1.81,7.38
				c0,1.97-0.39,3.71-1.16,5.23c-0.78,1.52-1.91,2.76-3.39,3.74c-1.48,0.97-3.27,1.63-5.35,1.98c2.22,0.3,4.13,0.98,5.72,2.03
				c1.59,1.05,2.79,2.43,3.61,4.12c0.82,1.69,1.23,3.65,1.23,5.87v0.1c0,2.9-0.61,5.38-1.82,7.44c-1.22,2.06-2.99,3.63-5.32,4.71
				c-2.33,1.08-5.12,1.62-8.39,1.62h-17.03V879.97z"/>
			<path class="st1" d="M1026.78,838.62h9.52v50.53h-9.52V838.62z M1031.02,879.97h29.61v9.17h-29.61V879.97z"/>
			<path class="st1" d="M1082.04,838.62h6.05l19.32,50.53h-10.25l-12.09-34.51l-12.09,34.51h-10.25L1082.04,838.62z M1072,871.87
				h26.58v9.17H1072V871.87z"/>
			<path class="st1" d="M1121.03,887.46c-2.73-1.47-4.82-3.61-6.26-6.43c-1.44-2.82-2.15-6.21-2.15-10.2v-13.87
				c0-3.98,0.72-7.38,2.15-10.2s3.52-4.96,6.26-6.45c2.73-1.48,6.02-2.22,9.87-2.22c3.17,0,6.01,0.68,8.51,2.05s4.57,3.35,6.2,5.96
				c1.63,2.61,2.76,5.75,3.39,9.43h-9.87c-0.37-1.67-0.94-3.09-1.72-4.27s-1.71-2.08-2.81-2.71c-1.1-0.63-2.33-0.94-3.7-0.94
				c-1.78,0-3.3,0.36-4.55,1.09c-1.25,0.73-2.21,1.79-2.87,3.2c-0.66,1.4-0.99,3.09-0.99,5.06v13.87c0,1.97,0.33,3.65,0.99,5.04
				c0.66,1.39,1.62,2.45,2.87,3.18c1.25,0.73,2.77,1.09,4.55,1.09c1.39,0,2.64-0.31,3.75-0.92c1.11-0.61,2.05-1.51,2.81-2.69
				c0.76-1.18,1.32-2.62,1.67-4.31h9.87c-0.65,3.68-1.79,6.83-3.42,9.43c-1.63,2.61-3.7,4.59-6.19,5.96
				c-2.49,1.37-5.32,2.05-8.5,2.05C1127.05,889.67,1123.76,888.93,1121.03,887.46z"/>
			<path class="st1" d="M1157.69,838.62h9.52v50.53h-9.52V838.62z M1163.42,869.41l20.26-30.79h11.99l-31.03,43.16L1163.42,869.41z
				 M1171.83,863.57l8.2-5.18l17.76,30.75h-11.29L1171.83,863.57z"/>
			<path class="st1" d="M1203.35,838.62h9.52v50.53h-9.52V838.62z M1207.59,879.97h29.61v9.17h-29.61V879.97z"/>
			<path class="st1" d="M1253.33,889.15h-9.87v-50.53h9.87V889.15z"/>
			<path class="st1" d="M1272.56,888.94c-2.3-0.49-4.47-1.2-6.5-2.14s-3.84-2.07-5.44-3.39l4.41-7.85c1.95,1.6,4.19,2.83,6.74,3.7
				c2.55,0.87,5.17,1.3,7.85,1.3c3.1,0,5.51-0.53,7.23-1.58c1.71-1.05,2.57-2.54,2.57-4.46v-0.04c0-1.34-0.38-2.41-1.15-3.2
				c-0.76-0.79-1.76-1.37-2.99-1.74c-1.23-0.37-2.8-0.71-4.73-1.01c-0.07-0.02-0.13-0.04-0.19-0.04s-0.12-0.01-0.19-0.03l-0.76-0.1
				c-3.38-0.53-6.19-1.2-8.41-2c-2.22-0.8-4.11-2.2-5.66-4.21c-1.55-2-2.33-4.85-2.33-8.53v-0.04c0-3.27,0.73-6.06,2.19-8.38
				c1.46-2.32,3.58-4.08,6.36-5.3c2.78-1.22,6.14-1.83,10.08-1.83c1.81,0,3.65,0.21,5.54,0.63c1.89,0.42,3.74,1.02,5.54,1.81
				c1.81,0.79,3.52,1.74,5.14,2.85l-4.03,8.06c-1.95-1.34-3.98-2.39-6.1-3.13c-2.12-0.74-4.15-1.11-6.1-1.11
				c-2.92,0-5.18,0.48-6.78,1.44c-1.6,0.96-2.4,2.31-2.4,4.05v0.04c0,1.46,0.42,2.61,1.25,3.46s1.86,1.46,3.09,1.86
				c1.23,0.39,2.95,0.81,5.18,1.25c0.09,0.02,0.18,0.04,0.28,0.05s0.19,0.03,0.28,0.05c0.14,0.02,0.27,0.05,0.4,0.09
				c0.13,0.04,0.26,0.06,0.4,0.09c3.2,0.63,5.87,1.38,8.01,2.28c2.14,0.89,3.93,2.33,5.37,4.31c1.44,1.98,2.15,4.69,2.15,8.12v0.07
				c0,3.22-0.75,5.98-2.26,8.27s-3.7,4.04-6.58,5.25c-2.88,1.21-6.35,1.81-10.41,1.81C1277.22,889.67,1274.87,889.42,1272.56,888.94
				z"/>
			<path class="st1" d="M1300.62,838.62h37.04v9.17h-37.04V838.62z M1314.38,842.75h9.52v46.39h-9.52V842.75z"/>
		</g>
	</g>
</g>
<g>
	<g>
		<g>
			<path class="st1" d="M881.92,202.92c-2.65-1.47-4.67-3.61-6.06-6.43c-1.39-2.82-2.08-6.2-2.08-10.17v-32.25h7.09v32.49
				c0,3.68,0.93,6.53,2.78,8.55c1.85,2.02,4.47,3.02,7.85,3.02c3.41,0,6.04-1.01,7.91-3.02c1.86-2.02,2.8-4.87,2.8-8.55v-32.49h7.09
				v32.25c0,3.96-0.7,7.35-2.08,10.17c-1.39,2.81-3.42,4.96-6.08,6.43c-2.66,1.47-5.87,2.21-9.63,2.21
				C887.77,205.13,884.57,204.39,881.92,202.92z"/>
			<path class="st1" d="M929.38,204.43c-2.18-0.46-4.21-1.16-6.1-2.08c-1.89-0.93-3.65-2.08-5.3-3.48l4.41-5.42
				c1.92,1.67,4.04,2.92,6.36,3.75s4.83,1.25,7.54,1.25c3.66,0,6.5-0.68,8.51-2.03s3.02-3.27,3.02-5.75v-0.03
				c0-1.76-0.46-3.16-1.37-4.19c-0.92-1.03-2.1-1.79-3.54-2.29c-1.45-0.5-3.32-0.96-5.61-1.37c-0.07-0.02-0.14-0.04-0.23-0.04
				c-0.08,0-0.16-0.01-0.23-0.04l-0.52-0.1c-3.38-0.58-6.13-1.23-8.25-1.96s-3.93-2.06-5.44-4s-2.26-4.69-2.26-8.25v-0.03
				c0-3.13,0.7-5.8,2.1-8.01c1.4-2.21,3.45-3.9,6.13-5.06c2.69-1.16,5.92-1.74,9.7-1.74c1.81,0,3.58,0.2,5.33,0.59
				c1.75,0.39,3.48,0.98,5.18,1.75c1.7,0.78,3.38,1.75,5.02,2.94l-4.03,5.63c-1.92-1.41-3.84-2.47-5.75-3.18
				c-1.91-0.71-3.83-1.06-5.75-1.06c-3.45,0-6.13,0.69-8.04,2.07c-1.91,1.38-2.87,3.33-2.87,5.86v0.04c0,1.74,0.49,3.1,1.48,4.1
				c0.98,1,2.21,1.73,3.68,2.21c1.47,0.48,3.51,0.97,6.13,1.48c0.09,0.02,0.18,0.04,0.26,0.05c0.08,0.01,0.17,0.03,0.26,0.05
				c0.12,0.02,0.24,0.05,0.38,0.07c0.14,0.02,0.27,0.05,0.38,0.07c3.06,0.62,5.61,1.37,7.66,2.22c2.05,0.86,3.76,2.24,5.14,4.15
				c1.38,1.91,2.07,4.52,2.07,7.84v0.07c0,3.08-0.73,5.72-2.19,7.91c-1.46,2.19-3.57,3.86-6.34,5c-2.77,1.15-6.11,1.72-10.03,1.72
				C933.86,205.13,931.55,204.89,929.38,204.43z"/>
			<path class="st1" d="M964.92,154.08h7.09v50.53h-7.09V154.08z M968.37,154.08h29.02v6.74h-29.02V154.08z M968.37,176.14h25.19
				v6.74h-25.19V176.14z M968.37,197.86h29.02v6.74h-29.02V197.86z"/>
			<path class="st1" d="M1007.46,154.04h7.09v50.56h-7.09V154.04z M1010.55,176.49h17.24c1.34,0,2.54-0.32,3.58-0.97
				c1.04-0.65,1.85-1.57,2.42-2.76c0.57-1.19,0.85-2.57,0.85-4.12c0-1.55-0.28-2.92-0.85-4.12c-0.57-1.19-1.37-2.11-2.4-2.76
				c-1.03-0.65-2.23-0.97-3.6-0.97h-17.24v-6.74h16.96c2.92,0,5.48,0.6,7.7,1.81c2.21,1.21,3.93,2.91,5.14,5.13
				c1.22,2.21,1.82,4.77,1.82,7.66c0,2.9-0.61,5.45-1.84,7.66c-1.23,2.21-2.95,3.92-5.16,5.13c-2.21,1.21-4.77,1.81-7.66,1.81
				h-16.96V176.49z M1024.31,181.67l7.05-1.6l12.93,24.53h-8.41L1024.31,181.67z"/>
			<path class="st1" d="M1093.02,154.08h7.65l9.66,33.71l6.5-33.71h9.8l-11.64,50.53h-8.97l-8.97-35.31l-9.38,35.31h-8.97
				l-11.64-50.53h9.8l6.5,33.71L1093.02,154.08z"/>
			<path class="st1" d="M1132.53,154.08h9.52v50.53h-9.52V154.08z M1136.94,174.96h29.43v9.17h-29.43V174.96z M1160.19,154.08h9.52
				v50.53h-9.52V154.08z"/>
			<path class="st1" d="M1190.01,204.61h-9.87v-50.53h9.87V204.61z"/>
			<path class="st1" d="M1193.48,154.08h37.04v9.17h-37.04V154.08z M1207.24,158.21h9.52v46.39h-9.52V158.21z"/>
			<path class="st1" d="M1234.7,154.08h9.52v50.53h-9.52V154.08z M1238.14,154.08h30.41v9.17h-30.41V154.08z M1238.14,174.93h26.58
				v9.17h-26.58V174.93z M1238.14,195.43h30.41v9.17h-30.41V195.43z"/>
			<path class="st1" d="M1277.23,154.08h9.52v50.53h-9.52V154.08z M1281.47,195.43h29.61v9.17h-29.61V195.43z"/>
			<path class="st1" d="M1327.21,204.61h-9.87v-50.53h9.87V204.61z"/>
			<path class="st1" d="M1346.44,204.4c-2.3-0.49-4.47-1.2-6.5-2.14s-3.84-2.07-5.44-3.39l4.41-7.85c1.95,1.6,4.19,2.83,6.74,3.7
				c2.55,0.87,5.17,1.3,7.85,1.3c3.1,0,5.51-0.53,7.23-1.58c1.71-1.05,2.57-2.54,2.57-4.46v-0.04c0-1.34-0.38-2.41-1.15-3.2
				c-0.76-0.79-1.76-1.37-2.99-1.74c-1.23-0.37-2.8-0.71-4.73-1.01c-0.07-0.02-0.13-0.04-0.19-0.04s-0.12-0.01-0.19-0.03l-0.76-0.1
				c-3.38-0.53-6.19-1.2-8.41-2c-2.22-0.8-4.11-2.2-5.66-4.21c-1.55-2-2.33-4.85-2.33-8.53v-0.04c0-3.27,0.73-6.06,2.19-8.38
				c1.46-2.32,3.58-4.08,6.36-5.3c2.78-1.22,6.14-1.83,10.08-1.83c1.81,0,3.65,0.21,5.54,0.63c1.89,0.42,3.74,1.02,5.54,1.81
				c1.81,0.79,3.52,1.74,5.14,2.85l-4.03,8.06c-1.95-1.34-3.98-2.39-6.1-3.13c-2.12-0.74-4.15-1.11-6.1-1.11
				c-2.92,0-5.18,0.48-6.78,1.44c-1.6,0.96-2.4,2.31-2.4,4.05v0.04c0,1.46,0.42,2.61,1.25,3.46s1.86,1.46,3.09,1.86
				c1.23,0.39,2.95,0.81,5.18,1.25c0.09,0.02,0.18,0.04,0.28,0.05s0.19,0.03,0.28,0.05c0.14,0.02,0.27,0.05,0.4,0.09
				c0.13,0.04,0.26,0.06,0.4,0.09c3.2,0.63,5.87,1.38,8.01,2.28c2.14,0.89,3.93,2.33,5.37,4.31c1.44,1.98,2.15,4.69,2.15,8.12v0.07
				c0,3.22-0.75,5.98-2.26,8.27s-3.7,4.04-6.58,5.25c-2.88,1.21-6.35,1.81-10.41,1.81C1351.1,205.13,1348.75,204.88,1346.44,204.4z"
				/>
			<path class="st1" d="M1374.5,154.08h37.04v9.17h-37.04V154.08z M1388.26,158.21h9.52v46.39h-9.52V158.21z"/>
		</g>
	</g>
</g>
<g>
	<g>
		<g>
			<path class="st1" d="M115.77,316.67c-2.65-1.55-4.71-3.75-6.17-6.6c-1.46-2.85-2.19-6.15-2.19-9.9V286.3
				c0-3.75,0.73-7.05,2.19-9.9c1.46-2.85,3.51-5.06,6.17-6.62c2.65-1.56,5.73-2.35,9.23-2.35c2.9,0,5.56,0.62,7.99,1.86
				c2.43,1.24,4.47,3,6.1,5.26c1.63,2.27,2.74,4.9,3.32,7.89h-7.26c-0.44-1.58-1.18-2.98-2.21-4.22c-1.03-1.24-2.24-2.2-3.63-2.87
				c-1.39-0.67-2.83-1.01-4.31-1.01c-2.06,0-3.87,0.5-5.42,1.49c-1.55,1-2.76,2.39-3.61,4.19c-0.86,1.8-1.29,3.89-1.29,6.27v13.87
				c0,2.36,0.43,4.45,1.29,6.25c0.86,1.81,2.06,3.2,3.61,4.19c1.55,0.99,3.36,1.48,5.42,1.48c1.51,0,2.95-0.31,4.33-0.94
				c1.38-0.63,2.58-1.55,3.61-2.78c1.03-1.23,1.77-2.69,2.21-4.38h7.26c-0.58,2.99-1.69,5.62-3.34,7.89
				c-1.65,2.27-3.68,4.03-6.12,5.26S127.87,319,125,319C121.5,319,118.42,318.22,115.77,316.67z"/>
			<path class="st1" d="M152.48,267.95h7.09v50.53h-7.09V267.95z M156.9,290.23h28.04v6.74H156.9V290.23z M181.19,267.95h7.09v50.53
				h-7.09V267.95z"/>
			<path class="st1" d="M214.55,267.95h6.05l18.63,50.53h-7.64l-14-40.76l-14,40.76h-7.65L214.55,267.95z M204.51,300.65h26.58v6.74
				h-26.58V300.65z"/>
			<path class="st1" d="M246.87,267.95h6.43l24.71,39.06l-0.83,0.9v-39.96h7.02v50.49h-6.5l-24.64-38.47l0.83-0.9v39.37h-7.02
				V267.95z"/>
			<path class="st1" d="M296.7,267.95h6.43l24.71,39.06l-0.83,0.9v-39.96h7.02v50.49h-6.5l-24.64-38.47l0.83-0.9v39.37h-7.02V267.95
				z"/>
			<path class="st1" d="M346.53,267.95h7.09v50.53h-7.09V267.95z M349.97,267.95h29.02v6.74h-29.02V267.95z M349.97,290.02h25.19
				v6.74h-25.19V290.02z M349.97,311.74h29.02v6.74h-29.02V311.74z"/>
			<path class="st1" d="M389.07,267.95h7.09v50.53h-7.09V267.95z M392.61,311.74h28.91v6.74h-28.91V311.74z"/>
			<path class="st1" d="M448.29,267.92h9.52v50.56h-9.52V267.92z M452.07,288.97h17.58c0.97,0,1.83-0.24,2.57-0.73
				c0.74-0.49,1.31-1.18,1.72-2.08s0.62-1.95,0.64-3.13c0-1.18-0.2-2.22-0.61-3.13c-0.41-0.9-0.98-1.6-1.72-2.09
				c-0.74-0.49-1.61-0.73-2.61-0.73h-17.58v-9.17h18.35c2.78,0,5.22,0.62,7.33,1.88c2.11,1.25,3.74,3.02,4.9,5.3
				c1.16,2.28,1.74,4.93,1.74,7.94c0,3.01-0.58,5.66-1.74,7.94c-1.16,2.28-2.8,4.05-4.92,5.3s-4.56,1.88-7.32,1.88h-18.35V288.97z
				 M462.71,296.58l10.18-1.6l13.62,23.49h-11.54L462.71,296.58z"/>
			<path class="st1" d="M494.68,267.95h9.52v50.53h-9.52V267.95z M498.12,267.95h30.41v9.17h-30.41V267.95z M498.12,288.8h26.58
				v9.17h-26.58V288.8z M498.12,309.3h30.41v9.17h-30.41V309.3z"/>
			<path class="st1" d="M573.15,290.23v9.87c0,3.75-0.76,7.06-2.28,9.92c-1.52,2.86-3.67,5.07-6.45,6.64
				c-2.78,1.56-6,2.35-9.66,2.35c-3.68,0-6.93-0.74-9.75-2.21c-2.81-1.47-4.99-3.55-6.53-6.24s-2.31-5.8-2.31-9.35V286.3
				c0-3.75,0.76-7.05,2.28-9.9c1.52-2.85,3.67-5.06,6.45-6.62c2.78-1.56,6-2.35,9.66-2.35c3.01,0,5.79,0.62,8.34,1.86
				c2.55,1.24,4.67,3,6.38,5.26c1.7,2.27,2.85,4.9,3.46,7.89h-10.29c-0.35-1.07-0.92-1.99-1.72-2.76c-0.8-0.78-1.74-1.37-2.81-1.77
				c-1.08-0.4-2.2-0.61-3.35-0.61c-1.69,0-3.18,0.37-4.47,1.11c-1.29,0.74-2.28,1.8-2.99,3.16c-0.71,1.37-1.06,2.94-1.06,4.73v14.91
				c0,1.58,0.36,2.97,1.08,4.17c0.72,1.21,1.74,2.13,3.06,2.78c1.32,0.65,2.85,0.97,4.59,0.97c1.71,0,3.21-0.35,4.5-1.06
				c1.29-0.71,2.28-1.73,2.97-3.08s1.04-2.93,1.04-4.76v-0.83h-7.64v-9.17H573.15z"/>
			<path class="st1" d="M592.4,318.48h-9.87v-50.53h9.87V318.48z"/>
			<path class="st1" d="M610.56,316.69c-2.79-1.54-4.95-3.72-6.48-6.53c-1.53-2.81-2.29-6.08-2.29-9.78v-14.32
				c0-3.71,0.76-6.97,2.29-9.78c1.53-2.82,3.69-4.99,6.48-6.53s6.02-2.31,9.68-2.31c3.66,0,6.89,0.77,9.68,2.31s4.95,3.72,6.48,6.53
				c1.53,2.81,2.29,6.08,2.29,9.78v14.32c0,3.71-0.76,6.97-2.29,9.78c-1.53,2.82-3.69,4.99-6.48,6.53
				c-2.79,1.54-6.02,2.31-9.68,2.31C616.57,319,613.35,318.23,610.56,316.69z M624.75,308.38c1.3-0.73,2.3-1.77,3.01-3.11
				c0.71-1.34,1.06-2.9,1.06-4.66v-14.8c0-1.76-0.35-3.31-1.06-4.66c-0.71-1.34-1.71-2.38-3.01-3.11c-1.3-0.73-2.8-1.09-4.52-1.09
				c-1.71,0-3.22,0.36-4.52,1.09c-1.3,0.73-2.3,1.77-3.01,3.11c-0.71,1.34-1.06,2.9-1.06,4.66v14.8c0,1.76,0.35,3.31,1.06,4.66
				c0.71,1.34,1.71,2.38,3.01,3.11c1.3,0.73,2.8,1.09,4.52,1.09C621.95,309.48,623.45,309.11,624.75,308.38z"/>
			<path class="st1" d="M648.76,267.95h11.64l18.8,38.71l-0.83,0.9v-39.62h9.1v50.49h-11.71l-18.73-38.12l0.83-0.9v39.03h-9.1
				V267.95z"/>
		</g>
	</g>
</g>
<g>
	<g>
		<g>
			<path class="st1" d="M933.56,655.58c-2.65-1.55-4.71-3.75-6.17-6.6c-1.46-2.85-2.19-6.15-2.19-9.9v-13.87
				c0-3.75,0.73-7.05,2.19-9.9c1.46-2.85,3.51-5.06,6.17-6.62c2.65-1.56,5.73-2.35,9.23-2.35c2.9,0,5.56,0.62,7.99,1.86
				c2.43,1.24,4.47,3,6.1,5.26c1.63,2.27,2.74,4.9,3.32,7.89h-7.26c-0.44-1.58-1.18-2.98-2.21-4.22c-1.03-1.24-2.24-2.2-3.63-2.87
				c-1.39-0.67-2.83-1.01-4.31-1.01c-2.06,0-3.87,0.5-5.42,1.49c-1.55,1-2.76,2.39-3.61,4.19c-0.86,1.8-1.29,3.89-1.29,6.27v13.87
				c0,2.36,0.43,4.45,1.29,6.25c0.86,1.81,2.06,3.2,3.61,4.19c1.55,0.99,3.36,1.48,5.42,1.48c1.51,0,2.95-0.31,4.33-0.94
				c1.38-0.63,2.58-1.55,3.61-2.78c1.03-1.23,1.77-2.69,2.21-4.38h7.26c-0.58,2.99-1.69,5.62-3.34,7.89
				c-1.65,2.27-3.68,4.03-6.12,5.26s-5.09,1.86-7.96,1.86C939.29,657.91,936.21,657.13,933.56,655.58z"/>
			<path class="st1" d="M970.27,606.86h7.09v50.53h-7.09V606.86z M974.69,629.13h28.04v6.74h-28.04V629.13z M998.98,606.86h7.09
				v50.53h-7.09V606.86z"/>
			<path class="st1" d="M1032.34,606.86h6.05l18.63,50.53h-7.64l-14-40.76l-14,40.76h-7.65L1032.34,606.86z M1022.3,639.56h26.58
				v6.74h-26.58V639.56z"/>
			<path class="st1" d="M1064.66,606.86h6.43l24.71,39.06l-0.83,0.9v-39.96h7.02v50.49h-6.5l-24.64-38.47l0.83-0.9v39.37h-7.02
				V606.86z"/>
			<path class="st1" d="M1114.49,606.86h6.43l24.71,39.06l-0.83,0.9v-39.96h7.02v50.49h-6.5l-24.64-38.47l0.83-0.9v39.37h-7.02
				V606.86z"/>
			<path class="st1" d="M1164.33,606.86h7.09v50.53h-7.09V606.86z M1167.77,606.86h29.02v6.74h-29.02V606.86z M1167.77,628.93h25.19
				v6.74h-25.19V628.93z M1167.77,650.65h29.02v6.74h-29.02V650.65z"/>
			<path class="st1" d="M1206.86,606.86h7.09v50.53h-7.09V606.86z M1210.41,650.65h28.91v6.74h-28.91V650.65z"/>
			<path class="st1" d="M1266.08,606.86h9.52v50.53h-9.52V606.86z M1270.32,648.21h29.61v9.17h-29.61V648.21z"/>
			<path class="st1" d="M1316.05,657.39h-9.87v-50.53h9.87V657.39z"/>
			<path class="st1" d="M1358.27,606.86h12.54v50.53h-8.65v-39.23l0.35,2.22l-9.66,31.38h-8.41l-9.66-30.68l0.35-2.92v39.23h-8.65
				v-50.53h12.54l9.63,34.06L1358.27,606.86z"/>
			<path class="st1" d="M1391.11,657.39h-9.87v-50.53h9.87V657.39z"/>
			<path class="st1" d="M1394.59,606.86h37.04v9.17h-37.04V606.86z M1408.35,611h9.52v46.39h-9.52V611z"/>
		</g>
	</g>
</g>
<g>
	<g>
		<g>
			<path class="st1" d="M192.51,706.63c-2.65-1.55-4.71-3.75-6.17-6.6c-1.46-2.85-2.19-6.15-2.19-9.9v-13.87
				c0-3.75,0.73-7.05,2.19-9.9c1.46-2.85,3.51-5.06,6.17-6.62c2.65-1.56,5.73-2.35,9.23-2.35c2.9,0,5.56,0.62,7.99,1.86
				c2.43,1.24,4.47,3,6.1,5.26c1.63,2.27,2.74,4.9,3.32,7.89h-7.26c-0.44-1.58-1.18-2.98-2.21-4.22c-1.03-1.24-2.24-2.2-3.63-2.87
				c-1.39-0.67-2.83-1.01-4.31-1.01c-2.06,0-3.87,0.5-5.42,1.49c-1.55,1-2.76,2.39-3.61,4.19c-0.86,1.8-1.29,3.89-1.29,6.27v13.87
				c0,2.36,0.43,4.45,1.29,6.25c0.86,1.81,2.06,3.2,3.61,4.19c1.55,0.99,3.36,1.48,5.42,1.48c1.51,0,2.95-0.31,4.33-0.94
				c1.38-0.63,2.58-1.55,3.61-2.78c1.03-1.23,1.77-2.69,2.21-4.38h7.26c-0.58,2.99-1.69,5.62-3.34,7.89
				c-1.65,2.27-3.68,4.03-6.12,5.26s-5.09,1.86-7.96,1.86C198.24,708.96,195.16,708.18,192.51,706.63z"/>
			<path class="st1" d="M229.23,657.91h7.09v50.53h-7.09V657.91z M233.64,680.18h28.04v6.74h-28.04V680.18z M257.93,657.91h7.09
				v50.53h-7.09V657.91z"/>
			<path class="st1" d="M291.29,657.91h6.05l18.63,50.53h-7.64l-14-40.76l-14,40.76h-7.65L291.29,657.91z M281.25,690.61h26.58v6.74
				h-26.58V690.61z"/>
			<path class="st1" d="M323.61,657.91h6.43l24.71,39.06l-0.83,0.9v-39.96h7.02v50.49h-6.5l-24.64-38.47l0.83-0.9v39.37h-7.02
				V657.91z"/>
			<path class="st1" d="M373.44,657.91h6.43l24.71,39.06l-0.83,0.9v-39.96h7.02v50.49h-6.5l-24.64-38.47l0.83-0.9v39.37h-7.02
				V657.91z"/>
			<path class="st1" d="M423.28,657.91h7.09v50.53h-7.09V657.91z M426.72,657.91h29.02v6.74h-29.02V657.91z M426.72,679.97h25.19
				v6.74h-25.19V679.97z M426.72,701.69h29.02v6.74h-29.02V701.69z"/>
			<path class="st1" d="M465.81,657.91h7.09v50.53h-7.09V657.91z M469.36,701.69h28.91v6.74h-28.91V701.69z"/>
			<path class="st1" d="M525.03,657.91h11.64l18.8,38.71l-0.83,0.9v-39.62h9.1v50.49h-11.71l-18.73-38.12l0.83-0.9v39.03h-9.1
				V657.91z"/>
			<path class="st1" d="M589.32,657.91h6.05l19.32,50.53h-10.25l-12.09-34.51l-12.09,34.51H570L589.32,657.91z M579.27,691.16h26.58
				v9.17h-26.58V691.16z"/>
			<path class="st1" d="M652.74,657.91h12.54v50.53h-8.65V669.2l0.35,2.22l-9.66,31.38h-8.41l-9.66-30.68l0.35-2.92v39.23h-8.65
				v-50.53h12.54l9.63,34.06L652.74,657.91z"/>
			<path class="st1" d="M676.4,657.91h9.52v50.53h-9.52V657.91z M679.84,657.91h30.41v9.17h-30.41V657.91z M679.84,678.76h26.58
				v9.17h-26.58V678.76z M679.84,699.26h30.41v9.17h-30.41V699.26z"/>
		</g>
	</g>
</g>
<g>
	<g>
		<g>
			<path class="st1" d="M455.11,488.01c-2.65-1.47-4.67-3.61-6.06-6.43c-1.39-2.82-2.08-6.2-2.08-10.17v-32.25h7.09v32.49
				c0,3.68,0.93,6.53,2.78,8.55c1.85,2.02,4.47,3.02,7.85,3.02c3.41,0,6.04-1.01,7.91-3.02c1.86-2.02,2.8-4.87,2.8-8.55v-32.49h7.09
				v32.25c0,3.96-0.7,7.35-2.08,10.17c-1.39,2.81-3.42,4.96-6.08,6.43c-2.66,1.47-5.87,2.21-9.63,2.21
				C460.95,490.22,457.76,489.49,455.11,488.01z"/>
			<path class="st1" d="M502.56,489.53c-2.18-0.46-4.21-1.16-6.1-2.08c-1.89-0.93-3.65-2.08-5.3-3.48l4.41-5.42
				c1.92,1.67,4.04,2.92,6.36,3.75s4.83,1.25,7.54,1.25c3.66,0,6.5-0.68,8.51-2.03s3.02-3.27,3.02-5.75v-0.03
				c0-1.76-0.46-3.16-1.37-4.19c-0.92-1.03-2.1-1.79-3.54-2.29c-1.45-0.5-3.32-0.96-5.61-1.37c-0.07-0.02-0.14-0.04-0.23-0.04
				c-0.08,0-0.16-0.01-0.23-0.04l-0.52-0.1c-3.38-0.58-6.13-1.23-8.25-1.96s-3.93-2.06-5.44-4s-2.26-4.69-2.26-8.25v-0.03
				c0-3.13,0.7-5.8,2.1-8.01c1.4-2.21,3.45-3.9,6.13-5.06c2.69-1.16,5.92-1.74,9.7-1.74c1.81,0,3.58,0.2,5.33,0.59
				c1.75,0.39,3.48,0.98,5.18,1.75c1.7,0.78,3.38,1.75,5.02,2.94l-4.03,5.63c-1.92-1.41-3.84-2.47-5.75-3.18
				c-1.91-0.71-3.83-1.06-5.75-1.06c-3.45,0-6.13,0.69-8.04,2.07c-1.91,1.38-2.87,3.33-2.87,5.86v0.04c0,1.74,0.49,3.1,1.48,4.1
				c0.98,1,2.21,1.73,3.68,2.21c1.47,0.48,3.51,0.97,6.13,1.48c0.09,0.02,0.18,0.04,0.26,0.05c0.08,0.01,0.17,0.03,0.26,0.05
				c0.12,0.02,0.24,0.05,0.38,0.07c0.14,0.02,0.27,0.05,0.38,0.07c3.06,0.62,5.61,1.37,7.66,2.22c2.05,0.86,3.76,2.24,5.14,4.15
				c1.38,1.91,2.07,4.52,2.07,7.84v0.07c0,3.08-0.73,5.72-2.19,7.91c-1.46,2.19-3.57,3.86-6.34,5c-2.77,1.15-6.11,1.72-10.03,1.72
				C507.05,490.22,504.74,489.99,502.56,489.53z"/>
			<path class="st1" d="M538.11,439.17h7.09v50.53h-7.09V439.17z M541.55,439.17h29.02v6.74h-29.02V439.17z M541.55,461.24h25.19
				v6.74h-25.19V461.24z M541.55,482.96h29.02v6.74h-29.02V482.96z"/>
			<path class="st1" d="M580.65,439.14h7.09v50.56h-7.09V439.14z M583.74,461.59h17.24c1.34,0,2.54-0.32,3.58-0.97
				c1.04-0.65,1.85-1.57,2.42-2.76c0.57-1.19,0.85-2.57,0.85-4.12c0-1.55-0.28-2.92-0.85-4.12c-0.57-1.19-1.37-2.11-2.4-2.76
				c-1.03-0.65-2.23-0.97-3.6-0.97h-17.24v-6.74h16.96c2.92,0,5.48,0.6,7.7,1.81c2.21,1.21,3.93,2.91,5.14,5.13
				c1.22,2.21,1.82,4.77,1.82,7.66c0,2.9-0.61,5.45-1.84,7.66c-1.23,2.21-2.95,3.92-5.16,5.13c-2.21,1.21-4.77,1.81-7.66,1.81
				h-16.96V461.59z M597.5,466.76l7.05-1.6l12.93,24.53h-8.41L597.5,466.76z"/>
			<path class="st1" d="M645.46,439.17h9.52v50.53h-9.52V439.17z M651.19,469.96l20.26-30.79h11.99l-31.03,43.16L651.19,469.96z
				 M659.6,464.12l8.2-5.18l17.76,30.75h-11.29L659.6,464.12z"/>
			<path class="st1" d="M700.3,489.7h-9.87v-50.53h9.87V489.7z"/>
			<path class="st1" d="M718.09,488.01c-2.73-1.47-4.82-3.61-6.26-6.43c-1.44-2.82-2.15-6.21-2.15-10.2v-13.87
				c0-3.98,0.72-7.38,2.15-10.2s3.52-4.96,6.26-6.45c2.73-1.48,6.02-2.22,9.87-2.22c3.17,0,6.01,0.68,8.51,2.05s4.57,3.35,6.2,5.96
				c1.63,2.61,2.76,5.75,3.39,9.43h-9.87c-0.37-1.67-0.94-3.09-1.72-4.27s-1.71-2.08-2.81-2.71c-1.1-0.63-2.33-0.94-3.7-0.94
				c-1.78,0-3.3,0.36-4.55,1.09c-1.25,0.73-2.21,1.79-2.87,3.2c-0.66,1.4-0.99,3.09-0.99,5.06v13.87c0,1.97,0.33,3.65,0.99,5.04
				c0.66,1.39,1.62,2.45,2.87,3.18c1.25,0.73,2.77,1.09,4.55,1.09c1.39,0,2.64-0.31,3.75-0.92c1.11-0.61,2.05-1.51,2.81-2.69
				c0.76-1.18,1.32-2.62,1.67-4.31h9.87c-0.65,3.68-1.79,6.83-3.42,9.43c-1.63,2.61-3.7,4.59-6.19,5.96
				c-2.49,1.37-5.32,2.05-8.5,2.05C724.11,490.22,720.82,489.49,718.09,488.01z"/>
			<path class="st1" d="M754.75,439.17h9.52v50.53h-9.52V439.17z M760.49,469.96l20.26-30.79h11.99l-31.03,43.16L760.49,469.96z
				 M768.9,464.12l8.2-5.18l17.76,30.75h-11.29L768.9,464.12z"/>
		</g>
	</g>
</g>
<g>
	<g>
		<g>
			<path class="st1" d="M942.38,409.95c-2.65-1.47-4.67-3.61-6.06-6.43c-1.39-2.82-2.08-6.2-2.08-10.17v-32.25h7.09v32.49
				c0,3.68,0.93,6.53,2.78,8.55c1.85,2.02,4.47,3.02,7.85,3.02c3.41,0,6.04-1.01,7.91-3.02c1.86-2.02,2.8-4.87,2.8-8.55v-32.49h7.09
				v32.25c0,3.96-0.7,7.35-2.08,10.17c-1.39,2.81-3.42,4.96-6.08,6.43c-2.66,1.47-5.87,2.21-9.63,2.21
				C948.22,412.16,945.03,411.42,942.38,409.95z"/>
			<path class="st1" d="M989.83,411.46c-2.18-0.46-4.21-1.16-6.1-2.08c-1.89-0.93-3.65-2.08-5.3-3.48l4.41-5.42
				c1.92,1.67,4.04,2.92,6.36,3.75s4.83,1.25,7.54,1.25c3.66,0,6.5-0.68,8.51-2.03s3.02-3.27,3.02-5.75v-0.03
				c0-1.76-0.46-3.16-1.37-4.19c-0.92-1.03-2.1-1.79-3.54-2.29c-1.45-0.5-3.32-0.96-5.61-1.37c-0.07-0.02-0.14-0.04-0.23-0.04
				c-0.08,0-0.16-0.01-0.23-0.04l-0.52-0.1c-3.38-0.58-6.13-1.23-8.25-1.96s-3.93-2.06-5.44-4s-2.26-4.69-2.26-8.25v-0.03
				c0-3.13,0.7-5.8,2.1-8.01c1.4-2.21,3.45-3.9,6.13-5.06c2.69-1.16,5.92-1.74,9.7-1.74c1.81,0,3.58,0.2,5.33,0.59
				c1.75,0.39,3.48,0.98,5.18,1.75c1.7,0.78,3.38,1.75,5.02,2.94l-4.03,5.63c-1.92-1.41-3.84-2.47-5.75-3.18
				c-1.91-0.71-3.83-1.06-5.75-1.06c-3.45,0-6.13,0.69-8.04,2.07c-1.91,1.38-2.87,3.33-2.87,5.86v0.04c0,1.74,0.49,3.1,1.48,4.1
				c0.98,1,2.21,1.73,3.68,2.21c1.47,0.48,3.51,0.97,6.13,1.48c0.09,0.02,0.18,0.04,0.26,0.05c0.08,0.01,0.17,0.03,0.26,0.05
				c0.12,0.02,0.24,0.05,0.38,0.07c0.14,0.02,0.27,0.05,0.38,0.07c3.06,0.62,5.61,1.37,7.66,2.22c2.05,0.86,3.76,2.24,5.14,4.15
				c1.38,1.91,2.07,4.52,2.07,7.84v0.07c0,3.08-0.73,5.72-2.19,7.91c-1.46,2.19-3.57,3.86-6.34,5c-2.77,1.15-6.11,1.72-10.03,1.72
				C994.31,412.16,992.01,411.93,989.83,411.46z"/>
			<path class="st1" d="M1025.38,361.11h7.09v50.53h-7.09V361.11z M1028.82,361.11h29.02v6.74h-29.02V361.11z M1028.82,383.18h25.19
				v6.74h-25.19V383.18z M1028.82,404.9h29.02v6.74h-29.02V404.9z"/>
			<path class="st1" d="M1067.92,361.08h7.09v50.56h-7.09V361.08z M1071.01,383.53h17.24c1.34,0,2.54-0.32,3.58-0.97
				c1.04-0.65,1.85-1.57,2.42-2.76c0.57-1.19,0.85-2.57,0.85-4.12c0-1.55-0.28-2.92-0.85-4.12c-0.57-1.19-1.37-2.11-2.4-2.76
				c-1.03-0.65-2.23-0.97-3.6-0.97h-17.24v-6.74h16.96c2.92,0,5.48,0.6,7.7,1.81c2.21,1.21,3.93,2.91,5.14,5.13
				c1.22,2.21,1.82,4.77,1.82,7.66c0,2.9-0.61,5.45-1.84,7.66c-1.23,2.21-2.95,3.92-5.16,5.13c-2.21,1.21-4.77,1.81-7.66,1.81
				h-16.96V383.53z M1084.77,388.7l7.05-1.6l12.93,24.53h-8.41L1084.77,388.7z"/>
			<path class="st1" d="M1141.9,411.64h-9.87v-50.53h9.87V411.64z"/>
			<path class="st1" d="M1152.33,361.11h11.64l18.8,38.71l-0.83,0.9v-39.62h9.1v50.49h-11.71l-18.73-38.12l0.83-0.9v39.03h-9.1
				V361.11z"/>
			<path class="st1" d="M1196.95,361.11h9.8l10.74,33.71l10.74-33.71h9.8l-16.82,50.53h-7.44L1196.95,361.11z"/>
			<path class="st1" d="M1253.1,411.64h-9.87v-50.53h9.87V411.64z"/>
			<path class="st1" d="M1256.58,361.11h37.04v9.17h-37.04V361.11z M1270.34,365.25h9.52v46.39h-9.52V365.25z"/>
			<path class="st1" d="M1297.79,361.11h9.52v50.53h-9.52V361.11z M1301.24,361.11h30.41v9.17h-30.41V361.11z M1301.24,381.96h26.58
				v9.17h-26.58V381.96z M1301.24,402.46h30.41v9.17h-30.41V402.46z"/>
		</g>
	</g>
</g>
<rect x="915" y="625.84" transform="matrix(0.993 -0.1177 0.1177 0.993 -65.9497 143.0284)" class="st1" width="526.06" height="8.13"/>
<rect x="933.3" y="379.65" transform="matrix(0.993 -0.1177 0.1177 0.993 -37.2648 136.3987)" class="st1" width="405.89" height="8.13"/>
<rect x="145.9" y="288.8" transform="matrix(0.993 -0.1177 0.1177 0.993 -31.6962 48.9899)" class="st1" width="506.09" height="8.13"/>
</svg>
