<?xml version="1.0" encoding="utf-8"?>
<!-- Generator: Adobe Illustrator 25.0.0, SVG Export Plug-In . SVG Version: 6.00 Build 0)  -->
<svg version="1.1" id="Layer_1" xmlns="http://www.w3.org/2000/svg" xmlns:xlink="http://www.w3.org/1999/xlink" x="0px" y="0px"
	 viewBox="0 0 1528.7 1068.6" style="enable-background:new 0 0 1528.7 1068.6;" xml:space="preserve">
<style type="text/css">
	.st0{fill:#292841;}
	.st1{fill:#B9BBBE;}
	.st2{fill:#FFFFFF;}
	.st3{fill:#ED4245;}
	.st4{fill:#FEE75C;}
	.st5{fill:#EB459E;}
	.st6{fill:#5865F2;}
	.st7{fill:#57F287;}
	.st8{fill:#F6F6F6;}
	.st9{fill:#4FDC7C;}
	.st10{opacity:0.24;fill:#B9BBBE;enable-background:new    ;}
</style>
<path class="st1" d="M769.6,213.3h14.5v6.7h-14.5V213.3z M774.5,241.1c-1.3-1.7-2-3.7-1.8-5.9v-30.6h7.8v28.6c0,0.6,0.1,1.2,0.4,1.7
	c0.3,0.4,0.8,0.6,1.2,0.6h1.9v7.5h-3.9C777.6,243,775.7,242.4,774.5,241.1L774.5,241.1z"/>
<path class="st1" d="M791,213.3h8.3v29.6h-8.4L791,213.3z M806.2,220.6c-0.6-0.2-1.3-0.3-1.9-0.3c-1.4-0.1-2.7,0.5-3.7,1.5
	c-0.9,1.2-1.4,2.7-1.3,4.2l-0.6-7.7c0.7-1.6,1.8-3,3.2-4.1c1.2-1,2.7-1.5,4.3-1.5c1.1,0,2.3,0.2,3.3,0.6c1,0.4,1.9,1,2.6,1.7
	l-4.6,6.4C807.2,221.1,806.7,220.8,806.2,220.6z"/>
<path class="st1" d="M823.7,231.3c-0.1,1.2,0.4,2.4,1.2,3.3c0.9,0.8,2.2,1.3,3.4,1.2c1.2,0.1,2.5-0.3,3.4-1.2c0.8-1,1.3-2.2,1.2-3.5
	l0.4,6.5c-0.5,1.6-1.5,3-2.8,4.1c-1.3,1.1-3,1.7-4.7,1.7c-2.8,0.2-5.5-1-7.4-3.1c-1.7-2-2.6-4.9-2.6-8.7v-18.3h7.8L823.7,231.3z
	 M832.9,213.3h7.8v29.6h-7.8V213.3z"/>
<path class="st1" d="M854.6,242.9c-1.6-0.3-3.2-0.8-4.7-1.4c-1.4-0.6-2.7-1.3-3.9-2.2l4.8-6c1.4,0.9,2.9,1.6,4.5,2.1
	c1.4,0.5,2.9,0.7,4.5,0.8c1.4,0.1,2.9-0.2,4.2-0.6c1-0.4,1.5-1,1.5-1.7c0-0.6-0.2-1.1-0.7-1.5c-0.5-0.4-1.1-0.6-1.7-0.7
	c-1-0.2-1.9-0.3-2.9-0.4l-1-0.1l-1.1-0.1h-0.2h-0.2c-1.8-0.2-3.6-0.5-5.3-1c-1.4-0.4-2.5-1.3-3.4-2.4c-1-1.5-1.5-3.3-1.4-5.2
	c-0.2-3.7,2.1-7,5.6-8.3c2.1-0.8,4.3-1.2,6.6-1.1c1.5,0,3,0.2,4.5,0.5c1.5,0.3,2.9,0.7,4.3,1.3c1.3,0.6,2.6,1.2,3.8,2.1l-4.7,5.7
	c-1.3-0.7-2.6-1.3-4-1.7c-1.3-0.4-2.6-0.6-4-0.6c-1.2-0.1-2.5,0.1-3.7,0.5c-0.9,0.4-1.3,0.9-1.3,1.5c0,0.5,0.3,0.9,0.7,1.2
	c0.5,0.3,1.1,0.5,1.7,0.6c0.7,0.1,1.7,0.3,3,0.4l0.5,0l0.5,0.1c0.1,0,0.2,0,0.3,0c0.1,0,0.2,0,0.3,0c1.9,0.2,3.8,0.5,5.6,1
	c1.5,0.4,2.7,1.3,3.7,2.5c1.1,1.6,1.7,3.6,1.5,5.5c0.2,3.8-2.2,7.4-5.8,8.6c-2.2,0.8-4.5,1.2-6.9,1.2
	C858,243.4,856.3,243.2,854.6,242.9z"/>
<path class="st1" d="M876.4,213.3h14.5v6.7h-14.5V213.3z M881.3,241.1c-1.2-1.3-1.8-3.3-1.8-5.9v-30.6h7.9v28.6
	c0,0.6,0.1,1.2,0.4,1.7c0.3,0.4,0.8,0.6,1.3,0.6h1.9v7.5H887C884.4,243,882.5,242.4,881.3,241.1L881.3,241.1z"/>
<path class="st1" d="M677.7,796c-0.1,1.2,0.4,2.4,1.2,3.3c0.9,0.8,2.2,1.3,3.4,1.2c1.2,0.1,2.5-0.4,3.4-1.2c0.8-1,1.3-2.2,1.2-3.5
	l0.4,6.5c-0.5,1.6-1.5,3-2.8,4.1c-1.3,1.1-3,1.7-4.7,1.7c-2.8,0.2-5.5-1-7.4-3.1c-1.7-2-2.6-4.9-2.6-8.7V778h7.8L677.7,796z
	 M686.8,778h7.8v29.6h-7.8V778z"/>
<path class="st1" d="M702.3,778h7.8v29.6h-7.8V778z M719.5,789.7c0.1-1.2-0.4-2.5-1.2-3.4c-1-0.9-2.2-1.3-3.5-1.2
	c-1.2-0.1-2.5,0.4-3.4,1.2c-0.8,0.9-1.3,2.2-1.2,3.4l-0.6-6.6c0.7-1.6,1.8-3.1,3.2-4.2c1.4-1,3-1.5,4.7-1.4c2.8-0.2,5.5,1,7.2,3.2
	c1.7,2.1,2.6,5.1,2.6,8.9v18h-7.8L719.5,789.7z"/>
<path class="st1" d="M732.7,778h14.5v6.7h-14.5V778z M737.6,805.8c-1.2-1.3-1.8-3.3-1.8-5.9v-30.5h7.8V798c0,0.6,0.1,1.2,0.4,1.7
	c0.3,0.4,0.8,0.6,1.3,0.6h1.9v7.5h-3.9C740.7,807.8,738.8,807.1,737.6,805.8z"/>
<path class="st1" d="M754,778h8.4v29.6H754V778z M769.3,785.4c-0.6-0.2-1.3-0.3-1.9-0.3c-1.4-0.1-2.7,0.5-3.7,1.5
	c-0.9,1.2-1.4,2.7-1.3,4.2l-0.6-7.7c0.7-1.6,1.8-3,3.2-4.1c1.2-1,2.7-1.5,4.3-1.5c1.1,0,2.3,0.2,3.3,0.6c1,0.4,1.9,1,2.6,1.7
	l-4.6,6.4C770.3,785.9,769.8,785.6,769.3,785.4L769.3,785.4z"/>
<path class="st1" d="M786.8,796c-0.1,1.2,0.3,2.5,1.2,3.4c0.9,0.8,2.2,1.3,3.4,1.2c1.2,0.1,2.5-0.4,3.4-1.2c0.8-1,1.3-2.2,1.2-3.5
	l0.4,6.5c-0.5,1.6-1.5,3-2.8,4.1c-1.3,1.1-3,1.7-4.7,1.7c-2.8,0.2-5.5-1-7.4-3.1c-1.7-2-2.6-4.9-2.6-8.7v-18.3h7.8L786.8,796z
	 M796,778h7.8v29.6H796L796,778z"/>
<path class="st1" d="M817.6,807.6c-1.6-0.3-3.2-0.8-4.7-1.4c-1.4-0.6-2.7-1.3-3.9-2.2l4.8-6c1.4,0.9,2.9,1.6,4.5,2.1
	c1.4,0.5,2.9,0.7,4.5,0.7c1.4,0.1,2.9-0.2,4.2-0.6c1-0.4,1.5-1,1.5-1.7c0-0.6-0.2-1.1-0.7-1.5c-0.5-0.4-1.1-0.6-1.7-0.7
	c-1-0.2-1.9-0.3-2.9-0.4l-1-0.1l-1.1-0.1H821h-0.2c-1.8-0.2-3.6-0.6-5.3-1.1c-1.4-0.4-2.5-1.3-3.4-2.4c-1-1.5-1.5-3.3-1.4-5.2
	c-0.2-3.7,2.1-7.1,5.6-8.3c2.1-0.8,4.3-1.1,6.6-1.1c1.5,0,3,0.2,4.5,0.4c1.5,0.3,2.9,0.7,4.3,1.3c1.3,0.6,2.6,1.2,3.8,2.1l-4.7,5.7
	c-1.3-0.7-2.6-1.3-4-1.7c-1.3-0.4-2.6-0.6-4-0.6c-1.3,0-2.5,0.1-3.7,0.6c-0.9,0.4-1.3,0.9-1.3,1.5c0,0.5,0.3,0.9,0.7,1.2
	c0.5,0.3,1.1,0.5,1.7,0.6c0.7,0.1,1.7,0.3,3,0.4h0.5l0.5,0.1c0.1,0,0.2,0,0.3,0s0.2,0,0.3,0c1.9,0.2,3.8,0.5,5.6,1
	c1.5,0.4,2.8,1.3,3.7,2.5c1.1,1.6,1.7,3.6,1.5,5.5c0.2,3.8-2.2,7.3-5.8,8.6c-2.2,0.8-4.5,1.2-6.9,1.2
	C821.1,808,819.3,807.9,817.6,807.6z"/>
<path class="st1" d="M839.5,778H854v6.7h-14.5V778z M844.3,805.8c-1.3-1.7-2-3.8-1.8-5.9v-30.5h7.8V798c0,0.6,0.1,1.2,0.4,1.7
	c0.3,0.4,0.8,0.6,1.2,0.6h2v7.5h-3.9C847.5,807.8,845.5,807.1,844.3,805.8z"/>
<path class="st1" d="M173.6,408.3c-0.1,1.2,0.4,2.4,1.2,3.3c0.9,0.8,2.2,1.3,3.4,1.2c1.2,0.1,2.5-0.4,3.4-1.2
	c0.8-0.9,1.3-2.2,1.2-3.5l0.4,6.5c-0.5,1.6-1.5,3-2.8,4.1c-1.3,1.1-3,1.7-4.7,1.7c-2.8,0.2-5.5-1-7.4-3.1c-1.7-2-2.6-4.9-2.6-8.7
	v-18.3h7.8V408.3z M182.8,390.3h7.8v29.6h-7.8V390.3z"/>
<path class="st1" d="M198.3,390.3h7.8v29.6h-7.8V390.3z M215.4,401.9c0.1-1.2-0.4-2.5-1.2-3.4c-1-0.9-2.2-1.3-3.5-1.2
	c-1.2-0.1-2.5,0.4-3.4,1.2c-0.8,0.9-1.3,2.2-1.2,3.4l-0.6-6.6c0.7-1.6,1.8-3.1,3.2-4.2c1.4-1,3-1.5,4.7-1.4c2.8-0.1,5.5,1,7.2,3.2
	c1.7,2.1,2.6,5.1,2.6,8.9v18h-7.8V401.9z"/>
<path class="st1" d="M230.9,378.4h7.8v41.5h-7.8V378.4z M241.1,419c-1.3-0.9-2.3-2.2-2.8-3.8l0.4-6.8c0,0.9,0.2,1.7,0.5,2.5
	c0.3,0.7,0.9,1.2,1.5,1.6c0.7,0.4,1.6,0.6,2.4,0.5c1.3,0.1,2.6-0.5,3.4-1.5c0.9-1.2,1.3-2.6,1.2-4.1v-4.7c0.1-1.5-0.3-3-1.2-4.2
	c-0.8-1-2.1-1.6-3.4-1.5c-0.8,0-1.6,0.2-2.4,0.6c-0.7,0.4-1.2,0.9-1.5,1.6c-0.4,0.8-0.5,1.7-0.5,2.6l-0.6-6.6c0.7-1.6,1.8-3,3.1-4
	c1.3-0.9,2.8-1.4,4.3-1.4c3.9-0.2,7.5,2.2,8.8,5.9c0.8,2.2,1.2,4.6,1.2,7v4.7c0.1,2.4-0.3,4.7-1.2,6.9c-1.3,3.7-4.9,6.1-8.8,5.9
	C244,420.4,242.5,419.9,241.1,419L241.1,419z"/>
<path class="st1" d="M270.5,410.1c0,0.6,0.2,1.2,0.6,1.7c0.5,0.4,1.1,0.6,1.8,0.6h1.3v7.5h-4c-2.1,0.1-4.1-0.6-5.5-2.1
	c-1.4-1.6-2.1-3.7-2-5.8v-33.7h7.8L270.5,410.1z"/>
<path class="st1" d="M284.6,418.8c-1.9-1-3.4-2.5-4.4-4.4c-1-2.2-1.6-4.6-1.5-7v-4.8c-0.1-2.4,0.4-4.7,1.5-6.9
	c1-1.9,2.5-3.4,4.4-4.4c4.4-2,9.4-2,13.8,0c1.9,1,3.4,2.5,4.4,4.4c1.1,2.1,1.6,4.5,1.5,6.9v4.9c0.1,2.4-0.4,4.8-1.5,6.9
	c-1,1.9-2.5,3.4-4.4,4.4C294.1,420.8,289,420.8,284.6,418.8L284.6,418.8z M295.2,411.4c0.9-1.1,1.4-2.5,1.3-3.9v-4.9
	c0.1-1.4-0.4-2.8-1.3-3.8c-1-1-2.3-1.5-3.7-1.4c-1.4-0.1-2.7,0.4-3.6,1.4c-0.9,1.1-1.4,2.4-1.3,3.8v4.9c-0.1,1.4,0.4,2.8,1.3,3.9
	c1,1,2.3,1.5,3.6,1.4C292.9,412.9,294.2,412.3,295.2,411.4L295.2,411.4z"/>
<path class="st1" d="M316.8,418.7c-2-1-3.6-2.7-4.6-4.7c-1.1-2.3-1.6-4.9-1.6-7.4v-3.2c-0.1-2.5,0.5-5.1,1.6-7.3
	c1-2,2.6-3.6,4.6-4.6c2.2-1.1,4.7-1.7,7.2-1.6c1.5,0,3.1,0.2,4.6,0.5c1.4,0.3,2.7,0.9,3.9,1.6c1.1,0.7,2.1,1.5,2.9,2.6l-5,4.9
	c-0.7-0.7-1.6-1.2-2.5-1.6c-1-0.4-2-0.5-3-0.5c-1.7-0.1-3.3,0.5-4.6,1.6c-1.1,1.2-1.7,2.8-1.6,4.5v3.2c-0.1,1.7,0.5,3.3,1.6,4.6
	c1.2,1.1,2.9,1.7,4.6,1.6c1.1,0,2.1-0.2,3.1-0.6c1-0.4,1.8-1,2.5-1.7l5,5.2c-0.8,1-1.8,1.9-2.9,2.5c-1.2,0.7-2.5,1.2-3.9,1.6
	c-1.5,0.4-3,0.6-4.6,0.5C321.5,420.4,319,419.8,316.8,418.7z"/>
<path class="st1" d="M340.6,378.4h7.8v41.5h-7.8V378.4z M344.2,409.2l13.8-19h8.3l-21,27.6L344.2,409.2z M351.2,404.6l6.5-3.9
	l10.1,19.2h-9L351.2,404.6z"/>
<path class="st1" d="M934.9,822h7.8v41.5h-7.8V822z M945.1,862.5c-1.3-0.9-2.3-2.2-2.8-3.8l0.4-6.8c0,0.9,0.1,1.7,0.5,2.5
	c0.3,0.7,0.8,1.2,1.5,1.6c0.7,0.4,1.6,0.6,2.4,0.5c1.3,0.1,2.6-0.5,3.4-1.4c0.9-1.2,1.3-2.6,1.2-4.1v-4.7c0.1-1.5-0.3-3-1.2-4.2
	c-0.8-1-2.1-1.6-3.4-1.5c-0.8,0-1.6,0.2-2.4,0.6c-0.7,0.4-1.2,0.9-1.5,1.6c-0.4,0.8-0.5,1.7-0.5,2.6l-0.6-6.6c0.7-1.6,1.8-3,3.2-4
	c1.3-0.9,2.8-1.4,4.3-1.4c3.9-0.2,7.5,2.2,8.8,5.9c0.8,2.2,1.2,4.6,1.2,7v4.7c0.1,2.4-0.3,4.7-1.2,6.9c-1.3,3.7-4.9,6.1-8.8,5.9
	C947.9,863.9,946.4,863.5,945.1,862.5L945.1,862.5z"/>
<path class="st1" d="M974.5,853.6c0,0.6,0.2,1.2,0.6,1.7c0.5,0.4,1.1,0.6,1.8,0.6h1.3v7.5h-4c-2,0.1-4.1-0.6-5.5-2
	c-1.4-1.6-2.1-3.7-2-5.8V822h7.8L974.5,853.6z"/>
<path class="st1" d="M988.6,862.4c-1.9-1-3.4-2.5-4.4-4.4c-1.1-2.2-1.6-4.6-1.5-7v-4.8c-0.1-2.4,0.4-4.7,1.5-6.9
	c1-1.9,2.5-3.4,4.4-4.4c4.4-2,9.4-2,13.8,0c1.9,1,3.4,2.5,4.4,4.4c1.1,2.1,1.6,4.5,1.5,6.9v4.9c0.1,2.4-0.4,4.8-1.5,6.9
	c-1,1.9-2.5,3.4-4.4,4.4C998,864.4,993,864.4,988.6,862.4L988.6,862.4z M999.1,855c0.9-1.1,1.4-2.5,1.3-3.9v-4.9
	c0.1-1.4-0.4-2.8-1.3-3.8c-1-1-2.3-1.4-3.7-1.4c-1.4-0.1-2.7,0.4-3.6,1.4c-0.9,1.1-1.4,2.4-1.3,3.8v4.9c-0.1,1.4,0.4,2.8,1.3,3.9
	c1,1,2.3,1.5,3.7,1.4C996.8,856.4,998.2,855.9,999.1,855L999.1,855z"/>
<path class="st1" d="M1020.7,862.3c-2-1-3.6-2.7-4.6-4.7c-1.1-2.3-1.6-4.9-1.6-7.4V847c-0.1-2.5,0.5-5.1,1.6-7.3
	c1-2,2.6-3.6,4.6-4.6c2.2-1.1,4.7-1.7,7.2-1.6c1.5,0,3.1,0.2,4.6,0.6c1.4,0.3,2.7,0.9,3.9,1.6c1.1,0.7,2.1,1.5,2.8,2.6l-5,4.9
	c-0.7-0.7-1.6-1.2-2.5-1.6c-1-0.4-2-0.6-3.1-0.6c-1.7-0.1-3.3,0.5-4.6,1.6c-1.1,1.2-1.7,2.8-1.6,4.5v3.2c-0.1,1.7,0.5,3.3,1.6,4.6
	c1.2,1.1,2.9,1.7,4.6,1.6c1.1,0,2.1-0.2,3.1-0.6c0.9-0.4,1.8-1,2.5-1.7l5,5.2c-0.8,1-1.8,1.9-2.9,2.5c-1.2,0.7-2.5,1.3-3.8,1.6
	c-1.5,0.4-3,0.5-4.6,0.5C1025.4,863.9,1022.9,863.4,1020.7,862.3z"/>
<path class="st1" d="M1044.5,822h7.8v41.5h-7.8V822z M1048.2,852.8l13.8-18.9h8.3l-21,27.6L1048.2,852.8z M1055.2,848.1l6.4-3.9
	l10.1,19.2h-9L1055.2,848.1z"/>
<path class="st1" d="M351.2,273.5c-0.1,1.2,0.4,2.4,1.2,3.3c0.9,0.8,2.2,1.3,3.4,1.2c1.2,0.1,2.5-0.4,3.4-1.2
	c0.8-0.9,1.3-2.2,1.2-3.5l0.4,6.5c-0.5,1.6-1.5,3-2.8,4.1c-1.3,1.1-3,1.7-4.7,1.7c-2.8,0.2-5.5-1-7.4-3.1c-1.7-2-2.6-4.9-2.6-8.7
	v-18.3h7.8V273.5z M360.4,255.5h7.8v29.6h-7.8V255.5z"/>
<path class="st1" d="M382,285c-1.6-0.3-3.2-0.8-4.7-1.4c-1.4-0.6-2.7-1.3-3.9-2.2l4.8-6c1.4,0.9,2.9,1.6,4.5,2.1
	c1.4,0.5,2.9,0.7,4.5,0.7c1.4,0.1,2.9-0.1,4.2-0.6c1-0.4,1.5-1,1.5-1.7c0-0.6-0.2-1.1-0.6-1.5c-0.5-0.4-1.1-0.6-1.7-0.7
	c-0.7-0.1-1.6-0.3-2.9-0.4l-1-0.1l-1.1-0.1h-0.2h-0.2c-1.8-0.2-3.6-0.6-5.3-1.1c-1.4-0.4-2.5-1.3-3.4-2.4c-1-1.5-1.5-3.3-1.4-5.2
	c-0.2-3.7,2.1-7.1,5.6-8.3c2.1-0.8,4.3-1.2,6.6-1.1c1.5,0,3,0.2,4.5,0.5c1.5,0.3,2.9,0.7,4.3,1.3c1.3,0.5,2.6,1.2,3.8,2l-4.6,5.7
	c-1.3-0.7-2.6-1.3-4-1.7c-1.3-0.4-2.7-0.6-4-0.6c-1.2-0.1-2.5,0.1-3.7,0.5c-0.9,0.4-1.3,0.9-1.3,1.5c0,0.5,0.3,0.9,0.7,1.2
	c0.5,0.3,1.1,0.5,1.7,0.6c0.7,0.1,1.7,0.3,3,0.4l0.5,0.1l0.5,0c0.1,0,0.2,0,0.3,0c0.1,0,0.2,0,0.3,0c1.9,0.2,3.8,0.5,5.6,1
	c1.5,0.4,2.8,1.3,3.7,2.5c1.1,1.6,1.7,3.6,1.5,5.5c0.2,3.8-2.2,7.3-5.8,8.6c-2.2,0.8-4.5,1.2-6.9,1.2
	C385.4,285.5,383.7,285.3,382,285z"/>
<path class="st1" d="M411.5,283.9c-2-1-3.6-2.6-4.6-4.6c-1.1-2.2-1.7-4.7-1.6-7.2v-3.3c-0.1-2.6,0.4-5.1,1.5-7.5
	c1-2,2.5-3.7,4.5-4.7c2.2-1.1,4.6-1.7,7.1-1.6c2.4-0.1,4.7,0.6,6.6,1.9c1.9,1.4,3.4,3.4,4.2,5.6c1,2.9,1.5,5.9,1.4,8.9v1.9h-20.3
	v-5.2h13.1l-0.1-0.7c-0.1-1.5-0.7-2.9-1.6-4c-0.9-0.9-2.2-1.5-3.5-1.4c-1.6-0.1-3.2,0.5-4.4,1.7c-1.1,1.3-1.7,3-1.6,4.8v3.8
	c-0.1,1.7,0.5,3.4,1.7,4.7c1.3,1.2,3,1.8,4.8,1.7c1.1,0,2.1-0.2,3.1-0.6c1-0.4,2-0.9,2.8-1.6l5.1,4.5c-1.5,1.4-3.3,2.5-5.2,3.3
	c-1.8,0.8-3.8,1.2-5.8,1.2C416.3,285.6,413.8,285,411.5,283.9z"/>
<path class="st1" d="M437.5,255.5h8.4v29.6h-8.4V255.5z M452.7,262.9c-0.6-0.2-1.3-0.3-1.9-0.3c-1.4-0.1-2.7,0.5-3.7,1.5
	c-0.9,1.2-1.4,2.7-1.3,4.2l-0.6-7.7c0.7-1.6,1.8-3,3.2-4.1c1.2-1,2.7-1.5,4.3-1.5c1.1,0,2.3,0.2,3.4,0.6c1,0.4,1.9,1,2.6,1.7
	l-4.6,6.4C453.7,263.3,453.3,263,452.7,262.9z"/>
<path class="st1" d="M468.6,285c-1.6-0.3-3.2-0.8-4.7-1.4c-1.4-0.6-2.7-1.3-3.9-2.2l4.8-6c1.4,0.9,2.9,1.6,4.5,2.1
	c1.4,0.5,2.9,0.7,4.5,0.7c1.4,0.1,2.9-0.1,4.2-0.6c1-0.4,1.5-1,1.5-1.7c0-0.6-0.2-1.1-0.7-1.5c-0.5-0.4-1.1-0.6-1.7-0.7
	c-0.7-0.1-1.7-0.3-2.9-0.4l-1-0.1l-1.1-0.1H472h-0.2c-1.8-0.2-3.6-0.6-5.3-1.1c-1.4-0.4-2.5-1.3-3.4-2.4c-1-1.5-1.5-3.3-1.4-5.2
	c-0.2-3.7,2.1-7.1,5.6-8.3c2.1-0.8,4.3-1.2,6.6-1.1c1.5,0,3,0.2,4.5,0.5c1.5,0.3,2.9,0.7,4.3,1.3c1.3,0.5,2.6,1.2,3.8,2l-4.7,5.7
	c-1.3-0.7-2.6-1.3-4-1.7c-1.3-0.4-2.6-0.6-4-0.6c-1.2-0.1-2.5,0.1-3.7,0.5c-0.9,0.4-1.3,0.9-1.3,1.5c0,0.5,0.3,0.9,0.7,1.2
	c0.5,0.3,1.1,0.5,1.7,0.6c0.7,0.1,1.7,0.3,3,0.4l0.5,0.1l0.5,0c0.1,0,0.2,0,0.3,0c0.1,0,0.2,0,0.2,0c1.9,0.2,3.8,0.5,5.6,1
	c1.5,0.4,2.8,1.3,3.7,2.5c1.1,1.6,1.7,3.6,1.5,5.5c0.2,3.8-2.2,7.4-5.8,8.6c-2.2,0.8-4.5,1.2-6.9,1.2
	C472.1,285.5,470.3,285.3,468.6,285z"/>
<path class="st1" d="M1117.6,741.8h7.8v41.5h-7.8V741.8z M1127.8,782.4c-1.3-0.9-2.3-2.2-2.8-3.8l0.4-6.8c0,0.9,0.2,1.7,0.5,2.5
	c0.3,0.7,0.8,1.2,1.5,1.6c0.7,0.4,1.6,0.6,2.4,0.5c1.3,0.1,2.6-0.5,3.4-1.5c0.9-1.2,1.3-2.6,1.2-4.1v-4.7c0.1-1.5-0.3-3-1.2-4.2
	c-0.8-1-2.1-1.6-3.4-1.5c-0.8,0-1.6,0.2-2.4,0.6c-0.7,0.4-1.2,0.9-1.5,1.6c-0.4,0.8-0.5,1.7-0.5,2.6l-0.6-6.6c0.7-1.6,1.8-3,3.2-4
	c1.2-0.9,2.8-1.4,4.3-1.4c3.9-0.2,7.5,2.2,8.8,5.9c0.8,2.2,1.2,4.6,1.2,7v4.7c0.1,2.4-0.3,4.7-1.2,6.9c-1.3,3.7-4.9,6.1-8.8,5.9
	C1130.7,783.8,1129.1,783.3,1127.8,782.4L1127.8,782.4z"/>
<path class="st1" d="M1149,741.8h7.8v7.8h-7.8V741.8z M1149,753.7h7.8v29.6h-7.8V753.7z"/>
<path class="st1" d="M1161.8,753.7h14.5v6.7h-14.5V753.7z M1166.6,781.5c-1.2-1.3-1.8-3.3-1.8-5.9v-30.5h7.8v28.6
	c0,0.6,0.1,1.2,0.4,1.7c0.3,0.4,0.8,0.6,1.2,0.6h1.9v7.5h-3.9C1169.7,783.4,1167.8,782.8,1166.6,781.5z"/>
<path class="st1" d="M1183.1,753.7h8.4v29.6h-8.4V753.7z M1198.4,761.1c-0.6-0.2-1.3-0.3-1.9-0.3c-1.4-0.1-2.7,0.5-3.7,1.5
	c-0.9,1.2-1.4,2.7-1.3,4.2l-0.6-7.7c0.7-1.6,1.8-3,3.2-4.1c1.2-1,2.7-1.5,4.3-1.5c1.1,0,2.3,0.2,3.4,0.6c1,0.4,1.9,1,2.6,1.7
	l-4.6,6.4C1199.4,761.5,1198.9,761.2,1198.4,761.1z"/>
<path class="st1" d="M1209,781.5c-1.6-1.5-2.3-3.8-2.3-6.9c0-2.9,0.9-5.1,2.6-6.6c1.8-1.5,4.4-2.2,7.9-2.2h7.4l0.4,6h-7.8
	c-0.9-0.1-1.9,0.2-2.7,0.7c-0.6,0.5-0.9,1.3-0.9,2.1c-0.1,0.9,0.4,1.7,1.1,2.2c1,0.5,2.2,0.8,3.4,0.7c1.6,0.1,3.2-0.2,4.7-0.7
	c0.9-0.3,1.5-1.2,1.5-2.2l0.6,4.3c-0.1,1.1-0.6,2-1.5,2.7c-0.9,0.8-2.1,1.4-3.2,1.7c-1.3,0.4-2.7,0.6-4.1,0.6
	C1212.9,783.7,1210.5,783,1209,781.5z M1224.3,764.5c0.1-1.2-0.4-2.4-1.4-3.1c-1.1-0.8-2.5-1.2-3.9-1.1c-1.1,0-2.2,0.2-3.3,0.5
	c-1,0.3-2,0.8-2.9,1.5l-4.8-4.8c1.3-1.4,2.9-2.5,4.7-3.2c2.1-0.8,4.2-1.1,6.4-1.1c2.3-0.1,4.5,0.4,6.6,1.3c1.7,0.8,3.2,2.1,4.2,3.8
	c1,1.8,1.5,3.9,1.4,6v19h-7.1V764.5z"/>
<path class="st1" d="M1236.8,753.7h14.5v6.7h-14.5V753.7z M1241.7,781.5c-1.2-1.3-1.8-3.3-1.8-5.9v-30.5h7.8v28.6
	c0,0.6,0.1,1.2,0.4,1.7c0.3,0.4,0.8,0.6,1.2,0.6h1.9v7.5h-3.9C1244.8,783.4,1242.9,782.8,1241.7,781.5z"/>
<path class="st1" d="M1263.6,782.2c-2-1-3.6-2.6-4.6-4.5c-1.1-2.2-1.7-4.7-1.6-7.2v-3.3c-0.1-2.6,0.5-5.2,1.5-7.5
	c1-2,2.5-3.7,4.4-4.7c2.2-1.1,4.6-1.7,7.1-1.6c2.4-0.1,4.7,0.6,6.7,1.9c1.9,1.4,3.4,3.4,4.2,5.6c1,2.9,1.5,5.9,1.4,8.9v1.9h-20.3
	v-5.3h13.1l-0.1-0.7c-0.1-1.5-0.7-2.9-1.6-4c-0.9-0.9-2.2-1.5-3.5-1.4c-1.6-0.1-3.2,0.5-4.4,1.7c-1.1,1.3-1.7,3-1.6,4.8v3.8
	c-0.1,1.7,0.5,3.4,1.7,4.7c1.3,1.2,3,1.8,4.8,1.7c1.1,0,2.1-0.2,3.1-0.6c1-0.4,2-0.9,2.8-1.6l5.1,4.5c-1.5,1.4-3.3,2.5-5.2,3.3
	c-1.8,0.8-3.8,1.1-5.8,1.2C1268.4,783.7,1265.8,783.2,1263.6,782.2z"/>
<path class="st1" d="M340,605c0,0.6,0.2,1.2,0.6,1.7c0.5,0.4,1.1,0.6,1.8,0.6h1.3v7.5h-4c-2.1,0.1-4.1-0.6-5.5-2.1
	c-1.4-1.6-2.1-3.7-2-5.8v-33.6h7.8L340,605z"/>
<path class="st1" d="M348.7,573.3h7.8v7.8h-7.8V573.3z M348.7,585.2h7.8v29.6h-7.8V585.2z"/>
<path class="st1" d="M363.8,585.2h7.8v29.6h-7.8V585.2z M381.1,597.7c0.1-1.4-0.4-2.9-1.3-4c-0.9-1-2.3-1.5-3.6-1.4
	c-1.2-0.1-2.4,0.4-3.4,1.2c-0.8,0.9-1.3,2.2-1.2,3.4l-0.6-6.5c0.7-1.6,1.9-3.1,3.3-4.2c1.3-1,3-1.5,4.6-1.4c3.9-0.2,7.5,2.2,8.8,5.9
	c0.8,2.2,1.2,4.6,1.2,7v17.1H381L381.1,597.7z M398.3,597.7c0.1-1.4-0.3-2.9-1.2-4c-2-1.9-5-1.9-7-0.1c-0.9,1.1-1.3,2.5-1.2,3.8
	l-1.5-6.8c0.8-1.7,2.1-3.2,3.6-4.3c1.5-1,3.2-1.5,5-1.5c1.9-0.1,3.8,0.5,5.5,1.5c1.6,1.1,2.8,2.6,3.5,4.4c0.8,2.2,1.2,4.6,1.2,7
	v17.1h-7.8L398.3,597.7z"/>
<path class="st1" d="M413.4,573.3h7.8v7.8h-7.8V573.3z M413.4,585.2h7.8v29.6h-7.8V585.2z"/>
<path class="st1" d="M426.2,585.2h14.5v6.7h-14.5V585.2z M431.1,613c-1.3-1.7-2-3.8-1.8-5.9v-30.5h7.8v28.6c0,0.6,0.1,1.2,0.4,1.7
	c0.3,0.4,0.8,0.6,1.2,0.6h1.9v7.5h-3.9C434.2,614.9,432.3,614.3,431.1,613z"/>
<path class="st1" d="M1297.5,639.1h7.8v29.6h-7.8V639.1z M1314.6,650.8c0.1-1.2-0.4-2.5-1.2-3.4c-1-0.8-2.2-1.3-3.5-1.2
	c-1.2-0.1-2.5,0.4-3.3,1.2c-0.8,0.9-1.3,2.2-1.2,3.4l-0.6-6.6c0.7-1.6,1.8-3.1,3.2-4.2c1.4-1,3-1.5,4.7-1.4c2.8-0.2,5.5,1,7.2,3.2
	c1.7,2.1,2.6,5.1,2.6,8.9v18h-7.8V650.8z"/>
<path class="st1" d="M1331,666.9c-1.6-1.5-2.3-3.8-2.3-6.9c0-2.9,0.9-5.1,2.6-6.6c1.8-1.5,4.4-2.2,7.9-2.2h7.4l0.4,6h-7.8
	c-0.9-0.1-1.9,0.2-2.7,0.7c-0.6,0.5-0.9,1.3-0.9,2.1c-0.1,0.9,0.4,1.7,1.1,2.2c1,0.5,2.2,0.8,3.4,0.7c1.6,0.1,3.2-0.2,4.7-0.7
	c0.9-0.3,1.5-1.2,1.5-2.2l0.6,4.3c-0.1,1.1-0.6,2-1.5,2.7c-0.9,0.8-2.1,1.4-3.2,1.7c-1.3,0.4-2.7,0.6-4.1,0.5
	C1335,669.1,1332.6,668.4,1331,666.9z M1346.3,649.9c0.1-1.2-0.4-2.4-1.4-3.2c-1.1-0.8-2.5-1.2-3.9-1.1c-1.1,0-2.2,0.2-3.3,0.5
	c-1,0.3-2,0.8-2.9,1.5l-4.8-4.8c1.3-1.4,2.9-2.5,4.7-3.2c2.1-0.8,4.2-1.2,6.4-1.1c2.3-0.1,4.5,0.4,6.6,1.3c1.7,0.8,3.2,2.1,4.2,3.8
	c1,1.8,1.5,3.9,1.4,6v19h-7.1V649.9z"/>
<path class="st1" d="M1361.2,639.1h7.8v29.6h-7.8L1361.2,639.1z M1378.4,651.6c0.1-1.4-0.4-2.9-1.3-4c-0.9-1-2.3-1.5-3.6-1.4
	c-1.2-0.1-2.4,0.4-3.3,1.2c-0.8,0.9-1.3,2.2-1.2,3.4l-0.6-6.6c0.7-1.6,1.9-3.1,3.3-4.2c1.3-1,3-1.5,4.6-1.4c3.9-0.2,7.5,2.2,8.8,5.9
	c0.8,2.2,1.2,4.6,1.2,7v17.1h-7.8L1378.4,651.6z M1395.7,651.6c0.1-1.4-0.3-2.9-1.2-4c-2-1.9-5-1.9-7-0.1c-0.9,1.1-1.3,2.5-1.2,3.8
	l-1.5-6.8c0.8-1.7,2.1-3.2,3.6-4.3c1.5-1,3.2-1.5,5-1.5c1.9-0.1,3.8,0.5,5.5,1.5c1.6,1.1,2.8,2.6,3.4,4.4c0.8,2.2,1.2,4.6,1.2,7
	v17.1h-7.8L1395.7,651.6z"/>
<path class="st1" d="M1416.6,667.6c-2-1-3.6-2.6-4.6-4.5c-1.1-2.2-1.7-4.7-1.6-7.2v-3.3c-0.1-2.6,0.5-5.2,1.5-7.5
	c1-2,2.5-3.7,4.4-4.7c2.2-1.1,4.6-1.7,7.1-1.6c2.4-0.1,4.7,0.6,6.7,1.9c1.9,1.4,3.4,3.4,4.2,5.6c1,2.9,1.5,5.9,1.4,8.9v1.9h-20.3
	v-5.3h13.1l-0.1-0.7c-0.1-1.5-0.7-2.9-1.6-4c-0.9-0.9-2.2-1.5-3.5-1.4c-1.6-0.1-3.2,0.5-4.4,1.7c-1.1,1.3-1.7,3-1.6,4.8v3.8
	c-0.1,1.7,0.5,3.4,1.7,4.7c1.3,1.2,3,1.8,4.8,1.7c1.1,0,2.1-0.2,3.1-0.5c1-0.4,2-0.9,2.8-1.6l5.1,4.5c-1.5,1.4-3.3,2.5-5.2,3.3
	c-1.8,0.8-3.8,1.1-5.8,1.2C1421.4,669.2,1418.9,668.7,1416.6,667.6z"/>
<path class="st1" d="M458.3,857.3c-2-1.1-3.6-2.7-4.6-4.7c-1.1-2.3-1.6-4.9-1.6-7.4V842c-0.1-2.5,0.5-5.1,1.6-7.3
	c1-2,2.6-3.6,4.6-4.6c2.2-1.1,4.7-1.7,7.2-1.6c1.5,0,3.1,0.2,4.6,0.6c1.4,0.3,2.7,0.9,3.9,1.6c1.1,0.7,2.1,1.5,2.8,2.6l-5,4.9
	c-0.7-0.7-1.6-1.2-2.5-1.6c-1-0.4-2-0.6-3-0.6c-1.7-0.1-3.3,0.5-4.6,1.6c-1.1,1.2-1.7,2.8-1.6,4.5v3.2c-0.1,1.7,0.5,3.3,1.6,4.6
	c1.2,1.1,2.9,1.7,4.6,1.6c1.1,0,2.1-0.2,3.1-0.6c0.9-0.4,1.8-1,2.5-1.7l5,5.2c-0.8,1-1.8,1.9-2.9,2.5c-1.2,0.7-2.5,1.3-3.8,1.6
	c-1.5,0.4-3,0.6-4.6,0.6C463,859,460.5,858.4,458.3,857.3z"/>
<path class="st1" d="M489.9,848.7c0,0.6,0.2,1.2,0.6,1.7c0.5,0.4,1.1,0.6,1.8,0.6h1.3v7.5h-4c-2,0.1-4-0.6-5.5-2
	c-1.4-1.6-2.1-3.7-2-5.8V817h7.8L489.9,848.7z"/>
<path class="st1" d="M499.6,856.6c-1.6-1.5-2.4-3.8-2.4-6.9c0-2.9,0.9-5.1,2.6-6.6s4.4-2.2,7.9-2.2h7.4l0.4,6h-7.8
	c-0.9-0.1-1.9,0.2-2.7,0.7c-0.6,0.5-0.9,1.3-0.9,2.1c-0.1,0.9,0.4,1.7,1.1,2.2c1,0.5,2.2,0.8,3.4,0.7c1.6,0.1,3.2-0.2,4.7-0.7
	c0.9-0.3,1.5-1.2,1.5-2.2l0.6,4.3c-0.1,1.1-0.6,2-1.5,2.7c-0.9,0.8-2.1,1.4-3.2,1.7c-1.3,0.4-2.7,0.6-4.1,0.6
	C503.6,858.9,501.2,858.1,499.6,856.6z M515,839.7c0.1-1.2-0.4-2.4-1.4-3.2c-1.1-0.8-2.5-1.2-3.9-1.1c-1.1,0-2.2,0.2-3.3,0.5
	c-1,0.3-2,0.9-2.9,1.5l-4.8-4.8c1.3-1.4,2.9-2.5,4.7-3.2c2.1-0.8,4.2-1.2,6.5-1.1c2.3-0.1,4.5,0.4,6.6,1.3c1.7,0.8,3.2,2.1,4.2,3.8
	c1,1.8,1.5,3.9,1.5,6v19H515V839.7z"/>
<path class="st1" d="M529.4,817h7.8v7.8h-7.8V817z M529.4,828.9h7.8v29.6h-7.8V828.9z"/>
<path class="st1" d="M544.5,828.9h7.8v29.6h-7.8V828.9z M561.7,841.4c0.1-1.4-0.4-2.9-1.3-4c-0.9-1-2.3-1.5-3.6-1.4
	c-1.2-0.1-2.4,0.4-3.3,1.2c-0.8,0.9-1.3,2.2-1.2,3.4l-0.6-6.6c0.7-1.6,1.9-3.1,3.3-4.2c1.3-1,3-1.5,4.6-1.4c3.9-0.2,7.5,2.2,8.8,5.9
	c0.8,2.2,1.2,4.6,1.2,7v17.1h-7.8V841.4z M579,841.4c0.1-1.4-0.3-2.9-1.2-4c-2-1.9-5-1.9-7-0.1c-0.9,1.1-1.3,2.5-1.2,3.8l-1.5-6.8
	c0.8-1.7,2.1-3.2,3.6-4.4c1.5-1,3.2-1.5,5-1.5c1.9-0.1,3.8,0.5,5.5,1.5c1.6,1.1,2.8,2.6,3.5,4.4c0.8,2.2,1.2,4.6,1.2,7v17.1H579
	V841.4z"/>
<path class="st1" d="M536.5,317.5H551v6.7h-14.5V317.5z M541.4,345.3c-1.2-1.3-1.8-3.3-1.8-5.9v-30.5h7.8v28.6
	c0,0.6,0.1,1.2,0.4,1.7c0.3,0.4,0.8,0.6,1.3,0.6h1.9v7.5h-3.9C544.5,347.2,542.6,346.6,541.4,345.3z"/>
<path class="st1" d="M557.9,317.5h8.4v29.6h-8.4V317.5z M573.1,324.9c-0.6-0.2-1.3-0.3-1.9-0.3c-1.4-0.1-2.7,0.5-3.7,1.5
	c-0.9,1.2-1.4,2.7-1.3,4.2l-0.6-7.7c0.7-1.6,1.8-3,3.2-4.1c1.2-1,2.7-1.5,4.3-1.5c1.1,0,2.3,0.2,3.3,0.6c1,0.4,1.9,1,2.6,1.7
	l-4.6,6.4C574.1,325.3,573.6,325.1,573.1,324.9z"/>
<path class="st1" d="M583.7,345.3c-1.6-1.5-2.4-3.8-2.4-6.9c0-2.9,0.9-5.1,2.6-6.6s4.4-2.2,7.9-2.2h7.4l0.4,6h-7.8
	c-0.9-0.1-1.9,0.2-2.7,0.7c-0.6,0.5-1,1.3-0.9,2.1c-0.1,0.9,0.4,1.7,1.1,2.2c1,0.5,2.2,0.8,3.4,0.7c1.6,0.1,3.2-0.2,4.7-0.7
	c0.9-0.3,1.5-1.2,1.5-2.2l0.6,4.3c-0.1,1.1-0.6,2-1.5,2.7c-1,0.8-2.1,1.3-3.2,1.7c-1.3,0.4-2.7,0.6-4.1,0.6
	C587.7,347.6,585.3,346.8,583.7,345.3z M599.1,328.4c0.1-1.2-0.4-2.4-1.4-3.2c-1.1-0.8-2.5-1.2-3.9-1.1c-1.1,0-2.2,0.2-3.3,0.5
	c-1,0.3-2,0.9-2.9,1.5l-4.8-4.8c1.3-1.4,2.9-2.5,4.7-3.2c2.1-0.8,4.2-1.2,6.4-1.1c2.3-0.1,4.5,0.4,6.6,1.3c1.7,0.8,3.2,2.1,4.2,3.8
	c1,1.8,1.5,3.9,1.4,5.9v19h-7.1V328.4z"/>
<path class="st1" d="M613.9,317.5h7.8v29.6h-7.8V317.5z M631,329.2c0.1-1.2-0.4-2.5-1.2-3.4c-1-0.9-2.2-1.3-3.5-1.2
	c-1.2-0.1-2.5,0.4-3.3,1.2c-0.8,0.9-1.3,2.2-1.2,3.4l-0.6-6.6c0.7-1.6,1.8-3.1,3.2-4.2c1.4-1,3-1.5,4.7-1.4c2.8-0.2,5.5,1,7.2,3.2
	c1.7,2.1,2.6,5.1,2.6,8.9v18H631L631,329.2z"/>
<path class="st1" d="M652.7,347.1c-1.6-0.3-3.2-0.8-4.7-1.4c-1.4-0.6-2.7-1.3-3.9-2.2l4.8-6c1.4,0.9,2.9,1.6,4.5,2.1
	c1.4,0.5,2.9,0.7,4.5,0.7c1.4,0.1,2.9-0.1,4.2-0.6c1-0.4,1.5-1,1.5-1.7c0-0.6-0.2-1.1-0.7-1.5c-0.5-0.4-1.1-0.6-1.7-0.7
	c-1-0.2-1.9-0.3-2.9-0.4l-1-0.1l-1.1-0.1h-0.2h-0.2c-1.8-0.2-3.6-0.6-5.3-1c-1.3-0.4-2.5-1.3-3.4-2.4c-1-1.5-1.5-3.3-1.4-5.2
	c0-1.8,0.4-3.6,1.4-5.1c1-1.5,2.5-2.6,4.1-3.2c2.1-0.8,4.3-1.2,6.6-1.1c1.5,0,3,0.2,4.5,0.5c1.5,0.3,2.9,0.7,4.3,1.3
	c1.3,0.5,2.6,1.2,3.8,2l-4.7,5.7c-1.3-0.7-2.6-1.3-4-1.7c-1.3-0.4-2.7-0.6-4-0.6c-1.2-0.1-2.5,0.1-3.7,0.5c-0.9,0.4-1.3,0.9-1.3,1.5
	c0,0.5,0.3,0.9,0.7,1.2c0.5,0.3,1.1,0.5,1.7,0.6c0.7,0.1,1.7,0.3,3,0.4l0.5,0.1l0.5,0.1h0.3c0.1,0,0.2,0,0.2,0
	c1.9,0.2,3.8,0.5,5.6,1c1.5,0.4,2.8,1.3,3.7,2.5c1.1,1.6,1.7,3.6,1.5,5.5c0.2,3.8-2.2,7.4-5.8,8.6c-2.2,0.8-4.5,1.2-6.9,1.2
	C656.2,347.5,654.4,347.4,652.7,347.1z"/>
<path class="st1" d="M674.5,317.5h16v6.7h-16V317.5z M677.7,313.5c0-2.6,0.6-4.6,1.8-5.9s3.1-2,5.6-2h5.4v7h-3.3
	c-0.5,0-1,0.2-1.3,0.6c-0.3,0.5-0.5,1.1-0.4,1.6v32.3h-7.9L677.7,313.5z"/>
<path class="st1" d="M699.9,346c-2-1-3.6-2.6-4.6-4.5c-1.1-2.2-1.7-4.7-1.6-7.2v-3.3c-0.1-2.6,0.5-5.2,1.5-7.5c1-2,2.5-3.7,4.5-4.7
	c2.2-1.1,4.6-1.7,7-1.6c2.4-0.1,4.7,0.6,6.7,1.9c1.9,1.4,3.4,3.4,4.2,5.6c1,2.9,1.5,5.9,1.4,8.9v1.9h-20.2v-5.3h13.1l-0.1-0.7
	c-0.1-1.5-0.7-2.9-1.6-4c-0.9-0.9-2.2-1.5-3.5-1.4c-1.6-0.1-3.2,0.5-4.4,1.7c-1.1,1.3-1.7,3-1.5,4.8v3.8c-0.1,1.7,0.5,3.4,1.7,4.7
	c1.3,1.2,3,1.8,4.8,1.7c1.1,0,2.1-0.2,3.1-0.5c1-0.4,2-0.9,2.8-1.6l5.1,4.5c-1.5,1.4-3.3,2.5-5.2,3.3c-1.8,0.8-3.8,1.2-5.8,1.2
	C704.6,347.6,702.1,347.1,699.9,346z"/>
<path class="st1" d="M725.8,317.5h8.4v29.6h-8.4V317.5z M741.1,324.9c-0.6-0.2-1.3-0.3-1.9-0.3c-1.4-0.1-2.7,0.5-3.7,1.5
	c-0.9,1.2-1.4,2.7-1.3,4.2l-0.6-7.7c0.7-1.6,1.8-3,3.2-4.1c1.2-1,2.7-1.5,4.3-1.5c1.1,0,2.3,0.2,3.3,0.6c1,0.4,1.9,1,2.6,1.7
	l-4.6,6.4C742.1,325.3,741.6,325.1,741.1,324.9z"/>
<path class="st1" d="M1107.5,371h7.8v41.7h-7.8V371z M1117.7,399.7c-1.3-0.9-2.3-2.2-2.8-3.8l0.4-6.8c0,0.9,0.1,1.7,0.5,2.5
	c0.3,0.7,0.8,1.2,1.5,1.6c0.7,0.4,1.6,0.6,2.4,0.5c1.3,0.1,2.6-0.5,3.4-1.5c0.9-1.2,1.3-2.6,1.2-4.1v-4.7c0.1-1.5-0.3-3-1.2-4.2
	c-0.8-1-2.1-1.6-3.4-1.5c-0.8,0-1.6,0.2-2.4,0.6c-0.7,0.4-1.2,0.9-1.5,1.6c-0.4,0.8-0.5,1.7-0.5,2.6l-0.6-6.6c0.7-1.6,1.8-3,3.2-4
	c1.2-0.9,2.8-1.4,4.3-1.4c3.9-0.2,7.5,2.2,8.8,5.9c0.8,2.2,1.2,4.6,1.2,7v4.7c0.1,2.4-0.3,4.7-1.2,6.9c-1.3,3.7-4.9,6.1-8.8,5.9
	C1120.6,401.1,1119,400.6,1117.7,399.7z"/>
<path class="st1" d="M1139.3,371h8.4v29.6h-8.4V371z M1154.5,378.4c-0.6-0.2-1.3-0.3-1.9-0.3c-1.4-0.1-2.7,0.5-3.7,1.5
	c-0.9,1.2-1.4,2.7-1.3,4.2l-0.6-7.7c0.7-1.6,1.8-3,3.2-4.1c1.2-1,2.7-1.5,4.3-1.5c1.1,0,2.3,0.2,3.4,0.6c1,0.4,1.9,1,2.6,1.7
	l-4.6,6.4C1155.5,378.8,1155,378.5,1154.5,378.4z"/>
<path class="st1" d="M1163.8,359.1h7.8v7.8h-7.8V359.1z M1163.8,371h7.8v29.6h-7.8V371z"/>
<path class="st1" d="M1195.7,371h7.8l-11.1,29.6h-5.5l-11.1-29.6h7.8l6.1,18.6L1195.7,371z"/>
<path class="st1" d="M1209,398.7c-1.6-1.5-2.4-3.8-2.4-6.9c0-2.9,0.9-5.1,2.6-6.6c1.8-1.5,4.4-2.2,7.9-2.2h7.4l0.4,6h-7.8
	c-0.9-0.1-1.9,0.2-2.7,0.7c-0.6,0.5-0.9,1.3-0.9,2.1c-0.1,0.9,0.4,1.7,1.1,2.2c1,0.5,2.2,0.8,3.4,0.7c1.6,0.1,3.2-0.2,4.7-0.7
	c0.9-0.3,1.5-1.2,1.5-2.2l0.6,4.3c-0.1,1.1-0.6,2-1.5,2.7c-0.9,0.8-2.1,1.4-3.2,1.7c-1.3,0.4-2.7,0.6-4.1,0.6
	C1212.9,401,1210.6,400.2,1209,398.7z M1224.4,381.8c0.1-1.2-0.4-2.4-1.4-3.2c-1.1-0.8-2.5-1.2-3.9-1.1c-1.1,0-2.2,0.2-3.3,0.5
	c-1,0.3-2,0.9-2.9,1.5l-4.8-4.8c1.3-1.4,2.9-2.5,4.7-3.2c2.1-0.8,4.2-1.2,6.4-1.1c2.3-0.1,4.5,0.4,6.6,1.3c1.7,0.8,3.2,2.1,4.2,3.8
	c1,1.8,1.5,3.9,1.4,6v19h-7.1V381.8z"/>
<path class="st1" d="M1244.5,399.4c-2-1-3.6-2.7-4.6-4.7c-1.1-2.3-1.6-4.9-1.6-7.4v-3.2c-0.1-2.5,0.5-5.1,1.6-7.3
	c1-2,2.6-3.6,4.6-4.6c2.2-1.1,4.7-1.7,7.2-1.6c1.5,0,3.1,0.2,4.6,0.6c1.4,0.3,2.7,0.9,3.9,1.6c1.1,0.7,2.1,1.5,2.8,2.6l-5.1,4.9
	c-0.7-0.7-1.6-1.2-2.5-1.5c-1-0.4-2-0.6-3-0.6c-1.7-0.1-3.3,0.5-4.6,1.6c-1.1,1.2-1.7,2.8-1.6,4.5v3.2c-0.1,1.7,0.5,3.3,1.6,4.6
	c1.3,1.1,2.9,1.7,4.6,1.6c1.1,0,2.1-0.2,3.1-0.6c0.9-0.4,1.8-1,2.5-1.7l5.1,5.2c-0.8,1-1.8,1.9-2.9,2.5c-1.2,0.7-2.5,1.3-3.8,1.6
	c-1.5,0.4-3,0.5-4.6,0.5C1249.2,401.1,1246.7,400.6,1244.5,399.4z"/>
<path class="st1" d="M1264,371h7.4l10,25.7l-4.9,6.3L1264,371z M1291.3,371l-13.2,36.5c-0.4,1.2-1,2.3-1.8,3.2
	c-0.7,0.8-1.7,1.4-2.7,1.7c-1.3,0.4-2.6,0.5-4,0.5h-1.7v-7.6h1.7c0.7,0,1.5-0.2,2.1-0.5c0.6-0.4,1.1-1.1,1.3-1.8l11-32L1291.3,371z"
	/>
<path class="st1" d="M221.5,761.7h8.4v29.6h-8.4V761.7z M236.7,769.1c-0.6-0.2-1.3-0.3-1.9-0.3c-1.4-0.1-2.7,0.5-3.7,1.5
	c-0.9,1.2-1.4,2.7-1.3,4.2l-0.6-7.7c0.7-1.6,1.8-3,3.2-4.1c1.2-1,2.7-1.5,4.3-1.5c1.1,0,2.3,0.2,3.4,0.6c1,0.4,1.9,1,2.6,1.7
	l-4.6,6.4C237.7,769.5,237.2,769.2,236.7,769.1z"/>
<path class="st1" d="M251.2,790.2c-2-1-3.6-2.6-4.6-4.5c-1.1-2.2-1.7-4.7-1.6-7.2v-3.3c-0.1-2.6,0.4-5.1,1.5-7.5
	c1-2,2.5-3.7,4.5-4.7c2.2-1.1,4.6-1.7,7.1-1.6c2.4-0.1,4.7,0.6,6.6,1.9c1.9,1.4,3.4,3.4,4.2,5.6c1,2.9,1.5,5.9,1.4,8.9v1.9H250v-5.3
	h13.1l-0.1-0.7c-0.1-1.5-0.7-2.9-1.6-4c-0.9-0.9-2.2-1.4-3.5-1.3c-1.6-0.1-3.2,0.5-4.4,1.7c-1.1,1.3-1.7,3-1.5,4.8v3.8
	c-0.1,1.7,0.5,3.4,1.7,4.7c1.3,1.2,3,1.8,4.8,1.7c1.1,0,2.1-0.2,3.1-0.6c1-0.4,2-0.9,2.8-1.6l5.1,4.5c-1.5,1.4-3.3,2.5-5.2,3.3
	c-1.8,0.8-3.8,1.2-5.8,1.2C256,791.8,253.5,791.3,251.2,790.2z"/>
<path class="st1" d="M280.9,790.2c-1.6-1.1-2.7-2.6-3.4-4.4c-0.8-2.2-1.2-4.6-1.2-6.9v-4.7c-0.1-2.4,0.3-4.8,1.2-7
	c1.3-3.7,4.9-6.1,8.8-5.9c1.6,0,3.1,0.5,4.3,1.4c1.4,1,2.5,2.4,3.1,4l-0.6,6.6c0-0.9-0.1-1.8-0.5-2.6c-0.3-0.7-0.8-1.2-1.5-1.6
	c-0.7-0.4-1.6-0.6-2.4-0.5c-1.3-0.1-2.6,0.5-3.4,1.5c-0.9,1.2-1.3,2.7-1.2,4.2v4.7c-0.1,1.5,0.3,2.9,1.2,4.1c0.8,1,2.1,1.5,3.4,1.4
	c0.8,0,1.6-0.2,2.4-0.5c0.7-0.4,1.2-0.9,1.5-1.6c0.4-0.8,0.5-1.6,0.5-2.5l0.4,6.8c-0.5,1.5-1.5,2.8-2.8,3.8
	c-1.3,0.9-2.9,1.4-4.5,1.3C284.3,791.7,282.5,791.2,280.9,790.2z M281.3,802.1c-1.7-0.7-3.2-1.9-4.3-3.5l5.2-4.8
	c0.7,0.7,1.5,1.3,2.4,1.7c0.9,0.4,1.9,0.6,2.9,0.6c1.5,0.1,2.9-0.4,4-1.3c1.1-0.9,1.6-2.3,1.5-3.7v-29.3h7.9v28.7
	c0.1,2.4-0.5,4.8-1.5,7c-1,1.9-2.6,3.5-4.5,4.4c-2.3,1.1-4.7,1.6-7.2,1.5C285.5,803.4,283.3,802.9,281.3,802.1z"/>
<path class="st1" d="M308.2,749.8h7.8v7.8h-7.8L308.2,749.8z M308.2,761.7h7.8v29.6h-7.8L308.2,761.7z"/>
<path class="st1" d="M328.3,790.2c-1.9-1-3.4-2.5-4.4-4.4c-1.1-2.2-1.6-4.6-1.5-7V774c-0.1-2.4,0.4-4.7,1.5-6.9
	c1-1.9,2.5-3.4,4.4-4.4c4.4-2,9.4-2,13.8,0c1.9,1,3.4,2.5,4.4,4.4c1.1,2.1,1.6,4.5,1.5,6.9v4.9c0.1,2.4-0.4,4.8-1.5,6.9
	c-1,1.9-2.5,3.4-4.4,4.4C337.7,792.2,332.7,792.2,328.3,790.2L328.3,790.2z M338.9,782.8c0.9-1.1,1.4-2.5,1.3-3.9V774
	c0.1-1.4-0.4-2.8-1.3-3.8c-1-1-2.3-1.5-3.7-1.4c-1.4-0.1-2.7,0.4-3.6,1.4c-0.9,1.1-1.4,2.4-1.3,3.8v4.9c-0.1,1.4,0.4,2.8,1.3,3.9
	c1,1,2.3,1.5,3.6,1.4C336.6,784.3,337.9,783.8,338.9,782.8L338.9,782.8z"/>
<path class="st1" d="M355.1,761.7h7.9v29.6h-7.8L355.1,761.7z M372.3,773.4c0.1-1.2-0.4-2.5-1.2-3.4c-1-0.9-2.2-1.3-3.5-1.2
	c-1.2-0.1-2.5,0.4-3.4,1.2c-0.8,0.9-1.2,2.1-1.2,3.4l-0.6-6.6c0.7-1.6,1.8-3.1,3.2-4.2c1.4-1,3-1.5,4.7-1.4c2.8-0.2,5.5,1,7.2,3.2
	c1.7,2.1,2.6,5.1,2.6,8.9v18h-7.8L372.3,773.4z"/>
<path class="st1" d="M1227.4,504.7h7.8v41.5h-7.8V504.7z M1231.1,535.5l13.8-18.9h8.3l-21,27.5L1231.1,535.5z M1238.1,530.9l6.4-3.9
	l10.1,19.2h-9L1238.1,530.9z"/>
<path class="st1" d="M1257.9,504.7h7.8v7.8h-7.8V504.7z M1257.9,516.6h7.8v29.6h-7.8V516.6z"/>
<path class="st1" d="M1278.3,545c-2-1-3.6-2.7-4.6-4.7c-1.1-2.3-1.6-4.9-1.6-7.4v-3.2c-0.1-2.5,0.5-5.1,1.6-7.3c1-2,2.6-3.6,4.6-4.6
	c2.2-1.1,4.7-1.7,7.2-1.6c1.5,0,3.1,0.2,4.6,0.5c1.4,0.4,2.7,0.9,3.9,1.7c1.1,0.7,2.1,1.5,2.8,2.6l-5,4.9c-0.7-0.7-1.6-1.2-2.5-1.5
	c-1-0.4-2-0.6-3-0.6c-1.7-0.1-3.3,0.5-4.6,1.6c-1.1,1.2-1.7,2.8-1.6,4.5v3.2c-0.1,1.7,0.5,3.3,1.6,4.6c1.3,1.1,2.9,1.7,4.6,1.6
	c1.1,0,2.1-0.2,3.1-0.6c1-0.4,1.8-1,2.5-1.7l5,5.2c-0.8,1-1.8,1.9-2.9,2.5c-1.2,0.7-2.5,1.3-3.8,1.6c-1.5,0.4-3,0.6-4.6,0.5
	C1283.1,546.7,1280.5,546.2,1278.3,545z"/>
<path class="st1" d="M1302.1,504.7h7.8v41.5h-7.8V504.7z M1305.8,535.5l13.8-18.9h8.3l-21,27.5L1305.8,535.5z M1312.8,530.9l6.4-3.9
	l10.1,19.2h-9L1312.8,530.9z"/>
<path class="st1" d="M944.3,296.6h7.8v7.8h-7.8V296.6z M944.3,308.4h7.8V338h-7.8V308.4z"/>
<path class="st1" d="M959.4,308.4h7.8V338h-7.8V308.4z M976.5,320.1c0.1-1.2-0.4-2.5-1.2-3.4c-1-0.9-2.2-1.3-3.5-1.2
	c-1.2-0.1-2.5,0.4-3.3,1.2c-0.8,0.9-1.3,2.2-1.2,3.4l-0.6-6.6c0.7-1.6,1.8-3.1,3.2-4.2c1.4-1,3-1.5,4.7-1.4c2.8-0.2,5.5,1,7.2,3.1
	c1.7,2.1,2.6,5.1,2.6,8.9v18h-7.8V320.1z"/>
<path class="st1" d="M1008,308.4h7.8l-11.1,29.6h-5.6L988,308.4h7.8l6.1,18.6L1008,308.4z"/>
<path class="st1" d="M1020,296.6h7.8v7.8h-7.8V296.6z M1020,308.4h7.8V338h-7.8V308.4z"/>
<path class="st1" d="M1032.8,308.4h14.5v6.7h-14.5V308.4z M1037.6,336.2c-1.2-1.3-1.8-3.3-1.8-5.9v-30.5h7.8v28.6
	c0,0.6,0.1,1.2,0.4,1.7c0.3,0.4,0.8,0.6,1.3,0.6h1.9v7.5h-3.9C1040.7,338.2,1038.8,337.5,1037.6,336.2z"/>
<path class="st1" d="M1059.5,336.9c-2-1-3.6-2.6-4.6-4.5c-1.1-2.2-1.7-4.7-1.6-7.2v-3.3c-0.1-2.6,0.5-5.2,1.5-7.5
	c1-2,2.5-3.7,4.4-4.7c2.2-1.1,4.6-1.7,7.1-1.6c2.4-0.1,4.7,0.6,6.7,1.9c1.9,1.4,3.4,3.4,4.2,5.6c1,2.9,1.5,5.9,1.4,8.9v1.9h-20.3
	v-5.3h13.1l-0.1-0.7c-0.1-1.5-0.7-2.9-1.6-4c-0.9-0.9-2.2-1.5-3.5-1.4c-1.6-0.1-3.2,0.5-4.4,1.7c-1.1,1.3-1.7,3-1.6,4.8v3.8
	c-0.1,1.7,0.5,3.4,1.7,4.7c1.3,1.2,3,1.8,4.8,1.7c1.1,0,2.1-0.2,3.1-0.6c1-0.4,2-0.9,2.8-1.6l5.1,4.5c-1.5,1.4-3.3,2.5-5.2,3.3
	c-1.8,0.8-3.8,1.1-5.8,1.2C1064.3,338.5,1061.8,338,1059.5,336.9z"/>
<path class="st0" d="M1170.4,421.9v302.8c0,10.1-8.2,18.4-18.3,18.4c0,0,0,0,0,0H457.8c-10.1,0-18.4-8.2-18.4-18.3c0,0,0,0,0,0
	V421.9c0-10.1,8.2-18.3,18.4-18.3c0,0,0,0,0,0h694.3C1162.2,403.5,1170.4,411.7,1170.4,421.9z"/>
<path class="st2" d="M600,530.3c-1.6-0.9-2.9-2.2-3.7-3.9c-0.9-1.9-1.3-4-1.2-6.1v-19.4h4.3v19.6c-0.1,1.9,0.5,3.7,1.7,5.2
	c1.2,1.3,3,1.9,4.7,1.8c1.8,0.1,3.5-0.6,4.8-1.8c1.2-1.4,1.8-3.3,1.7-5.2v-19.6h4.3v19.4c0.1,2.1-0.4,4.2-1.3,6.1
	c-0.8,1.6-2.1,3-3.7,3.9C607.9,532.1,603.6,532.1,600,530.3z"/>
<path class="st2" d="M627,531.3c-1.1-0.2-2.2-0.6-3.2-1.1c-1-0.5-1.9-1.1-2.7-1.9l2.5-3.1c1.1,0.8,2.2,1.5,3.5,2
	c1.1,0.4,2.3,0.7,3.4,0.7c1.3,0.1,2.6-0.2,3.8-0.8c0.8-0.5,1.3-1.4,1.3-2.3c0-0.6-0.2-1.2-0.7-1.6c-0.5-0.4-1.1-0.6-1.7-0.7
	c-0.7-0.1-1.7-0.2-2.9-0.3H630h-0.3h-0.3c-1.2-0.1-2.4-0.3-3.6-0.6c-1-0.3-1.8-0.9-2.4-1.7c-0.7-1-1.1-2.3-1-3.5
	c-0.1-1.3,0.3-2.7,0.9-3.8c0.7-1,1.6-1.8,2.8-2.3c1.5-0.6,3.1-0.8,4.7-0.8c1.1,0,2.2,0.1,3.2,0.3c1,0.2,2,0.5,2.9,0.9
	c0.9,0.4,1.9,1,2.7,1.6l-2.6,3.1c-1-0.7-2.1-1.2-3.2-1.6c-1-0.3-2-0.5-3.1-0.5c-1.1-0.1-2.3,0.2-3.3,0.7c-0.7,0.5-1.1,1.3-1.1,2.2
	c0,0.5,0.2,1,0.6,1.3c0.5,0.3,1,0.5,1.6,0.6c0.6,0.1,1.5,0.2,2.7,0.2c0.1,0,0.2,0,0.3,0h0.3h0.2c0,0,0.1,0,0.1,0
	c1.3,0.1,2.6,0.3,3.9,0.6c1.1,0.3,2,0.9,2.7,1.8c0.8,1.2,1.2,2.5,1.1,3.9c0.1,1.4-0.3,2.7-1,3.9c-0.7,1.1-1.8,1.9-3,2.3
	c-1.6,0.6-3.3,0.8-5.1,0.8C629.4,531.7,628.2,531.5,627,531.3z"/>
<path class="st2" d="M648.9,530.5c-1.4-0.7-2.5-1.9-3.2-3.3c-0.8-1.6-1.2-3.5-1.1-5.3v-2.4c-0.1-1.9,0.3-3.8,1.1-5.5
	c0.7-1.5,1.7-2.7,3.1-3.5c1.5-0.8,3.2-1.2,4.9-1.2c1.7,0,3.3,0.4,4.7,1.4c1.3,1,2.4,2.4,2.9,3.9c0.7,2,1.1,4.1,1,6.2v1.4h-14.6v-3.4
	h10.6c0-1.5-0.5-2.9-1.4-4.1c-0.8-1-1.9-1.5-3.2-1.5c-1.4-0.1-2.8,0.5-3.8,1.6c-1,1.3-1.4,2.9-1.3,4.5v2.8c-0.1,1.5,0.4,3,1.4,4.1
	c1.1,1,2.5,1.5,4,1.4c0.9,0,1.8-0.2,2.6-0.5c0.8-0.3,1.6-0.8,2.3-1.5l2.8,2.8c-1,1-2.3,1.8-3.6,2.4c-1.3,0.5-2.6,0.8-4,0.8
	C652.3,531.7,650.5,531.3,648.9,530.5z"/>
<path class="st2" d="M668.1,509.6h4.3v21.8h-4.3V509.6z M678.7,513.7c-0.6-0.2-1.3-0.4-2-0.3c-1.2-0.1-2.3,0.3-3.2,1.1
	c-0.8,0.8-1.2,2-1.1,3.1l-0.4-4.2c0.6-1.2,1.5-2.2,2.6-3c1-0.7,2.3-1.1,3.5-1.1c0.9,0,1.8,0.1,2.7,0.4c0.8,0.3,1.5,0.7,2.1,1.3
	l-2.8,3.8C679.7,514.3,679.2,513.9,678.7,513.7L678.7,513.7z"/>
<path class="st2" d="M702.8,530.2c-1.6-0.9-2.9-2.3-3.7-4c-0.9-1.9-1.4-3.9-1.3-6v-8.3c0-2.1,0.4-4.1,1.3-6c0.8-1.7,2.1-3.1,3.7-4
	c1.7-1,3.6-1.5,5.5-1.4c1.7,0,3.3,0.4,4.8,1.1c1.5,0.7,2.7,1.8,3.7,3.2c1,1.4,1.7,3,2,4.7h-4.4c-0.3-0.9-0.7-1.8-1.3-2.5
	c-0.6-0.7-1.3-1.3-2.2-1.7c-1.9-0.9-4.1-0.8-5.9,0.3c-1,0.6-1.7,1.5-2.2,2.5c-0.5,1.2-0.8,2.5-0.8,3.8v8.3c0,1.3,0.2,2.6,0.8,3.8
	c0.5,1,1.2,1.9,2.2,2.5c1,0.6,2.1,0.9,3.3,0.9c0.9,0,1.8-0.2,2.6-0.6c0.8-0.4,1.6-1,2.2-1.7c0.6-0.8,1.1-1.7,1.3-2.6h4.4
	c-0.3,1.7-1,3.3-2,4.8c-1,1.3-2.2,2.4-3.7,3.2c-1.5,0.8-3.1,1.1-4.8,1.1C706.4,531.6,704.5,531.2,702.8,530.2z"/>
<path class="st2" d="M728.7,522.8c-0.1,1.3,0.3,2.5,1.2,3.5c0.9,0.9,2.1,1.3,3.3,1.2c1.2,0.1,2.4-0.3,3.2-1.1c0.8-0.8,1.2-2,1.2-3.2
	l0.3,4.5c-0.5,1.1-1.2,2-2.2,2.7c-1.1,0.8-2.4,1.1-3.7,1.1c-2.1,0.1-4.2-0.7-5.5-2.3c-1.4-1.9-2.1-4.2-2-6.5v-13.2h4.3L728.7,522.8z
	 M737.5,509.6h4.2v21.8h-4.2V509.6z"/>
<path class="st2" d="M752.3,531.3c-1.1-0.2-2.2-0.6-3.2-1.1c-1-0.5-1.9-1.1-2.7-1.9l2.5-3.1c1.1,0.8,2.2,1.5,3.5,2
	c1.1,0.4,2.3,0.7,3.4,0.7c1.3,0.1,2.6-0.2,3.8-0.8c0.8-0.5,1.3-1.4,1.3-2.3c0-0.6-0.2-1.2-0.7-1.6c-0.5-0.4-1.1-0.6-1.7-0.7
	c-0.7-0.1-1.6-0.2-2.9-0.3h-0.4H755h-0.3c-1.2-0.1-2.4-0.3-3.6-0.6c-1-0.3-1.8-0.9-2.4-1.7c-0.7-1-1.1-2.3-1-3.5
	c0-1.3,0.3-2.7,0.9-3.8c0.7-1,1.7-1.8,2.8-2.3c1.5-0.6,3.1-0.8,4.7-0.8c1.1,0,2.2,0.1,3.2,0.3c1,0.2,2,0.5,2.9,0.9
	c1,0.4,1.9,0.9,2.7,1.6l-2.6,3.1c-1-0.7-2.1-1.2-3.2-1.6c-1-0.3-2-0.5-3.1-0.5c-1.1-0.1-2.3,0.2-3.3,0.7c-0.7,0.5-1.1,1.3-1.1,2.2
	c0,0.5,0.2,1,0.6,1.3c0.5,0.3,1,0.5,1.6,0.6c0.6,0.1,1.5,0.2,2.7,0.2c0.1,0,0.2,0,0.3,0h0.3h0.1c0,0,0.1,0,0.1,0
	c1.3,0.1,2.6,0.3,3.9,0.6c1.1,0.3,2,0.9,2.7,1.8c0.8,1.2,1.2,2.5,1.1,3.9c0.1,1.4-0.3,2.7-1,3.9c-0.7,1.1-1.8,1.9-3,2.3
	c-1.6,0.6-3.3,0.8-5.1,0.8C754.7,531.6,753.5,531.5,752.3,531.3z"/>
<path class="st2" d="M768.8,509.6h9.8v3.8h-9.8V509.6z M772.3,530c-0.9-1.2-1.3-2.8-1.2-4.3v-22.4h4.3v22.4c0,0.4,0.1,0.9,0.3,1.2
	c0.2,0.3,0.6,0.5,0.9,0.4h2v4.1h-2.5C774.7,531.6,773.3,531,772.3,530z"/>
<path class="st2" d="M788,530.5c-1.3-0.7-2.4-1.9-3.1-3.2c-0.7-1.6-1.1-3.3-1.1-5.1v-3.5c0-1.7,0.3-3.4,1.1-5
	c0.6-1.4,1.7-2.5,3.1-3.3c3.1-1.5,6.6-1.5,9.7,0c1.3,0.7,2.4,1.8,3.1,3.2c0.7,1.6,1.1,3.3,1.1,5v3.6c0.1,1.7-0.3,3.5-1.1,5.1
	c-0.7,1.4-1.7,2.5-3.1,3.2C794.6,531.9,791,531.9,788,530.5L788,530.5z M796.3,526.2c0.9-1.1,1.3-2.5,1.2-3.9v-3.6
	c0.1-1.4-0.3-2.8-1.2-3.9c-1.9-1.9-5-1.9-6.9,0c-0.9,1.1-1.3,2.5-1.2,3.9v3.6c-0.1,1.4,0.3,2.8,1.2,3.9
	C791.3,528,794.3,528,796.3,526.2z"/>
<path class="st2" d="M807.8,509.6h4.3v21.8h-4.3V509.6z M820.8,518.2c0.1-1.3-0.3-2.6-1.1-3.6c-0.8-0.9-2-1.3-3.2-1.2
	c-1.2-0.1-2.4,0.3-3.2,1.1c-0.8,0.8-1.2,2-1.1,3.1l-0.4-4.2c0.6-1.2,1.5-2.2,2.6-3c1.1-0.7,2.3-1.1,3.6-1.1c1.4-0.1,2.7,0.3,3.9,1
	c1.1,0.7,2,1.8,2.5,3c0.6,1.5,0.9,3.2,0.8,4.8v13.3h-4.3L820.8,518.2z M833.8,518.2c0.1-1.3-0.4-2.6-1.2-3.6
	c-0.9-0.9-2.1-1.3-3.3-1.2c-1.2-0.1-2.3,0.4-3.1,1.2c-0.8,1-1.2,2.2-1.1,3.4l-0.8-4.2c0.6-1.3,1.5-2.5,2.7-3.3
	c1.1-0.8,2.4-1.2,3.7-1.2c1.4-0.1,2.8,0.3,4,1c1.1,0.7,2,1.8,2.5,3c0.6,1.5,0.9,3.2,0.9,4.8v13.3h-4.3L833.8,518.2z"/>
<path class="st2" d="M844.5,500.9h4.3v4.3h-4.3V500.9z M844.5,509.6h4.3v21.8h-4.3V509.6z"/>
<path class="st2" d="M870.2,513.2l-10.4,14.2h11v4h-16.2v-3.7l10.7-14.1h-10.4v-4h15.3V513.2z"/>
<path class="st2" d="M880.2,530.5c-1.4-0.7-2.5-1.9-3.3-3.3c-0.8-1.7-1.2-3.5-1.1-5.3v-2.4c-0.1-1.9,0.3-3.8,1.1-5.5
	c0.7-1.5,1.8-2.7,3.1-3.5c1.5-0.8,3.2-1.2,4.9-1.2c1.7,0,3.3,0.4,4.6,1.4c1.3,1,2.4,2.4,2.9,3.9c0.7,2,1.1,4.1,1,6.2v1.4h-14.6v-3.4
	h10.6c0-1.5-0.5-2.9-1.4-4.1c-0.8-1-1.9-1.5-3.2-1.5c-1.4-0.1-2.8,0.5-3.8,1.6c-1,1.3-1.4,2.9-1.3,4.5v2.8c-0.1,1.5,0.4,3,1.4,4.1
	c1.1,1,2.5,1.5,4,1.4c0.9,0,1.8-0.2,2.6-0.5c0.8-0.3,1.6-0.8,2.3-1.5l2.8,2.8c-1,1-2.3,1.8-3.6,2.4c-1.3,0.6-2.6,0.8-4,0.8
	C883.6,531.7,881.8,531.3,880.2,530.5z"/>
<path class="st2" d="M902.2,530.7c-1.1-0.7-2-1.8-2.6-3c-0.6-1.5-0.9-3.1-0.9-4.8v-4.8c0-1.6,0.3-3.3,0.9-4.8c0.5-1.2,1.4-2.3,2.5-3
	c1.2-0.7,2.6-1.1,4-1c1.2,0,2.5,0.3,3.5,1c1.1,0.7,2,1.7,2.6,2.8l-0.4,4.4c0-0.8-0.1-1.6-0.5-2.4c-0.3-0.6-0.8-1.2-1.5-1.5
	c-0.7-0.4-1.5-0.5-2.3-0.5c-1.2-0.1-2.4,0.4-3.3,1.3c-0.8,1-1.2,2.4-1.2,3.7v4.7c-0.1,1.3,0.3,2.6,1.2,3.7c0.9,0.9,2.1,1.4,3.3,1.3
	c0.8,0,1.6-0.2,2.3-0.5c0.6-0.4,1.1-0.9,1.5-1.5c0.4-0.7,0.5-1.6,0.5-2.4l0.3,4.6c-0.4,1.1-1.2,2-2.1,2.7c-1.1,0.7-2.3,1.1-3.6,1.1
	C904.9,531.8,903.5,531.4,902.2,530.7z M911.7,500.9h4.2v30.5h-4.3L911.7,500.9z"/>
<path class="st1" d="M528.8,460.4c-1.1-0.6-2-1.6-2.6-2.7c-0.6-1.3-0.9-2.8-0.9-4.3v-13.6h3v13.7c-0.1,1.3,0.3,2.6,1.2,3.6
	c0.9,0.9,2.1,1.4,3.3,1.3c1.2,0.1,2.5-0.4,3.3-1.3c0.8-1,1.3-2.3,1.2-3.6v-13.7h3v13.6c0,1.5-0.3,2.9-0.9,4.3
	c-0.6,1.2-1.5,2.1-2.6,2.7c-1.3,0.6-2.7,1-4.1,0.9C531.4,461.4,530,461,528.8,460.4z"/>
<path class="st1" d="M547.8,461.1c-0.8-0.2-1.5-0.4-2.2-0.8c-0.7-0.4-1.3-0.8-1.9-1.3l1.8-2.2c0.7,0.6,1.6,1.1,2.5,1.4
	c0.8,0.3,1.6,0.5,2.4,0.5c0.9,0.1,1.8-0.1,2.7-0.5c0.6-0.3,0.9-1,0.9-1.7c0-0.4-0.2-0.8-0.5-1.1c-0.4-0.3-0.8-0.4-1.2-0.5
	c-0.5-0.1-1.2-0.2-2-0.2h-0.2h-0.2h-0.2c-0.8-0.1-1.7-0.2-2.5-0.4c-0.7-0.2-1.3-0.6-1.7-1.2c-0.5-0.7-0.7-1.6-0.7-2.5
	c0-0.9,0.2-1.9,0.7-2.7c0.5-0.7,1.2-1.3,2-1.6c1-0.4,2.2-0.6,3.3-0.5c0.8,0,1.5,0.1,2.3,0.2c1.4,0.3,2.8,0.9,4,1.8l-1.8,2.2
	c-0.7-0.5-1.5-0.8-2.3-1.1c-0.7-0.2-1.4-0.4-2.2-0.4c-0.8-0.1-1.6,0.1-2.3,0.5c-0.5,0.4-0.8,0.9-0.8,1.6c0,0.4,0.1,0.7,0.4,0.9
	c0.3,0.2,0.7,0.4,1.1,0.4c0.6,0.1,1.3,0.1,1.9,0.2h0.2h0.3h0.1c0.9,0,1.8,0.2,2.7,0.4c0.7,0.2,1.4,0.7,1.9,1.3
	c0.6,0.8,0.8,1.8,0.8,2.8c0,1-0.2,1.9-0.7,2.7c-0.5,0.8-1.3,1.3-2.1,1.6c-1.1,0.4-2.4,0.6-3.6,0.5
	C549.5,461.3,548.6,461.2,547.8,461.1z"/>
<path class="st1" d="M563.1,460.5c-1-0.5-1.8-1.3-2.3-2.3c-0.6-1.2-0.8-2.4-0.8-3.7v-1.7c0-1.3,0.2-2.7,0.8-3.9
	c0.5-1,1.2-1.9,2.2-2.4c1.1-0.6,2.3-0.9,3.5-0.8c1.2,0,2.3,0.3,3.3,1c0.9,0.7,1.7,1.7,2.1,2.8c0.5,1.4,0.8,2.9,0.7,4.3v1h-10.3v-2.5
	h7.4c0-1-0.4-2.1-1-2.9c-0.5-0.7-1.4-1-2.2-1c-1-0.1-2,0.4-2.6,1.1c-0.7,0.9-1,2-0.9,3.2v1.9c-0.1,1.1,0.3,2.1,1,2.9
	c0.8,0.7,1.8,1.1,2.8,1c0.6,0,1.2-0.1,1.8-0.4c0.6-0.2,1.1-0.6,1.6-1l2,2c-0.7,0.7-1.6,1.3-2.5,1.7c-0.9,0.4-1.9,0.6-2.8,0.6
	C565.5,461.4,564.2,461.1,563.1,460.5z"/>
<path class="st1" d="M576.6,445.9h3v15.2h-3V445.9z M584,448.7c-0.4-0.2-0.9-0.3-1.4-0.2c-1.5-0.2-2.8,0.9-3,2.4c0,0.2,0,0.4,0,0.6
	l-0.3-2.9c0.4-0.9,1-1.6,1.8-2.1c0.7-0.5,1.6-0.8,2.5-0.8c0.6,0,1.3,0.1,1.9,0.3c0.5,0.2,1.1,0.5,1.5,0.9l-2,2.6
	C584.7,449.2,584.4,448.9,584,448.7L584,448.7z"/>
<path class="st1" d="M597.5,439.8h3v21.3h-3V439.8z M601.9,460.6c-0.7-0.5-1.3-1.1-1.6-1.9l0.2-3.2c0,0.6,0.1,1.2,0.3,1.7
	c0.2,0.4,0.6,0.8,1,1.1c0.5,0.3,1.1,0.4,1.6,0.4c0.9,0,1.7-0.3,2.3-0.9c0.6-0.7,0.9-1.6,0.8-2.5v-3.3c0.1-0.9-0.2-1.9-0.8-2.6
	c-0.6-0.6-1.4-1-2.3-0.9c-0.6,0-1.1,0.1-1.6,0.3c-0.4,0.2-0.8,0.6-1,1c-0.2,0.5-0.4,1.1-0.3,1.6l-0.3-2.9c0.4-0.8,1-1.5,1.8-2.1
	c0.7-0.5,1.6-0.7,2.5-0.7c1,0,1.9,0.2,2.8,0.7c0.8,0.5,1.4,1.2,1.8,2.1c0.4,1.1,0.6,2.2,0.6,3.4v3.3c0,1.1-0.2,2.3-0.6,3.3
	c-0.4,0.9-1,1.6-1.8,2.1c-0.9,0.5-1.9,0.7-2.8,0.7C603.5,461.3,602.6,461.1,601.9,460.6z"/>
<path class="st1" d="M614.6,460.2c-1-0.9-1.5-2.2-1.4-3.5c-0.1-1.3,0.4-2.5,1.3-3.4c1.1-0.8,2.5-1.2,3.9-1.1h4.3l0.2,2.4h-4.5
	c-0.6-0.1-1.3,0.1-1.8,0.5c-0.4,0.4-0.6,1-0.6,1.6c0,0.7,0.2,1.3,0.8,1.7c0.7,0.4,1.5,0.6,2.3,0.6c0.9,0,1.7-0.1,2.6-0.4
	c0.5-0.2,0.8-0.6,0.8-1.2l0.3,2.2c-0.3,0.4-0.6,0.7-1,1c-0.4,0.3-0.9,0.5-1.3,0.6c-0.6,0.1-1.1,0.2-1.7,0.2
	C617.3,461.4,615.8,461,614.6,460.2z M622.5,451.4c0.1-0.9-0.2-1.7-0.8-2.3c-0.6-0.6-1.4-0.9-2.3-0.8c-0.6,0-1.2,0.1-1.8,0.3
	c-0.6,0.2-1.1,0.4-1.5,0.8l-2.2-1.5c0.6-0.7,1.4-1.3,2.3-1.6c1-0.4,2.1-0.6,3.2-0.6c1.1,0,2.2,0.2,3.2,0.7c0.9,0.4,1.6,1.1,2.1,1.9
	c0.5,0.9,0.7,2,0.7,3.1v9.8h-2.8V451.4z"/>
<path class="st1" d="M632.8,461.1c-1.5-0.3-2.9-1.1-4.1-2.1l1.8-2.2c0.8,0.6,1.6,1.1,2.5,1.4c0.8,0.3,1.6,0.5,2.4,0.5
	c0.9,0.1,1.8-0.1,2.7-0.5c0.6-0.3,0.9-1,0.9-1.7c0-0.4-0.2-0.8-0.5-1.1c-0.4-0.3-0.8-0.4-1.2-0.5c-0.5-0.1-1.2-0.2-2-0.2h-0.2h-0.2
	h-0.2c-0.8-0.1-1.7-0.2-2.5-0.4c-0.7-0.2-1.3-0.6-1.7-1.2c-0.5-0.7-0.7-1.6-0.7-2.5c0-0.9,0.2-1.9,0.7-2.7c0.5-0.7,1.2-1.3,2-1.6
	c1.1-0.4,2.2-0.6,3.3-0.5c0.8,0,1.5,0.1,2.3,0.2c0.7,0.1,1.4,0.4,2.1,0.7c0.7,0.3,1.3,0.7,1.9,1.1l-1.8,2.2
	c-0.7-0.5-1.5-0.8-2.2-1.1c-0.7-0.2-1.4-0.4-2.2-0.4c-0.8-0.1-1.6,0.1-2.3,0.5c-0.5,0.3-0.8,0.9-0.8,1.6c0,0.4,0.1,0.7,0.4,0.9
	c0.3,0.2,0.7,0.4,1.1,0.4c0.6,0.1,1.3,0.1,1.9,0.2h0.2h0.3h0.1c0.9,0,1.8,0.2,2.7,0.4c0.7,0.2,1.4,0.7,1.9,1.3
	c0.6,0.8,0.8,1.8,0.8,2.8c0,1-0.2,1.9-0.7,2.7c-0.5,0.8-1.3,1.3-2.1,1.6c-1.1,0.4-2.4,0.6-3.6,0.5
	C634.5,461.3,633.6,461.2,632.8,461.1z"/>
<path class="st1" d="M648.1,460.5c-1-0.5-1.8-1.3-2.3-2.3c-0.6-1.2-0.8-2.4-0.8-3.7v-1.7c0-1.3,0.2-2.7,0.8-3.9
	c0.5-1,1.2-1.9,2.2-2.4c1.1-0.6,2.3-0.9,3.5-0.8c1.2,0,2.3,0.3,3.3,1c0.9,0.7,1.7,1.7,2.1,2.8c0.5,1.4,0.7,2.9,0.7,4.3v1h-10.3v-2.5
	h7.4c0-1-0.4-2.1-1-2.9c-0.5-0.7-1.4-1-2.2-1c-1-0.1-2,0.4-2.6,1.1c-0.7,0.9-1,2-0.9,3.2v1.9c-0.1,1.1,0.3,2.1,1,2.9
	c0.8,0.7,1.8,1.1,2.8,1c0.6,0,1.2-0.1,1.8-0.4c0.6-0.2,1.1-0.6,1.6-1l2,2c-0.7,0.7-1.6,1.3-2.5,1.7c-0.9,0.4-1.9,0.6-2.8,0.6
	C650.5,461.4,649.3,461.1,648.1,460.5z"/>
<path class="st1" d="M663.6,460.6c-0.8-0.5-1.4-1.2-1.8-2.1c-0.4-1.1-0.6-2.2-0.6-3.3v-3.4c0-1.2,0.2-2.3,0.6-3.4
	c0.4-0.9,1-1.6,1.8-2.1c0.8-0.5,1.8-0.8,2.8-0.7c0.9,0,1.7,0.2,2.5,0.7c0.8,0.5,1.4,1.2,1.8,2l-0.3,3.1c0-0.6-0.1-1.1-0.4-1.7
	c-0.2-0.4-0.6-0.8-1-1c-0.5-0.3-1.1-0.4-1.6-0.4c-0.9-0.1-1.7,0.3-2.3,0.9c-0.6,0.7-0.9,1.7-0.8,2.6v3.3c-0.1,0.9,0.2,1.8,0.8,2.6
	c0.6,0.6,1.4,1,2.3,0.9c0.6,0,1.1-0.1,1.6-0.4c0.4-0.2,0.8-0.6,1-1.1c0.3-0.5,0.4-1.1,0.4-1.7l0.2,3.2c-0.3,0.8-0.8,1.4-1.5,1.9
	c-0.7,0.5-1.6,0.8-2.5,0.8C665.5,461.4,664.5,461.2,663.6,460.6z M670.3,439.8h3v21.3h-3V439.8z"/>
<path class="st1" d="M686,445.9h3v15.2h-3V445.9z M695.1,451.9c0.1-0.9-0.2-1.8-0.8-2.5c-0.6-0.6-1.4-0.9-2.2-0.9
	c-0.8-0.1-1.6,0.2-2.3,0.8c-0.6,0.6-0.8,1.4-0.8,2.2l-0.3-2.9c0.4-0.9,1.1-1.6,1.8-2.1c0.7-0.5,1.6-0.8,2.5-0.8c1,0,1.9,0.2,2.7,0.7
	c0.8,0.5,1.4,1.3,1.7,2.1c0.4,1.1,0.6,2.2,0.6,3.4v9.2h-3L695.1,451.9z M704.2,451.9c0.1-0.9-0.2-1.8-0.8-2.5
	c-0.6-0.6-1.5-0.9-2.3-0.9c-0.8,0-1.6,0.3-2.2,0.8c-0.5,0.7-0.8,1.5-0.8,2.4l-0.6-2.9c0.4-0.9,1.1-1.7,1.9-2.3
	c0.8-0.5,1.7-0.8,2.6-0.8c1,0,2,0.2,2.8,0.7c0.8,0.5,1.4,1.2,1.8,2.1c0.4,1.1,0.6,2.2,0.6,3.4v9.2h-3L704.2,451.9z"/>
<path class="st1" d="M714.2,460.6c-0.9-0.5-1.7-1.3-2.2-2.3c-0.5-1.1-0.8-2.4-0.7-3.6v-2.5c0-1.2,0.2-2.4,0.7-3.5
	c0.5-1,1.2-1.7,2.2-2.2c2.1-1,4.6-1,6.8,0c0.9,0.5,1.7,1.3,2.2,2.2c0.5,1.1,0.8,2.3,0.7,3.5v2.5c0,1.2-0.2,2.4-0.7,3.6
	c-0.5,1-1.2,1.7-2.2,2.3C718.8,461.6,716.3,461.6,714.2,460.6L714.2,460.6z M720,457.5c0.6-0.8,0.9-1.8,0.8-2.8v-2.5
	c0.1-1-0.2-2-0.8-2.7c-1.4-1.3-3.5-1.3-4.9,0c-0.6,0.8-0.9,1.8-0.9,2.7v2.5c-0.1,1,0.2,2,0.9,2.8C716.5,458.8,718.6,458.8,720,457.5
	z"/>
<path class="st1" d="M730.1,460.6c-0.8-0.5-1.4-1.2-1.8-2.1c-0.4-1.1-0.6-2.2-0.6-3.3v-3.4c0-1.2,0.2-2.3,0.6-3.4
	c0.4-0.9,1-1.6,1.8-2.1c0.8-0.5,1.8-0.8,2.8-0.7c0.9,0,1.7,0.2,2.5,0.7c0.8,0.5,1.4,1.2,1.8,2l-0.3,3.1c0-0.6-0.1-1.1-0.4-1.7
	c-0.2-0.4-0.6-0.8-1-1c-0.5-0.3-1.1-0.4-1.6-0.4c-0.9-0.1-1.7,0.3-2.3,0.9c-0.6,0.7-0.9,1.7-0.8,2.6v3.3c-0.1,0.9,0.2,1.8,0.8,2.6
	c0.6,0.6,1.4,1,2.3,0.9c0.6,0,1.1-0.1,1.6-0.4c0.4-0.2,0.8-0.6,1-1.1c0.3-0.5,0.4-1.1,0.4-1.7l0.2,3.2c-0.3,0.8-0.8,1.4-1.5,1.9
	c-0.7,0.5-1.6,0.8-2.5,0.8C731.9,461.4,730.9,461.2,730.1,460.6z M736.8,439.8h3v21.3h-3V439.8z"/>
<path class="st1" d="M747,460.5c-1-0.5-1.8-1.3-2.3-2.3c-0.6-1.2-0.8-2.4-0.8-3.7v-1.7c0-1.3,0.2-2.7,0.8-3.9c0.5-1,1.2-1.9,2.2-2.4
	c1.1-0.6,2.3-0.9,3.5-0.8c1.2,0,2.3,0.3,3.3,1c0.9,0.7,1.7,1.7,2.1,2.8c0.5,1.4,0.7,2.9,0.7,4.3v1H746v-2.5h7.4c0-1-0.4-2.1-1-2.9
	c-0.5-0.7-1.4-1-2.2-1c-1-0.1-2,0.4-2.6,1.1c-0.7,0.9-1,2-0.9,3.2v1.9c-0.1,1.1,0.3,2.1,1,2.9c0.8,0.7,1.8,1.1,2.8,1
	c0.6,0,1.2-0.1,1.8-0.4c0.6-0.2,1.1-0.6,1.6-1l2,2c-0.7,0.7-1.6,1.3-2.5,1.7c-0.9,0.4-1.9,0.6-2.8,0.6
	C749.3,461.4,748.1,461.1,747,460.5z"/>
<path class="st1" d="M760.4,445.9h3v15.2h-3V445.9z M767.8,448.7c-0.4-0.2-0.9-0.3-1.4-0.2c-0.8-0.1-1.6,0.2-2.2,0.8
	c-0.5,0.6-0.8,1.4-0.8,2.2l-0.3-2.9c0.4-0.9,1.1-1.6,1.9-2.1c0.7-0.5,1.6-0.8,2.5-0.8c0.6,0,1.3,0.1,1.9,0.3c0.5,0.2,1,0.5,1.5,0.9
	l-2,2.6C768.6,449.1,768.2,448.9,767.8,448.7z"/>
<path class="st1" d="M774,460.2c-1-0.9-1.5-2.2-1.4-3.5c-0.1-1.3,0.4-2.5,1.3-3.4c1.1-0.8,2.5-1.2,3.9-1.1h4.2l0.2,2.4h-4.5
	c-0.6-0.1-1.3,0.1-1.8,0.5c-0.4,0.4-0.6,1-0.6,1.6c0,0.7,0.2,1.3,0.8,1.7c0.7,0.4,1.5,0.6,2.3,0.6c0.9,0,1.7-0.1,2.6-0.4
	c0.5-0.2,0.8-0.6,0.8-1.2l0.3,2.2c-0.3,0.4-0.6,0.7-1,1c-0.4,0.3-0.9,0.5-1.3,0.6c-0.6,0.1-1.1,0.2-1.7,0.2
	C776.6,461.4,775.2,461,774,460.2z M781.9,451.4c0-0.9-0.2-1.7-0.8-2.3c-0.6-0.6-1.4-0.9-2.3-0.8c-0.6,0-1.2,0.1-1.8,0.3
	c-0.6,0.2-1.1,0.4-1.5,0.8l-2.2-1.5c0.6-0.7,1.4-1.3,2.3-1.6c1-0.4,2.1-0.6,3.2-0.6c1.1,0,2.2,0.2,3.2,0.7c0.9,0.4,1.6,1.1,2,1.9
	c0.5,0.9,0.7,2,0.7,3.1v9.8h-2.9L781.9,451.4z"/>
<path class="st1" d="M788.1,445.9h6.9v2.7h-6.9V445.9z M790.5,460.2c-0.6-0.9-0.9-1.9-0.9-3v-15.8h3v15.8c0,0.3,0.1,0.6,0.2,0.9
	c0.2,0.2,0.4,0.3,0.7,0.3h1.4v2.8h-1.7C792.2,461.2,791.3,460.9,790.5,460.2L790.5,460.2z"/>
<path class="st1" d="M799.1,439.8h3v3h-3V439.8z M799.1,445.9h3v15.2h-3V445.9z"/>
<path class="st1" d="M809.1,460.6c-0.9-0.5-1.7-1.3-2.1-2.3c-0.5-1.1-0.8-2.4-0.7-3.6v-2.5c0-1.2,0.2-2.4,0.7-3.5
	c0.5-1,1.2-1.7,2.2-2.2c2.1-1,4.6-1,6.8,0c0.9,0.5,1.7,1.3,2.2,2.2c0.5,1.1,0.8,2.3,0.7,3.5v2.5c0,1.2-0.2,2.4-0.7,3.6
	c-0.5,1-1.2,1.7-2.2,2.3C813.8,461.6,811.3,461.6,809.1,460.6L809.1,460.6z M814.9,457.5c0.6-0.8,0.9-1.8,0.9-2.8v-2.5
	c0.1-1-0.2-2-0.9-2.7c-1.4-1.3-3.5-1.3-4.9,0c-0.6,0.8-0.9,1.8-0.9,2.7v2.5c-0.1,1,0.2,2,0.9,2.8
	C811.4,458.8,813.6,458.8,814.9,457.5z"/>
<path class="st1" d="M823,445.9h3v15.2h-3V445.9z M832.3,451.9c0.1-0.9-0.2-1.8-0.8-2.5c-0.6-0.6-1.5-0.9-2.3-0.9
	c-0.8-0.1-1.6,0.2-2.3,0.8c-0.6,0.6-0.8,1.4-0.8,2.2l-0.3-2.9c0.4-0.9,1.1-1.6,1.8-2.1c0.7-0.5,1.6-0.8,2.5-0.8
	c1.5-0.1,2.9,0.5,3.8,1.6c1,1.3,1.5,2.9,1.4,4.6v9.2h-3L832.3,451.9z"/>
<path class="st1" d="M505.1,443.7L505.1,443.7c0.8,0.8,0.8,2,0.1,2.8c0,0,0,0-0.1,0.1l-14,14c-0.8,0.8-2,0.8-2.8,0.1
	c0,0,0,0-0.1-0.1l0,0c-0.8-0.8-0.8-2-0.1-2.8c0,0,0,0,0.1-0.1l14-14C503.1,442.9,504.3,442.9,505.1,443.7
	C505.1,443.7,505.1,443.7,505.1,443.7z"/>
<path class="st1" d="M474.2,443.7L474.2,443.7c0.8-0.8,2-0.8,2.8-0.1c0,0,0,0,0.1,0.1l14,14c0.8,0.8,0.8,2,0.1,2.8c0,0,0,0-0.1,0.1
	l0,0c-0.8,0.8-2,0.8-2.8,0.1c0,0,0,0-0.1-0.1l-14-14C473.4,445.8,473.3,444.5,474.2,443.7C474.1,443.7,474.1,443.7,474.2,443.7z"/>
<circle class="st6" cx="620.8" cy="588.9" r="25.9"/>
<path class="st2" d="M665,598.4c-1-0.5-1.8-1.1-2.4-2l2.5-1.8c0.3,0.5,0.7,0.9,1.2,1.2c0.6,0.3,1.2,0.4,1.9,0.4
	c1.1,0.1,2.1-0.4,2.8-1.1c0.7-0.9,1.1-2,1-3.2v-15.2h3.1v15.2c0,1.4-0.2,2.7-0.8,4c-0.5,1.1-1.3,1.9-2.4,2.5
	c-1.2,0.6-2.5,0.9-3.8,0.8C667.2,599.1,666.1,598.8,665,598.4z"/>
<path class="st2" d="M683,598.2c-1-0.5-1.8-1.4-2.2-2.4c-0.5-1.2-0.8-2.5-0.8-3.7v-2.6c0-1.3,0.2-2.5,0.8-3.7c0.5-1,1.3-1.8,2.2-2.3
	c2.2-1.1,4.8-1.1,7.1,0c1,0.5,1.8,1.3,2.2,2.3c0.5,1.2,0.8,2.4,0.8,3.7v2.6c0,1.3-0.2,2.6-0.8,3.7c-0.5,1-1.3,1.8-2.2,2.3
	C687.8,599.3,685.2,599.3,683,598.2z M689.1,595.1c0.6-0.8,1-1.8,0.9-2.9v-2.6c0.1-1-0.2-2.1-0.9-2.9c-1.4-1.3-3.6-1.3-5.1,0
	c-0.6,0.8-1,1.8-0.9,2.9v2.6c-0.1,1,0.3,2.1,0.9,2.9C685.4,596.4,687.6,596.4,689.1,595.1z"/>
<path class="st2" d="M697.5,582.9h3.1v15.9h-3.1V582.9z M707.2,589.2c0.1-0.9-0.3-1.9-0.9-2.6c-0.6-0.6-1.5-1-2.4-0.9
	c-0.9-0.1-1.7,0.2-2.4,0.8c-0.6,0.6-0.9,1.4-0.8,2.3l-0.3-3.1c0.4-0.9,1.1-1.7,1.9-2.2c0.8-0.5,1.7-0.8,2.6-0.8c1.5-0.1,3,0.5,4,1.7
	c1,1.4,1.5,3.1,1.4,4.8v9.6h-3.1L707.2,589.2z"/>
<path class="st2" d="M715.7,597.8c-1-0.9-1.6-2.3-1.5-3.7c-0.1-1.3,0.4-2.6,1.3-3.5c1.1-0.9,2.6-1.3,4-1.2h4.5l0.2,2.5h-4.7
	c-0.7-0.1-1.3,0.1-1.8,0.5c-0.4,0.4-0.7,1-0.6,1.7c-0.1,0.7,0.3,1.4,0.8,1.8c0.7,0.4,1.6,0.6,2.4,0.6c0.9,0,1.8-0.1,2.7-0.4
	c0.5-0.2,0.9-0.6,0.9-1.2l0.3,2.2c-0.3,0.4-0.6,0.8-1,1.1c-0.4,0.3-0.9,0.5-1.4,0.6c-0.6,0.1-1.2,0.2-1.8,0.2
	C718.6,599.2,717,598.7,715.7,597.8z M724,588.8c0.1-0.9-0.2-1.8-0.8-2.4c-0.6-0.6-1.5-0.9-2.4-0.9c-0.6,0-1.3,0.1-1.9,0.3
	c-0.6,0.2-1.1,0.5-1.6,0.8l-2.3-1.6c0.6-0.8,1.5-1.3,2.4-1.7c1-0.4,2.2-0.6,3.3-0.6c1.2,0,2.3,0.2,3.4,0.7c0.9,0.4,1.7,1.1,2.1,2
	c0.5,1,0.8,2.1,0.7,3.2v10.2h-3L724,588.8z"/>
<path class="st2" d="M731.7,576.6h3.1v22.2h-3.1V576.6z M741.4,589.2c0.1-0.9-0.3-1.9-0.9-2.6c-0.6-0.6-1.5-1-2.5-0.9
	c-0.9-0.1-1.7,0.2-2.4,0.8c-0.6,0.6-0.9,1.4-0.8,2.2l-0.3-3.1c0.4-0.9,1.1-1.6,1.9-2.2c0.8-0.5,1.7-0.8,2.6-0.8c1.5-0.1,3,0.5,4,1.7
	c1,1.4,1.5,3.1,1.4,4.8v9.6h-3.1L741.4,589.2z"/>
<circle class="st3" cx="620.8" cy="658.8" r="25.9"/>
<path class="st2" d="M661.9,646.5h15.7v3h-15.7V646.5z M668.1,648.3h3.1v20.4h-3.1V648.3z"/>
<path class="st2" d="M680.6,668.1c-1-0.5-1.8-1.4-2.2-2.4c-0.5-1.2-0.8-2.4-0.8-3.7v-2.6c0-1.3,0.2-2.5,0.8-3.7
	c0.5-1,1.3-1.8,2.2-2.3c2.2-1.1,4.8-1.1,7.1,0c1,0.5,1.8,1.3,2.2,2.3c0.5,1.2,0.8,2.4,0.8,3.7v2.6c0,1.3-0.2,2.6-0.8,3.7
	c-0.5,1-1.3,1.8-2.2,2.3C685.4,669.2,682.8,669.2,680.6,668.1z M686.6,664.9c0.6-0.8,1-1.8,0.9-2.9v-2.6c0.1-1-0.3-2-0.9-2.9
	c-1.4-1.3-3.6-1.3-5.1,0c-0.6,0.8-1,1.8-0.9,2.9v2.6c-0.1,1,0.3,2.1,0.9,2.9C683,666.3,685.2,666.3,686.6,664.9z"/>
<path class="st2" d="M695.1,646.5h3.1v22.2h-3.1V646.5z M699.6,668.2c-0.7-0.5-1.3-1.2-1.6-2l0.2-3.3c0,0.6,0.1,1.2,0.4,1.7
	c0.2,0.5,0.6,0.9,1.1,1.1c0.5,0.3,1.1,0.4,1.7,0.4c0.9,0,1.8-0.3,2.4-0.9c0.6-0.7,0.9-1.7,0.8-2.7v-3.5c0.1-1-0.2-1.9-0.8-2.7
	c-0.6-0.7-1.5-1-2.4-1c-0.6,0-1.2,0.1-1.7,0.4c-0.5,0.2-0.8,0.6-1.1,1.1c-0.3,0.5-0.4,1.1-0.4,1.7l-0.3-3.1c0.4-0.9,1.1-1.6,1.9-2.2
	c0.8-0.5,1.7-0.8,2.6-0.8c1,0,2,0.2,2.9,0.8c0.8,0.5,1.5,1.3,1.8,2.2c0.4,1.1,0.7,2.3,0.6,3.5v3.5c0,1.2-0.2,2.4-0.6,3.5
	c-0.4,0.9-1,1.7-1.9,2.2c-0.9,0.5-1.9,0.8-3,0.8C701.3,668.9,700.4,668.7,699.6,668.2z"/>
<path class="st2" d="M712.1,646.5h3.1v3.1h-3.1V646.5z M712.1,652.8h3.1v15.9h-3.1V652.8z"/>
<path class="st2" d="M720.7,667.7c-1-0.9-1.6-2.3-1.5-3.7c-0.1-1.3,0.4-2.6,1.3-3.5c1.1-0.9,2.6-1.3,4-1.2h4.5l0.2,2.5h-4.7
	c-0.7-0.1-1.3,0.1-1.8,0.5c-0.4,0.4-0.6,1-0.6,1.7c-0.1,0.7,0.2,1.4,0.8,1.8c0.7,0.4,1.6,0.6,2.4,0.6c0.9,0,1.8-0.1,2.7-0.4
	c0.5-0.2,0.9-0.6,0.9-1.2l0.3,2.2c-0.3,0.4-0.6,0.8-1,1.1c-0.4,0.3-0.9,0.5-1.4,0.6c-0.6,0.1-1.2,0.2-1.8,0.2
	C723.5,669,722,668.6,720.7,667.7z M729,658.6c0.1-0.9-0.2-1.8-0.8-2.4c-0.6-0.6-1.5-0.9-2.4-0.9c-0.6,0-1.3,0.1-1.9,0.3
	c-0.6,0.2-1.1,0.5-1.6,0.8l-2.3-1.6c0.6-0.7,1.5-1.3,2.4-1.7c1-0.4,2.2-0.6,3.3-0.6c1.2,0,2.3,0.2,3.4,0.7c0.9,0.4,1.7,1.1,2.2,2
	c0.5,1,0.8,2.1,0.7,3.2v10.2h-3L729,658.6z"/>
<path class="st2" d="M739.7,668.7c-0.8-0.2-1.6-0.5-2.3-0.8c-0.7-0.4-1.4-0.8-2-1.4l1.8-2.3c0.8,0.6,1.6,1.1,2.5,1.5
	c0.8,0.3,1.7,0.5,2.5,0.5c1,0.1,1.9-0.1,2.8-0.6c0.6-0.4,1-1,0.9-1.7c0-0.4-0.2-0.9-0.5-1.2c-0.4-0.3-0.8-0.4-1.2-0.5
	c-0.5-0.1-1.2-0.2-2.1-0.2h-0.3h-0.3h-0.2c-0.9-0.1-1.8-0.2-2.6-0.5c-0.7-0.2-1.3-0.6-1.8-1.2c-0.5-0.8-0.8-1.7-0.7-2.6
	c0-1,0.2-1.9,0.7-2.8c0.5-0.8,1.2-1.3,2-1.7c1.1-0.4,2.2-0.6,3.4-0.6c0.8,0,1.6,0.1,2.4,0.2c1.5,0.3,2.9,0.9,4.1,1.8l-1.8,2.2
	c-0.7-0.5-1.5-0.9-2.3-1.2c-0.7-0.2-1.5-0.4-2.3-0.4c-0.8-0.1-1.7,0.1-2.4,0.5c-0.5,0.4-0.8,1-0.8,1.6c0,0.4,0.1,0.8,0.5,1
	c0.3,0.2,0.7,0.4,1.1,0.4c0.5,0.1,1.1,0.1,2,0.2h0.2h0.2h0.2c1,0.1,1.9,0.2,2.8,0.5c0.8,0.2,1.5,0.7,2,1.3c0.6,0.8,0.9,1.9,0.8,2.9
	c0,1-0.2,2-0.7,2.8c-0.6,0.8-1.4,1.4-2.3,1.7c-1.2,0.4-2.4,0.6-3.7,0.6C741.4,668.9,740.5,668.8,739.7,668.7z"/>
<path class="st1" d="M550.8,509.3h-2v-3.9c0-5.4-4.4-9.8-9.8-9.8s-9.8,4.4-9.8,9.8v3.9h-2c-2.2,0-3.9,1.7-3.9,3.9v19.5
	c0,2.2,1.7,3.9,3.9,3.9h23.4c2.2,0,3.9-1.8,3.9-3.9v-19.6C554.6,511,552.9,509.3,550.8,509.3z M539.1,526.8c-2.2,0-3.9-1.8-3.9-3.9
	s1.8-3.9,3.9-3.9s3.9,1.8,3.9,3.9v0C543,525.1,541.2,526.8,539.1,526.8z M545.1,509.3H533v-3.9c-0.1-3.3,2.5-6.2,5.8-6.3
	c3.3-0.1,6.2,2.5,6.3,5.8c0,0.2,0,0.3,0,0.5V509.3z"/>
<path class="st10" d="M1040.5,496.1h82.3c6,0,10.9,4.9,10.9,10.9v18.2c0,6-4.9,10.9-10.9,10.9h-82.3c-6,0-10.9-4.9-10.9-10.9V507
	C1029.5,501,1034.4,496.1,1040.5,496.1z"/>
</svg>
