<svg id="Layer_1" data-name="Layer 1" xmlns="http://www.w3.org/2000/svg" viewBox="0 0 1603.26 1603.26"><defs><style>.cls-1{fill:#292841;}.cls-2{fill:#b9bbbe;}.cls-3{fill:#fff;}.cls-4{fill:#ed4245;}.cls-5{fill:#5865f2;}.cls-6{fill:#57f287;}</style></defs><path class="cls-1" d="M781.87,610.2V913a18.35,18.35,0,0,1-18.35,18.37H69.21A18.36,18.36,0,0,1,50.84,913V610.2a18.36,18.36,0,0,1,18.37-18.35H763.52A18.35,18.35,0,0,1,781.87,610.2Z"/><path class="cls-2" d="M156.3,704.41a14.49,14.49,0,0,0,6.26,3.74,11.32,11.32,0,0,1,.12,1.67,12,12,0,0,1-3.93,8.91,1.68,1.68,0,0,1-2.82-1.22V704Z"/><path class="cls-2" d="M158.09,698.05l-4.16-4.15h3.2a10.05,10.05,0,0,1,.16-1.74A9.62,9.62,0,1,1,173.2,701a9.67,9.67,0,0,1-4.89,2.36,10.05,10.05,0,0,1-1.56.12A9.56,9.56,0,0,1,160,700.7l1.52-1.52a7.42,7.42,0,0,0,5.27,2.2l.69,0a7.48,7.48,0,1,0-8.12-8.28,7.69,7.69,0,0,0,0,.83h3.2l-.71.71-3.6,3.59Z"/><polygon class="cls-2" points="167.28 694.05 170.49 695.95 171.04 696.28 170.88 696.54 170.22 697.66 165.68 694.97 165.68 689.63 167.28 689.63 167.28 694.05"/><path class="cls-2" d="M174.59,706.36a24.32,24.32,0,0,1-16.45,26.5,1.68,1.68,0,0,1-2.21-1.59v-2.14a1.64,1.64,0,0,1,1.09-1.56,18.93,18.93,0,0,0,12.41-17.75c0-.45,0-.9-.06-1.36A14.27,14.27,0,0,0,174.59,706.36Z"/><path class="cls-2" d="M174.59,706.36a14.29,14.29,0,0,1-5.21,2.1c0,.44.05.89.05,1.35A18.9,18.9,0,0,1,157,727.56a1.65,1.65,0,0,0-1.09,1.56v2.15a1.68,1.68,0,0,0,2.21,1.59,24.29,24.29,0,0,0,16.69-23.06A26.15,26.15,0,0,0,174.59,706.36Zm-6.28-3A9.67,9.67,0,0,0,173.2,701c-.28-.72-.59-1.41-.93-2.08a7.5,7.5,0,0,1-4.83,2.4A16.9,16.9,0,0,1,168.31,703.39Zm2.57-6.85c-.12-.19-.25-.39-.39-.58l-3.22-1.91v-1.83c-.51-.48-1-1-1.6-1.39V695l4.54,2.69Zm-9.12-1.93.72-.71h-1.74C161.09,694.12,161.42,694.36,161.76,694.61Zm0-6.32c-.68-.35-1.36-.67-2.07-1a9.73,9.73,0,0,0-2.44,4.82,21.76,21.76,0,0,1,2,.91A7.51,7.51,0,0,1,161.8,688.29Zm.77,19.86a14.43,14.43,0,0,1-6.26-3.74c-.12-.12-.25-.25-.37-.39V717.5a1.68,1.68,0,0,0,2.82,1.23,12.06,12.06,0,0,0,3.93-8.92A12.84,12.84,0,0,0,162.57,708.15Zm-14.9-17.07-10.13,10.13a1.67,1.67,0,0,1-1.19.5h-8.42a1.68,1.68,0,0,0-1.68,1.68v12.84a1.68,1.68,0,0,0,1.68,1.67h8.42a1.66,1.66,0,0,1,1.19.5l10.13,10.14a1.68,1.68,0,0,0,2.87-1.19V692.26A1.68,1.68,0,0,0,147.67,691.08Z"/><polygon class="cls-2" points="167.28 694.05 170.49 695.95 171.04 696.28 170.88 696.54 170.22 697.66 165.68 694.97 165.68 689.63 167.28 689.63 167.28 694.05"/><path class="cls-2" d="M173.2,701a9.67,9.67,0,0,1-4.89,2.36,10.05,10.05,0,0,1-1.56.12,9.56,9.56,0,0,1-6.79-2.82l1.52-1.52a7.38,7.38,0,0,0,5.27,2.2l.69,0a7.48,7.48,0,1,0-8.12-8.28,7.69,7.69,0,0,0,0,.83h3.2l-.71.71-3.6,3.59-.07-.15-4.16-4.15h3.2a9.16,9.16,0,0,1,.16-1.74,9.62,9.62,0,0,1,19.06,1.29A9.7,9.7,0,0,1,173.2,701Z"/><path class="cls-2" d="M155.94,704c.12.14.24.26.37.39h-.37Z"/><polygon class="cls-2" points="167.28 694.05 170.49 695.95 171.04 696.28 170.88 696.54 170.22 697.66 165.68 694.97 165.68 689.63 167.28 689.63 167.28 694.05"/><path class="cls-2" d="M173.2,701a9.67,9.67,0,0,1-4.89,2.36,10.05,10.05,0,0,1-1.56.12,9.56,9.56,0,0,1-6.79-2.82l1.52-1.52a7.38,7.38,0,0,0,5.27,2.2l.69,0a7.48,7.48,0,1,0-8.12-8.28,7.69,7.69,0,0,0,0,.83h3.2l-.71.71-3.6,3.59-.07-.15-4.16-4.15h3.2a9.16,9.16,0,0,1,.16-1.74,9.62,9.62,0,0,1,19.06,1.29A9.7,9.7,0,0,1,173.2,701Z"/><path class="cls-2" d="M170.49,696,167.27,694v-4.42h-1.6V695l4.54,2.7.67-1.13.16-.25Zm5.86-2.51a9.62,9.62,0,0,0-19.06-1.29,10.05,10.05,0,0,0-.16,1.74h-3.2l4.16,4.15.07.15,3.6-3.59.72-.71h-3.21c0-.28,0-.55,0-.83a7.48,7.48,0,0,1,2.49-4.77,7.38,7.38,0,0,1,5.23-1.87,7.48,7.48,0,0,1,.4,14.92l-.69,0a7.38,7.38,0,0,1-5.27-2.2L160,700.69a9.56,9.56,0,0,0,6.79,2.82,10,10,0,0,0,1.56-.12,9.63,9.63,0,0,0,8-9.95ZM170.49,696l.39.58.16-.25Zm-3.21-6.32h-1.6v1.2c.56.44,1.09.91,1.6,1.39Z"/><path class="cls-3" d="M207,689.24h4.27v30.42H207Zm2.88,26.36h6.89a7.31,7.31,0,0,0,5.22-1.75,6.44,6.44,0,0,0,1.85-4.92v-9a6.44,6.44,0,0,0-1.85-4.92,7.31,7.31,0,0,0-5.22-1.75h-6.89v-4.06h6.76a14.09,14.09,0,0,1,6.26,1.28,8.9,8.9,0,0,1,3.95,3.72,11.94,11.94,0,0,1,1.36,5.9v8.62a11.94,11.94,0,0,1-1.36,5.9,8.92,8.92,0,0,1-4,3.72,14.16,14.16,0,0,1-6.27,1.28h-6.74Z"/><path class="cls-3" d="M234.65,689.24h3.87l14.88,23.51-.5.55V689.24h4.22v30.4h-3.91l-14.83-23.16.5-.55v23.71h-4.23Z"/><path class="cls-3" d="M264.65,689.24h4.27v30.42h-4.27Zm2.89,26.36h6.88a7.27,7.27,0,0,0,5.22-1.75,6.4,6.4,0,0,0,1.85-4.92v-9a6.4,6.4,0,0,0-1.85-4.92,7.27,7.27,0,0,0-5.22-1.75h-6.88v-4.06h6.76a14,14,0,0,1,6.25,1.28,8.92,8.92,0,0,1,4,3.72,12,12,0,0,1,1.36,5.9v8.62a12,12,0,0,1-1.36,5.9,8.89,8.89,0,0,1-4,3.72,14.09,14.09,0,0,1-6.26,1.28h-6.74Z"/><path class="cls-2" d="M137.08,628.08h3v21.35h-3Zm2,18.5h4.83a5.13,5.13,0,0,0,3.67-1.22,4.55,4.55,0,0,0,1.3-3.46v-6.29a4.55,4.55,0,0,0-1.3-3.46,5.18,5.18,0,0,0-3.67-1.22h-4.83v-2.85h4.74a9.93,9.93,0,0,1,4.39.89,6.24,6.24,0,0,1,2.78,2.62,8.34,8.34,0,0,1,1,4.14v6a8.34,8.34,0,0,1-1,4.14,6.24,6.24,0,0,1-2.78,2.62,9.9,9.9,0,0,1-4.4.89h-4.73Z"/><path class="cls-2" d="M159.16,648.86a5.32,5.32,0,0,1-2.29-2.33,8.1,8.1,0,0,1-.78-3.71v-1.71a9.09,9.09,0,0,1,.75-3.87,5.5,5.5,0,0,1,2.2-2.44,6.86,6.86,0,0,1,3.47-.83,5.55,5.55,0,0,1,3.26.95,5.94,5.94,0,0,1,2.06,2.76,11.75,11.75,0,0,1,.71,4.34v1H158.26v-2.41h7.43a5.15,5.15,0,0,0-1-2.9,2.7,2.7,0,0,0-2.22-1,3.23,3.23,0,0,0-2.64,1.12,4.77,4.77,0,0,0-.93,3.15v1.94a3.94,3.94,0,0,0,1,2.91,3.77,3.77,0,0,0,2.83,1,4.84,4.84,0,0,0,1.81-.37,5.41,5.41,0,0,0,1.6-1l2,2a8.43,8.43,0,0,1-2.55,1.68,7.11,7.11,0,0,1-2.83.59A7.61,7.61,0,0,1,159.16,648.86Z"/><path class="cls-2" d="M171.48,634.19h7.62v2.55h-7.62Zm1.62-2.07a4.35,4.35,0,0,1,.93-3,3.73,3.73,0,0,1,2.87-1h2.2v2.85H177a.76.76,0,0,0-.65.32,1.54,1.54,0,0,0-.22.84v17.34h-3Z"/><path class="cls-2" d="M182.26,648.49a4.36,4.36,0,0,1-1.39-3.55,4.28,4.28,0,0,1,1.27-3.39,5.68,5.68,0,0,1,3.87-1.13h4.33l.21,2.4H186a2.53,2.53,0,0,0-1.75.53,2,2,0,0,0-.58,1.59,2,2,0,0,0,.77,1.72,4,4,0,0,0,2.34.56,6.82,6.82,0,0,0,2.56-.37,1.21,1.21,0,0,0,.85-1.15l.31,2.15a3.5,3.5,0,0,1-1,1,4.42,4.42,0,0,1-1.34.6,7,7,0,0,1-1.72.19A6.46,6.46,0,0,1,182.26,648.49Zm8-8.72a3.23,3.23,0,0,0-.8-2.33,3,3,0,0,0-2.27-.83,5.77,5.77,0,0,0-1.79.28,5.5,5.5,0,0,0-1.55.78l-2.18-1.5a5.6,5.6,0,0,1,2.28-1.62,8.15,8.15,0,0,1,3.15-.58,7.22,7.22,0,0,1,3.25.67,4.62,4.62,0,0,1,2,1.93,6.25,6.25,0,0,1,.71,3.07v9.79h-2.85Z"/><path class="cls-2" d="M200.61,643.46a3.5,3.5,0,0,0,.81,2.47,3,3,0,0,0,2.3.88A3.15,3.15,0,0,0,206,646a2.94,2.94,0,0,0,.81-2.22L207,647a4.35,4.35,0,0,1-1.53,1.89,4.3,4.3,0,0,1-2.6.76A4.84,4.84,0,0,1,199,648a6.91,6.91,0,0,1-1.37-4.57v-9.27h3Zm6.2-9.27h3v15.24h-3Z"/><path class="cls-2" d="M217.34,645.5a1.35,1.35,0,0,0,.24.86.83.83,0,0,0,.68.3h1.41v2.85h-1.76a3.36,3.36,0,0,1-2.64-1.06,4.36,4.36,0,0,1-.93-3V628.08h3Z"/><path class="cls-2" d="M221.87,634.19h6.88v2.7h-6.88Zm2.44,14.3a4.55,4.55,0,0,1-.86-3V629.75h3V645.5a1.49,1.49,0,0,0,.22.86.75.75,0,0,0,.65.3h1.44v2.85H227A3.34,3.34,0,0,1,224.31,648.49Z"/><path class="cls-2" d="M243.53,648.88a5.3,5.3,0,0,1-2.25-2.27,7.57,7.57,0,0,1-.78-3.58v-2.51a7.46,7.46,0,0,1,.78-3.54,5.23,5.23,0,0,1,2.25-2.24,7.55,7.55,0,0,1,3.56-.77,8.49,8.49,0,0,1,2.24.28,6.74,6.74,0,0,1,1.89.83,5.38,5.38,0,0,1,1.4,1.33l-2.16,1.93a4.61,4.61,0,0,0-1.51-1.13,4.37,4.37,0,0,0-1.81-.39,3.59,3.59,0,0,0-2.69,1,3.69,3.69,0,0,0-.95,2.73V643a3.86,3.86,0,0,0,.94,2.79,3.56,3.56,0,0,0,2.7,1,4.16,4.16,0,0,0,1.82-.43,4.36,4.36,0,0,0,1.5-1.21l2.16,2.09a5.32,5.32,0,0,1-1.41,1.3,6.72,6.72,0,0,1-1.89.82,8.91,8.91,0,0,1-2.23.27A7.55,7.55,0,0,1,243.53,648.88Z"/><path class="cls-2" d="M256.58,648.49a4.36,4.36,0,0,1-1.39-3.55,4.25,4.25,0,0,1,1.28-3.39,5.63,5.63,0,0,1,3.86-1.13h4.33l.21,2.4h-4.53a2.53,2.53,0,0,0-1.75.53,2,2,0,0,0-.58,1.59,2,2,0,0,0,.77,1.72,4,4,0,0,0,2.34.56,6.82,6.82,0,0,0,2.56-.37,1.21,1.21,0,0,0,.85-1.15l.31,2.15a3.5,3.5,0,0,1-1,1,4.31,4.31,0,0,1-1.34.6,7,7,0,0,1-1.72.19A6.46,6.46,0,0,1,256.58,648.49Zm7.95-8.72a3.23,3.23,0,0,0-.8-2.33,3,3,0,0,0-2.27-.83,5.77,5.77,0,0,0-1.79.28,5.44,5.44,0,0,0-1.54.78l-2.19-1.5a5.67,5.67,0,0,1,2.28-1.62,8.22,8.22,0,0,1,3.15-.58,7.22,7.22,0,0,1,3.25.67,4.62,4.62,0,0,1,2.05,1.93,6.25,6.25,0,0,1,.71,3.07v9.79h-2.85Z"/><path class="cls-2" d="M270.76,634.19h6.87v2.7h-6.87Zm2.43,14.3a4.55,4.55,0,0,1-.86-3V629.75h3V645.5a1.49,1.49,0,0,0,.22.86.77.77,0,0,0,.65.3h1.44v2.85H275.9A3.34,3.34,0,0,1,273.19,648.49Z"/><path class="cls-2" d="M284.37,648.86a5.24,5.24,0,0,1-2.28-2.33,8,8,0,0,1-.79-3.71v-1.71a8.93,8.93,0,0,1,.76-3.87,5.48,5.48,0,0,1,2.19-2.44,6.88,6.88,0,0,1,3.47-.83,5.55,5.55,0,0,1,3.26.95,6,6,0,0,1,2.07,2.76,12,12,0,0,1,.71,4.34v1H283.48v-2.41h7.43a5.15,5.15,0,0,0-1-2.9,2.73,2.73,0,0,0-2.23-1,3.26,3.26,0,0,0-2.64,1.12,4.77,4.77,0,0,0-.93,3.15v1.94a3.94,3.94,0,0,0,1,2.91,3.8,3.8,0,0,0,2.84,1,4.83,4.83,0,0,0,1.8-.37,5.29,5.29,0,0,0,1.6-1l2,2a8.39,8.39,0,0,1-2.54,1.68,7.15,7.15,0,0,1-2.83.59A7.65,7.65,0,0,1,284.37,648.86Z"/><path class="cls-2" d="M299.85,649a4.54,4.54,0,0,1-1.8-2.12,8.28,8.28,0,0,1-.62-3.35v-3.36a8.5,8.5,0,0,1,.6-3.37,4.58,4.58,0,0,1,1.76-2.12,5.13,5.13,0,0,1,2.77-.73,4.56,4.56,0,0,1,2.47.71,5.18,5.18,0,0,1,1.81,2l-.3,3.12a3.54,3.54,0,0,0-.36-1.66,2.35,2.35,0,0,0-1-1.05,3.34,3.34,0,0,0-1.62-.36,2.89,2.89,0,0,0-2.3.92,3.82,3.82,0,0,0-.81,2.6v3.32a3.69,3.69,0,0,0,.81,2.56,2.91,2.91,0,0,0,2.3.91,3.24,3.24,0,0,0,1.62-.38,2.42,2.42,0,0,0,1-1.08,3.67,3.67,0,0,0,.36-1.69l.2,3.22a4.27,4.27,0,0,1-1.49,1.89,4.17,4.17,0,0,1-2.55.77A5.28,5.28,0,0,1,299.85,649Zm0,6a4.88,4.88,0,0,1-2.1-1.8l2-1.83a4.29,4.29,0,0,0,1.41,1.25,3.93,3.93,0,0,0,4.37-.51,3.67,3.67,0,0,0,.94-2.68V634.19h3V649a7.84,7.84,0,0,1-.77,3.6,5.17,5.17,0,0,1-2.24,2.27,7.46,7.46,0,0,1-3.54.78A7.13,7.13,0,0,1,299.9,655Z"/><path class="cls-2" d="M316.54,648.88a5.14,5.14,0,0,1-2.15-2.27,7.93,7.93,0,0,1-.74-3.59v-2.49a7.71,7.71,0,0,1,.74-3.54,5,5,0,0,1,2.15-2.25,7.85,7.85,0,0,1,6.78,0,5.11,5.11,0,0,1,2.16,2.25,7.84,7.84,0,0,1,.74,3.54v2.53a7.9,7.9,0,0,1-.74,3.56,5.19,5.19,0,0,1-2.16,2.26,7.85,7.85,0,0,1-6.78,0Zm5.82-3.06a4,4,0,0,0,.86-2.76v-2.53a4,4,0,0,0-.86-2.74,3.53,3.53,0,0,0-4.86,0,4,4,0,0,0-.86,2.74v2.53a4.07,4.07,0,0,0,.86,2.76,3.48,3.48,0,0,0,4.86,0Z"/><path class="cls-2" d="M330.48,634.19h3v15.24h-3Zm7.39,2.88a3.61,3.61,0,0,0-1.4-.25,2.73,2.73,0,0,0-3,3l-.3-2.93a5.62,5.62,0,0,1,1.82-2.13,4.3,4.3,0,0,1,2.46-.75,5.59,5.59,0,0,1,1.89.3,4.27,4.27,0,0,1,1.48.89l-2,2.64A2.42,2.42,0,0,0,337.87,637.07Z"/><path class="cls-2" d="M341.7,634.19h3.05l4.69,13.25-1.66,3.24Zm13.5,0L348.71,653a4.6,4.6,0,0,1-.93,1.66,3.3,3.3,0,0,1-1.41.87,6.8,6.8,0,0,1-2.06.26h-.6v-2.87h.6a2.36,2.36,0,0,0,1.33-.34,2.66,2.66,0,0,0,.86-1.16l5.64-17.23Z"/><path class="cls-2" d="M116.6,632h0a2,2,0,0,1,0,2.89l-14,14a2,2,0,0,1-2.88,0h0a2,2,0,0,1,0-2.88l13.95-14A2.06,2.06,0,0,1,116.6,632Z"/><path class="cls-2" d="M85.61,632h0a2,2,0,0,1,2.88,0l14,14a2,2,0,0,1,0,2.88h0a2,2,0,0,1-2.89,0l-14-14A2,2,0,0,1,85.61,632Z"/><circle class="cls-4" cx="232.24" cy="777.21" r="25.91"/><path class="cls-3" d="M282.43,764.89h2.66l8.2,22.25h-3.37l-6.16-17.95-6.17,17.95h-3.37ZM278,779.29h11.71v3H278Z"/><path class="cls-3" d="M296.35,771.26h3.12v15.88h-3.12Zm9.64,6.26a3.63,3.63,0,0,0-.87-2.6,3.19,3.19,0,0,0-2.45-.92,3.23,3.23,0,0,0-2.36.81,3,3,0,0,0-.84,2.28l-.32-3.06a5.67,5.67,0,0,1,1.92-2.22,4.69,4.69,0,0,1,2.63-.78,4.92,4.92,0,0,1,4,1.69,7.27,7.27,0,0,1,1.41,4.78v9.64H306Z"/><path class="cls-3" d="M312.64,771.26h7.16v2.81h-7.16Zm2.53,14.9a4.77,4.77,0,0,1-.9-3.15V766.64h3.12V783a1.53,1.53,0,0,0,.23.9.79.79,0,0,0,.68.31h1.5v3H318A3.48,3.48,0,0,1,315.17,786.16Z"/><path class="cls-3" d="M326.64,786.56a5.33,5.33,0,0,1-2.24-2.36,8.26,8.26,0,0,1-.78-3.74v-2.59a8.12,8.12,0,0,1,.78-3.7,5.34,5.34,0,0,1,2.24-2.34,8.21,8.21,0,0,1,7.07,0,5.34,5.34,0,0,1,2.24,2.34,8.12,8.12,0,0,1,.77,3.7v2.63a8.1,8.1,0,0,1-.77,3.71,5.31,5.31,0,0,1-2.24,2.35,8.12,8.12,0,0,1-7.07,0Zm6.07-3.18a4.26,4.26,0,0,0,.89-2.88v-2.63a4.2,4.2,0,0,0-.89-2.86,3.69,3.69,0,0,0-5.07,0,4.16,4.16,0,0,0-.9,2.86v2.63a4.21,4.21,0,0,0,.9,2.88,3.66,3.66,0,0,0,5.07,0Z"/><path class="cls-3" d="M341.16,771.26h3.12v15.88h-3.12Zm9.64,6.26a3.63,3.63,0,0,0-.87-2.6,3.19,3.19,0,0,0-2.45-.92,3.23,3.23,0,0,0-2.36.81,3,3,0,0,0-.84,2.28L344,774a5.67,5.67,0,0,1,1.92-2.22,4.69,4.69,0,0,1,2.63-.78,4.93,4.93,0,0,1,4,1.69,7.27,7.27,0,0,1,1.41,4.78v9.64H350.8Z"/><circle class="cls-5" cx="232.24" cy="847.1" r="25.91"/><path class="cls-3" d="M276.36,834.78h3.13V857h-3.13Zm1.57,19.28h12.73v3H277.93Z"/><path class="cls-3" d="M296.77,856.44a5.48,5.48,0,0,1-2.38-2.43,8.34,8.34,0,0,1-.82-3.86v-1.79a9.44,9.44,0,0,1,.78-4,5.67,5.67,0,0,1,2.29-2.54,7.1,7.1,0,0,1,3.61-.87,5.76,5.76,0,0,1,3.4,1,6.16,6.16,0,0,1,2.15,2.88,12.18,12.18,0,0,1,.74,4.51v1H295.83v-2.51h7.74a5.31,5.31,0,0,0-1-3,2.81,2.81,0,0,0-2.32-1.08,3.35,3.35,0,0,0-2.74,1.17,5,5,0,0,0-1,3.29v2a4.13,4.13,0,0,0,1.05,3,4,4,0,0,0,2.95,1,4.82,4.82,0,0,0,1.88-.38,5.36,5.36,0,0,0,1.67-1.07l2.05,2a8.43,8.43,0,0,1-2.65,1.75,7.41,7.41,0,0,1-3,.62A7.94,7.94,0,0,1,296.77,856.44Z"/><path class="cls-3" d="M310.83,841.15H314V857h-3.12Zm9.64,6.26a3.66,3.66,0,0,0-.87-2.61,3.22,3.22,0,0,0-2.45-.91,3.28,3.28,0,0,0-2.37.81A3.05,3.05,0,0,0,314,847l-.32-3.06a5.67,5.67,0,0,1,1.92-2.22,4.69,4.69,0,0,1,2.63-.78,4.93,4.93,0,0,1,4,1.69,7.27,7.27,0,0,1,1.41,4.78V857h-3.12Z"/><path class="cls-3" d="M329,856a5.38,5.38,0,0,1-.13-7.23,6,6,0,0,1,4-1.17h4.51l.22,2.51h-4.72a2.7,2.7,0,0,0-1.83.54,2.12,2.12,0,0,0-.6,1.66,2.07,2.07,0,0,0,.8,1.79,4.16,4.16,0,0,0,2.44.58,7.21,7.21,0,0,0,2.68-.38,1.27,1.27,0,0,0,.88-1.19l.32,2.23a3.82,3.82,0,0,1-1,1.06,4.58,4.58,0,0,1-1.4.62,7.54,7.54,0,0,1-1.79.2A6.65,6.65,0,0,1,329,856Zm8.28-9.08a3.31,3.31,0,0,0-.84-2.42,3.12,3.12,0,0,0-2.36-.87,6.13,6.13,0,0,0-1.86.29,5.85,5.85,0,0,0-1.62.81l-2.28-1.56a6,6,0,0,1,2.38-1.69,8.67,8.67,0,0,1,3.28-.6,7.65,7.65,0,0,1,3.39.69,4.87,4.87,0,0,1,2.14,2,6.52,6.52,0,0,1,.73,3.2V857h-3Z"/><path class="cls-3" d="M345,841.15h3.12V857H345Zm7.7,3a3.69,3.69,0,0,0-1.46-.26,3.08,3.08,0,0,0-2.3.82,3,3,0,0,0-.82,2.27l-.32-3.06a5.75,5.75,0,0,1,1.9-2.21,4.43,4.43,0,0,1,2.57-.79,5.76,5.76,0,0,1,2,.31,4.38,4.38,0,0,1,1.54.93l-2,2.75A2.72,2.72,0,0,0,352.72,844.15Z"/><path class="cls-3" d="M360.15,856.55a4.77,4.77,0,0,1-1.88-2.21,8.56,8.56,0,0,1-.64-3.49v-3.51a8.79,8.79,0,0,1,.63-3.5,4.66,4.66,0,0,1,1.82-2.21,5.28,5.28,0,0,1,2.89-.76,4.76,4.76,0,0,1,2.58.74,5.39,5.39,0,0,1,1.89,2.06l-.32,3.25a3.81,3.81,0,0,0-.37-1.73,2.56,2.56,0,0,0-1.06-1.1,3.56,3.56,0,0,0-1.7-.37,3,3,0,0,0-2.39,1,4,4,0,0,0-.85,2.71v3.46a3.84,3.84,0,0,0,.85,2.67,3,3,0,0,0,2.39.94,3.45,3.45,0,0,0,1.7-.39,2.61,2.61,0,0,0,1.06-1.12,4,4,0,0,0,.37-1.76l.21,3.35a4.55,4.55,0,0,1-1.55,2,4.37,4.37,0,0,1-2.66.8A5.51,5.51,0,0,1,360.15,856.55Zm7-21.77h3.12V857h-3.12Z"/><path class="cls-1" d="M1552.42,771.34v302.83a18.35,18.35,0,0,1-18.35,18.37H839.75a18.35,18.35,0,0,1-18.36-18.37V771.34A18.35,18.35,0,0,1,839.75,753h694.32A18.36,18.36,0,0,1,1552.42,771.34Z"/><path class="cls-3" d="M977.51,850.37h4.26v30.42h-4.26Zm2.88,26.36h6.89a7.26,7.26,0,0,0,5.21-1.75,6.41,6.41,0,0,0,1.86-4.92v-9a6.41,6.41,0,0,0-1.86-4.92,7.26,7.26,0,0,0-5.21-1.75h-6.89v-4.06h6.76a14,14,0,0,1,6.25,1.28,8.92,8.92,0,0,1,4,3.72,11.94,11.94,0,0,1,1.36,5.9v8.62a11.94,11.94,0,0,1-1.36,5.9,8.89,8.89,0,0,1-4,3.72,14.09,14.09,0,0,1-6.26,1.28h-6.74Z"/><path class="cls-3" d="M1005.2,850.37h3.87L1024,873.88l-.5.55V850.37h4.22v30.4h-3.91l-14.83-23.16.5-.54v23.7h-4.23Z"/><path class="cls-3" d="M1035.2,850.37h4.27v30.42h-4.27Zm2.89,26.36H1045a7.27,7.27,0,0,0,5.22-1.75,6.4,6.4,0,0,0,1.85-4.92v-9a6.4,6.4,0,0,0-1.85-4.92,7.27,7.27,0,0,0-5.22-1.75h-6.88v-4.06h6.76a14,14,0,0,1,6.25,1.28,8.84,8.84,0,0,1,4,3.72,11.94,11.94,0,0,1,1.36,5.9v8.62a11.94,11.94,0,0,1-1.36,5.9,8.82,8.82,0,0,1-4,3.72,14.09,14.09,0,0,1-6.26,1.28h-6.74Z"/><path class="cls-2" d="M907.63,789.21h3v21.35h-3Zm2,18.5h4.83a5.13,5.13,0,0,0,3.67-1.22,4.55,4.55,0,0,0,1.3-3.46v-6.29a4.55,4.55,0,0,0-1.3-3.46,5.18,5.18,0,0,0-3.67-1.22h-4.83v-2.85h4.74a10,10,0,0,1,4.4.89,6.22,6.22,0,0,1,2.77,2.62,8.36,8.36,0,0,1,1,4.14v6a8.34,8.34,0,0,1-1,4.14,6.19,6.19,0,0,1-2.78,2.62,9.9,9.9,0,0,1-4.4.89h-4.73Z"/><path class="cls-2" d="M929.71,810a5.24,5.24,0,0,1-2.28-2.33,8,8,0,0,1-.79-3.7v-1.72a8.93,8.93,0,0,1,.76-3.87,5.35,5.35,0,0,1,2.19-2.43,6.78,6.78,0,0,1,3.47-.84,5.55,5.55,0,0,1,3.26.95,5.94,5.94,0,0,1,2.06,2.76,11.74,11.74,0,0,1,.72,4.34v1H928.81v-2.41h7.44a5.08,5.08,0,0,0-1-2.9,2.7,2.7,0,0,0-2.22-1,3.23,3.23,0,0,0-2.64,1.12,4.78,4.78,0,0,0-.93,3.16V804a3.94,3.94,0,0,0,1,2.91,3.77,3.77,0,0,0,2.83,1,4.84,4.84,0,0,0,1.81-.37,5.29,5.29,0,0,0,1.6-1l2,2a8.51,8.51,0,0,1-2.54,1.68,7.21,7.21,0,0,1-2.84.6A7.61,7.61,0,0,1,929.71,810Z"/><path class="cls-2" d="M942,795.32h7.63v2.55H942Zm1.62-2.07a4.37,4.37,0,0,1,.93-3,3.73,3.73,0,0,1,2.87-1h2.21v2.85h-2.15a.73.73,0,0,0-.64.32,1.46,1.46,0,0,0-.23.84v17.34h-3Z"/><path class="cls-2" d="M952.81,809.62a4.36,4.36,0,0,1-1.39-3.55,4.25,4.25,0,0,1,1.28-3.39,5.65,5.65,0,0,1,3.86-1.13h4.33l.21,2.41h-4.53a2.54,2.54,0,0,0-1.75.52,2,2,0,0,0-.58,1.59,2,2,0,0,0,.77,1.72,4,4,0,0,0,2.34.56,6.82,6.82,0,0,0,2.56-.37,1.21,1.21,0,0,0,.85-1.15l.31,2.15a3.5,3.5,0,0,1-1,1,4.21,4.21,0,0,1-1.34.6,6.94,6.94,0,0,1-1.72.2A6.46,6.46,0,0,1,952.81,809.62Zm8-8.72a3.25,3.25,0,0,0-.8-2.33,3,3,0,0,0-2.27-.83,5.77,5.77,0,0,0-1.79.28,5.44,5.44,0,0,0-1.54.78l-2.19-1.5a5.67,5.67,0,0,1,2.28-1.62,8.22,8.22,0,0,1,3.15-.58,7.19,7.19,0,0,1,3.25.67,4.59,4.59,0,0,1,2,1.94,6.18,6.18,0,0,1,.71,3.06v9.79h-2.85Z"/><path class="cls-2" d="M971.16,804.59a3.5,3.5,0,0,0,.81,2.47,3,3,0,0,0,2.3.88,3.15,3.15,0,0,0,2.28-.78,2.94,2.94,0,0,0,.81-2.22l.2,3.19A4.4,4.4,0,0,1,976,810a4.35,4.35,0,0,1-2.6.77,4.82,4.82,0,0,1-3.9-1.63,6.85,6.85,0,0,1-1.38-4.57v-9.27h3Zm6.2-9.27h3v15.24h-3Z"/><path class="cls-2" d="M987.89,806.63a1.35,1.35,0,0,0,.24.86.83.83,0,0,0,.68.3h1.41v2.85h-1.76a3.31,3.31,0,0,1-2.63-1.06,4.31,4.31,0,0,1-.94-3V789.21h3Z"/><path class="cls-2" d="M992.43,795.32h6.87V798h-6.87Zm2.43,14.3a4.61,4.61,0,0,1-.86-3V790.88h3v15.75a1.49,1.49,0,0,0,.22.86.77.77,0,0,0,.65.3h1.44v2.85h-1.73A3.34,3.34,0,0,1,994.86,809.62Z"/><path class="cls-2" d="M1014.08,810a5.3,5.3,0,0,1-2.25-2.27,7.57,7.57,0,0,1-.78-3.58v-2.51a7.46,7.46,0,0,1,.78-3.54,5.23,5.23,0,0,1,2.25-2.24,7.59,7.59,0,0,1,3.57-.77,8.54,8.54,0,0,1,2.24.28,7,7,0,0,1,1.88.83,5.23,5.23,0,0,1,1.4,1.33l-2.16,1.94a4.64,4.64,0,0,0-1.51-1.14,4.37,4.37,0,0,0-1.81-.39,3.61,3.61,0,0,0-2.69,1,3.73,3.73,0,0,0-1,2.73v2.51a3.81,3.81,0,0,0,1,2.79,3.55,3.55,0,0,0,2.69,1,4.13,4.13,0,0,0,1.82-.43,4.45,4.45,0,0,0,1.5-1.2l2.16,2.08a5.32,5.32,0,0,1-1.41,1.3,6.72,6.72,0,0,1-1.89.82,8.88,8.88,0,0,1-2.22.28A7.59,7.59,0,0,1,1014.08,810Z"/><path class="cls-2" d="M1027.13,809.62a4.4,4.4,0,0,1-1.39-3.55,4.29,4.29,0,0,1,1.28-3.39,5.65,5.65,0,0,1,3.86-1.13h4.33l.21,2.41h-4.53a2.54,2.54,0,0,0-1.75.52,2.38,2.38,0,0,0,.19,3.31,4,4,0,0,0,2.34.56,6.91,6.91,0,0,0,2.57-.37,1.21,1.21,0,0,0,.84-1.15l.31,2.15a3.5,3.5,0,0,1-1,1,4.21,4.21,0,0,1-1.34.6,6.94,6.94,0,0,1-1.72.2A6.46,6.46,0,0,1,1027.13,809.62Zm7.95-8.72a3.25,3.25,0,0,0-.8-2.33,3,3,0,0,0-2.27-.83,5.66,5.66,0,0,0-1.78.28,5.37,5.37,0,0,0-1.55.78l-2.19-1.5a5.74,5.74,0,0,1,2.28-1.62,8.22,8.22,0,0,1,3.15-.58,7.19,7.19,0,0,1,3.25.67,4.54,4.54,0,0,1,2,1.94,6.08,6.08,0,0,1,.71,3.06v9.79h-2.85Z"/><path class="cls-2" d="M1041.31,795.32h6.87V798h-6.87Zm2.43,14.3a4.61,4.61,0,0,1-.86-3V790.88h3v15.75a1.42,1.42,0,0,0,.22.86.74.74,0,0,0,.64.3h1.44v2.85h-1.73A3.34,3.34,0,0,1,1043.74,809.62Z"/><path class="cls-2" d="M1054.92,810a5.3,5.3,0,0,1-2.28-2.33,8.09,8.09,0,0,1-.79-3.7v-1.72a9.08,9.08,0,0,1,.76-3.87,5.42,5.42,0,0,1,2.2-2.43,6.74,6.74,0,0,1,3.46-.84,5.55,5.55,0,0,1,3.26.95,6,6,0,0,1,2.07,2.76,12,12,0,0,1,.71,4.34v1H1054v-2.41h7.43a5.15,5.15,0,0,0-1-2.9,2.71,2.71,0,0,0-2.23-1,3.22,3.22,0,0,0-2.63,1.12,4.73,4.73,0,0,0-.94,3.16V804a4,4,0,0,0,1,2.91,3.8,3.8,0,0,0,2.84,1,4.79,4.79,0,0,0,1.8-.37,5.46,5.46,0,0,0,1.61-1l2,2a8.39,8.39,0,0,1-2.54,1.68,7.16,7.16,0,0,1-2.83.6A7.65,7.65,0,0,1,1054.92,810Z"/><path class="cls-2" d="M1070.4,810.1a4.54,4.54,0,0,1-1.8-2.12,8.28,8.28,0,0,1-.62-3.35v-3.36a8.53,8.53,0,0,1,.6-3.37,4.58,4.58,0,0,1,1.76-2.12,5.13,5.13,0,0,1,2.77-.73,4.56,4.56,0,0,1,2.47.71,5.21,5.21,0,0,1,1.82,2l-.31,3.12a3.54,3.54,0,0,0-.36-1.66,2.35,2.35,0,0,0-1-1.05,3.34,3.34,0,0,0-1.62-.36,2.9,2.9,0,0,0-2.3.92,3.82,3.82,0,0,0-.81,2.6v3.32a3.69,3.69,0,0,0,.81,2.56,2.93,2.93,0,0,0,2.3.91,3.24,3.24,0,0,0,1.62-.38,2.42,2.42,0,0,0,1-1.08,3.67,3.67,0,0,0,.36-1.69l.2,3.22a4.36,4.36,0,0,1-1.49,1.9,4.23,4.23,0,0,1-2.55.76A5.3,5.3,0,0,1,1070.4,810.1Zm.06,6a4.89,4.89,0,0,1-2.11-1.79l2-1.84a4.16,4.16,0,0,0,1.4,1.25,3.93,3.93,0,0,0,4.37-.51,3.66,3.66,0,0,0,.94-2.68V795.32h3v14.79a7.72,7.72,0,0,1-.77,3.6,5.12,5.12,0,0,1-2.24,2.27,7.46,7.46,0,0,1-3.54.78A7.06,7.06,0,0,1,1070.46,816.12Z"/><path class="cls-2" d="M1087.09,810a5.14,5.14,0,0,1-2.15-2.27,7.93,7.93,0,0,1-.74-3.59v-2.49a7.71,7.71,0,0,1,.74-3.54,5,5,0,0,1,2.15-2.25,7.87,7.87,0,0,1,6.79,0,5.09,5.09,0,0,1,2.15,2.25,7.84,7.84,0,0,1,.74,3.54v2.53a7.9,7.9,0,0,1-.74,3.56,5.17,5.17,0,0,1-2.15,2.26,7.78,7.78,0,0,1-6.79,0Zm5.82-3.06a4,4,0,0,0,.86-2.76v-2.53a4,4,0,0,0-.86-2.74,3.53,3.53,0,0,0-4.86,0,4,4,0,0,0-.86,2.74v2.53a4.05,4.05,0,0,0,.86,2.76,3.48,3.48,0,0,0,4.86,0Z"/><path class="cls-2" d="M1101,795.32h3v15.24h-3Zm7.39,2.88a3.57,3.57,0,0,0-1.4-.25,3,3,0,0,0-2.21.78,3,3,0,0,0-.78,2.18l-.31-2.93a5.62,5.62,0,0,1,1.82-2.13,4.33,4.33,0,0,1,2.47-.75,5.58,5.58,0,0,1,1.88.3,4.18,4.18,0,0,1,1.48.89l-1.95,2.64A2.52,2.52,0,0,0,1108.42,798.2Z"/><path class="cls-2" d="M1112.25,795.32h3.06l4.68,13.25-1.66,3.24Zm13.5,0-6.49,18.81a4.6,4.6,0,0,1-.93,1.66,3.3,3.3,0,0,1-1.41.87,6.77,6.77,0,0,1-2.05.26h-.61v-2.87h.61a2.38,2.38,0,0,0,1.33-.34,2.73,2.73,0,0,0,.85-1.16l5.65-17.23Z"/><path class="cls-2" d="M887.15,793.12h0a2,2,0,0,1,0,2.89l-14,14a2,2,0,0,1-2.88,0h0a2,2,0,0,1,0-2.88l14-14A2.06,2.06,0,0,1,887.15,793.12Z"/><path class="cls-2" d="M856.16,793.12h0a2,2,0,0,1,2.88,0l14,14a2,2,0,0,1,0,2.88h0a2,2,0,0,1-2.89,0l-14-14A2,2,0,0,1,856.16,793.12Z"/><circle class="cls-4" cx="1002.79" cy="938.35" r="25.91"/><path class="cls-3" d="M1053,926h2.67l8.2,22.26h-3.37l-6.17-18-6.16,18h-3.37Zm-4.42,14.4h11.71v3h-11.71Z"/><path class="cls-3" d="M1066.9,932.39H1070v15.89h-3.12Zm9.64,6.26a3.63,3.63,0,0,0-.87-2.6,3.78,3.78,0,0,0-4.81-.11,3,3,0,0,0-.84,2.28l-.32-3.06a5.67,5.67,0,0,1,1.92-2.22,4.69,4.69,0,0,1,2.63-.78,4.93,4.93,0,0,1,4,1.69,7.27,7.27,0,0,1,1.41,4.78v9.65h-3.12Z"/><path class="cls-3" d="M1083.18,932.39h7.17v2.82h-7.17Zm2.54,14.9a4.77,4.77,0,0,1-.9-3.15V927.77h3.12v16.4a1.53,1.53,0,0,0,.23.9.79.79,0,0,0,.68.31h1.5v3h-1.81A3.46,3.46,0,0,1,1085.72,947.29Z"/><path class="cls-3" d="M1097.19,947.69a5.28,5.28,0,0,1-2.24-2.36,8.26,8.26,0,0,1-.78-3.74V939a8.12,8.12,0,0,1,.78-3.7,5.34,5.34,0,0,1,2.24-2.34,8.21,8.21,0,0,1,7.07,0,5.39,5.39,0,0,1,2.24,2.34,8.25,8.25,0,0,1,.77,3.7v2.63a8.24,8.24,0,0,1-.77,3.71,5.36,5.36,0,0,1-2.24,2.35,8.12,8.12,0,0,1-7.07,0Zm6.06-3.18a4.21,4.21,0,0,0,.9-2.88V939a4.16,4.16,0,0,0-.9-2.86,3.67,3.67,0,0,0-5.06,0,4.16,4.16,0,0,0-.9,2.86v2.63a4.21,4.21,0,0,0,.9,2.88,3.62,3.62,0,0,0,5.06,0Z"/><path class="cls-3" d="M1111.71,932.39h3.12v15.89h-3.12Zm9.64,6.26a3.63,3.63,0,0,0-.87-2.6,3.78,3.78,0,0,0-4.81-.11,3,3,0,0,0-.84,2.28l-.32-3.06a5.67,5.67,0,0,1,1.92-2.22,4.69,4.69,0,0,1,2.63-.78,4.93,4.93,0,0,1,4,1.69,7.27,7.27,0,0,1,1.41,4.78v9.65h-3.12Z"/><circle class="cls-5" cx="1002.79" cy="1008.23" r="25.91"/><path class="cls-3" d="M1046.91,995.91H1050v22.25h-3.13Zm1.56,19.29h12.74v3h-12.74Z"/><path class="cls-3" d="M1067.31,1017.57a5.54,5.54,0,0,1-2.38-2.43,8.44,8.44,0,0,1-.81-3.86v-1.79a9.47,9.47,0,0,1,.78-4,5.67,5.67,0,0,1,2.29-2.54,7.07,7.07,0,0,1,3.61-.87,5.76,5.76,0,0,1,3.4,1,6.21,6.21,0,0,1,2.15,2.88,12.23,12.23,0,0,1,.74,4.52v1h-10.71V1009h7.74a5.32,5.32,0,0,0-1-3,2.82,2.82,0,0,0-2.32-1.07,3.34,3.34,0,0,0-2.74,1.16,5,5,0,0,0-1,3.29v2a4.17,4.17,0,0,0,1,3,4,4,0,0,0,3,1,4.82,4.82,0,0,0,1.88-.38,5.36,5.36,0,0,0,1.67-1.07l2,2a8.55,8.55,0,0,1-2.65,1.75,7.41,7.41,0,0,1-3,.62A8,8,0,0,1,1067.31,1017.57Z"/><path class="cls-3" d="M1081.38,1002.28h3.12v15.88h-3.12Zm9.64,6.26a3.63,3.63,0,0,0-.87-2.6,3.2,3.2,0,0,0-2.45-.92,3.28,3.28,0,0,0-2.37.81,3.05,3.05,0,0,0-.83,2.28l-.32-3.06a5.67,5.67,0,0,1,1.92-2.22,4.66,4.66,0,0,1,2.62-.78,4.94,4.94,0,0,1,4,1.69,7.27,7.27,0,0,1,1.41,4.78v9.64H1091Z"/><path class="cls-3" d="M1099.57,1017.18a4.58,4.58,0,0,1-1.45-3.7,4.45,4.45,0,0,1,1.33-3.53,5.91,5.91,0,0,1,4-1.18H1108l.22,2.51h-4.72a2.7,2.7,0,0,0-1.83.54,2.13,2.13,0,0,0-.6,1.66,2.07,2.07,0,0,0,.8,1.79,4.16,4.16,0,0,0,2.44.58,6.92,6.92,0,0,0,2.67-.38,1.25,1.25,0,0,0,.88-1.19l.33,2.23a3.82,3.82,0,0,1-1,1.06,4.69,4.69,0,0,1-1.4.62,7.54,7.54,0,0,1-1.79.2A6.75,6.75,0,0,1,1099.57,1017.18Zm8.28-9.09a3.32,3.32,0,0,0-.83-2.42,3.13,3.13,0,0,0-2.37-.87,6.23,6.23,0,0,0-1.86.29,5.68,5.68,0,0,0-1.61.82l-2.28-1.57a6.09,6.09,0,0,1,2.38-1.69,8.67,8.67,0,0,1,3.28-.6,7.51,7.51,0,0,1,3.39.7,4.81,4.81,0,0,1,2.14,2,6.46,6.46,0,0,1,.73,3.19v10.2h-3Z"/><path class="cls-3" d="M1115.57,1002.28h3.12v15.88h-3.12Zm7.69,3a3.61,3.61,0,0,0-1.45-.26,3.08,3.08,0,0,0-2.3.82,3,3,0,0,0-.82,2.27l-.32-3.06a5.81,5.81,0,0,1,1.89-2.21,4.49,4.49,0,0,1,2.58-.79,5.8,5.8,0,0,1,2,.31,4.38,4.38,0,0,1,1.54.93l-2,2.75A2.58,2.58,0,0,0,1123.26,1005.28Z"/><path class="cls-3" d="M1130.69,1017.68a4.76,4.76,0,0,1-1.87-2.21,8.56,8.56,0,0,1-.64-3.49v-3.5a8.82,8.82,0,0,1,.62-3.51,4.79,4.79,0,0,1,1.83-2.21,5.34,5.34,0,0,1,2.89-.76,4.76,4.76,0,0,1,2.58.74,5.46,5.46,0,0,1,1.89,2.06l-.33,3.25a3.84,3.84,0,0,0-.36-1.73,2.53,2.53,0,0,0-1.07-1.1,3.49,3.49,0,0,0-1.69-.37,3,3,0,0,0-2.39,1,4,4,0,0,0-.85,2.71V1012a3.84,3.84,0,0,0,.85,2.67,3,3,0,0,0,2.39.94,3.38,3.38,0,0,0,1.69-.39,2.57,2.57,0,0,0,1.07-1.12,4,4,0,0,0,.36-1.76l.22,3.35a4.57,4.57,0,0,1-1.55,2,4.37,4.37,0,0,1-2.66.8A5.57,5.57,0,0,1,1130.69,1017.68Zm7-21.77h3.13v22.25h-3.13Z"/><path class="cls-2" d="M932.8,858.71h-1.95v-3.9a9.76,9.76,0,0,0-19.52,0v3.9h-2a3.92,3.92,0,0,0-3.9,3.9v19.52a3.92,3.92,0,0,0,3.9,3.91H932.8a3.91,3.91,0,0,0,3.9-3.91V862.61A3.91,3.91,0,0,0,932.8,858.71Zm-11.71,17.57a3.91,3.91,0,1,1,3.9-3.91A3.92,3.92,0,0,1,921.09,876.28Zm6-17.57H915v-3.9a6.06,6.06,0,1,1,12.11,0Z"/><rect class="cls-1" x="821.39" y="671.4" width="356.86" height="51.1" rx="25.55"/><circle class="cls-4" cx="847.57" cy="696.07" r="15.86"/><path class="cls-2" d="M880.47,687.19h2.66v19.07h-2.66ZM882,703.78h5.17a4.58,4.58,0,0,0,3-.78,2.66,2.66,0,0,0,.93-2.17v0a3.89,3.89,0,0,0-.33-1.67,2.38,2.38,0,0,0-1.06-1.07,4,4,0,0,0-1.85-.37H882v-2.41h5.82a3.17,3.17,0,0,0,2.24-.7,2.67,2.67,0,0,0,.75-2.06,2.62,2.62,0,0,0-.84-2.13,3.79,3.79,0,0,0-2.52-.71H882v-2.48H888a6.8,6.8,0,0,1,3.09.63,4.19,4.19,0,0,1,1.87,1.78,5.8,5.8,0,0,1,.61,2.76,4.4,4.4,0,0,1-.38,1.84,3.81,3.81,0,0,1-1.16,1.47,4.4,4.4,0,0,1-1.93.82,4.08,4.08,0,0,1,2,.82,4.26,4.26,0,0,1,1.29,1.62,5,5,0,0,1,.44,2.09v0a5.42,5.42,0,0,1-.68,2.73,4.58,4.58,0,0,1-2,1.82,6.5,6.5,0,0,1-3,.65H882Z"/><path class="cls-2" d="M897.8,687.19h2.68v19.07H897.8Zm1.34,16.52h10.91v2.55H899.14Z"/><path class="cls-2" d="M915.46,705.58a5.93,5.93,0,0,1-2.35-2.46,7.85,7.85,0,0,1-.83-3.7V694a7.78,7.78,0,0,1,.83-3.69,5.93,5.93,0,0,1,2.35-2.46,7.46,7.46,0,0,1,7,0,5.93,5.93,0,0,1,2.35,2.46,7.79,7.79,0,0,1,.84,3.69v5.4a7.85,7.85,0,0,1-.84,3.7,5.93,5.93,0,0,1-2.35,2.46,7.54,7.54,0,0,1-7,0Zm5.59-2.29a3.56,3.56,0,0,0,1.39-1.51,5,5,0,0,0,.5-2.26v-5.59a4.92,4.92,0,0,0-.5-2.26,3.51,3.51,0,0,0-1.39-1.51,4.33,4.33,0,0,0-4.15,0,3.57,3.57,0,0,0-1.39,1.51,4.92,4.92,0,0,0-.49,2.26v5.59a5,5,0,0,0,.49,2.26,3.63,3.63,0,0,0,1.39,1.51,4.33,4.33,0,0,0,4.15,0Z"/><path class="cls-2" d="M932.24,705.57a5.91,5.91,0,0,1-2.33-2.49,8.07,8.07,0,0,1-.82-3.73v-5.24a8.07,8.07,0,0,1,.82-3.73,6,6,0,0,1,2.33-2.5,6.72,6.72,0,0,1,3.48-.89,6.55,6.55,0,0,1,3,.71,6.42,6.42,0,0,1,2.3,2,7.58,7.58,0,0,1,1.25,3h-2.74a4.27,4.27,0,0,0-2.2-2.68,3.78,3.78,0,0,0-1.63-.38,3.63,3.63,0,0,0-3.41,2.15,5.43,5.43,0,0,0-.48,2.36v5.24a5.53,5.53,0,0,0,.48,2.36,3.57,3.57,0,0,0,3.41,2.13,3.87,3.87,0,0,0,3-1.4,4.15,4.15,0,0,0,.83-1.65h2.74a7.35,7.35,0,0,1-1.26,3,6.4,6.4,0,0,1-2.31,2,6.49,6.49,0,0,1-3,.7A6.72,6.72,0,0,1,932.24,705.57Z"/><path class="cls-2" d="M945.83,687.19h2.67v19.07h-2.67Zm2.1,10.7,8.42-10.7h3.29L947.53,701.9Zm3.17-1.81,2.11-2,7.23,12.13h-3.28Z"/><path class="cls-2" d="M963.32,687.19H966v19.07h-2.68Zm1.3,0h11v2.54h-11Zm0,8.33h9.5v2.54h-9.5Zm0,8.19h11v2.55h-11Z"/><path class="cls-2" d="M979.37,687.19H982v19.07h-2.67Zm1.81,16.52h4.31a4.57,4.57,0,0,0,3.27-1.09,4,4,0,0,0,1.16-3.09v-5.61a4,4,0,0,0-1.16-3.09,4.57,4.57,0,0,0-3.27-1.1h-4.31v-2.54h4.23a8.84,8.84,0,0,1,3.92.8,5.55,5.55,0,0,1,2.48,2.33,7.52,7.52,0,0,1,.85,3.7v5.4a7.47,7.47,0,0,1-.85,3.7,5.62,5.62,0,0,1-2.48,2.34,8.91,8.91,0,0,1-3.93.8h-4.22Z"/><path class="cls-2" d="M1009.39,687.19h2.29l7,19.07h-2.88l-5.28-15.38-5.29,15.38h-2.88Zm-3.78,12.34h10v2.54h-10Z"/><path class="cls-2" d="M1023.3,705.57a5.91,5.91,0,0,1-2.33-2.49,8.07,8.07,0,0,1-.82-3.73v-5.24a8.07,8.07,0,0,1,.82-3.73,6,6,0,0,1,2.33-2.5,6.72,6.72,0,0,1,3.48-.89,6.52,6.52,0,0,1,3,.71,6.42,6.42,0,0,1,2.3,2,7.58,7.58,0,0,1,1.25,3h-2.74a4.27,4.27,0,0,0-2.2-2.68,3.78,3.78,0,0,0-1.63-.38,3.64,3.64,0,0,0-2,.57,3.72,3.72,0,0,0-1.37,1.58,5.43,5.43,0,0,0-.48,2.36v5.24a5.53,5.53,0,0,0,.48,2.36,3.78,3.78,0,0,0,1.37,1.58,3.71,3.71,0,0,0,2,.55,3.87,3.87,0,0,0,3-1.4,4.15,4.15,0,0,0,.83-1.65h2.74a7.35,7.35,0,0,1-1.26,3,6.42,6.42,0,0,1-5.31,2.69A6.72,6.72,0,0,1,1023.3,705.57Z"/><path class="cls-2" d="M1039.39,705.57a5.91,5.91,0,0,1-2.33-2.49,8.07,8.07,0,0,1-.83-3.73v-5.24a8.07,8.07,0,0,1,.83-3.73,6,6,0,0,1,2.33-2.5,6.72,6.72,0,0,1,3.48-.89,6.48,6.48,0,0,1,3,.71,6.37,6.37,0,0,1,2.31,2,7.58,7.58,0,0,1,1.25,3h-2.74a4.32,4.32,0,0,0-.83-1.59,4.21,4.21,0,0,0-1.37-1.09,3.78,3.78,0,0,0-1.63-.38,3.63,3.63,0,0,0-3.41,2.15,5.43,5.43,0,0,0-.49,2.36v5.24a5.53,5.53,0,0,0,.49,2.36,3.57,3.57,0,0,0,3.41,2.13,3.87,3.87,0,0,0,3-1.4,4.28,4.28,0,0,0,.83-1.65h2.74a7.35,7.35,0,0,1-1.26,3,6.4,6.4,0,0,1-2.31,2,6.47,6.47,0,0,1-3,.7A6.72,6.72,0,0,1,1039.39,705.57Z"/><path class="cls-2" d="M1053,687.19h2.67v19.07H1053Zm1.3,0h10.94v2.54h-10.94Zm0,8.33h9.5v2.54h-9.5Zm0,8.19h10.94v2.55h-10.94Z"/><path class="cls-2" d="M1072.15,706.19a9.61,9.61,0,0,1-2.3-.79,9.32,9.32,0,0,1-2-1.31l1.66-2a7.51,7.51,0,0,0,2.4,1.41,8.24,8.24,0,0,0,2.85.47,5.73,5.73,0,0,0,3.21-.76,2.47,2.47,0,0,0,1.14-2.17v0a2.28,2.28,0,0,0-.52-1.58,3.17,3.17,0,0,0-1.33-.86,15.28,15.28,0,0,0-2.12-.52H1075l-.2,0a19.78,19.78,0,0,1-3.11-.75,4.29,4.29,0,0,1-2.05-1.5,5,5,0,0,1-.86-3.12h0a5.59,5.59,0,0,1,.79-3,5,5,0,0,1,2.32-1.91,9.14,9.14,0,0,1,3.66-.66,9,9,0,0,1,2,.23,10.19,10.19,0,0,1,2,.66,10.55,10.55,0,0,1,1.9,1.11l-1.52,2.12a9.23,9.23,0,0,0-2.17-1.2,6.39,6.39,0,0,0-2.17-.4,5.12,5.12,0,0,0-3,.78,2.57,2.57,0,0,0-1.08,2.21h0a2.1,2.1,0,0,0,.56,1.55,3.29,3.29,0,0,0,1.39.83,19.7,19.7,0,0,0,2.31.56l.1,0,.1,0,.14,0,.15,0a16.42,16.42,0,0,1,2.89.84A4.59,4.59,0,0,1,1081,698a5,5,0,0,1,.78,3v0a5.3,5.3,0,0,1-.83,3,5.17,5.17,0,0,1-2.39,1.88,9.73,9.73,0,0,1-3.78.65A12.83,12.83,0,0,1,1072.15,706.19Z"/><path class="cls-2" d="M1088.16,706.19a9.61,9.61,0,0,1-2.3-.79,9.32,9.32,0,0,1-2-1.31l1.66-2a7.51,7.51,0,0,0,2.4,1.41,8.2,8.2,0,0,0,2.85.47,5.73,5.73,0,0,0,3.21-.76,2.47,2.47,0,0,0,1.14-2.17v0a2.28,2.28,0,0,0-.52-1.58,3.14,3.14,0,0,0-1.34-.86,14.75,14.75,0,0,0-2.11-.52H1091l-.2,0a19.5,19.5,0,0,1-3.11-.75,4.36,4.36,0,0,1-2.06-1.5,5,5,0,0,1-.85-3.12h0a5.59,5.59,0,0,1,.79-3,5,5,0,0,1,2.32-1.91,9.14,9.14,0,0,1,3.66-.66,9,9,0,0,1,2,.23,10.19,10.19,0,0,1,2,.66,10.91,10.91,0,0,1,1.9,1.11l-1.52,2.12a9.23,9.23,0,0,0-2.17-1.2,6.44,6.44,0,0,0-2.17-.4,5.12,5.12,0,0,0-3,.78,2.57,2.57,0,0,0-1.08,2.21h0a2.1,2.1,0,0,0,.56,1.55,3.29,3.29,0,0,0,1.39.83,19.7,19.7,0,0,0,2.31.56l.1,0,.1,0,.14,0,.15,0a16.68,16.68,0,0,1,2.89.84A4.59,4.59,0,0,1,1097,698a5,5,0,0,1,.78,3v0a5.3,5.3,0,0,1-.83,3,5.17,5.17,0,0,1-2.39,1.88,9.77,9.77,0,0,1-3.78.65A12.83,12.83,0,0,1,1088.16,706.19Z"/><rect class="cls-1" x="50.84" y="510.72" width="356.86" height="51.1" rx="25.55"/><circle class="cls-6" cx="77.02" cy="535.39" r="15.86"/><path class="cls-2" d="M109.92,526.51h2.66v19.07h-2.66Zm1.57,16.59h5.17a4.64,4.64,0,0,0,3-.77,2.69,2.69,0,0,0,.93-2.18v0a3.89,3.89,0,0,0-.33-1.67,2.32,2.32,0,0,0-1.06-1.06,4,4,0,0,0-1.85-.38h-5.82v-2.41h5.82a3.17,3.17,0,0,0,2.24-.7,3.16,3.16,0,0,0-.09-4.19A3.81,3.81,0,0,0,117,529h-5.46v-2.48h5.94a6.85,6.85,0,0,1,3.1.63,4.19,4.19,0,0,1,1.86,1.79,5.73,5.73,0,0,1,.61,2.75,4.4,4.4,0,0,1-.38,1.84,3.81,3.81,0,0,1-1.16,1.47,4.29,4.29,0,0,1-1.93.82,4.18,4.18,0,0,1,2,.82,4.26,4.26,0,0,1,1.29,1.62,5,5,0,0,1,.44,2.1v0a5.27,5.27,0,0,1-.68,2.73,4.47,4.47,0,0,1-1.95,1.82,6.5,6.5,0,0,1-3,.65h-6.16Z"/><path class="cls-2" d="M133,537.83v7.75h-2.67v-7.75l-5.81-11.32h3l4.17,8.6,4.16-8.6h3Z"/><path class="cls-2" d="M140.89,526.51h2.67v19.07h-2.67Zm1.38,9.13h6.09a2.81,2.81,0,0,0,1.52-.41,2.66,2.66,0,0,0,1-1.15,3.92,3.92,0,0,0,.36-1.72,4,4,0,0,0-.36-1.73,2.69,2.69,0,0,0-1-1.16,2.73,2.73,0,0,0-1.52-.41h-6.09v-2.55h6a6.06,6.06,0,0,1,3,.73,5.11,5.11,0,0,1,2,2,6.47,6.47,0,0,1,.71,3.07,6.4,6.4,0,0,1-.71,3.06,5,5,0,0,1-2,2,6.05,6.05,0,0,1-3,.72h-6Z"/><path class="cls-2" d="M161.62,526.51h2.28l7,19.07H168l-5.28-15.38-5.28,15.38h-2.89Zm-3.79,12.34h10v2.54h-10Z"/><path class="cls-2" d="M175.88,545.51a10,10,0,0,1-2.3-.78,9.62,9.62,0,0,1-2-1.32l1.67-2a7.3,7.3,0,0,0,2.4,1.41,8.18,8.18,0,0,0,2.84.48,5.76,5.76,0,0,0,3.22-.77,2.47,2.47,0,0,0,1.14-2.17h0a2.31,2.31,0,0,0-.52-1.58,3.13,3.13,0,0,0-1.34-.87,14.93,14.93,0,0,0-2.12-.52h-.17l-.19,0a21.28,21.28,0,0,1-3.12-.74,4.42,4.42,0,0,1-2-1.51,5,5,0,0,1-.85-3.12h0a5.5,5.5,0,0,1,.79-3A5,5,0,0,1,175.6,527a10.12,10.12,0,0,1,5.67-.43,10.19,10.19,0,0,1,1.95.66,10.84,10.84,0,0,1,1.89,1.11l-1.52,2.12a9,9,0,0,0-2.17-1.2,6.35,6.35,0,0,0-2.17-.4,5.1,5.1,0,0,0-3,.78,2.57,2.57,0,0,0-1.08,2.21v0a2.09,2.09,0,0,0,.55,1.54,3.44,3.44,0,0,0,1.39.84,20.83,20.83,0,0,0,2.32.55l.1,0,.09,0,.15,0,.14,0a16.17,16.17,0,0,1,2.89.84,4.54,4.54,0,0,1,1.94,1.57,5,5,0,0,1,.79,3v0a5,5,0,0,1-3.22,4.88,10,10,0,0,1-3.79.64A12.29,12.29,0,0,1,175.88,545.51Z"/><path class="cls-2" d="M191.89,545.51a10,10,0,0,1-2.3-.78,9.62,9.62,0,0,1-2-1.32l1.67-2a7.3,7.3,0,0,0,2.4,1.41,8.18,8.18,0,0,0,2.84.48,5.76,5.76,0,0,0,3.22-.77,2.47,2.47,0,0,0,1.14-2.17h0a2.31,2.31,0,0,0-.52-1.58,3.13,3.13,0,0,0-1.34-.87,14.93,14.93,0,0,0-2.12-.52h-.17l-.19,0a21.28,21.28,0,0,1-3.12-.74,4.42,4.42,0,0,1-2.05-1.51,5,5,0,0,1-.85-3.12h0a5.5,5.5,0,0,1,.79-3,5,5,0,0,1,2.32-1.91,10.12,10.12,0,0,1,5.67-.43,10.19,10.19,0,0,1,1.95.66,10.84,10.84,0,0,1,1.89,1.11l-1.52,2.12a9,9,0,0,0-2.17-1.2,6.35,6.35,0,0,0-2.17-.4,5.1,5.1,0,0,0-3,.78,2.57,2.57,0,0,0-1.08,2.21v0a2.09,2.09,0,0,0,.55,1.54,3.44,3.44,0,0,0,1.39.84,20.83,20.83,0,0,0,2.32.55l.1,0,.09,0,.15,0,.14,0a16.17,16.17,0,0,1,2.89.84,4.54,4.54,0,0,1,1.94,1.57,5,5,0,0,1,.78,3v0a4.93,4.93,0,0,1-3.21,4.88,10,10,0,0,1-3.79.64A12.23,12.23,0,0,1,191.89,545.51Z"/><path class="cls-2" d="M217.71,526.51H220l7,19.07h-2.88l-5.29-15.38-5.28,15.38h-2.89Zm-3.79,12.34h10v2.54h-10Z"/><path class="cls-2" d="M231.62,544.9a5.93,5.93,0,0,1-2.33-2.5,8.07,8.07,0,0,1-.83-3.73v-5.23a8.08,8.08,0,0,1,.83-3.74,5.93,5.93,0,0,1,2.33-2.5,6.72,6.72,0,0,1,3.48-.88,6.51,6.51,0,0,1,3,.7,6.35,6.35,0,0,1,2.3,2,7.45,7.45,0,0,1,1.26,3h-2.75a4.11,4.11,0,0,0-.83-1.59,4,4,0,0,0-1.37-1.08,3.57,3.57,0,0,0-1.62-.38,3.69,3.69,0,0,0-2,.56,3.64,3.64,0,0,0-1.36,1.58,5.37,5.37,0,0,0-.49,2.37v5.23a5.35,5.35,0,0,0,.49,2.36,3.64,3.64,0,0,0,1.36,1.58,3.77,3.77,0,0,0,2,.55,3.86,3.86,0,0,0,1.63-.35,3.81,3.81,0,0,0,1.36-1,4,4,0,0,0,.83-1.65h2.75a7.45,7.45,0,0,1-1.26,3,6.45,6.45,0,0,1-5.31,2.68A6.81,6.81,0,0,1,231.62,544.9Z"/><path class="cls-2" d="M247.7,544.9a6,6,0,0,1-2.32-2.5,8.07,8.07,0,0,1-.83-3.73v-5.23a8.08,8.08,0,0,1,.83-3.74,6,6,0,0,1,2.32-2.5,6.78,6.78,0,0,1,3.49-.88,6.51,6.51,0,0,1,3,.7,6.35,6.35,0,0,1,2.3,2,7.3,7.3,0,0,1,1.25,3H255a4.11,4.11,0,0,0-.83-1.59,4,4,0,0,0-1.37-1.08,3.6,3.6,0,0,0-1.62-.38,3.69,3.69,0,0,0-2.05.56,3.64,3.64,0,0,0-1.36,1.58,5.37,5.37,0,0,0-.49,2.37v5.23a5.35,5.35,0,0,0,.49,2.36,3.64,3.64,0,0,0,1.36,1.58,3.77,3.77,0,0,0,2.05.55,3.86,3.86,0,0,0,1.63-.35,3.81,3.81,0,0,0,1.36-1,4,4,0,0,0,.83-1.65h2.74a7.3,7.3,0,0,1-1.25,3,6.45,6.45,0,0,1-5.31,2.68A6.87,6.87,0,0,1,247.7,544.9Z"/><path class="cls-2" d="M261.29,526.51H264v19.07h-2.68Zm1.3,0h11v2.55h-11Zm0,8.33h9.51v2.54h-9.51Zm0,8.19h11v2.55h-11Z"/><path class="cls-2" d="M280.46,545.51a10,10,0,0,1-2.3-.78,9.62,9.62,0,0,1-2-1.32l1.67-2a7.3,7.3,0,0,0,2.4,1.41,8.18,8.18,0,0,0,2.84.48,5.78,5.78,0,0,0,3.22-.77,2.49,2.49,0,0,0,1.14-2.17h0a2.31,2.31,0,0,0-.52-1.58,3.13,3.13,0,0,0-1.34-.87,14.93,14.93,0,0,0-2.12-.52h-.17l-.19,0a21.28,21.28,0,0,1-3.12-.74,4.42,4.42,0,0,1-2.05-1.51,5,5,0,0,1-.85-3.12h0a5.5,5.5,0,0,1,.79-3,5,5,0,0,1,2.31-1.91,10.16,10.16,0,0,1,5.68-.43,10.19,10.19,0,0,1,1.95.66,10.84,10.84,0,0,1,1.89,1.11l-1.52,2.12a9,9,0,0,0-2.17-1.2,6.35,6.35,0,0,0-2.17-.4,5.1,5.1,0,0,0-3,.78,2.57,2.57,0,0,0-1.08,2.21v0a2.09,2.09,0,0,0,.55,1.54,3.37,3.37,0,0,0,1.39.84,20.83,20.83,0,0,0,2.32.55l.1,0,.09,0,.15,0,.14,0a16.17,16.17,0,0,1,2.89.84,4.54,4.54,0,0,1,1.94,1.57,5,5,0,0,1,.78,3v0a4.93,4.93,0,0,1-3.21,4.88,10,10,0,0,1-3.79.64A12.23,12.23,0,0,1,280.46,545.51Z"/><path class="cls-2" d="M296.47,545.51a10,10,0,0,1-2.3-.78,9.62,9.62,0,0,1-2-1.32l1.67-2a7.3,7.3,0,0,0,2.4,1.41,8.18,8.18,0,0,0,2.84.48,5.73,5.73,0,0,0,3.21-.77,2.48,2.48,0,0,0,1.15-2.17h0a2.31,2.31,0,0,0-.52-1.58,3.13,3.13,0,0,0-1.34-.87,14.93,14.93,0,0,0-2.12-.52h-.17l-.19,0a21.28,21.28,0,0,1-3.12-.74,4.42,4.42,0,0,1-2.05-1.51,5,5,0,0,1-.85-3.12h0a5.5,5.5,0,0,1,.79-3,5,5,0,0,1,2.31-1.91,10.16,10.16,0,0,1,5.68-.43,10.19,10.19,0,0,1,1.95.66,10.84,10.84,0,0,1,1.89,1.11l-1.52,2.12a9,9,0,0,0-2.17-1.2,6.35,6.35,0,0,0-2.17-.4,5.1,5.1,0,0,0-3,.78,2.57,2.57,0,0,0-1.08,2.21v0a2.09,2.09,0,0,0,.55,1.54,3.37,3.37,0,0,0,1.39.84,20.83,20.83,0,0,0,2.32.55l.09,0,.1,0,.15,0,.14,0a16.17,16.17,0,0,1,2.89.84,4.54,4.54,0,0,1,1.94,1.57,5,5,0,0,1,.78,3v0a4.93,4.93,0,0,1-3.21,4.88,10,10,0,0,1-3.79.64A12.16,12.16,0,0,1,296.47,545.51Z"/></svg>