<?xml version="1.0" encoding="utf-8"?>
<!-- Generator: Adobe Illustrator 25.0.0, SVG Export Plug-In . SVG Version: 6.00 Build 0)  -->
<svg version="1.1" id="Layer_1" xmlns="http://www.w3.org/2000/svg" xmlns:xlink="http://www.w3.org/1999/xlink" x="0px" y="0px"
	 viewBox="0 0 1528.7 1068.6" style="enable-background:new 0 0 1528.7 1068.6;" xml:space="preserve">
<style type="text/css">
	.st0{fill:#2F3136;}
	.st1{fill:#FFFFFF;}
	.st2{fill:#292841;}
	.st3{fill:#B9BBBE;}
	.st4{fill:#ED4245;}
	.st5{fill:#FEE75C;}
	.st6{fill:#EB459E;}
	.st7{fill:#5865F2;}
	.st8{fill:#57F287;}
	.st9{fill:#F6F6F6;}
	.st10{fill:#4FDC7C;}
	.st11{opacity:0.24;fill:#B9BBBE;enable-background:new    ;}
	.st12{opacity:0.5;fill:#292841;}
	.st13{opacity:0.5;fill:#FFFFFF;}
	.st14{opacity:0.5;fill:#B9BBBE;}
	.st15{opacity:0.5;fill:#ED4245;}
	.st16{opacity:0.5;fill:#5865F2;}
	.st17{fill:#C2905B;}
	.st18{fill:#9FB35B;}
	.st19{fill:#A17548;}
	.st20{enable-background:new    ;}
	.st21{fill:#523C25;}
	.st22{fill:#725333;}
	.st23{fill:#8D663F;}
	.st24{fill:#36393F;}
	.st25{fill:#606060;}
	.st26{fill:none;}
	.st27{opacity:0.43;}
</style>
<path class="st1" d="M733.2,213.3h14.5v6.7h-14.5V213.3z M738.1,241.1c-1.3-1.7-2-3.7-1.8-5.9v-30.6h7.8v28.6c0,0.6,0.1,1.2,0.4,1.7
	c0.3,0.4,0.8,0.6,1.2,0.6h1.9v7.5h-3.9C741.2,243,739.3,242.4,738.1,241.1L738.1,241.1z"/>
<path class="st1" d="M754.6,213.3h8.3v29.6h-8.4L754.6,213.3z M769.8,220.6c-0.6-0.2-1.3-0.3-1.9-0.3c-1.4-0.1-2.7,0.5-3.7,1.5
	c-0.9,1.2-1.4,2.7-1.3,4.2l-0.6-7.7c0.7-1.6,1.8-3,3.2-4.1c1.2-1,2.7-1.5,4.3-1.5c1.1,0,2.3,0.2,3.3,0.6c1,0.4,1.9,1,2.6,1.7
	l-4.6,6.4C770.8,221.1,770.4,220.8,769.8,220.6z"/>
<path class="st1" d="M787.3,231.3c-0.1,1.2,0.4,2.4,1.2,3.3c0.9,0.8,2.2,1.3,3.4,1.2c1.2,0.1,2.5-0.3,3.4-1.2c0.8-1,1.3-2.2,1.2-3.5
	l0.4,6.5c-0.5,1.6-1.5,3-2.8,4.1c-1.3,1.1-3,1.7-4.7,1.7c-2.8,0.2-5.5-1-7.4-3.1c-1.7-2-2.6-4.9-2.6-8.7v-18.3h7.8L787.3,231.3z
	 M796.5,213.3h7.8v29.6h-7.8V213.3z"/>
<path class="st1" d="M818.2,242.9c-1.6-0.3-3.2-0.8-4.7-1.4c-1.4-0.6-2.7-1.3-3.9-2.2l4.8-6c1.4,0.9,2.9,1.6,4.5,2.1
	c1.4,0.5,2.9,0.7,4.5,0.8c1.4,0.1,2.9-0.2,4.2-0.6c1-0.4,1.5-1,1.5-1.7c0-0.6-0.2-1.1-0.7-1.5c-0.5-0.4-1.1-0.6-1.7-0.7
	c-1-0.2-1.9-0.3-2.9-0.4l-1-0.1l-1.1-0.1h-0.2h-0.2c-1.8-0.2-3.6-0.5-5.3-1c-1.4-0.4-2.5-1.3-3.4-2.4c-1-1.5-1.5-3.3-1.4-5.2
	c-0.2-3.7,2.1-7,5.6-8.3c2.1-0.8,4.3-1.2,6.6-1.1c1.5,0,3,0.2,4.5,0.5c1.5,0.3,2.9,0.7,4.3,1.3c1.3,0.6,2.6,1.2,3.8,2.1l-4.7,5.7
	c-1.3-0.7-2.6-1.3-4-1.7c-1.3-0.4-2.6-0.6-4-0.6c-1.2-0.1-2.5,0.1-3.7,0.5c-0.9,0.4-1.3,0.9-1.3,1.5c0,0.5,0.3,0.9,0.7,1.2
	c0.5,0.3,1.1,0.5,1.7,0.6c0.7,0.1,1.7,0.3,3,0.4l0.5,0l0.5,0.1c0.1,0,0.2,0,0.3,0c0.1,0,0.2,0,0.3,0c1.9,0.2,3.8,0.5,5.6,1
	c1.5,0.4,2.7,1.3,3.7,2.5c1.1,1.6,1.7,3.6,1.5,5.5c0.2,3.8-2.2,7.4-5.8,8.6c-2.2,0.8-4.5,1.2-6.9,1.2
	C821.6,243.4,819.9,243.2,818.2,242.9z"/>
<path class="st1" d="M840,213.3h14.5v6.7H840V213.3z M844.9,241.1c-1.2-1.3-1.8-3.3-1.8-5.9v-30.6h7.9v28.6c0,0.6,0.1,1.2,0.4,1.7
	c0.3,0.4,0.8,0.6,1.3,0.6h1.9v7.5h-3.9C848,243,846.1,242.4,844.9,241.1L844.9,241.1z"/>
<path class="st1" d="M641.3,796c-0.1,1.2,0.4,2.4,1.2,3.3c0.9,0.8,2.2,1.3,3.4,1.2c1.2,0.1,2.5-0.4,3.4-1.2c0.8-1,1.3-2.2,1.2-3.5
	l0.4,6.5c-0.5,1.6-1.5,3-2.8,4.1c-1.3,1.1-3,1.7-4.7,1.7c-2.8,0.2-5.5-1-7.4-3.1c-1.7-2-2.6-4.9-2.6-8.7V778h7.8L641.3,796z
	 M650.4,778h7.8v29.6h-7.8V778z"/>
<path class="st1" d="M665.9,778h7.8v29.6h-7.8V778z M683.1,789.7c0.1-1.2-0.4-2.5-1.2-3.4c-1-0.9-2.2-1.3-3.5-1.2
	c-1.2-0.1-2.5,0.4-3.4,1.2c-0.8,0.9-1.3,2.2-1.2,3.4l-0.6-6.6c0.7-1.6,1.8-3.1,3.2-4.2c1.4-1,3-1.5,4.7-1.4c2.8-0.2,5.5,1,7.2,3.2
	c1.7,2.1,2.6,5.1,2.6,8.9v18h-7.8L683.1,789.7z"/>
<path class="st1" d="M696.3,778h14.5v6.7h-14.5V778z M701.2,805.8c-1.2-1.3-1.8-3.3-1.8-5.9v-30.5h7.8V798c0,0.6,0.1,1.2,0.4,1.7
	c0.3,0.4,0.8,0.6,1.3,0.6h1.9v7.5h-3.9C704.3,807.8,702.4,807.1,701.2,805.8z"/>
<path class="st1" d="M717.6,778h8.4v29.6h-8.4V778z M732.9,785.4c-0.6-0.2-1.3-0.3-1.9-0.3c-1.4-0.1-2.7,0.5-3.7,1.5
	c-0.9,1.2-1.4,2.7-1.3,4.2l-0.6-7.7c0.7-1.6,1.8-3,3.2-4.1c1.2-1,2.7-1.5,4.3-1.5c1.1,0,2.3,0.2,3.3,0.6c1,0.4,1.9,1,2.6,1.7
	l-4.6,6.4C733.9,785.9,733.4,785.6,732.9,785.4L732.9,785.4z"/>
<path class="st1" d="M750.4,796c-0.1,1.2,0.3,2.5,1.2,3.4c0.9,0.8,2.2,1.3,3.4,1.2c1.2,0.1,2.5-0.4,3.4-1.2c0.8-1,1.3-2.2,1.2-3.5
	l0.4,6.5c-0.5,1.6-1.5,3-2.8,4.1c-1.3,1.1-3,1.7-4.7,1.7c-2.8,0.2-5.5-1-7.4-3.1c-1.7-2-2.6-4.9-2.6-8.7v-18.3h7.8L750.4,796z
	 M759.6,778h7.8v29.6h-7.8L759.6,778z"/>
<path class="st1" d="M781.2,807.6c-1.6-0.3-3.2-0.8-4.7-1.4c-1.4-0.6-2.7-1.3-3.9-2.2l4.8-6c1.4,0.9,2.9,1.6,4.5,2.1
	c1.4,0.5,2.9,0.7,4.5,0.7c1.4,0.1,2.9-0.2,4.2-0.6c1-0.4,1.5-1,1.5-1.7c0-0.6-0.2-1.1-0.7-1.5c-0.5-0.4-1.1-0.6-1.7-0.7
	c-1-0.2-1.9-0.3-2.9-0.4l-1-0.1l-1.1-0.1h-0.2h-0.2c-1.8-0.2-3.6-0.6-5.3-1.1c-1.4-0.4-2.5-1.3-3.4-2.4c-1-1.5-1.5-3.3-1.4-5.2
	c-0.2-3.7,2.1-7.1,5.6-8.3c2.1-0.8,4.3-1.1,6.6-1.1c1.5,0,3,0.2,4.5,0.4c1.5,0.3,2.9,0.7,4.3,1.3c1.3,0.6,2.6,1.2,3.8,2.1l-4.7,5.7
	c-1.3-0.7-2.6-1.3-4-1.7c-1.3-0.4-2.6-0.6-4-0.6c-1.3,0-2.5,0.1-3.7,0.6c-0.9,0.4-1.3,0.9-1.3,1.5c0,0.5,0.3,0.9,0.7,1.2
	c0.5,0.3,1.1,0.5,1.7,0.6c0.7,0.1,1.7,0.3,3,0.4h0.5l0.5,0.1c0.1,0,0.2,0,0.3,0s0.2,0,0.3,0c1.9,0.2,3.8,0.5,5.6,1
	c1.5,0.4,2.8,1.3,3.7,2.5c1.1,1.6,1.7,3.6,1.5,5.5c0.2,3.8-2.2,7.3-5.8,8.6c-2.2,0.8-4.5,1.2-6.9,1.2
	C784.7,808,782.9,807.9,781.2,807.6z"/>
<path class="st1" d="M803.1,778h14.5v6.7h-14.5V778z M807.9,805.8c-1.3-1.7-2-3.8-1.8-5.9v-30.5h7.8V798c0,0.6,0.1,1.2,0.4,1.7
	c0.3,0.4,0.8,0.6,1.2,0.6h2v7.5h-3.9C811.1,807.8,809.2,807.1,807.9,805.8z"/>
<path class="st1" d="M137.2,408.3c-0.1,1.2,0.4,2.4,1.2,3.3c0.9,0.8,2.2,1.3,3.4,1.2c1.2,0.1,2.5-0.4,3.4-1.2
	c0.8-0.9,1.3-2.2,1.2-3.5l0.4,6.5c-0.5,1.6-1.5,3-2.8,4.1c-1.3,1.1-3,1.7-4.7,1.7c-2.8,0.2-5.5-1-7.4-3.1c-1.7-2-2.6-4.9-2.6-8.7
	v-18.3h7.8V408.3z M146.4,390.3h7.8v29.6h-7.8V390.3z"/>
<path class="st1" d="M161.9,390.3h7.8v29.6h-7.8V390.3z M179,401.9c0.1-1.2-0.4-2.5-1.2-3.4c-1-0.9-2.2-1.3-3.5-1.2
	c-1.2-0.1-2.5,0.4-3.4,1.2c-0.8,0.9-1.3,2.2-1.2,3.4l-0.6-6.6c0.7-1.6,1.8-3.1,3.2-4.2c1.4-1,3-1.5,4.7-1.4c2.8-0.1,5.5,1,7.2,3.2
	c1.7,2.1,2.6,5.1,2.6,8.9v18H179V401.9z"/>
<path class="st1" d="M194.5,378.4h7.8v41.5h-7.8V378.4z M204.7,419c-1.3-0.9-2.3-2.2-2.8-3.8l0.4-6.8c0,0.9,0.2,1.7,0.5,2.5
	c0.3,0.7,0.9,1.2,1.5,1.6c0.7,0.4,1.6,0.6,2.4,0.5c1.3,0.1,2.6-0.5,3.4-1.5c0.9-1.2,1.3-2.6,1.2-4.1v-4.7c0.1-1.5-0.3-3-1.2-4.2
	c-0.8-1-2.1-1.6-3.4-1.5c-0.8,0-1.6,0.2-2.4,0.6c-0.7,0.4-1.2,0.9-1.5,1.6c-0.4,0.8-0.5,1.7-0.5,2.6l-0.6-6.6c0.7-1.6,1.8-3,3.1-4
	c1.3-0.9,2.8-1.4,4.3-1.4c3.9-0.2,7.5,2.2,8.8,5.9c0.8,2.2,1.2,4.6,1.2,7v4.7c0.1,2.4-0.3,4.7-1.2,6.9c-1.3,3.7-4.9,6.1-8.8,5.9
	C207.6,420.4,206.1,419.9,204.7,419L204.7,419z"/>
<path class="st1" d="M234.1,410.1c0,0.6,0.2,1.2,0.6,1.7c0.5,0.4,1.1,0.6,1.8,0.6h1.3v7.5h-4c-2.1,0.1-4.1-0.6-5.5-2.1
	c-1.4-1.6-2.1-3.7-2-5.8v-33.7h7.8L234.1,410.1z"/>
<path class="st1" d="M248.2,418.8c-1.9-1-3.4-2.5-4.4-4.4c-1-2.2-1.6-4.6-1.5-7v-4.8c-0.1-2.4,0.4-4.7,1.5-6.9
	c1-1.9,2.5-3.4,4.4-4.4c4.4-2,9.4-2,13.8,0c1.9,1,3.4,2.5,4.4,4.4c1.1,2.1,1.6,4.5,1.5,6.9v4.9c0.1,2.4-0.4,4.8-1.5,6.9
	c-1,1.9-2.5,3.4-4.4,4.4C257.7,420.8,252.6,420.8,248.2,418.8L248.2,418.8z M258.8,411.4c0.9-1.1,1.4-2.5,1.3-3.9v-4.9
	c0.1-1.4-0.4-2.8-1.3-3.8c-1-1-2.3-1.5-3.7-1.4c-1.4-0.1-2.7,0.4-3.6,1.4c-0.9,1.1-1.4,2.4-1.3,3.8v4.9c-0.1,1.4,0.4,2.8,1.3,3.9
	c1,1,2.3,1.5,3.6,1.4C256.5,412.9,257.8,412.3,258.8,411.4L258.8,411.4z"/>
<path class="st1" d="M280.4,418.7c-2-1-3.6-2.7-4.6-4.7c-1.1-2.3-1.6-4.9-1.6-7.4v-3.2c-0.1-2.5,0.5-5.1,1.6-7.3
	c1-2,2.6-3.6,4.6-4.6c2.2-1.1,4.7-1.7,7.2-1.6c1.5,0,3.1,0.2,4.6,0.5c1.4,0.3,2.7,0.9,3.9,1.6c1.1,0.7,2.1,1.5,2.9,2.6l-5,4.9
	c-0.7-0.7-1.6-1.2-2.5-1.6c-1-0.4-2-0.5-3-0.5c-1.7-0.1-3.3,0.5-4.6,1.6c-1.1,1.2-1.7,2.8-1.6,4.5v3.2c-0.1,1.7,0.5,3.3,1.6,4.6
	c1.2,1.1,2.9,1.7,4.6,1.6c1.1,0,2.1-0.2,3.1-0.6c1-0.4,1.8-1,2.5-1.7l5,5.2c-0.8,1-1.8,1.9-2.9,2.5c-1.2,0.7-2.5,1.2-3.9,1.6
	c-1.5,0.4-3,0.6-4.6,0.5C285.1,420.4,282.6,419.8,280.4,418.7z"/>
<path class="st1" d="M304.2,378.4h7.8v41.5h-7.8V378.4z M307.8,409.2l13.8-19h8.3l-21,27.6L307.8,409.2z M314.8,404.6l6.5-3.9
	l10.1,19.2h-9L314.8,404.6z"/>
<path class="st1" d="M898.5,822h7.8v41.5h-7.8V822z M908.7,862.5c-1.3-0.9-2.3-2.2-2.8-3.8l0.4-6.8c0,0.9,0.1,1.7,0.5,2.5
	c0.3,0.7,0.8,1.2,1.5,1.6c0.7,0.4,1.6,0.6,2.4,0.5c1.3,0.1,2.6-0.5,3.4-1.4c0.9-1.2,1.3-2.6,1.2-4.1v-4.7c0.1-1.5-0.3-3-1.2-4.2
	c-0.8-1-2.1-1.6-3.4-1.5c-0.8,0-1.6,0.2-2.4,0.6c-0.7,0.4-1.2,0.9-1.5,1.6c-0.4,0.8-0.5,1.7-0.5,2.6l-0.6-6.6c0.7-1.6,1.8-3,3.2-4
	c1.3-0.9,2.8-1.4,4.3-1.4c3.9-0.2,7.5,2.2,8.8,5.9c0.8,2.2,1.2,4.6,1.2,7v4.7c0.1,2.4-0.3,4.7-1.2,6.9c-1.3,3.7-4.9,6.1-8.8,5.9
	C911.6,863.9,910,863.5,908.7,862.5L908.7,862.5z"/>
<path class="st1" d="M938.1,853.6c0,0.6,0.2,1.2,0.6,1.7c0.5,0.4,1.1,0.6,1.8,0.6h1.3v7.5h-4c-2,0.1-4.1-0.6-5.5-2
	c-1.4-1.6-2.1-3.7-2-5.8V822h7.8L938.1,853.6z"/>
<path class="st1" d="M952.2,862.4c-1.9-1-3.4-2.5-4.4-4.4c-1.1-2.2-1.6-4.6-1.5-7v-4.8c-0.1-2.4,0.4-4.7,1.5-6.9
	c1-1.9,2.5-3.4,4.4-4.4c4.4-2,9.4-2,13.8,0c1.9,1,3.4,2.5,4.4,4.4c1.1,2.1,1.6,4.5,1.5,6.9v4.9c0.1,2.4-0.4,4.8-1.5,6.9
	c-1,1.9-2.5,3.4-4.4,4.4C961.6,864.4,956.6,864.4,952.2,862.4L952.2,862.4z M962.7,855c0.9-1.1,1.4-2.5,1.3-3.9v-4.9
	c0.1-1.4-0.4-2.8-1.3-3.8c-1-1-2.3-1.4-3.7-1.4c-1.4-0.1-2.7,0.4-3.6,1.4c-0.9,1.1-1.4,2.4-1.3,3.8v4.9c-0.1,1.4,0.4,2.8,1.3,3.9
	c1,1,2.3,1.5,3.7,1.4C960.4,856.4,961.8,855.9,962.7,855L962.7,855z"/>
<path class="st1" d="M984.3,862.3c-2-1-3.6-2.7-4.6-4.7c-1.1-2.3-1.6-4.9-1.6-7.4V847c-0.1-2.5,0.5-5.1,1.6-7.3c1-2,2.6-3.6,4.6-4.6
	c2.2-1.1,4.7-1.7,7.2-1.6c1.5,0,3.1,0.2,4.6,0.6c1.4,0.3,2.7,0.9,3.9,1.6c1.1,0.7,2.1,1.5,2.8,2.6l-5,4.9c-0.7-0.7-1.6-1.2-2.5-1.6
	c-1-0.4-2-0.6-3.1-0.6c-1.7-0.1-3.3,0.5-4.6,1.6c-1.1,1.2-1.7,2.8-1.6,4.5v3.2c-0.1,1.7,0.5,3.3,1.6,4.6c1.2,1.1,2.9,1.7,4.6,1.6
	c1.1,0,2.1-0.2,3.1-0.6c0.9-0.4,1.8-1,2.5-1.7l5,5.2c-0.8,1-1.8,1.9-2.9,2.5c-1.2,0.7-2.5,1.3-3.8,1.6c-1.5,0.4-3,0.5-4.6,0.5
	C989,863.9,986.5,863.4,984.3,862.3z"/>
<path class="st1" d="M1008.1,822h7.8v41.5h-7.8V822z M1011.8,852.8l13.8-18.9h8.3l-21,27.6L1011.8,852.8z M1018.8,848.1l6.4-3.9
	l10.1,19.2h-9L1018.8,848.1z"/>
<path class="st1" d="M314.8,273.5c-0.1,1.2,0.4,2.4,1.2,3.3c0.9,0.8,2.2,1.3,3.4,1.2c1.2,0.1,2.5-0.4,3.4-1.2
	c0.8-0.9,1.3-2.2,1.2-3.5l0.4,6.5c-0.5,1.6-1.5,3-2.8,4.1c-1.3,1.1-3,1.7-4.7,1.7c-2.8,0.2-5.5-1-7.4-3.1c-1.7-2-2.6-4.9-2.6-8.7
	v-18.3h7.8V273.5z M324,255.5h7.8v29.6H324V255.5z"/>
<path class="st1" d="M345.6,285c-1.6-0.3-3.2-0.8-4.7-1.4c-1.4-0.6-2.7-1.3-3.9-2.2l4.8-6c1.4,0.9,2.9,1.6,4.5,2.1
	c1.4,0.5,2.9,0.7,4.5,0.7c1.4,0.1,2.9-0.1,4.2-0.6c1-0.4,1.5-1,1.5-1.7c0-0.6-0.2-1.1-0.6-1.5c-0.5-0.4-1.1-0.6-1.7-0.7
	c-0.7-0.1-1.6-0.3-2.9-0.4l-1-0.1l-1.1-0.1H349h-0.2c-1.8-0.2-3.6-0.6-5.3-1.1c-1.4-0.4-2.5-1.3-3.4-2.4c-1-1.5-1.5-3.3-1.4-5.2
	c-0.2-3.7,2.1-7.1,5.6-8.3c2.1-0.8,4.3-1.2,6.6-1.1c1.5,0,3,0.2,4.5,0.5c1.5,0.3,2.9,0.7,4.3,1.3c1.3,0.5,2.6,1.2,3.8,2l-4.6,5.7
	c-1.3-0.7-2.6-1.3-4-1.7c-1.3-0.4-2.7-0.6-4-0.6c-1.2-0.1-2.5,0.1-3.7,0.5c-0.9,0.4-1.3,0.9-1.3,1.5c0,0.5,0.3,0.9,0.7,1.2
	c0.5,0.3,1.1,0.5,1.7,0.6c0.7,0.1,1.7,0.3,3,0.4l0.5,0.1l0.5,0c0.1,0,0.2,0,0.3,0c0.1,0,0.2,0,0.3,0c1.9,0.2,3.8,0.5,5.6,1
	c1.5,0.4,2.8,1.3,3.7,2.5c1.1,1.6,1.7,3.6,1.5,5.5c0.2,3.8-2.2,7.3-5.8,8.6c-2.2,0.8-4.5,1.2-6.9,1.2
	C349,285.5,347.3,285.3,345.6,285z"/>
<path class="st1" d="M375.1,283.9c-2-1-3.6-2.6-4.6-4.6c-1.1-2.2-1.7-4.7-1.6-7.2v-3.3c-0.1-2.6,0.4-5.1,1.5-7.5
	c1-2,2.5-3.7,4.5-4.7c2.2-1.1,4.6-1.7,7.1-1.6c2.4-0.1,4.7,0.6,6.6,1.9c1.9,1.4,3.4,3.4,4.2,5.6c1,2.9,1.5,5.9,1.4,8.9v1.9H374v-5.2
	h13.1l-0.1-0.7c-0.1-1.5-0.7-2.9-1.6-4c-0.9-0.9-2.2-1.5-3.5-1.4c-1.6-0.1-3.2,0.5-4.4,1.7c-1.1,1.3-1.7,3-1.6,4.8v3.8
	c-0.1,1.7,0.5,3.4,1.7,4.7c1.3,1.2,3,1.8,4.8,1.7c1.1,0,2.1-0.2,3.1-0.6c1-0.4,2-0.9,2.8-1.6l5.1,4.5c-1.5,1.4-3.3,2.5-5.2,3.3
	c-1.8,0.8-3.8,1.2-5.8,1.2C379.9,285.6,377.4,285,375.1,283.9z"/>
<path class="st1" d="M401.1,255.5h8.4v29.6h-8.4V255.5z M416.3,262.9c-0.6-0.2-1.3-0.3-1.9-0.3c-1.4-0.1-2.7,0.5-3.7,1.5
	c-0.9,1.2-1.4,2.7-1.3,4.2l-0.6-7.7c0.7-1.6,1.8-3,3.2-4.1c1.2-1,2.7-1.5,4.3-1.5c1.1,0,2.3,0.2,3.4,0.6c1,0.4,1.9,1,2.6,1.7
	l-4.6,6.4C417.3,263.3,416.9,263,416.3,262.9z"/>
<path class="st1" d="M432.2,285c-1.6-0.3-3.2-0.8-4.7-1.4c-1.4-0.6-2.7-1.3-3.9-2.2l4.8-6c1.4,0.9,2.9,1.6,4.5,2.1
	c1.4,0.5,2.9,0.7,4.5,0.7c1.4,0.1,2.9-0.1,4.2-0.6c1-0.4,1.5-1,1.5-1.7c0-0.6-0.2-1.1-0.7-1.5c-0.5-0.4-1.1-0.6-1.7-0.7
	c-0.7-0.1-1.7-0.3-2.9-0.4l-1-0.1l-1.1-0.1h-0.2h-0.2c-1.8-0.2-3.6-0.6-5.3-1.1c-1.4-0.4-2.5-1.3-3.4-2.4c-1-1.5-1.5-3.3-1.4-5.2
	c-0.2-3.7,2.1-7.1,5.6-8.3c2.1-0.8,4.3-1.2,6.6-1.1c1.5,0,3,0.2,4.5,0.5c1.5,0.3,2.9,0.7,4.3,1.3c1.3,0.5,2.6,1.2,3.8,2l-4.7,5.7
	c-1.3-0.7-2.6-1.3-4-1.7c-1.3-0.4-2.6-0.6-4-0.6c-1.2-0.1-2.5,0.1-3.7,0.5c-0.9,0.4-1.3,0.9-1.3,1.5c0,0.5,0.3,0.9,0.7,1.2
	c0.5,0.3,1.1,0.5,1.7,0.6c0.7,0.1,1.7,0.3,3,0.4l0.5,0.1l0.5,0c0.1,0,0.2,0,0.3,0c0.1,0,0.2,0,0.2,0c1.9,0.2,3.8,0.5,5.6,1
	c1.5,0.4,2.8,1.3,3.7,2.5c1.1,1.6,1.7,3.6,1.5,5.5c0.2,3.8-2.2,7.4-5.8,8.6c-2.2,0.8-4.5,1.2-6.9,1.2
	C435.7,285.5,433.9,285.3,432.2,285z"/>
<path class="st1" d="M1081.2,741.8h7.8v41.5h-7.8V741.8z M1091.4,782.4c-1.3-0.9-2.3-2.2-2.8-3.8l0.4-6.8c0,0.9,0.2,1.7,0.5,2.5
	c0.3,0.7,0.8,1.2,1.5,1.6c0.7,0.4,1.6,0.6,2.4,0.5c1.3,0.1,2.6-0.5,3.4-1.5c0.9-1.2,1.3-2.6,1.2-4.1v-4.7c0.1-1.5-0.3-3-1.2-4.2
	c-0.8-1-2.1-1.6-3.4-1.5c-0.8,0-1.6,0.2-2.4,0.6c-0.7,0.4-1.2,0.9-1.5,1.6c-0.4,0.8-0.5,1.7-0.5,2.6l-0.6-6.6c0.7-1.6,1.8-3,3.2-4
	c1.2-0.9,2.8-1.4,4.3-1.4c3.9-0.2,7.5,2.2,8.8,5.9c0.8,2.2,1.2,4.6,1.2,7v4.7c0.1,2.4-0.3,4.7-1.2,6.9c-1.3,3.7-4.9,6.1-8.8,5.9
	C1094.3,783.8,1092.7,783.3,1091.4,782.4L1091.4,782.4z"/>
<path class="st1" d="M1112.6,741.8h7.8v7.8h-7.8V741.8z M1112.6,753.7h7.8v29.6h-7.8V753.7z"/>
<path class="st1" d="M1125.4,753.7h14.5v6.7h-14.5V753.7z M1130.2,781.5c-1.2-1.3-1.8-3.3-1.8-5.9v-30.5h7.8v28.6
	c0,0.6,0.1,1.2,0.4,1.7c0.3,0.4,0.8,0.6,1.2,0.6h1.9v7.5h-3.9C1133.3,783.4,1131.4,782.8,1130.2,781.5z"/>
<path class="st1" d="M1146.7,753.7h8.4v29.6h-8.4V753.7z M1162,761.1c-0.6-0.2-1.3-0.3-1.9-0.3c-1.4-0.1-2.7,0.5-3.7,1.5
	c-0.9,1.2-1.4,2.7-1.3,4.2l-0.6-7.7c0.7-1.6,1.8-3,3.2-4.1c1.2-1,2.7-1.5,4.3-1.5c1.1,0,2.3,0.2,3.4,0.6c1,0.4,1.9,1,2.6,1.7
	l-4.6,6.4C1163,761.5,1162.5,761.2,1162,761.1z"/>
<path class="st1" d="M1172.6,781.5c-1.6-1.5-2.3-3.8-2.3-6.9c0-2.9,0.9-5.1,2.6-6.6c1.8-1.5,4.4-2.2,7.9-2.2h7.4l0.4,6h-7.8
	c-0.9-0.1-1.9,0.2-2.7,0.7c-0.6,0.5-0.9,1.3-0.9,2.1c-0.1,0.9,0.4,1.7,1.1,2.2c1,0.5,2.2,0.8,3.4,0.7c1.6,0.1,3.2-0.2,4.7-0.7
	c0.9-0.3,1.5-1.2,1.5-2.2l0.6,4.3c-0.1,1.1-0.6,2-1.5,2.7c-0.9,0.8-2.1,1.4-3.2,1.7c-1.3,0.4-2.7,0.6-4.1,0.6
	C1176.5,783.7,1174.1,783,1172.6,781.5z M1187.9,764.5c0.1-1.2-0.4-2.4-1.4-3.1c-1.1-0.8-2.5-1.2-3.9-1.1c-1.1,0-2.2,0.2-3.3,0.5
	c-1,0.3-2,0.8-2.9,1.5l-4.8-4.8c1.3-1.4,2.9-2.5,4.7-3.2c2.1-0.8,4.2-1.1,6.4-1.1c2.3-0.1,4.5,0.4,6.6,1.3c1.7,0.8,3.2,2.1,4.2,3.8
	c1,1.8,1.5,3.9,1.4,6v19h-7.1V764.5z"/>
<path class="st1" d="M1200.4,753.7h14.5v6.7h-14.5V753.7z M1205.3,781.5c-1.2-1.3-1.8-3.3-1.8-5.9v-30.5h7.8v28.6
	c0,0.6,0.1,1.2,0.4,1.7c0.3,0.4,0.8,0.6,1.2,0.6h1.9v7.5h-3.9C1208.4,783.4,1206.5,782.8,1205.3,781.5z"/>
<path class="st1" d="M1227.2,782.2c-2-1-3.6-2.6-4.6-4.5c-1.1-2.2-1.7-4.7-1.6-7.2v-3.3c-0.1-2.6,0.5-5.2,1.5-7.5
	c1-2,2.5-3.7,4.4-4.7c2.2-1.1,4.6-1.7,7.1-1.6c2.4-0.1,4.7,0.6,6.7,1.9c1.9,1.4,3.4,3.4,4.2,5.6c1,2.9,1.5,5.9,1.4,8.9v1.9H1226
	v-5.3h13.1l-0.1-0.7c-0.1-1.5-0.7-2.9-1.6-4c-0.9-0.9-2.2-1.5-3.5-1.4c-1.6-0.1-3.2,0.5-4.4,1.7c-1.1,1.3-1.7,3-1.6,4.8v3.8
	c-0.1,1.7,0.5,3.4,1.7,4.7c1.3,1.2,3,1.8,4.8,1.7c1.1,0,2.1-0.2,3.1-0.6c1-0.4,2-0.9,2.8-1.6l5.1,4.5c-1.5,1.4-3.3,2.5-5.2,3.3
	c-1.8,0.8-3.8,1.1-5.8,1.2C1232,783.7,1229.4,783.2,1227.2,782.2z"/>
<path class="st1" d="M303.6,605c0,0.6,0.2,1.2,0.6,1.7c0.5,0.4,1.1,0.6,1.8,0.6h1.3v7.5h-4c-2.1,0.1-4.1-0.6-5.5-2.1
	c-1.4-1.6-2.1-3.7-2-5.8v-33.6h7.8L303.6,605z"/>
<path class="st1" d="M312.3,573.3h7.8v7.8h-7.8V573.3z M312.3,585.2h7.8v29.6h-7.8V585.2z"/>
<path class="st1" d="M327.4,585.2h7.8v29.6h-7.8V585.2z M344.7,597.7c0.1-1.4-0.4-2.9-1.3-4c-0.9-1-2.3-1.5-3.6-1.4
	c-1.2-0.1-2.4,0.4-3.4,1.2c-0.8,0.9-1.3,2.2-1.2,3.4l-0.6-6.5c0.7-1.6,1.9-3.1,3.3-4.2c1.3-1,3-1.5,4.6-1.4c3.9-0.2,7.5,2.2,8.8,5.9
	c0.8,2.2,1.2,4.6,1.2,7v17.1h-7.8L344.7,597.7z M361.9,597.7c0.1-1.4-0.3-2.9-1.2-4c-2-1.9-5-1.9-7-0.1c-0.9,1.1-1.3,2.5-1.2,3.8
	l-1.5-6.8c0.8-1.7,2.1-3.2,3.6-4.3c1.5-1,3.2-1.5,5-1.5c1.9-0.1,3.8,0.5,5.5,1.5c1.6,1.1,2.8,2.6,3.5,4.4c0.8,2.2,1.2,4.6,1.2,7
	v17.1h-7.8L361.9,597.7z"/>
<path class="st1" d="M377,573.3h7.8v7.8H377V573.3z M377,585.2h7.8v29.6H377V585.2z"/>
<path class="st1" d="M389.8,585.2h14.5v6.7h-14.5V585.2z M394.7,613c-1.3-1.7-2-3.8-1.8-5.9v-30.5h7.8v28.6c0,0.6,0.1,1.2,0.4,1.7
	c0.3,0.4,0.8,0.6,1.2,0.6h1.9v7.5h-3.9C397.8,614.9,395.9,614.3,394.7,613z"/>
<path class="st1" d="M1261.1,639.1h7.8v29.6h-7.8V639.1z M1278.2,650.8c0.1-1.2-0.4-2.5-1.2-3.4c-1-0.8-2.2-1.3-3.5-1.2
	c-1.2-0.1-2.5,0.4-3.3,1.2c-0.8,0.9-1.3,2.2-1.2,3.4l-0.6-6.6c0.7-1.6,1.8-3.1,3.2-4.2c1.4-1,3-1.5,4.7-1.4c2.8-0.2,5.5,1,7.2,3.2
	c1.7,2.1,2.6,5.1,2.6,8.9v18h-7.8V650.8z"/>
<path class="st1" d="M1294.6,666.9c-1.6-1.5-2.3-3.8-2.3-6.9c0-2.9,0.9-5.1,2.6-6.6c1.8-1.5,4.4-2.2,7.9-2.2h7.4l0.4,6h-7.8
	c-0.9-0.1-1.9,0.2-2.7,0.7c-0.6,0.5-0.9,1.3-0.9,2.1c-0.1,0.9,0.4,1.7,1.1,2.2c1,0.5,2.2,0.8,3.4,0.7c1.6,0.1,3.2-0.2,4.7-0.7
	c0.9-0.3,1.5-1.2,1.5-2.2l0.6,4.3c-0.1,1.1-0.6,2-1.5,2.7c-0.9,0.8-2.1,1.4-3.2,1.7c-1.3,0.4-2.7,0.6-4.1,0.5
	C1298.6,669.1,1296.2,668.4,1294.6,666.9z M1309.9,649.9c0.1-1.2-0.4-2.4-1.4-3.2c-1.1-0.8-2.5-1.2-3.9-1.1c-1.1,0-2.2,0.2-3.3,0.5
	c-1,0.3-2,0.8-2.9,1.5l-4.8-4.8c1.3-1.4,2.9-2.5,4.7-3.2c2.1-0.8,4.2-1.2,6.4-1.1c2.3-0.1,4.5,0.4,6.6,1.3c1.7,0.8,3.2,2.1,4.2,3.8
	c1,1.8,1.5,3.9,1.4,6v19h-7.1V649.9z"/>
<path class="st1" d="M1324.8,639.1h7.8v29.6h-7.8L1324.8,639.1z M1342,651.6c0.1-1.4-0.4-2.9-1.3-4c-0.9-1-2.3-1.5-3.6-1.4
	c-1.2-0.1-2.4,0.4-3.3,1.2c-0.8,0.9-1.3,2.2-1.2,3.4l-0.6-6.6c0.7-1.6,1.9-3.1,3.3-4.2c1.3-1,3-1.5,4.6-1.4c3.9-0.2,7.5,2.2,8.8,5.9
	c0.8,2.2,1.2,4.6,1.2,7v17.1h-7.8L1342,651.6z M1359.3,651.6c0.1-1.4-0.3-2.9-1.2-4c-2-1.9-5-1.9-7-0.1c-0.9,1.1-1.3,2.5-1.2,3.8
	l-1.5-6.8c0.8-1.7,2.1-3.2,3.6-4.3c1.5-1,3.2-1.5,5-1.5c1.9-0.1,3.8,0.5,5.5,1.5c1.6,1.1,2.8,2.6,3.4,4.4c0.8,2.2,1.2,4.6,1.2,7
	v17.1h-7.8L1359.3,651.6z"/>
<path class="st1" d="M1380.2,667.6c-2-1-3.6-2.6-4.6-4.5c-1.1-2.2-1.7-4.7-1.6-7.2v-3.3c-0.1-2.6,0.5-5.2,1.5-7.5
	c1-2,2.5-3.7,4.4-4.7c2.2-1.1,4.6-1.7,7.1-1.6c2.4-0.1,4.7,0.6,6.7,1.9c1.9,1.4,3.4,3.4,4.2,5.6c1,2.9,1.5,5.9,1.4,8.9v1.9H1379
	v-5.3h13.1l-0.1-0.7c-0.1-1.5-0.7-2.9-1.6-4c-0.9-0.9-2.2-1.5-3.5-1.4c-1.6-0.1-3.2,0.5-4.4,1.7c-1.1,1.3-1.7,3-1.6,4.8v3.8
	c-0.1,1.7,0.5,3.4,1.7,4.7c1.3,1.2,3,1.8,4.8,1.7c1.1,0,2.1-0.2,3.1-0.5c1-0.4,2-0.9,2.8-1.6l5.1,4.5c-1.5,1.4-3.3,2.5-5.2,3.3
	c-1.8,0.8-3.8,1.1-5.8,1.2C1385,669.2,1382.5,668.7,1380.2,667.6z"/>
<path class="st1" d="M421.9,857.3c-2-1.1-3.6-2.7-4.6-4.7c-1.1-2.3-1.6-4.9-1.6-7.4V842c-0.1-2.5,0.5-5.1,1.6-7.3
	c1-2,2.6-3.6,4.6-4.6c2.2-1.1,4.7-1.7,7.2-1.6c1.5,0,3.1,0.2,4.6,0.6c1.4,0.3,2.7,0.9,3.9,1.6c1.1,0.7,2.1,1.5,2.8,2.6l-5,4.9
	c-0.7-0.7-1.6-1.2-2.5-1.6c-1-0.4-2-0.6-3-0.6c-1.7-0.1-3.3,0.5-4.6,1.6c-1.1,1.2-1.7,2.8-1.6,4.5v3.2c-0.1,1.7,0.5,3.3,1.6,4.6
	c1.2,1.1,2.9,1.7,4.6,1.6c1.1,0,2.1-0.2,3.1-0.6c0.9-0.4,1.8-1,2.5-1.7l5,5.2c-0.8,1-1.8,1.9-2.9,2.5c-1.2,0.7-2.5,1.3-3.8,1.6
	c-1.5,0.4-3,0.6-4.6,0.6C426.6,859,424.1,858.4,421.9,857.3z"/>
<path class="st1" d="M453.5,848.7c0,0.6,0.2,1.2,0.6,1.7c0.5,0.4,1.1,0.6,1.8,0.6h1.3v7.5h-4c-2,0.1-4-0.6-5.5-2
	c-1.4-1.6-2.1-3.7-2-5.8V817h7.8L453.5,848.7z"/>
<path class="st1" d="M463.2,856.6c-1.6-1.5-2.4-3.8-2.4-6.9c0-2.9,0.9-5.1,2.6-6.6s4.4-2.2,7.9-2.2h7.4l0.4,6h-7.8
	c-0.9-0.1-1.9,0.2-2.7,0.7c-0.6,0.5-0.9,1.3-0.9,2.1c-0.1,0.9,0.4,1.7,1.1,2.2c1,0.5,2.2,0.8,3.4,0.7c1.6,0.1,3.2-0.2,4.7-0.7
	c0.9-0.3,1.5-1.2,1.5-2.2l0.6,4.3c-0.1,1.1-0.6,2-1.5,2.7c-0.9,0.8-2.1,1.4-3.2,1.7c-1.3,0.4-2.7,0.6-4.1,0.6
	C467.2,858.9,464.8,858.1,463.2,856.6z M478.6,839.7c0.1-1.2-0.4-2.4-1.4-3.2c-1.1-0.8-2.5-1.2-3.9-1.1c-1.1,0-2.2,0.2-3.3,0.5
	c-1,0.3-2,0.9-2.9,1.5l-4.8-4.8c1.3-1.4,2.9-2.5,4.7-3.2c2.1-0.8,4.2-1.2,6.5-1.1c2.3-0.1,4.5,0.4,6.6,1.3c1.7,0.8,3.2,2.1,4.2,3.8
	c1,1.8,1.5,3.9,1.5,6v19h-7.1V839.7z"/>
<path class="st1" d="M493,817h7.8v7.8H493V817z M493,828.9h7.8v29.6H493V828.9z"/>
<path class="st1" d="M508.1,828.9h7.8v29.6h-7.8V828.9z M525.3,841.4c0.1-1.4-0.4-2.9-1.3-4c-0.9-1-2.3-1.5-3.6-1.4
	c-1.2-0.1-2.4,0.4-3.3,1.2c-0.8,0.9-1.3,2.2-1.2,3.4l-0.6-6.6c0.7-1.6,1.9-3.1,3.3-4.2c1.3-1,3-1.5,4.6-1.4c3.9-0.2,7.5,2.2,8.8,5.9
	c0.8,2.2,1.2,4.6,1.2,7v17.1h-7.8V841.4z M542.6,841.4c0.1-1.4-0.3-2.9-1.2-4c-2-1.9-5-1.9-7-0.1c-0.9,1.1-1.3,2.5-1.2,3.8l-1.5-6.8
	c0.8-1.7,2.1-3.2,3.6-4.4c1.5-1,3.2-1.5,5-1.5c1.9-0.1,3.8,0.5,5.5,1.5c1.6,1.1,2.8,2.6,3.5,4.4c0.8,2.2,1.2,4.6,1.2,7v17.1h-7.8
	V841.4z"/>
<path class="st1" d="M500.1,317.5h14.5v6.7h-14.5V317.5z M505,345.3c-1.2-1.3-1.8-3.3-1.8-5.9v-30.5h7.8v28.6c0,0.6,0.1,1.2,0.4,1.7
	c0.3,0.4,0.8,0.6,1.3,0.6h1.9v7.5h-3.9C508.1,347.2,506.2,346.6,505,345.3z"/>
<path class="st1" d="M521.5,317.5h8.4v29.6h-8.4V317.5z M536.7,324.9c-0.6-0.2-1.3-0.3-1.9-0.3c-1.4-0.1-2.7,0.5-3.7,1.5
	c-0.9,1.2-1.4,2.7-1.3,4.2l-0.6-7.7c0.7-1.6,1.8-3,3.2-4.1c1.2-1,2.7-1.5,4.3-1.5c1.1,0,2.3,0.2,3.3,0.6c1,0.4,1.9,1,2.6,1.7
	l-4.6,6.4C537.7,325.3,537.2,325.1,536.7,324.9z"/>
<path class="st1" d="M547.3,345.3c-1.6-1.5-2.4-3.8-2.4-6.9c0-2.9,0.9-5.1,2.6-6.6s4.4-2.2,7.9-2.2h7.4l0.4,6h-7.8
	c-0.9-0.1-1.9,0.2-2.7,0.7c-0.6,0.5-1,1.3-0.9,2.1c-0.1,0.9,0.4,1.7,1.1,2.2c1,0.5,2.2,0.8,3.4,0.7c1.6,0.1,3.2-0.2,4.7-0.7
	c0.9-0.3,1.5-1.2,1.5-2.2l0.6,4.3c-0.1,1.1-0.6,2-1.5,2.7c-1,0.8-2.1,1.3-3.2,1.7c-1.3,0.4-2.7,0.6-4.1,0.6
	C551.3,347.6,548.9,346.8,547.3,345.3z M562.7,328.4c0.1-1.2-0.4-2.4-1.4-3.2c-1.1-0.8-2.5-1.2-3.9-1.1c-1.1,0-2.2,0.2-3.3,0.5
	c-1,0.3-2,0.9-2.9,1.5l-4.8-4.8c1.3-1.4,2.9-2.5,4.7-3.2c2.1-0.8,4.2-1.2,6.4-1.1c2.3-0.1,4.5,0.4,6.6,1.3c1.7,0.8,3.2,2.1,4.2,3.8
	c1,1.8,1.5,3.9,1.4,5.9v19h-7.1V328.4z"/>
<path class="st1" d="M577.5,317.5h7.8v29.6h-7.8V317.5z M594.6,329.2c0.1-1.2-0.4-2.5-1.2-3.4c-1-0.9-2.2-1.3-3.5-1.2
	c-1.2-0.1-2.5,0.4-3.3,1.2c-0.8,0.9-1.3,2.2-1.2,3.4l-0.6-6.6c0.7-1.6,1.8-3.1,3.2-4.2c1.4-1,3-1.5,4.7-1.4c2.8-0.2,5.5,1,7.2,3.2
	c1.7,2.1,2.6,5.1,2.6,8.9v18h-7.8L594.6,329.2z"/>
<path class="st1" d="M616.3,347.1c-1.6-0.3-3.2-0.8-4.7-1.4c-1.4-0.6-2.7-1.3-3.9-2.2l4.8-6c1.4,0.9,2.9,1.6,4.5,2.1
	c1.4,0.5,2.9,0.7,4.5,0.7c1.4,0.1,2.9-0.1,4.2-0.6c1-0.4,1.5-1,1.5-1.7c0-0.6-0.2-1.1-0.7-1.5c-0.5-0.4-1.1-0.6-1.7-0.7
	c-1-0.2-1.9-0.3-2.9-0.4l-1-0.1l-1.1-0.1h-0.2h-0.2c-1.8-0.2-3.6-0.6-5.3-1c-1.3-0.4-2.5-1.3-3.4-2.4c-1-1.5-1.5-3.3-1.4-5.2
	c0-1.8,0.4-3.6,1.4-5.1c1-1.5,2.5-2.6,4.1-3.2c2.1-0.8,4.3-1.2,6.6-1.1c1.5,0,3,0.2,4.5,0.5c1.5,0.3,2.9,0.7,4.3,1.3
	c1.3,0.5,2.6,1.2,3.8,2l-4.7,5.7c-1.3-0.7-2.6-1.3-4-1.7c-1.3-0.4-2.7-0.6-4-0.6c-1.2-0.1-2.5,0.1-3.7,0.5c-0.9,0.4-1.3,0.9-1.3,1.5
	c0,0.5,0.3,0.9,0.7,1.2c0.5,0.3,1.1,0.5,1.7,0.6c0.7,0.1,1.7,0.3,3,0.4l0.5,0.1l0.5,0.1h0.3c0.1,0,0.2,0,0.2,0
	c1.9,0.2,3.8,0.5,5.6,1c1.5,0.4,2.8,1.3,3.7,2.5c1.1,1.6,1.7,3.6,1.5,5.5c0.2,3.8-2.2,7.4-5.8,8.6c-2.2,0.8-4.5,1.2-6.9,1.2
	C619.8,347.5,618,347.4,616.3,347.1z"/>
<path class="st1" d="M638.1,317.5h16v6.7h-16V317.5z M641.3,313.5c0-2.6,0.6-4.6,1.8-5.9s3.1-2,5.6-2h5.4v7h-3.3
	c-0.5,0-1,0.2-1.3,0.6c-0.3,0.5-0.5,1.1-0.4,1.6v32.3h-7.9L641.3,313.5z"/>
<path class="st1" d="M663.5,346c-2-1-3.6-2.6-4.6-4.5c-1.1-2.2-1.7-4.7-1.6-7.2v-3.3c-0.1-2.6,0.5-5.2,1.5-7.5c1-2,2.5-3.7,4.5-4.7
	c2.2-1.1,4.6-1.7,7-1.6c2.4-0.1,4.7,0.6,6.7,1.9c1.9,1.4,3.4,3.4,4.2,5.6c1,2.9,1.5,5.9,1.4,8.9v1.9h-20.2v-5.3h13.1l-0.1-0.7
	c-0.1-1.5-0.7-2.9-1.6-4c-0.9-0.9-2.2-1.5-3.5-1.4c-1.6-0.1-3.2,0.5-4.4,1.7c-1.1,1.3-1.7,3-1.5,4.8v3.8c-0.1,1.7,0.5,3.4,1.7,4.7
	c1.3,1.2,3,1.8,4.8,1.7c1.1,0,2.1-0.2,3.1-0.5c1-0.4,2-0.9,2.8-1.6l5.1,4.5c-1.5,1.4-3.3,2.5-5.2,3.3c-1.8,0.8-3.8,1.2-5.8,1.2
	C668.3,347.6,665.7,347.1,663.5,346z"/>
<path class="st1" d="M689.4,317.5h8.4v29.6h-8.4V317.5z M704.7,324.9c-0.6-0.2-1.3-0.3-1.9-0.3c-1.4-0.1-2.7,0.5-3.7,1.5
	c-0.9,1.2-1.4,2.7-1.3,4.2l-0.6-7.7c0.7-1.6,1.8-3,3.2-4.1c1.2-1,2.7-1.5,4.3-1.5c1.1,0,2.3,0.2,3.3,0.6c1,0.4,1.9,1,2.6,1.7
	l-4.6,6.4C705.7,325.3,705.2,325.1,704.7,324.9z"/>
<path class="st1" d="M1071.1,371h7.8v41.7h-7.8V371z M1081.3,399.7c-1.3-0.9-2.3-2.2-2.8-3.8l0.4-6.8c0,0.9,0.1,1.7,0.5,2.5
	c0.3,0.7,0.8,1.2,1.5,1.6c0.7,0.4,1.6,0.6,2.4,0.5c1.3,0.1,2.6-0.5,3.4-1.5c0.9-1.2,1.3-2.6,1.2-4.1v-4.7c0.1-1.5-0.3-3-1.2-4.2
	c-0.8-1-2.1-1.6-3.4-1.5c-0.8,0-1.6,0.2-2.4,0.6c-0.7,0.4-1.2,0.9-1.5,1.6c-0.4,0.8-0.5,1.7-0.5,2.6l-0.6-6.6c0.7-1.6,1.8-3,3.2-4
	c1.2-0.9,2.8-1.4,4.3-1.4c3.9-0.2,7.5,2.2,8.8,5.9c0.8,2.2,1.2,4.6,1.2,7v4.7c0.1,2.4-0.3,4.7-1.2,6.9c-1.3,3.7-4.9,6.1-8.8,5.9
	C1084.2,401.1,1082.6,400.6,1081.3,399.7z"/>
<path class="st1" d="M1102.9,371h8.4v29.6h-8.4V371z M1118.1,378.4c-0.6-0.2-1.3-0.3-1.9-0.3c-1.4-0.1-2.7,0.5-3.7,1.5
	c-0.9,1.2-1.4,2.7-1.3,4.2l-0.6-7.7c0.7-1.6,1.8-3,3.2-4.1c1.2-1,2.7-1.5,4.3-1.5c1.1,0,2.3,0.2,3.4,0.6c1,0.4,1.9,1,2.6,1.7
	l-4.6,6.4C1119.1,378.8,1118.6,378.5,1118.1,378.4z"/>
<path class="st1" d="M1127.4,359.1h7.8v7.8h-7.8V359.1z M1127.4,371h7.8v29.6h-7.8V371z"/>
<path class="st1" d="M1159.3,371h7.8l-11.1,29.6h-5.5l-11.1-29.6h7.8l6.1,18.6L1159.3,371z"/>
<path class="st1" d="M1172.6,398.7c-1.6-1.5-2.4-3.8-2.4-6.9c0-2.9,0.9-5.1,2.6-6.6c1.8-1.5,4.4-2.2,7.9-2.2h7.4l0.4,6h-7.8
	c-0.9-0.1-1.9,0.2-2.7,0.7c-0.6,0.5-0.9,1.3-0.9,2.1c-0.1,0.9,0.4,1.7,1.1,2.2c1,0.5,2.2,0.8,3.4,0.7c1.6,0.1,3.2-0.2,4.7-0.7
	c0.9-0.3,1.5-1.2,1.5-2.2l0.6,4.3c-0.1,1.1-0.6,2-1.5,2.7c-0.9,0.8-2.1,1.4-3.2,1.7c-1.3,0.4-2.7,0.6-4.1,0.6
	C1176.5,401,1174.2,400.2,1172.6,398.7z M1188,381.8c0.1-1.2-0.4-2.4-1.4-3.2c-1.1-0.8-2.5-1.2-3.9-1.1c-1.1,0-2.2,0.2-3.3,0.5
	c-1,0.3-2,0.9-2.9,1.5l-4.8-4.8c1.3-1.4,2.9-2.5,4.7-3.2c2.1-0.8,4.2-1.2,6.4-1.1c2.3-0.1,4.5,0.4,6.6,1.3c1.7,0.8,3.2,2.1,4.2,3.8
	c1,1.8,1.5,3.9,1.4,6v19h-7.1V381.8z"/>
<path class="st1" d="M1208.1,399.4c-2-1-3.6-2.7-4.6-4.7c-1.1-2.3-1.6-4.9-1.6-7.4v-3.2c-0.1-2.5,0.5-5.1,1.6-7.3
	c1-2,2.6-3.6,4.6-4.6c2.2-1.1,4.7-1.7,7.2-1.6c1.5,0,3.1,0.2,4.6,0.6c1.4,0.3,2.7,0.9,3.9,1.6c1.1,0.7,2.1,1.5,2.8,2.6l-5.1,4.9
	c-0.7-0.7-1.6-1.2-2.5-1.5c-1-0.4-2-0.6-3-0.6c-1.7-0.1-3.3,0.5-4.6,1.6c-1.1,1.2-1.7,2.8-1.6,4.5v3.2c-0.1,1.7,0.5,3.3,1.6,4.6
	c1.3,1.1,2.9,1.7,4.6,1.6c1.1,0,2.1-0.2,3.1-0.6c0.9-0.4,1.8-1,2.5-1.7l5.1,5.2c-0.8,1-1.8,1.9-2.9,2.5c-1.2,0.7-2.5,1.3-3.8,1.6
	c-1.5,0.4-3,0.5-4.6,0.5C1212.8,401.1,1210.3,400.6,1208.1,399.4z"/>
<path class="st1" d="M1227.6,371h7.4l10,25.7l-4.9,6.3L1227.6,371z M1254.9,371l-13.2,36.5c-0.4,1.2-1,2.3-1.8,3.2
	c-0.7,0.8-1.7,1.4-2.7,1.7c-1.3,0.4-2.6,0.5-4,0.5h-1.7v-7.6h1.7c0.7,0,1.5-0.2,2.1-0.5c0.6-0.4,1.1-1.1,1.3-1.8l11-32L1254.9,371z"
	/>
<path class="st1" d="M185.1,761.7h8.4v29.6h-8.4V761.7z M200.3,769.1c-0.6-0.2-1.3-0.3-1.9-0.3c-1.4-0.1-2.7,0.5-3.7,1.5
	c-0.9,1.2-1.4,2.7-1.3,4.2l-0.6-7.7c0.7-1.6,1.8-3,3.2-4.1c1.2-1,2.7-1.5,4.3-1.5c1.1,0,2.3,0.2,3.4,0.6c1,0.4,1.9,1,2.6,1.7
	l-4.6,6.4C201.3,769.5,200.8,769.2,200.3,769.1z"/>
<path class="st1" d="M214.8,790.2c-2-1-3.6-2.6-4.6-4.5c-1.1-2.2-1.7-4.7-1.6-7.2v-3.3c-0.1-2.6,0.4-5.1,1.5-7.5
	c1-2,2.5-3.7,4.5-4.7c2.2-1.1,4.6-1.7,7.1-1.6c2.4-0.1,4.7,0.6,6.6,1.9c1.9,1.4,3.4,3.4,4.2,5.6c1,2.9,1.5,5.9,1.4,8.9v1.9h-20.3
	v-5.3h13.1l-0.1-0.7c-0.1-1.5-0.7-2.9-1.6-4c-0.9-0.9-2.2-1.4-3.5-1.3c-1.6-0.1-3.2,0.5-4.4,1.7c-1.1,1.3-1.7,3-1.5,4.8v3.8
	c-0.1,1.7,0.5,3.4,1.7,4.7c1.3,1.2,3,1.8,4.8,1.7c1.1,0,2.1-0.2,3.1-0.6c1-0.4,2-0.9,2.8-1.6l5.1,4.5c-1.5,1.4-3.3,2.5-5.2,3.3
	c-1.8,0.8-3.8,1.2-5.8,1.2C219.6,791.8,217.1,791.3,214.8,790.2z"/>
<path class="st1" d="M244.5,790.2c-1.6-1.1-2.7-2.6-3.4-4.4c-0.8-2.2-1.2-4.6-1.2-6.9v-4.7c-0.1-2.4,0.3-4.8,1.2-7
	c1.3-3.7,4.9-6.1,8.8-5.9c1.6,0,3.1,0.5,4.3,1.4c1.4,1,2.5,2.4,3.2,4l-0.6,6.6c0-0.9-0.1-1.8-0.5-2.6c-0.3-0.7-0.8-1.2-1.5-1.6
	c-0.7-0.4-1.6-0.6-2.4-0.5c-1.3-0.1-2.6,0.5-3.4,1.5c-0.9,1.2-1.3,2.7-1.2,4.2v4.7c-0.1,1.5,0.3,2.9,1.2,4.1c0.8,1,2.1,1.5,3.4,1.4
	c0.8,0,1.6-0.2,2.4-0.5c0.7-0.4,1.2-0.9,1.5-1.6c0.4-0.8,0.5-1.6,0.5-2.5l0.4,6.8c-0.5,1.5-1.5,2.8-2.8,3.8
	c-1.3,0.9-2.9,1.4-4.5,1.3C247.9,791.7,246.1,791.2,244.5,790.2z M244.9,802.1c-1.7-0.7-3.2-1.9-4.3-3.5l5.2-4.8
	c0.7,0.7,1.5,1.3,2.4,1.7c0.9,0.4,1.9,0.6,2.9,0.6c1.5,0.1,2.9-0.4,4-1.3c1.1-0.9,1.6-2.3,1.6-3.7v-29.3h7.9v28.7
	c0.1,2.4-0.5,4.8-1.5,7c-1,1.9-2.6,3.5-4.5,4.4c-2.3,1.1-4.7,1.6-7.2,1.5C249.1,803.4,246.9,802.9,244.9,802.1z"/>
<path class="st1" d="M271.8,749.8h7.8v7.8h-7.8L271.8,749.8z M271.8,761.7h7.8v29.6h-7.8L271.8,761.7z"/>
<path class="st1" d="M291.9,790.2c-1.9-1-3.4-2.5-4.4-4.4c-1.1-2.2-1.6-4.6-1.5-7V774c-0.1-2.4,0.4-4.7,1.5-6.9
	c1-1.9,2.5-3.4,4.4-4.4c4.4-2,9.4-2,13.8,0c1.9,1,3.4,2.5,4.4,4.4c1.1,2.1,1.6,4.5,1.5,6.9v4.9c0.1,2.4-0.4,4.8-1.5,6.9
	c-1,1.9-2.5,3.4-4.4,4.4C301.4,792.2,296.3,792.2,291.9,790.2L291.9,790.2z M302.5,782.8c0.9-1.1,1.4-2.5,1.3-3.9V774
	c0.1-1.4-0.4-2.8-1.3-3.8c-1-1-2.3-1.5-3.7-1.4c-1.4-0.1-2.7,0.4-3.6,1.4c-0.9,1.1-1.4,2.4-1.3,3.8v4.9c-0.1,1.4,0.4,2.8,1.3,3.9
	c1,1,2.3,1.5,3.6,1.4C300.2,784.3,301.5,783.8,302.5,782.8L302.5,782.8z"/>
<path class="st1" d="M318.7,761.7h7.9v29.6h-7.8L318.7,761.7z M335.9,773.4c0.1-1.2-0.4-2.5-1.2-3.4c-1-0.9-2.2-1.3-3.5-1.2
	c-1.2-0.1-2.5,0.4-3.4,1.2c-0.8,0.9-1.2,2.1-1.2,3.4l-0.6-6.6c0.7-1.6,1.8-3.1,3.2-4.2c1.4-1,3-1.5,4.7-1.4c2.8-0.2,5.5,1,7.2,3.2
	c1.7,2.1,2.6,5.1,2.6,8.9v18h-7.8L335.9,773.4z"/>
<path class="st1" d="M1191,504.7h7.8v41.5h-7.8V504.7z M1194.7,535.5l13.8-18.9h8.3l-21,27.5L1194.7,535.5z M1201.7,530.9l6.4-3.9
	l10.1,19.2h-9L1201.7,530.9z"/>
<path class="st1" d="M1221.5,504.7h7.8v7.8h-7.8V504.7z M1221.5,516.6h7.8v29.6h-7.8V516.6z"/>
<path class="st1" d="M1241.9,545c-2-1-3.6-2.7-4.6-4.7c-1.1-2.3-1.6-4.9-1.6-7.4v-3.2c-0.1-2.5,0.5-5.1,1.6-7.3c1-2,2.6-3.6,4.6-4.6
	c2.2-1.1,4.7-1.7,7.2-1.6c1.5,0,3.1,0.2,4.6,0.5c1.4,0.4,2.7,0.9,3.9,1.7c1.1,0.7,2.1,1.5,2.8,2.6l-5,4.9c-0.7-0.7-1.6-1.2-2.5-1.5
	c-1-0.4-2-0.6-3-0.6c-1.7-0.1-3.3,0.5-4.6,1.6c-1.1,1.2-1.7,2.8-1.6,4.5v3.2c-0.1,1.7,0.5,3.3,1.6,4.6c1.3,1.1,2.9,1.7,4.6,1.6
	c1.1,0,2.1-0.2,3.1-0.6c1-0.4,1.8-1,2.5-1.7l5,5.2c-0.8,1-1.8,1.9-2.9,2.5c-1.2,0.7-2.5,1.3-3.8,1.6c-1.5,0.4-3,0.6-4.6,0.5
	C1246.7,546.7,1244.2,546.2,1241.9,545z"/>
<path class="st1" d="M1265.7,504.7h7.8v41.5h-7.8V504.7z M1269.4,535.5l13.8-18.9h8.3l-21,27.5L1269.4,535.5z M1276.4,530.9l6.4-3.9
	l10.1,19.2h-9L1276.4,530.9z"/>
<path class="st1" d="M907.9,296.6h7.8v7.8h-7.8V296.6z M907.9,308.4h7.8V338h-7.8V308.4z"/>
<path class="st1" d="M923,308.4h7.8V338H923V308.4z M940.1,320.1c0.1-1.2-0.4-2.5-1.2-3.4c-1-0.9-2.2-1.3-3.5-1.2
	c-1.2-0.1-2.5,0.4-3.3,1.2c-0.8,0.9-1.3,2.2-1.2,3.4l-0.6-6.6c0.7-1.6,1.8-3.1,3.2-4.2c1.4-1,3-1.5,4.7-1.4c2.8-0.2,5.5,1,7.2,3.1
	c1.7,2.1,2.6,5.1,2.6,8.9v18h-7.8V320.1z"/>
<path class="st1" d="M971.6,308.4h7.8L968.3,338h-5.6l-11.1-29.6h7.8l6.1,18.6L971.6,308.4z"/>
<path class="st1" d="M983.6,296.6h7.8v7.8h-7.8V296.6z M983.6,308.4h7.8V338h-7.8V308.4z"/>
<path class="st1" d="M996.4,308.4h14.5v6.7h-14.5V308.4z M1001.2,336.2c-1.2-1.3-1.8-3.3-1.8-5.9v-30.5h7.8v28.6
	c0,0.6,0.1,1.2,0.4,1.7c0.3,0.4,0.8,0.6,1.3,0.6h1.9v7.5h-3.9C1004.3,338.2,1002.4,337.5,1001.2,336.2z"/>
<path class="st1" d="M1023.1,336.9c-2-1-3.6-2.6-4.6-4.5c-1.1-2.2-1.7-4.7-1.6-7.2v-3.3c-0.1-2.6,0.5-5.2,1.5-7.5
	c1-2,2.5-3.7,4.4-4.7c2.2-1.1,4.6-1.7,7.1-1.6c2.4-0.1,4.7,0.6,6.7,1.9c1.9,1.4,3.4,3.4,4.2,5.6c1,2.9,1.5,5.9,1.4,8.9v1.9h-20.3
	v-5.3h13.1l-0.1-0.7c-0.1-1.5-0.7-2.9-1.6-4c-0.9-0.9-2.2-1.5-3.5-1.4c-1.6-0.1-3.2,0.5-4.4,1.7c-1.1,1.3-1.7,3-1.5,4.8v3.8
	c-0.1,1.7,0.5,3.4,1.7,4.7c1.3,1.2,3,1.8,4.8,1.7c1.1,0,2.1-0.2,3.1-0.6c1-0.4,2-0.9,2.8-1.6l5.1,4.5c-1.5,1.4-3.3,2.5-5.2,3.3
	c-1.8,0.8-3.8,1.1-5.8,1.2C1027.9,338.5,1025.4,338,1023.1,336.9z"/>
<path class="st2" d="M1134,421.9v302.8c0,10.1-8.2,18.4-18.3,18.4c0,0,0,0,0,0H421.4c-10.1,0-18.4-8.2-18.4-18.3c0,0,0,0,0,0V421.9
	c0-10.1,8.2-18.3,18.4-18.3c0,0,0,0,0,0h694.3C1125.8,403.5,1134,411.7,1134,421.9z"/>
<path class="st1" d="M563.6,530.3c-1.6-0.9-2.9-2.2-3.7-3.9c-0.9-1.9-1.3-4-1.2-6.1v-19.4h4.3v19.6c-0.1,1.9,0.5,3.7,1.7,5.2
	c1.2,1.3,3,1.9,4.7,1.8c1.8,0.1,3.5-0.6,4.8-1.8c1.2-1.4,1.8-3.3,1.7-5.2v-19.6h4.3v19.4c0.1,2.1-0.4,4.2-1.3,6.1
	c-0.8,1.6-2.1,3-3.7,3.9C571.5,532.1,567.2,532.1,563.6,530.3z"/>
<path class="st1" d="M590.6,531.3c-1.1-0.2-2.2-0.6-3.2-1.1c-1-0.5-1.9-1.1-2.7-1.9l2.5-3.1c1.1,0.8,2.2,1.5,3.5,2
	c1.1,0.4,2.3,0.7,3.4,0.7c1.3,0.1,2.6-0.2,3.8-0.8c0.8-0.5,1.3-1.4,1.3-2.3c0-0.6-0.2-1.2-0.7-1.6c-0.5-0.4-1.1-0.6-1.7-0.7
	c-0.7-0.1-1.7-0.2-2.9-0.3h-0.4h-0.3h-0.3c-1.2-0.1-2.4-0.3-3.6-0.6c-1-0.3-1.8-0.9-2.4-1.7c-0.7-1-1.1-2.3-1-3.5
	c-0.1-1.3,0.3-2.7,0.9-3.8c0.7-1,1.6-1.8,2.8-2.3c1.5-0.6,3.1-0.8,4.7-0.8c1.1,0,2.2,0.1,3.2,0.3c1,0.2,2,0.5,2.9,0.9
	c0.9,0.4,1.9,1,2.7,1.6l-2.6,3.1c-1-0.7-2.1-1.2-3.2-1.6c-1-0.3-2-0.5-3.1-0.5c-1.1-0.1-2.3,0.2-3.3,0.7c-0.7,0.5-1.1,1.3-1.1,2.2
	c0,0.5,0.2,1,0.6,1.3c0.5,0.3,1,0.5,1.6,0.6c0.6,0.1,1.5,0.2,2.7,0.2c0.1,0,0.2,0,0.3,0h0.3h0.2c0,0,0.1,0,0.1,0
	c1.3,0.1,2.6,0.3,3.9,0.6c1.1,0.3,2,0.9,2.7,1.8c0.8,1.2,1.2,2.5,1.1,3.9c0.1,1.4-0.3,2.7-1,3.9c-0.7,1.1-1.8,1.9-3,2.3
	c-1.6,0.6-3.3,0.8-5.1,0.8C593,531.7,591.8,531.5,590.6,531.3z"/>
<path class="st1" d="M612.5,530.5c-1.4-0.7-2.5-1.9-3.2-3.3c-0.8-1.6-1.2-3.5-1.1-5.3v-2.4c-0.1-1.9,0.3-3.8,1.1-5.5
	c0.7-1.5,1.7-2.7,3.1-3.5c1.5-0.8,3.2-1.2,4.9-1.2c1.7,0,3.3,0.4,4.7,1.4c1.3,1,2.4,2.4,2.9,3.9c0.7,2,1.1,4.1,1,6.2v1.4h-14.6v-3.4
	h10.6c0-1.5-0.5-2.9-1.4-4.1c-0.8-1-1.9-1.5-3.2-1.5c-1.4-0.1-2.8,0.5-3.8,1.6c-1,1.3-1.4,2.9-1.3,4.5v2.8c-0.1,1.5,0.4,3,1.4,4.1
	c1.1,1,2.5,1.5,4,1.4c0.9,0,1.8-0.2,2.6-0.5c0.8-0.3,1.6-0.8,2.3-1.5l2.8,2.8c-1,1-2.3,1.8-3.6,2.4c-1.3,0.5-2.6,0.8-4,0.8
	C615.9,531.7,614.1,531.3,612.5,530.5z"/>
<path class="st1" d="M631.7,509.6h4.3v21.8h-4.3V509.6z M642.3,513.7c-0.6-0.2-1.3-0.4-2-0.3c-1.2-0.1-2.3,0.3-3.2,1.1
	c-0.8,0.8-1.2,2-1.1,3.1l-0.4-4.2c0.6-1.2,1.5-2.2,2.6-3c1-0.7,2.3-1.1,3.5-1.1c0.9,0,1.8,0.1,2.7,0.4c0.8,0.3,1.5,0.7,2.1,1.3
	l-2.8,3.8C643.3,514.3,642.8,513.9,642.3,513.7L642.3,513.7z"/>
<path class="st1" d="M666.4,530.2c-1.6-0.9-2.9-2.3-3.7-4c-0.9-1.9-1.4-3.9-1.3-6v-8.3c0-2.1,0.4-4.1,1.3-6c0.8-1.7,2.1-3.1,3.7-4
	c1.7-1,3.6-1.5,5.5-1.4c1.7,0,3.3,0.4,4.8,1.1c1.5,0.7,2.7,1.8,3.7,3.2c1,1.4,1.7,3,2,4.7H678c-0.3-0.9-0.7-1.8-1.3-2.5
	c-0.6-0.7-1.3-1.3-2.2-1.7c-1.9-0.9-4.1-0.8-5.9,0.3c-1,0.6-1.7,1.5-2.2,2.5c-0.5,1.2-0.8,2.5-0.8,3.8v8.3c0,1.3,0.2,2.6,0.8,3.8
	c0.5,1,1.2,1.9,2.2,2.5c1,0.6,2.1,0.9,3.3,0.9c0.9,0,1.8-0.2,2.6-0.6c0.8-0.4,1.6-1,2.2-1.7c0.6-0.8,1.1-1.7,1.3-2.6h4.4
	c-0.3,1.7-1,3.3-2,4.8c-1,1.3-2.2,2.4-3.7,3.2c-1.5,0.8-3.1,1.1-4.8,1.1C670,531.6,668.1,531.2,666.4,530.2z"/>
<path class="st1" d="M692.3,522.8c-0.1,1.3,0.3,2.5,1.2,3.5c0.9,0.9,2.1,1.3,3.3,1.2c1.2,0.1,2.4-0.3,3.2-1.1c0.8-0.8,1.2-2,1.2-3.2
	l0.3,4.5c-0.5,1.1-1.2,2-2.2,2.7c-1.1,0.8-2.4,1.1-3.7,1.1c-2.1,0.1-4.2-0.7-5.5-2.3c-1.4-1.9-2.1-4.2-2-6.5v-13.2h4.3L692.3,522.8z
	 M701.1,509.6h4.2v21.8h-4.2V509.6z"/>
<path class="st1" d="M715.9,531.3c-1.1-0.2-2.2-0.6-3.2-1.1c-1-0.5-1.9-1.1-2.7-1.9l2.5-3.1c1.1,0.8,2.2,1.5,3.5,2
	c1.1,0.4,2.3,0.7,3.4,0.7c1.3,0.1,2.6-0.2,3.8-0.8c0.8-0.5,1.3-1.4,1.3-2.3c0-0.6-0.2-1.2-0.7-1.6c-0.5-0.4-1.1-0.6-1.7-0.7
	c-0.7-0.1-1.6-0.2-2.9-0.3h-0.4h-0.4h-0.3c-1.2-0.1-2.4-0.3-3.6-0.6c-1-0.3-1.8-0.9-2.4-1.7c-0.7-1-1.1-2.3-1-3.5
	c0-1.3,0.3-2.7,0.9-3.8c0.7-1,1.7-1.8,2.8-2.3c1.5-0.6,3.1-0.8,4.7-0.8c1.1,0,2.2,0.1,3.2,0.3c1,0.2,2,0.5,2.9,0.9
	c1,0.4,1.9,0.9,2.7,1.6l-2.6,3.1c-1-0.7-2.1-1.2-3.2-1.6c-1-0.3-2-0.5-3.1-0.5c-1.1-0.1-2.3,0.2-3.3,0.7c-0.7,0.5-1.1,1.3-1.1,2.2
	c0,0.5,0.2,1,0.6,1.3c0.5,0.3,1,0.5,1.6,0.6c0.6,0.1,1.5,0.2,2.7,0.2c0.1,0,0.2,0,0.3,0h0.3h0.1c0,0,0.1,0,0.1,0
	c1.3,0.1,2.6,0.3,3.9,0.6c1.1,0.3,2,0.9,2.7,1.8c0.8,1.2,1.2,2.5,1.1,3.9c0.1,1.4-0.3,2.7-1,3.9c-0.7,1.1-1.8,1.9-3,2.3
	c-1.6,0.6-3.3,0.8-5.1,0.8C718.3,531.6,717.1,531.5,715.9,531.3z"/>
<path class="st1" d="M732.4,509.6h9.8v3.8h-9.8V509.6z M735.9,530c-0.9-1.2-1.3-2.8-1.2-4.3v-22.4h4.3v22.4c0,0.4,0.1,0.9,0.3,1.2
	c0.2,0.3,0.6,0.5,0.9,0.4h2v4.1h-2.5C738.3,531.6,736.9,531,735.9,530z"/>
<path class="st1" d="M751.6,530.5c-1.3-0.7-2.4-1.9-3.1-3.2c-0.7-1.6-1.1-3.3-1.1-5.1v-3.5c0-1.7,0.3-3.4,1.1-5
	c0.6-1.4,1.7-2.5,3.1-3.3c3.1-1.5,6.6-1.5,9.7,0c1.3,0.7,2.4,1.8,3.1,3.2c0.7,1.6,1.1,3.3,1.1,5v3.6c0.1,1.7-0.3,3.5-1.1,5.1
	c-0.7,1.4-1.7,2.5-3.1,3.2C758.2,531.9,754.6,531.9,751.6,530.5L751.6,530.5z M759.9,526.2c0.9-1.1,1.3-2.5,1.2-3.9v-3.6
	c0.1-1.4-0.3-2.8-1.2-3.9c-1.9-1.9-5-1.9-6.9,0c-0.9,1.1-1.3,2.5-1.2,3.9v3.6c-0.1,1.4,0.3,2.8,1.2,3.9
	C754.9,528,758,528,759.9,526.2z"/>
<path class="st1" d="M771.4,509.6h4.3v21.8h-4.3V509.6z M784.4,518.2c0.1-1.3-0.3-2.6-1.1-3.6c-0.8-0.9-2-1.3-3.2-1.2
	c-1.2-0.1-2.4,0.3-3.2,1.1c-0.8,0.8-1.2,2-1.1,3.1l-0.4-4.2c0.6-1.2,1.5-2.2,2.6-3c1.1-0.7,2.3-1.1,3.6-1.1c1.4-0.1,2.7,0.3,3.9,1
	c1.1,0.7,2,1.8,2.5,3c0.6,1.5,0.9,3.2,0.8,4.8v13.3h-4.3L784.4,518.2z M797.4,518.2c0.1-1.3-0.4-2.6-1.2-3.6
	c-0.9-0.9-2.1-1.3-3.3-1.2c-1.2-0.1-2.3,0.4-3.1,1.2c-0.8,1-1.2,2.2-1.1,3.4l-0.8-4.2c0.6-1.3,1.5-2.5,2.7-3.3
	c1.1-0.8,2.4-1.2,3.7-1.2c1.4-0.1,2.8,0.3,4,1c1.1,0.7,2,1.8,2.5,3c0.6,1.5,0.9,3.2,0.9,4.8v13.3h-4.3L797.4,518.2z"/>
<path class="st1" d="M808.1,500.9h4.3v4.3h-4.3V500.9z M808.1,509.6h4.3v21.8h-4.3V509.6z"/>
<path class="st1" d="M833.8,513.2l-10.4,14.2h11v4h-16.2v-3.7l10.7-14.1h-10.4v-4h15.3V513.2z"/>
<path class="st1" d="M843.8,530.5c-1.4-0.7-2.5-1.9-3.3-3.3c-0.8-1.7-1.2-3.5-1.1-5.3v-2.4c-0.1-1.9,0.3-3.8,1.1-5.5
	c0.7-1.5,1.8-2.7,3.1-3.5c1.5-0.8,3.2-1.2,4.9-1.2c1.7,0,3.3,0.4,4.6,1.4c1.3,1,2.4,2.4,2.9,3.9c0.7,2,1.1,4.1,1,6.2v1.4h-14.6v-3.4
	h10.6c0-1.5-0.5-2.9-1.4-4.1c-0.8-1-1.9-1.5-3.2-1.5c-1.4-0.1-2.8,0.5-3.8,1.6c-1,1.3-1.4,2.9-1.3,4.5v2.8c-0.1,1.5,0.4,3,1.4,4.1
	c1.1,1,2.5,1.5,4,1.4c0.9,0,1.8-0.2,2.6-0.5c0.8-0.3,1.6-0.8,2.3-1.5l2.8,2.8c-1,1-2.3,1.8-3.6,2.4c-1.3,0.6-2.6,0.8-4,0.8
	C847.2,531.7,845.4,531.3,843.8,530.5z"/>
<path class="st1" d="M865.8,530.7c-1.1-0.7-2-1.8-2.6-3c-0.6-1.5-0.9-3.1-0.9-4.8v-4.8c0-1.6,0.3-3.3,0.9-4.8c0.5-1.2,1.4-2.3,2.5-3
	c1.2-0.7,2.6-1.1,4-1c1.2,0,2.5,0.3,3.5,1c1.1,0.7,2,1.7,2.6,2.8l-0.4,4.4c0-0.8-0.1-1.6-0.5-2.4c-0.3-0.6-0.8-1.2-1.5-1.5
	c-0.7-0.4-1.5-0.5-2.3-0.5c-1.2-0.1-2.4,0.4-3.3,1.3c-0.8,1-1.2,2.4-1.2,3.7v4.7c-0.1,1.3,0.3,2.6,1.2,3.7c0.9,0.9,2.1,1.4,3.3,1.3
	c0.8,0,1.6-0.2,2.3-0.5c0.6-0.4,1.1-0.9,1.5-1.5c0.4-0.7,0.5-1.6,0.5-2.4l0.3,4.6c-0.4,1.1-1.2,2-2.1,2.7c-1.1,0.7-2.3,1.1-3.6,1.1
	C868.5,531.8,867.1,531.4,865.8,530.7z M875.3,500.9h4.2v30.5h-4.3L875.3,500.9z"/>
<path class="st3" d="M492.4,460.4c-1.1-0.6-2-1.6-2.6-2.7c-0.6-1.3-0.9-2.8-0.9-4.3v-13.6h3v13.7c-0.1,1.3,0.3,2.6,1.2,3.6
	c0.9,0.9,2.1,1.4,3.3,1.3c1.2,0.1,2.5-0.4,3.3-1.3c0.8-1,1.3-2.3,1.2-3.6v-13.7h3v13.6c0,1.5-0.3,2.9-0.9,4.3
	c-0.6,1.2-1.5,2.1-2.6,2.7c-1.3,0.6-2.7,1-4.1,0.9C495,461.4,493.6,461,492.4,460.4z"/>
<path class="st3" d="M511.4,461.1c-0.8-0.2-1.5-0.4-2.2-0.8c-0.7-0.4-1.3-0.8-1.9-1.3l1.8-2.2c0.7,0.6,1.6,1.1,2.5,1.4
	c0.8,0.3,1.6,0.5,2.4,0.5c0.9,0.1,1.8-0.1,2.7-0.5c0.6-0.3,0.9-1,0.9-1.7c0-0.4-0.2-0.8-0.5-1.1c-0.4-0.3-0.8-0.4-1.2-0.5
	c-0.5-0.1-1.2-0.2-2-0.2h-0.2h-0.2H513c-0.8-0.1-1.7-0.2-2.5-0.4c-0.7-0.2-1.3-0.6-1.7-1.2c-0.5-0.7-0.7-1.6-0.7-2.5
	c0-0.9,0.2-1.9,0.7-2.7c0.5-0.7,1.2-1.3,2-1.6c1-0.4,2.2-0.6,3.3-0.5c0.8,0,1.5,0.1,2.3,0.2c1.4,0.3,2.8,0.9,4,1.8l-1.8,2.2
	c-0.7-0.5-1.5-0.8-2.3-1.1c-0.7-0.2-1.4-0.4-2.2-0.4c-0.8-0.1-1.6,0.1-2.3,0.5c-0.5,0.4-0.8,0.9-0.8,1.6c0,0.4,0.1,0.7,0.4,0.9
	c0.3,0.2,0.7,0.4,1.1,0.4c0.6,0.1,1.3,0.1,1.9,0.2h0.2h0.3h0.1c0.9,0,1.8,0.2,2.7,0.4c0.7,0.2,1.4,0.7,1.9,1.3
	c0.6,0.8,0.8,1.8,0.8,2.8c0,1-0.2,1.9-0.7,2.7c-0.5,0.8-1.3,1.3-2.1,1.6c-1.1,0.4-2.4,0.6-3.6,0.5
	C513.1,461.3,512.2,461.2,511.4,461.1z"/>
<path class="st3" d="M526.7,460.5c-1-0.5-1.8-1.3-2.3-2.3c-0.6-1.2-0.8-2.4-0.8-3.7v-1.7c0-1.3,0.2-2.7,0.8-3.9
	c0.5-1,1.2-1.9,2.2-2.4c1.1-0.6,2.3-0.9,3.5-0.8c1.2,0,2.3,0.3,3.3,1c0.9,0.7,1.7,1.7,2.1,2.8c0.5,1.4,0.8,2.9,0.7,4.3v1h-10.3v-2.5
	h7.4c0-1-0.4-2.1-1-2.9c-0.5-0.7-1.4-1-2.2-1c-1-0.1-2,0.4-2.6,1.1c-0.7,0.9-1,2-0.9,3.2v1.9c-0.1,1.1,0.3,2.1,1,2.9
	c0.8,0.7,1.8,1.1,2.8,1c0.6,0,1.2-0.1,1.8-0.4c0.6-0.2,1.1-0.6,1.6-1l2,2c-0.7,0.7-1.6,1.3-2.5,1.7c-0.9,0.4-1.9,0.6-2.8,0.6
	C529.1,461.4,527.8,461.1,526.7,460.5z"/>
<path class="st3" d="M540.2,445.9h3v15.2h-3V445.9z M547.6,448.7c-0.4-0.2-0.9-0.3-1.4-0.2c-1.5-0.2-2.8,0.9-3,2.4
	c0,0.2,0,0.4,0,0.6l-0.3-2.9c0.4-0.9,1-1.6,1.8-2.1c0.7-0.5,1.6-0.8,2.5-0.8c0.6,0,1.3,0.1,1.9,0.3c0.5,0.2,1.1,0.5,1.5,0.9l-2,2.6
	C548.3,449.2,548,448.9,547.6,448.7L547.6,448.7z"/>
<path class="st3" d="M561.1,439.8h3v21.3h-3V439.8z M565.5,460.6c-0.7-0.5-1.3-1.1-1.6-1.9l0.2-3.2c0,0.6,0.1,1.2,0.3,1.7
	c0.2,0.4,0.6,0.8,1,1.1c0.5,0.3,1.1,0.4,1.6,0.4c0.9,0,1.7-0.3,2.3-0.9c0.6-0.7,0.9-1.6,0.8-2.5v-3.3c0.1-0.9-0.2-1.9-0.8-2.6
	c-0.6-0.6-1.4-1-2.3-0.9c-0.6,0-1.1,0.1-1.6,0.3c-0.4,0.2-0.8,0.6-1,1c-0.2,0.5-0.4,1.1-0.3,1.6l-0.3-2.9c0.4-0.8,1-1.5,1.8-2.1
	c0.7-0.5,1.6-0.7,2.5-0.7c1,0,1.9,0.2,2.8,0.7c0.8,0.5,1.4,1.2,1.8,2.1c0.4,1.1,0.6,2.2,0.6,3.4v3.3c0,1.1-0.2,2.3-0.6,3.3
	c-0.4,0.9-1,1.6-1.8,2.1c-0.9,0.5-1.9,0.7-2.8,0.7C567.1,461.3,566.2,461.1,565.5,460.6z"/>
<path class="st3" d="M578.2,460.2c-1-0.9-1.5-2.2-1.4-3.5c-0.1-1.3,0.4-2.5,1.3-3.4c1.1-0.8,2.5-1.2,3.9-1.1h4.3l0.2,2.4h-4.5
	c-0.6-0.1-1.3,0.1-1.8,0.5c-0.4,0.4-0.6,1-0.6,1.6c0,0.7,0.2,1.3,0.8,1.7c0.7,0.4,1.5,0.6,2.3,0.6c0.9,0,1.7-0.1,2.6-0.4
	c0.5-0.2,0.8-0.6,0.8-1.2l0.3,2.2c-0.3,0.4-0.6,0.7-1,1c-0.4,0.3-0.9,0.5-1.3,0.6c-0.6,0.1-1.1,0.2-1.7,0.2
	C580.9,461.4,579.4,461,578.2,460.2z M586.1,451.4c0.1-0.9-0.2-1.7-0.8-2.3c-0.6-0.6-1.4-0.9-2.3-0.8c-0.6,0-1.2,0.1-1.8,0.3
	c-0.6,0.2-1.1,0.4-1.5,0.8l-2.2-1.5c0.6-0.7,1.4-1.3,2.3-1.6c1-0.4,2.1-0.6,3.2-0.6c1.1,0,2.2,0.2,3.2,0.7c0.9,0.4,1.6,1.1,2.1,1.9
	c0.5,0.9,0.7,2,0.7,3.1v9.8h-2.8V451.4z"/>
<path class="st3" d="M596.4,461.1c-1.5-0.3-2.9-1.1-4.1-2.1l1.8-2.2c0.8,0.6,1.6,1.1,2.5,1.4c0.8,0.3,1.6,0.5,2.4,0.5
	c0.9,0.1,1.8-0.1,2.7-0.5c0.6-0.3,0.9-1,0.9-1.7c0-0.4-0.2-0.8-0.5-1.1c-0.4-0.3-0.8-0.4-1.2-0.5c-0.5-0.1-1.2-0.2-2-0.2h-0.2h-0.2
	H598c-0.8-0.1-1.7-0.2-2.5-0.4c-0.7-0.2-1.3-0.6-1.7-1.2c-0.5-0.7-0.7-1.6-0.7-2.5c0-0.9,0.2-1.9,0.7-2.7c0.5-0.7,1.2-1.3,2-1.6
	c1.1-0.4,2.2-0.6,3.3-0.5c0.8,0,1.5,0.1,2.3,0.2c0.7,0.1,1.4,0.4,2.1,0.7c0.7,0.3,1.3,0.7,1.9,1.1l-1.8,2.2
	c-0.7-0.5-1.5-0.8-2.2-1.1c-0.7-0.2-1.4-0.4-2.2-0.4c-0.8-0.1-1.6,0.1-2.3,0.5c-0.5,0.3-0.8,0.9-0.8,1.6c0,0.4,0.1,0.7,0.4,0.9
	c0.3,0.2,0.7,0.4,1.1,0.4c0.6,0.1,1.3,0.1,1.9,0.2h0.2h0.3h0.1c0.9,0,1.8,0.2,2.7,0.4c0.7,0.2,1.4,0.7,1.9,1.3
	c0.6,0.8,0.8,1.8,0.8,2.8c0,1-0.2,1.9-0.7,2.7c-0.5,0.8-1.3,1.3-2.1,1.6c-1.1,0.4-2.4,0.6-3.6,0.5
	C598.1,461.3,597.2,461.2,596.4,461.1z"/>
<path class="st3" d="M611.7,460.5c-1-0.5-1.8-1.3-2.3-2.3c-0.6-1.2-0.8-2.4-0.8-3.7v-1.7c0-1.3,0.2-2.7,0.8-3.9
	c0.5-1,1.2-1.9,2.2-2.4c1.1-0.6,2.3-0.9,3.5-0.8c1.2,0,2.3,0.3,3.3,1c0.9,0.7,1.7,1.7,2.1,2.8c0.5,1.4,0.7,2.9,0.7,4.3v1h-10.3v-2.5
	h7.4c0-1-0.4-2.1-1-2.9c-0.5-0.7-1.4-1-2.2-1c-1-0.1-2,0.4-2.6,1.1c-0.7,0.9-1,2-0.9,3.2v1.9c-0.1,1.1,0.3,2.1,1,2.9
	c0.8,0.7,1.8,1.1,2.8,1c0.6,0,1.2-0.1,1.8-0.4c0.6-0.2,1.1-0.6,1.6-1l2,2c-0.7,0.7-1.6,1.3-2.5,1.7c-0.9,0.4-1.9,0.6-2.8,0.6
	C614.1,461.4,612.9,461.1,611.7,460.5z"/>
<path class="st3" d="M627.2,460.6c-0.8-0.5-1.4-1.2-1.8-2.1c-0.4-1.1-0.6-2.2-0.6-3.3v-3.4c0-1.2,0.2-2.3,0.6-3.4
	c0.4-0.9,1-1.6,1.8-2.1c0.8-0.5,1.8-0.8,2.8-0.7c0.9,0,1.7,0.2,2.5,0.7c0.8,0.5,1.4,1.2,1.8,2l-0.3,3.1c0-0.6-0.1-1.1-0.4-1.7
	c-0.2-0.4-0.6-0.8-1-1c-0.5-0.3-1.1-0.4-1.6-0.4c-0.9-0.1-1.7,0.3-2.3,0.9c-0.6,0.7-0.9,1.7-0.8,2.6v3.3c-0.1,0.9,0.2,1.8,0.8,2.6
	c0.6,0.6,1.4,1,2.3,0.9c0.6,0,1.1-0.1,1.6-0.4c0.4-0.2,0.8-0.6,1-1.1c0.3-0.5,0.4-1.1,0.4-1.7l0.2,3.2c-0.3,0.8-0.8,1.4-1.5,1.9
	c-0.7,0.5-1.6,0.8-2.5,0.8C629.1,461.4,628.1,461.2,627.2,460.6z M633.9,439.8h3v21.3h-3V439.8z"/>
<path class="st3" d="M649.6,445.9h3v15.2h-3V445.9z M658.7,451.9c0.1-0.9-0.2-1.8-0.8-2.5c-0.6-0.6-1.4-0.9-2.2-0.9
	c-0.8-0.1-1.6,0.2-2.3,0.8c-0.6,0.6-0.8,1.4-0.8,2.2l-0.3-2.9c0.4-0.9,1.1-1.6,1.8-2.1c0.7-0.5,1.6-0.8,2.5-0.8c1,0,1.9,0.2,2.7,0.7
	c0.8,0.5,1.4,1.3,1.7,2.1c0.4,1.1,0.6,2.2,0.6,3.4v9.2h-3L658.7,451.9z M667.8,451.9c0.1-0.9-0.2-1.8-0.8-2.5
	c-0.6-0.6-1.5-0.9-2.3-0.9c-0.8,0-1.6,0.3-2.2,0.8c-0.5,0.7-0.8,1.5-0.8,2.4l-0.6-2.9c0.4-0.9,1.1-1.7,1.9-2.3
	c0.8-0.5,1.7-0.8,2.6-0.8c1,0,2,0.2,2.8,0.7c0.8,0.5,1.4,1.2,1.8,2.1c0.4,1.1,0.6,2.2,0.6,3.4v9.2h-3L667.8,451.9z"/>
<path class="st3" d="M677.8,460.6c-0.9-0.5-1.7-1.3-2.2-2.3c-0.5-1.1-0.8-2.4-0.7-3.6v-2.5c0-1.2,0.2-2.4,0.7-3.5
	c0.5-1,1.2-1.7,2.2-2.2c2.1-1,4.6-1,6.8,0c0.9,0.5,1.7,1.3,2.2,2.2c0.5,1.1,0.8,2.3,0.7,3.5v2.5c0,1.2-0.2,2.4-0.7,3.6
	c-0.5,1-1.2,1.7-2.2,2.3C682.4,461.6,679.9,461.6,677.8,460.6L677.8,460.6z M683.6,457.5c0.6-0.8,0.9-1.8,0.8-2.8v-2.5
	c0.1-1-0.2-2-0.8-2.7c-1.4-1.3-3.5-1.3-4.9,0c-0.6,0.8-0.9,1.8-0.9,2.7v2.5c-0.1,1,0.2,2,0.9,2.8
	C680.1,458.8,682.2,458.8,683.6,457.5z"/>
<path class="st3" d="M693.7,460.6c-0.8-0.5-1.4-1.2-1.8-2.1c-0.4-1.1-0.6-2.2-0.6-3.3v-3.4c0-1.2,0.2-2.3,0.6-3.4
	c0.4-0.9,1-1.6,1.8-2.1c0.8-0.5,1.8-0.8,2.8-0.7c0.9,0,1.7,0.2,2.5,0.7c0.8,0.5,1.4,1.2,1.8,2l-0.3,3.1c0-0.6-0.1-1.1-0.4-1.7
	c-0.2-0.4-0.6-0.8-1-1c-0.5-0.3-1.1-0.4-1.6-0.4c-0.9-0.1-1.7,0.3-2.3,0.9c-0.6,0.7-0.9,1.7-0.8,2.6v3.3c-0.1,0.9,0.2,1.8,0.8,2.6
	c0.6,0.6,1.4,1,2.3,0.9c0.6,0,1.1-0.1,1.6-0.4c0.4-0.2,0.8-0.6,1-1.1c0.3-0.5,0.4-1.1,0.4-1.7l0.2,3.2c-0.3,0.8-0.8,1.4-1.5,1.9
	c-0.7,0.5-1.6,0.8-2.5,0.8C695.5,461.4,694.5,461.2,693.7,460.6z M700.4,439.8h3v21.3h-3V439.8z"/>
<path class="st3" d="M710.6,460.5c-1-0.5-1.8-1.3-2.3-2.3c-0.6-1.2-0.8-2.4-0.8-3.7v-1.7c0-1.3,0.2-2.7,0.8-3.9
	c0.5-1,1.2-1.9,2.2-2.4c1.1-0.6,2.3-0.9,3.5-0.8c1.2,0,2.3,0.3,3.3,1c0.9,0.7,1.7,1.7,2.1,2.8c0.5,1.4,0.7,2.9,0.7,4.3v1h-10.3v-2.5
	h7.4c0-1-0.4-2.1-1-2.9c-0.5-0.7-1.4-1-2.2-1c-1-0.1-2,0.4-2.6,1.1c-0.7,0.9-1,2-0.9,3.2v1.9c-0.1,1.1,0.3,2.1,1,2.9
	c0.8,0.7,1.8,1.1,2.8,1c0.6,0,1.2-0.1,1.8-0.4c0.6-0.2,1.1-0.6,1.6-1l2,2c-0.7,0.7-1.6,1.3-2.5,1.7c-0.9,0.4-1.9,0.6-2.8,0.6
	C712.9,461.4,711.7,461.1,710.6,460.5z"/>
<path class="st3" d="M724,445.9h3v15.2h-3V445.9z M731.4,448.7c-0.4-0.2-0.9-0.3-1.4-0.2c-0.8-0.1-1.6,0.2-2.2,0.8
	c-0.5,0.6-0.8,1.4-0.8,2.2l-0.3-2.9c0.4-0.9,1.1-1.6,1.9-2.1c0.7-0.5,1.6-0.8,2.5-0.8c0.6,0,1.3,0.1,1.9,0.3c0.5,0.2,1,0.5,1.5,0.9
	l-2,2.6C732.2,449.1,731.8,448.9,731.4,448.7z"/>
<path class="st3" d="M737.6,460.2c-1-0.9-1.5-2.2-1.4-3.5c-0.1-1.3,0.4-2.5,1.3-3.4c1.1-0.8,2.5-1.2,3.9-1.1h4.2l0.2,2.4h-4.5
	c-0.6-0.1-1.3,0.1-1.8,0.5c-0.4,0.4-0.6,1-0.6,1.6c0,0.7,0.2,1.3,0.8,1.7c0.7,0.4,1.5,0.6,2.3,0.6c0.9,0,1.7-0.1,2.6-0.4
	c0.5-0.2,0.8-0.6,0.8-1.2l0.3,2.2c-0.3,0.4-0.6,0.7-1,1c-0.4,0.3-0.9,0.5-1.3,0.6c-0.6,0.1-1.1,0.2-1.7,0.2
	C740.2,461.4,738.8,461,737.6,460.2z M745.5,451.4c0-0.9-0.2-1.7-0.8-2.3c-0.6-0.6-1.4-0.9-2.3-0.8c-0.6,0-1.2,0.1-1.8,0.3
	c-0.6,0.2-1.1,0.4-1.5,0.8l-2.2-1.5c0.6-0.7,1.4-1.3,2.3-1.6c1-0.4,2.1-0.6,3.2-0.6c1.1,0,2.2,0.2,3.2,0.7c0.9,0.4,1.6,1.1,2,1.9
	c0.5,0.9,0.7,2,0.7,3.1v9.8h-2.9L745.5,451.4z"/>
<path class="st3" d="M751.7,445.9h6.9v2.7h-6.9V445.9z M754.1,460.2c-0.6-0.9-0.9-1.9-0.9-3v-15.8h3v15.8c0,0.3,0.1,0.6,0.2,0.9
	c0.2,0.2,0.4,0.3,0.7,0.3h1.4v2.8h-1.7C755.9,461.2,754.9,460.9,754.1,460.2L754.1,460.2z"/>
<path class="st3" d="M762.7,439.8h3v3h-3V439.8z M762.7,445.9h3v15.2h-3V445.9z"/>
<path class="st3" d="M772.7,460.6c-0.9-0.5-1.7-1.3-2.1-2.3c-0.5-1.1-0.8-2.4-0.7-3.6v-2.5c0-1.2,0.2-2.4,0.7-3.5
	c0.5-1,1.2-1.7,2.2-2.2c2.1-1,4.6-1,6.8,0c0.9,0.5,1.7,1.3,2.2,2.2c0.5,1.1,0.8,2.3,0.7,3.5v2.5c0,1.2-0.2,2.4-0.7,3.6
	c-0.5,1-1.2,1.7-2.2,2.3C777.4,461.6,774.9,461.6,772.7,460.6L772.7,460.6z M778.5,457.5c0.6-0.8,0.9-1.8,0.9-2.8v-2.5
	c0.1-1-0.2-2-0.9-2.7c-1.4-1.3-3.5-1.3-4.9,0c-0.6,0.8-0.9,1.8-0.9,2.7v2.5c-0.1,1,0.2,2,0.9,2.8C775,458.8,777.2,458.8,778.5,457.5
	z"/>
<path class="st3" d="M786.6,445.9h3v15.2h-3V445.9z M795.9,451.9c0.1-0.9-0.2-1.8-0.8-2.5c-0.6-0.6-1.5-0.9-2.3-0.9
	c-0.8-0.1-1.6,0.2-2.3,0.8c-0.6,0.6-0.8,1.4-0.8,2.2l-0.3-2.9c0.4-0.9,1.1-1.6,1.8-2.1c0.7-0.5,1.6-0.8,2.5-0.8
	c1.5-0.1,2.9,0.5,3.8,1.6c1,1.3,1.5,2.9,1.4,4.6v9.2h-3L795.9,451.9z"/>
<path class="st3" d="M468.7,443.7L468.7,443.7c0.8,0.8,0.8,2,0.1,2.8c0,0,0,0-0.1,0.1l-14,14c-0.8,0.8-2,0.8-2.8,0.1
	c0,0,0,0-0.1-0.1l0,0c-0.8-0.8-0.8-2-0.1-2.8c0,0,0,0,0.1-0.1l14-14C466.7,442.9,467.9,442.9,468.7,443.7
	C468.7,443.7,468.7,443.7,468.7,443.7z"/>
<path class="st3" d="M437.8,443.7L437.8,443.7c0.8-0.8,2-0.8,2.8-0.1c0,0,0,0,0.1,0.1l14,14c0.8,0.8,0.8,2,0.1,2.8c0,0,0,0-0.1,0.1
	l0,0c-0.8,0.8-2,0.8-2.8,0.1c0,0,0,0-0.1-0.1l-14-14C437,445.8,436.9,444.5,437.8,443.7C437.7,443.7,437.7,443.7,437.8,443.7z"/>
<circle class="st7" cx="584.4" cy="588.9" r="25.9"/>
<path class="st1" d="M628.6,598.4c-1-0.5-1.8-1.1-2.4-2l2.5-1.8c0.3,0.5,0.7,0.9,1.2,1.2c0.6,0.3,1.2,0.4,1.9,0.4
	c1.1,0.1,2.1-0.4,2.8-1.1c0.7-0.9,1.1-2,1-3.2v-15.2h3.1v15.2c0,1.4-0.2,2.7-0.8,4c-0.5,1.1-1.3,1.9-2.4,2.5
	c-1.2,0.6-2.5,0.9-3.8,0.8C630.8,599.1,629.7,598.8,628.6,598.4z"/>
<path class="st1" d="M646.6,598.2c-1-0.5-1.8-1.4-2.2-2.4c-0.5-1.2-0.8-2.5-0.8-3.7v-2.6c0-1.3,0.2-2.5,0.8-3.7
	c0.5-1,1.3-1.8,2.2-2.3c2.2-1.1,4.8-1.1,7.1,0c1,0.5,1.8,1.3,2.2,2.3c0.5,1.2,0.8,2.4,0.8,3.7v2.6c0,1.3-0.2,2.6-0.8,3.7
	c-0.5,1-1.3,1.8-2.2,2.3C651.4,599.3,648.8,599.3,646.6,598.2z M652.7,595.1c0.6-0.8,1-1.8,0.9-2.9v-2.6c0.1-1-0.2-2.1-0.9-2.9
	c-1.4-1.3-3.6-1.3-5.1,0c-0.6,0.8-1,1.8-0.9,2.9v2.6c-0.1,1,0.3,2.1,0.9,2.9C649,596.4,651.2,596.4,652.7,595.1z"/>
<path class="st1" d="M661.1,582.9h3.1v15.9h-3.1V582.9z M670.8,589.2c0.1-0.9-0.3-1.9-0.9-2.6c-0.6-0.6-1.5-1-2.4-0.9
	c-0.9-0.1-1.7,0.2-2.4,0.8c-0.6,0.6-0.9,1.4-0.8,2.3l-0.3-3.1c0.4-0.9,1.1-1.7,1.9-2.2c0.8-0.5,1.7-0.8,2.6-0.8c1.5-0.1,3,0.5,4,1.7
	c1,1.4,1.5,3.1,1.4,4.8v9.6h-3.1L670.8,589.2z"/>
<path class="st1" d="M679.3,597.8c-1-0.9-1.6-2.3-1.5-3.7c-0.1-1.3,0.4-2.6,1.3-3.5c1.1-0.9,2.6-1.3,4-1.2h4.5l0.2,2.5h-4.7
	c-0.7-0.1-1.3,0.1-1.8,0.5c-0.4,0.4-0.7,1-0.6,1.7c-0.1,0.7,0.3,1.4,0.8,1.8c0.7,0.4,1.6,0.6,2.4,0.6c0.9,0,1.8-0.1,2.7-0.4
	c0.5-0.2,0.9-0.6,0.9-1.2l0.3,2.2c-0.3,0.4-0.6,0.8-1,1.1c-0.4,0.3-0.9,0.5-1.4,0.6c-0.6,0.1-1.2,0.2-1.8,0.2
	C682.2,599.2,680.6,598.7,679.3,597.8z M687.6,588.8c0.1-0.9-0.2-1.8-0.8-2.4c-0.6-0.6-1.5-0.9-2.4-0.9c-0.6,0-1.3,0.1-1.9,0.3
	c-0.6,0.2-1.1,0.5-1.6,0.8l-2.3-1.6c0.6-0.8,1.5-1.3,2.4-1.7c1-0.4,2.2-0.6,3.3-0.6c1.2,0,2.3,0.2,3.4,0.7c0.9,0.4,1.7,1.1,2.1,2
	c0.5,1,0.8,2.1,0.7,3.2v10.2h-3L687.6,588.8z"/>
<path class="st1" d="M695.3,576.6h3.1v22.2h-3.1V576.6z M705,589.2c0.1-0.9-0.3-1.9-0.9-2.6c-0.6-0.6-1.5-1-2.5-0.9
	c-0.9-0.1-1.7,0.2-2.4,0.8c-0.6,0.6-0.9,1.4-0.8,2.2l-0.3-3.1c0.4-0.9,1.1-1.6,1.9-2.2c0.8-0.5,1.7-0.8,2.6-0.8c1.5-0.1,3,0.5,4,1.7
	c1,1.4,1.5,3.1,1.4,4.8v9.6H705L705,589.2z"/>
<circle class="st4" cx="584.4" cy="658.8" r="25.9"/>
<path class="st1" d="M625.5,646.5h15.7v3h-15.7V646.5z M631.7,648.3h3.1v20.4h-3.1V648.3z"/>
<path class="st1" d="M644.2,668.1c-1-0.5-1.8-1.4-2.2-2.4c-0.5-1.2-0.8-2.4-0.8-3.7v-2.6c0-1.3,0.2-2.5,0.8-3.7
	c0.5-1,1.3-1.8,2.2-2.3c2.2-1.1,4.8-1.1,7.1,0c1,0.5,1.8,1.3,2.2,2.3c0.5,1.2,0.8,2.4,0.8,3.7v2.6c0,1.3-0.2,2.6-0.8,3.7
	c-0.5,1-1.3,1.8-2.2,2.3C649,669.2,646.4,669.2,644.2,668.1z M650.2,664.9c0.6-0.8,1-1.8,0.9-2.9v-2.6c0.1-1-0.3-2-0.9-2.9
	c-1.4-1.3-3.6-1.3-5.1,0c-0.6,0.8-1,1.8-0.9,2.9v2.6c-0.1,1,0.3,2.1,0.9,2.9C646.6,666.3,648.8,666.3,650.2,664.9z"/>
<path class="st1" d="M658.7,646.5h3.1v22.2h-3.1V646.5z M663.2,668.2c-0.7-0.5-1.3-1.2-1.6-2l0.2-3.3c0,0.6,0.1,1.2,0.4,1.7
	c0.2,0.5,0.6,0.9,1.1,1.1c0.5,0.3,1.1,0.4,1.7,0.4c0.9,0,1.8-0.3,2.4-0.9c0.6-0.7,0.9-1.7,0.8-2.7v-3.5c0.1-1-0.2-1.9-0.8-2.7
	c-0.6-0.7-1.5-1-2.4-1c-0.6,0-1.2,0.1-1.7,0.4c-0.5,0.2-0.8,0.6-1.1,1.1c-0.3,0.5-0.4,1.1-0.4,1.7l-0.3-3.1c0.4-0.9,1.1-1.6,1.9-2.2
	c0.8-0.5,1.7-0.8,2.6-0.8c1,0,2,0.2,2.9,0.8c0.8,0.5,1.5,1.3,1.8,2.2c0.4,1.1,0.7,2.3,0.6,3.5v3.5c0,1.2-0.2,2.4-0.6,3.5
	c-0.4,0.9-1,1.7-1.9,2.2c-0.9,0.5-1.9,0.8-3,0.8C664.9,668.9,664,668.7,663.2,668.2z"/>
<path class="st1" d="M675.7,646.5h3.1v3.1h-3.1V646.5z M675.7,652.8h3.1v15.9h-3.1V652.8z"/>
<path class="st1" d="M684.3,667.7c-1-0.9-1.6-2.3-1.5-3.7c-0.1-1.3,0.4-2.6,1.3-3.5c1.1-0.9,2.6-1.3,4-1.2h4.5l0.2,2.5h-4.7
	c-0.7-0.1-1.3,0.1-1.8,0.5c-0.4,0.4-0.6,1-0.6,1.7c-0.1,0.7,0.2,1.4,0.8,1.8c0.7,0.4,1.6,0.6,2.4,0.6c0.9,0,1.8-0.1,2.7-0.4
	c0.5-0.2,0.9-0.6,0.9-1.2l0.3,2.2c-0.3,0.4-0.6,0.8-1,1.1c-0.4,0.3-0.9,0.5-1.4,0.6c-0.6,0.1-1.2,0.2-1.8,0.2
	C687.1,669,685.6,668.6,684.3,667.7z M692.6,658.6c0.1-0.9-0.2-1.8-0.8-2.4c-0.6-0.6-1.5-0.9-2.4-0.9c-0.6,0-1.3,0.1-1.9,0.3
	c-0.6,0.2-1.1,0.5-1.6,0.8l-2.3-1.6c0.6-0.7,1.5-1.3,2.4-1.7c1-0.4,2.2-0.6,3.3-0.6c1.2,0,2.3,0.2,3.4,0.7c0.9,0.4,1.7,1.1,2.2,2
	c0.5,1,0.8,2.1,0.7,3.2v10.2h-3L692.6,658.6z"/>
<path class="st1" d="M703.3,668.7c-0.8-0.2-1.6-0.5-2.3-0.8c-0.7-0.4-1.4-0.8-2-1.4l1.8-2.3c0.8,0.6,1.6,1.1,2.5,1.5
	c0.8,0.3,1.7,0.5,2.5,0.5c1,0.1,1.9-0.1,2.8-0.6c0.6-0.4,1-1,0.9-1.7c0-0.4-0.2-0.9-0.5-1.2c-0.4-0.3-0.8-0.4-1.2-0.5
	c-0.5-0.1-1.2-0.2-2.1-0.2h-0.3h-0.3h-0.2c-0.9-0.1-1.8-0.2-2.6-0.5c-0.7-0.2-1.3-0.6-1.8-1.2c-0.5-0.8-0.8-1.7-0.7-2.6
	c0-1,0.2-1.9,0.7-2.8c0.5-0.8,1.2-1.3,2-1.7c1.1-0.4,2.2-0.6,3.4-0.6c0.8,0,1.6,0.1,2.4,0.2c1.5,0.3,2.9,0.9,4.1,1.8l-1.8,2.2
	c-0.7-0.5-1.5-0.9-2.3-1.2c-0.7-0.2-1.5-0.4-2.3-0.4c-0.8-0.1-1.7,0.1-2.4,0.5c-0.5,0.4-0.8,1-0.8,1.6c0,0.4,0.1,0.8,0.5,1
	c0.3,0.2,0.7,0.4,1.1,0.4c0.5,0.1,1.1,0.1,2,0.2h0.2h0.2h0.2c1,0.1,1.9,0.2,2.8,0.5c0.8,0.2,1.5,0.7,2,1.3c0.6,0.8,0.9,1.9,0.8,2.9
	c0,1-0.2,2-0.7,2.8c-0.6,0.8-1.4,1.4-2.3,1.7c-1.2,0.4-2.4,0.6-3.7,0.6C705,668.9,704.1,668.8,703.3,668.7z"/>
<path class="st3" d="M514.4,509.3h-2v-3.9c0-5.4-4.4-9.8-9.8-9.8s-9.8,4.4-9.8,9.8v3.9h-2c-2.2,0-3.9,1.7-3.9,3.9v19.5
	c0,2.2,1.7,3.9,3.9,3.9h23.4c2.2,0,3.9-1.8,3.9-3.9v-19.6C518.2,511,516.5,509.3,514.4,509.3z M502.7,526.8c-2.2,0-3.9-1.8-3.9-3.9
	s1.8-3.9,3.9-3.9s3.9,1.8,3.9,3.9v0C506.6,525.1,504.8,526.8,502.7,526.8z M508.7,509.3h-12.1v-3.9c-0.1-3.3,2.5-6.2,5.8-6.3
	c3.3-0.1,6.2,2.5,6.3,5.8c0,0.2,0,0.3,0,0.5V509.3z"/>
<path class="st11" d="M1004.1,496.1h82.3c6,0,10.9,4.9,10.9,10.9v18.2c0,6-4.9,10.9-10.9,10.9h-82.3c-6,0-10.9-4.9-10.9-10.9V507
	C993.1,501,998,496.1,1004.1,496.1z"/>
</svg>
