<?xml version="1.0" encoding="utf-8"?>
<!-- Generator: Adobe Illustrator 25.0.0, SVG Export Plug-In . SVG Version: 6.00 Build 0)  -->
<svg version="1.1" id="Layer_1" xmlns="http://www.w3.org/2000/svg" xmlns:xlink="http://www.w3.org/1999/xlink" x="0px" y="0px"
	 viewBox="0 0 1615.65 1017.97" style="enable-background:new 0 0 1615.65 1017.97;" xml:space="preserve">
<style type="text/css">
	.st0{fill:#2F3136;}
	.st1{fill:#72767D;}
	.st2{fill:#4FDC7C;}
	.st3{fill:#5764F4;}
	.st4{fill:#202225;}
</style>
<path class="st0" d="M1104.21,622.44H511.44c-21.88,0-39.61-17.74-39.61-39.61V435.14c0-21.88,17.74-39.61,39.61-39.61h592.77
	c21.88,0,39.61,17.74,39.61,39.61v147.68C1143.82,604.7,1126.09,622.44,1104.21,622.44z"/>
<path class="st1" d="M534.6,441.22c1.93,1.96,4.36,3.44,7.09,4.23c0.09,0.62,0.13,1.24,0.13,1.88c0,4.01-1.72,7.61-4.45,10.1
	c-1.22,1.12-3.19,0.26-3.19-1.39v-15.26C534.32,440.93,534.45,441.07,534.6,441.22z"/>
<path class="st1" d="M536.61,434.02l-4.71-4.7h3.63c0-0.67,0.06-1.33,0.18-1.97c0.38-2.09,1.36-3.97,2.76-5.46
	c2.1-2.24,5.12-3.59,8.46-3.44c5.58,0.26,10.1,4.78,10.36,10.36c0.16,3.41-1.25,6.49-3.57,8.59c-1.52,1.37-3.42,2.32-5.53,2.67
	c-0.58,0.09-1.17,0.14-1.77,0.14c-3.01,0-5.72-1.22-7.69-3.19l1.72-1.72c1.52,1.53,3.64,2.49,5.97,2.49c0.26,0,0.52-0.01,0.78-0.04
	c2.16-0.2,4.09-1.21,5.47-2.72c1.44-1.58,2.29-3.71,2.21-6.04c-0.16-4.39-3.74-7.97-8.13-8.13c-2.28-0.09-4.36,0.73-5.93,2.11
	c-1.53,1.36-2.57,3.26-2.81,5.41c-0.04,0.31-0.05,0.62-0.05,0.94h3.63l-0.81,0.8l-4.08,4.07L536.61,434.02z"/>
<polygon class="st1" points="547.02,429.48 550.66,431.64 551.28,432.01 551.11,432.3 550.35,433.57 545.21,430.52 545.21,424.47 
	547.02,424.47 "/>
<path class="st1" d="M555.3,443.43c0.18,1.27,0.27,2.58,0.27,3.9c0,12.18-7.92,22.5-18.9,26.11c-1.23,0.41-2.5-0.51-2.5-1.8v-2.43
	c0-0.79,0.49-1.5,1.23-1.77c8.19-3,14.05-10.87,14.05-20.1c0-0.51-0.02-1.02-0.06-1.53C551.55,445.4,553.55,444.58,555.3,443.43z"/>
<path class="st1" d="M555.3,443.43c-1.76,1.15-3.75,1.97-5.9,2.37c0.04,0.5,0.06,1.01,0.06,1.53c0,9.23-5.85,17.1-14.05,20.1
	c-0.74,0.27-1.23,0.98-1.23,1.77v2.43c0,1.3,1.27,2.21,2.5,1.8c10.98-3.61,18.9-13.94,18.9-26.11
	C555.58,446.01,555.48,444.7,555.3,443.43z M548.19,440.05c2.11-0.35,4.01-1.3,5.53-2.67c-0.31-0.81-0.66-1.59-1.05-2.36
	c-1.38,1.51-3.31,2.52-5.47,2.72C547.57,438.49,547.91,439.26,548.19,440.05z M551.11,432.3c-0.14-0.22-0.29-0.44-0.45-0.66
	l-3.64-2.16v-2.07c-0.58-0.55-1.18-1.08-1.81-1.58v4.69l5.14,3.05L551.11,432.3z M540.78,430.12l0.81-0.8h-1.97
	C540.01,429.57,540.4,429.83,540.78,430.12z M540.81,422.97c-0.76-0.4-1.54-0.76-2.34-1.09c-1.39,1.49-2.37,3.37-2.76,5.46
	c0.79,0.3,1.55,0.65,2.29,1.03C538.24,426.22,539.28,424.32,540.81,422.97z M541.69,445.44c-2.73-0.79-5.17-2.27-7.09-4.23
	c-0.14-0.14-0.28-0.29-0.42-0.44v15.26c0,1.66,1.97,2.51,3.19,1.39c2.73-2.5,4.45-6.09,4.45-10.1
	C541.82,446.69,541.78,446.06,541.69,445.44z M524.82,426.12l-11.48,11.48c-0.36,0.36-0.84,0.56-1.34,0.56h-9.54
	c-1.05,0-1.9,0.85-1.9,1.9v14.54c0,1.05,0.85,1.9,1.9,1.9H512c0.5,0,0.99,0.2,1.34,0.56l11.48,11.48c1.2,1.2,3.24,0.35,3.24-1.35
	v-39.73C528.07,425.77,526.02,424.92,524.82,426.12z"/>
<polygon class="st1" points="547.02,429.48 550.66,431.64 551.28,432.01 551.11,432.3 550.35,433.57 545.21,430.52 545.21,424.47 
	547.02,424.47 "/>
<path class="st1" d="M553.72,437.38c-1.52,1.37-3.42,2.32-5.53,2.67c-0.58,0.09-1.17,0.14-1.77,0.14c-3.01,0-5.72-1.22-7.69-3.19
	l1.72-1.72c1.52,1.53,3.64,2.49,5.97,2.49c0.26,0,0.52-0.01,0.78-0.04c2.16-0.2,4.09-1.21,5.47-2.72c1.44-1.58,2.29-3.71,2.21-6.04
	c-0.16-4.39-3.74-7.97-8.13-8.13c-2.28-0.09-4.36,0.73-5.93,2.11c-1.53,1.36-2.57,3.26-2.81,5.41c-0.04,0.31-0.05,0.62-0.05,0.94
	h3.63l-0.81,0.8l-4.08,4.07l-0.08-0.17l-4.71-4.7h3.63c0-0.67,0.06-1.33,0.18-1.97c0.38-2.09,1.36-3.97,2.76-5.46
	c2.1-2.24,5.12-3.59,8.46-3.44c5.58,0.26,10.1,4.78,10.36,10.36C557.45,432.2,556.04,435.28,553.72,437.38z"/>
<path class="st1" d="M534.18,440.78c0.14,0.15,0.27,0.29,0.42,0.44h-0.42V440.78z"/>
<polygon class="st1" points="547.02,429.48 550.66,431.64 551.28,432.01 551.11,432.3 550.35,433.57 545.21,430.52 545.21,424.47 
	547.02,424.47 "/>
<path class="st1" d="M553.72,437.38c-1.52,1.37-3.42,2.32-5.53,2.67c-0.58,0.09-1.17,0.14-1.77,0.14c-3.01,0-5.72-1.22-7.69-3.19
	l1.72-1.72c1.52,1.53,3.64,2.49,5.97,2.49c0.26,0,0.52-0.01,0.78-0.04c2.16-0.2,4.09-1.21,5.47-2.72c1.44-1.58,2.29-3.71,2.21-6.04
	c-0.16-4.39-3.74-7.97-8.13-8.13c-2.28-0.09-4.36,0.73-5.93,2.11c-1.53,1.36-2.57,3.26-2.81,5.41c-0.04,0.31-0.05,0.62-0.05,0.94
	h3.63l-0.81,0.8l-4.08,4.07l-0.08-0.17l-4.71-4.7h3.63c0-0.67,0.06-1.33,0.18-1.97c0.38-2.09,1.36-3.97,2.76-5.46
	c2.1-2.24,5.12-3.59,8.46-3.44c5.58,0.26,10.1,4.78,10.36,10.36C557.45,432.2,556.04,435.28,553.72,437.38z"/>
<path class="st1" d="M550.66,431.64l-3.64-2.16v-5.01h-1.81v6.05l5.14,3.05l0.76-1.27l0.18-0.29L550.66,431.64z M557.29,428.8
	c-0.26-5.58-4.78-10.1-10.36-10.36c-3.34-0.15-6.37,1.2-8.46,3.44c-1.39,1.49-2.37,3.37-2.76,5.46c-0.12,0.64-0.18,1.3-0.18,1.97
	h-3.63l4.71,4.7l0.08,0.17l4.08-4.07l0.81-0.8h-3.63c0-0.32,0.02-0.63,0.05-0.94c0.24-2.15,1.28-4.05,2.81-5.41
	c1.57-1.39,3.65-2.2,5.93-2.11c4.39,0.16,7.97,3.74,8.13,8.13c0.09,2.33-0.76,4.46-2.21,6.04c-1.38,1.51-3.31,2.52-5.47,2.72
	c-0.26,0.02-0.52,0.04-0.78,0.04c-2.33,0-4.45-0.96-5.97-2.49l-1.72,1.72c1.97,1.97,4.68,3.19,7.69,3.19c0.6,0,1.2-0.05,1.77-0.14
	c2.11-0.35,4.01-1.3,5.53-2.67C556.04,435.28,557.45,432.2,557.29,428.8z M550.66,431.64c0.15,0.22,0.3,0.44,0.45,0.66l0.18-0.29
	L550.66,431.64z M547.02,424.47h-1.81v1.36c0.63,0.5,1.23,1.03,1.81,1.58V424.47z"/>
<g>
	<g>
		<g>
			<path class="st1" d="M590.54,460.55c-1.55-0.91-2.75-2.19-3.6-3.86c-0.85-1.66-1.28-3.59-1.28-5.78v-8.1
				c0-2.19,0.43-4.12,1.28-5.78s2.05-2.95,3.6-3.87c1.55-0.91,3.35-1.37,5.39-1.37c1.69,0,3.25,0.36,4.67,1.09s2.61,1.75,3.56,3.07
				c0.95,1.33,1.6,2.86,1.94,4.61h-4.24c-0.26-0.92-0.69-1.74-1.29-2.47s-1.31-1.28-2.12-1.67c-0.81-0.39-1.65-0.59-2.52-0.59
				c-1.2,0-2.26,0.29-3.17,0.87c-0.91,0.58-1.61,1.4-2.11,2.45c-0.5,1.05-0.75,2.27-0.75,3.66v8.1c0,1.38,0.25,2.6,0.75,3.65
				c0.5,1.06,1.2,1.87,2.11,2.45c0.91,0.58,1.96,0.86,3.17,0.86c0.88,0,1.72-0.18,2.53-0.55c0.8-0.37,1.51-0.91,2.11-1.62
				c0.6-0.72,1.03-1.57,1.29-2.56h4.24c-0.34,1.75-0.99,3.28-1.95,4.61c-0.96,1.33-2.15,2.35-3.57,3.08
				c-1.42,0.72-2.97,1.09-4.65,1.09C593.88,461.91,592.08,461.46,590.54,460.55z"/>
			<path class="st1" d="M616.3,460.56c-1.57-0.9-2.78-2.17-3.64-3.82c-0.86-1.64-1.29-3.55-1.29-5.71v-8.36
				c0-2.17,0.43-4.07,1.29-5.71c0.86-1.64,2.07-2.92,3.64-3.82c1.57-0.9,3.38-1.35,5.44-1.35s3.87,0.45,5.44,1.35
				c1.57,0.9,2.78,2.17,3.64,3.82c0.86,1.64,1.29,3.55,1.29,5.71v8.36c0,2.17-0.43,4.07-1.29,5.71c-0.86,1.64-2.07,2.92-3.64,3.82
				c-1.57,0.9-3.38,1.35-5.44,1.35S617.87,461.46,616.3,460.56z M624.96,457.01c0.93-0.55,1.64-1.33,2.15-2.33
				c0.51-1.01,0.76-2.17,0.76-3.5v-8.65c0-1.33-0.25-2.49-0.76-3.5c-0.51-1.01-1.22-1.79-2.15-2.33s-2-0.82-3.22-0.82
				s-2.29,0.27-3.22,0.82s-1.64,1.33-2.15,2.33c-0.51,1.01-0.76,2.18-0.76,3.5v8.65c0,1.33,0.25,2.49,0.76,3.5
				c0.51,1.01,1.22,1.79,2.15,2.33c0.93,0.55,2,0.82,3.22,0.82S624.03,457.55,624.96,457.01z"/>
			<path class="st1" d="M643.13,460.56c-1.57-0.9-2.78-2.17-3.64-3.82c-0.86-1.64-1.29-3.55-1.29-5.71v-8.36
				c0-2.17,0.43-4.07,1.29-5.71c0.86-1.64,2.07-2.92,3.64-3.82c1.57-0.9,3.38-1.35,5.44-1.35s3.87,0.45,5.44,1.35
				c1.57,0.9,2.78,2.17,3.64,3.82c0.86,1.64,1.29,3.55,1.29,5.71v8.36c0,2.17-0.43,4.07-1.29,5.71c-0.86,1.64-2.07,2.92-3.64,3.82
				c-1.57,0.9-3.38,1.35-5.44,1.35S644.7,461.46,643.13,460.56z M651.79,457.01c0.93-0.55,1.64-1.33,2.15-2.33
				c0.51-1.01,0.76-2.17,0.76-3.5v-8.65c0-1.33-0.25-2.49-0.76-3.5c-0.51-1.01-1.22-1.79-2.15-2.33s-2-0.82-3.22-0.82
				s-2.29,0.27-3.22,0.82s-1.64,1.33-2.15,2.33c-0.51,1.01-0.76,2.18-0.76,3.5v8.65c0,1.33,0.25,2.49,0.76,3.5
				c0.51,1.01,1.22,1.79,2.15,2.33c0.93,0.55,2,0.82,3.22,0.82S650.86,457.55,651.79,457.01z"/>
			<path class="st1" d="M665.64,432.09h4.14v29.51h-4.14V432.09z M667.71,457.67h16.89v3.94h-16.89V457.67z"/>
			<path class="st1" d="M700.63,432.09h3.75l14.43,22.81l-0.49,0.53v-23.34h4.1v29.49h-3.8l-14.39-22.47l0.49-0.53v23h-4.1V432.09z"
				/>
			<path class="st1" d="M737.78,432.09h3.53l10.88,29.51h-4.47l-8.18-23.81l-8.18,23.81h-4.47L737.78,432.09z M731.91,451.19h15.53
				v3.94h-15.53V451.19z"/>
			<path class="st1" d="M777.86,432.09h3.88v29.51h-4.04v-22.1l0.2,1.3l-7.27,16.7h-2.88l-7.27-16.3l0.2-1.7v22.1h-4.04v-29.51h3.88
				l8.67,19.48L777.86,432.09z"/>
			<path class="st1" d="M789.05,432.09h4.14v29.51h-4.14V432.09z M791.06,432.09H808v3.94h-16.95V432.09z M791.06,444.98h14.71v3.94
				h-14.71V444.98z M791.06,457.67H808v3.94h-16.95V457.67z"/>
		</g>
	</g>
</g>
<g>
	<g>
		<g>
			<path class="st1" d="M686.37,558.95c-1.31-0.64-2.38-1.53-3.21-2.68l3.39-2.44c0.38,0.66,0.93,1.18,1.64,1.54
				c0.72,0.37,1.55,0.55,2.5,0.55c1.61,0,2.86-0.5,3.75-1.5c0.89-1,1.33-2.41,1.33-4.22v-20.11h4.14v20.13
				c0,2.04-0.36,3.79-1.08,5.24c-0.72,1.45-1.77,2.55-3.15,3.31s-3.04,1.14-4.99,1.14C689.13,559.9,687.69,559.58,686.37,558.95z"/>
			<path class="st1" d="M711.54,558.55c-1.57-0.9-2.78-2.17-3.64-3.82c-0.86-1.64-1.29-3.55-1.29-5.71v-8.36
				c0-2.17,0.43-4.07,1.29-5.71c0.86-1.64,2.07-2.92,3.64-3.82c1.57-0.9,3.38-1.35,5.44-1.35s3.87,0.45,5.44,1.35
				c1.57,0.9,2.78,2.17,3.64,3.82c0.86,1.64,1.29,3.55,1.29,5.71v8.36c0,2.17-0.43,4.07-1.29,5.71c-0.86,1.64-2.07,2.92-3.64,3.82
				c-1.57,0.9-3.38,1.35-5.44,1.35S713.11,559.45,711.54,558.55z M720.2,555c0.93-0.55,1.64-1.33,2.15-2.33
				c0.51-1.01,0.76-2.17,0.76-3.5v-8.65c0-1.33-0.25-2.49-0.76-3.5c-0.51-1.01-1.22-1.79-2.15-2.33s-2-0.82-3.22-0.82
				s-2.29,0.27-3.22,0.82s-1.64,1.33-2.15,2.33c-0.51,1.01-0.76,2.18-0.76,3.5v8.65c0,1.33,0.25,2.49,0.76,3.5
				c0.51,1.01,1.22,1.79,2.15,2.33c0.93,0.55,2,0.82,3.22,0.82S719.27,555.55,720.2,555z"/>
			<path class="st1" d="M734.05,530.08h3.75l14.43,22.81l-0.49,0.53v-23.34h4.1v29.49h-3.8l-14.39-22.47l0.49-0.53v23h-4.1V530.08z"
				/>
			<path class="st1" d="M771.19,530.08h3.53l10.88,29.51h-4.47l-8.18-23.81l-8.18,23.81h-4.47L771.19,530.08z M765.33,549.18h15.53
				v3.94h-15.53V549.18z"/>
			<path class="st1" d="M790.07,530.08h4.14v29.51h-4.14V530.08z M792.65,543.09h16.38v3.94h-16.38V543.09z M806.83,530.08h4.14
				v29.51h-4.14V530.08z"/>
		</g>
	</g>
</g>
<circle class="st2" cx="623.38" cy="546.85" r="37.73"/>
<circle class="st3" cx="623.38" cy="546.85" r="32.65"/>
<g>
	<g>
		<g>
			<path class="st1" d="M88.59,784.16c-2.65-1.55-4.71-3.75-6.17-6.6c-1.46-2.85-2.19-6.15-2.19-9.9v-13.87
				c0-3.75,0.73-7.05,2.19-9.9c1.46-2.85,3.51-5.06,6.17-6.62c2.65-1.56,5.73-2.35,9.23-2.35c2.9,0,5.56,0.62,7.99,1.86
				c2.43,1.24,4.47,3,6.1,5.26c1.63,2.27,2.74,4.9,3.32,7.89h-7.26c-0.44-1.58-1.18-2.98-2.21-4.22c-1.03-1.24-2.24-2.2-3.63-2.87
				c-1.39-0.67-2.83-1.01-4.31-1.01c-2.06,0-3.87,0.5-5.42,1.49c-1.55,1-2.76,2.39-3.61,4.19c-0.86,1.8-1.29,3.89-1.29,6.27v13.87
				c0,2.36,0.43,4.45,1.29,6.25c0.86,1.81,2.06,3.2,3.61,4.19c1.55,0.99,3.36,1.48,5.42,1.48c1.51,0,2.95-0.31,4.33-0.94
				c1.38-0.63,2.58-1.55,3.61-2.78c1.03-1.23,1.77-2.69,2.21-4.38h7.26c-0.58,2.99-1.69,5.62-3.34,7.89
				c-1.65,2.27-3.68,4.03-6.12,5.26s-5.09,1.86-7.96,1.86C94.32,786.48,91.24,785.71,88.59,784.16z"/>
			<path class="st1" d="M125.31,735.43h7.09v50.53h-7.09V735.43z M129.72,757.71h28.04v6.74h-28.04V757.71z M154.01,735.43h7.09
				v50.53h-7.09V735.43z"/>
			<path class="st1" d="M187.37,735.43h6.05l18.63,50.53h-7.64l-14-40.76l-14,40.76h-7.65L187.37,735.43z M177.33,768.14h26.58v6.74
				h-26.58V768.14z"/>
			<path class="st1" d="M219.69,735.43h6.43l24.71,39.06l-0.83,0.9v-39.96h7.02v50.49h-6.5l-24.64-38.47l0.83-0.9v39.37h-7.02
				V735.43z"/>
			<path class="st1" d="M269.52,735.43h6.43l24.71,39.06l-0.83,0.9v-39.96h7.02v50.49h-6.5l-24.64-38.47l0.83-0.9v39.37h-7.02
				V735.43z"/>
			<path class="st1" d="M319.36,735.43h7.09v50.53h-7.09V735.43z M322.8,735.43h29.02v6.74H322.8V735.43z M322.8,757.5h25.19v6.74
				H322.8V757.5z M322.8,779.22h29.02v6.74H322.8V779.22z"/>
			<path class="st1" d="M361.89,735.43h7.09v50.53h-7.09V735.43z M365.44,779.22h28.91v6.74h-28.91V779.22z"/>
			<path class="st1" d="M421.11,735.4h9.52v50.56h-9.52V735.4z M424.9,756.46h17.58c0.97,0,1.83-0.24,2.57-0.73
				c0.74-0.49,1.31-1.18,1.72-2.08s0.62-1.95,0.64-3.13c0-1.18-0.2-2.22-0.61-3.13c-0.41-0.9-0.98-1.6-1.72-2.09
				c-0.74-0.49-1.61-0.73-2.61-0.73H424.9v-9.17h18.35c2.78,0,5.22,0.62,7.33,1.88c2.11,1.25,3.74,3.02,4.9,5.3
				c1.16,2.28,1.74,4.93,1.74,7.94c0,3.01-0.58,5.66-1.74,7.94c-1.16,2.28-2.8,4.05-4.92,5.3s-4.56,1.88-7.32,1.88H424.9V756.46z
				 M435.53,764.07l10.18-1.6l13.62,23.49H447.8L435.53,764.07z"/>
			<path class="st1" d="M467.5,735.43h9.52v50.53h-9.52V735.43z M470.94,735.43h30.41v9.17h-30.41V735.43z M470.94,756.29h26.58
				v9.17h-26.58V756.29z M470.94,776.79h30.41v9.17h-30.41V776.79z"/>
			<path class="st1" d="M545.97,757.71v9.87c0,3.75-0.76,7.06-2.28,9.92c-1.52,2.86-3.67,5.07-6.45,6.64
				c-2.78,1.56-6,2.35-9.66,2.35c-3.68,0-6.93-0.74-9.75-2.21c-2.81-1.47-4.99-3.55-6.53-6.24s-2.31-5.8-2.31-9.35v-14.91
				c0-3.75,0.76-7.05,2.28-9.9c1.52-2.85,3.67-5.06,6.45-6.62c2.78-1.56,6-2.35,9.66-2.35c3.01,0,5.79,0.62,8.34,1.86
				c2.55,1.24,4.67,3,6.38,5.26c1.7,2.27,2.85,4.9,3.46,7.89h-10.29c-0.35-1.07-0.92-1.99-1.72-2.76c-0.8-0.78-1.74-1.37-2.81-1.77
				c-1.08-0.4-2.2-0.61-3.35-0.61c-1.69,0-3.18,0.37-4.47,1.11c-1.29,0.74-2.28,1.8-2.99,3.16c-0.71,1.37-1.06,2.94-1.06,4.73v14.91
				c0,1.58,0.36,2.97,1.08,4.17c0.72,1.21,1.74,2.13,3.06,2.78c1.32,0.65,2.85,0.97,4.59,0.97c1.71,0,3.21-0.35,4.5-1.06
				c1.29-0.71,2.28-1.73,2.97-3.08s1.04-2.93,1.04-4.76v-0.83h-7.64v-9.17H545.97z"/>
			<path class="st1" d="M565.22,785.96h-9.87v-50.53h9.87V785.96z"/>
			<path class="st1" d="M583.38,784.17c-2.79-1.54-4.95-3.72-6.48-6.53c-1.53-2.81-2.29-6.08-2.29-9.78v-14.32
				c0-3.71,0.76-6.97,2.29-9.78c1.53-2.82,3.69-4.99,6.48-6.53s6.02-2.31,9.68-2.31c3.66,0,6.89,0.77,9.68,2.31s4.95,3.72,6.48,6.53
				c1.53,2.81,2.29,6.08,2.29,9.78v14.32c0,3.71-0.76,6.97-2.29,9.78c-1.53,2.82-3.69,4.99-6.48,6.53
				c-2.79,1.54-6.02,2.31-9.68,2.31C589.4,786.48,586.17,785.71,583.38,784.17z M597.57,775.87c1.3-0.73,2.3-1.77,3.01-3.11
				c0.71-1.34,1.06-2.9,1.06-4.66v-14.8c0-1.76-0.35-3.31-1.06-4.66c-0.71-1.34-1.71-2.38-3.01-3.11c-1.3-0.73-2.8-1.09-4.52-1.09
				c-1.71,0-3.22,0.36-4.52,1.09c-1.3,0.73-2.3,1.77-3.01,3.11c-0.71,1.34-1.06,2.9-1.06,4.66v14.8c0,1.76,0.35,3.31,1.06,4.66
				c0.71,1.34,1.71,2.38,3.01,3.11c1.3,0.73,2.8,1.09,4.52,1.09C594.77,776.96,596.28,776.6,597.57,775.87z"/>
			<path class="st1" d="M621.59,735.43h11.64l18.8,38.71l-0.83,0.9v-39.62h9.1v50.49h-11.71l-18.73-38.12l0.83-0.9v39.03h-9.1
				V735.43z"/>
		</g>
	</g>
</g>
<g>
	<g>
		<g>
			<path class="st1" d="M964.68,337.26c-2.65-1.55-4.71-3.75-6.17-6.6c-1.46-2.85-2.19-6.15-2.19-9.9v-13.87
				c0-3.75,0.73-7.05,2.19-9.9c1.46-2.85,3.51-5.06,6.17-6.62c2.65-1.56,5.73-2.35,9.23-2.35c2.9,0,5.56,0.62,7.99,1.86
				c2.43,1.24,4.47,3,6.1,5.26c1.63,2.27,2.74,4.9,3.32,7.89h-7.26c-0.44-1.58-1.18-2.98-2.21-4.22c-1.03-1.24-2.24-2.2-3.63-2.87
				c-1.39-0.67-2.83-1.01-4.31-1.01c-2.06,0-3.87,0.5-5.42,1.49c-1.55,1-2.76,2.39-3.61,4.19c-0.86,1.8-1.29,3.89-1.29,6.27v13.87
				c0,2.36,0.43,4.45,1.29,6.25c0.86,1.81,2.06,3.2,3.61,4.19c1.55,0.99,3.36,1.48,5.42,1.48c1.51,0,2.95-0.31,4.33-0.94
				c1.38-0.63,2.58-1.55,3.61-2.78c1.03-1.23,1.77-2.69,2.21-4.38h7.26c-0.58,2.99-1.69,5.62-3.34,7.89
				c-1.65,2.27-3.68,4.03-6.12,5.26s-5.09,1.86-7.96,1.86C970.41,339.59,967.34,338.81,964.68,337.26z"/>
			<path class="st1" d="M1001.4,288.54h7.09v50.53h-7.09V288.54z M1005.81,310.81h28.04v6.74h-28.04V310.81z M1030.1,288.54h7.09
				v50.53h-7.09V288.54z"/>
			<path class="st1" d="M1063.46,288.54h6.05l18.63,50.53h-7.64l-14-40.76l-14,40.76h-7.65L1063.46,288.54z M1053.42,321.24h26.58
				v6.74h-26.58V321.24z"/>
			<path class="st1" d="M1095.78,288.54h6.43l24.71,39.06l-0.83,0.9v-39.96h7.02v50.49h-6.5l-24.64-38.47l0.83-0.9v39.37h-7.02
				V288.54z"/>
			<path class="st1" d="M1145.62,288.54h6.43l24.71,39.06l-0.83,0.9v-39.96h7.02v50.49h-6.5l-24.64-38.47l0.83-0.9v39.37h-7.02
				V288.54z"/>
			<path class="st1" d="M1195.45,288.54h7.09v50.53h-7.09V288.54z M1198.89,288.54h29.02v6.74h-29.02V288.54z M1198.89,310.61h25.19
				v6.74h-25.19V310.61z M1198.89,332.33h29.02v6.74h-29.02V332.33z"/>
			<path class="st1" d="M1237.98,288.54h7.09v50.53h-7.09V288.54z M1241.53,332.33h28.91v6.74h-28.91V332.33z"/>
			<path class="st1" d="M1297.2,288.54h9.52v50.53h-9.52V288.54z M1301.44,329.89h29.61v9.17h-29.61V329.89z"/>
			<path class="st1" d="M1347.17,339.07h-9.87v-50.53h9.87V339.07z"/>
			<path class="st1" d="M1389.39,288.54h12.54v50.53h-8.65v-39.23l0.35,2.22l-9.66,31.38h-8.41l-9.66-30.68l0.35-2.92v39.23h-8.65
				v-50.53h12.54l9.63,34.06L1389.39,288.54z"/>
			<path class="st1" d="M1422.23,339.07h-9.87v-50.53h9.87V339.07z"/>
			<path class="st1" d="M1425.71,288.54h37.04v9.17h-37.04V288.54z M1439.47,292.67h9.52v46.39h-9.52V292.67z"/>
		</g>
	</g>
</g>
<g>
	<g>
		<g>
			<path class="st1" d="M142.19,273.19c-2.65-1.55-4.71-3.75-6.17-6.6c-1.46-2.85-2.19-6.15-2.19-9.9v-13.87
				c0-3.75,0.73-7.05,2.19-9.9c1.46-2.85,3.51-5.06,6.17-6.62c2.65-1.56,5.73-2.35,9.23-2.35c2.9,0,5.56,0.62,7.99,1.86
				c2.43,1.24,4.47,3,6.1,5.26c1.63,2.27,2.74,4.9,3.32,7.89h-7.26c-0.44-1.58-1.18-2.98-2.21-4.22c-1.03-1.24-2.24-2.2-3.63-2.87
				c-1.39-0.67-2.83-1.01-4.31-1.01c-2.06,0-3.87,0.5-5.42,1.49c-1.55,1-2.76,2.39-3.61,4.19c-0.86,1.8-1.29,3.89-1.29,6.27v13.87
				c0,2.36,0.43,4.45,1.29,6.25c0.86,1.81,2.06,3.2,3.61,4.19c1.55,0.99,3.36,1.48,5.42,1.48c1.51,0,2.95-0.31,4.33-0.94
				c1.38-0.63,2.58-1.55,3.61-2.78c1.03-1.23,1.77-2.69,2.21-4.38h7.26c-0.58,2.99-1.69,5.62-3.34,7.89
				c-1.65,2.27-3.68,4.03-6.12,5.26s-5.09,1.86-7.96,1.86C147.91,275.52,144.84,274.74,142.19,273.19z"/>
			<path class="st1" d="M178.9,224.47h7.09V275h-7.09V224.47z M183.31,246.74h28.04v6.74h-28.04V246.74z M207.6,224.47h7.09V275
				h-7.09V224.47z"/>
			<path class="st1" d="M240.97,224.47h6.05L265.64,275h-7.64l-14-40.76l-14,40.76h-7.65L240.97,224.47z M230.92,257.17h26.58v6.74
				h-26.58V257.17z"/>
			<path class="st1" d="M273.28,224.47h6.43l24.71,39.06l-0.83,0.9v-39.96h7.02v50.49h-6.5l-24.64-38.47l0.83-0.9v39.37h-7.02
				V224.47z"/>
			<path class="st1" d="M323.12,224.47h6.43l24.71,39.06l-0.83,0.9v-39.96h7.02v50.49h-6.5l-24.64-38.47l0.83-0.9v39.37h-7.02
				V224.47z"/>
			<path class="st1" d="M372.95,224.47h7.09V275h-7.09V224.47z M376.39,224.47h29.02v6.74h-29.02V224.47z M376.39,246.53h25.19v6.74
				h-25.19V246.53z M376.39,268.25h29.02V275h-29.02V268.25z"/>
			<path class="st1" d="M415.49,224.47h7.09V275h-7.09V224.47z M419.03,268.25h28.91V275h-28.91V268.25z"/>
			<path class="st1" d="M474.7,224.47h11.64l18.8,38.71l-0.83,0.9v-39.62h9.1v50.49H501.7l-18.73-38.12l0.83-0.9v39.03h-9.1V224.47z
				"/>
			<path class="st1" d="M538.99,224.47h6.05L564.36,275h-10.25l-12.09-34.51L529.92,275h-10.25L538.99,224.47z M528.95,257.72h26.58
				v9.17h-26.58V257.72z"/>
			<path class="st1" d="M602.41,224.47h12.54V275h-8.65v-39.23l0.35,2.22l-9.66,31.38h-8.41l-9.66-30.68l0.35-2.92V275h-8.65v-50.53
				h12.54l9.63,34.06L602.41,224.47z"/>
			<path class="st1" d="M626.08,224.47h9.52V275h-9.52V224.47z M629.52,224.47h30.41v9.17h-30.41V224.47z M629.52,245.32h26.58v9.17
				h-26.58V245.32z M629.52,265.82h30.41V275h-30.41V265.82z"/>
		</g>
	</g>
</g>
<path class="st4" d="M1091.87,467.37h-77.6c-11.07,0-20.04-8.97-20.04-20.04v0c0-11.07,8.97-20.04,20.04-20.04h77.6
	c11.07,0,20.04,8.97,20.04,20.04v0C1111.9,458.39,1102.93,467.37,1091.87,467.37z"/>
<g>
	<g>
		<g>
			<path class="st1" d="M1026.88,454.77c-0.9-0.93-1.35-2.23-1.35-3.9v-8.49c0-1.68,0.45-2.98,1.36-3.91s2.23-1.39,3.97-1.39
				c1.75,0,3.07,0.46,3.97,1.39c0.9,0.92,1.35,2.23,1.35,3.92v8.49c0,1.68-0.45,2.98-1.36,3.91s-2.23,1.39-3.97,1.39
				C1029.11,456.17,1027.78,455.71,1026.88,454.77z M1032.9,452.96c0.44-0.48,0.66-1.18,0.66-2.09v-8.49c0-0.91-0.22-1.6-0.66-2.09
				c-0.44-0.48-1.12-0.72-2.05-0.72s-1.62,0.24-2.05,0.72c-0.44,0.48-0.65,1.18-0.65,2.09v8.49c0,0.91,0.22,1.6,0.66,2.09
				s1.12,0.72,2.05,0.72C1031.78,453.68,1032.46,453.44,1032.9,452.96z"/>
			<path class="st1" d="M1044.53,455.98h-2.62v-15.81l-2.66,1.63v-2.71l2.66-1.77h2.62V455.98z"/>
			<path class="st1" d="M1049.22,459.52h-2.5l8.66-24.41h2.5L1049.22,459.52z"/>
			<path class="st1" d="M1060.72,455.51c-0.78-0.44-1.37-1.08-1.78-1.92c-0.41-0.84-0.61-1.86-0.61-3.05v-0.01
				c0-0.69,0.08-1.42,0.24-2.18c0.16-0.76,0.4-1.51,0.71-2.25c0.05-0.13,0.11-0.25,0.17-0.38c0.06-0.12,0.12-0.25,0.18-0.37
				l4.06-8.04h2.82l-4.76,9.31l0.01-0.46c0.21-0.4,0.53-0.71,0.94-0.94c0.41-0.22,0.89-0.33,1.44-0.33c0.97,0,1.8,0.22,2.49,0.66
				c0.69,0.44,1.22,1.07,1.58,1.91c0.36,0.83,0.54,1.84,0.54,3.01v0.01c0,1.2-0.2,2.23-0.61,3.08s-1,1.51-1.78,1.95
				c-0.78,0.44-1.72,0.67-2.82,0.67C1062.44,456.17,1061.5,455.95,1060.72,455.51z M1065.45,452.89c0.45-0.51,0.67-1.25,0.67-2.19
				v-0.01c0-1.04-0.24-1.85-0.71-2.42s-1.14-0.85-2.02-0.85c-0.78,0-1.38,0.29-1.81,0.86c-0.43,0.57-0.64,1.38-0.64,2.43v0.01
				c0,0.95,0.22,1.68,0.67,2.19s1.08,0.76,1.91,0.76C1064.36,453.66,1065,453.4,1065.45,452.89z"/>
			<path class="st1" d="M1078.82,446.71l-0.01,0.46c-0.21,0.39-0.54,0.68-0.97,0.87c-0.43,0.18-0.94,0.28-1.53,0.28
				c-0.89,0-1.67-0.23-2.35-0.68c-0.68-0.45-1.2-1.09-1.57-1.92c-0.37-0.83-0.56-1.78-0.56-2.87v-0.01c0-1.21,0.2-2.24,0.61-3.09
				c0.41-0.86,1-1.51,1.78-1.95c0.78-0.45,1.72-0.67,2.82-0.67c1.09,0,2.03,0.23,2.81,0.68c0.78,0.45,1.37,1.11,1.78,1.98
				s0.61,1.9,0.61,3.12v0.01c0,0.67-0.09,1.38-0.26,2.14c-0.17,0.76-0.42,1.51-0.73,2.25c-0.05,0.11-0.1,0.22-0.15,0.34
				c-0.05,0.12-0.11,0.23-0.17,0.34l-3.98,8h-2.82L1078.82,446.71z M1078.94,445.1c0.45-0.56,0.67-1.34,0.67-2.35v-0.01
				c0-0.98-0.22-1.75-0.67-2.28s-1.08-0.81-1.91-0.81c-0.83,0-1.47,0.27-1.92,0.81s-0.67,1.3-0.67,2.3v0.01
				c0,1.01,0.22,1.79,0.67,2.34c0.45,0.55,1.09,0.83,1.92,0.83C1077.86,445.93,1078.49,445.65,1078.94,445.1z"/>
		</g>
	</g>
</g>
</svg>
