<svg id="Layer_1" data-name="Layer 1" xmlns="http://www.w3.org/2000/svg" viewBox="0 0 1603.26 1603.26"><defs><style>.cls-1{fill:#292841;}.cls-2{fill:#b9bbbe;}.cls-3{fill:#fff;}.cls-4{fill:#ed4245;}.cls-5{fill:#5865f2;}</style></defs><path class="cls-1" d="M777.06,569.63V872.47a18.36,18.36,0,0,1-18.35,18.37H64.39A18.36,18.36,0,0,1,46,872.47V569.63a18.34,18.34,0,0,1,18.36-18.34H758.71A18.35,18.35,0,0,1,777.06,569.63Z"/><path class="cls-2" d="M151.49,663.84a14.43,14.43,0,0,0,6.26,3.74,11.42,11.42,0,0,1,.12,1.67,12,12,0,0,1-3.93,8.92,1.68,1.68,0,0,1-2.82-1.23V663.45C151.24,663.59,151.37,663.72,151.49,663.84Z"/><path class="cls-2" d="M153.27,657.48l-4.16-4.15h3.21a9.16,9.16,0,0,1,.16-1.74,9.62,9.62,0,0,1,9.91-7.85,9.62,9.62,0,0,1,1.11,19.09,10.05,10.05,0,0,1-1.56.12,9.56,9.56,0,0,1-6.79-2.82l1.51-1.51a7.45,7.45,0,0,0,5.28,2.19,5.31,5.31,0,0,0,.69,0,7.48,7.48,0,1,0-8.12-8.28,5.77,5.77,0,0,0,0,.83h3.2L157,654l-3.61,3.6Z"/><polygon class="cls-2" points="162.47 653.48 165.67 655.38 166.23 655.71 166.07 655.98 165.41 657.09 160.87 654.4 160.87 649.06 162.47 649.06 162.47 653.48"/><path class="cls-2" d="M169.78,665.79a24.58,24.58,0,0,1,.24,3.45,24.29,24.29,0,0,1-16.69,23.06,1.68,1.68,0,0,1-2.21-1.59v-2.15a1.65,1.65,0,0,1,1.09-1.56,18.92,18.92,0,0,0,12.4-17.75c0-.45,0-.9-.05-1.35A14.54,14.54,0,0,0,169.78,665.79Z"/><path class="cls-2" d="M169.78,665.79a14.37,14.37,0,0,1-5.21,2.1c0,.44.05.89.05,1.35A18.9,18.9,0,0,1,152.21,687a1.66,1.66,0,0,0-1.08,1.56v2.15a1.68,1.68,0,0,0,2.21,1.59A24.29,24.29,0,0,0,170,669.23,26.28,26.28,0,0,0,169.78,665.79Zm-6.28-3a9.64,9.64,0,0,0,4.88-2.36,22.66,22.66,0,0,0-.92-2.08,7.53,7.53,0,0,1-4.83,2.4A20.84,20.84,0,0,1,163.5,662.82Zm2.57-6.85c-.12-.19-.26-.38-.4-.58l-3.21-1.91v-1.82c-.51-.49-1-1-1.6-1.4v4.14l4.54,2.7ZM157,654l.71-.71h-1.74C156.28,653.56,156.61,653.79,157,654Zm0-6.31c-.67-.36-1.36-.67-2.06-1a9.64,9.64,0,0,0-2.44,4.83,17.52,17.52,0,0,1,2,.91A7.42,7.42,0,0,1,157,647.73Zm.78,19.85a14.37,14.37,0,0,1-6.26-3.74c-.12-.12-.25-.25-.37-.39v13.48a1.67,1.67,0,0,0,2.81,1.23,12,12,0,0,0,3.93-8.92A12.86,12.86,0,0,0,157.76,667.58Zm-14.9-17.07-10.14,10.14a1.68,1.68,0,0,1-1.18.49h-8.42a1.68,1.68,0,0,0-1.68,1.68v12.84a1.68,1.68,0,0,0,1.68,1.68h8.42a1.62,1.62,0,0,1,1.18.49L142.86,688a1.67,1.67,0,0,0,2.86-1.19V651.69A1.68,1.68,0,0,0,142.86,650.51Z"/><polygon class="cls-2" points="162.47 653.48 165.67 655.38 166.23 655.71 166.07 655.98 165.41 657.09 160.87 654.4 160.87 649.06 162.47 649.06 162.47 653.48"/><path class="cls-2" d="M168.38,660.46a9.64,9.64,0,0,1-4.88,2.36,10.05,10.05,0,0,1-1.56.12,9.59,9.59,0,0,1-6.79-2.81l1.51-1.52a7.46,7.46,0,0,0,5.28,2.2,5.32,5.32,0,0,0,.69,0,7.48,7.48,0,1,0-8.12-8.27,5.63,5.63,0,0,0,0,.83h3.2l-.71.7-3.61,3.6-.07-.15-4.16-4.15h3.21a9,9,0,0,1,.16-1.74,9.48,9.48,0,0,1,2.44-4.83,9.61,9.61,0,1,1,13.45,13.7Z"/><path class="cls-2" d="M151.13,663.45c.12.14.24.26.37.39h-.37Z"/><polygon class="cls-2" points="162.47 653.48 165.67 655.38 166.23 655.71 166.07 655.98 165.41 657.09 160.87 654.4 160.87 649.06 162.47 649.06 162.47 653.48"/><path class="cls-2" d="M168.38,660.46a9.64,9.64,0,0,1-4.88,2.36,10.05,10.05,0,0,1-1.56.12,9.59,9.59,0,0,1-6.79-2.81l1.51-1.52a7.46,7.46,0,0,0,5.28,2.2,5.32,5.32,0,0,0,.69,0,7.48,7.48,0,1,0-8.12-8.27,5.63,5.63,0,0,0,0,.83h3.2l-.71.7-3.61,3.6-.07-.15-4.16-4.15h3.21a9,9,0,0,1,.16-1.74,9.48,9.48,0,0,1,2.44-4.83,9.61,9.61,0,1,1,13.45,13.7Z"/><path class="cls-2" d="M165.67,655.38l-3.21-1.9v-4.43h-1.6v5.34l4.54,2.7.67-1.12.16-.26Zm5.87-2.5a9.62,9.62,0,0,0-19.06-1.29,9,9,0,0,0-.16,1.74h-3.21l4.16,4.15.07.15L157,654l.71-.7h-3.2a7.47,7.47,0,1,1,13,5,7.53,7.53,0,0,1-4.83,2.4c-.23,0-.46,0-.69,0a7.42,7.42,0,0,1-5.27-2.2l-1.52,1.52a9.59,9.59,0,0,0,6.79,2.81,10,10,0,0,0,1.56-.12,9.65,9.65,0,0,0,8-9.94Zm-5.87,2.5.4.59.16-.26Zm-3.2-6.32h-1.6v1.2c.55.44,1.08.91,1.6,1.4Z"/><path class="cls-3" d="M202.14,648.67h4.27v30.42h-4.27ZM205,675h6.88a7.27,7.27,0,0,0,5.22-1.75,6.4,6.4,0,0,0,1.85-4.92v-9a6.4,6.4,0,0,0-1.85-4.92,7.27,7.27,0,0,0-5.22-1.75H205v-4.06h6.76A14,14,0,0,1,218,650a8.92,8.92,0,0,1,4,3.72,12,12,0,0,1,1.36,5.9v8.62a12,12,0,0,1-1.36,5.9,8.89,8.89,0,0,1-4,3.72,14.09,14.09,0,0,1-6.26,1.28H205Z"/><path class="cls-3" d="M229.84,648.67h3.87l14.88,23.52-.51.54V648.67h4.23v30.4H248.4l-14.83-23.16.5-.54v23.7h-4.23Z"/><path class="cls-3" d="M259.84,648.67h4.27v30.42h-4.27ZM262.73,675h6.88a7.27,7.27,0,0,0,5.22-1.75,6.44,6.44,0,0,0,1.85-4.92v-9a6.44,6.44,0,0,0-1.85-4.92,7.27,7.27,0,0,0-5.22-1.75h-6.88v-4.06h6.75a14.09,14.09,0,0,1,6.26,1.28,8.84,8.84,0,0,1,3.95,3.72,11.94,11.94,0,0,1,1.36,5.9v8.62a11.94,11.94,0,0,1-1.36,5.9,8.82,8.82,0,0,1-4,3.72,14.16,14.16,0,0,1-6.27,1.28h-6.73Z"/><path class="cls-2" d="M132.27,587.51h3v21.36h-3Zm2,18.51h4.83a5.11,5.11,0,0,0,3.66-1.23,4.52,4.52,0,0,0,1.3-3.46V595a4.49,4.49,0,0,0-1.3-3.45,5.11,5.11,0,0,0-3.66-1.23H134.3v-2.85H139a9.82,9.82,0,0,1,4.39.9,6.17,6.17,0,0,1,2.78,2.61,8.5,8.5,0,0,1,.95,4.14v6.05a8.51,8.51,0,0,1-.95,4.15,6.3,6.3,0,0,1-2.79,2.61,9.82,9.82,0,0,1-4.39.9H134.3Z"/><path class="cls-2" d="M154.34,608.29a5.3,5.3,0,0,1-2.28-2.33,8.06,8.06,0,0,1-.79-3.7v-1.72a9.08,9.08,0,0,1,.76-3.87,5.42,5.42,0,0,1,2.2-2.43,6.74,6.74,0,0,1,3.46-.84,5.53,5.53,0,0,1,3.26,1,6,6,0,0,1,2.07,2.77,11.86,11.86,0,0,1,.71,4.33v1H153.45V600h7.43a5.15,5.15,0,0,0-1-2.9,2.71,2.71,0,0,0-2.23-1,3.22,3.22,0,0,0-2.63,1.12,4.75,4.75,0,0,0-.94,3.16v1.93a4,4,0,0,0,1,2.91,3.8,3.8,0,0,0,2.84,1,4.79,4.79,0,0,0,1.8-.37,5.33,5.33,0,0,0,1.61-1l2,2a8.39,8.39,0,0,1-2.54,1.68,7.16,7.16,0,0,1-2.83.6A7.65,7.65,0,0,1,154.34,608.29Z"/><path class="cls-2" d="M166.67,593.62h7.62v2.56h-7.62Zm1.61-2.07a4.28,4.28,0,0,1,.94-3,3.74,3.74,0,0,1,2.87-1h2.2v2.85h-2.14a.75.75,0,0,0-.65.32,1.46,1.46,0,0,0-.22.84v17.35h-3Z"/><path class="cls-2" d="M177.45,607.92a4.37,4.37,0,0,1-1.4-3.55,4.29,4.29,0,0,1,1.28-3.39,5.65,5.65,0,0,1,3.86-1.13h4.34l.2,2.41h-4.52a2.55,2.55,0,0,0-1.76.52,2.06,2.06,0,0,0-.58,1.59,2,2,0,0,0,.77,1.72,4.05,4.05,0,0,0,2.35.56,6.65,6.65,0,0,0,2.56-.37,1.21,1.21,0,0,0,.84-1.15l.31,2.15a3.47,3.47,0,0,1-1,1,4.15,4.15,0,0,1-1.35.6,6.94,6.94,0,0,1-1.72.2A6.43,6.43,0,0,1,177.45,607.92Zm7.94-8.72a3.2,3.2,0,0,0-.8-2.33,3,3,0,0,0-2.26-.83,6,6,0,0,0-1.79.28,5.5,5.5,0,0,0-1.55.78l-2.19-1.5a5.8,5.8,0,0,1,2.29-1.62,8.15,8.15,0,0,1,3.15-.58,7.18,7.18,0,0,1,3.24.67,4.61,4.61,0,0,1,2.06,1.94,6.18,6.18,0,0,1,.7,3.06v9.8h-2.85Z"/><path class="cls-2" d="M195.79,602.89a3.49,3.49,0,0,0,.82,2.47,3,3,0,0,0,2.3.88,3.11,3.11,0,0,0,2.27-.78,2.94,2.94,0,0,0,.81-2.22l.21,3.19a4.42,4.42,0,0,1-1.53,1.89,4.33,4.33,0,0,1-2.6.77,4.85,4.85,0,0,1-3.9-1.63,6.83,6.83,0,0,1-1.37-4.57v-9.27h3Zm6.2-9.27h3v15.25h-3Z"/><path class="cls-2" d="M212.52,604.93a1.3,1.3,0,0,0,.25.86.83.83,0,0,0,.68.3h1.41v2.85H213.1a3.31,3.31,0,0,1-2.64-1.06,4.36,4.36,0,0,1-.93-3V587.51h3Z"/><path class="cls-2" d="M217.06,593.62h6.88v2.7h-6.88Zm2.43,14.3a4.61,4.61,0,0,1-.86-3V589.18h3v15.75a1.42,1.42,0,0,0,.22.86.75.75,0,0,0,.65.3h1.44v2.85H222.2A3.37,3.37,0,0,1,219.49,607.92Z"/><path class="cls-2" d="M238.72,608.31a5.36,5.36,0,0,1-2.26-2.26,7.77,7.77,0,0,1-.77-3.59V600a7.58,7.58,0,0,1,.77-3.54,5.26,5.26,0,0,1,2.26-2.24,7.64,7.64,0,0,1,3.56-.77,8.09,8.09,0,0,1,2.24.29,6.46,6.46,0,0,1,1.89.83,5,5,0,0,1,1.39,1.32l-2.15,1.94a4.51,4.51,0,0,0-1.52-1.13,4.21,4.21,0,0,0-1.8-.4,3.58,3.58,0,0,0-2.69,1,3.69,3.69,0,0,0-1,2.73v2.51a3.85,3.85,0,0,0,.95,2.79,3.56,3.56,0,0,0,2.7,1,4.16,4.16,0,0,0,1.82-.43,4.53,4.53,0,0,0,1.5-1.2l2.15,2.08a5.32,5.32,0,0,1-1.41,1.3,6.53,6.53,0,0,1-1.88.82,9,9,0,0,1-2.23.28A7.52,7.52,0,0,1,238.72,608.31Z"/><path class="cls-2" d="M251.77,607.92a4.37,4.37,0,0,1-1.4-3.55,4.29,4.29,0,0,1,1.28-3.39,5.66,5.66,0,0,1,3.87-1.13h4.33l.2,2.41h-4.52a2.57,2.57,0,0,0-1.76.52,2.06,2.06,0,0,0-.58,1.59,2,2,0,0,0,.78,1.72,4,4,0,0,0,2.34.56,6.65,6.65,0,0,0,2.56-.37,1.22,1.22,0,0,0,.85-1.15l.3,2.15a3.47,3.47,0,0,1-1,1,4.15,4.15,0,0,1-1.35.6,6.92,6.92,0,0,1-1.71.2A6.46,6.46,0,0,1,251.77,607.92Zm8-8.72a3.25,3.25,0,0,0-.8-2.33,3,3,0,0,0-2.27-.83,6,6,0,0,0-1.79.28,5.5,5.5,0,0,0-1.55.78l-2.19-1.5a5.8,5.8,0,0,1,2.29-1.62,8.15,8.15,0,0,1,3.15-.58,7.18,7.18,0,0,1,3.24.67,4.56,4.56,0,0,1,2.06,1.94,6.18,6.18,0,0,1,.71,3.06v9.8h-2.85Z"/><path class="cls-2" d="M265.94,593.62h6.88v2.7h-6.88Zm2.43,14.3a4.61,4.61,0,0,1-.85-3V589.18h3v15.75a1.42,1.42,0,0,0,.22.86.75.75,0,0,0,.65.3h1.44v2.85h-1.74A3.37,3.37,0,0,1,268.37,607.92Z"/><path class="cls-2" d="M279.56,608.29a5.24,5.24,0,0,1-2.28-2.33,7.93,7.93,0,0,1-.79-3.7v-1.72a8.93,8.93,0,0,1,.76-3.87,5.35,5.35,0,0,1,2.19-2.43,6.78,6.78,0,0,1,3.47-.84,5.55,5.55,0,0,1,3.26,1,5.92,5.92,0,0,1,2.06,2.77,11.64,11.64,0,0,1,.72,4.33v1H278.66V600h7.44a5.08,5.08,0,0,0-1-2.9,2.7,2.7,0,0,0-2.22-1,3.23,3.23,0,0,0-2.64,1.12,4.8,4.8,0,0,0-.93,3.16v1.93a3.94,3.94,0,0,0,1,2.91,3.77,3.77,0,0,0,2.83,1,4.84,4.84,0,0,0,1.81-.37,5.29,5.29,0,0,0,1.6-1l2,2a8.51,8.51,0,0,1-2.54,1.68,7.21,7.21,0,0,1-2.84.6A7.61,7.61,0,0,1,279.56,608.29Z"/><path class="cls-2" d="M295,608.4a4.54,4.54,0,0,1-1.8-2.12,8.28,8.28,0,0,1-.61-3.35v-3.36a8.57,8.57,0,0,1,.6-3.37,4.62,4.62,0,0,1,1.75-2.12,5.15,5.15,0,0,1,2.77-.72,4.58,4.58,0,0,1,2.48.7,5.18,5.18,0,0,1,1.81,2l-.31,3.12a3.54,3.54,0,0,0-.35-1.66,2.41,2.41,0,0,0-1-1,3.4,3.4,0,0,0-1.62-.36,2.92,2.92,0,0,0-2.3.92,3.79,3.79,0,0,0-.82,2.6v3.32a3.65,3.65,0,0,0,.82,2.56,2.91,2.91,0,0,0,2.3.91,3.29,3.29,0,0,0,1.62-.38,2.48,2.48,0,0,0,1-1.08,3.67,3.67,0,0,0,.35-1.69l.21,3.22a4.37,4.37,0,0,1-1.49,1.9,4.17,4.17,0,0,1-2.55.76A5.31,5.31,0,0,1,295,608.4Zm.06,6a5,5,0,0,1-2.11-1.8l2-1.84a4.26,4.26,0,0,0,1.4,1.25,3.63,3.63,0,0,0,1.71.44,3.57,3.57,0,0,0,2.66-1,3.62,3.62,0,0,0,.94-2.68V593.62h3v14.79A7.84,7.84,0,0,1,304,612a5.25,5.25,0,0,1-2.24,2.28,7.58,7.58,0,0,1-3.54.77A7.25,7.25,0,0,1,295.09,614.43Z"/><path class="cls-2" d="M311.73,608.31a5.21,5.21,0,0,1-2.16-2.27,8.07,8.07,0,0,1-.74-3.59V600a7.84,7.84,0,0,1,.74-3.54,5.11,5.11,0,0,1,2.16-2.25,7.85,7.85,0,0,1,6.78,0,5,5,0,0,1,2.15,2.25,7.71,7.71,0,0,1,.75,3.54v2.53a7.77,7.77,0,0,1-.75,3.56,5.11,5.11,0,0,1-2.15,2.26,7.76,7.76,0,0,1-6.78,0Zm5.82-3.06a4.05,4.05,0,0,0,.86-2.76V600a4,4,0,0,0-.86-2.74,3.53,3.53,0,0,0-4.86,0,4,4,0,0,0-.86,2.74v2.53a4.05,4.05,0,0,0,.86,2.76,3.48,3.48,0,0,0,4.86,0Z"/><path class="cls-2" d="M325.66,593.62h3v15.25h-3Zm7.39,2.88a3.52,3.52,0,0,0-1.39-.25,3,3,0,0,0-2.21.78,3,3,0,0,0-.79,2.19l-.31-2.94a5.6,5.6,0,0,1,1.82-2.12,4.29,4.29,0,0,1,2.47-.76,5.59,5.59,0,0,1,1.89.3,4.23,4.23,0,0,1,1.47.89l-1.95,2.64A2.55,2.55,0,0,0,333.05,596.5Z"/><path class="cls-2" d="M336.89,593.62h3.05l4.69,13.25L343,610.11Zm13.49,0-6.49,18.82a4.48,4.48,0,0,1-.92,1.65,3.21,3.21,0,0,1-1.41.87,6.82,6.82,0,0,1-2.06.27h-.6v-2.88h.6a2.36,2.36,0,0,0,1.33-.34,2.74,2.74,0,0,0,.86-1.16l5.64-17.23Z"/><path class="cls-2" d="M111.78,591.42h0a2,2,0,0,1,0,2.89l-14,14a2,2,0,0,1-2.89,0h0a2,2,0,0,1,0-2.88l14-14A2.06,2.06,0,0,1,111.78,591.42Z"/><path class="cls-2" d="M80.79,591.42h0a2,2,0,0,1,2.89,0l13.95,14a2,2,0,0,1,0,2.88h0a2,2,0,0,1-2.88,0l-14-14A2,2,0,0,1,80.79,591.42Z"/><circle class="cls-4" cx="227.43" cy="736.65" r="25.91"/><path class="cls-3" d="M277.61,724.32h2.66l8.21,22.26h-3.37l-6.17-18-6.16,18h-3.37Zm-4.42,14.4H284.9v3H273.19Z"/><path class="cls-3" d="M291.54,730.69h3.12v15.89h-3.12Zm9.64,6.26a3.63,3.63,0,0,0-.87-2.6,3.23,3.23,0,0,0-2.45-.92,3.28,3.28,0,0,0-2.37.81,3.05,3.05,0,0,0-.83,2.28l-.32-3.06a5.67,5.67,0,0,1,1.92-2.22,4.66,4.66,0,0,1,2.62-.78,4.94,4.94,0,0,1,4,1.69,7.27,7.27,0,0,1,1.41,4.78v9.65h-3.12Z"/><path class="cls-3" d="M307.82,730.69H315v2.82h-7.16Zm2.53,14.9a4.83,4.83,0,0,1-.89-3.15V726.07h3.12v16.4a1.53,1.53,0,0,0,.23.9.77.77,0,0,0,.67.31H315v3h-1.8A3.5,3.5,0,0,1,310.35,745.59Z"/><path class="cls-3" d="M321.82,746a5.39,5.39,0,0,1-2.24-2.36,8.4,8.4,0,0,1-.77-3.74V737.3a8.25,8.25,0,0,1,.77-3.7,5.45,5.45,0,0,1,2.24-2.34,8.23,8.23,0,0,1,7.08,0,5.45,5.45,0,0,1,2.24,2.34,8.25,8.25,0,0,1,.77,3.7v2.63a8.24,8.24,0,0,1-.77,3.71A5.42,5.42,0,0,1,328.9,746a8.14,8.14,0,0,1-7.08,0Zm6.07-3.18a4.21,4.21,0,0,0,.9-2.88V737.3a4.16,4.16,0,0,0-.9-2.86,3.67,3.67,0,0,0-5.06,0,4.16,4.16,0,0,0-.9,2.86v2.63a4.21,4.21,0,0,0,.9,2.88,3.62,3.62,0,0,0,5.06,0Z"/><path class="cls-3" d="M336.35,730.69h3.12v15.89h-3.12ZM346,737a3.63,3.63,0,0,0-.87-2.6,3.23,3.23,0,0,0-2.45-.92,3.28,3.28,0,0,0-2.37.81,3.05,3.05,0,0,0-.83,2.28l-.32-3.06a5.67,5.67,0,0,1,1.92-2.22,4.66,4.66,0,0,1,2.62-.78,4.94,4.94,0,0,1,4,1.69,7.27,7.27,0,0,1,1.41,4.78v9.65H346Z"/><circle class="cls-5" cx="227.43" cy="806.54" r="25.91"/><path class="cls-3" d="M271.55,794.21h3.12v22.25h-3.12Zm1.56,19.29h12.74v3H273.11Z"/><path class="cls-3" d="M292,815.87a5.54,5.54,0,0,1-2.38-2.43,8.43,8.43,0,0,1-.82-3.86v-1.79a9.46,9.46,0,0,1,.79-4,5.67,5.67,0,0,1,2.29-2.54,7.07,7.07,0,0,1,3.61-.87,5.76,5.76,0,0,1,3.4,1,6.28,6.28,0,0,1,2.15,2.88,12.44,12.44,0,0,1,.74,4.52v1H291v-2.51h7.74a5.32,5.32,0,0,0-1-3,2.82,2.82,0,0,0-2.32-1.07,3.38,3.38,0,0,0-2.75,1.16,5,5,0,0,0-1,3.29v2a4.16,4.16,0,0,0,1,3,4,4,0,0,0,3,1.05,4.82,4.82,0,0,0,1.88-.38,5.36,5.36,0,0,0,1.67-1.07l2.05,2.05a8.55,8.55,0,0,1-2.65,1.75,7.41,7.41,0,0,1-2.95.62A8,8,0,0,1,292,815.87Z"/><path class="cls-3" d="M306,800.58h3.12v15.88H306Zm9.64,6.26a3.63,3.63,0,0,0-.87-2.6,3.2,3.2,0,0,0-2.45-.92,3.28,3.28,0,0,0-2.37.81,3.05,3.05,0,0,0-.83,2.28l-.32-3.06a5.67,5.67,0,0,1,1.92-2.22,4.66,4.66,0,0,1,2.62-.78,4.9,4.9,0,0,1,4,1.69,7.21,7.21,0,0,1,1.42,4.78v9.64h-3.12Z"/><path class="cls-3" d="M324.21,815.48a4.55,4.55,0,0,1-1.45-3.7,4.45,4.45,0,0,1,1.33-3.53,5.91,5.91,0,0,1,4-1.18h4.51l.21,2.51h-4.71a2.67,2.67,0,0,0-1.83.54,2.13,2.13,0,0,0-.6,1.66,2,2,0,0,0,.8,1.79,4.16,4.16,0,0,0,2.44.58,7,7,0,0,0,2.67-.38,1.25,1.25,0,0,0,.88-1.19l.32,2.23a3.65,3.65,0,0,1-1,1.06,4.69,4.69,0,0,1-1.4.62,7.63,7.63,0,0,1-1.8.2A6.74,6.74,0,0,1,324.21,815.48Zm8.28-9.09a3.35,3.35,0,0,0-.83-2.42,3.14,3.14,0,0,0-2.37-.87,6.23,6.23,0,0,0-1.86.29,5.68,5.68,0,0,0-1.61.82l-2.28-1.57a6,6,0,0,1,2.38-1.69,8.63,8.63,0,0,1,3.28-.6,7.47,7.47,0,0,1,3.38.7,4.78,4.78,0,0,1,2.15,2,6.46,6.46,0,0,1,.73,3.19v10.2h-3Z"/><path class="cls-3" d="M340.2,800.58h3.13v15.88H340.2Zm7.7,3a3.83,3.83,0,0,0-1.45-.26,3.08,3.08,0,0,0-2.3.82,3,3,0,0,0-.82,2.27l-.33-3.06a5.92,5.92,0,0,1,1.9-2.21,4.48,4.48,0,0,1,2.57-.79,5.82,5.82,0,0,1,2,.31,4.38,4.38,0,0,1,1.54.93l-2,2.75A2.58,2.58,0,0,0,347.9,803.58Z"/><path class="cls-3" d="M355.33,816a4.76,4.76,0,0,1-1.87-2.21,8.56,8.56,0,0,1-.65-3.49v-3.5a8.81,8.81,0,0,1,.63-3.51,4.79,4.79,0,0,1,1.83-2.21,5.34,5.34,0,0,1,2.89-.76,4.75,4.75,0,0,1,2.57.74,5.46,5.46,0,0,1,1.89,2.06l-.32,3.25a3.81,3.81,0,0,0-.36-1.73,2.53,2.53,0,0,0-1.07-1.1,3.52,3.52,0,0,0-1.69-.37,3,3,0,0,0-2.39,1,4,4,0,0,0-.85,2.71v3.46a3.84,3.84,0,0,0,.85,2.67,3,3,0,0,0,2.39.94,3.41,3.41,0,0,0,1.69-.39,2.57,2.57,0,0,0,1.07-1.12,4,4,0,0,0,.36-1.76l.22,3.35a4.58,4.58,0,0,1-1.56,2,4.32,4.32,0,0,1-2.65.8A5.55,5.55,0,0,1,355.33,816Zm7-21.77h3.12v22.25H362.3Z"/><path class="cls-1" d="M1547.61,730.77v302.84a18.35,18.35,0,0,1-18.35,18.36H834.94a18.36,18.36,0,0,1-18.37-18.36V730.77a18.36,18.36,0,0,1,18.37-18.35h694.32A18.36,18.36,0,0,1,1547.61,730.77Z"/><path class="cls-3" d="M972.69,809.8H977v30.42h-4.27Zm2.89,26.36h6.88a7.27,7.27,0,0,0,5.22-1.75,6.4,6.4,0,0,0,1.85-4.92v-9a6.4,6.4,0,0,0-1.85-4.92,7.27,7.27,0,0,0-5.22-1.75h-6.88V809.8h6.76a14,14,0,0,1,6.25,1.28,8.92,8.92,0,0,1,4,3.72,12,12,0,0,1,1.36,5.9v8.62a12,12,0,0,1-1.36,5.9,8.89,8.89,0,0,1-4,3.72,14.09,14.09,0,0,1-6.26,1.28h-6.74Z"/><path class="cls-3" d="M1000.39,809.8h3.87l14.87,23.52-.5.54V809.8h4.23v30.4H1019L1004.11,817l.51-.54v23.7h-4.23Z"/><path class="cls-3" d="M1030.39,809.8h4.27v30.42h-4.27Zm2.89,26.36h6.88a7.31,7.31,0,0,0,5.22-1.75,6.44,6.44,0,0,0,1.85-4.92v-9a6.44,6.44,0,0,0-1.85-4.92,7.31,7.31,0,0,0-5.22-1.75h-6.88V809.8H1040a14.09,14.09,0,0,1,6.26,1.28,8.9,8.9,0,0,1,4,3.72,11.94,11.94,0,0,1,1.36,5.9v8.62a11.94,11.94,0,0,1-1.36,5.9,8.92,8.92,0,0,1-4,3.72,14.16,14.16,0,0,1-6.27,1.28h-6.73Z"/><path class="cls-2" d="M902.82,748.64h3V770h-3Zm2,18.51h4.83a5.09,5.09,0,0,0,3.66-1.23,4.52,4.52,0,0,0,1.3-3.46v-6.29a4.49,4.49,0,0,0-1.3-3.45,5.09,5.09,0,0,0-3.66-1.23h-4.83v-2.85h4.74a9.82,9.82,0,0,1,4.39.9,6.17,6.17,0,0,1,2.78,2.61,8.39,8.39,0,0,1,1,4.14v6.05a8.4,8.4,0,0,1-1,4.15A6.28,6.28,0,0,1,914,769.1a9.89,9.89,0,0,1-4.4.9h-4.73Z"/><path class="cls-2" d="M924.9,769.42a5.35,5.35,0,0,1-2.29-2.32,8.13,8.13,0,0,1-.78-3.71v-1.72a9,9,0,0,1,.75-3.86,5.45,5.45,0,0,1,2.2-2.44,6.76,6.76,0,0,1,3.47-.84,5.57,5.57,0,0,1,3.26,1,6,6,0,0,1,2.06,2.77,11.86,11.86,0,0,1,.71,4.33v1H924v-2.41h7.43a5.18,5.18,0,0,0-1-2.9,2.71,2.71,0,0,0-2.22-1,3.23,3.23,0,0,0-2.64,1.12,4.8,4.8,0,0,0-.93,3.16v1.94a4,4,0,0,0,1,2.9,3.81,3.81,0,0,0,2.84,1,4.84,4.84,0,0,0,1.81-.37,5.41,5.41,0,0,0,1.6-1l2,2a8.2,8.2,0,0,1-2.54,1.68,7.16,7.16,0,0,1-2.83.6A7.58,7.58,0,0,1,924.9,769.42Z"/><path class="cls-2" d="M937.22,754.75h7.62v2.56h-7.62Zm1.62-2.07a4.33,4.33,0,0,1,.93-3,3.74,3.74,0,0,1,2.87-1h2.2v2.85H942.7a.75.75,0,0,0-.65.32,1.54,1.54,0,0,0-.22.84V770h-3Z"/><path class="cls-2" d="M948,769.05a4.37,4.37,0,0,1-1.4-3.55,4.29,4.29,0,0,1,1.28-3.39,5.66,5.66,0,0,1,3.87-1.13h4.33l.2,2.41h-4.52a2.57,2.57,0,0,0-1.76.52,2.06,2.06,0,0,0-.58,1.59,2,2,0,0,0,.78,1.72,4,4,0,0,0,2.34.56,6.65,6.65,0,0,0,2.56-.37,1.2,1.2,0,0,0,.85-1.14l.3,2.14a3.34,3.34,0,0,1-1,1,4.15,4.15,0,0,1-1.35.6,6.92,6.92,0,0,1-1.71.2A6.46,6.46,0,0,1,948,769.05Zm8-8.72a3.25,3.25,0,0,0-.8-2.33,3,3,0,0,0-2.27-.83,6,6,0,0,0-1.79.28,5.5,5.5,0,0,0-1.55.78l-2.19-1.5a5.8,5.8,0,0,1,2.29-1.62,8.15,8.15,0,0,1,3.15-.58,7.18,7.18,0,0,1,3.24.67,4.56,4.56,0,0,1,2.06,1.94,6.18,6.18,0,0,1,.71,3.06V770H956Z"/><path class="cls-2" d="M966.35,764a3.48,3.48,0,0,0,.81,2.47,3,3,0,0,0,2.3.88,3.15,3.15,0,0,0,2.28-.78,3,3,0,0,0,.8-2.22l.21,3.19a4.35,4.35,0,0,1-1.53,1.89,4.31,4.31,0,0,1-2.6.77,4.82,4.82,0,0,1-3.9-1.63,6.89,6.89,0,0,1-1.37-4.57v-9.27h3Zm6.19-9.27h3V770h-3Z"/><path class="cls-2" d="M983.08,766.06a1.35,1.35,0,0,0,.24.86.83.83,0,0,0,.68.3h1.41v2.85h-1.76A3.31,3.31,0,0,1,981,769a4.36,4.36,0,0,1-.93-3V748.64h3Z"/><path class="cls-2" d="M987.61,754.75h6.88v2.7h-6.88Zm2.43,14.3a4.61,4.61,0,0,1-.85-3V750.31h3v15.75a1.42,1.42,0,0,0,.22.86.75.75,0,0,0,.65.3h1.44v2.85h-1.74A3.37,3.37,0,0,1,990,769.05Z"/><path class="cls-2" d="M1009.27,769.44a5.28,5.28,0,0,1-2.25-2.26,7.64,7.64,0,0,1-.78-3.59v-2.51a7.46,7.46,0,0,1,.78-3.54,5.23,5.23,0,0,1,2.25-2.24,7.67,7.67,0,0,1,3.56-.77,8.09,8.09,0,0,1,2.24.29,6.46,6.46,0,0,1,1.89.83,5.19,5.19,0,0,1,1.4,1.32l-2.16,1.94a4.41,4.41,0,0,0-1.52-1.13,4.18,4.18,0,0,0-1.8-.4,3.59,3.59,0,0,0-2.69,1,3.7,3.7,0,0,0-1,2.73v2.51a3.85,3.85,0,0,0,.94,2.79,3.56,3.56,0,0,0,2.7,1,4,4,0,0,0,1.82-.43,4.33,4.33,0,0,0,1.5-1.2l2.16,2.08a5.65,5.65,0,0,1-1.41,1.3,6.72,6.72,0,0,1-1.89.82,8.9,8.9,0,0,1-2.23.28A7.55,7.55,0,0,1,1009.27,769.44Z"/><path class="cls-2" d="M1022.32,769.05a4.36,4.36,0,0,1-1.39-3.55,4.28,4.28,0,0,1,1.27-3.39,5.68,5.68,0,0,1,3.87-1.13h4.33l.21,2.41h-4.53a2.52,2.52,0,0,0-1.75.52,2,2,0,0,0-.58,1.59,2,2,0,0,0,.77,1.72,4,4,0,0,0,2.34.56,6.62,6.62,0,0,0,2.56-.37,1.2,1.2,0,0,0,.85-1.14l.31,2.14a3.5,3.5,0,0,1-1,1,4.19,4.19,0,0,1-1.34.6,7,7,0,0,1-1.72.2A6.46,6.46,0,0,1,1022.32,769.05Zm7.95-8.72a3.25,3.25,0,0,0-.8-2.33,3,3,0,0,0-2.27-.83,6.08,6.08,0,0,0-1.79.28,5.5,5.5,0,0,0-1.55.78l-2.18-1.5a5.69,5.69,0,0,1,2.28-1.62,8.15,8.15,0,0,1,3.15-.58,7.22,7.22,0,0,1,3.25.67,4.59,4.59,0,0,1,2.05,1.94,6.18,6.18,0,0,1,.71,3.06V770h-2.85Z"/><path class="cls-2" d="M1036.5,754.75h6.87v2.7h-6.87Zm2.43,14.3a4.55,4.55,0,0,1-.86-3V750.31h3v15.75a1.49,1.49,0,0,0,.22.86.77.77,0,0,0,.65.3h1.44v2.85h-1.73A3.34,3.34,0,0,1,1038.93,769.05Z"/><path class="cls-2" d="M1050.11,769.42a5.27,5.27,0,0,1-2.28-2.32,8,8,0,0,1-.79-3.71v-1.72a8.86,8.86,0,0,1,.76-3.86,5.37,5.37,0,0,1,2.19-2.44,6.78,6.78,0,0,1,3.47-.84,5.55,5.55,0,0,1,3.26,1,5.92,5.92,0,0,1,2.06,2.77,11.64,11.64,0,0,1,.72,4.33v1h-10.29v-2.41h7.44a5.18,5.18,0,0,0-1-2.9,2.73,2.73,0,0,0-2.23-1,3.24,3.24,0,0,0-2.64,1.12,4.8,4.8,0,0,0-.93,3.16v1.94a3.93,3.93,0,0,0,1,2.9,3.79,3.79,0,0,0,2.83,1,4.84,4.84,0,0,0,1.81-.37,5.29,5.29,0,0,0,1.6-1l2,2a8.2,8.2,0,0,1-2.54,1.68,7.21,7.21,0,0,1-2.84.6A7.61,7.61,0,0,1,1050.11,769.42Z"/><path class="cls-2" d="M1065.58,769.53a4.58,4.58,0,0,1-1.79-2.12,8.11,8.11,0,0,1-.62-3.35V760.7a8.57,8.57,0,0,1,.6-3.37,4.58,4.58,0,0,1,1.76-2.12,5.09,5.09,0,0,1,2.76-.72,4.56,4.56,0,0,1,2.48.7,5.18,5.18,0,0,1,1.81,2l-.31,3.12a3.54,3.54,0,0,0-.35-1.66,2.35,2.35,0,0,0-1-1,3.34,3.34,0,0,0-1.62-.36,2.92,2.92,0,0,0-2.3.92,3.84,3.84,0,0,0-.81,2.6v3.32a3.69,3.69,0,0,0,.81,2.56,2.91,2.91,0,0,0,2.3.91,3.24,3.24,0,0,0,1.62-.38,2.42,2.42,0,0,0,1-1.08,3.65,3.65,0,0,0,.35-1.68l.21,3.21a4.3,4.3,0,0,1-1.49,1.9,4.17,4.17,0,0,1-2.55.76A5.34,5.34,0,0,1,1065.58,769.53Zm.06,6a5,5,0,0,1-2.1-1.8l2-1.84a4.15,4.15,0,0,0,1.4,1.25,3.64,3.64,0,0,0,1.72.44,3.56,3.56,0,0,0,2.65-1,3.62,3.62,0,0,0,.94-2.68V754.75h3v14.79a7.84,7.84,0,0,1-.77,3.6,5.2,5.2,0,0,1-2.24,2.28,7.46,7.46,0,0,1-3.54.77A7.25,7.25,0,0,1,1065.64,775.56Z"/><path class="cls-2" d="M1082.28,769.44a5.14,5.14,0,0,1-2.15-2.27,7.93,7.93,0,0,1-.75-3.59V761.1a7.73,7.73,0,0,1,.75-3.55,5,5,0,0,1,2.15-2.25,7.85,7.85,0,0,1,6.78,0,5,5,0,0,1,2.15,2.25,7.73,7.73,0,0,1,.75,3.55v2.52a7.77,7.77,0,0,1-.75,3.56,5.11,5.11,0,0,1-2.15,2.26,7.76,7.76,0,0,1-6.78,0Zm5.82-3.06a4.05,4.05,0,0,0,.86-2.76V761.1a4,4,0,0,0-.86-2.75,3.53,3.53,0,0,0-4.86,0,4,4,0,0,0-.86,2.75v2.52a4.05,4.05,0,0,0,.86,2.76,3.48,3.48,0,0,0,4.86,0Z"/><path class="cls-2" d="M1096.22,754.75h3V770h-3Zm7.38,2.88a3.52,3.52,0,0,0-1.39-.25,3,3,0,0,0-2.21.79,2.92,2.92,0,0,0-.79,2.18l-.31-2.94a5.53,5.53,0,0,1,1.83-2.12,4.23,4.23,0,0,1,2.46-.76,5.59,5.59,0,0,1,1.89.3,4.27,4.27,0,0,1,1.48.89l-2,2.64A2.48,2.48,0,0,0,1103.6,757.63Z"/><path class="cls-2" d="M1107.44,754.75h3l4.69,13.25-1.66,3.24Zm13.5,0-6.5,18.82a4.48,4.48,0,0,1-.92,1.65,3.21,3.21,0,0,1-1.41.87,6.77,6.77,0,0,1-2.06.27h-.6v-2.88h.6a2.36,2.36,0,0,0,1.33-.34,2.66,2.66,0,0,0,.86-1.16l5.64-17.23Z"/><path class="cls-2" d="M882.33,752.55h0a2,2,0,0,1,0,2.89l-14,13.95a2,2,0,0,1-2.89,0h0a2,2,0,0,1,0-2.88l14-14A2.06,2.06,0,0,1,882.33,752.55Z"/><path class="cls-2" d="M851.34,752.55h0a2,2,0,0,1,2.89,0l13.95,14a2,2,0,0,1,0,2.88h0a2,2,0,0,1-2.88,0l-14-13.95A2,2,0,0,1,851.34,752.55Z"/><circle class="cls-4" cx="997.98" cy="897.78" r="25.91"/><path class="cls-3" d="M1048.16,885.46h2.66l8.21,22.25h-3.37l-6.17-18-6.17,18H1040Zm-4.42,14.4h11.71v3h-11.71Z"/><path class="cls-3" d="M1062.09,891.82h3.12v15.89h-3.12Zm9.64,6.26a3.63,3.63,0,0,0-.87-2.6,3.24,3.24,0,0,0-2.45-.92,3.28,3.28,0,0,0-2.37.81,3.05,3.05,0,0,0-.83,2.28l-.32-3.06a5.67,5.67,0,0,1,1.92-2.22,4.66,4.66,0,0,1,2.62-.78,5,5,0,0,1,4,1.69,7.28,7.28,0,0,1,1.41,4.79v9.64h-3.12Z"/><path class="cls-3" d="M1078.37,891.82h7.16v2.82h-7.16Zm2.53,14.9a4.82,4.82,0,0,1-.89-3.14V887.2h3.12v16.41a1.52,1.52,0,0,0,.23.89.77.77,0,0,0,.67.31h1.5v3h-1.8A3.5,3.5,0,0,1,1080.9,906.72Z"/><path class="cls-3" d="M1092.37,907.12a5.33,5.33,0,0,1-2.24-2.36,8.37,8.37,0,0,1-.77-3.74v-2.59a8.18,8.18,0,0,1,.77-3.69,5.29,5.29,0,0,1,2.24-2.34,8.12,8.12,0,0,1,7.07,0,5.31,5.31,0,0,1,2.25,2.34,8.18,8.18,0,0,1,.77,3.69v2.63a8.31,8.31,0,0,1-.77,3.72,5.41,5.41,0,0,1-2.25,2.34,8,8,0,0,1-7.07,0Zm6.07-3.18a4.21,4.21,0,0,0,.9-2.88v-2.63a4.16,4.16,0,0,0-.9-2.86,3.67,3.67,0,0,0-5.06,0,4.16,4.16,0,0,0-.9,2.86v2.63a4.21,4.21,0,0,0,.9,2.88,3.62,3.62,0,0,0,5.06,0Z"/><path class="cls-3" d="M1106.9,891.82H1110v15.89h-3.12Zm9.64,6.26a3.63,3.63,0,0,0-.87-2.6,3.24,3.24,0,0,0-2.45-.92,3.28,3.28,0,0,0-2.37.81,3.05,3.05,0,0,0-.83,2.28l-.32-3.06a5.67,5.67,0,0,1,1.92-2.22,4.66,4.66,0,0,1,2.62-.78,5,5,0,0,1,4,1.69,7.28,7.28,0,0,1,1.41,4.79v9.64h-3.12Z"/><circle class="cls-5" cx="997.98" cy="967.67" r="25.91"/><path class="cls-3" d="M1042.1,955.34h3.12V977.6h-3.12Zm1.56,19.29h12.73v3h-12.73Z"/><path class="cls-3" d="M1062.5,977a5.54,5.54,0,0,1-2.38-2.43,8.43,8.43,0,0,1-.82-3.86v-1.79a9.35,9.35,0,0,1,.79-4,5.67,5.67,0,0,1,2.29-2.54,7.07,7.07,0,0,1,3.61-.87,5.69,5.69,0,0,1,3.4,1,6.19,6.19,0,0,1,2.15,2.87,12.44,12.44,0,0,1,.74,4.52v1h-10.71V968.4h7.74a5.34,5.34,0,0,0-1-3,2.82,2.82,0,0,0-2.32-1.08,3.38,3.38,0,0,0-2.75,1.16,5,5,0,0,0-1,3.29v2a4.14,4.14,0,0,0,1,3,4,4,0,0,0,3,1.06,4.84,4.84,0,0,0,1.88-.39,5.36,5.36,0,0,0,1.67-1.07l2,2.05a8.76,8.76,0,0,1-2.65,1.76,7.62,7.62,0,0,1-3,.62A8,8,0,0,1,1062.5,977Z"/><path class="cls-3" d="M1076.56,961.71h3.13V977.6h-3.13Zm9.65,6.26a3.59,3.59,0,0,0-.88-2.6,3.2,3.2,0,0,0-2.44-.92,3.28,3.28,0,0,0-2.37.81,3,3,0,0,0-.83,2.28l-.32-3.06a5.67,5.67,0,0,1,1.92-2.22,4.66,4.66,0,0,1,2.62-.78,4.92,4.92,0,0,1,4,1.69,7.21,7.21,0,0,1,1.42,4.78v9.65h-3.12Z"/><path class="cls-3" d="M1094.76,976.61a4.54,4.54,0,0,1-1.45-3.7,4.45,4.45,0,0,1,1.33-3.53,5.9,5.9,0,0,1,4-1.18h4.52l.21,2.51h-4.71a2.67,2.67,0,0,0-1.83.54,2.13,2.13,0,0,0-.6,1.66,2,2,0,0,0,.8,1.79,4.14,4.14,0,0,0,2.44.58,7,7,0,0,0,2.67-.38,1.25,1.25,0,0,0,.88-1.19l.32,2.23a3.56,3.56,0,0,1-1,1.06,4.58,4.58,0,0,1-1.4.62,7,7,0,0,1-1.79.21A6.72,6.72,0,0,1,1094.76,976.61Zm8.28-9.08a3.39,3.39,0,0,0-.83-2.43,3.14,3.14,0,0,0-2.37-.86,5.92,5.92,0,0,0-1.86.29,5.41,5.41,0,0,0-1.61.81l-2.28-1.56a5.94,5.94,0,0,1,2.38-1.7,8.63,8.63,0,0,1,3.28-.6,7.47,7.47,0,0,1,3.38.7,4.78,4.78,0,0,1,2.15,2,6.57,6.57,0,0,1,.73,3.19V977.6h-3Z"/><path class="cls-3" d="M1110.75,961.71h3.13V977.6h-3.13Zm7.7,3a3.83,3.83,0,0,0-1.45-.26,3.12,3.12,0,0,0-2.31.82,3.07,3.07,0,0,0-.81,2.27l-.33-3.06a5.83,5.83,0,0,1,1.9-2.21,4.46,4.46,0,0,1,2.57-.79,5.82,5.82,0,0,1,2,.31,4.38,4.38,0,0,1,1.54.93l-2,2.75A2.58,2.58,0,0,0,1118.45,964.71Z"/><path class="cls-3" d="M1125.88,977.11a4.7,4.7,0,0,1-1.87-2.21,8.56,8.56,0,0,1-.65-3.49v-3.5a8.81,8.81,0,0,1,.63-3.51,4.79,4.79,0,0,1,1.83-2.21,5.33,5.33,0,0,1,2.88-.76,4.76,4.76,0,0,1,2.58.74,5.42,5.42,0,0,1,1.89,2.07l-.32,3.24a3.71,3.71,0,0,0-.37-1.73,2.48,2.48,0,0,0-1.06-1.09,3.52,3.52,0,0,0-1.69-.38,3,3,0,0,0-2.4,1,4,4,0,0,0-.84,2.7v3.46a3.85,3.85,0,0,0,.84,2.67,3.07,3.07,0,0,0,2.4.94,3.41,3.41,0,0,0,1.69-.39,2.55,2.55,0,0,0,1.06-1.12,3.84,3.84,0,0,0,.37-1.76l.22,3.35a4.6,4.6,0,0,1-1.56,2,4.34,4.34,0,0,1-2.65.79A5.52,5.52,0,0,1,1125.88,977.11Zm7-21.77H1136V977.6h-3.12Z"/><path class="cls-2" d="M928,818.14h-2v-3.9a9.76,9.76,0,0,0-19.52,0v3.9h-2a3.91,3.91,0,0,0-3.9,3.91v19.52a3.91,3.91,0,0,0,3.9,3.9H928a3.92,3.92,0,0,0,3.9-3.9V822.05A3.92,3.92,0,0,0,928,818.14Zm-11.72,17.57a3.91,3.91,0,1,1,3.91-3.9A3.92,3.92,0,0,1,916.27,835.71Zm6.05-17.57h-12.1v-3.9a6.05,6.05,0,0,1,12.1,0Z"/></svg>