<?xml version="1.0" encoding="utf-8"?>
<!-- Generator: Adobe Illustrator 25.0.0, SVG Export Plug-In . SVG Version: 6.00 Build 0)  -->
<svg version="1.1" id="Layer_1" xmlns="http://www.w3.org/2000/svg" xmlns:xlink="http://www.w3.org/1999/xlink" x="0px" y="0px"
	 viewBox="0 0 1603.3 1603.3" style="enable-background:new 0 0 1603.3 1603.3;" xml:space="preserve">
<style type="text/css">
	.st0{fill:#292841;}
	.st1{fill:#B9BBBE;}
	.st2{fill:#FFFFFF;}
	.st3{fill:#ED4245;}
	.st4{fill:#FEE75C;}
	.st5{fill:#EB459E;}
	.st6{fill:#5865F2;}
	.st7{fill:#57F287;}
	.st8{fill:#F6F6F6;}
	.st9{fill:#4FDC7C;}
	.st10{opacity:0.24;fill:#B9BBBE;enable-background:new    ;}
</style>
<path class="st1" d="M770.5,480.6H785v6.7h-14.5V480.6z M775.4,508.4c-1.3-1.7-2-3.7-1.8-5.9V472h7.8v28.6c0,0.6,0.1,1.2,0.4,1.7
	c0.3,0.4,0.8,0.6,1.2,0.6h1.9v7.5h-3.9C778.5,510.4,776.6,509.7,775.4,508.4L775.4,508.4z"/>
<path class="st1" d="M791.8,480.6h8.3v29.6h-8.4L791.8,480.6z M807.1,488c-0.6-0.2-1.3-0.3-1.9-0.3c-1.4-0.1-2.7,0.5-3.7,1.5
	c-0.9,1.2-1.4,2.7-1.3,4.2l-0.6-7.7c0.7-1.6,1.8-3,3.2-4.1c1.2-1,2.7-1.5,4.3-1.5c1.1,0,2.3,0.2,3.3,0.6c1,0.4,1.9,1,2.6,1.7
	l-4.6,6.4C808.1,488.5,807.6,488.2,807.1,488z"/>
<path class="st1" d="M824.6,498.6c-0.1,1.2,0.4,2.4,1.2,3.3c0.9,0.8,2.2,1.3,3.4,1.2c1.2,0.1,2.5-0.3,3.4-1.2c0.8-1,1.3-2.2,1.2-3.5
	l0.4,6.5c-0.5,1.6-1.5,3-2.8,4.1c-1.3,1.1-3,1.7-4.7,1.7c-2.8,0.2-5.5-1-7.4-3.1c-1.7-2-2.6-4.9-2.6-8.7v-18.3h7.8L824.6,498.6z
	 M833.8,480.6h7.8v29.6h-7.8V480.6z"/>
<path class="st1" d="M855.4,510.2c-1.6-0.3-3.2-0.8-4.7-1.4c-1.4-0.6-2.7-1.3-3.9-2.2l4.8-6c1.4,0.9,2.9,1.6,4.5,2.1
	c1.4,0.5,2.9,0.7,4.5,0.8c1.4,0.1,2.9-0.2,4.2-0.6c1-0.4,1.5-1,1.5-1.7c0-0.6-0.2-1.1-0.7-1.5c-0.5-0.4-1.1-0.6-1.7-0.7
	c-1-0.2-1.9-0.3-2.9-0.4l-1-0.1l-1.1-0.1h-0.2h-0.2c-1.8-0.2-3.6-0.5-5.3-1c-1.4-0.4-2.5-1.3-3.4-2.4c-1-1.5-1.5-3.3-1.4-5.2
	c-0.2-3.7,2.1-7,5.6-8.3c2.1-0.8,4.3-1.2,6.6-1.1c1.5,0,3,0.2,4.5,0.5c1.5,0.3,2.9,0.7,4.3,1.3c1.3,0.6,2.6,1.2,3.8,2.1l-4.7,5.7
	c-1.3-0.7-2.6-1.3-4-1.7c-1.3-0.4-2.6-0.6-4-0.6c-1.2-0.1-2.5,0.1-3.7,0.5c-0.9,0.4-1.3,0.9-1.3,1.5c0,0.5,0.3,0.9,0.7,1.2
	c0.5,0.3,1.1,0.5,1.7,0.6c0.7,0.1,1.7,0.3,3,0.4l0.5,0l0.5,0.1c0.1,0,0.2,0,0.3,0c0.1,0,0.2,0,0.3,0c1.9,0.2,3.8,0.5,5.6,1
	c1.5,0.4,2.7,1.3,3.7,2.5c1.1,1.6,1.7,3.6,1.5,5.5c0.2,3.8-2.2,7.4-5.8,8.6c-2.2,0.8-4.5,1.2-6.9,1.2
	C858.9,510.7,857.2,510.5,855.4,510.2z"/>
<path class="st1" d="M877.3,480.6h14.5v6.7h-14.5V480.6z M882.2,508.4c-1.2-1.3-1.8-3.3-1.8-5.9V472h7.9v28.6c0,0.6,0.1,1.2,0.4,1.7
	c0.3,0.4,0.8,0.6,1.3,0.6h1.9v7.5h-3.9C885.3,510.4,883.4,509.7,882.2,508.4L882.2,508.4z"/>
<path class="st1" d="M678.5,1063.4c-0.1,1.2,0.4,2.4,1.2,3.3c0.9,0.8,2.2,1.3,3.4,1.2c1.2,0.1,2.5-0.4,3.4-1.2
	c0.8-1,1.3-2.2,1.2-3.5l0.4,6.5c-0.5,1.6-1.5,3-2.8,4.1c-1.3,1.1-3,1.7-4.7,1.7c-2.8,0.2-5.5-1-7.4-3.1c-1.7-2-2.6-4.9-2.6-8.7
	v-18.3h7.8L678.5,1063.4z M687.7,1045.4h7.8v29.6h-7.8V1045.4z"/>
<path class="st1" d="M703.2,1045.4h7.8v29.6h-7.8V1045.4z M720.3,1057c0.1-1.2-0.4-2.5-1.2-3.4c-1-0.9-2.2-1.3-3.5-1.2
	c-1.2-0.1-2.5,0.4-3.4,1.2c-0.8,0.9-1.3,2.2-1.2,3.4l-0.6-6.6c0.7-1.6,1.8-3.1,3.2-4.2c1.4-1,3-1.5,4.7-1.4c2.8-0.2,5.5,1,7.2,3.2
	c1.7,2.1,2.6,5.1,2.6,8.9v18h-7.8L720.3,1057z"/>
<path class="st1" d="M733.6,1045.4h14.5v6.7h-14.5V1045.4z M738.4,1073.1c-1.2-1.3-1.8-3.3-1.8-5.9v-30.5h7.8v28.6
	c0,0.6,0.1,1.2,0.4,1.7c0.3,0.4,0.8,0.6,1.3,0.6h1.9v7.5h-3.9C741.5,1075.1,739.6,1074.5,738.4,1073.1z"/>
<path class="st1" d="M754.9,1045.4h8.4v29.6h-8.4V1045.4z M770.2,1052.7c-0.6-0.2-1.3-0.3-1.9-0.3c-1.4-0.1-2.7,0.5-3.7,1.5
	c-0.9,1.2-1.4,2.7-1.3,4.2l-0.6-7.7c0.7-1.6,1.8-3,3.2-4.1c1.2-1,2.7-1.5,4.3-1.5c1.1,0,2.3,0.2,3.3,0.6c1,0.4,1.9,1,2.6,1.7
	l-4.6,6.4C771.2,1053.2,770.7,1052.9,770.2,1052.7L770.2,1052.7z"/>
<path class="st1" d="M787.7,1063.4c-0.1,1.2,0.3,2.5,1.2,3.4c0.9,0.8,2.2,1.3,3.4,1.2c1.2,0.1,2.5-0.4,3.4-1.2
	c0.8-1,1.3-2.2,1.2-3.5l0.4,6.5c-0.5,1.6-1.5,3-2.8,4.1c-1.3,1.1-3,1.7-4.7,1.7c-2.8,0.2-5.5-1-7.4-3.1c-1.7-2-2.6-4.9-2.6-8.7
	v-18.3h7.8L787.7,1063.4z M796.8,1045.4h7.8v29.6h-7.8L796.8,1045.4z"/>
<path class="st1" d="M818.5,1074.9c-1.6-0.3-3.2-0.8-4.7-1.4c-1.4-0.6-2.7-1.3-3.9-2.2l4.8-6c1.4,0.9,2.9,1.6,4.5,2.1
	c1.4,0.5,2.9,0.7,4.5,0.7c1.4,0.1,2.9-0.2,4.2-0.6c1-0.4,1.5-1,1.5-1.7c0-0.6-0.2-1.1-0.7-1.5c-0.5-0.4-1.1-0.6-1.7-0.7
	c-1-0.2-1.9-0.3-2.9-0.4l-1-0.1l-1.1-0.1h-0.2h-0.2c-1.8-0.2-3.6-0.6-5.3-1.1c-1.4-0.4-2.5-1.3-3.4-2.4c-1-1.5-1.5-3.3-1.4-5.2
	c-0.2-3.7,2.1-7.1,5.6-8.3c2.1-0.8,4.3-1.1,6.6-1.1c1.5,0,3,0.2,4.5,0.4c1.5,0.3,2.9,0.7,4.3,1.3c1.3,0.6,2.6,1.2,3.8,2.1l-4.7,5.7
	c-1.3-0.7-2.6-1.3-4-1.7c-1.3-0.4-2.6-0.6-4-0.6c-1.3,0-2.5,0.1-3.7,0.6c-0.9,0.4-1.3,0.9-1.3,1.5c0,0.5,0.3,0.9,0.7,1.2
	c0.5,0.3,1.1,0.5,1.7,0.6c0.7,0.1,1.7,0.3,3,0.4h0.5l0.5,0.1c0.1,0,0.2,0,0.3,0s0.2,0,0.3,0c1.9,0.2,3.8,0.5,5.6,1
	c1.5,0.4,2.8,1.3,3.7,2.5c1.1,1.6,1.7,3.6,1.5,5.5c0.2,3.8-2.2,7.3-5.8,8.6c-2.2,0.8-4.5,1.2-6.9,1.2
	C822,1075.4,820.2,1075.2,818.5,1074.9z"/>
<path class="st1" d="M840.4,1045.4h14.5v6.7h-14.5V1045.4z M845.2,1073.1c-1.3-1.7-2-3.8-1.8-5.9v-30.5h7.8v28.6
	c0,0.6,0.1,1.2,0.4,1.7c0.3,0.4,0.8,0.6,1.2,0.6h2v7.5h-3.9C848.3,1075.1,846.4,1074.5,845.2,1073.1z"/>
<path class="st1" d="M174.5,675.6c-0.1,1.2,0.4,2.4,1.2,3.3c0.9,0.8,2.2,1.3,3.4,1.2c1.2,0.1,2.5-0.4,3.4-1.2
	c0.8-0.9,1.3-2.2,1.2-3.5l0.4,6.5c-0.5,1.6-1.5,3-2.8,4.1c-1.3,1.1-3,1.7-4.7,1.7c-2.8,0.2-5.5-1-7.4-3.1c-1.7-2-2.6-4.9-2.6-8.7
	v-18.3h7.8V675.6z M183.7,657.6h7.8v29.6h-7.8V657.6z"/>
<path class="st1" d="M199.2,657.6h7.8v29.6h-7.8V657.6z M216.3,669.3c0.1-1.2-0.4-2.5-1.2-3.4c-1-0.9-2.2-1.3-3.5-1.2
	c-1.2-0.1-2.5,0.4-3.4,1.2c-0.8,0.9-1.3,2.2-1.2,3.4l-0.6-6.6c0.7-1.6,1.8-3.1,3.2-4.2c1.4-1,3-1.5,4.7-1.4c2.8-0.1,5.5,1,7.2,3.2
	c1.7,2.1,2.6,5.1,2.6,8.9v18h-7.8V669.3z"/>
<path class="st1" d="M231.8,645.7h7.8v41.5h-7.8V645.7z M242,686.3c-1.3-0.9-2.3-2.2-2.8-3.8l0.4-6.8c0,0.9,0.2,1.7,0.5,2.5
	c0.3,0.7,0.9,1.2,1.5,1.6c0.7,0.4,1.6,0.6,2.4,0.5c1.3,0.1,2.6-0.5,3.4-1.5c0.9-1.2,1.3-2.6,1.2-4.1v-4.7c0.1-1.5-0.3-3-1.2-4.2
	c-0.8-1-2.1-1.6-3.4-1.5c-0.8,0-1.6,0.2-2.4,0.6c-0.7,0.4-1.2,0.9-1.5,1.6c-0.4,0.8-0.5,1.7-0.5,2.6l-0.6-6.6c0.7-1.6,1.8-3,3.1-4
	c1.3-0.9,2.8-1.4,4.3-1.4c3.9-0.2,7.5,2.2,8.8,5.9c0.8,2.2,1.2,4.6,1.2,7v4.7c0.1,2.4-0.3,4.7-1.2,6.9c-1.3,3.7-4.9,6.1-8.8,5.9
	C244.9,687.7,243.3,687.2,242,686.3L242,686.3z"/>
<path class="st1" d="M271.4,677.4c0,0.6,0.2,1.2,0.6,1.7c0.5,0.4,1.1,0.6,1.8,0.6h1.3v7.5h-4c-2.1,0.1-4.1-0.6-5.5-2.1
	c-1.4-1.6-2.1-3.7-2-5.8v-33.7h7.8L271.4,677.4z"/>
<path class="st1" d="M285.5,686.1c-1.9-1-3.4-2.5-4.4-4.4c-1-2.2-1.6-4.6-1.5-7v-4.8c-0.1-2.4,0.4-4.7,1.5-6.9
	c1-1.9,2.5-3.4,4.4-4.4c4.4-2,9.4-2,13.8,0c1.9,1,3.4,2.5,4.4,4.4c1.1,2.1,1.6,4.5,1.5,6.9v4.9c0.1,2.4-0.4,4.8-1.5,6.9
	c-1,1.9-2.5,3.4-4.4,4.4C295,688.2,289.9,688.2,285.5,686.1L285.5,686.1z M296.1,678.7c0.9-1.1,1.4-2.5,1.3-3.9v-4.9
	c0.1-1.4-0.4-2.8-1.3-3.8c-1-1-2.3-1.5-3.7-1.4c-1.4-0.1-2.7,0.4-3.6,1.4c-0.9,1.1-1.4,2.4-1.3,3.8v4.9c-0.1,1.4,0.4,2.8,1.3,3.9
	c1,1,2.3,1.5,3.6,1.4C293.8,680.2,295.1,679.7,296.1,678.7L296.1,678.7z"/>
<path class="st1" d="M317.6,686c-2-1-3.6-2.7-4.6-4.7c-1.1-2.3-1.6-4.9-1.6-7.4v-3.2c-0.1-2.5,0.5-5.1,1.6-7.3c1-2,2.6-3.6,4.6-4.6
	c2.2-1.1,4.7-1.7,7.2-1.6c1.5,0,3.1,0.2,4.6,0.5c1.4,0.3,2.7,0.9,3.9,1.6c1.1,0.7,2.1,1.5,2.9,2.6l-5,4.9c-0.7-0.7-1.6-1.2-2.5-1.6
	c-1-0.4-2-0.5-3-0.5c-1.7-0.1-3.3,0.5-4.6,1.6c-1.1,1.2-1.7,2.8-1.6,4.5v3.2c-0.1,1.7,0.5,3.3,1.6,4.6c1.2,1.1,2.9,1.7,4.6,1.6
	c1.1,0,2.1-0.2,3.1-0.6c1-0.4,1.8-1,2.5-1.7l5,5.2c-0.8,1-1.8,1.9-2.9,2.5c-1.2,0.7-2.5,1.2-3.9,1.6c-1.5,0.4-3,0.6-4.6,0.5
	C322.4,687.7,319.9,687.2,317.6,686z"/>
<path class="st1" d="M341.4,645.7h7.8v41.5h-7.8V645.7z M345.1,676.5l13.8-19h8.3l-21,27.6L345.1,676.5z M352.1,671.9l6.5-3.9
	l10.1,19.2h-9L352.1,671.9z"/>
<path class="st1" d="M935.7,1089.3h7.8v41.5h-7.8V1089.3z M946,1129.9c-1.3-0.9-2.3-2.2-2.8-3.8l0.4-6.8c0,0.9,0.1,1.7,0.5,2.5
	c0.3,0.7,0.8,1.2,1.5,1.6c0.7,0.4,1.6,0.6,2.4,0.5c1.3,0.1,2.6-0.5,3.4-1.4c0.9-1.2,1.3-2.6,1.2-4.1v-4.7c0.1-1.5-0.3-3-1.2-4.2
	c-0.8-1-2.1-1.6-3.4-1.5c-0.8,0-1.6,0.2-2.4,0.6c-0.7,0.4-1.2,0.9-1.5,1.6c-0.4,0.8-0.5,1.7-0.5,2.6l-0.6-6.6c0.7-1.6,1.8-3,3.2-4
	c1.3-0.9,2.8-1.4,4.3-1.4c3.9-0.2,7.5,2.2,8.8,5.9c0.8,2.2,1.2,4.6,1.2,7v4.7c0.1,2.4-0.3,4.7-1.2,6.9c-1.3,3.7-4.9,6.1-8.8,5.9
	C948.8,1131.3,947.3,1130.8,946,1129.9L946,1129.9z"/>
<path class="st1" d="M975.3,1121c0,0.6,0.2,1.2,0.6,1.7c0.5,0.4,1.1,0.6,1.8,0.6h1.3v7.5h-4c-2,0.1-4.1-0.6-5.5-2
	c-1.4-1.6-2.1-3.7-2-5.8v-33.6h7.8L975.3,1121z"/>
<path class="st1" d="M989.5,1129.7c-1.9-1-3.4-2.5-4.4-4.4c-1.1-2.2-1.6-4.6-1.5-7v-4.8c-0.1-2.4,0.4-4.7,1.5-6.9
	c1-1.9,2.5-3.4,4.4-4.4c4.4-2,9.4-2,13.8,0c1.9,1,3.4,2.5,4.4,4.4c1.1,2.1,1.6,4.5,1.5,6.9v4.9c0.1,2.4-0.4,4.8-1.5,6.9
	c-1,1.9-2.5,3.4-4.4,4.4C998.9,1131.7,993.8,1131.7,989.5,1129.7L989.5,1129.7z M1000,1122.3c0.9-1.1,1.4-2.5,1.3-3.9v-4.9
	c0.1-1.4-0.4-2.8-1.3-3.8c-1-1-2.3-1.4-3.7-1.4c-1.4-0.1-2.7,0.4-3.6,1.4c-0.9,1.1-1.4,2.4-1.3,3.8v4.9c-0.1,1.4,0.4,2.8,1.3,3.9
	c1,1,2.3,1.5,3.7,1.4C997.7,1123.8,999.1,1123.3,1000,1122.3L1000,1122.3z"/>
<path class="st1" d="M1021.6,1129.6c-2-1-3.6-2.7-4.6-4.7c-1.1-2.3-1.6-4.9-1.6-7.4v-3.2c-0.1-2.5,0.5-5.1,1.6-7.3
	c1-2,2.6-3.6,4.6-4.6c2.2-1.1,4.7-1.7,7.2-1.6c1.5,0,3.1,0.2,4.6,0.6c1.4,0.3,2.7,0.9,3.9,1.6c1.1,0.7,2.1,1.5,2.8,2.6l-5,4.9
	c-0.7-0.7-1.6-1.2-2.5-1.6c-1-0.4-2-0.6-3.1-0.6c-1.7-0.1-3.3,0.5-4.6,1.6c-1.1,1.2-1.7,2.8-1.6,4.5v3.2c-0.1,1.7,0.5,3.3,1.6,4.6
	c1.2,1.1,2.9,1.7,4.6,1.6c1.1,0,2.1-0.2,3.1-0.6c0.9-0.4,1.8-1,2.5-1.7l5,5.2c-0.8,1-1.8,1.9-2.9,2.5c-1.2,0.7-2.5,1.3-3.8,1.6
	c-1.5,0.4-3,0.5-4.6,0.5C1026.3,1131.3,1023.8,1130.7,1021.6,1129.6z"/>
<path class="st1" d="M1045.4,1089.3h7.8v41.5h-7.8V1089.3z M1049,1120.1l13.8-18.9h8.3l-21,27.6L1049,1120.1z M1056,1115.5l6.4-3.9
	l10.1,19.2h-9L1056,1115.5z"/>
<path class="st1" d="M352.1,540.8c-0.1,1.2,0.4,2.4,1.2,3.3c0.9,0.8,2.2,1.3,3.4,1.2c1.2,0.1,2.5-0.4,3.4-1.2
	c0.8-0.9,1.3-2.2,1.2-3.5l0.4,6.5c-0.5,1.6-1.5,3-2.8,4.1c-1.3,1.1-3,1.7-4.7,1.7c-2.8,0.2-5.5-1-7.4-3.1c-1.7-2-2.6-4.9-2.6-8.7
	v-18.3h7.8V540.8z M361.2,522.8h7.8v29.6h-7.8V522.8z"/>
<path class="st1" d="M382.9,552.4c-1.6-0.3-3.2-0.8-4.7-1.4c-1.4-0.6-2.7-1.3-3.9-2.2l4.8-6c1.4,0.9,2.9,1.6,4.5,2.1
	c1.4,0.5,2.9,0.7,4.5,0.7c1.4,0.1,2.9-0.1,4.2-0.6c1-0.4,1.5-1,1.5-1.7c0-0.6-0.2-1.1-0.6-1.5c-0.5-0.4-1.1-0.6-1.7-0.7
	c-0.7-0.1-1.6-0.3-2.9-0.4l-1-0.1l-1.1-0.1h-0.2H386c-1.8-0.2-3.6-0.6-5.3-1.1c-1.4-0.4-2.5-1.3-3.4-2.4c-1-1.5-1.5-3.3-1.4-5.2
	c-0.2-3.7,2.1-7.1,5.6-8.3c2.1-0.8,4.3-1.2,6.6-1.1c1.5,0,3,0.2,4.5,0.5c1.5,0.3,2.9,0.7,4.3,1.3c1.3,0.5,2.6,1.2,3.8,2L396,532
	c-1.3-0.7-2.6-1.3-4-1.7c-1.3-0.4-2.7-0.6-4-0.6c-1.2-0.1-2.5,0.1-3.7,0.5c-0.9,0.4-1.3,0.9-1.3,1.5c0,0.5,0.3,0.9,0.7,1.2
	c0.5,0.3,1.1,0.5,1.7,0.6c0.7,0.1,1.7,0.3,3,0.4l0.5,0.1l0.5,0c0.1,0,0.2,0,0.3,0c0.1,0,0.2,0,0.3,0c1.9,0.2,3.8,0.5,5.6,1
	c1.5,0.4,2.8,1.3,3.7,2.5c1.1,1.6,1.7,3.6,1.5,5.5c0.2,3.8-2.2,7.3-5.8,8.6c-2.2,0.8-4.5,1.2-6.9,1.2
	C386.3,552.8,384.6,552.7,382.9,552.4z"/>
<path class="st1" d="M412.4,551.3c-2-1-3.6-2.6-4.6-4.6c-1.1-2.2-1.7-4.7-1.6-7.2v-3.3c-0.1-2.6,0.4-5.1,1.5-7.5
	c1-2,2.5-3.7,4.5-4.7c2.2-1.1,4.6-1.7,7.1-1.6c2.4-0.1,4.7,0.6,6.6,1.9c1.9,1.4,3.4,3.4,4.2,5.6c1,2.9,1.5,5.9,1.4,8.9v1.9h-20.3
	v-5.2h13.1l-0.1-0.7c-0.1-1.5-0.7-2.9-1.6-4c-0.9-0.9-2.2-1.5-3.5-1.4c-1.6-0.1-3.2,0.5-4.4,1.7c-1.1,1.3-1.7,3-1.6,4.8v3.8
	c-0.1,1.7,0.5,3.4,1.7,4.7c1.3,1.2,3,1.8,4.8,1.7c1.1,0,2.1-0.2,3.1-0.6c1-0.4,2-0.9,2.8-1.6l5.1,4.5c-1.5,1.4-3.3,2.5-5.2,3.3
	c-1.8,0.8-3.8,1.2-5.8,1.2C417.2,552.9,414.7,552.4,412.4,551.3z"/>
<path class="st1" d="M438.4,522.8h8.4v29.6h-8.4V522.8z M453.6,530.2c-0.6-0.2-1.3-0.3-1.9-0.3c-1.4-0.1-2.7,0.5-3.7,1.5
	c-0.9,1.2-1.4,2.7-1.3,4.2l-0.6-7.7c0.7-1.6,1.8-3,3.2-4.1c1.2-1,2.7-1.5,4.3-1.5c1.1,0,2.3,0.2,3.4,0.6c1,0.4,1.9,1,2.6,1.7
	L455,531C454.6,530.7,454.1,530.4,453.6,530.2z"/>
<path class="st1" d="M469.4,552.4c-1.6-0.3-3.2-0.8-4.7-1.4c-1.4-0.6-2.7-1.3-3.9-2.2l4.8-6c1.4,0.9,2.9,1.6,4.5,2.1
	c1.4,0.5,2.9,0.7,4.5,0.7c1.4,0.1,2.9-0.1,4.2-0.6c1-0.4,1.5-1,1.5-1.7c0-0.6-0.2-1.1-0.7-1.5c-0.5-0.4-1.1-0.6-1.7-0.7
	c-0.7-0.1-1.7-0.3-2.9-0.4l-1-0.1l-1.1-0.1h-0.2h-0.2c-1.8-0.2-3.6-0.6-5.3-1.1c-1.4-0.4-2.5-1.3-3.4-2.4c-1-1.5-1.5-3.3-1.4-5.2
	c-0.2-3.7,2.1-7.1,5.6-8.3c2.1-0.8,4.3-1.2,6.6-1.1c1.5,0,3,0.2,4.5,0.5c1.5,0.3,2.9,0.7,4.3,1.3c1.3,0.5,2.6,1.2,3.8,2l-4.7,5.7
	c-1.3-0.7-2.6-1.3-4-1.7c-1.3-0.4-2.6-0.6-4-0.6c-1.2-0.1-2.5,0.1-3.7,0.5c-0.9,0.4-1.3,0.9-1.3,1.5c0,0.5,0.3,0.9,0.7,1.2
	c0.5,0.3,1.1,0.5,1.7,0.6c0.7,0.1,1.7,0.3,3,0.4l0.5,0.1l0.5,0c0.1,0,0.2,0,0.3,0c0.1,0,0.2,0,0.2,0c1.9,0.2,3.8,0.5,5.6,1
	c1.5,0.4,2.8,1.3,3.7,2.5c1.1,1.6,1.7,3.6,1.5,5.5c0.2,3.8-2.2,7.4-5.8,8.6c-2.2,0.8-4.5,1.2-6.9,1.2
	C472.9,552.8,471.2,552.7,469.4,552.4z"/>
<path class="st1" d="M1118.5,1009.2h7.8v41.5h-7.8V1009.2z M1128.7,1049.7c-1.3-0.9-2.3-2.2-2.8-3.8l0.4-6.8c0,0.9,0.2,1.7,0.5,2.5
	c0.3,0.7,0.8,1.2,1.5,1.6c0.7,0.4,1.6,0.6,2.4,0.5c1.3,0.1,2.6-0.5,3.4-1.5c0.9-1.2,1.3-2.6,1.2-4.1v-4.7c0.1-1.5-0.3-3-1.2-4.2
	c-0.8-1-2.1-1.6-3.4-1.5c-0.8,0-1.6,0.2-2.4,0.6c-0.7,0.4-1.2,0.9-1.5,1.6c-0.4,0.8-0.5,1.7-0.5,2.6l-0.6-6.6c0.7-1.6,1.8-3,3.2-4
	c1.2-0.9,2.8-1.4,4.3-1.4c3.9-0.2,7.5,2.2,8.8,5.9c0.8,2.2,1.2,4.6,1.2,7v4.7c0.1,2.4-0.3,4.7-1.2,6.9c-1.3,3.7-4.9,6.1-8.8,5.9
	C1131.6,1051.1,1130,1050.6,1128.7,1049.7L1128.7,1049.7z"/>
<path class="st1" d="M1149.9,1009.2h7.8v7.8h-7.8V1009.2z M1149.9,1021h7.8v29.6h-7.8V1021z"/>
<path class="st1" d="M1162.6,1021h14.5v6.7h-14.5V1021z M1167.5,1048.8c-1.2-1.3-1.8-3.3-1.8-5.9v-30.5h7.8v28.6
	c0,0.6,0.1,1.2,0.4,1.7c0.3,0.4,0.8,0.6,1.2,0.6h1.9v7.5h-3.9C1170.6,1050.8,1168.7,1050.1,1167.5,1048.8z"/>
<path class="st1" d="M1184,1021h8.4v29.6h-8.4V1021z M1199.2,1028.4c-0.6-0.2-1.3-0.3-1.9-0.3c-1.4-0.1-2.7,0.5-3.7,1.5
	c-0.9,1.2-1.4,2.7-1.3,4.2l-0.6-7.7c0.7-1.6,1.8-3,3.2-4.1c1.2-1,2.7-1.5,4.3-1.5c1.1,0,2.3,0.2,3.4,0.6c1,0.4,1.9,1,2.6,1.7
	l-4.6,6.4C1200.2,1028.9,1199.8,1028.6,1199.2,1028.4z"/>
<path class="st1" d="M1209.9,1048.8c-1.6-1.5-2.3-3.8-2.3-6.9c0-2.9,0.9-5.1,2.6-6.6c1.8-1.5,4.4-2.2,7.9-2.2h7.4l0.4,6h-7.8
	c-0.9-0.1-1.9,0.2-2.7,0.7c-0.6,0.5-0.9,1.3-0.9,2.1c-0.1,0.9,0.4,1.7,1.1,2.2c1,0.5,2.2,0.8,3.4,0.7c1.6,0.1,3.2-0.2,4.7-0.7
	c0.9-0.3,1.5-1.2,1.5-2.2l0.6,4.3c-0.1,1.1-0.6,2-1.5,2.7c-0.9,0.8-2.1,1.4-3.2,1.7c-1.3,0.4-2.7,0.6-4.1,0.6
	C1213.8,1051.1,1211.4,1050.3,1209.9,1048.8z M1225.2,1031.9c0.1-1.2-0.4-2.4-1.4-3.2c-1.1-0.8-2.5-1.2-3.9-1.1
	c-1.1,0-2.2,0.2-3.3,0.5c-1,0.3-2,0.8-2.9,1.5l-4.8-4.8c1.3-1.4,2.9-2.5,4.7-3.2c2.1-0.8,4.2-1.1,6.4-1.1c2.3-0.1,4.5,0.4,6.6,1.3
	c1.7,0.8,3.2,2.1,4.2,3.8c1,1.8,1.5,3.9,1.4,5.9v19h-7.1V1031.9z"/>
<path class="st1" d="M1237.7,1021h14.5v6.7h-14.5V1021z M1242.6,1048.8c-1.2-1.3-1.8-3.3-1.8-5.9v-30.5h7.8v28.6
	c0,0.6,0.1,1.2,0.4,1.7c0.3,0.4,0.8,0.6,1.2,0.6h1.9v7.5h-3.9C1245.7,1050.8,1243.8,1050.1,1242.6,1048.8z"/>
<path class="st1" d="M1264.4,1049.5c-2-1-3.6-2.6-4.6-4.5c-1.1-2.2-1.7-4.7-1.6-7.2v-3.3c-0.1-2.6,0.5-5.2,1.5-7.5
	c1-2,2.5-3.7,4.4-4.7c2.2-1.1,4.6-1.7,7.1-1.6c2.4-0.1,4.7,0.6,6.7,1.9c1.9,1.4,3.4,3.4,4.2,5.6c1,2.9,1.5,5.9,1.4,8.9v1.9h-20.3
	v-5.3h13.1l-0.1-0.7c-0.1-1.5-0.7-2.9-1.6-4c-0.9-0.9-2.2-1.5-3.5-1.4c-1.6-0.1-3.2,0.5-4.4,1.7c-1.1,1.3-1.7,3-1.6,4.8v3.8
	c-0.1,1.7,0.5,3.4,1.7,4.7c1.3,1.2,3,1.8,4.8,1.7c1.1,0,2.1-0.2,3.1-0.6c1-0.4,2-0.9,2.8-1.6l5.1,4.5c-1.5,1.4-3.3,2.5-5.2,3.3
	c-1.8,0.8-3.8,1.1-5.8,1.2C1269.2,1051.1,1266.7,1050.6,1264.4,1049.5z"/>
<path class="st1" d="M340.9,872.4c0,0.6,0.2,1.2,0.6,1.7c0.5,0.4,1.1,0.6,1.8,0.6h1.3v7.5h-4c-2.1,0.1-4.1-0.6-5.5-2.1
	c-1.4-1.6-2.1-3.7-2-5.8v-33.6h7.8L340.9,872.4z"/>
<path class="st1" d="M349.6,840.7h7.8v7.8h-7.8V840.7z M349.6,852.5h7.8v29.6h-7.8V852.5z"/>
<path class="st1" d="M364.7,852.5h7.8v29.6h-7.8V852.5z M381.9,865.1c0.1-1.4-0.4-2.9-1.3-4c-0.9-1-2.3-1.5-3.6-1.4
	c-1.2-0.1-2.4,0.4-3.4,1.2c-0.8,0.9-1.3,2.2-1.2,3.4l-0.6-6.5c0.7-1.6,1.9-3.1,3.3-4.2c1.3-1,3-1.5,4.6-1.4c3.9-0.2,7.5,2.2,8.8,5.9
	c0.8,2.2,1.2,4.6,1.2,7v17.1h-7.8L381.9,865.1z M399.2,865.1c0.1-1.4-0.3-2.9-1.2-4c-2-1.9-5-1.9-7-0.1c-0.9,1.1-1.3,2.5-1.2,3.8
	l-1.5-6.8c0.8-1.7,2.1-3.2,3.6-4.3c1.5-1,3.2-1.5,5-1.5c1.9-0.1,3.8,0.5,5.5,1.5c1.6,1.1,2.8,2.6,3.5,4.4c0.8,2.2,1.2,4.6,1.2,7
	v17.1h-7.8L399.2,865.1z"/>
<path class="st1" d="M414.3,840.7h7.8v7.8h-7.8V840.7z M414.3,852.5h7.8v29.6h-7.8V852.5z"/>
<path class="st1" d="M427.1,852.5h14.5v6.7h-14.5V852.5z M432,880.3c-1.3-1.7-2-3.8-1.8-5.9v-30.5h7.8v28.6c0,0.6,0.1,1.2,0.4,1.7
	c0.3,0.4,0.8,0.6,1.2,0.6h1.9v7.5h-3.9C435.1,882.3,433.2,881.6,432,880.3z"/>
<path class="st1" d="M1298.3,906.4h7.8V936h-7.8V906.4z M1315.4,918.1c0.1-1.2-0.4-2.5-1.2-3.4c-1-0.8-2.2-1.3-3.5-1.2
	c-1.2-0.1-2.5,0.4-3.3,1.2c-0.8,0.9-1.3,2.2-1.2,3.4l-0.6-6.6c0.7-1.6,1.8-3.1,3.2-4.2c1.4-1,3-1.5,4.7-1.4c2.8-0.2,5.5,1,7.2,3.2
	c1.7,2.1,2.6,5.1,2.6,8.9v18h-7.8V918.1z"/>
<path class="st1" d="M1331.9,934.2c-1.6-1.5-2.3-3.8-2.3-6.9c0-2.9,0.9-5.1,2.6-6.6c1.8-1.5,4.4-2.2,7.9-2.2h7.4l0.4,6h-7.8
	c-0.9-0.1-1.9,0.2-2.7,0.7c-0.6,0.5-0.9,1.3-0.9,2.1c-0.1,0.9,0.4,1.7,1.1,2.2c1,0.5,2.2,0.8,3.4,0.7c1.6,0.1,3.2-0.2,4.7-0.7
	c0.9-0.3,1.5-1.2,1.5-2.2l0.6,4.3c-0.1,1.1-0.6,2-1.5,2.7c-0.9,0.8-2.1,1.4-3.2,1.7c-1.3,0.4-2.7,0.6-4.1,0.5
	C1335.9,936.5,1333.5,935.7,1331.9,934.2z M1347.2,917.3c0.1-1.2-0.4-2.4-1.4-3.2c-1.1-0.8-2.5-1.2-3.9-1.1c-1.1,0-2.2,0.2-3.3,0.5
	c-1,0.3-2,0.8-2.9,1.5l-4.8-4.8c1.3-1.4,2.9-2.5,4.7-3.2c2.1-0.8,4.2-1.2,6.4-1.1c2.3-0.1,4.5,0.4,6.6,1.3c1.7,0.8,3.2,2.1,4.2,3.8
	c1,1.8,1.5,3.9,1.4,6v19h-7.1V917.3z"/>
<path class="st1" d="M1362.1,906.4h7.8V936h-7.8L1362.1,906.4z M1379.3,919c0.1-1.4-0.4-2.9-1.3-4c-0.9-1-2.3-1.5-3.6-1.4
	c-1.2-0.1-2.4,0.4-3.3,1.2c-0.8,0.9-1.3,2.2-1.2,3.4l-0.6-6.6c0.7-1.6,1.9-3.1,3.3-4.2c1.3-1,3-1.5,4.6-1.4c3.9-0.2,7.5,2.2,8.8,5.9
	c0.8,2.2,1.2,4.6,1.2,7v17.1h-7.8L1379.3,919z M1396.6,919c0.1-1.4-0.3-2.9-1.2-4c-2-1.9-5-1.9-7-0.1c-0.9,1.1-1.3,2.5-1.2,3.8
	l-1.5-6.8c0.8-1.7,2.1-3.2,3.6-4.3c1.5-1,3.2-1.5,5-1.5c1.9-0.1,3.8,0.5,5.5,1.5c1.6,1.1,2.8,2.6,3.4,4.4c0.8,2.2,1.2,4.6,1.2,7
	v17.1h-7.8L1396.6,919z"/>
<path class="st1" d="M1417.5,934.9c-2-1-3.6-2.6-4.6-4.5c-1.1-2.2-1.7-4.7-1.6-7.2v-3.3c-0.1-2.6,0.5-5.2,1.5-7.5
	c1-2,2.5-3.7,4.4-4.7c2.2-1.1,4.6-1.7,7.1-1.6c2.4-0.1,4.7,0.6,6.7,1.9c1.9,1.4,3.4,3.4,4.2,5.6c1,2.9,1.5,5.9,1.4,8.9v1.9h-20.3
	v-5.3h13.1l-0.1-0.7c-0.1-1.5-0.7-2.9-1.6-4c-0.9-0.9-2.2-1.5-3.5-1.4c-1.6-0.1-3.2,0.5-4.4,1.7c-1.1,1.3-1.7,3-1.6,4.8v3.8
	c-0.1,1.7,0.5,3.4,1.7,4.7c1.3,1.2,3,1.8,4.8,1.7c1.1,0,2.1-0.2,3.1-0.5c1-0.4,2-0.9,2.8-1.6l5.1,4.5c-1.5,1.4-3.3,2.5-5.2,3.3
	c-1.8,0.8-3.8,1.1-5.8,1.2C1422.3,936.5,1419.8,936,1417.5,934.9z"/>
<path class="st1" d="M459.1,1124.6c-2-1.1-3.6-2.7-4.6-4.7c-1.1-2.3-1.6-4.9-1.6-7.4v-3.2c-0.1-2.5,0.5-5.1,1.6-7.3
	c1-2,2.6-3.6,4.6-4.6c2.2-1.1,4.7-1.7,7.2-1.6c1.5,0,3.1,0.2,4.6,0.6c1.4,0.3,2.7,0.9,3.9,1.6c1.1,0.7,2.1,1.5,2.8,2.6l-5,4.9
	c-0.7-0.7-1.6-1.2-2.5-1.6c-1-0.4-2-0.6-3-0.6c-1.7-0.1-3.3,0.5-4.6,1.6c-1.1,1.2-1.7,2.8-1.6,4.5v3.2c-0.1,1.7,0.5,3.3,1.6,4.6
	c1.2,1.1,2.9,1.7,4.6,1.6c1.1,0,2.1-0.2,3.1-0.6c0.9-0.4,1.8-1,2.5-1.7l5,5.2c-0.8,1-1.8,1.9-2.9,2.5c-1.2,0.7-2.5,1.3-3.8,1.6
	c-1.5,0.4-3,0.6-4.6,0.6C463.9,1126.3,461.4,1125.8,459.1,1124.6z"/>
<path class="st1" d="M490.8,1116c0,0.6,0.2,1.2,0.6,1.7c0.5,0.4,1.1,0.6,1.8,0.6h1.3v7.5h-4c-2,0.1-4-0.6-5.5-2
	c-1.4-1.6-2.1-3.7-2-5.8v-33.7h7.8L490.8,1116z"/>
<path class="st1" d="M500.5,1124c-1.6-1.5-2.4-3.8-2.4-6.9c0-2.9,0.9-5.1,2.6-6.6s4.4-2.2,7.9-2.2h7.4l0.4,6h-7.8
	c-0.9-0.1-1.9,0.2-2.7,0.7c-0.6,0.5-0.9,1.3-0.9,2.1c-0.1,0.9,0.4,1.7,1.1,2.2c1,0.5,2.2,0.8,3.4,0.7c1.6,0.1,3.2-0.2,4.7-0.7
	c0.9-0.3,1.5-1.2,1.5-2.2l0.6,4.3c-0.1,1.1-0.6,2-1.5,2.7c-0.9,0.8-2.1,1.4-3.2,1.7c-1.3,0.4-2.7,0.6-4.1,0.6
	C504.5,1126.2,502.1,1125.5,500.5,1124z M515.9,1107c0.1-1.2-0.4-2.4-1.4-3.2c-1.1-0.8-2.5-1.2-3.9-1.1c-1.1,0-2.2,0.2-3.3,0.5
	c-1,0.3-2,0.9-2.9,1.5l-4.8-4.8c1.3-1.4,2.9-2.5,4.7-3.2c2.1-0.8,4.2-1.2,6.5-1.1c2.3-0.1,4.5,0.4,6.6,1.3c1.7,0.8,3.2,2.1,4.2,3.8
	c1,1.8,1.5,3.9,1.5,6v19h-7.1V1107z"/>
<path class="st1" d="M530.3,1084.3h7.8v7.8h-7.8V1084.3z M530.3,1096.2h7.8v29.6h-7.8V1096.2z"/>
<path class="st1" d="M545.3,1096.2h7.8v29.6h-7.8V1096.2z M562.6,1108.7c0.1-1.4-0.4-2.9-1.3-4c-0.9-1-2.3-1.5-3.6-1.4
	c-1.2-0.1-2.4,0.4-3.3,1.2c-0.8,0.9-1.3,2.2-1.2,3.4l-0.6-6.6c0.7-1.6,1.9-3.1,3.3-4.2c1.3-1,3-1.5,4.6-1.4c3.9-0.2,7.5,2.2,8.8,5.9
	c0.8,2.2,1.2,4.6,1.2,7v17.1h-7.8V1108.7z M579.9,1108.7c0.1-1.4-0.3-2.9-1.2-4c-2-1.9-5-1.9-7-0.1c-0.9,1.1-1.3,2.5-1.2,3.8
	l-1.5-6.8c0.8-1.7,2.1-3.2,3.6-4.4c1.5-1,3.2-1.5,5-1.5c1.9-0.1,3.8,0.5,5.5,1.5c1.6,1.1,2.8,2.6,3.5,4.4c0.8,2.2,1.2,4.6,1.2,7
	v17.1h-7.8V1108.7z"/>
<path class="st1" d="M537.4,584.8h14.5v6.7h-14.5V584.8z M542.3,612.6c-1.2-1.3-1.8-3.3-1.8-5.9v-30.5h7.8v28.6
	c0,0.6,0.1,1.2,0.4,1.7c0.3,0.4,0.8,0.6,1.3,0.6h1.9v7.5h-3.9C545.4,614.6,543.5,613.9,542.3,612.6z"/>
<path class="st1" d="M558.7,584.8h8.4v29.6h-8.4V584.8z M574,592.2c-0.6-0.2-1.3-0.3-1.9-0.3c-1.4-0.1-2.7,0.5-3.7,1.5
	c-0.9,1.2-1.4,2.7-1.3,4.2l-0.6-7.7c0.7-1.6,1.8-3,3.2-4.1c1.2-1,2.7-1.5,4.3-1.5c1.1,0,2.3,0.2,3.3,0.6c1,0.4,1.9,1,2.6,1.7
	l-4.6,6.4C575,592.7,574.5,592.4,574,592.2z"/>
<path class="st1" d="M584.6,612.6c-1.6-1.5-2.4-3.8-2.4-6.9c0-2.9,0.9-5.1,2.6-6.6s4.4-2.2,7.9-2.2h7.4l0.4,6h-7.8
	c-0.9-0.1-1.9,0.2-2.7,0.7c-0.6,0.5-1,1.3-0.9,2.1c-0.1,0.9,0.4,1.7,1.1,2.2c1,0.5,2.2,0.8,3.4,0.7c1.6,0.1,3.2-0.2,4.7-0.7
	c0.9-0.3,1.5-1.2,1.5-2.2l0.6,4.3c-0.1,1.1-0.6,2-1.5,2.7c-1,0.8-2.1,1.3-3.2,1.7c-1.3,0.4-2.7,0.6-4.1,0.6
	C588.5,614.9,586.2,614.1,584.6,612.6z M600,595.7c0.1-1.2-0.4-2.4-1.4-3.2c-1.1-0.8-2.5-1.2-3.9-1.1c-1.1,0-2.2,0.2-3.3,0.5
	c-1,0.3-2,0.9-2.9,1.5l-4.8-4.8c1.3-1.4,2.9-2.5,4.7-3.2c2.1-0.8,4.2-1.2,6.4-1.1c2.3-0.1,4.5,0.4,6.6,1.3c1.7,0.8,3.2,2.1,4.2,3.8
	c1,1.8,1.5,3.9,1.4,5.9v19H600V595.7z"/>
<path class="st1" d="M614.8,584.8h7.8v29.6h-7.8V584.8z M631.9,596.5c0.1-1.2-0.4-2.5-1.2-3.4c-1-0.9-2.2-1.3-3.5-1.2
	c-1.2-0.1-2.5,0.4-3.3,1.2c-0.8,0.9-1.3,2.2-1.2,3.4L622,590c0.7-1.6,1.8-3.1,3.2-4.2c1.4-1,3-1.5,4.7-1.4c2.8-0.2,5.5,1,7.2,3.2
	c1.7,2.1,2.6,5.1,2.6,8.9v18h-7.8L631.9,596.5z"/>
<path class="st1" d="M653.6,614.4c-1.6-0.3-3.2-0.8-4.7-1.4c-1.4-0.6-2.7-1.3-3.9-2.2l4.8-6c1.4,0.9,2.9,1.6,4.5,2.1
	c1.4,0.5,2.9,0.7,4.5,0.7c1.4,0.1,2.9-0.1,4.2-0.6c1-0.4,1.5-1,1.5-1.7c0-0.6-0.2-1.1-0.7-1.5c-0.5-0.4-1.1-0.6-1.7-0.7
	c-1-0.2-1.9-0.3-2.9-0.4l-1-0.1l-1.1-0.1H657h-0.2c-1.8-0.2-3.6-0.6-5.3-1c-1.3-0.4-2.5-1.3-3.4-2.4c-1-1.5-1.5-3.3-1.4-5.2
	c0-1.8,0.4-3.6,1.4-5.1c1-1.5,2.5-2.6,4.1-3.2c2.1-0.8,4.3-1.2,6.6-1.1c1.5,0,3,0.2,4.5,0.5c1.5,0.3,2.9,0.7,4.3,1.3
	c1.3,0.5,2.6,1.2,3.8,2l-4.7,5.7c-1.3-0.7-2.6-1.3-4-1.7c-1.3-0.4-2.7-0.6-4-0.6c-1.2-0.1-2.5,0.1-3.7,0.5c-0.9,0.4-1.3,0.9-1.3,1.5
	c0,0.5,0.3,0.9,0.7,1.2c0.5,0.3,1.1,0.5,1.7,0.6c0.7,0.1,1.7,0.3,3,0.4l0.5,0.1l0.5,0.1h0.3c0.1,0,0.2,0,0.2,0
	c1.9,0.2,3.8,0.5,5.6,1c1.5,0.4,2.8,1.3,3.7,2.5c1.1,1.6,1.7,3.6,1.5,5.5c0.2,3.8-2.2,7.4-5.8,8.6c-2.2,0.8-4.5,1.2-6.9,1.2
	C657,614.9,655.3,614.7,653.6,614.4z"/>
<path class="st1" d="M675.4,584.8h16v6.7h-16V584.8z M678.6,580.8c0-2.6,0.6-4.6,1.8-5.9s3.1-2,5.6-2h5.4v7h-3.3
	c-0.5,0-1,0.2-1.3,0.6c-0.3,0.5-0.5,1.1-0.4,1.6v32.3h-7.9L678.6,580.8z"/>
<path class="st1" d="M700.7,613.3c-2-1-3.6-2.6-4.6-4.5c-1.1-2.2-1.7-4.7-1.6-7.2v-3.3c-0.1-2.6,0.5-5.2,1.5-7.5
	c1-2,2.5-3.7,4.5-4.7c2.2-1.1,4.6-1.7,7-1.6c2.4-0.1,4.7,0.6,6.7,1.9c1.9,1.4,3.4,3.4,4.2,5.6c1,2.9,1.5,5.9,1.4,8.9v1.9h-20.2v-5.3
	h13.1l-0.1-0.7c-0.1-1.5-0.7-2.9-1.6-4c-0.9-0.9-2.2-1.5-3.5-1.4c-1.6-0.1-3.2,0.5-4.4,1.7c-1.1,1.3-1.7,3-1.5,4.8v3.8
	c-0.1,1.7,0.5,3.4,1.7,4.7c1.3,1.2,3,1.8,4.8,1.7c1.1,0,2.1-0.2,3.1-0.5c1-0.4,2-0.9,2.8-1.6l5.1,4.5c-1.5,1.4-3.3,2.5-5.2,3.3
	c-1.8,0.8-3.8,1.2-5.8,1.2C705.5,614.9,703,614.4,700.7,613.3z"/>
<path class="st1" d="M726.7,584.8h8.4v29.6h-8.4V584.8z M741.9,592.2c-0.6-0.2-1.3-0.3-1.9-0.3c-1.4-0.1-2.7,0.5-3.7,1.5
	c-0.9,1.2-1.4,2.7-1.3,4.2l-0.6-7.7c0.7-1.6,1.8-3,3.2-4.1c1.2-1,2.7-1.5,4.3-1.5c1.1,0,2.3,0.2,3.3,0.6c1,0.4,1.9,1,2.6,1.7
	l-4.6,6.4C743,592.7,742.5,592.4,741.9,592.2z"/>
<path class="st1" d="M1108.4,638.3h7.8V680h-7.8V638.3z M1118.6,667c-1.3-0.9-2.3-2.2-2.8-3.8l0.4-6.8c0,0.9,0.1,1.7,0.5,2.5
	c0.3,0.7,0.8,1.2,1.5,1.6c0.7,0.4,1.6,0.6,2.4,0.5c1.3,0.1,2.6-0.5,3.4-1.5c0.9-1.2,1.3-2.6,1.2-4.1v-4.7c0.1-1.5-0.3-3-1.2-4.2
	c-0.8-1-2.1-1.6-3.4-1.5c-0.8,0-1.6,0.2-2.4,0.6c-0.7,0.4-1.2,0.9-1.5,1.6c-0.4,0.8-0.5,1.7-0.5,2.6l-0.6-6.6c0.7-1.6,1.8-3,3.2-4
	c1.2-0.9,2.8-1.4,4.3-1.4c3.9-0.2,7.5,2.2,8.8,5.9c0.8,2.2,1.2,4.6,1.2,7v4.7c0.1,2.4-0.3,4.7-1.2,6.9c-1.3,3.7-4.9,6.1-8.8,5.9
	C1121.4,668.4,1119.9,667.9,1118.6,667z"/>
<path class="st1" d="M1140.1,638.3h8.4v29.6h-8.4V638.3z M1155.4,645.7c-0.6-0.2-1.3-0.3-1.9-0.3c-1.4-0.1-2.7,0.5-3.7,1.5
	c-0.9,1.2-1.4,2.7-1.3,4.2l-0.6-7.7c0.7-1.6,1.8-3,3.2-4.1c1.2-1,2.7-1.5,4.3-1.5c1.1,0,2.3,0.2,3.4,0.6c1,0.4,1.9,1,2.6,1.7
	l-4.6,6.4C1156.4,646.2,1155.9,645.9,1155.4,645.7z"/>
<path class="st1" d="M1164.6,626.4h7.8v7.8h-7.8V626.4z M1164.6,638.3h7.8v29.6h-7.8V638.3z"/>
<path class="st1" d="M1196.6,638.3h7.8l-11.1,29.6h-5.5l-11.1-29.6h7.8l6.1,18.6L1196.6,638.3z"/>
<path class="st1" d="M1209.9,666.1c-1.6-1.5-2.4-3.8-2.4-6.9c0-2.9,0.9-5.1,2.6-6.6c1.8-1.5,4.4-2.2,7.9-2.2h7.4l0.4,6h-7.8
	c-0.9-0.1-1.9,0.2-2.7,0.7c-0.6,0.5-0.9,1.3-0.9,2.1c-0.1,0.9,0.4,1.7,1.1,2.2c1,0.5,2.2,0.8,3.4,0.7c1.6,0.1,3.2-0.2,4.7-0.7
	c0.9-0.3,1.5-1.2,1.5-2.2l0.6,4.3c-0.1,1.1-0.6,2-1.5,2.7c-0.9,0.8-2.1,1.4-3.2,1.7c-1.3,0.4-2.7,0.6-4.1,0.6
	C1213.8,668.4,1211.4,667.6,1209.9,666.1z M1225.2,649.2c0.1-1.2-0.4-2.4-1.4-3.2c-1.1-0.8-2.5-1.2-3.9-1.1c-1.1,0-2.2,0.2-3.3,0.5
	c-1,0.3-2,0.9-2.9,1.5l-4.8-4.8c1.3-1.4,2.9-2.5,4.7-3.2c2.1-0.8,4.2-1.2,6.4-1.1c2.3-0.1,4.5,0.4,6.6,1.3c1.7,0.8,3.2,2.1,4.2,3.8
	c1,1.8,1.5,3.9,1.4,6v19h-7.1V649.2z"/>
<path class="st1" d="M1245.3,666.8c-2-1-3.6-2.7-4.6-4.7c-1.1-2.3-1.6-4.9-1.6-7.4v-3.2c-0.1-2.5,0.5-5.1,1.6-7.3
	c1-2,2.6-3.6,4.6-4.6c2.2-1.1,4.7-1.7,7.2-1.6c1.5,0,3.1,0.2,4.6,0.6c1.4,0.3,2.7,0.9,3.9,1.6c1.1,0.7,2.1,1.5,2.8,2.6l-5.1,4.9
	c-0.7-0.7-1.6-1.2-2.5-1.5c-1-0.4-2-0.6-3-0.6c-1.7-0.1-3.3,0.5-4.6,1.6c-1.1,1.2-1.7,2.8-1.6,4.5v3.2c-0.1,1.7,0.5,3.3,1.6,4.6
	c1.3,1.1,2.9,1.7,4.6,1.6c1.1,0,2.1-0.2,3.1-0.6c0.9-0.4,1.8-1,2.5-1.7l5.1,5.2c-0.8,1-1.8,1.9-2.9,2.5c-1.2,0.7-2.5,1.3-3.8,1.6
	c-1.5,0.4-3,0.5-4.6,0.5C1250.1,668.5,1247.6,667.9,1245.3,666.8z"/>
<path class="st1" d="M1264.9,638.3h7.4l10,25.7l-4.9,6.3L1264.9,638.3z M1292.2,638.3l-13.2,36.5c-0.4,1.2-1,2.3-1.8,3.2
	c-0.7,0.8-1.7,1.4-2.7,1.7c-1.3,0.4-2.6,0.5-4,0.5h-1.7v-7.6h1.7c0.7,0,1.5-0.2,2.1-0.5c0.6-0.4,1.1-1.1,1.3-1.8l11-32L1292.2,638.3
	z"/>
<path class="st1" d="M222.3,1029h8.4v29.6h-8.4V1029z M237.6,1036.4c-0.6-0.2-1.3-0.3-1.9-0.3c-1.4-0.1-2.7,0.5-3.7,1.5
	c-0.9,1.2-1.4,2.7-1.3,4.2l-0.6-7.7c0.7-1.6,1.8-3,3.2-4.1c1.2-1,2.7-1.5,4.3-1.5c1.1,0,2.3,0.2,3.4,0.6c1,0.4,1.9,1,2.6,1.7
	l-4.6,6.4C238.6,1036.9,238.1,1036.6,237.6,1036.4z"/>
<path class="st1" d="M252.1,1057.5c-2-1-3.6-2.6-4.6-4.5c-1.1-2.2-1.7-4.7-1.6-7.2v-3.3c-0.1-2.6,0.4-5.1,1.5-7.5
	c1-2,2.5-3.7,4.5-4.7c2.2-1.1,4.6-1.7,7.1-1.6c2.4-0.1,4.7,0.6,6.6,1.9c1.9,1.4,3.4,3.4,4.2,5.6c1,2.9,1.5,5.9,1.4,8.9v1.9h-20.3
	v-5.3H264l-0.1-0.7c-0.1-1.5-0.7-2.9-1.6-4c-0.9-0.9-2.2-1.4-3.5-1.3c-1.6-0.1-3.2,0.5-4.4,1.7c-1.1,1.3-1.7,3-1.5,4.8v3.8
	c-0.1,1.7,0.5,3.4,1.7,4.7c1.3,1.2,3,1.8,4.7,1.7c1.1,0,2.1-0.2,3.1-0.6c1-0.4,2-0.9,2.8-1.6l5.1,4.5c-1.5,1.4-3.3,2.5-5.2,3.3
	c-1.8,0.8-3.8,1.2-5.8,1.2C256.9,1059.2,254.3,1058.6,252.1,1057.5z"/>
<path class="st1" d="M281.7,1057.5c-1.6-1.1-2.7-2.6-3.4-4.4c-0.8-2.2-1.2-4.6-1.2-6.9v-4.7c-0.1-2.4,0.3-4.8,1.2-7
	c1.3-3.7,4.9-6.1,8.8-5.9c1.6,0,3.1,0.5,4.3,1.4c1.4,1,2.5,2.4,3.1,4l-0.6,6.6c0-0.9-0.1-1.8-0.5-2.6c-0.3-0.7-0.8-1.2-1.5-1.6
	c-0.7-0.4-1.6-0.6-2.4-0.5c-1.3-0.1-2.6,0.5-3.4,1.5c-0.9,1.2-1.3,2.7-1.2,4.2v4.7c-0.1,1.5,0.3,2.9,1.2,4.1c0.8,1,2.1,1.5,3.4,1.4
	c0.8,0,1.6-0.2,2.4-0.5c0.7-0.4,1.2-0.9,1.5-1.6c0.4-0.8,0.5-1.6,0.5-2.5l0.4,6.8c-0.5,1.5-1.5,2.8-2.8,3.8
	c-1.3,0.9-2.9,1.4-4.5,1.3C285.2,1059.1,283.3,1058.6,281.7,1057.5z M282.2,1069.4c-1.7-0.7-3.2-1.9-4.3-3.5l5.2-4.8
	c0.7,0.7,1.5,1.3,2.4,1.7c0.9,0.4,1.9,0.6,2.9,0.6c1.5,0.1,2.9-0.4,4-1.3c1.1-0.9,1.6-2.3,1.5-3.7V1029h7.9v28.7
	c0.1,2.4-0.5,4.8-1.5,7c-1,1.9-2.6,3.5-4.5,4.4c-2.3,1.1-4.7,1.6-7.2,1.5C286.4,1070.7,284.2,1070.3,282.2,1069.4z"/>
<path class="st1" d="M309.1,1017.1h7.8v7.8H309L309.1,1017.1z M309.1,1029h7.8v29.6H309L309.1,1029z"/>
<path class="st1" d="M329.2,1057.5c-1.9-1-3.4-2.5-4.4-4.4c-1.1-2.2-1.6-4.6-1.5-7v-4.8c-0.1-2.4,0.4-4.7,1.5-6.9
	c1-1.9,2.5-3.4,4.4-4.4c4.4-2,9.4-2,13.8,0c1.9,1,3.4,2.5,4.4,4.4c1.1,2.1,1.6,4.5,1.5,6.9v4.9c0.1,2.4-0.4,4.8-1.5,6.9
	c-1,1.9-2.5,3.4-4.4,4.4C338.6,1059.5,333.6,1059.5,329.2,1057.5L329.2,1057.5z M339.8,1050.1c0.9-1.1,1.4-2.5,1.3-3.9v-4.9
	c0.1-1.4-0.4-2.8-1.3-3.8c-1-1-2.3-1.5-3.7-1.4c-1.4-0.1-2.7,0.4-3.6,1.4c-0.9,1.1-1.4,2.4-1.3,3.8v4.9c-0.1,1.4,0.4,2.8,1.3,3.9
	c1,1,2.3,1.5,3.6,1.4C337.4,1051.6,338.8,1051.1,339.8,1050.1L339.8,1050.1z"/>
<path class="st1" d="M356,1029h7.9v29.6H356L356,1029z M373.1,1040.7c0.1-1.2-0.4-2.5-1.2-3.4c-1-0.9-2.2-1.3-3.5-1.2
	c-1.2-0.1-2.5,0.4-3.4,1.2c-0.8,0.9-1.2,2.1-1.2,3.4l-0.6-6.6c0.7-1.6,1.8-3.1,3.2-4.2c1.4-1,3-1.5,4.7-1.4c2.8-0.2,5.5,1,7.2,3.2
	c1.7,2.1,2.6,5.1,2.6,8.9v18h-7.8L373.1,1040.7z"/>
<path class="st1" d="M1228.3,772.1h7.8v41.5h-7.8V772.1z M1232,802.9l13.8-18.9h8.3l-21,27.5L1232,802.9z M1239,798.3l6.4-3.9
	l10.1,19.2h-9L1239,798.3z"/>
<path class="st1" d="M1258.8,772.1h7.8v7.8h-7.8V772.1z M1258.8,783.9h7.8v29.6h-7.8V783.9z"/>
<path class="st1" d="M1279.2,812.4c-2-1-3.6-2.7-4.6-4.7c-1.1-2.3-1.6-4.9-1.6-7.4v-3.2c-0.1-2.5,0.5-5.1,1.6-7.3
	c1-2,2.6-3.6,4.6-4.6c2.2-1.1,4.7-1.7,7.2-1.6c1.5,0,3.1,0.2,4.6,0.5c1.4,0.4,2.7,0.9,3.9,1.7c1.1,0.7,2.1,1.5,2.8,2.6l-5,4.9
	c-0.7-0.7-1.6-1.2-2.5-1.5c-1-0.4-2-0.6-3-0.6c-1.7-0.1-3.3,0.5-4.6,1.6c-1.1,1.2-1.7,2.8-1.6,4.5v3.2c-0.1,1.7,0.5,3.3,1.6,4.6
	c1.3,1.1,2.9,1.7,4.6,1.6c1.1,0,2.1-0.2,3.1-0.6c1-0.4,1.8-1,2.5-1.7l5,5.2c-0.8,1-1.8,1.9-2.9,2.5c-1.2,0.7-2.5,1.3-3.8,1.6
	c-1.5,0.4-3,0.6-4.6,0.5C1283.9,814.1,1281.4,813.5,1279.2,812.4z"/>
<path class="st1" d="M1303,772.1h7.8v41.5h-7.8V772.1z M1306.6,802.9l13.8-18.9h8.3l-21,27.5L1306.6,802.9z M1313.6,798.3l6.4-3.9
	l10.1,19.2h-9L1313.6,798.3z"/>
<path class="st1" d="M945.2,563.9h7.8v7.8h-7.8V563.9z M945.2,575.8h7.8v29.6h-7.8V575.8z"/>
<path class="st1" d="M960.3,575.8h7.8v29.6h-7.8V575.8z M977.4,587.4c0.1-1.2-0.4-2.5-1.2-3.4c-1-0.9-2.2-1.3-3.5-1.2
	c-1.2-0.1-2.5,0.4-3.3,1.2c-0.8,0.9-1.3,2.2-1.2,3.4l-0.6-6.6c0.7-1.6,1.8-3.1,3.2-4.2c1.4-1,3-1.5,4.7-1.4c2.8-0.2,5.5,1,7.2,3.1
	c1.7,2.1,2.6,5.1,2.6,8.9v18h-7.8V587.4z"/>
<path class="st1" d="M1008.9,575.8h7.8l-11.1,29.6h-5.6l-11.1-29.6h7.8l6.1,18.6L1008.9,575.8z"/>
<path class="st1" d="M1020.8,563.9h7.8v7.8h-7.8V563.9z M1020.8,575.8h7.8v29.6h-7.8V575.8z"/>
<path class="st1" d="M1033.7,575.8h14.5v6.7h-14.5V575.8z M1038.5,603.5c-1.2-1.3-1.8-3.3-1.8-5.9v-30.5h7.8v28.6
	c0,0.6,0.1,1.2,0.4,1.7c0.3,0.4,0.8,0.6,1.3,0.6h1.9v7.5h-3.9C1041.6,605.5,1039.7,604.9,1038.5,603.5z"/>
<path class="st1" d="M1060.4,604.3c-2-1-3.6-2.6-4.6-4.5c-1.1-2.2-1.7-4.7-1.6-7.2v-3.3c-0.1-2.6,0.5-5.2,1.5-7.5
	c1-2,2.5-3.7,4.4-4.7c2.2-1.1,4.6-1.7,7.1-1.6c2.4-0.1,4.7,0.6,6.7,1.9c1.9,1.4,3.4,3.4,4.2,5.6c1,2.9,1.5,5.9,1.4,8.9v1.9h-20.3
	v-5.3h13.1l-0.1-0.7c-0.1-1.5-0.7-2.9-1.6-4c-0.9-0.9-2.2-1.5-3.5-1.4c-1.6-0.1-3.2,0.5-4.4,1.7c-1.1,1.3-1.7,3-1.6,4.8v3.8
	c-0.1,1.7,0.5,3.4,1.7,4.7c1.3,1.2,3,1.8,4.8,1.7c1.1,0,2.1-0.2,3.1-0.6c1-0.4,2-0.9,2.8-1.6l5.1,4.5c-1.5,1.4-3.3,2.5-5.2,3.3
	c-1.8,0.8-3.8,1.1-5.8,1.2C1065.2,605.9,1062.7,605.3,1060.4,604.3z"/>
<path class="st0" d="M1171.3,689.2v302.8c0,10.1-8.2,18.4-18.3,18.4c0,0,0,0,0,0H458.6c-10.1,0-18.4-8.2-18.4-18.3c0,0,0,0,0,0
	V689.2c0-10.1,8.2-18.3,18.4-18.3c0,0,0,0,0,0H1153C1163.1,670.9,1171.3,679.1,1171.3,689.2z"/>
<path class="st2" d="M600.9,797.7c-1.6-0.9-2.9-2.2-3.7-3.9c-0.9-1.9-1.3-4-1.2-6.1v-19.4h4.3v19.6c-0.1,1.9,0.5,3.7,1.7,5.2
	c1.2,1.3,3,1.9,4.7,1.8c1.8,0.1,3.5-0.6,4.8-1.8c1.2-1.4,1.8-3.3,1.7-5.2v-19.6h4.3v19.4c0.1,2.1-0.4,4.2-1.3,6.1
	c-0.8,1.6-2.1,3-3.7,3.9C608.8,799.4,604.5,799.4,600.9,797.7z"/>
<path class="st2" d="M627.9,798.6c-1.1-0.2-2.2-0.6-3.2-1.1c-1-0.5-1.9-1.1-2.7-1.9l2.5-3.1c1.1,0.8,2.2,1.5,3.5,2
	c1.1,0.4,2.3,0.7,3.4,0.7c1.3,0.1,2.6-0.2,3.8-0.8c0.8-0.5,1.3-1.4,1.3-2.3c0-0.6-0.2-1.2-0.7-1.6c-0.5-0.4-1.1-0.6-1.7-0.7
	c-0.7-0.1-1.7-0.2-2.9-0.3h-0.4h-0.3h-0.3c-1.2-0.1-2.4-0.3-3.6-0.6c-1-0.3-1.8-0.9-2.4-1.7c-0.7-1-1.1-2.3-1-3.5
	c-0.1-1.3,0.3-2.7,0.9-3.8c0.7-1,1.6-1.8,2.8-2.3c1.5-0.6,3.1-0.8,4.7-0.8c1.1,0,2.2,0.1,3.2,0.3c1,0.2,2,0.5,2.9,0.9
	c0.9,0.4,1.9,1,2.7,1.6l-2.6,3.1c-1-0.7-2.1-1.2-3.2-1.6c-1-0.3-2-0.5-3.1-0.5c-1.1-0.1-2.3,0.2-3.3,0.7c-0.7,0.5-1.1,1.3-1.1,2.2
	c0,0.5,0.2,1,0.6,1.3c0.5,0.3,1,0.5,1.6,0.6c0.6,0.1,1.5,0.2,2.7,0.2c0.1,0,0.2,0,0.3,0h0.3h0.2c0,0,0.1,0,0.1,0
	c1.3,0.1,2.6,0.3,3.9,0.6c1.1,0.3,2,0.9,2.7,1.8c0.8,1.2,1.2,2.5,1.1,3.9c0.1,1.4-0.3,2.7-1,3.9c-0.7,1.1-1.8,1.9-3,2.3
	c-1.6,0.6-3.3,0.8-5.1,0.8C630.3,799,629.1,798.9,627.9,798.6z"/>
<path class="st2" d="M649.8,797.9c-1.4-0.7-2.5-1.9-3.2-3.3c-0.8-1.6-1.2-3.5-1.1-5.3v-2.4c-0.1-1.9,0.3-3.8,1.1-5.5
	c0.7-1.5,1.7-2.7,3.1-3.5c1.5-0.8,3.2-1.2,4.9-1.2c1.7,0,3.3,0.4,4.7,1.4c1.3,1,2.4,2.4,2.9,3.9c0.7,2,1.1,4.1,1,6.2v1.4h-14.6v-3.4
	h10.6c0-1.5-0.5-2.9-1.4-4.1c-0.8-1-1.9-1.5-3.2-1.5c-1.4-0.1-2.8,0.5-3.8,1.6c-1,1.3-1.4,2.9-1.3,4.5v2.8c-0.1,1.5,0.4,3,1.4,4.1
	c1.1,1,2.5,1.5,4,1.4c0.9,0,1.8-0.2,2.6-0.5c0.8-0.3,1.6-0.8,2.3-1.5l2.8,2.8c-1,1-2.3,1.8-3.6,2.4c-1.3,0.5-2.6,0.8-4,0.8
	C653.2,799,651.4,798.6,649.8,797.9z"/>
<path class="st2" d="M669,777h4.3v21.8H669V777z M679.5,781.1c-0.6-0.2-1.3-0.4-2-0.3c-1.2-0.1-2.3,0.3-3.2,1.1
	c-0.8,0.8-1.2,2-1.1,3.1l-0.4-4.2c0.6-1.2,1.5-2.2,2.6-3c1-0.7,2.3-1.1,3.5-1.1c0.9,0,1.8,0.1,2.7,0.4c0.8,0.3,1.5,0.7,2.1,1.3
	l-2.8,3.8C680.6,781.6,680.1,781.3,679.5,781.1L679.5,781.1z"/>
<path class="st2" d="M703.6,797.6c-1.6-0.9-2.9-2.3-3.7-4c-0.9-1.9-1.4-3.9-1.3-6v-8.3c0-2.1,0.4-4.1,1.3-6c0.8-1.7,2.1-3.1,3.7-4
	c1.7-1,3.6-1.5,5.5-1.4c1.7,0,3.3,0.4,4.8,1.1c1.5,0.7,2.7,1.8,3.7,3.2c1,1.4,1.7,3,2,4.7h-4.4c-0.3-0.9-0.7-1.8-1.3-2.5
	c-0.6-0.7-1.3-1.3-2.2-1.7c-1.9-0.9-4.1-0.8-5.9,0.3c-1,0.6-1.7,1.5-2.2,2.5c-0.5,1.2-0.8,2.5-0.8,3.8v8.3c0,1.3,0.2,2.6,0.8,3.8
	c0.5,1,1.2,1.9,2.2,2.5c1,0.6,2.1,0.9,3.3,0.9c0.9,0,1.8-0.2,2.6-0.6c0.8-0.4,1.6-1,2.2-1.7c0.6-0.8,1.1-1.7,1.3-2.6h4.4
	c-0.3,1.7-1,3.3-2,4.8c-1,1.3-2.2,2.4-3.7,3.2c-1.5,0.8-3.1,1.1-4.8,1.1C707.3,799,705.3,798.5,703.6,797.6z"/>
<path class="st2" d="M729.6,790.2c-0.1,1.3,0.3,2.5,1.2,3.5c0.9,0.9,2.1,1.3,3.3,1.2c1.2,0.1,2.4-0.3,3.2-1.1c0.8-0.8,1.2-2,1.2-3.2
	l0.3,4.5c-0.5,1.1-1.2,2-2.2,2.7c-1.1,0.8-2.4,1.1-3.7,1.1c-2.1,0.1-4.2-0.7-5.5-2.3c-1.4-1.9-2.1-4.2-2-6.5V777h4.3L729.6,790.2z
	 M738.4,777h4.2v21.8h-4.2V777z"/>
<path class="st2" d="M753.2,798.6c-1.1-0.2-2.2-0.6-3.2-1.1c-1-0.5-1.9-1.1-2.7-1.9l2.5-3.1c1.1,0.8,2.2,1.5,3.5,2
	c1.1,0.4,2.3,0.7,3.4,0.7c1.3,0.1,2.6-0.2,3.8-0.8c0.8-0.5,1.3-1.4,1.3-2.3c0-0.6-0.2-1.2-0.7-1.6c-0.5-0.4-1.1-0.6-1.7-0.7
	c-0.7-0.1-1.6-0.2-2.9-0.3h-0.4h-0.4h-0.3c-1.2-0.1-2.4-0.3-3.6-0.6c-1-0.3-1.8-0.9-2.4-1.7c-0.7-1-1.1-2.3-1-3.5
	c0-1.3,0.3-2.7,0.9-3.8c0.7-1,1.7-1.8,2.8-2.3c1.5-0.6,3.1-0.8,4.7-0.8c1.1,0,2.2,0.1,3.2,0.3c1,0.2,2,0.5,2.9,0.9
	c1,0.4,1.9,0.9,2.7,1.6l-2.6,3.1c-1-0.7-2.1-1.2-3.2-1.6c-1-0.3-2-0.5-3.1-0.5c-1.1-0.1-2.3,0.2-3.3,0.7c-0.7,0.5-1.1,1.3-1.1,2.2
	c0,0.5,0.2,1,0.6,1.3c0.5,0.3,1,0.5,1.6,0.6c0.6,0.1,1.5,0.2,2.7,0.2c0.1,0,0.2,0,0.3,0h0.3h0.1c0,0,0.1,0,0.1,0
	c1.3,0.1,2.6,0.3,3.9,0.6c1.1,0.3,2,0.9,2.7,1.8c0.8,1.2,1.2,2.5,1.1,3.9c0.1,1.4-0.3,2.7-1,3.9c-0.7,1.1-1.8,1.9-3,2.3
	c-1.6,0.6-3.3,0.8-5.1,0.8C755.6,799,754.4,798.9,753.2,798.6z"/>
<path class="st2" d="M769.7,777h9.8v3.8h-9.8V777z M773.1,797.3c-0.9-1.2-1.3-2.8-1.2-4.3v-22.4h4.3v22.4c0,0.4,0.1,0.9,0.3,1.2
	c0.2,0.3,0.6,0.5,0.9,0.4h2v4.1H777C775.6,798.9,774.1,798.4,773.1,797.3z"/>
<path class="st2" d="M788.9,797.9c-1.3-0.7-2.4-1.9-3.1-3.2c-0.7-1.6-1.1-3.3-1.1-5.1V786c0-1.7,0.3-3.4,1.1-5
	c0.6-1.4,1.7-2.5,3.1-3.3c3.1-1.5,6.6-1.5,9.7,0c1.3,0.7,2.4,1.8,3.1,3.2c0.7,1.6,1.1,3.3,1.1,5v3.6c0.1,1.7-0.3,3.5-1.1,5.1
	c-0.7,1.4-1.7,2.5-3.1,3.2C795.5,799.3,791.9,799.3,788.9,797.9L788.9,797.9z M797.2,793.5c0.9-1.1,1.3-2.5,1.2-3.9V786
	c0.1-1.4-0.3-2.8-1.2-3.9c-1.9-1.9-5-1.9-6.9,0c-0.9,1.1-1.3,2.5-1.2,3.9v3.6c-0.1,1.4,0.3,2.8,1.2,3.9
	C792.2,795.4,795.2,795.4,797.2,793.5z"/>
<path class="st2" d="M808.7,777h4.3v21.8h-4.3V777z M821.7,785.5c0.1-1.3-0.3-2.6-1.1-3.6c-0.8-0.9-2-1.3-3.2-1.2
	c-1.2-0.1-2.4,0.3-3.2,1.1c-0.8,0.8-1.2,2-1.1,3.1l-0.4-4.2c0.6-1.2,1.5-2.2,2.6-3c1.1-0.7,2.3-1.1,3.6-1.1c1.4-0.1,2.7,0.3,3.9,1
	c1.1,0.7,2,1.8,2.5,3c0.6,1.5,0.9,3.2,0.8,4.8v13.3h-4.3L821.7,785.5z M834.7,785.5c0.1-1.3-0.4-2.6-1.2-3.6
	c-0.9-0.9-2.1-1.3-3.3-1.2c-1.2-0.1-2.3,0.4-3.1,1.2c-0.8,1-1.2,2.2-1.1,3.4l-0.8-4.2c0.6-1.3,1.5-2.5,2.7-3.3
	c1.1-0.8,2.4-1.2,3.7-1.2c1.4-0.1,2.8,0.3,4,1c1.1,0.7,2,1.8,2.5,3c0.6,1.5,0.9,3.2,0.9,4.8v13.3h-4.3L834.7,785.5z"/>
<path class="st2" d="M845.4,768.3h4.3v4.3h-4.3V768.3z M845.4,777h4.3v21.8h-4.3V777z"/>
<path class="st2" d="M871.1,780.6l-10.4,14.2h11v4h-16.2V795l10.7-14.1h-10.4v-4h15.3V780.6z"/>
<path class="st2" d="M881.1,797.9c-1.4-0.7-2.5-1.9-3.3-3.3c-0.8-1.7-1.2-3.5-1.1-5.3v-2.4c-0.1-1.9,0.3-3.8,1.1-5.5
	c0.7-1.5,1.8-2.7,3.1-3.5c1.5-0.8,3.2-1.2,4.9-1.2c1.7,0,3.3,0.4,4.6,1.4c1.3,1,2.4,2.4,2.9,3.9c0.7,2,1.1,4.1,1,6.2v1.4h-14.6v-3.4
	h10.6c0-1.5-0.5-2.9-1.4-4.1c-0.8-1-1.9-1.5-3.2-1.5c-1.4-0.1-2.8,0.5-3.8,1.6c-1,1.3-1.4,2.9-1.3,4.5v2.8c-0.1,1.5,0.4,3,1.4,4.1
	c1.1,1,2.5,1.5,4,1.4c0.9,0,1.8-0.2,2.6-0.5c0.8-0.3,1.6-0.8,2.3-1.5l2.8,2.8c-1,1-2.3,1.8-3.6,2.4c-1.3,0.6-2.6,0.8-4,0.8
	C884.4,799,882.7,798.6,881.1,797.9z"/>
<path class="st2" d="M903.1,798c-1.1-0.7-2-1.8-2.6-3c-0.6-1.5-0.9-3.1-0.9-4.8v-4.8c0-1.6,0.3-3.3,0.9-4.8c0.5-1.2,1.4-2.3,2.5-3
	c1.2-0.7,2.6-1.1,4-1c1.2,0,2.5,0.3,3.5,1c1.1,0.7,2,1.7,2.6,2.8l-0.4,4.4c0-0.8-0.1-1.6-0.5-2.4c-0.3-0.6-0.8-1.2-1.5-1.5
	c-0.7-0.4-1.5-0.5-2.3-0.5c-1.2-0.1-2.4,0.4-3.3,1.3c-0.8,1-1.2,2.4-1.2,3.7v4.7c-0.1,1.3,0.3,2.6,1.2,3.7c0.9,0.9,2.1,1.4,3.3,1.3
	c0.8,0,1.6-0.2,2.3-0.5c0.6-0.4,1.1-0.9,1.5-1.5c0.4-0.7,0.5-1.6,0.5-2.4l0.3,4.6c-0.4,1.1-1.2,2-2.1,2.7c-1.1,0.7-2.3,1.1-3.6,1.1
	C905.8,799.2,904.3,798.8,903.1,798z M912.6,768.3h4.2v30.5h-4.3L912.6,768.3z"/>
<path class="st1" d="M529.7,727.7c-1.1-0.6-2-1.6-2.6-2.7c-0.6-1.3-0.9-2.8-0.9-4.3v-13.6h3v13.7c-0.1,1.3,0.3,2.6,1.2,3.6
	c0.9,0.9,2.1,1.4,3.3,1.3c1.2,0.1,2.5-0.4,3.3-1.3c0.8-1,1.3-2.3,1.2-3.6v-13.7h3v13.6c0,1.5-0.3,2.9-0.9,4.3
	c-0.6,1.2-1.5,2.1-2.6,2.7c-1.3,0.6-2.7,1-4.1,0.9C532.3,728.7,530.9,728.4,529.7,727.7z"/>
<path class="st1" d="M548.6,728.4c-0.8-0.2-1.5-0.4-2.2-0.8c-0.7-0.4-1.3-0.8-1.9-1.3l1.8-2.2c0.7,0.6,1.6,1.1,2.5,1.4
	c0.8,0.3,1.6,0.5,2.4,0.5c0.9,0.1,1.8-0.1,2.7-0.5c0.6-0.3,0.9-1,0.9-1.7c0-0.4-0.2-0.8-0.5-1.1c-0.4-0.3-0.8-0.4-1.2-0.5
	c-0.5-0.1-1.2-0.2-2-0.2h-0.2h-0.2h-0.2c-0.8-0.1-1.7-0.2-2.5-0.4c-0.7-0.2-1.3-0.6-1.7-1.2c-0.5-0.7-0.7-1.6-0.7-2.5
	c0-0.9,0.2-1.9,0.7-2.7c0.5-0.7,1.2-1.3,2-1.6c1-0.4,2.2-0.6,3.3-0.5c0.8,0,1.5,0.1,2.3,0.2c1.4,0.3,2.8,0.9,4,1.8l-1.8,2.2
	c-0.7-0.5-1.5-0.8-2.3-1.1c-0.7-0.2-1.4-0.4-2.2-0.4c-0.8-0.1-1.6,0.1-2.3,0.5c-0.5,0.4-0.8,0.9-0.8,1.6c0,0.4,0.1,0.7,0.4,0.9
	c0.3,0.2,0.7,0.4,1.1,0.4c0.6,0.1,1.3,0.1,1.9,0.2h0.2h0.3h0.1c0.9,0,1.8,0.2,2.7,0.4c0.7,0.2,1.4,0.7,1.9,1.3
	c0.6,0.8,0.8,1.8,0.8,2.8c0,1-0.2,1.9-0.7,2.7c-0.5,0.8-1.3,1.3-2.1,1.6c-1.1,0.4-2.4,0.6-3.6,0.5
	C550.4,728.7,549.5,728.6,548.6,728.4z"/>
<path class="st1" d="M564,727.9c-1-0.5-1.8-1.3-2.3-2.3c-0.6-1.2-0.8-2.4-0.8-3.7v-1.7c0-1.3,0.2-2.7,0.8-3.9c0.5-1,1.2-1.9,2.2-2.4
	c1.1-0.6,2.3-0.9,3.5-0.8c1.2,0,2.3,0.3,3.3,1c0.9,0.7,1.7,1.7,2.1,2.8c0.5,1.4,0.8,2.9,0.7,4.3v1h-10.3v-2.5h7.4c0-1-0.4-2.1-1-2.9
	c-0.5-0.7-1.4-1-2.2-1c-1-0.1-2,0.4-2.6,1.1c-0.7,0.9-1,2-0.9,3.2v1.9c-0.1,1.1,0.3,2.1,1,2.9c0.8,0.7,1.8,1.1,2.8,1
	c0.6,0,1.2-0.1,1.8-0.4c0.6-0.2,1.1-0.6,1.6-1l2,2c-0.7,0.7-1.6,1.3-2.5,1.7c-0.9,0.4-1.9,0.6-2.8,0.6
	C566.4,728.8,565.1,728.5,564,727.9z"/>
<path class="st1" d="M577.5,713.2h3v15.2h-3V713.2z M584.9,716.1c-0.4-0.2-0.9-0.3-1.4-0.2c-1.5-0.2-2.8,0.9-3,2.4
	c0,0.2,0,0.4,0,0.6l-0.3-2.9c0.4-0.9,1-1.6,1.8-2.1c0.7-0.5,1.6-0.8,2.5-0.8c0.6,0,1.3,0.1,1.9,0.3c0.5,0.2,1.1,0.5,1.5,0.9l-2,2.6
	C585.6,716.5,585.3,716.3,584.9,716.1L584.9,716.1z"/>
<path class="st1" d="M598.4,707.1h3v21.3h-3V707.1z M602.8,728c-0.7-0.5-1.3-1.1-1.6-1.9l0.2-3.2c0,0.6,0.1,1.2,0.3,1.7
	c0.2,0.4,0.6,0.8,1,1.1c0.5,0.3,1.1,0.4,1.6,0.4c0.9,0,1.7-0.3,2.3-0.9c0.6-0.7,0.9-1.6,0.8-2.5v-3.3c0.1-0.9-0.2-1.9-0.8-2.6
	c-0.6-0.6-1.4-1-2.3-0.9c-0.6,0-1.1,0.1-1.6,0.3c-0.4,0.2-0.8,0.6-1,1c-0.2,0.5-0.4,1.1-0.3,1.6l-0.3-2.9c0.4-0.8,1-1.5,1.8-2.1
	c0.7-0.5,1.6-0.7,2.5-0.7c1,0,1.9,0.2,2.8,0.7c0.8,0.5,1.4,1.2,1.8,2.1c0.4,1.1,0.6,2.2,0.6,3.4v3.3c0,1.1-0.2,2.3-0.6,3.3
	c-0.4,0.9-1,1.6-1.8,2.1c-0.9,0.5-1.9,0.7-2.8,0.7C604.4,728.7,603.5,728.4,602.8,728z"/>
<path class="st1" d="M615.5,727.5c-1-0.9-1.5-2.2-1.4-3.5c-0.1-1.3,0.4-2.5,1.3-3.4c1.1-0.8,2.5-1.2,3.9-1.1h4.3l0.2,2.4h-4.5
	c-0.6-0.1-1.3,0.1-1.8,0.5c-0.4,0.4-0.6,1-0.6,1.6c0,0.7,0.2,1.3,0.8,1.7c0.7,0.4,1.5,0.6,2.3,0.6c0.9,0,1.7-0.1,2.6-0.4
	c0.5-0.2,0.8-0.6,0.8-1.2l0.3,2.2c-0.3,0.4-0.6,0.7-1,1c-0.4,0.3-0.9,0.5-1.3,0.6c-0.6,0.1-1.1,0.2-1.7,0.2
	C618.1,728.8,616.7,728.4,615.5,727.5z M623.4,718.8c0.1-0.9-0.2-1.7-0.8-2.3c-0.6-0.6-1.4-0.9-2.3-0.8c-0.6,0-1.2,0.1-1.8,0.3
	c-0.6,0.2-1.1,0.4-1.5,0.8l-2.2-1.5c0.6-0.7,1.4-1.3,2.3-1.6c1-0.4,2.1-0.6,3.2-0.6c1.1,0,2.2,0.2,3.2,0.7c0.9,0.4,1.6,1.1,2.1,1.9
	c0.5,0.9,0.7,2,0.7,3.1v9.8h-2.8V718.8z"/>
<path class="st1" d="M633.7,728.4c-1.5-0.3-2.9-1.1-4.1-2.1l1.8-2.2c0.8,0.6,1.6,1.1,2.5,1.4c0.8,0.3,1.6,0.5,2.4,0.5
	c0.9,0.1,1.8-0.1,2.7-0.5c0.6-0.3,0.9-1,0.9-1.7c0-0.4-0.2-0.8-0.5-1.1c-0.4-0.3-0.8-0.4-1.2-0.5c-0.5-0.1-1.2-0.2-2-0.2h-0.2h-0.2
	h-0.2c-0.8-0.1-1.7-0.2-2.5-0.4c-0.7-0.2-1.3-0.6-1.7-1.2c-0.5-0.7-0.7-1.6-0.7-2.5c0-0.9,0.2-1.9,0.7-2.7c0.5-0.7,1.2-1.3,2-1.6
	c1.1-0.4,2.2-0.6,3.3-0.5c0.8,0,1.5,0.1,2.3,0.2c0.7,0.1,1.4,0.4,2.1,0.7c0.7,0.3,1.3,0.7,1.9,1.1l-1.8,2.2
	c-0.7-0.5-1.5-0.8-2.2-1.1c-0.7-0.2-1.4-0.4-2.2-0.4c-0.8-0.1-1.6,0.1-2.3,0.5c-0.5,0.3-0.8,0.9-0.8,1.6c0,0.4,0.1,0.7,0.4,0.9
	c0.3,0.2,0.7,0.4,1.1,0.4c0.6,0.1,1.3,0.1,1.9,0.2h0.2h0.3h0.1c0.9,0,1.8,0.2,2.7,0.4c0.7,0.2,1.4,0.7,1.9,1.3
	c0.6,0.8,0.8,1.8,0.8,2.8c0,1-0.2,1.9-0.7,2.7c-0.5,0.8-1.3,1.3-2.1,1.6c-1.1,0.4-2.4,0.6-3.6,0.5
	C635.4,728.7,634.5,728.6,633.7,728.4z"/>
<path class="st1" d="M649,727.9c-1-0.5-1.8-1.3-2.3-2.3c-0.6-1.2-0.8-2.4-0.8-3.7v-1.7c0-1.3,0.2-2.7,0.8-3.9c0.5-1,1.2-1.9,2.2-2.4
	c1.1-0.6,2.3-0.9,3.5-0.8c1.2,0,2.3,0.3,3.3,1c0.9,0.7,1.7,1.7,2.1,2.8c0.5,1.4,0.7,2.9,0.7,4.3v1h-10.3v-2.5h7.4c0-1-0.4-2.1-1-2.9
	c-0.5-0.7-1.4-1-2.2-1c-1-0.1-2,0.4-2.6,1.1c-0.7,0.9-1,2-0.9,3.2v1.9c-0.1,1.1,0.3,2.1,1,2.9c0.8,0.7,1.8,1.1,2.8,1
	c0.6,0,1.2-0.1,1.8-0.4c0.6-0.2,1.1-0.6,1.6-1l2,2c-0.7,0.7-1.6,1.3-2.5,1.7c-0.9,0.4-1.9,0.6-2.8,0.6
	C651.4,728.8,650.1,728.5,649,727.9z"/>
<path class="st1" d="M664.5,728c-0.8-0.5-1.4-1.2-1.8-2.1c-0.4-1.1-0.6-2.2-0.6-3.3v-3.4c0-1.2,0.2-2.3,0.6-3.4
	c0.4-0.9,1-1.6,1.8-2.1c0.8-0.5,1.8-0.8,2.8-0.7c0.9,0,1.7,0.2,2.5,0.7c0.8,0.5,1.4,1.2,1.8,2l-0.3,3.1c0-0.6-0.1-1.1-0.4-1.7
	c-0.2-0.4-0.6-0.8-1-1c-0.5-0.3-1.1-0.4-1.6-0.4c-0.9-0.1-1.7,0.3-2.3,0.9c-0.6,0.7-0.9,1.7-0.8,2.6v3.3c-0.1,0.9,0.2,1.8,0.8,2.6
	c0.6,0.6,1.4,1,2.3,0.9c0.6,0,1.1-0.1,1.6-0.4c0.4-0.2,0.8-0.6,1-1.1c0.3-0.5,0.4-1.1,0.4-1.7l0.2,3.2c-0.3,0.8-0.8,1.4-1.5,1.9
	c-0.7,0.5-1.6,0.8-2.5,0.8C666.3,728.8,665.4,728.5,664.5,728z M671.2,707.1h3v21.3h-3V707.1z"/>
<path class="st1" d="M686.9,713.2h3v15.2h-3V713.2z M696,719.2c0.1-0.9-0.2-1.8-0.8-2.5c-0.6-0.6-1.4-0.9-2.2-0.9
	c-0.8-0.1-1.6,0.2-2.3,0.8c-0.6,0.6-0.8,1.4-0.8,2.2l-0.3-2.9c0.4-0.9,1.1-1.6,1.8-2.1c0.7-0.5,1.6-0.8,2.5-0.8c1,0,1.9,0.2,2.7,0.7
	c0.8,0.5,1.4,1.3,1.7,2.1c0.4,1.1,0.6,2.2,0.6,3.4v9.2h-3L696,719.2z M705.1,719.2c0.1-0.9-0.2-1.8-0.8-2.5
	c-0.6-0.6-1.5-0.9-2.3-0.9c-0.8,0-1.6,0.3-2.2,0.8c-0.5,0.7-0.8,1.5-0.8,2.4l-0.6-2.9c0.4-0.9,1.1-1.7,1.9-2.3
	c0.8-0.5,1.7-0.8,2.6-0.8c1,0,2,0.2,2.8,0.7c0.8,0.5,1.4,1.2,1.8,2.1c0.4,1.1,0.6,2.2,0.6,3.4v9.2h-3L705.1,719.2z"/>
<path class="st1" d="M715,727.9c-0.9-0.5-1.7-1.3-2.2-2.3c-0.5-1.1-0.8-2.4-0.7-3.6v-2.5c0-1.2,0.2-2.4,0.7-3.5
	c0.5-1,1.2-1.7,2.2-2.2c2.1-1,4.6-1,6.8,0c0.9,0.5,1.7,1.3,2.2,2.2c0.5,1.1,0.8,2.3,0.7,3.5v2.5c0,1.2-0.2,2.4-0.7,3.6
	c-0.5,1-1.2,1.7-2.2,2.3C719.7,728.9,717.2,728.9,715,727.9L715,727.9z M720.9,724.8c0.6-0.8,0.9-1.8,0.8-2.8v-2.5
	c0.1-1-0.2-2-0.8-2.7c-1.4-1.3-3.5-1.3-4.9,0c-0.6,0.8-0.9,1.8-0.9,2.7v2.5c-0.1,1,0.2,2,0.9,2.8
	C717.3,726.2,719.5,726.2,720.9,724.8z"/>
<path class="st1" d="M730.9,728c-0.8-0.5-1.4-1.2-1.8-2.1c-0.4-1.1-0.6-2.2-0.6-3.3v-3.4c0-1.2,0.2-2.3,0.6-3.4
	c0.4-0.9,1-1.6,1.8-2.1c0.8-0.5,1.8-0.8,2.8-0.7c0.9,0,1.7,0.2,2.5,0.7c0.8,0.5,1.4,1.2,1.8,2l-0.3,3.1c0-0.6-0.1-1.1-0.4-1.7
	c-0.2-0.4-0.6-0.8-1-1c-0.5-0.3-1.1-0.4-1.6-0.4c-0.9-0.1-1.7,0.3-2.3,0.9c-0.6,0.7-0.9,1.7-0.8,2.6v3.3c-0.1,0.9,0.2,1.8,0.8,2.6
	c0.6,0.6,1.4,1,2.3,0.9c0.6,0,1.1-0.1,1.6-0.4c0.4-0.2,0.8-0.6,1-1.1c0.3-0.5,0.4-1.1,0.4-1.7l0.2,3.2c-0.3,0.8-0.8,1.4-1.5,1.9
	c-0.7,0.5-1.6,0.8-2.5,0.8C732.8,728.8,731.8,728.5,730.9,728z M737.6,707.1h3v21.3h-3V707.1z"/>
<path class="st1" d="M747.9,727.9c-1-0.5-1.8-1.3-2.3-2.3c-0.6-1.2-0.8-2.4-0.8-3.7v-1.7c0-1.3,0.2-2.7,0.8-3.9
	c0.5-1,1.2-1.9,2.2-2.4c1.1-0.6,2.3-0.9,3.5-0.8c1.2,0,2.3,0.3,3.3,1c0.9,0.7,1.7,1.7,2.1,2.8c0.5,1.4,0.7,2.9,0.7,4.3v1h-10.3v-2.5
	h7.4c0-1-0.4-2.1-1-2.9c-0.5-0.7-1.4-1-2.2-1c-1-0.1-2,0.4-2.6,1.1c-0.7,0.9-1,2-0.9,3.2v1.9c-0.1,1.1,0.3,2.1,1,2.9
	c0.8,0.7,1.8,1.1,2.8,1c0.6,0,1.2-0.1,1.8-0.4c0.6-0.2,1.1-0.6,1.6-1l2,2c-0.7,0.7-1.6,1.3-2.5,1.7c-0.9,0.4-1.9,0.6-2.8,0.6
	C750.2,728.8,749,728.5,747.9,727.9z"/>
<path class="st1" d="M761.3,713.2h3v15.2h-3V713.2z M768.7,716.1c-0.4-0.2-0.9-0.3-1.4-0.2c-0.8-0.1-1.6,0.2-2.2,0.8
	c-0.5,0.6-0.8,1.4-0.8,2.2l-0.3-2.9c0.4-0.9,1.1-1.6,1.9-2.1c0.7-0.5,1.6-0.8,2.5-0.8c0.6,0,1.3,0.1,1.9,0.3c0.5,0.2,1,0.5,1.5,0.9
	l-2,2.6C769.5,716.5,769.1,716.2,768.7,716.1z"/>
<path class="st1" d="M774.9,727.5c-1-0.9-1.5-2.2-1.4-3.5c-0.1-1.3,0.4-2.5,1.3-3.4c1.1-0.8,2.5-1.2,3.9-1.1h4.2l0.2,2.4h-4.5
	c-0.6-0.1-1.3,0.1-1.8,0.5c-0.4,0.4-0.6,1-0.6,1.6c0,0.7,0.2,1.3,0.8,1.7c0.7,0.4,1.5,0.6,2.3,0.6c0.9,0,1.7-0.1,2.6-0.4
	c0.5-0.2,0.8-0.6,0.8-1.2l0.3,2.2c-0.3,0.4-0.6,0.7-1,1c-0.4,0.3-0.9,0.5-1.3,0.6c-0.6,0.1-1.1,0.2-1.7,0.2
	C777.5,728.8,776.1,728.3,774.9,727.5z M782.8,718.8c0-0.9-0.2-1.7-0.8-2.3c-0.6-0.6-1.4-0.9-2.3-0.8c-0.6,0-1.2,0.1-1.8,0.3
	c-0.6,0.2-1.1,0.4-1.5,0.8l-2.2-1.5c0.6-0.7,1.4-1.3,2.3-1.6c1-0.4,2.1-0.6,3.2-0.6c1.1,0,2.2,0.2,3.2,0.7c0.9,0.4,1.6,1.1,2,1.9
	c0.5,0.9,0.7,2,0.7,3.1v9.8h-2.9L782.8,718.8z"/>
<path class="st1" d="M789,713.2h6.9v2.7H789V713.2z M791.4,727.5c-0.6-0.9-0.9-1.9-0.9-3v-15.8h3v15.8c0,0.3,0.1,0.6,0.2,0.9
	c0.2,0.2,0.4,0.3,0.7,0.3h1.4v2.8h-1.7C793.1,728.6,792.1,728.2,791.4,727.5L791.4,727.5z"/>
<path class="st1" d="M800,707.1h3v3h-3V707.1z M800,713.2h3v15.2h-3V713.2z"/>
<path class="st1" d="M810,727.9c-0.9-0.5-1.7-1.3-2.1-2.3c-0.5-1.1-0.8-2.4-0.7-3.6v-2.5c0-1.2,0.2-2.4,0.7-3.5
	c0.5-1,1.2-1.7,2.2-2.2c2.1-1,4.6-1,6.8,0c0.9,0.5,1.7,1.3,2.2,2.2c0.5,1.1,0.8,2.3,0.7,3.5v2.5c0,1.2-0.2,2.4-0.7,3.6
	c-0.5,1-1.2,1.7-2.2,2.3C814.7,728.9,812.2,728.9,810,727.9L810,727.9z M815.8,724.8c0.6-0.8,0.9-1.8,0.9-2.8v-2.5
	c0.1-1-0.2-2-0.9-2.7c-1.4-1.3-3.5-1.3-4.9,0c-0.6,0.8-0.9,1.8-0.9,2.7v2.5c-0.1,1,0.2,2,0.9,2.8
	C812.3,726.2,814.4,726.2,815.8,724.8z"/>
<path class="st1" d="M823.9,713.2h3v15.2h-3V713.2z M833.2,719.2c0.1-0.9-0.2-1.8-0.8-2.5c-0.6-0.6-1.5-0.9-2.3-0.9
	c-0.8-0.1-1.6,0.2-2.3,0.8c-0.6,0.6-0.8,1.4-0.8,2.2l-0.3-2.9c0.4-0.9,1.1-1.6,1.8-2.1c0.7-0.5,1.6-0.8,2.5-0.8
	c1.5-0.1,2.9,0.5,3.8,1.6c1,1.3,1.5,2.9,1.4,4.6v9.2h-3L833.2,719.2z"/>
<path class="st1" d="M506,711L506,711c0.8,0.8,0.8,2,0.1,2.8c0,0,0,0-0.1,0.1l-14,14c-0.8,0.8-2,0.8-2.8,0.1c0,0,0,0-0.1-0.1l0,0
	c-0.8-0.8-0.8-2-0.1-2.8c0,0,0,0,0.1-0.1l14-14C504,710.2,505.2,710.2,506,711C506,711,506,711,506,711z"/>
<path class="st1" d="M475,711L475,711c0.8-0.8,2-0.8,2.8-0.1c0,0,0,0,0.1,0.1l14,14c0.8,0.8,0.8,2,0.1,2.8c0,0,0,0-0.1,0.1l0,0
	c-0.8,0.8-2,0.8-2.8,0.1c0,0,0,0-0.1-0.1l-14-14C474.2,713.1,474.2,711.9,475,711C475,711,475,711,475,711z"/>
<circle class="st6" cx="621.7" cy="856.2" r="25.9"/>
<path class="st2" d="M665.9,865.7c-1-0.5-1.8-1.1-2.4-2l2.5-1.8c0.3,0.5,0.7,0.9,1.2,1.2c0.6,0.3,1.2,0.4,1.9,0.4
	c1.1,0.1,2.1-0.4,2.8-1.1c0.7-0.9,1.1-2,1-3.2v-15.2h3.1v15.2c0,1.4-0.2,2.7-0.8,4c-0.5,1.1-1.3,1.9-2.4,2.5
	c-1.2,0.6-2.5,0.9-3.8,0.8C668,866.4,666.9,866.2,665.9,865.7z"/>
<path class="st2" d="M683.9,865.6c-1-0.5-1.8-1.4-2.2-2.4c-0.5-1.2-0.8-2.5-0.8-3.7v-2.6c0-1.3,0.2-2.5,0.8-3.7
	c0.5-1,1.3-1.8,2.2-2.3c2.2-1.1,4.8-1.1,7.1,0c1,0.5,1.8,1.3,2.2,2.3c0.5,1.2,0.8,2.4,0.8,3.7v2.6c0,1.3-0.2,2.6-0.8,3.7
	c-0.5,1-1.3,1.8-2.2,2.3C688.7,866.7,686.1,866.7,683.9,865.6z M689.9,862.4c0.6-0.8,1-1.8,0.9-2.9v-2.6c0.1-1-0.2-2.1-0.9-2.9
	c-1.4-1.3-3.6-1.3-5.1,0c-0.6,0.8-1,1.8-0.9,2.9v2.6c-0.1,1,0.3,2.1,0.9,2.9C686.3,863.8,688.5,863.8,689.9,862.4z"/>
<path class="st2" d="M698.4,850.3h3.1v15.9h-3.1V850.3z M708.1,856.5c0.1-0.9-0.3-1.9-0.9-2.6c-0.6-0.6-1.5-1-2.4-0.9
	c-0.9-0.1-1.7,0.2-2.4,0.8c-0.6,0.6-0.9,1.4-0.8,2.3l-0.3-3.1c0.4-0.9,1.1-1.7,1.9-2.2c0.8-0.5,1.7-0.8,2.6-0.8c1.5-0.1,3,0.5,4,1.7
	c1,1.4,1.5,3.1,1.4,4.8v9.6h-3.1L708.1,856.5z"/>
<path class="st2" d="M716.6,865.2c-1-0.9-1.6-2.3-1.5-3.7c-0.1-1.3,0.4-2.6,1.3-3.5c1.1-0.9,2.6-1.3,4-1.2h4.5l0.2,2.5h-4.7
	c-0.7-0.1-1.3,0.1-1.8,0.5c-0.4,0.4-0.7,1-0.6,1.7c-0.1,0.7,0.3,1.4,0.8,1.8c0.7,0.4,1.6,0.6,2.4,0.6c0.9,0,1.8-0.1,2.7-0.4
	c0.5-0.2,0.9-0.6,0.9-1.2l0.3,2.2c-0.3,0.4-0.6,0.8-1,1.1c-0.4,0.3-0.9,0.5-1.4,0.6c-0.6,0.1-1.2,0.2-1.8,0.2
	C719.4,866.5,717.9,866.1,716.6,865.2z M724.9,856.1c0.1-0.9-0.2-1.8-0.8-2.4c-0.6-0.6-1.5-0.9-2.4-0.9c-0.6,0-1.3,0.1-1.9,0.3
	c-0.6,0.2-1.1,0.5-1.6,0.8l-2.3-1.6c0.6-0.8,1.5-1.3,2.4-1.7c1-0.4,2.2-0.6,3.3-0.6c1.2,0,2.3,0.2,3.4,0.7c0.9,0.4,1.7,1.1,2.1,2
	c0.5,1,0.8,2.1,0.7,3.2v10.2h-3L724.9,856.1z"/>
<path class="st2" d="M732.6,843.9h3.1v22.2h-3.1V843.9z M742.2,856.5c0.1-0.9-0.3-1.9-0.9-2.6c-0.6-0.6-1.5-1-2.5-0.9
	c-0.9-0.1-1.7,0.2-2.4,0.8c-0.6,0.6-0.9,1.4-0.8,2.2l-0.3-3.1c0.4-0.9,1.1-1.6,1.9-2.2c0.8-0.5,1.7-0.8,2.6-0.8c1.5-0.1,3,0.5,4,1.7
	c1,1.4,1.5,3.1,1.4,4.8v9.6h-3.1L742.2,856.5z"/>
<circle class="st3" cx="621.7" cy="926.1" r="25.9"/>
<path class="st2" d="M662.7,913.8h15.7v3h-15.7V913.8z M669,915.6h3.1V936H669V915.6z"/>
<path class="st2" d="M681.5,935.5c-1-0.5-1.8-1.4-2.2-2.4c-0.5-1.2-0.8-2.4-0.8-3.7v-2.6c0-1.3,0.2-2.5,0.8-3.7
	c0.5-1,1.3-1.8,2.2-2.3c2.2-1.1,4.8-1.1,7.1,0c1,0.5,1.8,1.3,2.2,2.3c0.5,1.2,0.8,2.4,0.8,3.7v2.6c0,1.3-0.2,2.6-0.8,3.7
	c-0.5,1-1.3,1.8-2.2,2.3C686.3,936.5,683.7,936.5,681.5,935.5z M687.5,932.3c0.6-0.8,1-1.8,0.9-2.9v-2.6c0.1-1-0.3-2-0.9-2.9
	c-1.4-1.3-3.6-1.3-5.1,0c-0.6,0.8-1,1.8-0.9,2.9v2.6c-0.1,1,0.3,2.1,0.9,2.9C683.9,933.6,686.1,933.6,687.5,932.3z"/>
<path class="st2" d="M696,913.8h3.1V936H696V913.8z M700.5,935.6c-0.7-0.5-1.3-1.2-1.6-2l0.2-3.3c0,0.6,0.1,1.2,0.4,1.7
	c0.2,0.5,0.6,0.9,1.1,1.1c0.5,0.3,1.1,0.4,1.7,0.4c0.9,0,1.8-0.3,2.4-0.9c0.6-0.7,0.9-1.7,0.8-2.7v-3.5c0.1-1-0.2-1.9-0.8-2.7
	c-0.6-0.7-1.5-1-2.4-1c-0.6,0-1.2,0.1-1.7,0.4c-0.5,0.2-0.8,0.6-1.1,1.1c-0.3,0.5-0.4,1.1-0.4,1.7l-0.3-3.1c0.4-0.9,1.1-1.6,1.9-2.2
	c0.8-0.5,1.7-0.8,2.6-0.8c1,0,2,0.2,2.9,0.8c0.8,0.5,1.5,1.3,1.8,2.2c0.4,1.1,0.7,2.3,0.6,3.5v3.5c0,1.2-0.2,2.4-0.6,3.5
	c-0.4,0.9-1,1.7-1.9,2.2c-0.9,0.5-1.9,0.8-3,0.8C702.2,936.3,701.3,936,700.5,935.6z"/>
<path class="st2" d="M713,913.8h3.1v3.1H713V913.8z M713,920.2h3.1V936H713V920.2z"/>
<path class="st2" d="M721.6,935.1c-1-0.9-1.6-2.3-1.5-3.7c-0.1-1.3,0.4-2.6,1.3-3.5c1.1-0.9,2.6-1.3,4-1.2h4.5l0.2,2.5h-4.7
	c-0.7-0.1-1.3,0.1-1.8,0.5c-0.4,0.4-0.6,1-0.6,1.7c-0.1,0.7,0.2,1.4,0.8,1.8c0.7,0.4,1.6,0.6,2.4,0.6c0.9,0,1.8-0.1,2.7-0.4
	c0.5-0.2,0.9-0.6,0.9-1.2l0.3,2.2c-0.3,0.4-0.6,0.8-1,1.1c-0.4,0.3-0.9,0.5-1.4,0.6c-0.6,0.1-1.2,0.2-1.8,0.2
	C724.4,936.4,722.8,936,721.6,935.1z M729.9,926c0.1-0.9-0.2-1.8-0.8-2.4c-0.6-0.6-1.5-0.9-2.4-0.9c-0.6,0-1.3,0.1-1.9,0.3
	c-0.6,0.2-1.1,0.5-1.6,0.8l-2.3-1.6c0.6-0.7,1.5-1.3,2.4-1.7c1-0.4,2.2-0.6,3.3-0.6c1.2,0,2.3,0.2,3.4,0.7c0.9,0.4,1.7,1.1,2.2,2
	c0.5,1,0.8,2.1,0.7,3.2V936h-3L729.9,926z"/>
<path class="st2" d="M740.5,936c-0.8-0.2-1.6-0.5-2.3-0.8c-0.7-0.4-1.4-0.8-2-1.4l1.8-2.3c0.8,0.6,1.6,1.1,2.5,1.5
	c0.8,0.3,1.7,0.5,2.5,0.5c1,0.1,1.9-0.1,2.8-0.6c0.6-0.4,1-1,0.9-1.7c0-0.4-0.2-0.9-0.5-1.2c-0.4-0.3-0.8-0.4-1.2-0.5
	c-0.5-0.1-1.2-0.2-2.1-0.2h-0.3h-0.3h-0.2c-0.9-0.1-1.8-0.2-2.6-0.5c-0.7-0.2-1.3-0.6-1.8-1.2c-0.5-0.8-0.8-1.7-0.7-2.6
	c0-1,0.2-1.9,0.7-2.8c0.5-0.8,1.2-1.3,2-1.7c1.1-0.4,2.2-0.6,3.4-0.6c0.8,0,1.6,0.1,2.4,0.2c1.5,0.3,2.9,0.9,4.1,1.8l-1.8,2.2
	c-0.7-0.5-1.5-0.9-2.3-1.2c-0.7-0.2-1.5-0.4-2.3-0.4c-0.8-0.1-1.7,0.1-2.4,0.5c-0.5,0.4-0.8,1-0.8,1.6c0,0.4,0.1,0.8,0.5,1
	c0.3,0.2,0.7,0.4,1.1,0.4c0.5,0.1,1.1,0.1,2,0.2h0.2h0.2h0.2c1,0.1,1.9,0.2,2.8,0.5c0.8,0.2,1.5,0.7,2,1.3c0.6,0.8,0.9,1.9,0.8,2.9
	c0,1-0.2,2-0.7,2.8c-0.6,0.8-1.4,1.4-2.3,1.7c-1.2,0.4-2.4,0.6-3.7,0.6C742.3,936.3,741.4,936.2,740.5,936z"/>
<path class="st1" d="M551.7,776.6h-2v-3.9c0-5.4-4.4-9.8-9.8-9.8s-9.8,4.4-9.8,9.8v3.9h-2c-2.2,0-3.9,1.7-3.9,3.9V800
	c0,2.2,1.7,3.9,3.9,3.9h23.4c2.2,0,3.9-1.8,3.9-3.9v-19.6C555.5,778.4,553.8,776.7,551.7,776.6z M540,794.2c-2.2,0-3.9-1.8-3.9-3.9
	s1.8-3.9,3.9-3.9s3.9,1.8,3.9,3.9v0C543.9,792.4,542.1,794.2,540,794.2z M546,776.6h-12.1v-3.9c-0.1-3.3,2.5-6.2,5.8-6.3
	c3.3-0.1,6.2,2.5,6.3,5.8c0,0.2,0,0.3,0,0.5V776.6z"/>
<path class="st10" d="M1041.3,763.4h82.3c6,0,10.9,4.9,10.9,10.9v18.2c0,6-4.9,10.9-10.9,10.9h-82.3c-6,0-10.9-4.9-10.9-10.9v-18.2
	C1030.4,768.3,1035.3,763.4,1041.3,763.4z"/>
</svg>
