<?xml version="1.0" encoding="utf-8"?>
<!-- Generator: Adobe Illustrator 25.0.0, SVG Export Plug-In . SVG Version: 6.00 Build 0)  -->
<svg version="1.1" id="Layer_1" xmlns="http://www.w3.org/2000/svg" xmlns:xlink="http://www.w3.org/1999/xlink" x="0px" y="0px"
	 viewBox="0 0 1615.7 1018" style="enable-background:new 0 0 1615.7 1018;" xml:space="preserve">
<style type="text/css">
	.st0{fill:#2F3136;}
	.st1{fill:#72767D;}
	.st2{fill:#4FDC7C;}
	.st3{fill:#5764F4;}
	.st4{fill:#202225;}
	.st5{fill:#ED4245;}
	.st6{fill:#57F287;}
</style>
<g>
	<g>
		
			<rect x="798.7" y="405.3" transform="matrix(0.7071 -0.7071 0.7071 0.7071 -41.4108 727.5105)" class="st5" width="117.6" height="16.8"/>
		
			<rect x="849.1" y="354.9" transform="matrix(0.7071 -0.7071 0.7071 0.7071 -41.4108 727.5105)" class="st5" width="16.8" height="117.6"/>
	</g>
</g>
<g>
	<g>
		
			<rect x="185.4" y="251" transform="matrix(0.7071 -0.7071 0.7071 0.7071 -137.5755 217.5574)" class="st6" width="16.8" height="47.8"/>
		
			<rect x="184.1" y="247.9" transform="matrix(0.7071 -0.7071 0.7071 0.7071 -112.548 240.8306)" class="st6" width="100.7" height="16.8"/>
	</g>
</g>
<g>
	<g>
		
			<rect x="368.2" y="630.9" transform="matrix(0.7071 -0.7071 0.7071 0.7071 -352.6931 458.076)" class="st6" width="16.8" height="47.8"/>
		
			<rect x="366.9" y="627.8" transform="matrix(0.7071 -0.7071 0.7071 0.7071 -327.6656 481.3492)" class="st6" width="100.7" height="16.8"/>
	</g>
</g>
<g>
	<g>
		
			<rect x="960" y="747.3" transform="matrix(0.7071 -0.7071 0.7071 0.7071 -235.9722 941.749)" class="st5" width="117.6" height="16.8"/>
		
			<rect x="1010.4" y="696.9" transform="matrix(0.7071 -0.7071 0.7071 0.7071 -235.9722 941.749)" class="st5" width="16.8" height="117.6"/>
	</g>
</g>
<g>
	<g>
		<g>
			<path class="st1" d="M979.8,440.4h-7.9l19.8-58h7.9L979.8,440.4z"/>
			<path class="st1" d="M1006.3,430.7c-2.1-1.1-3.8-2.8-4.9-5s-1.7-4.8-1.7-7.9v-3.4c0-3.1,0.6-5.7,1.7-7.8s2.7-3.8,4.9-5
				c2.1-1.1,4.7-1.7,7.7-1.7c1.7,0,3.4,0.2,4.9,0.6c1.5,0.4,2.9,1,4.1,1.7c1.2,0.8,2.2,1.7,3,2.7l-5.4,5.2c-0.8-0.7-1.7-1.3-2.7-1.7
				c-1-0.4-2.1-0.6-3.3-0.6c-2.1,0-3.8,0.6-4.9,1.7s-1.7,2.7-1.7,4.8v3.4c0,2.1,0.6,3.7,1.7,4.9c1.2,1.1,2.8,1.7,4.9,1.7
				c1.2,0,2.3-0.2,3.3-0.6s1.9-1,2.7-1.8l5.4,5.5c-0.8,1.1-1.9,2-3.1,2.7c-1.2,0.7-2.6,1.3-4.1,1.7c-1.5,0.4-3.2,0.6-4.9,0.6
				C1011.1,432.4,1008.5,431.9,1006.3,430.7z"/>
			<path class="st1" d="M1031.8,387.7h8.4V432h-8.4V387.7z M1050.1,412.8c0-1.5-0.4-2.7-1.3-3.6c-0.9-0.9-2.1-1.3-3.8-1.3
				c-1.5,0-2.7,0.4-3.6,1.3c-0.8,0.9-1.3,2.1-1.3,3.6l-0.6-7c1-2,2.1-3.5,3.4-4.5c1.3-1,3-1.5,5-1.5c3.3,0,5.9,1.1,7.7,3.4
				c1.8,2.2,2.7,5.4,2.7,9.5V432h-8.4V412.8z"/>
			<path class="st1" d="M1067.6,430c-1.7-1.6-2.5-4.1-2.5-7.4c0-3.1,0.9-5.5,2.8-7c1.9-1.6,4.7-2.3,8.5-2.3h7.9l0.4,6.4h-8.3
				c-1.3,0-2.2,0.2-2.8,0.7c-0.6,0.5-0.9,1.3-0.9,2.3c0,1,0.4,1.8,1.2,2.3c0.8,0.5,2,0.7,3.6,0.7c2.2,0,3.9-0.3,5-0.8
				c1.1-0.5,1.6-1.3,1.6-2.4l0.6,4.6c-0.1,1.1-0.6,2.1-1.6,2.9c-0.9,0.8-2.1,1.4-3.5,1.8c-1.4,0.4-2.9,0.6-4.4,0.6
				C1071.8,432.4,1069.3,431.6,1067.6,430z M1084,411.9c0-1.5-0.5-2.6-1.5-3.4c-1-0.8-2.4-1.2-4.1-1.2c-1.2,0-2.3,0.2-3.5,0.6
				c-1.2,0.4-2.2,0.9-3.1,1.6l-5.2-5.1c1.3-1.4,2.9-2.6,5-3.4c2.1-0.8,4.4-1.2,6.9-1.2c2.8,0,5.1,0.5,7.1,1.4c2,0.9,3.4,2.3,4.5,4
				c1,1.8,1.5,3.9,1.5,6.4V432h-7.6V411.9z"/>
			<path class="st1" d="M1099.9,400.3h8.4V432h-8.4V400.3z M1118.2,412.8c0-1.5-0.4-2.7-1.3-3.6s-2.1-1.3-3.8-1.3
				c-1.5,0-2.7,0.4-3.6,1.3c-0.8,0.9-1.3,2.1-1.3,3.6l-0.6-7c1-2,2.1-3.5,3.4-4.5c1.3-1,3-1.5,5-1.5c3.3,0,5.9,1.1,7.7,3.4
				c1.8,2.2,2.7,5.4,2.7,9.5V432h-8.4V412.8z"/>
			<path class="st1" d="M1134.7,400.3h8.4V432h-8.4V400.3z M1153,412.8c0-1.5-0.4-2.7-1.3-3.6s-2.1-1.3-3.8-1.3
				c-1.5,0-2.7,0.4-3.6,1.3c-0.8,0.9-1.3,2.1-1.3,3.6l-0.6-7c1-2,2.1-3.5,3.4-4.5c1.3-1,3-1.5,5-1.5c3.3,0,5.9,1.1,7.7,3.4
				c1.8,2.2,2.7,5.4,2.7,9.5V432h-8.4V412.8z"/>
			<path class="st1" d="M1175.4,430.8c-2.2-1.1-3.8-2.7-5-4.8c-1.1-2.1-1.7-4.7-1.7-7.7v-3.6c0-3.1,0.5-5.8,1.6-8
				c1.1-2.2,2.7-3.9,4.8-5.1c2.1-1.2,4.6-1.7,7.5-1.7c2.8,0,5.1,0.7,7.1,2.1c2,1.4,3.5,3.4,4.5,6c1,2.6,1.5,5.8,1.5,9.5v2.1h-21.6
				v-5.6h14l-0.1-0.7c-0.2-1.8-0.8-3.2-1.7-4.2c-0.9-1-2.2-1.5-3.7-1.5c-2,0-3.6,0.6-4.7,1.8c-1.1,1.2-1.7,2.9-1.7,5.1v4
				c0,2.2,0.6,3.8,1.8,5s2.9,1.8,5.1,1.8c1.1,0,2.2-0.2,3.3-0.6c1.1-0.4,2.1-1,3-1.7l5.5,4.8c-1.6,1.5-3.5,2.7-5.5,3.5
				s-4.1,1.2-6.2,1.2C1180.1,432.4,1177.5,431.9,1175.4,430.8z"/>
			<path class="st1" d="M1211.4,421.5c0,0.8,0.2,1.4,0.7,1.8c0.4,0.4,1.1,0.6,1.9,0.6h1.4v8h-4.3c-2.5,0-4.5-0.7-5.9-2.2
				c-1.4-1.5-2.1-3.5-2.1-6.2v-35.9h8.4V421.5z"/>
			<path class="st1" d="M1237.9,400.3h8.4V432h-8.4V400.3z M1256.2,412.8c0-1.5-0.4-2.7-1.3-3.6c-0.9-0.9-2.1-1.3-3.8-1.3
				c-1.5,0-2.7,0.4-3.6,1.3c-0.8,0.9-1.3,2.1-1.3,3.6l-0.6-7c1-2,2.1-3.5,3.4-4.5c1.3-1,3-1.5,5-1.5c3.3,0,5.9,1.1,7.7,3.4
				c1.8,2.2,2.7,5.4,2.7,9.5V432h-8.4V412.8z"/>
			<path class="st1" d="M1273.8,430c-1.7-1.6-2.5-4.1-2.5-7.4c0-3.1,0.9-5.5,2.8-7c1.9-1.6,4.7-2.3,8.5-2.3h7.9l0.4,6.4h-8.3
				c-1.3,0-2.2,0.2-2.8,0.7c-0.6,0.5-0.9,1.3-0.9,2.3c0,1,0.4,1.8,1.2,2.3c0.8,0.5,2,0.7,3.6,0.7c2.2,0,3.9-0.3,5-0.8
				c1.1-0.5,1.6-1.3,1.6-2.4l0.6,4.6c-0.1,1.1-0.6,2.1-1.6,2.9c-0.9,0.8-2.1,1.4-3.5,1.8c-1.4,0.4-2.9,0.6-4.4,0.6
				C1278,432.4,1275.5,431.6,1273.8,430z M1290.2,411.9c0-1.5-0.5-2.6-1.5-3.4c-1-0.8-2.4-1.2-4.1-1.2c-1.2,0-2.3,0.2-3.5,0.6
				c-1.2,0.4-2.2,0.9-3.1,1.6l-5.2-5.1c1.3-1.4,2.9-2.6,5-3.4c2.1-0.8,4.4-1.2,6.9-1.2c2.8,0,5.1,0.5,7.1,1.4c2,0.9,3.4,2.3,4.5,4
				c1,1.8,1.5,3.9,1.5,6.4V432h-7.6V411.9z"/>
			<path class="st1" d="M1306,400.3h8.4V432h-8.4V400.3z M1324.5,413.7c0-1.8-0.5-3.3-1.4-4.3c-0.9-1-2.2-1.5-3.9-1.5
				c-1.5,0-2.7,0.4-3.6,1.3c-0.8,0.9-1.3,2.1-1.3,3.6l-0.6-7c0.9-2,2.1-3.4,3.5-4.5c1.4-1,3-1.5,4.9-1.5c2.2,0,4.2,0.5,5.7,1.6
				c1.6,1.1,2.8,2.7,3.6,4.7c0.8,2.1,1.2,4.6,1.2,7.5V432h-8.4V413.7z M1342.9,413.7c0-1.8-0.4-3.3-1.3-4.3c-0.9-1-2.1-1.5-3.8-1.5
				c-1.6,0-2.8,0.5-3.7,1.4c-0.9,1-1.3,2.3-1.3,4.1l-1.6-7.3c1-2,2.3-3.6,3.9-4.6s3.4-1.6,5.3-1.6c2.3,0,4.2,0.5,5.8,1.6
				c1.6,1.1,2.8,2.7,3.7,4.7c0.8,2.1,1.3,4.6,1.3,7.5V432h-8.4V413.7z"/>
			<path class="st1" d="M1365.2,430.8c-2.2-1.1-3.8-2.7-5-4.8c-1.1-2.1-1.7-4.7-1.7-7.7v-3.6c0-3.1,0.5-5.8,1.6-8
				c1.1-2.2,2.7-3.9,4.8-5.1c2.1-1.2,4.6-1.7,7.5-1.7c2.8,0,5.1,0.7,7.1,2.1c2,1.4,3.5,3.4,4.5,6c1,2.6,1.5,5.8,1.5,9.5v2.1H1364
				v-5.6h14l-0.1-0.7c-0.2-1.8-0.8-3.2-1.7-4.2c-0.9-1-2.2-1.5-3.7-1.5c-2,0-3.6,0.6-4.7,1.8c-1.1,1.2-1.7,2.9-1.7,5.1v4
				c0,2.2,0.6,3.8,1.8,5s2.9,1.8,5.1,1.8c1.1,0,2.2-0.2,3.3-0.6c1.1-0.4,2.1-1,3-1.7l5.5,4.8c-1.6,1.5-3.5,2.7-5.5,3.5
				s-4.1,1.2-6.2,1.2C1370,432.4,1367.4,431.9,1365.2,430.8z"/>
		</g>
	</g>
</g>
<g>
	<g>
		<g>
			<path class="st1" d="M345.5,282.9h-7.9l19.8-58h7.9L345.5,282.9z"/>
			<path class="st1" d="M372,273.3c-2.1-1.1-3.8-2.8-4.9-5s-1.7-4.8-1.7-7.9v-3.4c0-3.1,0.6-5.7,1.7-7.8s2.7-3.8,4.9-5
				c2.1-1.1,4.7-1.7,7.7-1.7c1.7,0,3.4,0.2,4.9,0.6c1.5,0.4,2.9,1,4.1,1.7c1.2,0.8,2.2,1.7,3,2.7l-5.4,5.2c-0.8-0.7-1.7-1.3-2.7-1.7
				c-1-0.4-2.1-0.6-3.3-0.6c-2.1,0-3.8,0.6-4.9,1.7s-1.7,2.7-1.7,4.8v3.4c0,2.1,0.6,3.7,1.7,4.9c1.2,1.1,2.8,1.7,4.9,1.7
				c1.2,0,2.3-0.2,3.3-0.6c1-0.4,1.9-1,2.7-1.8l5.4,5.5c-0.8,1.1-1.9,2-3.1,2.7c-1.2,0.7-2.6,1.3-4.1,1.7s-3.2,0.6-4.9,0.6
				C376.8,275,374.2,274.4,372,273.3z"/>
			<path class="st1" d="M397.5,230.2h8.4v44.3h-8.4V230.2z M415.8,255.3c0-1.5-0.4-2.7-1.3-3.6c-0.9-0.9-2.1-1.3-3.8-1.3
				c-1.5,0-2.7,0.4-3.6,1.3c-0.8,0.9-1.3,2.1-1.3,3.6l-0.6-7c1-2,2.1-3.5,3.4-4.5c1.3-1,3-1.5,5-1.5c3.3,0,5.9,1.1,7.7,3.4
				c1.8,2.2,2.7,5.4,2.7,9.5v19.2h-8.4V255.3z"/>
			<path class="st1" d="M433.3,272.5c-1.7-1.6-2.5-4.1-2.5-7.4c0-3.1,0.9-5.5,2.8-7c1.9-1.6,4.7-2.3,8.5-2.3h7.9l0.4,6.4h-8.3
				c-1.3,0-2.2,0.2-2.8,0.7c-0.6,0.5-0.9,1.3-0.9,2.3c0,1,0.4,1.8,1.2,2.3c0.8,0.5,2,0.7,3.6,0.7c2.2,0,3.9-0.3,5-0.8
				s1.6-1.3,1.6-2.4l0.6,4.6c-0.1,1.1-0.6,2.1-1.6,2.9c-0.9,0.8-2.1,1.4-3.5,1.8c-1.4,0.4-2.9,0.6-4.4,0.6
				C437.5,275,435,274.2,433.3,272.5z M449.8,254.5c0-1.5-0.5-2.6-1.5-3.4c-1-0.8-2.4-1.2-4.1-1.2c-1.2,0-2.3,0.2-3.5,0.6
				c-1.2,0.4-2.2,0.9-3.1,1.6l-5.2-5.1c1.3-1.4,2.9-2.6,5-3.4c2.1-0.8,4.4-1.2,6.9-1.2c2.8,0,5.1,0.5,7.1,1.4c2,0.9,3.4,2.3,4.5,4
				c1,1.8,1.5,3.9,1.5,6.4v20.3h-7.6V254.5z"/>
			<path class="st1" d="M465.6,242.9h8.4v31.6h-8.4V242.9z M483.9,255.3c0-1.5-0.4-2.7-1.3-3.6c-0.9-0.9-2.1-1.3-3.8-1.3
				c-1.5,0-2.7,0.4-3.6,1.3c-0.8,0.9-1.3,2.1-1.3,3.6l-0.6-7c1-2,2.1-3.5,3.4-4.5c1.3-1,3-1.5,5-1.5c3.3,0,5.9,1.1,7.7,3.4
				c1.8,2.2,2.7,5.4,2.7,9.5v19.2h-8.4V255.3z"/>
			<path class="st1" d="M500.4,242.9h8.4v31.6h-8.4V242.9z M518.7,255.3c0-1.5-0.4-2.7-1.3-3.6c-0.9-0.9-2.1-1.3-3.8-1.3
				c-1.5,0-2.7,0.4-3.6,1.3c-0.8,0.9-1.3,2.1-1.3,3.6l-0.6-7c1-2,2.1-3.5,3.4-4.5c1.3-1,3-1.5,5-1.5c3.3,0,5.9,1.1,7.7,3.4
				c1.8,2.2,2.7,5.4,2.7,9.5v19.2h-8.4V255.3z"/>
			<path class="st1" d="M541.1,273.3c-2.2-1.1-3.8-2.7-5-4.8c-1.1-2.1-1.7-4.7-1.7-7.7v-3.6c0-3.1,0.5-5.8,1.6-8s2.7-3.9,4.8-5.1
				s4.6-1.7,7.5-1.7c2.8,0,5.1,0.7,7.1,2.1c2,1.4,3.5,3.4,4.5,6c1,2.6,1.5,5.8,1.5,9.5v2.1h-21.6v-5.6h14l-0.1-0.7
				c-0.2-1.8-0.8-3.2-1.7-4.2c-0.9-1-2.2-1.5-3.7-1.5c-2,0-3.6,0.6-4.7,1.8c-1.1,1.2-1.7,2.9-1.7,5.1v4c0,2.2,0.6,3.8,1.8,5
				s2.9,1.8,5.1,1.8c1.1,0,2.2-0.2,3.3-0.6c1.1-0.4,2.1-1,3-1.7l5.5,4.8c-1.6,1.5-3.5,2.7-5.5,3.5c-2.1,0.8-4.1,1.2-6.2,1.2
				C545.8,275,543.2,274.4,541.1,273.3z"/>
			<path class="st1" d="M577.1,264.1c0,0.8,0.2,1.4,0.7,1.8c0.4,0.4,1.1,0.6,1.9,0.6h1.4v8h-4.3c-2.5,0-4.5-0.7-5.9-2.2
				c-1.4-1.5-2.1-3.5-2.1-6.2v-35.9h8.4V264.1z"/>
			<path class="st1" d="M612,264.1c0,0.8,0.2,1.4,0.7,1.8c0.4,0.4,1.1,0.6,1.9,0.6h1.4v8h-4.3c-2.5,0-4.5-0.7-5.9-2.2
				c-1.4-1.5-2.1-3.5-2.1-6.2v-35.9h8.4V264.1z"/>
			<path class="st1" d="M621.2,230.2h8.4v8.4h-8.4V230.2z M621.2,242.9h8.4v31.6h-8.4V242.9z"/>
			<path class="st1" d="M637.4,242.9h8.4v31.6h-8.4V242.9z M655.8,256.3c0-1.8-0.5-3.3-1.4-4.3c-0.9-1-2.2-1.5-3.9-1.5
				c-1.5,0-2.7,0.4-3.6,1.3c-0.8,0.9-1.3,2.1-1.3,3.6l-0.6-7c0.9-2,2.1-3.4,3.5-4.5c1.4-1,3-1.5,4.9-1.5c2.2,0,4.2,0.5,5.7,1.6
				c1.6,1.1,2.8,2.7,3.6,4.7c0.8,2.1,1.2,4.6,1.2,7.5v18.3h-8.4V256.3z M674.2,256.3c0-1.8-0.4-3.3-1.3-4.3c-0.9-1-2.1-1.5-3.8-1.5
				c-1.6,0-2.8,0.5-3.7,1.4c-0.9,1-1.3,2.3-1.3,4.1l-1.6-7.3c1-2,2.3-3.6,3.9-4.6c1.6-1.1,3.4-1.6,5.3-1.6c2.3,0,4.2,0.5,5.8,1.6
				c1.6,1.1,2.8,2.7,3.7,4.7c0.8,2.1,1.3,4.6,1.3,7.5v18.3h-8.4V256.3z"/>
			<path class="st1" d="M690.4,230.2h8.4v8.4h-8.4V230.2z M690.4,242.9h8.4v31.6h-8.4V242.9z"/>
			<path class="st1" d="M704.1,242.9h15.5v7.1h-15.5V242.9z M709.3,272.5c-1.3-1.4-1.9-3.5-1.9-6.3v-32.6h8.4v30.5
				c0,0.8,0.2,1.4,0.5,1.8c0.3,0.4,0.8,0.6,1.3,0.6h2.1v8h-4.2C712.6,274.7,710.5,274,709.3,272.5z"/>
		</g>
	</g>
</g>
<g>
	<g>
		<g>
			<path class="st1" d="M1140.7,782.8h-7.9l19.8-58h7.9L1140.7,782.8z"/>
			<path class="st1" d="M1169.9,761.9c0,1.5,0.4,2.7,1.3,3.6c0.9,0.8,2.1,1.3,3.6,1.3c1.6,0,2.8-0.4,3.6-1.3
				c0.8-0.9,1.3-2.1,1.3-3.7l0.4,6.9c-0.6,1.7-1.6,3.2-2.9,4.4c-1.4,1.2-3,1.8-5,1.8c-3.4,0-6-1.1-7.9-3.3c-1.8-2.2-2.8-5.3-2.8-9.3
				v-19.5h8.4V761.9z M1179.7,742.7h8.3v31.6h-8.3V742.7z"/>
			<path class="st1" d="M1202.9,774.3c-1.8-0.3-3.5-0.8-5-1.5c-1.6-0.6-2.9-1.4-4.1-2.3l5.2-6.4c1.5,1,3.1,1.7,4.8,2.3
				s3.3,0.8,4.8,0.8c2,0,3.5-0.2,4.5-0.7c1.1-0.4,1.6-1,1.6-1.8c0-0.7-0.2-1.2-0.7-1.6c-0.5-0.4-1.1-0.6-1.8-0.8
				c-0.7-0.2-1.8-0.3-3.1-0.4c-0.4,0-0.7-0.1-1.1-0.1c-0.4,0-0.8-0.1-1.1-0.1c-0.1,0-0.2,0-0.3,0c-0.1,0-0.2,0-0.3,0
				c-2.4-0.3-4.2-0.7-5.7-1.1c-1.4-0.4-2.6-1.3-3.6-2.6c-1-1.3-1.5-3.1-1.5-5.5c0-2.1,0.5-3.9,1.5-5.4c1-1.5,2.5-2.6,4.4-3.4
				c1.9-0.8,4.3-1.2,7-1.2c1.6,0,3.2,0.2,4.8,0.5c1.6,0.3,3.1,0.8,4.6,1.4c1.5,0.6,2.8,1.3,4.1,2.2l-5,6.1c-1.4-0.8-2.8-1.4-4.3-1.8
				s-2.9-0.6-4.3-0.6c-1.7,0-3,0.2-3.9,0.6c-0.9,0.4-1.4,0.9-1.4,1.6c0,0.5,0.2,0.9,0.7,1.2c0.5,0.3,1.1,0.5,1.9,0.6
				c0.7,0.1,1.8,0.3,3.2,0.4c0.2,0,0.4,0,0.5,0.1c0.2,0,0.4,0,0.5,0.1c0.1,0,0.2,0,0.3,0c0.1,0,0.2,0,0.3,0c2.5,0.3,4.5,0.7,6,1.1
				c1.5,0.4,2.9,1.3,3.9,2.7c1.1,1.3,1.6,3.3,1.6,5.9c0,2.2-0.5,4.1-1.6,5.6c-1.1,1.6-2.6,2.8-4.6,3.6s-4.5,1.2-7.3,1.2
				C1206.5,774.8,1204.6,774.6,1202.9,774.3z"/>
			<path class="st1" d="M1234.4,773.2c-2.2-1.1-3.8-2.7-5-4.8c-1.1-2.1-1.7-4.7-1.7-7.7v-3.6c0-3.1,0.5-5.8,1.6-8s2.7-3.9,4.8-5.1
				s4.6-1.7,7.5-1.7c2.8,0,5.1,0.7,7.1,2.1c2,1.4,3.5,3.4,4.5,6c1,2.6,1.5,5.8,1.5,9.5v2.1h-21.6v-5.6h14l-0.1-0.7
				c-0.2-1.8-0.8-3.2-1.7-4.2c-0.9-1-2.2-1.5-3.7-1.5c-2,0-3.6,0.6-4.7,1.8c-1.1,1.2-1.7,2.9-1.7,5.1v4c0,2.2,0.6,3.8,1.8,5
				s2.9,1.8,5.1,1.8c1.1,0,2.2-0.2,3.3-0.6c1.1-0.4,2.1-1,3-1.7l5.5,4.8c-1.6,1.5-3.5,2.7-5.5,3.5c-2.1,0.8-4.1,1.2-6.2,1.2
				C1239.2,774.8,1236.6,774.3,1234.4,773.2z"/>
			<path class="st1" d="M1262.1,742.7h9v31.6h-9V742.7z M1278.4,750.6c-0.6-0.2-1.3-0.3-2-0.3c-1.7,0-3,0.5-3.9,1.6
				c-0.9,1.1-1.4,2.6-1.4,4.5l-0.6-8.2c0.9-1.9,2-3.4,3.4-4.4c1.4-1,2.9-1.6,4.6-1.6c1.3,0,2.5,0.2,3.6,0.6c1.1,0.4,2,1,2.8,1.8
				l-4.9,6.8C1279.5,751.1,1279,750.8,1278.4,750.6z"/>
			<path class="st1" d="M1305.5,730h8.4v44.3h-8.4V730z M1309.4,763l14.8-20.2h8.8l-22.5,29.4L1309.4,763z M1316.9,758l6.9-4.1
				l10.8,20.5h-9.7L1316.9,758z"/>
			<path class="st1" d="M1338.1,730h8.4v8.4h-8.4V730z M1338.1,742.7h8.4v31.6h-8.4V742.7z"/>
			<path class="st1" d="M1359.9,773.1c-2.1-1.1-3.8-2.8-4.9-5s-1.7-4.8-1.7-7.9v-3.4c0-3.1,0.6-5.7,1.7-7.8s2.7-3.8,4.9-5
				c2.1-1.1,4.7-1.7,7.7-1.7c1.7,0,3.4,0.2,4.9,0.6c1.5,0.4,2.9,1,4.1,1.7c1.2,0.8,2.2,1.7,3,2.7l-5.4,5.2c-0.8-0.7-1.7-1.3-2.7-1.7
				c-1-0.4-2.1-0.6-3.3-0.6c-2.1,0-3.8,0.6-4.9,1.7s-1.7,2.7-1.7,4.8v3.4c0,2.1,0.6,3.7,1.7,4.9c1.2,1.1,2.8,1.7,4.9,1.7
				c1.2,0,2.3-0.2,3.3-0.6c1-0.4,1.9-1,2.7-1.8l5.4,5.5c-0.8,1.1-1.9,2-3.1,2.7c-1.2,0.7-2.6,1.3-4.1,1.7s-3.2,0.6-4.9,0.6
				C1364.6,774.8,1362,774.2,1359.9,773.1z"/>
			<path class="st1" d="M1385.3,730h8.4v44.3h-8.4V730z M1389.2,763l14.8-20.2h8.8l-22.5,29.4L1389.2,763z M1396.7,758l6.9-4.1
				l10.8,20.5h-9.7L1396.7,758z"/>
		</g>
	</g>
</g>
<g>
	<g>
		<g>
			<path class="st1" d="M527.8,663.5h-7.9l19.8-58h7.9L527.8,663.5z"/>
			<path class="st1" d="M557.1,642.6c0,1.5,0.4,2.7,1.3,3.6c0.9,0.8,2.1,1.3,3.6,1.3c1.6,0,2.8-0.4,3.6-1.3c0.8-0.9,1.3-2.1,1.3-3.7
				l0.4,6.9c-0.6,1.7-1.6,3.2-2.9,4.4c-1.4,1.2-3,1.8-5,1.8c-3.4,0-6-1.1-7.9-3.3c-1.8-2.2-2.8-5.3-2.8-9.3v-19.5h8.4V642.6z
				 M566.9,623.4h8.3v31.6h-8.3V623.4z"/>
			<path class="st1" d="M590,655c-1.8-0.3-3.5-0.8-5-1.5c-1.6-0.6-2.9-1.4-4.1-2.3l5.2-6.4c1.5,1,3.1,1.7,4.8,2.3s3.3,0.8,4.8,0.8
				c2,0,3.5-0.2,4.5-0.7c1.1-0.4,1.6-1,1.6-1.8c0-0.7-0.2-1.2-0.7-1.6c-0.5-0.4-1.1-0.6-1.8-0.8c-0.7-0.2-1.8-0.3-3.1-0.4
				c-0.4,0-0.7-0.1-1.1-0.1c-0.4,0-0.8-0.1-1.1-0.1c-0.1,0-0.2,0-0.3,0c-0.1,0-0.2,0-0.3,0c-2.4-0.3-4.2-0.7-5.7-1.1
				c-1.4-0.4-2.6-1.3-3.6-2.6c-1-1.3-1.5-3.1-1.5-5.5c0-2.1,0.5-3.9,1.5-5.4c1-1.5,2.5-2.6,4.4-3.4c1.9-0.8,4.3-1.2,7-1.2
				c1.6,0,3.2,0.2,4.8,0.5c1.6,0.3,3.1,0.8,4.6,1.4c1.5,0.6,2.8,1.3,4.1,2.2l-5,6.1c-1.4-0.8-2.8-1.4-4.3-1.8s-2.9-0.6-4.3-0.6
				c-1.7,0-3,0.2-3.9,0.6c-0.9,0.4-1.4,0.9-1.4,1.6c0,0.5,0.2,0.9,0.7,1.2c0.5,0.3,1.1,0.5,1.9,0.6c0.7,0.1,1.8,0.3,3.2,0.4
				c0.2,0,0.4,0,0.5,0.1c0.2,0,0.4,0,0.5,0.1c0.1,0,0.2,0,0.3,0c0.1,0,0.2,0,0.3,0c2.5,0.3,4.5,0.7,6,1.1c1.5,0.4,2.9,1.3,3.9,2.7
				c1.1,1.3,1.6,3.3,1.6,5.9c0,2.2-0.5,4.1-1.6,5.6c-1.1,1.6-2.6,2.8-4.6,3.6s-4.5,1.2-7.3,1.2C593.6,655.5,591.8,655.3,590,655z"/>
			<path class="st1" d="M621.5,653.8c-2.2-1.1-3.8-2.7-5-4.8c-1.1-2.1-1.7-4.7-1.7-7.7v-3.6c0-3.1,0.5-5.8,1.6-8s2.7-3.9,4.8-5.1
				s4.6-1.7,7.5-1.7c2.8,0,5.1,0.7,7.1,2.1c2,1.4,3.5,3.4,4.5,6c1,2.6,1.5,5.8,1.5,9.5v2.1h-21.6V637h14l-0.1-0.7
				c-0.2-1.8-0.8-3.2-1.7-4.2c-0.9-1-2.2-1.5-3.7-1.5c-2,0-3.6,0.6-4.7,1.8c-1.1,1.2-1.7,2.9-1.7,5.1v4c0,2.2,0.6,3.8,1.8,5
				s2.9,1.8,5.1,1.8c1.1,0,2.2-0.2,3.3-0.6c1.1-0.4,2.1-1,3-1.7l5.5,4.8c-1.6,1.5-3.5,2.7-5.5,3.5c-2.1,0.8-4.1,1.2-6.2,1.2
				C626.3,655.5,623.7,655,621.5,653.8z"/>
			<path class="st1" d="M649.3,623.4h9v31.6h-9V623.4z M665.6,631.3c-0.6-0.2-1.3-0.3-2-0.3c-1.7,0-3,0.5-3.9,1.6
				c-0.9,1.1-1.4,2.6-1.4,4.5l-0.6-8.2c0.9-1.9,2-3.4,3.4-4.4c1.4-1,2.9-1.6,4.6-1.6c1.3,0,2.5,0.2,3.6,0.6c1.1,0.4,2,1,2.8,1.8
				l-4.9,6.8C666.7,631.8,666.2,631.5,665.6,631.3z"/>
			<path class="st1" d="M692.2,610.7h8.4v8.4h-8.4V610.7z M692.2,623.4h8.4v31.6h-8.4V623.4z"/>
			<path class="st1" d="M708.3,623.4h8.4v31.6h-8.4V623.4z M726.6,635.9c0-1.5-0.4-2.7-1.3-3.6c-0.9-0.9-2.1-1.3-3.8-1.3
				c-1.5,0-2.7,0.4-3.6,1.3c-0.8,0.9-1.3,2.1-1.3,3.6l-0.6-7c1-2,2.1-3.5,3.4-4.5c1.3-1,3-1.5,5-1.5c3.3,0,5.9,1.1,7.7,3.4
				c1.8,2.2,2.7,5.4,2.7,9.5v19.2h-8.4V635.9z"/>
			<path class="st1" d="M761.2,623.4h8.3l-11.9,31.6h-5.9l-11.9-31.6h8.3l6.5,19.8L761.2,623.4z"/>
			<path class="st1" d="M774,610.7h8.4v8.4H774V610.7z M774,623.4h8.4v31.6H774V623.4z"/>
			<path class="st1" d="M787.6,623.4h15.5v7.1h-15.5V623.4z M792.8,653.1c-1.3-1.4-1.9-3.5-1.9-6.3v-32.6h8.4v30.5
				c0,0.8,0.2,1.4,0.5,1.8c0.3,0.4,0.8,0.6,1.3,0.6h2.1v8h-4.2C796.2,655.2,794.1,654.5,792.8,653.1z"/>
			<path class="st1" d="M816.2,653.8c-2.2-1.1-3.8-2.7-5-4.8c-1.1-2.1-1.7-4.7-1.7-7.7v-3.6c0-3.1,0.5-5.8,1.6-8s2.7-3.9,4.8-5.1
				s4.6-1.7,7.5-1.7c2.8,0,5.1,0.7,7.1,2.1c2,1.4,3.5,3.4,4.5,6c1,2.6,1.5,5.8,1.5,9.5v2.1H815V637h14l-0.1-0.7
				c-0.2-1.8-0.8-3.2-1.7-4.2c-0.9-1-2.2-1.5-3.7-1.5c-2,0-3.6,0.6-4.7,1.8c-1.1,1.2-1.7,2.9-1.7,5.1v4c0,2.2,0.6,3.8,1.8,5
				s2.9,1.8,5.1,1.8c1.1,0,2.2-0.2,3.3-0.6c1.1-0.4,2.1-1,3-1.7l5.5,4.8c-1.6,1.5-3.5,2.7-5.5,3.5c-2.1,0.8-4.1,1.2-6.2,1.2
				C821,655.5,818.4,655,816.2,653.8z"/>
		</g>
	</g>
</g>
</svg>
