<?xml version="1.0" encoding="utf-8"?>
<!-- Generator: Adobe Illustrator 25.0.0, SVG Export Plug-In . SVG Version: 6.00 Build 0)  -->
<svg version="1.1" id="Layer_1" xmlns="http://www.w3.org/2000/svg" xmlns:xlink="http://www.w3.org/1999/xlink" x="0px" y="0px"
	 viewBox="0 0 1528.7 1068.6" style="enable-background:new 0 0 1528.7 1068.6;" xml:space="preserve">
<style type="text/css">
	.st0{fill:#292841;}
	.st1{fill:#2F3136;}
	.st2{fill:#FFFFFF;}
	.st3{fill:#B9BBBE;}
	.st4{fill:#ED4245;}
	.st5{fill:#FEE75C;}
	.st6{fill:#EB459E;}
	.st7{fill:#5865F2;}
	.st8{fill:#57F287;}
	.st9{fill:#F6F6F6;}
	.st10{fill:#4FDC7C;}
	.st11{opacity:0.24;fill:#B9BBBE;enable-background:new    ;}
	.st12{opacity:0.5;fill:#292841;}
	.st13{opacity:0.5;fill:#FFFFFF;}
	.st14{opacity:0.5;fill:#B9BBBE;}
	.st15{opacity:0.5;fill:#ED4245;}
	.st16{opacity:0.5;fill:#5865F2;}
	.st17{fill:#C2905B;}
	.st18{fill:#9FB35B;}
	.st19{fill:#A17548;}
	.st20{enable-background:new    ;}
	.st21{fill:#523C25;}
	.st22{fill:#725333;}
	.st23{fill:#8D663F;}
	.st24{fill:#36393F;}
	.st25{fill:#606060;}
	.st26{fill:none;}
	.st27{opacity:0.43;}
</style>
<path class="st0" d="M1201.8,40.2v983.1c0,12-9.7,21.7-21.7,21.7H356.9c-12,0-21.7-9.7-21.7-21.7V40.2c0-12,9.7-21.7,21.7-21.7H1180
	C1192,18.4,1201.8,28.1,1201.8,40.2z"/>
<path class="st11" d="M1184.1,59.5v55.3c0,12-9.7,21.7-21.7,21.7H374.6c-12,0-21.7-9.7-21.7-21.7V59.5c0-12,9.7-21.7,21.7-21.7
	h787.7C1174.3,37.8,1184.1,47.6,1184.1,59.5z"/>
<g class="st27">
	<g>
		<g>
			<path class="st2" d="M394.1,102.2c-1.9-1.1-3.4-2.7-4.4-4.7s-1.6-4.4-1.6-7.1v-9.9c0-2.7,0.5-5,1.6-7.1s2.5-3.6,4.4-4.7
				c1.9-1.1,4.1-1.7,6.6-1.7c2.1,0,4,0.4,5.7,1.3s3.2,2.1,4.4,3.8c1.2,1.6,2,3.5,2.4,5.6h-5.2c-0.3-1.1-0.8-2.1-1.6-3
				c-0.7-0.9-1.6-1.6-2.6-2c-1-0.5-2-0.7-3.1-0.7c-1.5,0-2.8,0.4-3.9,1.1c-1.1,0.7-2,1.7-2.6,3c-0.6,1.3-0.9,2.8-0.9,4.5v9.9
				c0,1.7,0.3,3.2,0.9,4.5s1.5,2.3,2.6,3c1.1,0.7,2.4,1.1,3.9,1.1c1.1,0,2.1-0.2,3.1-0.7c1-0.4,1.8-1.1,2.6-2
				c0.7-0.9,1.3-1.9,1.6-3.1h5.2c-0.4,2.1-1.2,4-2.4,5.6c-1.2,1.6-2.6,2.9-4.4,3.8s-3.6,1.3-5.7,1.3
				C398.2,103.8,396,103.3,394.1,102.2z"/>
			<path class="st2" d="M419.8,67.4h5.1v36.1h-5.1V67.4z M435.4,87.8c0-1.8-0.5-3.2-1.4-4.2c-0.9-1-2.3-1.5-4-1.5
				c-1.7,0-2.9,0.4-3.8,1.3c-0.9,0.9-1.4,2.1-1.4,3.6l-0.5-5c0.8-1.5,1.8-2.7,3.1-3.5c1.3-0.8,2.7-1.3,4.3-1.3c2.8,0,5,0.9,6.5,2.7
				c1.5,1.8,2.3,4.4,2.3,7.7v15.6h-5.1V87.8z"/>
			<path class="st2" d="M452.3,102.5c-1.6-0.9-2.8-2.2-3.6-3.8c-0.8-1.7-1.3-3.7-1.3-6.1v-4.2c0-2.3,0.4-4.3,1.3-6
				c0.8-1.7,2-2.9,3.6-3.8c1.6-0.9,3.5-1.3,5.7-1.3s4.1,0.4,5.7,1.3c1.6,0.9,2.8,2.1,3.6,3.8c0.8,1.7,1.3,3.7,1.3,6v4.3
				c0,2.3-0.4,4.4-1.3,6c-0.8,1.7-2,2.9-3.6,3.8c-1.6,0.9-3.5,1.3-5.7,1.3S453.9,103.4,452.3,102.5z M462.1,97.3
				c1-1.1,1.5-2.7,1.5-4.7v-4.3c0-2-0.5-3.5-1.5-4.6c-1-1.1-2.3-1.6-4.1-1.6s-3.1,0.5-4.1,1.6c-1,1.1-1.5,2.6-1.5,4.6v4.3
				c0,2,0.5,3.6,1.5,4.7c1,1.1,2.3,1.7,4.1,1.7S461.2,98.4,462.1,97.3z"/>
			<path class="st2" d="M480,102.5c-1.6-0.9-2.8-2.2-3.6-3.8c-0.8-1.7-1.3-3.7-1.3-6.1v-4.2c0-2.3,0.4-4.3,1.3-6
				c0.8-1.7,2-2.9,3.6-3.8c1.6-0.9,3.5-1.3,5.7-1.3s4.1,0.4,5.7,1.3c1.6,0.9,2.8,2.1,3.6,3.8c0.8,1.7,1.3,3.7,1.3,6v4.3
				c0,2.3-0.4,4.4-1.3,6c-0.8,1.7-2,2.9-3.6,3.8c-1.6,0.9-3.5,1.3-5.7,1.3S481.5,103.4,480,102.5z M489.8,97.3
				c1-1.1,1.5-2.7,1.5-4.7v-4.3c0-2-0.5-3.5-1.5-4.6c-1-1.1-2.3-1.6-4.1-1.6s-3.1,0.5-4.1,1.6c-1,1.1-1.5,2.6-1.5,4.6v4.3
				c0,2,0.5,3.6,1.5,4.7c1,1.1,2.3,1.7,4.1,1.7S488.8,98.4,489.8,97.3z"/>
			<path class="st2" d="M508.3,103.4c-1.3-0.3-2.6-0.7-3.7-1.3c-1.2-0.6-2.2-1.3-3.2-2.2l3-3.7c1.4,1.1,2.8,1.9,4.1,2.4
				c1.4,0.5,2.7,0.8,4.1,0.8c2,0,3.5-0.3,4.5-0.9c1-0.6,1.5-1.5,1.5-2.8c0-0.8-0.3-1.4-0.8-1.9c-0.5-0.4-1.2-0.7-2-0.8
				c-0.8-0.1-2-0.3-3.4-0.4c-0.1,0-0.3,0-0.4,0c-0.1,0-0.3,0-0.4,0c-0.1,0-0.1,0-0.2,0c-0.1,0-0.1,0-0.2,0c-1.7-0.1-3.1-0.4-4.2-0.7
				c-1.2-0.4-2.1-1-2.9-2c-0.8-1-1.2-2.4-1.2-4.2c0-1.8,0.4-3.3,1.1-4.5c0.7-1.2,1.9-2.1,3.3-2.7c1.5-0.6,3.3-0.9,5.5-0.9
				c1.3,0,2.6,0.1,3.8,0.4s2.4,0.6,3.5,1.1c1.1,0.5,2.2,1.1,3.2,1.8l-3.1,3.7c-1.3-0.8-2.6-1.4-3.8-1.9c-1.2-0.4-2.5-0.6-3.7-0.6
				c-1.7,0-3,0.3-3.9,0.9c-0.9,0.6-1.3,1.5-1.3,2.6c0,0.7,0.2,1.2,0.7,1.6c0.5,0.3,1.1,0.6,1.8,0.7s1.8,0.2,3.2,0.3
				c0.1,0,0.2,0,0.3,0c0.1,0,0.2,0,0.3,0c0,0,0.1,0,0.1,0c0,0,0.1,0,0.1,0c1.8,0.1,3.3,0.4,4.6,0.7c1.3,0.4,2.3,1.1,3.2,2.2
				c0.9,1.1,1.3,2.6,1.3,4.7c0,1.9-0.4,3.4-1.2,4.6c-0.8,1.2-2,2.1-3.6,2.7c-1.6,0.6-3.6,0.9-6,0.9
				C511.1,103.8,509.6,103.7,508.3,103.4z"/>
			<path class="st2" d="M534.3,102.5c-1.7-0.9-3-2.2-3.9-3.9c-0.9-1.7-1.3-3.8-1.3-6.3v-2.9c0-2.5,0.4-4.7,1.3-6.5
				c0.9-1.8,2.1-3.2,3.7-4.1c1.6-0.9,3.6-1.4,5.9-1.4c2.1,0,4,0.5,5.5,1.6s2.7,2.6,3.5,4.7c0.8,2,1.2,4.5,1.2,7.3v1.7h-17.4v-4.1
				h12.5c-0.1-2.1-0.7-3.7-1.6-4.9c-0.9-1.2-2.2-1.7-3.8-1.7c-1.9,0-3.4,0.6-4.5,1.9c-1.1,1.3-1.6,3-1.6,5.3v3.3
				c0,2.1,0.6,3.8,1.7,4.9c1.1,1.1,2.7,1.7,4.8,1.7c1,0,2-0.2,3.1-0.6c1-0.4,1.9-1,2.7-1.7l3.3,3.3c-1.3,1.2-2.7,2.2-4.3,2.8
				c-1.6,0.7-3.2,1-4.8,1C538,103.8,536,103.4,534.3,102.5z"/>
			<path class="st2" d="M571.8,101.8c-1.6-1.3-2.4-3.3-2.4-6c0-2.5,0.7-4.5,2.2-5.7c1.4-1.3,3.6-1.9,6.5-1.9h7.3l0.3,4.1h-7.6
				c-1.3,0-2.3,0.3-3,0.9c-0.7,0.6-1,1.5-1,2.7c0,1.3,0.4,2.3,1.3,2.9c0.9,0.6,2.2,0.9,4,0.9c1.9,0,3.4-0.2,4.3-0.6
				c1-0.4,1.4-1.1,1.4-1.9l0.5,3.6c-0.4,0.7-1,1.3-1.6,1.7c-0.7,0.4-1.4,0.8-2.3,1c-0.9,0.2-1.8,0.3-2.9,0.3
				C575.8,103.8,573.4,103.2,571.8,101.8z M585.2,87.1c0-1.7-0.5-3-1.4-3.9c-0.9-0.9-2.2-1.4-3.8-1.4c-1,0-2,0.2-3,0.5
				c-1,0.3-1.9,0.8-2.6,1.3l-3.7-2.5c1-1.2,2.3-2.1,3.9-2.7c1.6-0.7,3.4-1,5.3-1c2.1,0,4,0.4,5.5,1.1c1.5,0.8,2.7,1.8,3.5,3.3
				c0.8,1.4,1.2,3.2,1.2,5.2v16.5h-4.8V87.1z"/>
			<path class="st2" d="M616.4,96.8c0,0.6,0.1,1.1,0.4,1.5s0.7,0.5,1.2,0.5h2.4v4.8h-3c-1.9,0-3.4-0.6-4.5-1.8s-1.6-2.9-1.6-5V67.4
				h5.1V96.8z"/>
			<path class="st2" d="M627.2,101.8c-1.6-1.3-2.4-3.3-2.4-6c0-2.5,0.7-4.5,2.2-5.7c1.4-1.3,3.6-1.9,6.5-1.9h7.3l0.3,4.1h-7.6
				c-1.3,0-2.3,0.3-3,0.9c-0.7,0.6-1,1.5-1,2.7c0,1.3,0.4,2.3,1.3,2.9c0.9,0.6,2.2,0.9,4,0.9c1.9,0,3.4-0.2,4.3-0.6
				c1-0.4,1.4-1.1,1.4-1.9l0.5,3.6c-0.4,0.7-1,1.3-1.6,1.7c-0.7,0.4-1.4,0.8-2.3,1c-0.9,0.2-1.8,0.3-2.9,0.3
				C631.1,103.8,628.8,103.2,627.2,101.8z M640.6,87.1c0-1.7-0.5-3-1.4-3.9c-0.9-0.9-2.2-1.4-3.8-1.4c-1,0-2,0.2-3,0.5
				c-1,0.3-1.9,0.8-2.6,1.3l-3.7-2.5c1-1.2,2.3-2.1,3.9-2.7c1.6-0.7,3.4-1,5.3-1c2.1,0,4,0.4,5.5,1.1c1.5,0.8,2.7,1.8,3.5,3.3
				c0.8,1.4,1.2,3.2,1.2,5.2v16.5h-4.8V87.1z"/>
			<path class="st2" d="M653.1,77.7h5.1v25.7h-5.1V77.7z M668.7,87.8c0-1.8-0.5-3.2-1.4-4.2c-0.9-1-2.3-1.5-4-1.5
				c-1.7,0-2.9,0.4-3.8,1.3c-0.9,0.9-1.4,2.1-1.4,3.7l-0.5-5c0.8-1.6,1.8-2.8,3.1-3.6s2.7-1.3,4.3-1.3c2.8,0,5,0.9,6.5,2.7
				c1.5,1.8,2.3,4.4,2.3,7.7v15.6h-5.1V87.8z"/>
			<path class="st2" d="M684.8,102.7c-1.3-0.8-2.3-2-3-3.6c-0.7-1.6-1-3.5-1-5.7v-5.7c0-2.2,0.3-4.1,1-5.7c0.7-1.6,1.7-2.8,3-3.6
				s2.9-1.2,4.7-1.2c1.5,0,2.9,0.4,4.2,1.2c1.3,0.8,2.3,1.9,3.1,3.3l-0.5,5.3c0-1.1-0.2-2-0.6-2.8c-0.4-0.8-1-1.4-1.7-1.8
				c-0.8-0.4-1.7-0.6-2.7-0.6c-1.7,0-3,0.5-3.9,1.6c-0.9,1-1.4,2.5-1.4,4.4v5.6c0,1.9,0.5,3.3,1.4,4.3s2.2,1.5,3.9,1.5
				c1.1,0,2-0.2,2.7-0.6c0.8-0.4,1.3-1,1.7-1.8c0.4-0.8,0.6-1.7,0.6-2.9l0.3,5.4c-0.5,1.3-1.4,2.3-2.5,3.2c-1.2,0.9-2.6,1.3-4.3,1.3
				C687.8,103.9,686.1,103.5,684.8,102.7z M684.9,112.8c-1.5-0.7-2.7-1.7-3.6-3l3.4-3.1c0.7,0.9,1.5,1.6,2.4,2.1
				c0.9,0.5,1.9,0.7,2.9,0.7c1.9,0,3.4-0.5,4.5-1.6c1.1-1.1,1.6-2.6,1.6-4.5V77.7h5.1v25c0,2.4-0.4,4.4-1.3,6.1
				c-0.9,1.7-2.1,3-3.8,3.8c-1.7,0.9-3.6,1.3-6,1.3C688.2,113.9,686.4,113.5,684.9,112.8z"/>
			<path class="st2" d="M713.9,93.3c0,1.8,0.5,3.2,1.4,4.2c0.9,1,2.2,1.5,3.9,1.5c1.7,0,2.9-0.4,3.8-1.3c0.9-0.9,1.4-2.1,1.4-3.7
				l0.3,5.4c-0.5,1.3-1.4,2.3-2.6,3.2c-1.2,0.9-2.7,1.3-4.4,1.3c-2.8,0-5-0.9-6.6-2.7c-1.5-1.8-2.3-4.4-2.3-7.7V77.7h5.1V93.3z
				 M724.4,77.7h5v25.7h-5V77.7z"/>
			<path class="st2" d="M738.2,101.8c-1.6-1.3-2.4-3.3-2.4-6c0-2.5,0.7-4.5,2.2-5.7c1.4-1.3,3.6-1.9,6.5-1.9h7.3l0.3,4.1h-7.6
				c-1.3,0-2.3,0.3-3,0.9c-0.7,0.6-1,1.5-1,2.7c0,1.3,0.4,2.3,1.3,2.9c0.9,0.6,2.2,0.9,4,0.9c1.9,0,3.4-0.2,4.3-0.6
				c1-0.4,1.4-1.1,1.4-1.9l0.5,3.6c-0.4,0.7-1,1.3-1.6,1.7c-0.7,0.4-1.4,0.8-2.3,1c-0.9,0.2-1.8,0.3-2.9,0.3
				C742.2,103.8,739.8,103.2,738.2,101.8z M751.6,87.1c0-1.7-0.5-3-1.4-3.9c-0.9-0.9-2.2-1.4-3.8-1.4c-1,0-2,0.2-3,0.5
				c-1,0.3-1.9,0.8-2.6,1.3l-3.7-2.5c1-1.2,2.3-2.1,3.9-2.7c1.6-0.7,3.4-1,5.3-1c2.1,0,4,0.4,5.5,1.1c1.5,0.8,2.7,1.8,3.5,3.3
				c0.8,1.4,1.2,3.2,1.2,5.2v16.5h-4.8V87.1z"/>
			<path class="st2" d="M767.5,102.7c-1.3-0.8-2.3-2-3-3.6c-0.7-1.6-1-3.5-1-5.7v-5.7c0-2.2,0.3-4.1,1-5.7c0.7-1.6,1.7-2.8,3-3.6
				s2.9-1.2,4.7-1.2c1.5,0,2.9,0.4,4.2,1.2c1.3,0.8,2.3,1.9,3.1,3.3l-0.5,5.3c0-1.1-0.2-2-0.6-2.8c-0.4-0.8-1-1.4-1.7-1.8
				c-0.8-0.4-1.7-0.6-2.7-0.6c-1.7,0-3,0.5-3.9,1.6c-0.9,1-1.4,2.5-1.4,4.4v5.6c0,1.9,0.5,3.3,1.4,4.3s2.2,1.5,3.9,1.5
				c1.1,0,2-0.2,2.7-0.6c0.8-0.4,1.3-1,1.7-1.8c0.4-0.8,0.6-1.7,0.6-2.9l0.3,5.4c-0.5,1.3-1.4,2.3-2.5,3.2c-1.2,0.9-2.6,1.3-4.3,1.3
				C770.4,103.9,768.8,103.5,767.5,102.7z M767.6,112.8c-1.5-0.7-2.7-1.7-3.6-3l3.4-3.1c0.7,0.9,1.5,1.6,2.4,2.1
				c0.9,0.5,1.9,0.7,2.9,0.7c1.9,0,3.4-0.5,4.5-1.6c1.1-1.1,1.6-2.6,1.6-4.5V77.7h5.1v25c0,2.4-0.4,4.4-1.3,6.1
				c-0.9,1.7-2.1,3-3.8,3.8c-1.7,0.9-3.6,1.3-6,1.3C770.8,113.9,769.1,113.5,767.6,112.8z"/>
			<path class="st2" d="M796,102.5c-1.7-0.9-3-2.2-3.9-3.9c-0.9-1.7-1.3-3.8-1.3-6.3v-2.9c0-2.5,0.4-4.7,1.3-6.5
				c0.9-1.8,2.1-3.2,3.7-4.1c1.6-0.9,3.6-1.4,5.9-1.4c2.1,0,4,0.5,5.5,1.6c1.5,1.1,2.7,2.6,3.5,4.7s1.2,4.5,1.2,7.3v1.7h-17.4v-4.1
				H807c-0.1-2.1-0.7-3.7-1.6-4.9c-0.9-1.2-2.2-1.7-3.8-1.7c-1.9,0-3.4,0.6-4.5,1.9c-1.1,1.3-1.6,3-1.6,5.3v3.3
				c0,2.1,0.6,3.8,1.7,4.9c1.1,1.1,2.7,1.7,4.8,1.7c1,0,2-0.2,3-0.6c1-0.4,1.9-1,2.7-1.7l3.3,3.3c-1.3,1.2-2.7,2.2-4.3,2.8
				s-3.2,1-4.8,1C799.7,103.8,797.6,103.4,796,102.5z"/>
		</g>
	</g>
</g>
<path class="st3" d="M1138.2,79.6L1138.2,79.6c1,1,1,2.5,0,3.4l-16.5,16.5c-1,1-2.5,1-3.4,0l0,0c-1-1-1-2.5,0-3.4l16.5-16.5
	C1135.8,78.7,1137.3,78.7,1138.2,79.6z"/>
<path class="st3" d="M1101.5,79.6L1101.5,79.6c1-1,2.5-1,3.4,0l16.5,16.5c1,1,1,2.5,0,3.4l0,0c-1,1-2.5,1-3.4,0L1101.5,83
	C1100.6,82.1,1100.6,80.5,1101.5,79.6z"/>
<g>
	<g>
		<g>
			<path class="st2" d="M396.5,232.1c-1.7-0.9-3-2.2-3.9-3.9c-0.9-1.7-1.3-3.8-1.3-6.3V219c0-2.5,0.4-4.7,1.3-6.5
				c0.9-1.8,2.1-3.2,3.7-4.1c1.6-0.9,3.6-1.4,5.9-1.4c2.1,0,4,0.5,5.5,1.6s2.7,2.6,3.5,4.7c0.8,2,1.2,4.5,1.2,7.3v1.7H395v-4.1h12.5
				c-0.1-2.1-0.7-3.7-1.6-4.9c-0.9-1.2-2.2-1.7-3.8-1.7c-1.9,0-3.4,0.6-4.5,1.9c-1.1,1.3-1.6,3-1.6,5.3v3.3c0,2.1,0.6,3.8,1.7,4.9
				c1.1,1.1,2.7,1.7,4.8,1.7c1,0,2-0.2,3.1-0.6c1-0.4,1.9-1,2.7-1.7l3.3,3.3c-1.3,1.2-2.7,2.2-4.3,2.8c-1.6,0.7-3.2,1-4.8,1
				C400.2,233.5,398.2,233,396.5,232.1z"/>
			<path class="st2" d="M419.3,207.3h5.1v25.7h-5.1V207.3z M434.9,217.5c0-1.8-0.5-3.2-1.4-4.2c-0.9-1-2.3-1.5-4-1.5
				c-1.7,0-2.9,0.4-3.8,1.3c-0.9,0.9-1.4,2.1-1.4,3.7l-0.5-5c0.8-1.6,1.8-2.8,3.1-3.6s2.7-1.3,4.3-1.3c2.8,0,5,0.9,6.5,2.7
				c1.5,1.8,2.3,4.4,2.3,7.7v15.6h-5.1V217.5z"/>
			<path class="st2" d="M451,232.3c-1.3-0.8-2.3-2-3-3.6c-0.7-1.6-1-3.5-1-5.7v-5.7c0-2.2,0.3-4.1,1-5.7c0.7-1.6,1.7-2.8,3-3.6
				s2.9-1.2,4.7-1.2c1.5,0,2.9,0.4,4.2,1.2c1.3,0.8,2.3,1.9,3.1,3.3l-0.5,5.3c0-1.1-0.2-2-0.6-2.8c-0.4-0.8-1-1.4-1.7-1.8
				c-0.8-0.4-1.7-0.6-2.7-0.6c-1.7,0-3,0.5-3.9,1.6c-0.9,1-1.4,2.5-1.4,4.4v5.6c0,1.9,0.5,3.3,1.4,4.3s2.2,1.5,3.9,1.5
				c1.1,0,2-0.2,2.7-0.6c0.8-0.4,1.3-1,1.7-1.8c0.4-0.8,0.6-1.7,0.6-2.9l0.3,5.4c-0.5,1.3-1.4,2.3-2.5,3.2c-1.2,0.9-2.6,1.3-4.3,1.3
				C453.9,233.5,452.3,233.1,451,232.3z M451.1,242.5c-1.5-0.7-2.7-1.7-3.6-3l3.4-3.1c0.7,0.9,1.5,1.6,2.4,2.1
				c0.9,0.5,1.9,0.7,2.9,0.7c1.9,0,3.4-0.5,4.5-1.6c1.1-1.1,1.6-2.6,1.6-4.5v-25.7h5.1v25c0,2.4-0.4,4.4-1.3,6.1
				c-0.9,1.7-2.1,3-3.8,3.8c-1.7,0.9-3.6,1.3-6,1.3C454.4,243.6,452.6,243.2,451.1,242.5z"/>
			<path class="st2" d="M480.1,226.4c0,0.6,0.1,1.1,0.4,1.5s0.7,0.5,1.2,0.5h2.4v4.8h-3c-1.9,0-3.4-0.6-4.5-1.8s-1.6-2.9-1.6-5V197
				h5.1V226.4z"/>
			<path class="st2" d="M489.8,197h5.1v5.1h-5.1V197z M489.8,207.3h5.1v25.7h-5.1V207.3z"/>
			<path class="st2" d="M507.3,233c-1.3-0.3-2.6-0.7-3.7-1.3c-1.2-0.6-2.2-1.3-3.2-2.2l3-3.7c1.4,1.1,2.8,1.9,4.1,2.4
				c1.4,0.5,2.7,0.8,4.1,0.8c2,0,3.5-0.3,4.5-0.9c1-0.6,1.5-1.5,1.5-2.8c0-0.8-0.3-1.4-0.8-1.9c-0.5-0.4-1.2-0.7-2-0.8
				c-0.8-0.1-2-0.3-3.4-0.4c-0.1,0-0.3,0-0.4,0c-0.1,0-0.3,0-0.4,0c-0.1,0-0.1,0-0.2,0c-0.1,0-0.1,0-0.2,0c-1.7-0.1-3.1-0.4-4.2-0.7
				c-1.2-0.4-2.1-1-2.9-2c-0.8-1-1.2-2.4-1.2-4.2c0-1.8,0.4-3.3,1.1-4.5c0.7-1.2,1.9-2.1,3.3-2.7c1.5-0.6,3.3-0.9,5.5-0.9
				c1.3,0,2.6,0.1,3.8,0.4s2.4,0.6,3.5,1.1c1.1,0.5,2.2,1.1,3.2,1.8l-3.1,3.7c-1.3-0.8-2.6-1.4-3.8-1.9c-1.2-0.4-2.5-0.6-3.7-0.6
				c-1.7,0-3,0.3-3.9,0.9c-0.9,0.6-1.3,1.5-1.3,2.6c0,0.7,0.2,1.2,0.7,1.6c0.5,0.3,1.1,0.6,1.8,0.7s1.8,0.2,3.2,0.3
				c0.1,0,0.2,0,0.3,0c0.1,0,0.2,0,0.3,0c0,0,0.1,0,0.1,0c0,0,0.1,0,0.1,0c1.8,0.1,3.3,0.4,4.6,0.7c1.3,0.4,2.3,1.1,3.2,2.2
				c0.9,1.1,1.3,2.6,1.3,4.7c0,1.9-0.4,3.4-1.2,4.6c-0.8,1.2-2,2.1-3.6,2.7c-1.6,0.6-3.6,0.9-6,0.9
				C510.1,233.5,508.7,233.3,507.3,233z"/>
			<path class="st2" d="M528.8,197h5.1v36.1h-5.1V197z M544.5,217.5c0-1.8-0.5-3.2-1.4-4.2c-0.9-1-2.3-1.5-4-1.5
				c-1.7,0-2.9,0.4-3.8,1.3c-0.9,0.9-1.4,2.1-1.4,3.6l-0.5-5c0.8-1.5,1.8-2.7,3.1-3.5c1.3-0.8,2.7-1.3,4.3-1.3c2.8,0,5,0.9,6.5,2.7
				c1.5,1.8,2.3,4.4,2.3,7.7v15.6h-5.1V217.5z"/>
		</g>
	</g>
</g>
<path class="st11" d="M768.3,285.2H393.4c-2.9,0-5.3-2.4-5.3-5.3V261c0-2.9,2.4-5.3,5.3-5.3h374.9c2.9,0,5.3,2.4,5.3,5.3v18.9
	C773.6,282.9,771.2,285.2,768.3,285.2z"/>
<g>
	<g>
		<g>
			<path class="st2" d="M395.4,358.1c-1.3-0.8-2.3-2-3-3.6c-0.7-1.6-1-3.5-1-5.7v-5.7c0-2.2,0.3-4.1,1-5.7c0.7-1.6,1.7-2.8,3-3.6
				s2.9-1.2,4.7-1.2c1.5,0,2.9,0.4,4.2,1.2c1.3,0.8,2.3,1.9,3.1,3.3l-0.5,5.3c0-1.1-0.2-2-0.6-2.8c-0.4-0.8-1-1.4-1.7-1.8
				c-0.8-0.4-1.7-0.6-2.7-0.6c-1.7,0-3,0.5-3.9,1.6c-0.9,1-1.4,2.5-1.4,4.4v5.6c0,1.9,0.5,3.3,1.4,4.3s2.2,1.5,3.9,1.5
				c1.1,0,2-0.2,2.7-0.6c0.8-0.4,1.3-1,1.7-1.8c0.4-0.8,0.6-1.7,0.6-2.9l0.3,5.4c-0.5,1.3-1.4,2.3-2.5,3.2c-1.2,0.9-2.6,1.3-4.3,1.3
				C398.3,359.3,396.7,358.9,395.4,358.1z M406.7,322.8h5.1v36.1h-5.1V322.8z"/>
			<path class="st2" d="M423.9,357.9c-1.7-0.9-3-2.2-3.9-3.9c-0.9-1.7-1.3-3.8-1.3-6.3v-2.9c0-2.5,0.4-4.7,1.3-6.5
				c0.9-1.8,2.1-3.2,3.7-4.1c1.6-0.9,3.6-1.4,5.9-1.4c2.1,0,4,0.5,5.5,1.6s2.7,2.6,3.5,4.7c0.8,2,1.2,4.5,1.2,7.3v1.7h-17.4V344
				h12.5c-0.1-2.1-0.7-3.7-1.6-4.9c-0.9-1.2-2.2-1.7-3.8-1.7c-1.9,0-3.4,0.6-4.5,1.9c-1.1,1.3-1.6,3-1.6,5.3v3.3
				c0,2.1,0.6,3.8,1.7,4.9c1.1,1.1,2.7,1.7,4.8,1.7c1,0,2-0.2,3.1-0.6s1.9-1,2.7-1.7l3.3,3.3c-1.3,1.2-2.7,2.2-4.3,2.8
				c-1.6,0.7-3.2,1-4.8,1C427.6,359.2,425.6,358.8,423.9,357.9z"/>
			<path class="st2" d="M451.7,348.8c0,1.8,0.5,3.2,1.4,4.2c0.9,1,2.2,1.5,3.9,1.5c1.7,0,2.9-0.4,3.8-1.3c0.9-0.9,1.4-2.1,1.4-3.7
				l0.3,5.4c-0.5,1.3-1.4,2.3-2.6,3.2c-1.2,0.9-2.7,1.3-4.4,1.3c-2.8,0-5-0.9-6.6-2.7c-1.5-1.8-2.3-4.4-2.3-7.7v-15.6h5.1V348.8z
				 M462.2,333.1h5v25.7h-5V333.1z"/>
			<path class="st2" d="M472.9,333.1h11.6v4.6h-11.6V333.1z M477,357.3c-1-1.1-1.5-2.8-1.5-5.1v-26.5h5.1v26.6
				c0,0.6,0.1,1.1,0.4,1.5s0.6,0.5,1.1,0.5h2.4v4.8h-2.9C479.5,359,478,358.4,477,357.3z"/>
			<path class="st2" d="M496.3,358.8c-1.3-0.3-2.6-0.7-3.7-1.3c-1.2-0.6-2.2-1.3-3.2-2.2l3-3.7c1.4,1.1,2.8,1.9,4.1,2.4
				c1.4,0.5,2.7,0.8,4.1,0.8c2,0,3.5-0.3,4.5-0.9c1-0.6,1.5-1.5,1.5-2.8c0-0.8-0.3-1.4-0.8-1.9c-0.5-0.4-1.2-0.7-2-0.8
				c-0.8-0.1-2-0.3-3.4-0.4c-0.1,0-0.3,0-0.4,0c-0.1,0-0.3,0-0.4,0c-0.1,0-0.1,0-0.2,0c-0.1,0-0.1,0-0.2,0c-1.7-0.1-3.1-0.4-4.2-0.7
				c-1.2-0.4-2.1-1-2.9-2c-0.8-1-1.2-2.4-1.2-4.2c0-1.8,0.4-3.3,1.1-4.5c0.7-1.2,1.9-2.1,3.3-2.7c1.5-0.6,3.3-0.9,5.5-0.9
				c1.3,0,2.6,0.1,3.8,0.4s2.4,0.6,3.5,1.1c1.1,0.5,2.2,1.1,3.2,1.8l-3.1,3.7c-1.3-0.8-2.6-1.4-3.8-1.9c-1.2-0.4-2.5-0.6-3.7-0.6
				c-1.7,0-3,0.3-3.9,0.9c-0.9,0.6-1.3,1.5-1.3,2.6c0,0.7,0.2,1.2,0.7,1.6c0.5,0.3,1.1,0.6,1.8,0.7s1.8,0.2,3.2,0.3
				c0.1,0,0.2,0,0.3,0c0.1,0,0.2,0,0.3,0c0,0,0.1,0,0.1,0c0,0,0.1,0,0.1,0c1.8,0.1,3.3,0.4,4.6,0.7c1.3,0.4,2.3,1.1,3.2,2.2
				c0.9,1.1,1.3,2.6,1.3,4.7c0,1.9-0.4,3.4-1.2,4.6c-0.8,1.2-2,2.1-3.6,2.7c-1.6,0.6-3.6,0.9-6,0.9
				C499.1,359.2,497.6,359.1,496.3,358.8z"/>
			<path class="st2" d="M522.2,357.9c-1.7-0.9-2.9-2.1-3.8-3.8c-0.9-1.7-1.3-3.7-1.3-6.1v-4.2c0-2.3,0.4-4.3,1.3-6s2.1-2.9,3.8-3.8
				c1.7-0.9,3.7-1.3,6-1.3c1.3,0,2.6,0.2,3.8,0.5c1.2,0.3,2.2,0.8,3.2,1.4c0.9,0.6,1.7,1.4,2.4,2.2l-3.6,3.3
				c-0.7-0.8-1.6-1.5-2.6-1.9c-1-0.4-2-0.7-3.1-0.7c-2,0-3.5,0.5-4.5,1.6c-1.1,1.1-1.6,2.6-1.6,4.6v4.2c0,2,0.5,3.6,1.6,4.7
				s2.6,1.7,4.6,1.7c1.1,0,2.1-0.2,3.1-0.7c1-0.5,1.8-1.2,2.5-2l3.6,3.5c-0.6,0.9-1.4,1.6-2.4,2.2c-0.9,0.6-2,1.1-3.2,1.4
				c-1.2,0.3-2.4,0.5-3.8,0.5C525.9,359.2,523.9,358.8,522.2,357.9z"/>
			<path class="st2" d="M543.1,322.8h5.1v36.1h-5.1V322.8z M558.7,343.3c0-1.8-0.5-3.2-1.4-4.2s-2.3-1.5-4-1.5
				c-1.7,0-2.9,0.4-3.8,1.3c-0.9,0.9-1.4,2.1-1.4,3.6l-0.5-5c0.8-1.5,1.8-2.7,3.1-3.5c1.3-0.8,2.7-1.3,4.3-1.3c2.8,0,5,0.9,6.5,2.7
				c1.5,1.8,2.3,4.4,2.3,7.8v15.6h-5.1V343.3z"/>
		</g>
	</g>
</g>
<path class="st11" d="M904.3,411H393.4c-2.9,0-5.3-2.4-5.3-5.3v-18.9c0-2.9,2.4-5.3,5.3-5.3h510.9c2.9,0,5.3,2.4,5.3,5.3v18.9
	C909.6,408.6,907.2,411,904.3,411z"/>
<g>
	<g>
		<g>
			<path class="st2" d="M390.1,458.6H403v4.3h-12.9V458.6z M392.8,455.1c0-2.3,0.5-4,1.6-5.1c1-1.1,2.7-1.7,4.8-1.7h3.7v4.8h-3.6
				c-0.5,0-0.8,0.2-1.1,0.5c-0.2,0.4-0.4,0.8-0.4,1.4v29.3h-5.1V455.1z"/>
			<path class="st2" d="M408.2,458.6h5.1v25.7h-5.1V458.6z M420.6,463.5c-0.7-0.3-1.5-0.4-2.4-0.4c-1.6,0-2.8,0.4-3.7,1.3
				s-1.3,2.1-1.3,3.7l-0.5-5c0.8-1.5,1.8-2.7,3.1-3.6s2.6-1.3,4.2-1.3c1.2,0,2.2,0.2,3.2,0.5c1,0.3,1.8,0.8,2.5,1.5l-3.3,4.5
				C421.9,464.2,421.3,463.8,420.6,463.5z"/>
			<path class="st2" d="M431,482.8c-1.6-1.3-2.4-3.3-2.4-6c0-2.5,0.7-4.5,2.2-5.7c1.4-1.3,3.6-1.9,6.5-1.9h7.3l0.3,4.1h-7.6
				c-1.3,0-2.3,0.3-3,0.9s-1,1.5-1,2.7c0,1.3,0.4,2.3,1.3,2.9c0.9,0.6,2.2,0.9,4,0.9c1.9,0,3.4-0.2,4.3-0.6s1.4-1.1,1.4-1.9l0.5,3.6
				c-0.4,0.7-1,1.3-1.6,1.7c-0.7,0.4-1.4,0.8-2.3,1c-0.9,0.2-1.8,0.3-2.9,0.3C434.9,484.7,432.5,484.1,431,482.8z M444.4,468
				c0-1.7-0.5-3-1.4-3.9c-0.9-0.9-2.2-1.4-3.8-1.4c-1,0-2,0.2-3,0.5c-1,0.3-1.9,0.8-2.6,1.3l-3.7-2.5c1-1.2,2.3-2.1,3.9-2.7
				c1.6-0.7,3.4-1,5.3-1c2.1,0,4,0.4,5.5,1.1c1.5,0.8,2.7,1.8,3.5,3.3c0.8,1.4,1.2,3.2,1.2,5.2v16.5h-4.8V468z"/>
			<path class="st2" d="M456.9,458.6h5.1v25.7h-5.1V458.6z M472.5,468.8c0-1.8-0.5-3.2-1.4-4.2s-2.3-1.5-4-1.5
				c-1.7,0-2.9,0.4-3.8,1.3c-0.9,0.9-1.4,2.1-1.4,3.7l-0.5-5c0.8-1.6,1.8-2.8,3.1-3.6c1.3-0.8,2.7-1.3,4.3-1.3c2.8,0,5,0.9,6.5,2.7
				c1.5,1.8,2.3,4.4,2.3,7.8v15.6h-5.1V468.8z"/>
			<path class="st2" d="M489.6,483.4c-1.7-0.9-2.9-2.1-3.8-3.8c-0.9-1.7-1.3-3.7-1.3-6.1v-4.2c0-2.3,0.4-4.3,1.3-6s2.1-2.9,3.8-3.8
				c1.7-0.9,3.7-1.3,6-1.3c1.3,0,2.6,0.2,3.8,0.5c1.2,0.3,2.2,0.8,3.2,1.4s1.7,1.4,2.4,2.2l-3.6,3.3c-0.7-0.8-1.6-1.5-2.6-1.9
				c-1-0.4-2-0.7-3.1-0.7c-2,0-3.5,0.5-4.5,1.6c-1.1,1.1-1.6,2.6-1.6,4.6v4.2c0,2,0.5,3.6,1.6,4.7s2.6,1.7,4.6,1.7
				c1.1,0,2.1-0.2,3.1-0.7c1-0.5,1.8-1.2,2.5-2l3.6,3.5c-0.6,0.9-1.4,1.6-2.4,2.2c-0.9,0.6-2,1.1-3.2,1.4c-1.2,0.3-2.4,0.5-3.8,0.5
				C493.3,484.7,491.3,484.3,489.6,483.4z M490.3,494.4l1-3.5c0.8,0.2,1.6,0.3,2.4,0.3c0.9,0,1.6-0.1,2-0.3s0.7-0.5,0.7-1
				c0-0.4-0.3-0.7-0.9-0.9s-1.5-0.3-2.7-0.3l2.2-2.9c2,0,3.4,0.4,4.4,1.1c1,0.7,1.5,1.8,1.5,3.3c0,1.5-0.5,2.6-1.6,3.4
				c-1.1,0.7-2.7,1.1-4.8,1.1C492.7,494.8,491.3,494.7,490.3,494.4z M492.3,482.1h4.1v6.7h-4.1V482.1z"/>
			<path class="st2" d="M511.7,482.8c-1.6-1.3-2.4-3.3-2.4-6c0-2.5,0.7-4.5,2.2-5.7c1.4-1.3,3.6-1.9,6.5-1.9h7.3l0.3,4.1H518
				c-1.3,0-2.3,0.3-3,0.9s-1,1.5-1,2.7c0,1.3,0.4,2.3,1.3,2.9c0.9,0.6,2.2,0.9,4,0.9c1.9,0,3.4-0.2,4.3-0.6s1.4-1.1,1.4-1.9l0.5,3.6
				c-0.4,0.7-1,1.3-1.6,1.7c-0.7,0.4-1.4,0.8-2.3,1c-0.9,0.2-1.8,0.3-2.9,0.3C515.6,484.7,513.2,484.1,511.7,482.8z M525.1,468
				c0-1.7-0.5-3-1.4-3.9c-0.9-0.9-2.2-1.4-3.8-1.4c-1,0-2,0.2-3,0.5c-1,0.3-1.9,0.8-2.6,1.3l-3.7-2.5c1-1.2,2.3-2.1,3.9-2.7
				c1.6-0.7,3.4-1,5.3-1c2.1,0,4,0.4,5.5,1.1c1.5,0.8,2.7,1.8,3.5,3.3c0.8,1.4,1.2,3.2,1.2,5.2v16.5h-4.8V468z"/>
			<path class="st2" d="M537.6,448.3h5.1v5.1h-5.1V448.3z M537.6,458.6h5.1v25.7h-5.1V458.6z"/>
			<path class="st2" d="M555.1,484.3c-1.3-0.3-2.6-0.7-3.7-1.3c-1.2-0.6-2.2-1.3-3.2-2.2l3-3.7c1.4,1.1,2.8,1.9,4.1,2.4
				c1.4,0.5,2.7,0.8,4.1,0.8c2,0,3.5-0.3,4.5-0.9c1-0.6,1.5-1.5,1.5-2.8c0-0.8-0.3-1.4-0.8-1.9c-0.5-0.4-1.2-0.7-2-0.8
				c-0.8-0.1-2-0.3-3.4-0.4c-0.1,0-0.3,0-0.4,0c-0.1,0-0.3,0-0.4,0c-0.1,0-0.1,0-0.2,0c-0.1,0-0.1,0-0.2,0c-1.7-0.1-3.1-0.4-4.2-0.7
				c-1.2-0.4-2.1-1-2.9-2c-0.8-1-1.2-2.4-1.2-4.2c0-1.8,0.4-3.3,1.1-4.5c0.7-1.2,1.9-2.1,3.3-2.7c1.5-0.6,3.3-0.9,5.5-0.9
				c1.3,0,2.6,0.1,3.8,0.4s2.4,0.6,3.5,1.1c1.1,0.5,2.2,1.1,3.2,1.8l-3.1,3.7c-1.3-0.8-2.6-1.4-3.8-1.9c-1.2-0.4-2.5-0.6-3.7-0.6
				c-1.7,0-3,0.3-3.9,0.9c-0.9,0.6-1.3,1.5-1.3,2.6c0,0.7,0.2,1.2,0.7,1.6c0.5,0.3,1.1,0.6,1.8,0.7s1.8,0.2,3.2,0.3
				c0.1,0,0.2,0,0.3,0c0.1,0,0.2,0,0.3,0c0,0,0.1,0,0.1,0c0,0,0.1,0,0.1,0c1.8,0.1,3.3,0.4,4.6,0.7c1.3,0.4,2.3,1.1,3.2,2.2
				c0.9,1.1,1.3,2.6,1.3,4.7c0,1.9-0.4,3.4-1.2,4.6c-0.8,1.2-2,2.1-3.6,2.7c-1.6,0.6-3.6,0.9-6,0.9
				C557.9,484.7,556.5,484.6,555.1,484.3z"/>
		</g>
	</g>
</g>
<path class="st11" d="M864.8,536.5H393.4c-2.9,0-5.3-2.4-5.3-5.3v-18.9c0-2.9,2.4-5.3,5.3-5.3h471.4c2.9,0,5.3,2.4,5.3,5.3v18.9
	C870.1,534.1,867.8,536.5,864.8,536.5z"/>
<g>
	<g>
		<g>
			<path class="st2" d="M392.1,574.1h5.1v5.1h-5.1V574.1z M392.1,584.4h5.1v25.7h-5.1V584.4z"/>
			<path class="st2" d="M402.8,584.4h11.6v4.6h-11.6V584.4z M406.9,608.5c-1-1.1-1.5-2.8-1.5-5.1v-26.5h5.1v26.6
				c0,0.6,0.1,1.1,0.4,1.5s0.6,0.5,1.1,0.5h2.4v4.8h-2.9C409.4,610.3,407.9,609.7,406.9,608.5z"/>
			<path class="st2" d="M422.5,608.5c-1.6-1.3-2.4-3.3-2.4-6c0-2.5,0.7-4.5,2.2-5.7c1.4-1.3,3.6-1.9,6.5-1.9h7.3l0.3,4.1h-7.6
				c-1.3,0-2.3,0.3-3,0.9s-1,1.5-1,2.7c0,1.3,0.4,2.3,1.3,2.9c0.9,0.6,2.2,0.9,4,0.9c1.9,0,3.4-0.2,4.3-0.6s1.4-1.1,1.4-1.9l0.5,3.6
				c-0.4,0.7-1,1.3-1.6,1.7c-0.7,0.4-1.4,0.8-2.3,1c-0.9,0.2-1.8,0.3-2.9,0.3C426.4,610.5,424.1,609.9,422.5,608.5z M435.9,593.8
				c0-1.7-0.5-3-1.4-3.9c-0.9-0.9-2.2-1.4-3.8-1.4c-1,0-2,0.2-3,0.5c-1,0.3-1.9,0.8-2.6,1.3l-3.7-2.5c1-1.2,2.3-2.1,3.9-2.7
				c1.6-0.7,3.4-1,5.3-1c2.1,0,4,0.4,5.5,1.1c1.5,0.8,2.7,1.8,3.5,3.3c0.8,1.4,1.2,3.2,1.2,5.2v16.5h-4.8V593.8z"/>
			<path class="st2" d="M453.5,603.5c0,0.6,0.1,1.1,0.4,1.5s0.7,0.5,1.2,0.5h2.4v4.8h-3c-1.9,0-3.4-0.6-4.5-1.8s-1.6-2.9-1.6-5
				v-29.4h5.1V603.5z"/>
			<path class="st2" d="M463.1,574.1h5.1v5.1h-5.1V574.1z M463.1,584.4h5.1v25.7h-5.1V584.4z"/>
			<path class="st2" d="M477,608.5c-1.6-1.3-2.4-3.3-2.4-6c0-2.5,0.7-4.5,2.2-5.7c1.4-1.3,3.6-1.9,6.5-1.9h7.3l0.3,4.1h-7.6
				c-1.3,0-2.3,0.3-3,0.9s-1,1.5-1,2.7c0,1.3,0.4,2.3,1.3,2.9c0.9,0.6,2.2,0.9,4,0.9c1.9,0,3.4-0.2,4.3-0.6s1.4-1.1,1.4-1.9l0.5,3.6
				c-0.4,0.7-1,1.3-1.6,1.7c-0.7,0.4-1.4,0.8-2.3,1c-0.9,0.2-1.8,0.3-2.9,0.3C480.9,610.5,478.6,609.9,477,608.5z M490.4,593.8
				c0-1.7-0.5-3-1.4-3.9c-0.9-0.9-2.2-1.4-3.8-1.4c-1,0-2,0.2-3,0.5c-1,0.3-1.9,0.8-2.6,1.3l-3.7-2.5c1-1.2,2.3-2.1,3.9-2.7
				c1.6-0.7,3.4-1,5.3-1c2.1,0,4,0.4,5.5,1.1c1.5,0.8,2.7,1.8,3.5,3.3c0.8,1.4,1.2,3.2,1.2,5.2v16.5h-4.8V593.8z"/>
			<path class="st2" d="M502.9,584.4h5.1v25.7h-5.1V584.4z M518.5,594.5c0-1.8-0.5-3.2-1.4-4.2s-2.3-1.5-4-1.5
				c-1.7,0-2.9,0.4-3.8,1.3c-0.9,0.9-1.4,2.1-1.4,3.7l-0.5-5c0.8-1.6,1.8-2.8,3.1-3.6c1.3-0.8,2.7-1.3,4.3-1.3c2.8,0,5,0.9,6.5,2.7
				c1.5,1.8,2.3,4.4,2.3,7.8v15.6h-5.1V594.5z"/>
			<path class="st2" d="M535.4,609.2c-1.6-0.9-2.8-2.2-3.6-3.8s-1.3-3.7-1.3-6.1v-4.2c0-2.3,0.4-4.3,1.3-6c0.8-1.7,2-2.9,3.6-3.8
				c1.6-0.9,3.5-1.3,5.7-1.3s4.1,0.4,5.7,1.3c1.6,0.9,2.8,2.1,3.6,3.8c0.8,1.7,1.3,3.7,1.3,6v4.3c0,2.3-0.4,4.4-1.3,6
				c-0.8,1.7-2,2.9-3.6,3.8c-1.6,0.9-3.5,1.3-5.7,1.3S537,610.1,535.4,609.2z M545.2,604c1-1.1,1.5-2.7,1.5-4.7v-4.3
				c0-2-0.5-3.5-1.5-4.6c-1-1.1-2.3-1.6-4.1-1.6s-3.1,0.5-4.1,1.6c-1,1.1-1.5,2.6-1.5,4.6v4.3c0,2,0.5,3.6,1.5,4.7
				c1,1.1,2.3,1.7,4.1,1.7S544.3,605.1,545.2,604z"/>
		</g>
	</g>
</g>
<path class="st11" d="M958.4,662.3h-565c-2.9,0-5.3-2.4-5.3-5.3V638c0-2.9,2.4-5.3,5.3-5.3h565c2.9,0,5.3,2.4,5.3,5.3V657
	C963.7,659.9,961.4,662.3,958.4,662.3z"/>
<g>
	<g>
		<g>
			<path class="st2" d="M396.5,743.9c-1.7-0.9-3-2.2-3.9-3.9c-0.9-1.7-1.3-3.8-1.3-6.3v-2.9c0-2.5,0.4-4.7,1.3-6.5s2.1-3.2,3.7-4.1
				c1.6-0.9,3.6-1.4,5.9-1.4c2.1,0,4,0.5,5.5,1.6c1.5,1.1,2.7,2.6,3.5,4.7c0.8,2,1.2,4.5,1.2,7.3v1.7H395V730h12.5
				c-0.1-2.1-0.7-3.7-1.6-4.9c-0.9-1.2-2.2-1.7-3.8-1.7c-1.9,0-3.4,0.6-4.5,1.9c-1.1,1.3-1.6,3-1.6,5.3v3.3c0,2.1,0.6,3.8,1.7,4.9
				c1.1,1.1,2.7,1.7,4.8,1.7c1,0,2-0.2,3.1-0.6s1.9-1,2.7-1.7l3.3,3.3c-1.3,1.2-2.7,2.2-4.3,2.8c-1.6,0.7-3.2,1-4.8,1
				C400.2,745.2,398.2,744.8,396.5,743.9z"/>
			<path class="st2" d="M424.1,744.8c-1.3-0.3-2.6-0.7-3.7-1.3c-1.2-0.6-2.2-1.3-3.2-2.2l3-3.7c1.4,1.1,2.8,1.9,4.1,2.4
				c1.4,0.5,2.7,0.8,4.1,0.8c2,0,3.5-0.3,4.5-0.9c1-0.6,1.5-1.5,1.5-2.8c0-0.8-0.3-1.4-0.8-1.9c-0.5-0.4-1.2-0.7-2-0.8
				c-0.8-0.1-2-0.3-3.4-0.4c-0.1,0-0.3,0-0.4,0c-0.1,0-0.3,0-0.4,0c-0.1,0-0.1,0-0.2,0c-0.1,0-0.1,0-0.2,0c-1.7-0.1-3.1-0.4-4.2-0.7
				c-1.2-0.4-2.1-1-2.9-2c-0.8-1-1.2-2.4-1.2-4.2c0-1.8,0.4-3.3,1.1-4.5c0.7-1.2,1.9-2.1,3.3-2.7c1.5-0.6,3.3-0.9,5.5-0.9
				c1.3,0,2.6,0.1,3.8,0.4s2.4,0.6,3.5,1.1c1.1,0.5,2.2,1.1,3.2,1.8l-3.1,3.7c-1.3-0.8-2.6-1.4-3.8-1.9c-1.2-0.4-2.5-0.6-3.7-0.6
				c-1.7,0-3,0.3-3.9,0.9c-0.9,0.6-1.3,1.5-1.3,2.6c0,0.7,0.2,1.2,0.7,1.6c0.5,0.3,1.1,0.6,1.8,0.7s1.8,0.2,3.2,0.3
				c0.1,0,0.2,0,0.3,0c0.1,0,0.2,0,0.3,0c0,0,0.1,0,0.1,0c0,0,0.1,0,0.1,0c1.8,0.1,3.3,0.4,4.6,0.7c1.3,0.4,2.3,1.1,3.2,2.2
				c0.9,1.1,1.3,2.6,1.3,4.7c0,1.9-0.4,3.4-1.2,4.6c-0.8,1.2-2,2.1-3.6,2.7c-1.6,0.6-3.6,0.9-6,0.9
				C426.9,745.2,425.5,745.1,424.1,744.8z"/>
			<path class="st2" d="M445.6,719.1h5.1v36.2h-5.1V719.1z M453,744.1c-1.2-0.8-2.1-1.9-2.6-3.3l0.3-5.4c0,1.1,0.2,2.1,0.6,2.8
				c0.4,0.8,1,1.4,1.7,1.8c0.8,0.4,1.7,0.6,2.7,0.6c1.7,0,3-0.5,3.9-1.5c0.9-1,1.4-2.5,1.4-4.3v-5.6c0-1.9-0.5-3.3-1.4-4.4
				c-0.9-1-2.2-1.6-3.9-1.6c-1.1,0-2,0.2-2.7,0.6c-0.8,0.4-1.3,1-1.7,1.7s-0.6,1.7-0.6,2.8l-0.5-5c0.8-1.5,1.8-2.7,3.1-3.5
				c1.3-0.8,2.7-1.2,4.2-1.2c1.8,0,3.4,0.4,4.7,1.2s2.3,2,3,3.6c0.7,1.6,1,3.5,1,5.7v5.6c0,2.2-0.3,4.1-1,5.6s-1.7,2.7-3.1,3.6
				s-2.9,1.2-4.8,1.2C455.6,745.2,454.2,744.9,453,744.1z"/>
			<path class="st2" d="M474.4,743.3c-1.6-1.3-2.4-3.3-2.4-6c0-2.5,0.7-4.5,2.2-5.7c1.4-1.3,3.6-1.9,6.5-1.9h7.3l0.3,4.1h-7.6
				c-1.3,0-2.3,0.3-3,0.9s-1,1.5-1,2.7c0,1.3,0.4,2.3,1.3,2.9c0.9,0.6,2.2,0.9,4,0.9c1.9,0,3.4-0.2,4.3-0.6s1.4-1.1,1.4-1.9l0.5,3.6
				c-0.4,0.7-1,1.3-1.6,1.7c-0.7,0.4-1.4,0.8-2.3,1c-0.9,0.2-1.8,0.3-2.9,0.3C478.3,745.2,476,744.6,474.4,743.3z M487.8,728.5
				c0-1.7-0.5-3-1.4-3.9c-0.9-0.9-2.2-1.4-3.8-1.4c-1,0-2,0.2-3,0.5c-1,0.3-1.9,0.8-2.6,1.3l-3.7-2.5c1-1.2,2.3-2.1,3.9-2.7
				c1.6-0.7,3.4-1,5.3-1c2.1,0,4,0.4,5.5,1.1c1.5,0.8,2.7,1.8,3.5,3.3c0.8,1.4,1.2,3.2,1.2,5.2v16.5h-4.8V728.5z"/>
			<path class="st2" d="M500.3,719.1h5.1v25.7h-5.1V719.1z M512.5,713.6c-0.5-0.2-1-0.5-1.5-0.8l-0.3-0.2c-0.1-0.1-0.2-0.1-0.3-0.2
				c-0.1-0.1-0.2-0.1-0.3-0.2c-0.6-0.5-1.2-0.8-1.5-1s-0.7-0.3-1.1-0.3c-0.6,0-1,0.1-1.3,0.4c-0.3,0.3-0.4,0.7-0.4,1.3v1.3h-3.9
				v-1.1c0-2,0.4-3.6,1.3-4.6c0.8-1,2.1-1.5,3.8-1.5c0.6,0,1.2,0.1,1.8,0.4c0.6,0.2,1.2,0.6,1.8,1l0.2,0.1l0.3,0.2
				c0.6,0.4,1,0.8,1.4,1c0.4,0.2,0.7,0.3,1,0.3c0.6,0,1-0.2,1.3-0.5c0.3-0.3,0.4-0.8,0.4-1.4v-1h3.9v0.8c0,2.1-0.4,3.7-1.3,4.8
				c-0.8,1.1-2.1,1.6-3.8,1.6C513.6,713.9,513.1,713.8,512.5,713.6z M515.9,729.3c0-1.8-0.5-3.2-1.4-4.2s-2.3-1.5-4-1.5
				c-1.7,0-2.9,0.4-3.8,1.3c-0.9,0.9-1.4,2.1-1.4,3.7l-0.5-5c0.8-1.6,1.8-2.8,3.1-3.6c1.3-0.8,2.7-1.3,4.3-1.3c2.8,0,5,0.9,6.5,2.7
				c1.5,1.8,2.3,4.4,2.3,7.8v15.6h-5.1V729.3z"/>
			<path class="st2" d="M532.8,743.9c-1.6-0.9-2.8-2.2-3.6-3.8s-1.3-3.7-1.3-6.1v-4.2c0-2.3,0.4-4.3,1.3-6c0.8-1.7,2-2.9,3.6-3.8
				c1.6-0.9,3.5-1.3,5.7-1.3s4.1,0.4,5.7,1.3c1.6,0.9,2.8,2.1,3.6,3.8c0.8,1.7,1.3,3.7,1.3,6v4.3c0,2.3-0.4,4.4-1.3,6
				c-0.8,1.7-2,2.9-3.6,3.8c-1.6,0.9-3.5,1.3-5.7,1.3S534.4,744.8,532.8,743.9z M542.6,738.8c1-1.1,1.5-2.7,1.5-4.7v-4.3
				c0-2-0.5-3.5-1.5-4.6c-1-1.1-2.3-1.6-4.1-1.6s-3.1,0.5-4.1,1.6c-1,1.1-1.5,2.6-1.5,4.6v4.3c0,2,0.5,3.6,1.5,4.7
				c1,1.1,2.3,1.7,4.1,1.7S541.7,739.9,542.6,738.8z"/>
			<path class="st2" d="M561.4,738.2c0,0.6,0.1,1.1,0.4,1.5s0.7,0.5,1.2,0.5h2.4v4.8h-3c-1.9,0-3.4-0.6-4.5-1.8s-1.6-2.9-1.6-5
				v-29.4h5.1V738.2z"/>
		</g>
	</g>
</g>
<path class="st11" d="M900.6,797H393.4c-2.9,0-5.3-2.4-5.3-5.3v-18.9c0-2.9,2.4-5.3,5.3-5.3h507.2c2.9,0,5.3,2.4,5.3,5.3v18.9
	C905.9,794.6,903.5,797,900.6,797z"/>
<g>
	<g>
		<g>
			<path class="st2" d="M392.1,844.9h5.1v36.2h-5.1V844.9z M399.4,869.9c-1.2-0.8-2.1-1.9-2.6-3.3l0.3-5.4c0,1.1,0.2,2.1,0.6,2.8
				c0.4,0.8,1,1.4,1.7,1.8c0.8,0.4,1.7,0.6,2.7,0.6c1.7,0,3-0.5,3.9-1.5c0.9-1,1.4-2.5,1.4-4.3V855c0-1.9-0.5-3.3-1.4-4.4
				c-0.9-1-2.2-1.6-3.9-1.6c-1.1,0-2,0.2-2.7,0.6c-0.8,0.4-1.3,1-1.7,1.7s-0.6,1.7-0.6,2.8l-0.5-5c0.8-1.5,1.8-2.7,3.1-3.5
				c1.3-0.8,2.7-1.2,4.2-1.2c1.8,0,3.4,0.4,4.7,1.2s2.3,2,3,3.6c0.7,1.6,1,3.5,1,5.7v5.6c0,2.2-0.3,4.1-1,5.6s-1.7,2.7-3.1,3.6
				s-2.9,1.2-4.8,1.2C402,871,400.6,870.6,399.4,869.9z"/>
			<path class="st2" d="M417,844.9h5.2l7.9,22.4l-2.8,5.5L417,844.9z M439.8,844.9l-11,31.8c-0.4,1.2-0.9,2.1-1.6,2.8
				c-0.6,0.7-1.4,1.2-2.4,1.5c-0.9,0.3-2.1,0.4-3.5,0.4h-1v-4.9h1c0.9,0,1.7-0.2,2.2-0.6c0.6-0.4,1-1,1.5-2l9.5-29.1H439.8z"/>
			<path class="st2" d="M448.6,869.7c-1.7-0.9-2.9-2.1-3.8-3.8c-0.9-1.7-1.3-3.7-1.3-6.1v-4.2c0-2.3,0.4-4.3,1.3-6s2.1-2.9,3.8-3.8
				c1.7-0.9,3.7-1.3,6-1.3c1.3,0,2.6,0.2,3.8,0.5c1.2,0.3,2.2,0.8,3.2,1.4s1.7,1.4,2.4,2.2l-3.6,3.3c-0.7-0.8-1.6-1.5-2.6-1.9
				c-1-0.4-2-0.7-3.1-0.7c-2,0-3.5,0.5-4.5,1.6c-1.1,1.1-1.6,2.6-1.6,4.6v4.2c0,2,0.5,3.6,1.6,4.7s2.6,1.7,4.6,1.7
				c1.1,0,2.1-0.2,3.1-0.7c1-0.5,1.8-1.2,2.5-2l3.6,3.5c-0.6,0.9-1.4,1.6-2.4,2.2c-0.9,0.6-2,1.1-3.2,1.4c-1.2,0.3-2.4,0.5-3.8,0.5
				C452.3,871,450.3,870.6,448.6,869.7z"/>
			<path class="st2" d="M473.9,869.7c-1.7-0.9-2.9-2.1-3.8-3.8c-0.9-1.7-1.3-3.7-1.3-6.1v-4.2c0-2.3,0.4-4.3,1.3-6s2.1-2.9,3.8-3.8
				c1.7-0.9,3.7-1.3,6-1.3c1.3,0,2.6,0.2,3.8,0.5c1.2,0.3,2.2,0.8,3.2,1.4s1.7,1.4,2.4,2.2l-3.6,3.3c-0.7-0.8-1.6-1.5-2.6-1.9
				c-1-0.4-2-0.7-3.1-0.7c-2,0-3.5,0.5-4.5,1.6c-1.1,1.1-1.6,2.6-1.6,4.6v4.2c0,2,0.5,3.6,1.6,4.7s2.6,1.7,4.6,1.7
				c1.1,0,2.1-0.2,3.1-0.7c1-0.5,1.8-1.2,2.5-2l3.6,3.5c-0.6,0.9-1.4,1.6-2.4,2.2c-0.9,0.6-2,1.1-3.2,1.4c-1.2,0.3-2.4,0.5-3.8,0.5
				C477.6,871,475.6,870.6,473.9,869.7z"/>
			<path class="st2" d="M494.8,844.9h5.1v25.7h-5.1V844.9z M497.3,855.3h9.3v4.8h-9.3V855.3z M502.4,855.9l7-11h6.1l-10.8,15.4
				L502.4,855.9z M502.6,859.8l3.9-2.6l10.4,13.5h-6.8L502.6,859.8z"/>
			<path class="st2" d="M537.1,870.6v-18.3l0.6,0.6l-12.4,17.6H521v-25.7h5v18.7l-0.6-0.6l12.4-18.1h4.3v25.7H537.1z"/>
			<path class="st2" d="M566.2,870.6v-18.3l0.6,0.6l-12.4,17.6h-4.4v-25.7h5v18.7l-0.6-0.6l12.4-18.1h4.3v25.7H566.2z M554.9,837.8
				c-1.2-1.5-1.8-3.7-1.8-6.7h4.1c0,1.7,0.3,2.9,0.8,3.7c0.6,0.8,1.4,1.2,2.5,1.2h0.4c1.1,0,1.9-0.4,2.5-1.2s0.8-2.1,0.8-3.7h4.1
				c0,3-0.6,5.2-1.8,6.7c-1.2,1.5-3.1,2.2-5.5,2.2h-0.4C558,840,556.1,839.3,554.9,837.8z"/>
		</g>
	</g>
</g>
<path class="st11" d="M864.8,922.8H393.4c-2.9,0-5.3-2.4-5.3-5.3v-18.9c0-2.9,2.4-5.3,5.3-5.3h471.4c2.9,0,5.3,2.4,5.3,5.3v18.9
	C870.1,920.4,867.8,922.8,864.8,922.8z"/>
</svg>
