<?xml version="1.0" encoding="utf-8"?>
<!-- Generator: Adobe Illustrator 25.0.0, SVG Export Plug-In . SVG Version: 6.00 Build 0)  -->
<svg version="1.1" id="Layer_1" xmlns="http://www.w3.org/2000/svg" xmlns:xlink="http://www.w3.org/1999/xlink" x="0px" y="0px"
	 viewBox="0 0 500 500" style="enable-background:new 0 0 500 500;" xml:space="preserve">
<style type="text/css">
	.st0{fill:#5764F4;}
	.st1{fill:none;}
	.st2{fill:#FFFFFF;}
</style>
<path class="st0" d="M250.06,500.18L250.06,500.18c-138.16,0-250.16-112-250.16-250.16v-0.05c0-138.16,112-250.16,250.16-250.16h0
	c138.16,0,250.16,112,250.16,250.16v0.05C500.23,388.18,388.22,500.18,250.06,500.18z"/>
<path class="st2" d="M115.77,217.26v70.57c0,5.09,4.13,9.22,9.22,9.22h46.3c2.45,0,4.79,0.97,6.52,2.7l55.74,55.74
	c5.81,5.81,15.75,1.7,15.75-6.52V156.12c0-8.22-9.94-12.33-15.75-6.52l-55.74,55.74c-1.73,1.73-4.08,2.7-6.52,2.7H125
	C119.9,208.04,115.77,212.17,115.77,217.26z M316.07,252.55c0-19.48-8.32-36.91-21.58-49.1c-5.93-5.45-15.51-1.3-15.51,6.76v84.62
	c0,8.05,9.56,12.2,15.5,6.77C307.74,289.47,316.07,272.03,316.07,252.55z M278.98,134.55v11.81c0,3.84,2.38,7.3,5.99,8.62
	c39.77,14.54,68.19,52.76,68.19,97.57s-28.42,83.03-68.19,97.57c-3.61,1.32-5.99,4.77-5.99,8.62v11.81c0,6.29,6.15,10.73,12.12,8.76
	c53.3-17.54,91.73-67.65,91.73-126.76S344.4,143.33,291.1,125.79C285.13,123.82,278.98,128.27,278.98,134.55z"/>
<ellipse class="st0" cx="337.82" cy="169.06" rx="78.99" ry="77.51"/>
<path class="st1" d="M260.38,81.98h140.89v140.89H260.38V81.98z"/>
<path class="st2" d="M340.88,112.32c-30.31-1.4-55.33,22.77-55.33,52.78h-17.61l22.84,22.84l0.41,0.82l23.72-23.66h-17.61
	c0-23.25,19.24-41.94,42.68-41.06c21.31,0.8,38.68,18.17,39.48,39.48c0.88,23.44-17.82,42.68-41.06,42.68
	c-11.33,0-21.6-4.64-29-12.09l-8.34,8.34c9.57,9.57,22.72,15.5,37.34,15.5c30,0,54.17-25.02,52.78-55.33
	C389.92,135.53,367.95,113.56,340.88,112.32z M332.52,141.61v29.35l24.95,14.79l4.52-7.57l-20.66-12.27v-24.3H332.52z"/>
</svg>
