<svg id="Layer_1" data-name="Layer 1" xmlns="http://www.w3.org/2000/svg" viewBox="0 0 1603.26 1603.26"><defs><style>.cls-1,.cls-6{fill:#b9bbbe;}.cls-2{fill:#292841;}.cls-3{fill:#fff;}.cls-4{fill:#5865f2;}.cls-5{fill:#ed4245;}.cls-6{opacity:0.24;}</style></defs><path class="cls-1" d="M933.31,582.65H947.8v6.68H933.31Zm4.86,27.77a8.44,8.44,0,0,1-1.81-5.86V574h7.82v28.58a2.75,2.75,0,0,0,.43,1.67,1.45,1.45,0,0,0,1.25.59h1.94v7.53h-3.93Q940,612.41,938.17,610.42Z"/><path class="cls-1" d="M954.65,582.65H963v29.62h-8.39ZM969.91,590a5.86,5.86,0,0,0-1.91-.28,4.58,4.58,0,0,0-3.67,1.52,6.37,6.37,0,0,0-1.29,4.24l-.6-7.7a10.55,10.55,0,0,1,3.18-4.13,7,7,0,0,1,4.29-1.47,9.09,9.09,0,0,1,3.35.59,7.44,7.44,0,0,1,2.62,1.73l-4.57,6.36A3.63,3.63,0,0,0,969.91,590Z"/><path class="cls-1" d="M987.4,600.65a4.44,4.44,0,0,0,1.21,3.33,4.68,4.68,0,0,0,3.41,1.18A4.49,4.49,0,0,0,995.4,604a4.76,4.76,0,0,0,1.19-3.47L997,607a9.19,9.19,0,0,1-2.76,4.08,7,7,0,0,1-4.69,1.65,9.11,9.11,0,0,1-7.36-3.06c-1.73-2-2.6-4.94-2.6-8.69V582.65h7.82Zm9.19-18h7.78v29.62h-7.78Z"/><path class="cls-1" d="M1018.24,612.22a23.39,23.39,0,0,1-4.71-1.38,17.27,17.27,0,0,1-3.88-2.2l4.82-6a18.48,18.48,0,0,0,4.48,2.11,14.62,14.62,0,0,0,4.45.75,11.6,11.6,0,0,0,4.25-.62c1-.41,1.52-1,1.52-1.69a1.82,1.82,0,0,0-.66-1.52,4.18,4.18,0,0,0-1.68-.73,27.51,27.51,0,0,0-2.88-.38l-1.05-.11-1.07-.12-.24,0-.24,0a31.34,31.34,0,0,1-5.31-1,6.8,6.8,0,0,1-3.38-2.41,8.35,8.35,0,0,1-1.38-5.18,8.41,8.41,0,0,1,5.56-8.29,17.51,17.51,0,0,1,6.56-1.1,22.83,22.83,0,0,1,4.5.46,23.69,23.69,0,0,1,4.29,1.31,20.57,20.57,0,0,1,3.79,2.06l-4.65,5.67a18.83,18.83,0,0,0-4-1.68,14.72,14.72,0,0,0-4-.6,10,10,0,0,0-3.68.54c-.87.37-1.31.87-1.31,1.52a1.27,1.27,0,0,0,.7,1.15,4.94,4.94,0,0,0,1.74.6c.69.13,1.71.26,3,.42l.51.05.51.06a1.09,1.09,0,0,0,.26,0,1,1,0,0,1,.26,0,34.83,34.83,0,0,1,5.62,1,7.37,7.37,0,0,1,3.69,2.51,8.63,8.63,0,0,1,1.53,5.54,8.71,8.71,0,0,1-5.82,8.63,18.34,18.34,0,0,1-6.88,1.15A27.36,27.36,0,0,1,1018.24,612.22Z"/><path class="cls-1" d="M1040.09,582.65h14.49v6.68h-14.49Zm4.87,27.77q-1.82-2-1.81-5.86V574H1051v28.58a2.75,2.75,0,0,0,.43,1.67,1.45,1.45,0,0,0,1.26.59h1.93v7.53h-3.93Q1046.76,612.41,1045,610.42Z"/><path class="cls-1" d="M723.68,1045.64a4.43,4.43,0,0,0,1.21,3.32,4.67,4.67,0,0,0,3.41,1.18,4.51,4.51,0,0,0,3.38-1.21,4.75,4.75,0,0,0,1.18-3.47l.4,6.48a9.17,9.17,0,0,1-2.75,4.08,7,7,0,0,1-4.69,1.65,9.11,9.11,0,0,1-7.36-3.06c-1.74-2-2.6-4.94-2.6-8.69v-18.29h7.82Zm9.18-18h7.79v29.62h-7.79Z"/><path class="cls-1" d="M748.35,1027.63h7.82v29.62h-7.82Zm17.12,11.67a4.45,4.45,0,0,0-1.24-3.36,4.86,4.86,0,0,0-3.52-1.2,4.48,4.48,0,0,0-3.36,1.21,4.68,4.68,0,0,0-1.18,3.41l-.6-6.56a11.15,11.15,0,0,1,3.21-4.2,7.63,7.63,0,0,1,4.69-1.39,8.82,8.82,0,0,1,7.25,3.15q2.56,3.15,2.57,8.91v18h-7.82Z"/><path class="cls-1" d="M778.71,1027.63H793.2v6.68H778.71Zm4.86,27.78c-1.21-1.33-1.81-3.28-1.81-5.87V1019h7.82v28.58a2.82,2.82,0,0,0,.42,1.67,1.48,1.48,0,0,0,1.26.59h1.94v7.53h-3.94Q785.39,1057.39,783.57,1055.41Z"/><path class="cls-1" d="M800.05,1027.63h8.39v29.62h-8.39Zm15.26,7.39a5.86,5.86,0,0,0-1.91-.28,4.58,4.58,0,0,0-3.67,1.52,6.37,6.37,0,0,0-1.29,4.24l-.6-7.7a10.42,10.42,0,0,1,3.18-4.12,7,7,0,0,1,4.29-1.47,9.13,9.13,0,0,1,3.35.58,7.31,7.31,0,0,1,2.61,1.73l-4.56,6.36A3.63,3.63,0,0,0,815.31,1035Z"/><path class="cls-1" d="M832.8,1045.64A4.43,4.43,0,0,0,834,1049a4.68,4.68,0,0,0,3.41,1.18,4.51,4.51,0,0,0,3.38-1.21,4.75,4.75,0,0,0,1.18-3.47l.4,6.48a9.09,9.09,0,0,1-2.75,4.08,7,7,0,0,1-4.69,1.65,9.11,9.11,0,0,1-7.36-3.06c-1.73-2-2.6-4.94-2.6-8.69v-18.29h7.82Zm9.18-18h7.79v29.62H842Z"/><path class="cls-1" d="M863.64,1057.2a23.2,23.2,0,0,1-4.71-1.38,17.27,17.27,0,0,1-3.88-2.2l4.82-6a18.89,18.89,0,0,0,4.48,2.12,14.85,14.85,0,0,0,4.45.74,11.63,11.63,0,0,0,4.25-.62c1-.4,1.52-1,1.52-1.69a1.82,1.82,0,0,0-.66-1.52,4,4,0,0,0-1.68-.72,26.93,26.93,0,0,0-2.89-.39l-1-.11-1.07-.12-.24,0h-.24a32.22,32.22,0,0,1-5.31-1.06,6.8,6.8,0,0,1-3.38-2.41,8.33,8.33,0,0,1-1.38-5.18,8.37,8.37,0,0,1,5.56-8.29,17.52,17.52,0,0,1,6.56-1.09,22.89,22.89,0,0,1,4.5.45,23.69,23.69,0,0,1,4.29,1.31,21.18,21.18,0,0,1,3.79,2.06l-4.65,5.68a18.37,18.37,0,0,0-4.05-1.69,14.83,14.83,0,0,0-4-.6,10,10,0,0,0-3.68.55c-.87.36-1.31.86-1.31,1.51a1.27,1.27,0,0,0,.7,1.15,4.94,4.94,0,0,0,1.74.6c.69.13,1.71.26,3,.42l.51,0,.51.06a1,1,0,0,0,.26,0,1,1,0,0,1,.26,0,36,36,0,0,1,5.62,1,7.32,7.32,0,0,1,3.69,2.52,8.6,8.6,0,0,1,1.53,5.53,8.75,8.75,0,0,1-5.82,8.63,18.34,18.34,0,0,1-6.88,1.15A27.36,27.36,0,0,1,863.64,1057.2Z"/><path class="cls-1" d="M885.49,1027.63H900v6.68H885.49Zm4.87,27.78a8.44,8.44,0,0,1-1.82-5.87V1019h7.82v28.58a2.75,2.75,0,0,0,.43,1.67,1.45,1.45,0,0,0,1.25.59H900v7.53h-3.93Q892.17,1057.39,890.36,1055.41Z"/><path class="cls-1" d="M219.63,657.9a4.43,4.43,0,0,0,1.21,3.32,4.68,4.68,0,0,0,3.41,1.18,4.51,4.51,0,0,0,3.38-1.21,4.74,4.74,0,0,0,1.18-3.46l.4,6.47a9.09,9.09,0,0,1-2.75,4.08,7,7,0,0,1-4.69,1.66,9.12,9.12,0,0,1-7.36-3.07c-1.73-2-2.6-4.94-2.6-8.69V639.89h7.82Zm9.18-18h7.79v29.62h-7.79Z"/><path class="cls-1" d="M244.31,639.89h7.81v29.62h-7.81Zm17.11,11.67a4.45,4.45,0,0,0-1.24-3.36,4.86,4.86,0,0,0-3.52-1.2,4.45,4.45,0,0,0-3.35,1.21,4.69,4.69,0,0,0-1.19,3.41l-.6-6.56a11.21,11.21,0,0,1,3.21-4.19,7.58,7.58,0,0,1,4.7-1.4,8.82,8.82,0,0,1,7.24,3.15q2.56,3.15,2.57,8.92v18h-7.82Z"/><path class="cls-1" d="M276.94,628h7.82v41.48h-7.82Zm10.22,40.58a7.84,7.84,0,0,1-2.8-3.75l.4-6.76a5.54,5.54,0,0,0,.51,2.48,3.61,3.61,0,0,0,1.5,1.57,4.89,4.89,0,0,0,2.38.54,4.19,4.19,0,0,0,3.41-1.46,6.21,6.21,0,0,0,1.21-4.1v-4.71a6.52,6.52,0,0,0-1.21-4.21,4.13,4.13,0,0,0-3.41-1.5,4.79,4.79,0,0,0-2.38.56,3.66,3.66,0,0,0-1.5,1.61,5.86,5.86,0,0,0-.51,2.57l-.6-6.56a10,10,0,0,1,3.15-4,7.25,7.25,0,0,1,4.32-1.41,8.88,8.88,0,0,1,8.79,5.93,18.73,18.73,0,0,1,1.17,7v4.74a18.26,18.26,0,0,1-1.17,6.91,8.94,8.94,0,0,1-8.79,5.9A7.57,7.57,0,0,1,287.16,668.61Z"/><path class="cls-1" d="M316.54,659.72a2.18,2.18,0,0,0,.61,1.67,2.46,2.46,0,0,0,1.76.59h1.31v7.53h-4a7.31,7.31,0,0,1-5.54-2.06,8,8,0,0,1-2-5.79V628h7.82Z"/><path class="cls-1" d="M330.65,668.42a10.1,10.1,0,0,1-4.37-4.4,15.15,15.15,0,0,1-1.49-7v-4.82a14.82,14.82,0,0,1,1.49-6.89,10.13,10.13,0,0,1,4.37-4.37,16.79,16.79,0,0,1,13.83,0,10.08,10.08,0,0,1,4.37,4.37,14.69,14.69,0,0,1,1.5,6.89v4.91a14.72,14.72,0,0,1-1.5,6.91,10.05,10.05,0,0,1-4.37,4.38,16.49,16.49,0,0,1-13.83,0Zm10.57-7.4a5.45,5.45,0,0,0,1.31-3.89v-4.91a5.34,5.34,0,0,0-1.31-3.85,4.87,4.87,0,0,0-3.68-1.37,4.79,4.79,0,0,0-3.64,1.37,5.39,5.39,0,0,0-1.3,3.85v4.91a5.49,5.49,0,0,0,1.29,3.89,4.73,4.73,0,0,0,3.65,1.38A4.84,4.84,0,0,0,341.22,661Z"/><path class="cls-1" d="M362.77,668.32a10.7,10.7,0,0,1-4.58-4.69,16.26,16.26,0,0,1-1.57-7.42v-3.16a15.93,15.93,0,0,1,1.57-7.35,10.69,10.69,0,0,1,4.58-4.64,15.31,15.31,0,0,1,7.23-1.59,18.25,18.25,0,0,1,4.58.55,14,14,0,0,1,3.87,1.61,10.53,10.53,0,0,1,2.85,2.57l-5.05,4.91a7.91,7.91,0,0,0-2.54-1.56,8.49,8.49,0,0,0-3-.55,6.32,6.32,0,0,0-4.59,1.58,6,6,0,0,0-1.63,4.47v3.16a6.13,6.13,0,0,0,1.63,4.58,6.2,6.2,0,0,0,4.59,1.61,8,8,0,0,0,3.08-.6,7.05,7.05,0,0,0,2.51-1.71l5.05,5.2a10.8,10.8,0,0,1-2.88,2.52,14.09,14.09,0,0,1-3.85,1.58,18.64,18.64,0,0,1-4.57.55A15.08,15.08,0,0,1,362.77,668.32Z"/><path class="cls-1" d="M386.58,628h7.82v41.48h-7.82Zm3.65,30.81,13.81-19h8.27l-21,27.56Zm7-4.62,6.45-3.88,10.07,19.17h-9Z"/><path class="cls-1" d="M980.88,1071.57h7.82v41.48h-7.82Zm10.21,40.58a7.79,7.79,0,0,1-2.79-3.75l.4-6.76a5.51,5.51,0,0,0,.51,2.48,3.56,3.56,0,0,0,1.5,1.57,4.89,4.89,0,0,0,2.38.54,4.18,4.18,0,0,0,3.41-1.45,6.24,6.24,0,0,0,1.21-4.11V1096a6.52,6.52,0,0,0-1.21-4.21,4.13,4.13,0,0,0-3.41-1.49,4.79,4.79,0,0,0-2.38.55,3.6,3.6,0,0,0-1.5,1.61,5.89,5.89,0,0,0-.51,2.57l-.6-6.56a10,10,0,0,1,3.15-4,7.2,7.2,0,0,1,4.32-1.41,8.88,8.88,0,0,1,8.79,5.93,18.73,18.73,0,0,1,1.17,7v4.74a18.35,18.35,0,0,1-1.17,6.92,8.91,8.91,0,0,1-8.79,5.89A7.55,7.55,0,0,1,991.09,1112.15Z"/><path class="cls-1" d="M1020.48,1103.26a2.18,2.18,0,0,0,.61,1.67,2.46,2.46,0,0,0,1.76.59h1.31v7.53h-4a7.3,7.3,0,0,1-5.54-2,8.05,8.05,0,0,1-2-5.8v-33.63h7.82Z"/><path class="cls-1" d="M1034.59,1112a10.17,10.17,0,0,1-4.37-4.41,15,15,0,0,1-1.5-7v-4.82a14.69,14.69,0,0,1,1.5-6.89,10.11,10.11,0,0,1,4.37-4.36,16.69,16.69,0,0,1,13.83,0,10.11,10.11,0,0,1,4.37,4.36,14.69,14.69,0,0,1,1.5,6.89v4.91a14.79,14.79,0,0,1-1.5,6.92,10.21,10.21,0,0,1-4.37,4.38,16.59,16.59,0,0,1-13.83,0Zm10.57-7.41a5.45,5.45,0,0,0,1.31-3.89v-4.91a5.36,5.36,0,0,0-1.31-3.85,4.89,4.89,0,0,0-3.68-1.37,4.78,4.78,0,0,0-3.64,1.37,5.36,5.36,0,0,0-1.3,3.85v4.91a5.53,5.53,0,0,0,1.28,3.89,4.73,4.73,0,0,0,3.66,1.39A4.82,4.82,0,0,0,1045.16,1104.56Z"/><path class="cls-1" d="M1066.71,1111.87a10.72,10.72,0,0,1-4.58-4.7,16.22,16.22,0,0,1-1.57-7.41v-3.17a16,16,0,0,1,1.57-7.35,10.67,10.67,0,0,1,4.58-4.63,15.19,15.19,0,0,1,7.23-1.6,17.8,17.8,0,0,1,4.58.56,13.72,13.72,0,0,1,3.87,1.61,10.22,10.22,0,0,1,2.85,2.57l-5,4.9a7.88,7.88,0,0,0-2.54-1.55,8.5,8.5,0,0,0-3.05-.56,6.32,6.32,0,0,0-4.59,1.58,6,6,0,0,0-1.63,4.47v3.17a6.12,6.12,0,0,0,1.63,4.57,6.21,6.21,0,0,0,4.59,1.62,8,8,0,0,0,3.08-.6,7.18,7.18,0,0,0,2.51-1.71l5,5.19a10.63,10.63,0,0,1-2.88,2.52,14.11,14.11,0,0,1-3.85,1.59,18.65,18.65,0,0,1-4.57.54A15.19,15.19,0,0,1,1066.71,1111.87Z"/><path class="cls-1" d="M1090.52,1071.57h7.81v41.48h-7.81Zm3.65,30.81,13.81-18.94h8.27l-21,27.56Zm7-4.62,6.44-3.88,10.08,19.17h-9Z"/><path class="cls-1" d="M397.19,523.08a4.41,4.41,0,0,0,1.21,3.32,4.67,4.67,0,0,0,3.41,1.19,4.51,4.51,0,0,0,3.38-1.22,4.73,4.73,0,0,0,1.18-3.46l.4,6.47a9.17,9.17,0,0,1-2.75,4.08,6.92,6.92,0,0,1-4.69,1.66,9.09,9.09,0,0,1-7.36-3.07q-2.6-3.06-2.6-8.69V505.08h7.82Zm9.18-18h7.79v29.61h-7.79Z"/><path class="cls-1" d="M428,534.65a23.67,23.67,0,0,1-4.71-1.39,17,17,0,0,1-3.88-2.19l4.82-6a19.25,19.25,0,0,0,4.48,2.11,14.85,14.85,0,0,0,4.45.74,11.66,11.66,0,0,0,4.25-.61c1-.41,1.51-1,1.51-1.7a1.81,1.81,0,0,0-.65-1.51,3.91,3.91,0,0,0-1.69-.73q-1-.21-2.88-.39l-1-.11-1.07-.11-.24,0h-.24a32.22,32.22,0,0,1-5.31-1.06,6.74,6.74,0,0,1-3.38-2.41,8.32,8.32,0,0,1-1.38-5.17,8.37,8.37,0,0,1,5.56-8.29,17.51,17.51,0,0,1,6.56-1.1,22,22,0,0,1,4.49.46,22.8,22.8,0,0,1,4.3,1.31,20.53,20.53,0,0,1,3.79,2.05l-4.65,5.68a18.83,18.83,0,0,0-4.05-1.68,14.83,14.83,0,0,0-4.05-.6,10,10,0,0,0-3.68.54c-.88.36-1.31.86-1.31,1.51a1.28,1.28,0,0,0,.7,1.16,5.37,5.37,0,0,0,1.74.6c.69.12,1.7.26,3,.41l.52.06.51.05a1,1,0,0,0,.26,0,1.09,1.09,0,0,1,.26,0,35.83,35.83,0,0,1,5.62,1,7.3,7.3,0,0,1,3.69,2.51,8.6,8.6,0,0,1,1.53,5.53,8.75,8.75,0,0,1-5.82,8.63,18.37,18.37,0,0,1-6.88,1.16A28.22,28.22,0,0,1,428,534.65Z"/><path class="cls-1" d="M457.54,533.56A10.63,10.63,0,0,1,452.9,529a15.08,15.08,0,0,1-1.59-7.18v-3.34a16.86,16.86,0,0,1,1.52-7.5,10.62,10.62,0,0,1,4.45-4.73,14.28,14.28,0,0,1,7.06-1.63,11.3,11.3,0,0,1,6.65,1.94,11.9,11.9,0,0,1,4.21,5.63,24.63,24.63,0,0,1,1.44,8.92v1.94H456.38V517.8h13.13l-.09-.68a6.86,6.86,0,0,0-1.61-4,4.52,4.52,0,0,0-3.47-1.4,5.62,5.62,0,0,0-4.37,1.69,6.74,6.74,0,0,0-1.56,4.76V522a6.27,6.27,0,0,0,1.7,4.68,6.52,6.52,0,0,0,4.75,1.65,9.16,9.16,0,0,0,3.11-.56,9.5,9.5,0,0,0,2.79-1.58l5.11,4.54a17.16,17.16,0,0,1-5.19,3.26,15.53,15.53,0,0,1-5.82,1.16A15.89,15.89,0,0,1,457.54,533.56Z"/><path class="cls-1" d="M483.49,505.08h8.38v29.61h-8.38Zm15.26,7.39a5.85,5.85,0,0,0-1.91-.29,4.56,4.56,0,0,0-3.67,1.53,6.35,6.35,0,0,0-1.3,4.23l-.6-7.7a10.53,10.53,0,0,1,3.19-4.12,7,7,0,0,1,4.29-1.47,9.13,9.13,0,0,1,3.35.58,7.31,7.31,0,0,1,2.61,1.73l-4.56,6.36A3.61,3.61,0,0,0,498.75,512.47Z"/><path class="cls-1" d="M514.58,534.65a23.77,23.77,0,0,1-4.7-1.39,17,17,0,0,1-3.88-2.19l4.82-6a19.06,19.06,0,0,0,4.48,2.11,14.85,14.85,0,0,0,4.45.74,11.7,11.7,0,0,0,4.25-.61c1-.41,1.51-1,1.51-1.7a1.79,1.79,0,0,0-.66-1.51,3.87,3.87,0,0,0-1.68-.73c-.68-.14-1.65-.27-2.88-.39l-1-.11-1.07-.11-.24,0h-.25a32.29,32.29,0,0,1-5.3-1.06,6.74,6.74,0,0,1-3.38-2.41,8.25,8.25,0,0,1-1.39-5.17,8.4,8.4,0,0,1,5.57-8.29,17.48,17.48,0,0,1,6.56-1.1,22,22,0,0,1,4.49.46,22.92,22.92,0,0,1,4.29,1.31,20.62,20.62,0,0,1,3.8,2.05l-4.65,5.68a19.25,19.25,0,0,0-4-1.68,14.83,14.83,0,0,0-4-.6,10,10,0,0,0-3.68.54c-.88.36-1.32.86-1.32,1.51a1.3,1.3,0,0,0,.7,1.16,5.55,5.55,0,0,0,1.74.6c.7.12,1.71.26,3,.41l.51.06.52.05a1,1,0,0,0,.26,0,1,1,0,0,1,.25,0,35.61,35.61,0,0,1,5.62,1,7.29,7.29,0,0,1,3.7,2.51,8.66,8.66,0,0,1,1.52,5.53,8.71,8.71,0,0,1-5.82,8.63,18.28,18.28,0,0,1-6.87,1.16A28.41,28.41,0,0,1,514.58,534.65Z"/><path class="cls-1" d="M1163.61,991.44h7.81v41.48h-7.81Zm10.21,40.58a7.83,7.83,0,0,1-2.79-3.75l.39-6.76a5.54,5.54,0,0,0,.52,2.48,3.56,3.56,0,0,0,1.5,1.57,4.87,4.87,0,0,0,2.38.54,4.21,4.21,0,0,0,3.41-1.46,6.23,6.23,0,0,0,1.21-4.1v-4.71a6.52,6.52,0,0,0-1.21-4.21,4.15,4.15,0,0,0-3.41-1.5,4.76,4.76,0,0,0-2.38.56,3.6,3.6,0,0,0-1.5,1.61,5.89,5.89,0,0,0-.52,2.57l-.59-6.56a9.9,9.9,0,0,1,3.15-4,7.2,7.2,0,0,1,4.32-1.41,8.88,8.88,0,0,1,8.79,5.93,18.73,18.73,0,0,1,1.17,7v4.74a18.26,18.26,0,0,1-1.17,6.91,8.91,8.91,0,0,1-8.79,5.89A7.62,7.62,0,0,1,1173.82,1032Z"/><path class="cls-1" d="M1195,991.44h7.82v7.81H1195Zm0,11.86h7.82v29.62H1195Z"/><path class="cls-1" d="M1207.77,1003.3h14.49V1010h-14.49Zm4.87,27.78q-1.82-2-1.82-5.87V994.69h7.82v28.58a2.75,2.75,0,0,0,.43,1.67,1.45,1.45,0,0,0,1.25.59h1.94v7.53h-3.93Q1214.45,1033.06,1212.64,1031.08Z"/><path class="cls-1" d="M1229.11,1003.3h8.39v29.62h-8.39Zm15.26,7.39a5.86,5.86,0,0,0-1.91-.28,4.55,4.55,0,0,0-3.66,1.52,6.32,6.32,0,0,0-1.3,4.24l-.6-7.7a10.6,10.6,0,0,1,3.18-4.12,7,7,0,0,1,4.29-1.47,9.18,9.18,0,0,1,3.36.58,7.49,7.49,0,0,1,2.61,1.73l-4.57,6.36A3.63,3.63,0,0,0,1244.37,1010.69Z"/><path class="cls-1" d="M1255,1031.08q-2.35-2.26-2.35-6.89,0-4.4,2.64-6.59t7.91-2.2h7.42l.4,6h-7.79a4.26,4.26,0,0,0-2.65.7,2.56,2.56,0,0,0-.88,2.13,2.35,2.35,0,0,0,1.11,2.15,6.38,6.38,0,0,0,3.36.7,11.69,11.69,0,0,0,4.67-.71,2.34,2.34,0,0,0,1.52-2.23l.6,4.31a4,4,0,0,1-1.47,2.71,8.48,8.48,0,0,1-3.25,1.67,15,15,0,0,1-4.12.55Q1257.32,1033.34,1255,1031.08Zm15.36-16.93A3.85,3.85,0,0,0,1269,1011a6,6,0,0,0-3.89-1.11,10.39,10.39,0,0,0-3.28.54,9.64,9.64,0,0,0-2.88,1.51l-4.85-4.76a11.68,11.68,0,0,1,4.68-3.16,17.75,17.75,0,0,1,6.45-1.12,15.45,15.45,0,0,1,6.62,1.29,9.41,9.41,0,0,1,4.18,3.77,11.63,11.63,0,0,1,1.44,5.95v19h-7.11Z"/><path class="cls-1" d="M1282.86,1003.3h14.49V1010h-14.49Zm4.86,27.78q-1.82-2-1.81-5.87V994.69h7.82v28.58a2.75,2.75,0,0,0,.43,1.67,1.45,1.45,0,0,0,1.25.59h1.94v7.53h-3.94Q1289.54,1033.06,1287.72,1031.08Z"/><path class="cls-1" d="M1309.58,1031.79a10.6,10.6,0,0,1-4.64-4.54,14.89,14.89,0,0,1-1.6-7.17v-3.34a16.83,16.83,0,0,1,1.53-7.5,10.7,10.7,0,0,1,4.45-4.74,14.36,14.36,0,0,1,7.06-1.62,11.25,11.25,0,0,1,6.65,1.94,12,12,0,0,1,4.21,5.63,24.6,24.6,0,0,1,1.44,8.92v1.94h-20.26V1016h13.12l-.08-.69a6.92,6.92,0,0,0-1.61-4,4.52,4.52,0,0,0-3.47-1.4,5.68,5.68,0,0,0-4.38,1.68,6.76,6.76,0,0,0-1.55,4.77v3.76a6.23,6.23,0,0,0,1.69,4.68,6.5,6.5,0,0,0,4.75,1.66,9.08,9.08,0,0,0,3.11-.56,9.55,9.55,0,0,0,2.8-1.58l5.11,4.53a17,17,0,0,1-5.2,3.27,15.51,15.51,0,0,1-5.82,1.15A15.82,15.82,0,0,1,1309.58,1031.79Z"/><path class="cls-1" d="M386.05,854.63a2.2,2.2,0,0,0,.61,1.67,2.43,2.43,0,0,0,1.75.58h1.32v7.54h-4a7.29,7.29,0,0,1-5.53-2.06,8,8,0,0,1-2-5.79V822.93h7.82Z"/><path class="cls-1" d="M394.72,822.93h7.82v7.82h-7.82Zm0,11.87h7.82v29.62h-7.82Z"/><path class="cls-1" d="M409.81,834.8h7.82v29.62h-7.82Zm17.26,12.53a5.78,5.78,0,0,0-1.28-4,4.67,4.67,0,0,0-3.63-1.41,4.47,4.47,0,0,0-3.35,1.21,4.67,4.67,0,0,0-1.18,3.41L417,840a10.67,10.67,0,0,1,3.28-4.17,7.66,7.66,0,0,1,4.62-1.43,8.9,8.9,0,0,1,8.79,5.94,18.73,18.73,0,0,1,1.17,7v17.12h-7.82Zm17.26,0a5.87,5.87,0,0,0-1.24-4,5.12,5.12,0,0,0-7-.06,5.56,5.56,0,0,0-1.21,3.84l-1.46-6.85a11.09,11.09,0,0,1,3.64-4.35,8.62,8.62,0,0,1,5-1.53,9.6,9.6,0,0,1,5.46,1.52,9.35,9.35,0,0,1,3.45,4.42,18.51,18.51,0,0,1,1.19,7v17.12h-7.82Z"/><path class="cls-1" d="M459.42,822.93h7.82v7.82h-7.82Zm0,11.87h7.82v29.62h-7.82Z"/><path class="cls-1" d="M472.23,834.8h14.49v6.68H472.23Zm4.87,27.78a8.44,8.44,0,0,1-1.82-5.87V826.19h7.82v28.58a2.75,2.75,0,0,0,.43,1.67,1.45,1.45,0,0,0,1.25.59h1.94v7.53h-3.93Q478.91,864.56,477.1,862.58Z"/><path class="cls-1" d="M1343.47,888.71h7.81v29.61h-7.81Zm17.11,11.67a4.45,4.45,0,0,0-1.24-3.37,4.86,4.86,0,0,0-3.52-1.19,4.45,4.45,0,0,0-3.35,1.21,4.67,4.67,0,0,0-1.19,3.41l-.6-6.56a11.17,11.17,0,0,1,3.21-4.2,7.65,7.65,0,0,1,4.7-1.4,8.78,8.78,0,0,1,7.24,3.16q2.57,3.15,2.57,8.91v18h-7.82Z"/><path class="cls-1" d="M1377,916.48c-1.57-1.51-2.35-3.8-2.35-6.89q0-4.38,2.63-6.59t7.92-2.19h7.42l.4,6h-7.79a4.19,4.19,0,0,0-2.65.7,2.54,2.54,0,0,0-.89,2.12,2.38,2.38,0,0,0,1.11,2.16,6.54,6.54,0,0,0,3.37.7,11.52,11.52,0,0,0,4.67-.72,2.33,2.33,0,0,0,1.52-2.22l.6,4.31a4,4,0,0,1-1.47,2.71,8.48,8.48,0,0,1-3.25,1.67,15,15,0,0,1-4.12.55C1381,918.75,1378.6,918,1377,916.48Zm15.36-16.93a3.81,3.81,0,0,0-1.37-3.16,5.94,5.94,0,0,0-3.88-1.12,10.13,10.13,0,0,0-3.28.55,9.64,9.64,0,0,0-2.88,1.51l-4.85-4.77a11.66,11.66,0,0,1,4.68-3.15,17.75,17.75,0,0,1,6.45-1.13,15.47,15.47,0,0,1,6.62,1.3,9.41,9.41,0,0,1,4.18,3.77,11.6,11.6,0,0,1,1.44,5.95v19h-7.11Z"/><path class="cls-1" d="M1407.2,888.71H1415v29.61h-7.82Zm17.26,12.53a5.72,5.72,0,0,0-1.29-4,4.64,4.64,0,0,0-3.62-1.41,4.47,4.47,0,0,0-3.35,1.21,4.67,4.67,0,0,0-1.18,3.41l-.6-6.56a10.67,10.67,0,0,1,3.28-4.17,7.66,7.66,0,0,1,4.62-1.43,8.9,8.9,0,0,1,8.79,5.94,18.73,18.73,0,0,1,1.17,7v17.11h-7.82Zm17.26,0a5.85,5.85,0,0,0-1.24-4,5.12,5.12,0,0,0-7-.06,5.55,5.55,0,0,0-1.21,3.84l-1.46-6.85a11,11,0,0,1,3.64-4.35,8.62,8.62,0,0,1,5-1.53,9.6,9.6,0,0,1,5.46,1.52,9.35,9.35,0,0,1,3.45,4.42,18.51,18.51,0,0,1,1.19,7v17.11h-7.82Z"/><path class="cls-1" d="M1462.62,917.2a10.6,10.6,0,0,1-4.64-4.54,15,15,0,0,1-1.6-7.17v-3.34a16.83,16.83,0,0,1,1.53-7.5,10.6,10.6,0,0,1,4.45-4.74,14.36,14.36,0,0,1,7.06-1.63,11.32,11.32,0,0,1,6.65,1.94,12.06,12.06,0,0,1,4.21,5.64,24.54,24.54,0,0,1,1.44,8.91v1.94h-20.26v-5.27h13.12l-.08-.69a6.92,6.92,0,0,0-1.61-4,4.49,4.49,0,0,0-3.47-1.4,5.68,5.68,0,0,0-4.38,1.68,6.74,6.74,0,0,0-1.55,4.76v3.77a6.23,6.23,0,0,0,1.69,4.68,6.54,6.54,0,0,0,4.75,1.65,9.07,9.07,0,0,0,3.11-.55,9.36,9.36,0,0,0,2.8-1.59l5.11,4.54a17,17,0,0,1-5.2,3.27,15.51,15.51,0,0,1-5.82,1.15A15.94,15.94,0,0,1,1462.62,917.2Z"/><path class="cls-1" d="M504.28,1106.9a10.78,10.78,0,0,1-4.58-4.7,16.22,16.22,0,0,1-1.57-7.41v-3.17a16,16,0,0,1,1.57-7.35,10.72,10.72,0,0,1,4.58-4.63,15.19,15.19,0,0,1,7.23-1.6,18.25,18.25,0,0,1,4.58.55,14,14,0,0,1,3.87,1.62,10.34,10.34,0,0,1,2.85,2.56l-5,4.91a7.88,7.88,0,0,0-2.54-1.55,8.46,8.46,0,0,0-3.05-.56,6.32,6.32,0,0,0-4.59,1.58,6,6,0,0,0-1.63,4.47v3.17a6.12,6.12,0,0,0,1.63,4.57,6.21,6.21,0,0,0,4.59,1.62,8,8,0,0,0,3.08-.6,7.18,7.18,0,0,0,2.51-1.71l5,5.19a10.63,10.63,0,0,1-2.88,2.52,13.79,13.79,0,0,1-3.85,1.58,18.17,18.17,0,0,1-4.57.55A15.19,15.19,0,0,1,504.28,1106.9Z"/><path class="cls-1" d="M535.91,1098.29a2.18,2.18,0,0,0,.61,1.67,2.44,2.44,0,0,0,1.75.59h1.32v7.53h-4a7.32,7.32,0,0,1-5.53-2,8.05,8.05,0,0,1-2-5.8V1066.6h7.82Z"/><path class="cls-1" d="M545.65,1106.24q-2.35-2.27-2.36-6.89,0-4.39,2.64-6.59t7.92-2.2h7.42l.4,6h-7.79a4.26,4.26,0,0,0-2.65.69,2.56,2.56,0,0,0-.89,2.13,2.35,2.35,0,0,0,1.11,2.15,6.44,6.44,0,0,0,3.37.7,11.72,11.72,0,0,0,4.67-.71,2.35,2.35,0,0,0,1.52-2.23l.6,4.31a4,4,0,0,1-1.47,2.71,8.48,8.48,0,0,1-3.25,1.67,15,15,0,0,1-4.12.56Q548,1108.51,545.65,1106.24ZM561,1089.31a3.86,3.86,0,0,0-1.37-3.17,6,6,0,0,0-3.88-1.11,10.39,10.39,0,0,0-3.28.54,9.87,9.87,0,0,0-2.88,1.51l-4.85-4.76a11.66,11.66,0,0,1,4.68-3.15,17.54,17.54,0,0,1,6.45-1.13,15.33,15.33,0,0,1,6.62,1.3,9.31,9.31,0,0,1,4.17,3.76,11.63,11.63,0,0,1,1.45,6v19H561Z"/><path class="cls-1" d="M575.39,1066.6h7.82v7.82h-7.82Zm0,11.87h7.82v29.61h-7.82Z"/><path class="cls-1" d="M590.48,1078.47h7.82v29.61h-7.82ZM607.74,1091a5.78,5.78,0,0,0-1.28-4,4.67,4.67,0,0,0-3.63-1.41,4.47,4.47,0,0,0-3.35,1.21,4.68,4.68,0,0,0-1.18,3.41l-.6-6.56a10.75,10.75,0,0,1,3.28-4.17,7.66,7.66,0,0,1,4.62-1.42,8.88,8.88,0,0,1,8.79,5.93,18.73,18.73,0,0,1,1.17,7v17.12h-7.82Zm17.26,0a5.87,5.87,0,0,0-1.24-4,5.12,5.12,0,0,0-7-.06,5.58,5.58,0,0,0-1.21,3.84l-1.46-6.84a11.14,11.14,0,0,1,3.64-4.36,8.68,8.68,0,0,1,5-1.52,9.59,9.59,0,0,1,5.46,1.51,9.27,9.27,0,0,1,3.45,4.42,18.51,18.51,0,0,1,1.19,7v17.12H625Z"/><path class="cls-1" d="M635.88,546.13h14.49v6.67H635.88Zm4.86,27.77q-1.82-2-1.81-5.86V537.51h7.82V566.1a2.84,2.84,0,0,0,.42,1.67,1.47,1.47,0,0,0,1.26.58h1.94v7.53h-3.94Q642.56,575.88,640.74,573.9Z"/><path class="cls-1" d="M657.22,546.13h8.38v29.61h-8.38Zm15.26,7.39a5.85,5.85,0,0,0-1.91-.29,4.56,4.56,0,0,0-3.67,1.53,6.38,6.38,0,0,0-1.3,4.24l-.6-7.71a10.53,10.53,0,0,1,3.19-4.12,7,7,0,0,1,4.29-1.47,9.13,9.13,0,0,1,3.35.59,7.29,7.29,0,0,1,2.61,1.72l-4.56,6.36A3.61,3.61,0,0,0,672.48,553.52Z"/><path class="cls-1" d="M683.08,573.9q-2.36-2.26-2.36-6.89c0-2.93.88-5.12,2.64-6.59s4.4-2.19,7.92-2.19h7.42l.4,6h-7.79a4.17,4.17,0,0,0-2.65.7,2.53,2.53,0,0,0-.89,2.12,2.38,2.38,0,0,0,1.11,2.16,6.51,6.51,0,0,0,3.37.7,11.43,11.43,0,0,0,4.66-.72,2.33,2.33,0,0,0,1.53-2.22l.6,4.3a4.08,4.08,0,0,1-1.47,2.72,8.54,8.54,0,0,1-3.25,1.66,15.07,15.07,0,0,1-4.12.56Q685.43,576.17,683.08,573.9ZM698.44,557a3.86,3.86,0,0,0-1.37-3.17,6,6,0,0,0-3.88-1.11,10.34,10.34,0,0,0-3.28.54,9.66,9.66,0,0,0-2.88,1.52L682.18,550a11.66,11.66,0,0,1,4.68-3.15,17.74,17.74,0,0,1,6.44-1.13,15.26,15.26,0,0,1,6.62,1.3,9.31,9.31,0,0,1,4.18,3.77,11.56,11.56,0,0,1,1.44,5.94v19h-7.1Z"/><path class="cls-1" d="M713.25,546.13h7.81v29.61h-7.81Zm17.11,11.67a4.45,4.45,0,0,0-1.24-3.37,4.84,4.84,0,0,0-3.52-1.2,4.46,4.46,0,0,0-3.35,1.22,4.65,4.65,0,0,0-1.19,3.4l-.6-6.56a11.21,11.21,0,0,1,3.21-4.19,7.65,7.65,0,0,1,4.7-1.4,8.8,8.8,0,0,1,7.24,3.15c1.72,2.11,2.57,5.08,2.57,8.92v18h-7.82Z"/><path class="cls-1" d="M752.05,575.7a23.66,23.66,0,0,1-4.71-1.38,17.44,17.44,0,0,1-3.88-2.2l4.82-6a18.86,18.86,0,0,0,4.48,2.11,14.54,14.54,0,0,0,4.45.74,11.66,11.66,0,0,0,4.25-.61c1-.41,1.51-1,1.51-1.7a1.82,1.82,0,0,0-.65-1.51,4,4,0,0,0-1.69-.73,26.78,26.78,0,0,0-2.88-.38l-1-.12-1.07-.11-.24,0-.24,0a32.36,32.36,0,0,1-5.31-1.05,6.86,6.86,0,0,1-3.38-2.41,8.35,8.35,0,0,1-1.39-5.18,8.87,8.87,0,0,1,1.43-5.08,8.78,8.78,0,0,1,4.14-3.21,17.51,17.51,0,0,1,6.56-1.1,22,22,0,0,1,4.49.46,22.8,22.8,0,0,1,4.3,1.31,21.14,21.14,0,0,1,3.79,2l-4.65,5.68a18.83,18.83,0,0,0-4-1.68,14.83,14.83,0,0,0-4.05-.6,10,10,0,0,0-3.68.54c-.88.36-1.31.87-1.31,1.51a1.28,1.28,0,0,0,.7,1.16,5.37,5.37,0,0,0,1.74.6c.69.12,1.7.26,3,.41l.52.06.51.06.26,0a1,1,0,0,1,.25,0,35.39,35.39,0,0,1,5.62,1,7.29,7.29,0,0,1,3.7,2.51,8.62,8.62,0,0,1,1.53,5.53,8.74,8.74,0,0,1-5.83,8.63,18.08,18.08,0,0,1-6.87,1.16A28.22,28.22,0,0,1,752.05,575.7Z"/><path class="cls-1" d="M773.9,546.13h16v6.67h-16Zm3.14-4q0-3.95,1.81-5.89t5.58-2h5.42v7h-3.31a1.44,1.44,0,0,0-1.26.63,2.88,2.88,0,0,0-.43,1.63v32.26H777Z"/><path class="cls-1" d="M799.22,574.62a10.66,10.66,0,0,1-4.64-4.54,15.08,15.08,0,0,1-1.6-7.18v-3.33a16.9,16.9,0,0,1,1.53-7.51,10.62,10.62,0,0,1,4.45-4.73A14.25,14.25,0,0,1,806,545.7a11.32,11.32,0,0,1,6.65,1.94,11.94,11.94,0,0,1,4.21,5.64,24.54,24.54,0,0,1,1.44,8.91v1.94H798.06v-5.28h13.13l-.09-.68a7,7,0,0,0-1.61-4,4.52,4.52,0,0,0-3.47-1.4,5.69,5.69,0,0,0-4.38,1.69,6.78,6.78,0,0,0-1.55,4.76V563a6.23,6.23,0,0,0,1.7,4.68,6.52,6.52,0,0,0,4.75,1.65,9.15,9.15,0,0,0,3.11-.55,9.66,9.66,0,0,0,2.79-1.59l5.11,4.54a17,17,0,0,1-5.19,3.26,15.37,15.37,0,0,1-5.82,1.16A16,16,0,0,1,799.22,574.62Z"/><path class="cls-1" d="M825.17,546.13h8.38v29.61h-8.38Zm15.26,7.39a5.85,5.85,0,0,0-1.91-.29,4.56,4.56,0,0,0-3.67,1.53,6.32,6.32,0,0,0-1.3,4.24l-.6-7.71a10.6,10.6,0,0,1,3.18-4.12,7,7,0,0,1,4.3-1.47,9.17,9.17,0,0,1,3.35.59,7.29,7.29,0,0,1,2.61,1.72l-4.56,6.36A3.61,3.61,0,0,0,840.43,553.52Z"/><path class="cls-1" d="M1160.39,623.54h7.82v41.65h-7.82Zm10.21,28.71a7.73,7.73,0,0,1-2.79-3.75l.4-6.76a5.51,5.51,0,0,0,.51,2.48,3.56,3.56,0,0,0,1.5,1.57,4.87,4.87,0,0,0,2.38.54,4.2,4.2,0,0,0,3.41-1.45,6.24,6.24,0,0,0,1.21-4.11v-4.71a6.52,6.52,0,0,0-1.21-4.21,4.15,4.15,0,0,0-3.41-1.5,4.76,4.76,0,0,0-2.38.56,3.6,3.6,0,0,0-1.5,1.61,5.89,5.89,0,0,0-.51,2.57l-.6-6.56a10,10,0,0,1,3.15-4,7.2,7.2,0,0,1,4.32-1.41,8.88,8.88,0,0,1,8.79,5.93,18.73,18.73,0,0,1,1.17,7v4.74a18.35,18.35,0,0,1-1.17,6.92,8.91,8.91,0,0,1-8.79,5.89A7.55,7.55,0,0,1,1170.6,652.25Z"/><path class="cls-1" d="M1192.17,623.54h8.39v29.61h-8.39Zm15.26,7.39a5.85,5.85,0,0,0-1.91-.29,4.52,4.52,0,0,0-3.66,1.53,6.31,6.31,0,0,0-1.3,4.23l-.6-7.7a10.6,10.6,0,0,1,3.18-4.12,7,7,0,0,1,4.29-1.47,9.18,9.18,0,0,1,3.36.58,7.49,7.49,0,0,1,2.61,1.73l-4.57,6.36A3.61,3.61,0,0,0,1207.43,630.93Z"/><path class="cls-1" d="M1216.68,611.67h7.81v7.82h-7.81Zm0,11.87h7.81v29.61h-7.81Z"/><path class="cls-1" d="M1248.63,623.54h7.79l-11.13,29.61h-5.53l-11.13-29.61h7.79l6.1,18.57Z"/><path class="cls-1" d="M1261.91,651.31q-2.36-2.26-2.36-6.89,0-4.39,2.64-6.59c1.76-1.46,4.4-2.2,7.92-2.2h7.42l.4,6h-7.79a4.26,4.26,0,0,0-2.65.69,2.56,2.56,0,0,0-.89,2.13,2.35,2.35,0,0,0,1.11,2.15,6.44,6.44,0,0,0,3.37.7,11.54,11.54,0,0,0,4.67-.71,2.35,2.35,0,0,0,1.52-2.23l.6,4.31a4,4,0,0,1-1.47,2.71,8.48,8.48,0,0,1-3.25,1.67,15,15,0,0,1-4.12.56Q1264.26,653.58,1261.91,651.31Zm15.36-16.93a3.86,3.86,0,0,0-1.37-3.17,6,6,0,0,0-3.88-1.11,10.39,10.39,0,0,0-3.28.54,9.87,9.87,0,0,0-2.88,1.51l-4.85-4.76a11.66,11.66,0,0,1,4.68-3.15,17.54,17.54,0,0,1,6.45-1.13,15.25,15.25,0,0,1,6.61,1.3,9.29,9.29,0,0,1,4.18,3.76,11.63,11.63,0,0,1,1.45,6v19h-7.11Z"/><path class="cls-1" d="M1297.37,652a10.72,10.72,0,0,1-4.58-4.7,16.09,16.09,0,0,1-1.57-7.41v-3.17a15.83,15.83,0,0,1,1.57-7.35,10.67,10.67,0,0,1,4.58-4.63,15.19,15.19,0,0,1,7.23-1.6,17.85,17.85,0,0,1,4.58.56,13.84,13.84,0,0,1,3.87,1.61,10.22,10.22,0,0,1,2.85,2.57l-5.05,4.9a7.88,7.88,0,0,0-2.54-1.55,8.5,8.5,0,0,0-3-.56,6.36,6.36,0,0,0-4.6,1.58,6,6,0,0,0-1.62,4.47v3.17a6.16,6.16,0,0,0,1.62,4.57,6.25,6.25,0,0,0,4.6,1.62,8,8,0,0,0,3.08-.6,7.18,7.18,0,0,0,2.51-1.71l5.05,5.19a10.63,10.63,0,0,1-2.88,2.52,14.11,14.11,0,0,1-3.85,1.59,18.65,18.65,0,0,1-4.57.54A15.19,15.19,0,0,1,1297.37,652Z"/><path class="cls-1" d="M1316.9,623.54h7.36l10,25.73-4.93,6.3Zm27.36,0-13.18,36.54a9.58,9.58,0,0,1-1.84,3.21,6.23,6.23,0,0,1-2.71,1.7,13.42,13.42,0,0,1-4,.51h-1.74v-7.59h1.74a3.72,3.72,0,0,0,2.09-.55,3.38,3.38,0,0,0,1.27-1.81l11-32Z"/><path class="cls-1" d="M267.47,1011.29h8.39v29.61h-8.39Zm15.26,7.39a5.85,5.85,0,0,0-1.91-.29,4.56,4.56,0,0,0-3.67,1.53,6.35,6.35,0,0,0-1.29,4.23l-.6-7.7a10.42,10.42,0,0,1,3.18-4.12,7,7,0,0,1,4.29-1.47,9.13,9.13,0,0,1,3.35.58,7.31,7.31,0,0,1,2.61,1.73l-4.56,6.36A3.61,3.61,0,0,0,282.73,1018.68Z"/><path class="cls-1" d="M297.21,1039.77a10.63,10.63,0,0,1-4.64-4.53,15.08,15.08,0,0,1-1.59-7.18v-3.34a16.86,16.86,0,0,1,1.52-7.5,10.62,10.62,0,0,1,4.45-4.73,14.28,14.28,0,0,1,7.06-1.63,11.32,11.32,0,0,1,6.65,1.94,11.9,11.9,0,0,1,4.21,5.63,24.63,24.63,0,0,1,1.44,8.92v1.94H296.05V1024h13.13l-.09-.68a6.92,6.92,0,0,0-1.61-4A4.52,4.52,0,0,0,304,1018a5.65,5.65,0,0,0-4.38,1.69,6.78,6.78,0,0,0-1.55,4.76v3.77a6.27,6.27,0,0,0,1.7,4.68,6.52,6.52,0,0,0,4.75,1.65,9.16,9.16,0,0,0,3.11-.56,9.5,9.5,0,0,0,2.79-1.58l5.11,4.54a17.16,17.16,0,0,1-5.19,3.26,15.53,15.53,0,0,1-5.82,1.16A15.83,15.83,0,0,1,297.21,1039.77Z"/><path class="cls-1" d="M326.88,1039.82a9.42,9.42,0,0,1-3.41-4.38,18.31,18.31,0,0,1-1.17-6.92v-4.74a18.73,18.73,0,0,1,1.17-7,8.88,8.88,0,0,1,8.79-5.93,7.2,7.2,0,0,1,4.32,1.41,10,10,0,0,1,3.15,4l-.6,6.56a5.89,5.89,0,0,0-.51-2.57,3.6,3.6,0,0,0-1.5-1.61,4.76,4.76,0,0,0-2.38-.55,4.13,4.13,0,0,0-3.41,1.49,6.52,6.52,0,0,0-1.21,4.21v4.71a6.24,6.24,0,0,0,1.21,4.11,4.18,4.18,0,0,0,3.41,1.45,4.87,4.87,0,0,0,2.38-.54,3.51,3.51,0,0,0,1.5-1.57,5.51,5.51,0,0,0,.51-2.48l.4,6.76a7.79,7.79,0,0,1-2.79,3.75,7.55,7.55,0,0,1-4.48,1.33A9.43,9.43,0,0,1,326.88,1039.82Zm.46,11.88a10,10,0,0,1-4.33-3.5l5.25-4.82a6.87,6.87,0,0,0,2.4,1.67,7.46,7.46,0,0,0,2.91.59,5.9,5.9,0,0,0,4-1.35,4.63,4.63,0,0,0,1.55-3.7v-29.3H347V1040a14.66,14.66,0,0,1-1.55,7,10.29,10.29,0,0,1-4.54,4.43,15.77,15.77,0,0,1-7.21,1.51A15.28,15.28,0,0,1,327.34,1051.7Z"/><path class="cls-1" d="M354.22,999.42H362v7.82h-7.82Zm0,11.87H362v29.61h-7.82Z"/><path class="cls-1" d="M374.32,1039.82a10.15,10.15,0,0,1-4.36-4.41,15,15,0,0,1-1.5-7v-4.82a14.69,14.69,0,0,1,1.5-6.89,10.09,10.09,0,0,1,4.36-4.36,16.71,16.71,0,0,1,13.84,0,10,10,0,0,1,4.36,4.36,14.69,14.69,0,0,1,1.5,6.89v4.91a14.76,14.76,0,0,1-1.5,6.92,10.13,10.13,0,0,1-4.36,4.38,16.61,16.61,0,0,1-13.84,0Zm10.57-7.41a5.4,5.4,0,0,0,1.31-3.89v-4.91a5.32,5.32,0,0,0-1.31-3.85,4.86,4.86,0,0,0-3.68-1.37,4.79,4.79,0,0,0-3.64,1.37,5.4,5.4,0,0,0-1.29,3.85v4.91a5.48,5.48,0,0,0,1.28,3.89,4.71,4.71,0,0,0,3.65,1.39A4.79,4.79,0,0,0,384.89,1032.41Z"/><path class="cls-1" d="M401.15,1011.29H409v29.61h-7.82ZM418.27,1023a4.45,4.45,0,0,0-1.24-3.37,4.86,4.86,0,0,0-3.52-1.2,4.48,4.48,0,0,0-3.36,1.21A4.68,4.68,0,0,0,409,1023l-.6-6.56a11.21,11.21,0,0,1,3.21-4.19,7.64,7.64,0,0,1,4.69-1.4,8.82,8.82,0,0,1,7.25,3.15q2.57,3.15,2.57,8.92v18h-7.82Z"/><path class="cls-1" d="M1273.46,754.35h7.81v41.48h-7.81Zm3.65,30.81,13.81-18.94h8.27l-21,27.55Zm7-4.62,6.44-3.88,10.07,19.17h-9Z"/><path class="cls-1" d="M1303.92,754.35h7.82v7.82h-7.82Zm0,11.87h7.82v29.61h-7.82Z"/><path class="cls-1" d="M1324.31,794.65a10.72,10.72,0,0,1-4.58-4.7,16.1,16.1,0,0,1-1.57-7.42v-3.16a15.83,15.83,0,0,1,1.57-7.35,10.67,10.67,0,0,1,4.58-4.63,15.19,15.19,0,0,1,7.23-1.6,18.31,18.31,0,0,1,4.58.55A14.16,14.16,0,0,1,1340,768a10.34,10.34,0,0,1,2.85,2.56l-5,4.91a7.88,7.88,0,0,0-2.54-1.55,8.5,8.5,0,0,0-3-.56,6.36,6.36,0,0,0-4.6,1.58,6,6,0,0,0-1.62,4.47v3.16a6.17,6.17,0,0,0,1.62,4.58,6.25,6.25,0,0,0,4.6,1.62,8,8,0,0,0,3.08-.6,7.17,7.17,0,0,0,2.51-1.72l5,5.2a10.63,10.63,0,0,1-2.88,2.52,13.79,13.79,0,0,1-3.85,1.58,18.17,18.17,0,0,1-4.57.55A15.19,15.19,0,0,1,1324.31,794.65Z"/><path class="cls-1" d="M1348.12,754.35h7.81v41.48h-7.81Zm3.65,30.81,13.81-18.94h8.27l-21,27.55Zm7-4.62,6.44-3.88,10.07,19.17h-9Z"/><path class="cls-1" d="M1131.18,493.64H1139v7.81h-7.82Zm0,11.87H1139v29.61h-7.82Z"/><path class="cls-1" d="M1146.28,505.51h7.81v29.61h-7.81Zm17.11,11.66a4.45,4.45,0,0,0-1.24-3.36,4.86,4.86,0,0,0-3.52-1.2,4.45,4.45,0,0,0-3.35,1.21,4.69,4.69,0,0,0-1.19,3.41l-.6-6.56a11.21,11.21,0,0,1,3.21-4.19,7.58,7.58,0,0,1,4.7-1.4,8.8,8.8,0,0,1,7.24,3.15q2.56,3.15,2.57,8.92v18h-7.82Z"/><path class="cls-1" d="M1194.92,505.51h7.79l-11.13,29.61H1186l-11.12-29.61h7.79l6.1,18.57Z"/><path class="cls-1" d="M1206.84,493.64h7.82v7.81h-7.82Zm0,11.87h7.82v29.61h-7.82Z"/><path class="cls-1" d="M1219.65,505.51h14.49v6.67h-14.49Zm4.87,27.77c-1.21-1.32-1.81-3.28-1.81-5.86V496.89h7.81v28.59a2.73,2.73,0,0,0,.43,1.66,1.45,1.45,0,0,0,1.26.59h1.93v7.53h-3.93Q1226.32,535.26,1224.52,533.28Z"/><path class="cls-1" d="M1246.37,534a10.63,10.63,0,0,1-4.64-4.53,15.08,15.08,0,0,1-1.6-7.18v-3.34a16.83,16.83,0,0,1,1.53-7.5,10.7,10.7,0,0,1,4.45-4.74,14.36,14.36,0,0,1,7.06-1.62,11.25,11.25,0,0,1,6.65,1.94,12,12,0,0,1,4.21,5.63,24.63,24.63,0,0,1,1.44,8.92v1.94h-20.26v-5.28h13.13l-.09-.69a6.92,6.92,0,0,0-1.61-4,4.52,4.52,0,0,0-3.47-1.4,5.68,5.68,0,0,0-4.38,1.68,6.81,6.81,0,0,0-1.55,4.77v3.76a6.2,6.2,0,0,0,1.7,4.68,6.48,6.48,0,0,0,4.75,1.66,9.06,9.06,0,0,0,3.1-.56,9.55,9.55,0,0,0,2.8-1.58l5.11,4.53a17,17,0,0,1-5.19,3.27,15.6,15.6,0,0,1-5.82,1.16A15.83,15.83,0,0,1,1246.37,534Z"/><path class="cls-2" d="M1216.44,671.5V974.33a18.35,18.35,0,0,1-18.35,18.37H503.77a18.35,18.35,0,0,1-18.36-18.37V671.5a18.35,18.35,0,0,1,18.36-18.35h694.32A18.36,18.36,0,0,1,1216.44,671.5Z"/><path class="cls-3" d="M646,779.93a8.66,8.66,0,0,1-3.65-3.87,13.63,13.63,0,0,1-1.25-6.12V750.53h4.26v19.56a7.33,7.33,0,0,0,1.68,5.15,6.1,6.1,0,0,0,4.72,1.82,6.16,6.16,0,0,0,4.76-1.82,7.28,7.28,0,0,0,1.69-5.15V750.53h4.27v19.41a13.63,13.63,0,0,1-1.26,6.12,8.69,8.69,0,0,1-3.66,3.87,13.22,13.22,0,0,1-11.56,0Z"/><path class="cls-3" d="M673,780.88a13.24,13.24,0,0,1-3.15-1.12,12.75,12.75,0,0,1-2.7-1.89l2.53-3.11a14.27,14.27,0,0,0,3.5,2,9.42,9.42,0,0,0,3.43.67,7.38,7.38,0,0,0,3.8-.78,2.59,2.59,0,0,0,1.26-2.35,1.84,1.84,0,0,0-.69-1.57,3.78,3.78,0,0,0-1.71-.7c-.69-.12-1.65-.23-2.89-.33h-.36l-.35,0h-.34a16.83,16.83,0,0,1-3.58-.62,4.89,4.89,0,0,1-2.43-1.68,5.61,5.61,0,0,1-1-3.54,7.18,7.18,0,0,1,.94-3.83,5.73,5.73,0,0,1,2.8-2.29,12.35,12.35,0,0,1,4.66-.76,16.19,16.19,0,0,1,3.24.31,14.79,14.79,0,0,1,2.94.93,16,16,0,0,1,2.7,1.56l-2.58,3.12a14.37,14.37,0,0,0-3.21-1.57,9.73,9.73,0,0,0-3.09-.52,5.87,5.87,0,0,0-3.26.74,2.54,2.54,0,0,0-1.09,2.23,1.54,1.54,0,0,0,.62,1.32,3.66,3.66,0,0,0,1.56.58c.63.1,1.52.18,2.68.25a1.1,1.1,0,0,0,.26,0l.28,0H678a.25.25,0,0,1,.12,0,18.43,18.43,0,0,1,3.88.6,5.26,5.26,0,0,1,2.69,1.82,6.16,6.16,0,0,1,1.09,3.94,7,7,0,0,1-1,3.88,6,6,0,0,1-3,2.31,14.42,14.42,0,0,1-5.07.77A16,16,0,0,1,673,780.88Z"/><path class="cls-3" d="M694.93,780.13a7.53,7.53,0,0,1-3.25-3.31,11.45,11.45,0,0,1-1.12-5.29v-2.44a12.8,12.8,0,0,1,1.08-5.51,7.7,7.7,0,0,1,3.12-3.47,9.74,9.74,0,0,1,4.94-1.19,7.86,7.86,0,0,1,4.65,1.36,8.45,8.45,0,0,1,2.93,3.93,16.75,16.75,0,0,1,1,6.17v1.43H693.66v-3.43h10.58a7.28,7.28,0,0,0-1.37-4.14,3.85,3.85,0,0,0-3.17-1.47,4.6,4.6,0,0,0-3.75,1.59,6.81,6.81,0,0,0-1.33,4.5v2.76a5.64,5.64,0,0,0,1.42,4.14,5.42,5.42,0,0,0,4,1.44,6.7,6.7,0,0,0,2.57-.52,7.59,7.59,0,0,0,2.28-1.46l2.8,2.8a11.77,11.77,0,0,1-3.61,2.39,10.25,10.25,0,0,1-4,.85A10.91,10.91,0,0,1,694.93,780.13Z"/><path class="cls-3" d="M714.16,759.23h4.26V781h-4.26Zm10.52,4.1a5.28,5.28,0,0,0-2-.35,4.26,4.26,0,0,0-3.15,1.12,4.21,4.21,0,0,0-1.12,3.1L718,763a7.86,7.86,0,0,1,2.59-3,6.11,6.11,0,0,1,3.51-1.08,7.87,7.87,0,0,1,2.69.43,6,6,0,0,1,2.1,1.26l-2.78,3.77A3.57,3.57,0,0,0,724.68,763.33Z"/><path class="cls-3" d="M748.77,779.86a9.43,9.43,0,0,1-3.71-4,12.93,12.93,0,0,1-1.32-6v-8.34a12.93,12.93,0,0,1,1.32-6,9.52,9.52,0,0,1,3.71-4,10.75,10.75,0,0,1,5.55-1.41,10.36,10.36,0,0,1,4.81,1.12,10.09,10.09,0,0,1,3.68,3.17,11.78,11.78,0,0,1,2,4.74h-4.37a6.81,6.81,0,0,0-1.33-2.54,6.55,6.55,0,0,0-2.18-1.72,6.12,6.12,0,0,0-5.86.29,6,6,0,0,0-2.18,2.52,8.77,8.77,0,0,0-.77,3.78v8.34a8.78,8.78,0,0,0,.77,3.77,5.86,5.86,0,0,0,2.18,2.52,6,6,0,0,0,3.26.89,6.2,6.2,0,0,0,2.61-.57,6,6,0,0,0,2.17-1.67,6.59,6.59,0,0,0,1.33-2.64h4.37a11.52,11.52,0,0,1-2,4.75,10.09,10.09,0,0,1-3.68,3.17,10.33,10.33,0,0,1-4.79,1.12A10.84,10.84,0,0,1,748.77,779.86Z"/><path class="cls-3" d="M774.72,772.43a5,5,0,0,0,1.16,3.53,4.25,4.25,0,0,0,3.27,1.24,4.49,4.49,0,0,0,3.25-1.11,4.18,4.18,0,0,0,1.15-3.15l.29,4.54a6.22,6.22,0,0,1-2.18,2.69,6.1,6.1,0,0,1-3.7,1.09,6.86,6.86,0,0,1-5.55-2.31,9.76,9.76,0,0,1-2-6.52v-13.2h4.27Zm8.83-13.2h4.24V781h-4.24Z"/><path class="cls-3" d="M798.35,780.88a12.94,12.94,0,0,1-3.15-1.12,12.26,12.26,0,0,1-2.7-1.89l2.53-3.11a14.09,14.09,0,0,0,3.5,2,9.38,9.38,0,0,0,3.43.67,7.34,7.34,0,0,0,3.79-.78A2.58,2.58,0,0,0,807,774.3a1.84,1.84,0,0,0-.69-1.57,3.77,3.77,0,0,0-1.72-.7q-1-.18-2.88-.33h-.36l-.36,0h-.33a16.83,16.83,0,0,1-3.58-.62,4.84,4.84,0,0,1-2.43-1.68,5.61,5.61,0,0,1-1-3.54,7.27,7.27,0,0,1,.94-3.83,5.81,5.81,0,0,1,2.81-2.29,12.31,12.31,0,0,1,4.66-.76,16,16,0,0,1,3.23.31,14.39,14.39,0,0,1,2.94.93,15.24,15.24,0,0,1,2.7,1.56l-2.57,3.12a14.37,14.37,0,0,0-3.21-1.57,9.77,9.77,0,0,0-3.09-.52,5.84,5.84,0,0,0-3.26.74,2.52,2.52,0,0,0-1.09,2.23,1.54,1.54,0,0,0,.62,1.32,3.66,3.66,0,0,0,1.56.58c.62.1,1.52.18,2.67.25a1.23,1.23,0,0,0,.27,0l.28,0h.12a.27.27,0,0,1,.13,0,18.53,18.53,0,0,1,3.88.6,5.3,5.3,0,0,1,2.69,1.82,6.23,6.23,0,0,1,1.09,3.94,7,7,0,0,1-1,3.88,6.09,6.09,0,0,1-3,2.31,14.46,14.46,0,0,1-5.07.77A15.93,15.93,0,0,1,798.35,780.88Z"/><path class="cls-3" d="M814.82,759.23h9.79v3.85h-9.79Zm3.46,20.37a6.56,6.56,0,0,1-1.22-4.3V752.92h4.27v22.42a2,2,0,0,0,.31,1.22,1.06,1.06,0,0,0,.92.43h2.05v4.06h-2.47A4.78,4.78,0,0,1,818.28,779.6Z"/><path class="cls-3" d="M834,780.15a7.25,7.25,0,0,1-3.06-3.23,11.28,11.28,0,0,1-1.06-5.11v-3.54a11,11,0,0,1,1.06-5A7.23,7.23,0,0,1,834,760a11.18,11.18,0,0,1,9.67,0,7.23,7.23,0,0,1,3.06,3.2,11,11,0,0,1,1.06,5v3.6a11.1,11.1,0,0,1-1.06,5.07,7.31,7.31,0,0,1-3.06,3.21,11.09,11.09,0,0,1-9.67,0Zm8.3-4.35a5.8,5.8,0,0,0,1.22-3.93v-3.6a5.72,5.72,0,0,0-1.22-3.91,5,5,0,0,0-6.93,0,5.72,5.72,0,0,0-1.22,3.91v3.6a5.8,5.8,0,0,0,1.22,3.93,5,5,0,0,0,6.93,0Z"/><path class="cls-3" d="M853.82,759.23h4.26V781h-4.26Zm13,8.56a5.17,5.17,0,0,0-1.13-3.56,4.11,4.11,0,0,0-3.2-1.25,4.45,4.45,0,0,0-3.24,1.11,4.13,4.13,0,0,0-1.14,3.11l-.44-4.18a7.76,7.76,0,0,1,2.63-3,6.33,6.33,0,0,1,3.59-1.07,7,7,0,0,1,3.89,1,6.53,6.53,0,0,1,2.46,3,12.26,12.26,0,0,1,.84,4.79V781h-4.26Zm13,0a5,5,0,0,0-1.2-3.56,4.4,4.4,0,0,0-3.34-1.25,3.92,3.92,0,0,0-3.08,1.21,5,5,0,0,0-1.09,3.43l-.85-4.18a8.26,8.26,0,0,1,2.71-3.34,6.3,6.3,0,0,1,3.71-1.18,7.31,7.31,0,0,1,4,1,6.5,6.5,0,0,1,2.54,3,12.06,12.06,0,0,1,.86,4.79V781h-4.26Z"/><path class="cls-3" d="M890.51,750.53h4.27v4.27h-4.27Zm0,8.7h4.27V781h-4.27Z"/><path class="cls-3" d="M916.24,762.83,905.8,777h11v4H900.63v-3.68l10.71-14.08H900.93v-4h15.31Z"/><path class="cls-3" d="M926.2,780.13a7.56,7.56,0,0,1-3.26-3.31,11.58,11.58,0,0,1-1.11-5.29v-2.44a12.8,12.8,0,0,1,1.07-5.51,7.72,7.72,0,0,1,3.13-3.47,9.71,9.71,0,0,1,4.94-1.19,7.8,7.8,0,0,1,4.64,1.36,8.53,8.53,0,0,1,2.94,3.93,16.76,16.76,0,0,1,1,6.17v1.43H924.92v-3.43h10.59a7.43,7.43,0,0,0-1.37-4.14,3.87,3.87,0,0,0-3.17-1.47,4.63,4.63,0,0,0-3.76,1.59,6.86,6.86,0,0,0-1.33,4.5v2.76a5.64,5.64,0,0,0,1.43,4.14,5.4,5.4,0,0,0,4,1.44,6.72,6.72,0,0,0,2.58-.52,7.59,7.59,0,0,0,2.28-1.46L939,778a11.69,11.69,0,0,1-3.62,2.39,10.21,10.21,0,0,1-4,.85A10.87,10.87,0,0,1,926.2,780.13Z"/><path class="cls-3" d="M948.24,780.29a6.55,6.55,0,0,1-2.57-3,11.88,11.88,0,0,1-.88-4.77v-4.79a12.06,12.06,0,0,1,.86-4.79,6.51,6.51,0,0,1,2.5-3,7.26,7.26,0,0,1,4-1,6.49,6.49,0,0,1,3.52,1,7.3,7.3,0,0,1,2.58,2.83l-.44,4.43a5,5,0,0,0-.5-2.36,3.39,3.39,0,0,0-1.45-1.5,4.86,4.86,0,0,0-2.31-.51,4.15,4.15,0,0,0-3.28,1.32,5.41,5.41,0,0,0-1.16,3.7v4.73a5.29,5.29,0,0,0,1.16,3.65,4.23,4.23,0,0,0,3.28,1.28,4.64,4.64,0,0,0,2.31-.53,3.54,3.54,0,0,0,1.45-1.54,5.25,5.25,0,0,0,.5-2.4l.3,4.58a6.26,6.26,0,0,1-2.13,2.7,6,6,0,0,1-3.63,1.08A7.58,7.58,0,0,1,948.24,780.29Zm9.52-29.76H962V781h-4.27Z"/><path class="cls-1" d="M574.8,710a6.13,6.13,0,0,1-2.56-2.72,9.54,9.54,0,0,1-.88-4.29V689.37h3V703.1a5.14,5.14,0,0,0,1.18,3.61,4.25,4.25,0,0,0,3.32,1.28,4.3,4.3,0,0,0,3.34-1.28,5.1,5.1,0,0,0,1.18-3.61V689.37h3V703a9.54,9.54,0,0,1-.88,4.29,6.15,6.15,0,0,1-2.57,2.72,8.35,8.35,0,0,1-4.07.93A8.25,8.25,0,0,1,574.8,710Z"/><path class="cls-1" d="M593.78,710.68a9.35,9.35,0,0,1-2.21-.79,9.23,9.23,0,0,1-1.9-1.32l1.78-2.19a10.47,10.47,0,0,0,2.45,1.41,6.78,6.78,0,0,0,2.41.47,5.22,5.22,0,0,0,2.67-.55,1.83,1.83,0,0,0,.89-1.66,1.28,1.28,0,0,0-.49-1.1,2.72,2.72,0,0,0-1.2-.49c-.48-.08-1.16-.16-2-.23h-.25l-.25,0h-.23a11.93,11.93,0,0,1-2.51-.43,3.5,3.5,0,0,1-1.72-1.19,3.94,3.94,0,0,1-.68-2.48,5.06,5.06,0,0,1,.66-2.69,4.07,4.07,0,0,1,2-1.61,8.83,8.83,0,0,1,3.28-.53,11,11,0,0,1,2.26.22,9.8,9.8,0,0,1,4,1.75l-1.8,2.19a10.47,10.47,0,0,0-2.26-1.11,7,7,0,0,0-2.16-.36,4.1,4.1,0,0,0-2.3.52,1.79,1.79,0,0,0-.76,1.56,1.07,1.07,0,0,0,.43.93,2.66,2.66,0,0,0,1.1.41,18.41,18.41,0,0,0,1.88.17l.18,0h.29l.09,0a13.55,13.55,0,0,1,2.72.42,3.75,3.75,0,0,1,1.89,1.28,4.34,4.34,0,0,1,.76,2.76,4.9,4.9,0,0,1-.7,2.73,4.25,4.25,0,0,1-2.12,1.62,10.16,10.16,0,0,1-3.57.54A11.36,11.36,0,0,1,593.78,710.68Z"/><path class="cls-1" d="M609.15,710.15a5.24,5.24,0,0,1-2.28-2.33,8,8,0,0,1-.79-3.7V702.4a8.93,8.93,0,0,1,.76-3.87A5.35,5.35,0,0,1,609,696.1a6.78,6.78,0,0,1,3.47-.84,5.55,5.55,0,0,1,3.26,1,5.94,5.94,0,0,1,2.06,2.76,11.74,11.74,0,0,1,.72,4.34v1H608.25V701.9h7.44a5.08,5.08,0,0,0-1-2.9,2.7,2.7,0,0,0-2.22-1,3.23,3.23,0,0,0-2.64,1.12,4.77,4.77,0,0,0-.93,3.15v1.94a3.94,3.94,0,0,0,1,2.91,3.77,3.77,0,0,0,2.83,1,4.84,4.84,0,0,0,1.81-.37,5.29,5.29,0,0,0,1.6-1l2,2a8.51,8.51,0,0,1-2.54,1.68,7.2,7.2,0,0,1-2.84.59A7.61,7.61,0,0,1,609.15,710.15Z"/><path class="cls-1" d="M622.65,695.48h3v15.24h-3Zm7.39,2.88a3.61,3.61,0,0,0-1.4-.25,2.73,2.73,0,0,0-3,3l-.3-2.93a5.62,5.62,0,0,1,1.82-2.13,4.3,4.3,0,0,1,2.46-.75,5.59,5.59,0,0,1,1.89.3,4.18,4.18,0,0,1,1.48.89l-2,2.64A2.52,2.52,0,0,0,630,698.36Z"/><path class="cls-1" d="M643.56,689.37h3v21.35h-3Zm4.35,20.89a4.05,4.05,0,0,1-1.56-1.93l.21-3.19a3.73,3.73,0,0,0,.35,1.68,2.54,2.54,0,0,0,1,1.06,3.41,3.41,0,0,0,1.63.36,3,3,0,0,0,2.3-.9,3.68,3.68,0,0,0,.81-2.55v-3.3a3.8,3.8,0,0,0-.81-2.6,2.91,2.91,0,0,0-2.3-.93,3.54,3.54,0,0,0-1.63.35,2.44,2.44,0,0,0-1,1,3.58,3.58,0,0,0-.35,1.64l-.31-2.94a5.22,5.22,0,0,1,1.81-2.06,4.4,4.4,0,0,1,2.48-.73,5,5,0,0,1,2.77.73,4.51,4.51,0,0,1,1.75,2.12,8.3,8.3,0,0,1,.61,3.36v3.32a8.13,8.13,0,0,1-.62,3.32,4.58,4.58,0,0,1-1.81,2.11,5.39,5.39,0,0,1-2.85.72A4.44,4.44,0,0,1,647.91,710.26Z"/><path class="cls-1" d="M660.59,709.78a4.37,4.37,0,0,1-1.4-3.55,4.29,4.29,0,0,1,1.28-3.39,5.65,5.65,0,0,1,3.86-1.13h4.34l.2,2.41h-4.52a2.55,2.55,0,0,0-1.76.52,2,2,0,0,0-.58,1.59,2,2,0,0,0,.77,1.72,4.05,4.05,0,0,0,2.35.56,6.85,6.85,0,0,0,2.56-.37,1.21,1.21,0,0,0,.84-1.15l.31,2.15a3.47,3.47,0,0,1-1,1,4.37,4.37,0,0,1-1.35.6,7,7,0,0,1-1.72.19A6.43,6.43,0,0,1,660.59,709.78Zm7.94-8.72a3.2,3.2,0,0,0-.8-2.33,3,3,0,0,0-2.27-.83,6,6,0,0,0-1.78.28,5.5,5.5,0,0,0-1.55.78l-2.19-1.5a5.83,5.83,0,0,1,2.28-1.62,8.23,8.23,0,0,1,3.16-.58,7.18,7.18,0,0,1,3.24.67,4.61,4.61,0,0,1,2.06,1.94,6.18,6.18,0,0,1,.7,3.06v9.79h-2.85Z"/><path class="cls-1" d="M678.79,710.68a8.76,8.76,0,0,1-4.1-2.11l1.77-2.19a10.53,10.53,0,0,0,2.46,1.41,6.7,6.7,0,0,0,2.41.47,5.2,5.2,0,0,0,2.66-.55,1.83,1.83,0,0,0,.89-1.66,1.3,1.3,0,0,0-.48-1.1,2.81,2.81,0,0,0-1.21-.49c-.48-.08-1.15-.16-2-.23h-.25l-.25,0h-.24a11.93,11.93,0,0,1-2.51-.43,3.43,3.43,0,0,1-1.71-1.19,3.88,3.88,0,0,1-.69-2.48,5.06,5.06,0,0,1,.67-2.69,4,4,0,0,1,2-1.61,8.9,8.9,0,0,1,3.28-.53,11.14,11.14,0,0,1,2.27.22,10.09,10.09,0,0,1,2.06.65,10.4,10.4,0,0,1,1.9,1.1l-1.81,2.19a10.41,10.41,0,0,0-2.25-1.11,7,7,0,0,0-2.17-.36,4.06,4.06,0,0,0-2.29.52,1.77,1.77,0,0,0-.77,1.56,1.08,1.08,0,0,0,.44.93,2.61,2.61,0,0,0,1.09.41,18.41,18.41,0,0,0,1.88.17l.19,0h.28l.09,0a13.32,13.32,0,0,1,2.72.42,3.75,3.75,0,0,1,1.89,1.28,4.34,4.34,0,0,1,.77,2.76,4.9,4.9,0,0,1-.71,2.73,4.25,4.25,0,0,1-2.12,1.62,10.1,10.1,0,0,1-3.56.54A11.45,11.45,0,0,1,678.79,710.68Z"/><path class="cls-1" d="M694.16,710.15a5.3,5.3,0,0,1-2.28-2.33,8.09,8.09,0,0,1-.79-3.7V702.4a9.08,9.08,0,0,1,.76-3.87,5.37,5.37,0,0,1,2.2-2.43,6.74,6.74,0,0,1,3.46-.84,5.53,5.53,0,0,1,3.26,1,6,6,0,0,1,2.07,2.76,12,12,0,0,1,.71,4.34v1H693.27V701.9h7.43a5.15,5.15,0,0,0-1-2.9,2.73,2.73,0,0,0-2.23-1,3.22,3.22,0,0,0-2.63,1.12,4.72,4.72,0,0,0-.94,3.15v1.94a4,4,0,0,0,1,2.91,3.8,3.8,0,0,0,2.84,1,4.79,4.79,0,0,0,1.8-.37,5.29,5.29,0,0,0,1.6-1l2,2a8.39,8.39,0,0,1-2.54,1.68,7.15,7.15,0,0,1-2.83.59A7.65,7.65,0,0,1,694.16,710.15Z"/><path class="cls-1" d="M709.64,710.26a4.54,4.54,0,0,1-1.8-2.12,8.28,8.28,0,0,1-.62-3.35v-3.36a8.53,8.53,0,0,1,.6-3.37,4.58,4.58,0,0,1,1.76-2.12,5.13,5.13,0,0,1,2.77-.73,4.56,4.56,0,0,1,2.47.71,5.21,5.21,0,0,1,1.82,2l-.31,3.12a3.54,3.54,0,0,0-.36-1.66,2.35,2.35,0,0,0-1-1.05,3.34,3.34,0,0,0-1.62-.36,2.9,2.9,0,0,0-2.3.92,3.82,3.82,0,0,0-.81,2.6v3.32a3.69,3.69,0,0,0,.81,2.56,2.93,2.93,0,0,0,2.3.91,3.24,3.24,0,0,0,1.62-.38,2.42,2.42,0,0,0,1-1.08,3.67,3.67,0,0,0,.36-1.69l.2,3.22a4.36,4.36,0,0,1-1.49,1.9,4.23,4.23,0,0,1-2.55.76A5.28,5.28,0,0,1,709.64,710.26Zm6.69-20.89h3v21.35h-3Z"/><path class="cls-1" d="M732,695.48h3v15.24h-3Zm9.1,6a3.61,3.61,0,0,0-.79-2.5,2.87,2.87,0,0,0-2.25-.88,3.13,3.13,0,0,0-2.27.78,2.91,2.91,0,0,0-.8,2.18l-.31-2.93a5.45,5.45,0,0,1,1.85-2.13,4.47,4.47,0,0,1,2.52-.75,4.93,4.93,0,0,1,2.73.73,4.51,4.51,0,0,1,1.72,2.12,8.48,8.48,0,0,1,.6,3.36v9.25h-3Zm9.11,0a3.48,3.48,0,0,0-.84-2.5,3.08,3.08,0,0,0-2.35-.88,2.75,2.75,0,0,0-2.16.85,3.48,3.48,0,0,0-.76,2.41l-.6-2.94a5.8,5.8,0,0,1,1.9-2.34,4.47,4.47,0,0,1,2.61-.83,5.18,5.18,0,0,1,2.81.73,4.56,4.56,0,0,1,1.78,2.12,8.47,8.47,0,0,1,.61,3.36v9.25h-3Z"/><path class="cls-1" d="M760.17,710.17A5.14,5.14,0,0,1,758,707.9a7.93,7.93,0,0,1-.74-3.59v-2.49a7.71,7.71,0,0,1,.74-3.54,5,5,0,0,1,2.15-2.25,7.87,7.87,0,0,1,6.79,0,5.09,5.09,0,0,1,2.15,2.25,7.84,7.84,0,0,1,.74,3.54v2.53a7.9,7.9,0,0,1-.74,3.56,5.17,5.17,0,0,1-2.15,2.26,7.87,7.87,0,0,1-6.79,0Zm5.83-3.06a4.05,4.05,0,0,0,.85-2.76v-2.53a4,4,0,0,0-.85-2.74,3.54,3.54,0,0,0-4.87,0,4,4,0,0,0-.86,2.74v2.53a4.05,4.05,0,0,0,.86,2.76,3.49,3.49,0,0,0,4.87,0Z"/><path class="cls-1" d="M776.08,710.26a4.58,4.58,0,0,1-1.79-2.12,8.28,8.28,0,0,1-.62-3.35v-3.36a8.53,8.53,0,0,1,.6-3.37,4.58,4.58,0,0,1,1.76-2.12,5.09,5.09,0,0,1,2.76-.73,4.57,4.57,0,0,1,2.48.71,5.18,5.18,0,0,1,1.81,2l-.3,3.12a3.54,3.54,0,0,0-.36-1.66,2.35,2.35,0,0,0-1-1.05,3.34,3.34,0,0,0-1.62-.36,2.89,2.89,0,0,0-2.3.92,3.82,3.82,0,0,0-.81,2.6v3.32a3.69,3.69,0,0,0,.81,2.56,2.91,2.91,0,0,0,2.3.91,3.24,3.24,0,0,0,1.62-.38,2.42,2.42,0,0,0,1-1.08,3.67,3.67,0,0,0,.36-1.69l.2,3.22a4.36,4.36,0,0,1-1.49,1.9,4.23,4.23,0,0,1-2.55.76A5.34,5.34,0,0,1,776.08,710.26Zm6.7-20.89h3v21.35h-3Z"/><path class="cls-1" d="M793,710.15a5.26,5.26,0,0,1-2.29-2.33,8.09,8.09,0,0,1-.79-3.7V702.4a9.08,9.08,0,0,1,.76-3.87,5.42,5.42,0,0,1,2.2-2.43,6.74,6.74,0,0,1,3.46-.84,5.53,5.53,0,0,1,3.26,1,6,6,0,0,1,2.07,2.76,12,12,0,0,1,.71,4.34v1H792.06V701.9h7.43a5.15,5.15,0,0,0-1-2.9,2.71,2.71,0,0,0-2.23-1,3.22,3.22,0,0,0-2.63,1.12,4.72,4.72,0,0,0-.94,3.15v1.94a4,4,0,0,0,1,2.91,3.8,3.8,0,0,0,2.84,1,4.88,4.88,0,0,0,1.81-.37,5.41,5.41,0,0,0,1.6-1l2,2a8.39,8.39,0,0,1-2.54,1.68,7.15,7.15,0,0,1-2.83.59A7.58,7.58,0,0,1,793,710.15Z"/><path class="cls-1" d="M806.45,695.48h3v15.24h-3Zm7.39,2.88a3.55,3.55,0,0,0-1.39-.25,3,3,0,0,0-2.22.78,3,3,0,0,0-.78,2.18l-.31-2.93A5.71,5.71,0,0,1,811,696a4.35,4.35,0,0,1,2.47-.75,5.68,5.68,0,0,1,1.89.3,4.23,4.23,0,0,1,1.47.89l-1.95,2.64A2.45,2.45,0,0,0,813.84,698.36Z"/><path class="cls-1" d="M820,709.78a4.36,4.36,0,0,1-1.39-3.55,4.28,4.28,0,0,1,1.27-3.39,5.68,5.68,0,0,1,3.87-1.13H828l.21,2.41h-4.53a2.52,2.52,0,0,0-1.75.52,2,2,0,0,0-.58,1.59,2,2,0,0,0,.77,1.72,4,4,0,0,0,2.34.56,6.82,6.82,0,0,0,2.56-.37,1.21,1.21,0,0,0,.85-1.15l.31,2.15a3.5,3.5,0,0,1-1,1,4.42,4.42,0,0,1-1.34.6,7,7,0,0,1-1.72.19A6.46,6.46,0,0,1,820,709.78Zm7.95-8.72a3.25,3.25,0,0,0-.8-2.33,3,3,0,0,0-2.27-.83,6.08,6.08,0,0,0-1.79.28,5.5,5.5,0,0,0-1.55.78l-2.18-1.5a5.69,5.69,0,0,1,2.28-1.62,8.15,8.15,0,0,1,3.15-.58,7.25,7.25,0,0,1,3.25.67,4.59,4.59,0,0,1,2,1.94,6.18,6.18,0,0,1,.71,3.06v9.79H827.9Z"/><path class="cls-1" d="M834.12,695.48H841v2.7h-6.88Zm2.44,14.3a4.55,4.55,0,0,1-.86-3V691h3v15.75a1.49,1.49,0,0,0,.22.86.77.77,0,0,0,.65.3H841v2.85h-1.73A3.34,3.34,0,0,1,836.56,709.78Z"/><path class="cls-1" d="M845.11,689.37h3v3h-3Zm0,6.11h3v15.24h-3Z"/><path class="cls-1" d="M855.11,710.17A5.19,5.19,0,0,1,853,707.9a8.07,8.07,0,0,1-.74-3.59v-2.49a7.84,7.84,0,0,1,.74-3.54,5.09,5.09,0,0,1,2.15-2.25,7.87,7.87,0,0,1,6.79,0,5,5,0,0,1,2.15,2.25,7.71,7.71,0,0,1,.74,3.54v2.53a7.77,7.77,0,0,1-.74,3.56,5.11,5.11,0,0,1-2.15,2.26,7.87,7.87,0,0,1-6.79,0Zm5.83-3.06a4.05,4.05,0,0,0,.86-2.76v-2.53a4,4,0,0,0-.86-2.74,3.53,3.53,0,0,0-4.86,0,4,4,0,0,0-.86,2.74v2.53a4,4,0,0,0,.86,2.76,3.48,3.48,0,0,0,4.86,0Z"/><path class="cls-1" d="M869.05,695.48h3v15.24h-3Zm9.26,6a3.48,3.48,0,0,0-.84-2.5,3.08,3.08,0,0,0-2.35-.88,3.11,3.11,0,0,0-2.27.78,2.91,2.91,0,0,0-.8,2.18l-.31-2.93a5.51,5.51,0,0,1,1.84-2.13,4.49,4.49,0,0,1,2.52-.75,4.72,4.72,0,0,1,3.84,1.62,6.93,6.93,0,0,1,1.36,4.59v9.25h-3Z"/><path class="cls-1" d="M551.16,693.28h0a2,2,0,0,1,0,2.89l-13.95,14a2,2,0,0,1-2.89,0h0a2,2,0,0,1,0-2.88l14-14A2,2,0,0,1,551.16,693.28Z"/><path class="cls-1" d="M520.17,693.28h0a2,2,0,0,1,2.89,0l14,14a2,2,0,0,1,0,2.88h0a2,2,0,0,1-2.88,0l-14-14A2,2,0,0,1,520.17,693.28Z"/><circle class="cls-4" cx="666.81" cy="838.51" r="25.91"/><path class="cls-3" d="M711.05,848a6.27,6.27,0,0,1-2.41-2l2.55-1.83a2.9,2.9,0,0,0,1.24,1.16,4,4,0,0,0,1.88.42,3.57,3.57,0,0,0,2.83-1.14,4.61,4.61,0,0,0,1-3.18V826.18h3.12v15.18a8.8,8.8,0,0,1-.81,3.95,5.62,5.62,0,0,1-2.37,2.5,7.75,7.75,0,0,1-3.77.85A7.52,7.52,0,0,1,711.05,848Z"/><path class="cls-3" d="M729,847.85a5.33,5.33,0,0,1-2.24-2.36,8.26,8.26,0,0,1-.77-3.74v-2.59a8.12,8.12,0,0,1,.77-3.7,5.34,5.34,0,0,1,2.24-2.34,8.21,8.21,0,0,1,7.07,0,5.34,5.34,0,0,1,2.24,2.34,8.12,8.12,0,0,1,.78,3.7v2.63a8.1,8.1,0,0,1-.78,3.71,5.31,5.31,0,0,1-2.24,2.35,8.12,8.12,0,0,1-7.07,0Zm6.07-3.18a4.21,4.21,0,0,0,.89-2.88v-2.63a4.15,4.15,0,0,0-.89-2.86,3.69,3.69,0,0,0-5.07,0,4.2,4.2,0,0,0-.89,2.86v2.63a4.26,4.26,0,0,0,.89,2.88,3.63,3.63,0,0,0,5.07,0Z"/><path class="cls-3" d="M743.54,832.55h3.13v15.88h-3.13Zm9.65,6.26a3.64,3.64,0,0,0-.88-2.6,3.17,3.17,0,0,0-2.44-.92,3.26,3.26,0,0,0-2.37.81,3,3,0,0,0-.83,2.28l-.33-3.06a5.61,5.61,0,0,1,1.93-2.22,4.66,4.66,0,0,1,2.62-.78,4.92,4.92,0,0,1,4,1.69,7.21,7.21,0,0,1,1.42,4.78v9.64h-3.12Z"/><path class="cls-3" d="M761.74,847.45a4.55,4.55,0,0,1-1.45-3.7,4.45,4.45,0,0,1,1.33-3.53,5.89,5.89,0,0,1,4-1.18h4.52l.21,2.51h-4.71a2.67,2.67,0,0,0-1.83.54,2.14,2.14,0,0,0-.61,1.66,2.05,2.05,0,0,0,.81,1.79,4.14,4.14,0,0,0,2.44.58,7,7,0,0,0,2.67-.38,1.25,1.25,0,0,0,.88-1.19l.32,2.23a3.56,3.56,0,0,1-1,1.06,4.58,4.58,0,0,1-1.4.62,7.05,7.05,0,0,1-1.79.2A6.72,6.72,0,0,1,761.74,847.45Zm8.28-9.08a3.38,3.38,0,0,0-.83-2.43,3.14,3.14,0,0,0-2.37-.87,5.93,5.93,0,0,0-1.86.3,5.3,5.3,0,0,0-1.61.81l-2.28-1.56a5.94,5.94,0,0,1,2.38-1.7,8.59,8.59,0,0,1,3.28-.6,7.5,7.5,0,0,1,3.38.7,4.76,4.76,0,0,1,2.14,2,6.46,6.46,0,0,1,.74,3.19v10.2h-3Z"/><path class="cls-3" d="M777.73,826.18h3.12v22.25h-3.12Zm9.64,12.63a3.63,3.63,0,0,0-.87-2.6,3.19,3.19,0,0,0-2.45-.92,3.29,3.29,0,0,0-2.36.79,3,3,0,0,0-.84,2.25l-.32-3.06a5.68,5.68,0,0,1,1.92-2.18,4.76,4.76,0,0,1,2.63-.77,4.92,4.92,0,0,1,4,1.69,7.27,7.27,0,0,1,1.42,4.78v9.64h-3.13Z"/><circle class="cls-5" cx="666.81" cy="908.39" r="25.91"/><path class="cls-3" d="M707.87,896.07h15.7v3h-15.7Zm6.29,1.82h3.12v20.43h-3.12Z"/><path class="cls-3" d="M726.59,917.74a5.33,5.33,0,0,1-2.24-2.36,8.29,8.29,0,0,1-.78-3.74v-2.59a8.12,8.12,0,0,1,.78-3.7,5.34,5.34,0,0,1,2.24-2.34,8.21,8.21,0,0,1,7.07,0,5.39,5.39,0,0,1,2.24,2.34,8.12,8.12,0,0,1,.77,3.7v2.63a8.1,8.1,0,0,1-.77,3.71,5.36,5.36,0,0,1-2.24,2.35,8.12,8.12,0,0,1-7.07,0Zm6.07-3.18a4.26,4.26,0,0,0,.89-2.88v-2.63a4.2,4.2,0,0,0-.89-2.86,3.69,3.69,0,0,0-5.07,0,4.16,4.16,0,0,0-.9,2.86v2.63a4.21,4.21,0,0,0,.9,2.88,3.66,3.66,0,0,0,5.07,0Z"/><path class="cls-3" d="M741.11,896.07h3.12v22.25h-3.12Zm4.53,21.77a4.16,4.16,0,0,1-1.62-2l.21-3.32a3.85,3.85,0,0,0,.37,1.74,2.51,2.51,0,0,0,1.06,1.1,3.43,3.43,0,0,0,1.69.39,3.1,3.1,0,0,0,2.4-.94,3.83,3.83,0,0,0,.85-2.66V908.7a3.93,3.93,0,0,0-.85-2.71,3.05,3.05,0,0,0-2.4-1,3.67,3.67,0,0,0-1.69.37,2.51,2.51,0,0,0-1.06,1.08,3.75,3.75,0,0,0-.37,1.71l-.32-3.06a5.51,5.51,0,0,1,1.88-2.15,4.62,4.62,0,0,1,2.59-.76,5.24,5.24,0,0,1,2.88.76,4.68,4.68,0,0,1,1.83,2.21,8.79,8.79,0,0,1,.63,3.5v3.46a8.42,8.42,0,0,1-.64,3.46,4.85,4.85,0,0,1-1.88,2.2,5.65,5.65,0,0,1-3,.75A4.64,4.64,0,0,1,745.64,917.84Z"/><path class="cls-3" d="M758.16,896.07h3.12v3.12h-3.12Zm0,6.37h3.12v15.88h-3.12Z"/><path class="cls-3" d="M766.71,917.34a4.55,4.55,0,0,1-1.45-3.7,4.45,4.45,0,0,1,1.33-3.53,5.91,5.91,0,0,1,4-1.18h4.51l.21,2.51h-4.71a2.68,2.68,0,0,0-1.83.54,2.13,2.13,0,0,0-.6,1.66,2.07,2.07,0,0,0,.8,1.79,4.16,4.16,0,0,0,2.44.58,7.12,7.12,0,0,0,2.67-.38,1.25,1.25,0,0,0,.88-1.19l.32,2.23a3.65,3.65,0,0,1-1,1.06,4.69,4.69,0,0,1-1.4.62,7.54,7.54,0,0,1-1.79.2A6.75,6.75,0,0,1,766.71,917.34Zm8.28-9.09a3.35,3.35,0,0,0-.83-2.42,3.14,3.14,0,0,0-2.37-.87,6.23,6.23,0,0,0-1.86.29,5.68,5.68,0,0,0-1.61.82L766,904.5a6.09,6.09,0,0,1,2.38-1.69,8.63,8.63,0,0,1,3.28-.6,7.44,7.44,0,0,1,3.38.7,4.82,4.82,0,0,1,2.15,2,6.52,6.52,0,0,1,.73,3.2v10.2h-3Z"/><path class="cls-3" d="M785.68,918.28a9.68,9.68,0,0,1-2.3-.83,8.86,8.86,0,0,1-2-1.38l1.85-2.28a10,10,0,0,0,2.55,1.47,6.91,6.91,0,0,0,2.51.49,5.39,5.39,0,0,0,2.78-.57,1.89,1.89,0,0,0,.93-1.72,1.34,1.34,0,0,0-.51-1.15,2.71,2.71,0,0,0-1.25-.51c-.5-.09-1.21-.17-2.12-.24h-.26l-.26,0h-.24a12.33,12.33,0,0,1-2.62-.45,3.56,3.56,0,0,1-1.78-1.23,4.06,4.06,0,0,1-.71-2.59,5.26,5.26,0,0,1,.69-2.8,4.18,4.18,0,0,1,2-1.67,8.84,8.84,0,0,1,3.41-.56,12,12,0,0,1,2.36.23,10.53,10.53,0,0,1,4.13,1.82L793,906.54a10.82,10.82,0,0,0-2.35-1.15,7.29,7.29,0,0,0-2.26-.38,4.29,4.29,0,0,0-2.39.54,1.85,1.85,0,0,0-.79,1.63,1.12,1.12,0,0,0,.45,1,2.8,2.8,0,0,0,1.14.43c.46.07,1.11.13,2,.18H789l.21,0h.18a13.75,13.75,0,0,1,2.84.45,3.8,3.8,0,0,1,2,1.33,4.51,4.51,0,0,1,.8,2.88,5.1,5.1,0,0,1-.73,2.84A4.45,4.45,0,0,1,792,918a10.62,10.62,0,0,1-3.71.56A12.3,12.3,0,0,1,785.68,918.28Z"/><path class="cls-1" d="M596.82,758.87h-2V755a9.76,9.76,0,0,0-19.52,0v3.9h-2a3.91,3.91,0,0,0-3.9,3.9v19.52a3.91,3.91,0,0,0,3.9,3.91h23.43a3.92,3.92,0,0,0,3.9-3.91V762.77A3.92,3.92,0,0,0,596.82,758.87ZM585.1,776.44a3.91,3.91,0,1,1,3.91-3.91A3.92,3.92,0,0,1,585.1,776.44Zm6.06-17.57H579.05V755a6.06,6.06,0,1,1,12.11,0Z"/><rect class="cls-6" x="1075.55" y="745.68" width="104.13" height="40.05" rx="10.93"/></svg>