<?xml version="1.0" encoding="utf-8"?>
<!-- Generator: Adobe Illustrator 25.0.0, SVG Export Plug-In . SVG Version: 6.00 Build 0)  -->
<svg version="1.1" id="Layer_1" xmlns="http://www.w3.org/2000/svg" xmlns:xlink="http://www.w3.org/1999/xlink" x="0px" y="0px"
	 viewBox="0 0 500 500" style="enable-background:new 0 0 500 500;" xml:space="preserve">
<style type="text/css">
	.st0{fill:#5764F4;}
	.st1{fill:none;}
	.st2{fill:#FFFFFF;}
</style>
<path class="st0" d="M249.31,156.12v192.85c0,8.22-9.94,12.34-15.75,6.53l-55.74-55.74c-1.73-1.73-4.07-2.7-6.52-2.7H125
	c-5.1,0-9.23-4.13-9.23-9.23v-70.57c0-5.09,4.13-9.22,9.23-9.22h46.3c2.45,0,4.79-0.98,6.52-2.71l55.74-55.73
	C239.37,143.79,249.31,147.9,249.31,156.12z"/>
<path class="st0" d="M281,222.88c9.35,9.51,21.17,16.68,34.44,20.52c0.42,2.99,0.63,6.04,0.63,9.15c0,19.48-8.33,36.92-21.59,49.05
	c-5.94,5.43-15.5,1.27-15.5-6.77v-74.07C279.64,221.48,280.31,222.19,281,222.88z"/>
<path class="st0" d="M290.78,187.93l-22.84-22.83h17.61c0-3.27,0.3-6.48,0.87-9.58c1.86-10.15,6.61-19.29,13.38-26.52
	c10.17-10.86,24.87-17.43,41.08-16.68c27.07,1.24,49.04,23.21,50.28,50.28c0.76,16.53-6.08,31.49-17.33,41.68
	c-7.36,6.66-16.6,11.27-26.83,12.95c-2.8,0.46-5.68,0.7-8.61,0.7c-14.62,0-27.77-5.93-37.34-15.5l8.34-8.33
	c7.39,7.45,17.67,12.09,29,12.09c1.28,0,2.54-0.06,3.78-0.17c10.5-0.96,19.85-5.86,26.57-13.21c7-7.66,11.13-17.99,10.71-29.3
	c-0.8-21.31-18.16-38.68-39.48-39.48c-11.06-0.42-21.18,3.53-28.79,10.26c-7.45,6.58-12.49,15.82-13.64,26.25
	c-0.17,1.5-0.25,3.02-0.25,4.56h17.62L311,169l-19.81,19.75L290.78,187.93z"/>
<polygon class="st0" points="341.32,165.92 358.97,176.4 361.99,178.19 361.14,179.61 357.47,185.76 332.52,170.97 332.52,141.61 
	341.32,141.61 "/>
<path class="st0" d="M381.51,233.63c0.88,6.18,1.33,12.5,1.33,18.92c0,59.1-38.44,109.21-91.74,126.75
	c-5.97,1.97-12.12-2.47-12.12-8.76v-11.81c0-3.84,2.38-7.29,5.99-8.61c39.77-14.55,68.19-52.76,68.19-97.57
	c0-2.49-0.09-4.96-0.27-7.41C363.31,243.17,372.99,239.19,381.51,233.63z"/>
<path class="st2" d="M381.51,233.63c-8.52,5.56-18.2,9.54-28.62,11.51c0.18,2.45,0.27,4.92,0.27,7.41
	c0,44.81-28.42,83.02-68.19,97.57c-3.61,1.32-5.99,4.77-5.99,8.61v11.81c0,6.29,6.15,10.73,12.12,8.76
	c53.3-17.54,91.74-67.65,91.74-126.75C382.84,246.13,382.39,239.81,381.51,233.63z M347,217.23c10.23-1.68,19.47-6.29,26.83-12.95
	c-1.51-3.92-3.21-7.74-5.09-11.47c-6.72,7.35-16.07,12.25-26.57,13.21C344,209.64,345.61,213.38,347,217.23z M361.14,179.61
	c-0.7-1.08-1.42-2.15-2.17-3.21l-17.65-10.48v-10.06c-2.82-2.68-5.75-5.24-8.8-7.66v22.77l24.95,14.79L361.14,179.61z M311,169
	l3.91-3.9h-9.56C307.28,166.33,309.16,167.63,311,169z M311.18,134.29c-3.69-1.94-7.49-3.71-11.38-5.29
	c-6.77,7.23-11.52,16.37-13.38,26.52c3.82,1.45,7.53,3.14,11.12,5.02C298.69,150.11,303.73,140.87,311.18,134.29z M315.44,243.4
	c-13.27-3.84-25.09-11.01-34.44-20.52c-0.69-0.69-1.36-1.4-2.02-2.12v74.07c0,8.04,9.56,12.2,15.5,6.77
	c13.26-12.13,21.59-29.57,21.59-49.05C316.07,249.44,315.86,246.39,315.44,243.4z M233.56,149.6l-55.74,55.73
	c-1.73,1.73-4.07,2.71-6.52,2.71H125c-5.1,0-9.23,4.13-9.23,9.22v70.57c0,5.1,4.13,9.23,9.23,9.23h46.3c2.45,0,4.79,0.97,6.52,2.7
	l55.74,55.74c5.81,5.81,15.75,1.69,15.75-6.53V156.12C249.31,147.9,239.37,143.79,233.56,149.6z"/>
<polygon class="st0" points="341.32,165.92 358.97,176.4 361.99,178.19 361.14,179.61 357.47,185.76 332.52,170.97 332.52,141.61 
	341.32,141.61 "/>
<path class="st0" d="M373.83,204.28c-7.36,6.66-16.6,11.27-26.83,12.95c-2.8,0.46-5.68,0.7-8.61,0.7c-14.62,0-27.77-5.93-37.34-15.5
	l8.34-8.33c7.39,7.45,17.67,12.09,29,12.09c1.28,0,2.54-0.06,3.78-0.17c10.5-0.96,19.85-5.86,26.57-13.21
	c7-7.66,11.13-17.99,10.71-29.3c-0.8-21.31-18.16-38.68-39.48-39.48c-11.06-0.42-21.18,3.53-28.79,10.26
	c-7.45,6.58-12.49,15.82-13.64,26.25c-0.17,1.5-0.25,3.02-0.25,4.56h17.62L311,169l-19.81,19.75l-0.41-0.82l-22.84-22.83h17.61
	c0-3.27,0.3-6.48,0.87-9.58c1.86-10.15,6.61-19.29,13.38-26.52c10.17-10.86,24.87-17.43,41.08-16.68
	c27.07,1.24,49.04,23.21,50.28,50.28C391.92,179.13,385.08,194.09,373.83,204.28z"/>
<path class="st1" d="M278.98,220.76c0.66,0.72,1.33,1.43,2.02,2.12h-2.02V220.76z"/>
<polygon class="st1" points="341.32,165.92 358.97,176.4 361.99,178.19 361.14,179.61 357.47,185.76 332.52,170.97 332.52,141.61 
	341.32,141.61 "/>
<path class="st1" d="M373.83,204.28c-7.36,6.66-16.6,11.27-26.83,12.95c-2.8,0.46-5.68,0.7-8.61,0.7c-14.62,0-27.77-5.93-37.34-15.5
	l8.34-8.33c7.39,7.45,17.67,12.09,29,12.09c1.28,0,2.54-0.06,3.78-0.17c10.5-0.96,19.85-5.86,26.57-13.21
	c7-7.66,11.13-17.99,10.71-29.3c-0.8-21.31-18.16-38.68-39.48-39.48c-11.06-0.42-21.18,3.53-28.79,10.26
	c-7.45,6.58-12.49,15.82-13.64,26.25c-0.17,1.5-0.25,3.02-0.25,4.56h17.62L311,169l-19.81,19.75l-0.41-0.82l-22.84-22.83h17.61
	c0-3.27,0.3-6.48,0.87-9.58c1.86-10.15,6.61-19.29,13.38-26.52c10.17-10.86,24.87-17.43,41.08-16.68
	c27.07,1.24,49.04,23.21,50.28,50.28C391.92,179.13,385.08,194.09,373.83,204.28z"/>
<path class="st2" d="M358.97,176.4l-17.65-10.48v-24.31h-8.8v29.36l24.95,14.79l3.67-6.15l0.85-1.42L358.97,176.4z M391.16,162.6
	c-1.24-27.07-23.21-49.04-50.28-50.28c-16.21-0.75-30.91,5.82-41.08,16.68c-6.77,7.23-11.52,16.37-13.38,26.52
	c-0.57,3.1-0.87,6.31-0.87,9.58h-17.61l22.84,22.83l0.41,0.82L311,169l3.91-3.9h-17.62c0-1.54,0.08-3.06,0.25-4.56
	c1.15-10.43,6.19-19.67,13.64-26.25c7.61-6.73,17.73-10.68,28.79-10.26c21.32,0.8,38.68,18.17,39.48,39.48
	c0.42,11.31-3.71,21.64-10.71,29.3c-6.72,7.35-16.07,12.25-26.57,13.21c-1.24,0.11-2.5,0.17-3.78,0.17c-11.33,0-21.61-4.64-29-12.09
	l-8.34,8.33c9.57,9.57,22.72,15.5,37.34,15.5c2.93,0,5.81-0.24,8.61-0.7c10.23-1.68,19.47-6.29,26.83-12.95
	C385.08,194.09,391.92,179.13,391.16,162.6z M358.97,176.4c0.75,1.06,1.47,2.13,2.17,3.21l0.85-1.42L358.97,176.4z M341.32,141.61
	h-8.8v6.59c3.05,2.42,5.98,4.98,8.8,7.66V141.61z"/>
</svg>
