<?xml version="1.0" encoding="utf-8"?>
<!-- Generator: Adobe Illustrator 25.0.0, SVG Export Plug-In . SVG Version: 6.00 Build 0)  -->
<svg version="1.1" id="Layer_1" xmlns="http://www.w3.org/2000/svg" xmlns:xlink="http://www.w3.org/1999/xlink" x="0px" y="0px"
	 viewBox="0 0 1500 1500" style="enable-background:new 0 0 1500 1500;" xml:space="preserve">
<style type="text/css">
	.st0{fill:#2F3136;}
	.st1{fill:#72767D;}
	.st2{fill:#EB459E;}
	.st3{fill:#FFFFFF;}
	.st4{fill:#57F287;}
	.st5{fill:#FEE75C;}
	.st6{fill:#34373C;}
	.st7{fill:#202225;}
	.st8{fill:#5865F2;}
	.st9{fill:#ED4245;}
	.st10{opacity:0.42;}
	.st11{fill:#4FDC7C;}
</style>
<path class="st1" d="M715.3,698.1L715.3,698.1c0.5,0.5,0.5,1.4,0,1.9l-9.4,9.4c-0.5,0.5-1.4,0.5-1.9,0l0,0c-0.5-0.5-0.5-1.4,0-1.9
	l9.4-9.4C713.9,697.5,714.8,697.5,715.3,698.1z"/>
<path class="st1" d="M694.5,698.1L694.5,698.1c0.5-0.5,1.4-0.5,1.9,0l9.4,9.4c0.5,0.5,0.5,1.4,0,1.9h0c-0.5,0.5-1.4,0.5-1.9,0
	l-9.4-9.4C693.9,699.5,693.9,698.6,694.5,698.1z"/>
<g>
	<g>
		<g>
			<path class="st1" d="M731.2,693.9H745v2.6h-13.9V693.9z M736.7,695.5h2.8v18h-2.8V695.5z"/>
			<path class="st1" d="M749.9,713.6h-2.8v-19.6h2.8V713.6z"/>
			<path class="st1" d="M768.9,693.9h2.6v19.6h-2.7v-14.7l0.1,0.9l-4.8,11.1h-1.9l-4.8-10.8l0.1-1.1v14.7h-2.7v-19.6h2.6l5.8,13
				L768.9,693.9z"/>
		</g>
	</g>
</g>
<path class="st1" d="M488.9,631.5c1.9,2,4.4,3.4,7.1,4.2c0.1,0.6,0.1,1.2,0.1,1.9c0,4-1.7,7.6-4.4,10.1c-1.2,1.1-3.2,0.3-3.2-1.4
	v-15.3C488.6,631.2,488.8,631.4,488.9,631.5z"/>
<path class="st1" d="M490.9,624.3l-4.7-4.7h3.6c0-0.7,0.1-1.3,0.2-2c0.4-2.1,1.4-4,2.8-5.5c2.1-2.2,5.1-3.6,8.5-3.4
	c5.6,0.3,10.1,4.8,10.4,10.4c0.2,3.4-1.3,6.5-3.6,8.6c-1.5,1.4-3.4,2.3-5.5,2.7c-0.6,0.1-1.2,0.1-1.8,0.1c-3,0-5.7-1.2-7.7-3.2
	l1.7-1.7c1.5,1.5,3.6,2.5,6,2.5c0.3,0,0.5,0,0.8,0c2.2-0.2,4.1-1.2,5.5-2.7c1.4-1.6,2.3-3.7,2.2-6c-0.2-4.4-3.7-8-8.1-8.1
	c-2.3-0.1-4.4,0.7-5.9,2.1c-1.5,1.4-2.6,3.3-2.8,5.4c0,0.3-0.1,0.6-0.1,0.9h3.6l-0.8,0.8l-4.1,4.1L490.9,624.3z"/>
<polygon class="st1" points="501.3,619.8 505,621.9 505.6,622.3 505.4,622.6 504.7,623.9 499.5,620.8 499.5,614.8 501.3,614.8 "/>
<path class="st1" d="M509.6,633.7c0.2,1.3,0.3,2.6,0.3,3.9c0,12.2-7.9,22.5-18.9,26.1c-1.2,0.4-2.5-0.5-2.5-1.8v-2.4
	c0-0.8,0.5-1.5,1.2-1.8c8.2-3,14-10.9,14-20.1c0-0.5,0-1-0.1-1.5C505.9,635.7,507.9,634.9,509.6,633.7z"/>
<path class="st1" d="M509.6,633.7c-1.8,1.1-3.7,2-5.9,2.4c0,0.5,0.1,1,0.1,1.5c0,9.2-5.9,17.1-14,20.1c-0.7,0.3-1.2,1-1.2,1.8v2.4
	c0,1.3,1.3,2.2,2.5,1.8c11-3.6,18.9-13.9,18.9-26.1C509.9,636.3,509.8,635,509.6,633.7z M502.5,630.3c2.1-0.3,4-1.3,5.5-2.7
	c-0.3-0.8-0.7-1.6-1-2.4c-1.4,1.5-3.3,2.5-5.5,2.7C501.9,628.8,502.2,629.5,502.5,630.3z M505.4,622.6c-0.1-0.2-0.3-0.4-0.4-0.7
	l-3.6-2.2v-2.1c-0.6-0.6-1.2-1.1-1.8-1.6v4.7l5.1,3L505.4,622.6z M495.1,620.4l0.8-0.8h-2C494.3,619.8,494.7,620.1,495.1,620.4z
	 M495.1,613.2c-0.8-0.4-1.5-0.8-2.3-1.1c-1.4,1.5-2.4,3.4-2.8,5.5c0.8,0.3,1.6,0.6,2.3,1C492.6,616.5,493.6,614.6,495.1,613.2z
	 M496,635.7c-2.7-0.8-5.2-2.3-7.1-4.2c-0.1-0.1-0.3-0.3-0.4-0.4v15.3c0,1.7,2,2.5,3.2,1.4c2.7-2.5,4.4-6.1,4.4-10.1
	C496.1,637,496.1,636.3,496,635.7z M479.1,616.4l-11.5,11.5c-0.4,0.4-0.8,0.6-1.3,0.6h-9.5c-1.1,0-1.9,0.9-1.9,1.9v14.5
	c0,1.1,0.9,1.9,1.9,1.9h9.5c0.5,0,1,0.2,1.3,0.6l11.5,11.5c1.2,1.2,3.2,0.3,3.2-1.3v-39.7C482.4,616.1,480.3,615.2,479.1,616.4z"/>
<polygon class="st1" points="501.3,619.8 505,621.9 505.6,622.3 505.4,622.6 504.7,623.9 499.5,620.8 499.5,614.8 501.3,614.8 "/>
<path class="st1" d="M508,627.7c-1.5,1.4-3.4,2.3-5.5,2.7c-0.6,0.1-1.2,0.1-1.8,0.1c-3,0-5.7-1.2-7.7-3.2l1.7-1.7
	c1.5,1.5,3.6,2.5,6,2.5c0.3,0,0.5,0,0.8,0c2.2-0.2,4.1-1.2,5.5-2.7c1.4-1.6,2.3-3.7,2.2-6c-0.2-4.4-3.7-8-8.1-8.1
	c-2.3-0.1-4.4,0.7-5.9,2.1c-1.5,1.4-2.6,3.3-2.8,5.4c0,0.3-0.1,0.6-0.1,0.9h3.6l-0.8,0.8l-4.1,4.1l-0.1-0.2l-4.7-4.7h3.6
	c0-0.7,0.1-1.3,0.2-2c0.4-2.1,1.4-4,2.8-5.5c2.1-2.2,5.1-3.6,8.5-3.4c5.6,0.3,10.1,4.8,10.4,10.4C511.8,622.5,510.4,625.6,508,627.7
	z"/>
<path class="st1" d="M488.5,631.1c0.1,0.1,0.3,0.3,0.4,0.4h-0.4V631.1z"/>
<polygon class="st1" points="501.3,619.8 505,621.9 505.6,622.3 505.4,622.6 504.7,623.9 499.5,620.8 499.5,614.8 501.3,614.8 "/>
<path class="st1" d="M508,627.7c-1.5,1.4-3.4,2.3-5.5,2.7c-0.6,0.1-1.2,0.1-1.8,0.1c-3,0-5.7-1.2-7.7-3.2l1.7-1.7
	c1.5,1.5,3.6,2.5,6,2.5c0.3,0,0.5,0,0.8,0c2.2-0.2,4.1-1.2,5.5-2.7c1.4-1.6,2.3-3.7,2.2-6c-0.2-4.4-3.7-8-8.1-8.1
	c-2.3-0.1-4.4,0.7-5.9,2.1c-1.5,1.4-2.6,3.3-2.8,5.4c0,0.3-0.1,0.6-0.1,0.9h3.6l-0.8,0.8l-4.1,4.1l-0.1-0.2l-4.7-4.7h3.6
	c0-0.7,0.1-1.3,0.2-2c0.4-2.1,1.4-4,2.8-5.5c2.1-2.2,5.1-3.6,8.5-3.4c5.6,0.3,10.1,4.8,10.4,10.4C511.8,622.5,510.4,625.6,508,627.7
	z"/>
<path class="st1" d="M505,621.9l-3.6-2.2v-5h-1.8v6l5.1,3l0.8-1.3l0.2-0.3L505,621.9z M511.6,619.1c-0.3-5.6-4.8-10.1-10.4-10.4
	c-3.3-0.2-6.4,1.2-8.5,3.4c-1.4,1.5-2.4,3.4-2.8,5.5c-0.1,0.6-0.2,1.3-0.2,2h-3.6l4.7,4.7l0.1,0.2l4.1-4.1l0.8-0.8h-3.6
	c0-0.3,0-0.6,0.1-0.9c0.2-2.1,1.3-4.1,2.8-5.4c1.6-1.4,3.7-2.2,5.9-2.1c4.4,0.2,8,3.7,8.1,8.1c0.1,2.3-0.8,4.5-2.2,6
	c-1.4,1.5-3.3,2.5-5.5,2.7c-0.3,0-0.5,0-0.8,0c-2.3,0-4.5-1-6-2.5l-1.7,1.7c2,2,4.7,3.2,7.7,3.2c0.6,0,1.2,0,1.8-0.1
	c2.1-0.3,4-1.3,5.5-2.7C510.4,625.6,511.8,622.5,511.6,619.1z M505,621.9c0.2,0.2,0.3,0.4,0.4,0.7l0.2-0.3L505,621.9z M501.3,614.8
	h-1.8v1.4c0.6,0.5,1.2,1,1.8,1.6V614.8z"/>
<g>
	<g>
		<g>
			<path class="st1" d="M538.5,622.4h4.5l7.1,23.1l7.1-23.1h4.5l-9.6,29.5h-3.9L538.5,622.4z"/>
			<path class="st1" d="M570.3,650.8c-1.6-0.9-2.8-2.2-3.6-3.8c-0.9-1.6-1.3-3.5-1.3-5.7v-8.4c0-2.2,0.4-4.1,1.3-5.7
				c0.9-1.6,2.1-2.9,3.6-3.8c1.6-0.9,3.4-1.3,5.4-1.3s3.9,0.5,5.4,1.3c1.6,0.9,2.8,2.2,3.6,3.8c0.9,1.6,1.3,3.5,1.3,5.7v8.4
				c0,2.2-0.4,4.1-1.3,5.7c-0.9,1.6-2.1,2.9-3.6,3.8c-1.6,0.9-3.4,1.3-5.4,1.3S571.9,651.7,570.3,650.8z M579,647.3
				c0.9-0.5,1.6-1.3,2.2-2.3c0.5-1,0.8-2.2,0.8-3.5v-8.6c0-1.3-0.3-2.5-0.8-3.5c-0.5-1-1.2-1.8-2.2-2.3s-2-0.8-3.2-0.8
				s-2.3,0.3-3.2,0.8s-1.6,1.3-2.2,2.3c-0.5,1-0.8,2.2-0.8,3.5v8.6c0,1.3,0.3,2.5,0.8,3.5c0.5,1,1.2,1.8,2.2,2.3
				c0.9,0.5,2,0.8,3.2,0.8S578,647.8,579,647.3z"/>
			<path class="st1" d="M597,651.9h-4.1v-29.5h4.1V651.9z"/>
			<path class="st1" d="M608.5,650.8c-1.5-0.9-2.8-2.2-3.6-3.9c-0.9-1.7-1.3-3.6-1.3-5.8v-8.1c0-2.2,0.4-4.1,1.3-5.8s2.1-3,3.6-3.9
				c1.5-0.9,3.3-1.4,5.4-1.4c1.7,0,3.2,0.4,4.7,1.1s2.6,1.7,3.6,3.1c1,1.3,1.6,2.9,1.9,4.6h-4.2c-0.3-0.9-0.7-1.7-1.3-2.5
				s-1.3-1.3-2.1-1.7c-0.8-0.4-1.7-0.6-2.5-0.6c-1.2,0-2.3,0.3-3.2,0.9c-0.9,0.6-1.6,1.4-2.1,2.4c-0.5,1-0.8,2.3-0.8,3.7v8.1
				c0,1.4,0.3,2.6,0.8,3.7c0.5,1.1,1.2,1.9,2.1,2.4c0.9,0.6,2,0.9,3.2,0.9c0.9,0,1.7-0.2,2.5-0.5c0.8-0.4,1.5-0.9,2.1-1.6
				c0.6-0.7,1-1.6,1.3-2.6h4.2c-0.3,1.7-1,3.3-1.9,4.6c-1,1.3-2.2,2.4-3.6,3.1c-1.4,0.7-3,1.1-4.6,1.1
				C611.9,652.2,610.1,651.7,608.5,650.8z"/>
			<path class="st1" d="M630,622.4h4.1v29.5H630V622.4z M632,622.4h16.9v3.9H632V622.4z M632,635.3h14.7v3.9H632V635.3z M632,647.9
				h16.9v3.9H632V647.9z"/>
			<path class="st1" d="M670.3,650.8c-1.5-0.9-2.8-2.2-3.6-3.9c-0.9-1.7-1.3-3.6-1.3-5.8v-8.1c0-2.2,0.4-4.1,1.3-5.8s2.1-3,3.6-3.9
				c1.5-0.9,3.3-1.4,5.4-1.4c1.7,0,3.2,0.4,4.7,1.1s2.6,1.7,3.6,3.1c1,1.3,1.6,2.9,1.9,4.6h-4.2c-0.3-0.9-0.7-1.7-1.3-2.5
				s-1.3-1.3-2.1-1.7c-0.8-0.4-1.7-0.6-2.5-0.6c-1.2,0-2.3,0.3-3.2,0.9c-0.9,0.6-1.6,1.4-2.1,2.4c-0.5,1-0.8,2.3-0.8,3.7v8.1
				c0,1.4,0.3,2.6,0.8,3.7c0.5,1.1,1.2,1.9,2.1,2.4c0.9,0.6,2,0.9,3.2,0.9c0.9,0,1.7-0.2,2.5-0.5c0.8-0.4,1.5-0.9,2.1-1.6
				c0.6-0.7,1-1.6,1.3-2.6h4.2c-0.3,1.7-1,3.3-1.9,4.6c-1,1.3-2.2,2.4-3.6,3.1c-1.4,0.7-3,1.1-4.6,1.1
				C673.6,652.2,671.8,651.7,670.3,650.8z"/>
			<path class="st1" d="M691.7,622.4h4.1v29.5h-4.1V622.4z M694.3,635.4h16.4v3.9h-16.4V635.4z M708.5,622.4h4.1v29.5h-4.1V622.4z"
				/>
			<path class="st1" d="M728,622.4h3.5l10.9,29.5h-4.5l-8.2-23.8l-8.2,23.8h-4.5L728,622.4z M722.1,641.5h15.5v3.9h-15.5V641.5z"/>
			<path class="st1" d="M746.8,622.4h3.8l14.4,22.8l-0.5,0.5v-23.3h4.1v29.5h-3.8l-14.4-22.5l0.5-0.5v23h-4.1V622.4z"/>
			<path class="st1" d="M775.9,622.4h3.8l14.4,22.8l-0.5,0.5v-23.3h4.1v29.5h-3.8l-14.4-22.5l0.5-0.5v23h-4.1V622.4z"/>
			<path class="st1" d="M805,622.4h4.1v29.5H805V622.4z M807,622.4H824v3.9H807V622.4z M807,635.3h14.7v3.9H807V635.3z M807,647.9
				H824v3.9H807V647.9z"/>
			<path class="st1" d="M829.9,622.4h4.1v29.5h-4.1V622.4z M832,647.9h16.9v3.9H832V647.9z"/>
		</g>
	</g>
</g>
<g>
	<g>
		<g>
			<path class="st1" d="M640.7,743.2c-1.3-0.6-2.4-1.5-3.2-2.7l3.4-2.4c0.4,0.7,0.9,1.2,1.6,1.5c0.7,0.4,1.5,0.5,2.5,0.5
				c1.6,0,2.9-0.5,3.7-1.5c0.9-1,1.3-2.4,1.3-4.2v-20.1h4.1v20.1c0,2-0.4,3.8-1.1,5.2c-0.7,1.4-1.8,2.6-3.1,3.3s-3,1.1-5,1.1
				C643.5,744.2,642,743.9,640.7,743.2z"/>
			<path class="st1" d="M665.9,742.8c-1.6-0.9-2.8-2.2-3.6-3.8c-0.9-1.6-1.3-3.5-1.3-5.7v-8.4c0-2.2,0.4-4.1,1.3-5.7
				c0.9-1.6,2.1-2.9,3.6-3.8c1.6-0.9,3.4-1.3,5.4-1.3s3.9,0.5,5.4,1.3c1.6,0.9,2.8,2.2,3.6,3.8c0.9,1.6,1.3,3.5,1.3,5.7v8.4
				c0,2.2-0.4,4.1-1.3,5.7c-0.9,1.6-2.1,2.9-3.6,3.8c-1.6,0.9-3.4,1.3-5.4,1.3S667.4,743.7,665.9,742.8z M674.5,739.3
				c0.9-0.5,1.6-1.3,2.2-2.3c0.5-1,0.8-2.2,0.8-3.5v-8.6c0-1.3-0.3-2.5-0.8-3.5c-0.5-1-1.2-1.8-2.2-2.3s-2-0.8-3.2-0.8
				s-2.3,0.3-3.2,0.8s-1.6,1.3-2.2,2.3c-0.5,1-0.8,2.2-0.8,3.5v8.6c0,1.3,0.3,2.5,0.8,3.5c0.5,1,1.2,1.8,2.2,2.3
				c0.9,0.5,2,0.8,3.2,0.8S673.6,739.8,674.5,739.3z"/>
			<path class="st1" d="M688.4,714.4h3.8l14.4,22.8l-0.5,0.5v-23.3h4.1v29.5h-3.8L692,721.4l0.5-0.5v23h-4.1V714.4z"/>
			<path class="st1" d="M725.5,714.4h3.5l10.9,29.5h-4.5l-8.2-23.8l-8.2,23.8h-4.5L725.5,714.4z M719.7,733.5h15.5v3.9h-15.5V733.5z
				"/>
			<path class="st1" d="M744.4,714.4h4.1v29.5h-4.1V714.4z M747,727.4h16.4v3.9H747V727.4z M761.2,714.4h4.1v29.5h-4.1V714.4z"/>
		</g>
	</g>
</g>
<circle class="st8" cx="577.7" cy="731.1" r="32.6"/>
<g>
	<g>
		<g>
			<path class="st1" d="M183,435.8c-2.6-1.4-4.5-3.4-5.9-6c-1.3-2.6-2-5.8-2-9.5v-30.2h8.9v30.4c0,2.7,0.7,4.8,2.2,6.3
				c1.5,1.5,3.5,2.2,6.1,2.2c2.7,0,4.7-0.7,6.2-2.2c1.5-1.5,2.2-3.6,2.2-6.3v-30.4h8.9v30.2c0,3.7-0.7,6.9-2,9.5
				c-1.4,2.6-3.3,4.6-5.9,6c-2.6,1.4-5.7,2.1-9.3,2.1S185.6,437.2,183,435.8z"/>
			<path class="st1" d="M227.6,437.2c-2.2-0.5-4.2-1.1-6.1-2s-3.6-1.9-5.1-3.2l4.1-7.3c1.8,1.5,3.9,2.6,6.3,3.5
				c2.4,0.8,4.8,1.2,7.3,1.2c2.9,0,5.2-0.5,6.8-1.5c1.6-1,2.4-2.4,2.4-4.2v0c0-1.3-0.4-2.3-1.1-3c-0.7-0.7-1.6-1.3-2.8-1.6
				c-1.1-0.3-2.6-0.7-4.4-0.9c-0.1,0-0.1,0-0.2,0c-0.1,0-0.1,0-0.2,0l-0.7-0.1c-3.2-0.5-5.8-1.1-7.9-1.9s-3.8-2.1-5.3-3.9
				c-1.5-1.9-2.2-4.5-2.2-8v0c0-3.1,0.7-5.7,2-7.8c1.4-2.2,3.3-3.8,6-5c2.6-1.1,5.7-1.7,9.4-1.7c1.7,0,3.4,0.2,5.2,0.6
				c1.8,0.4,3.5,1,5.2,1.7c1.7,0.7,3.3,1.6,4.8,2.7l-3.8,7.5c-1.8-1.3-3.7-2.2-5.7-2.9c-2-0.7-3.9-1-5.7-1c-2.7,0-4.8,0.5-6.3,1.3
				c-1.5,0.9-2.2,2.2-2.2,3.8v0c0,1.4,0.4,2.4,1.2,3.2s1.7,1.4,2.9,1.7c1.1,0.4,2.8,0.8,4.8,1.2c0.1,0,0.2,0,0.3,0
				c0.1,0,0.2,0,0.3,0c0.1,0,0.3,0,0.4,0.1c0.1,0,0.2,0.1,0.4,0.1c3,0.6,5.5,1.3,7.5,2.1c2,0.8,3.7,2.2,5,4s2,4.4,2,7.6v0.1
				c0,3-0.7,5.6-2.1,7.7c-1.4,2.1-3.5,3.8-6.2,4.9s-5.9,1.7-9.7,1.7C232,437.9,229.8,437.7,227.6,437.2z"/>
			<path class="st1" d="M260.4,390.1h8.9v47.3h-8.9V390.1z M263.6,390.1h28.5v8.6h-28.5V390.1z M263.6,409.6h24.9v8.6h-24.9V409.6z
				 M263.6,428.8h28.5v8.6h-28.5V428.8z"/>
			<path class="st1" d="M300.2,390.1h8.9v47.3h-8.9V390.1z M303.7,409.8h16.5c0.9,0,1.7-0.2,2.4-0.7c0.7-0.5,1.2-1.1,1.6-2
				c0.4-0.8,0.6-1.8,0.6-2.9c0-1.1-0.2-2.1-0.6-2.9c-0.4-0.8-0.9-1.5-1.6-2c-0.7-0.5-1.5-0.7-2.4-0.7h-16.5v-8.6h17.2
				c2.6,0,4.9,0.6,6.9,1.8c2,1.2,3.5,2.8,4.6,5c1.1,2.1,1.6,4.6,1.6,7.4c0,2.8-0.5,5.3-1.6,7.4s-2.6,3.8-4.6,5
				c-2,1.2-4.3,1.8-6.8,1.8h-17.2V409.8z M313.7,416.9l9.5-1.5l12.7,22h-10.8L313.7,416.9z"/>
			<path class="st1" d="M362.1,390.1h6.6v47.3h-6.6V390.1z M367.3,416.6l20.9-26.5h8.2l-30,36.5L367.3,416.6z M375.2,412.2l5.2-4.8
				l17.9,30.1h-8.1L375.2,412.2z"/>
			<path class="st1" d="M411.5,437.4h-6.6v-47.3h6.6V437.4z"/>
			<path class="st1" d="M430,435.7c-2.5-1.5-4.4-3.5-5.8-6.2c-1.4-2.7-2-5.8-2-9.3v-13c0-3.5,0.7-6.6,2-9.3c1.4-2.7,3.3-4.7,5.8-6.2
				c2.5-1.5,5.4-2.2,8.6-2.2c2.7,0,5.2,0.6,7.5,1.7c2.3,1.2,4.2,2.8,5.7,4.9c1.5,2.1,2.6,4.6,3.1,7.4h-6.8c-0.4-1.5-1.1-2.8-2.1-4
				c-1-1.2-2.1-2.1-3.4-2.7s-2.6-0.9-4-0.9c-1.9,0-3.6,0.5-5.1,1.4c-1.5,0.9-2.6,2.2-3.4,3.9c-0.8,1.7-1.2,3.6-1.2,5.9v13
				c0,2.2,0.4,4.2,1.2,5.9c0.8,1.7,1.9,3,3.4,3.9c1.5,0.9,3.1,1.4,5.1,1.4c1.4,0,2.8-0.3,4-0.9c1.3-0.6,2.4-1.5,3.4-2.6
				c1-1.1,1.7-2.5,2.1-4.1h6.8c-0.5,2.8-1.6,5.3-3.1,7.4c-1.5,2.1-3.4,3.8-5.7,4.9c-2.3,1.2-4.8,1.7-7.4,1.7
				C435.4,437.9,432.5,437.2,430,435.7z"/>
			<path class="st1" d="M464.4,390.1h6.6v47.3h-6.6V390.1z M469.6,416.6l20.9-26.5h8.2l-30,36.5L469.6,416.6z M477.5,412.2l5.2-4.8
				l17.9,30.1h-8.1L477.5,412.2z"/>
		</g>
	</g>
</g>
<g>
	<g>
		<g>
			<path class="st1" d="M795.2,495.2c-2.6-1.4-4.5-3.4-5.9-6c-1.3-2.6-2-5.8-2-9.5v-30.2h8.9v30.4c0,2.7,0.7,4.8,2.2,6.3
				c1.5,1.5,3.5,2.2,6.1,2.2c2.7,0,4.7-0.7,6.2-2.2c1.5-1.5,2.2-3.6,2.2-6.3v-30.4h8.9v30.2c0,3.7-0.7,6.9-2,9.5
				c-1.4,2.6-3.3,4.6-5.9,6c-2.6,1.4-5.7,2.1-9.3,2.1C800.9,497.3,797.8,496.6,795.2,495.2z"/>
			<path class="st1" d="M839.8,496.6c-2.2-0.5-4.2-1.1-6.1-2s-3.6-1.9-5.1-3.2l4.1-7.3c1.8,1.5,3.9,2.6,6.3,3.5
				c2.4,0.8,4.8,1.2,7.3,1.2c2.9,0,5.2-0.5,6.8-1.5s2.4-2.4,2.4-4.2v0c0-1.3-0.4-2.3-1.1-3c-0.7-0.7-1.6-1.3-2.8-1.6
				c-1.2-0.3-2.6-0.7-4.4-0.9c-0.1,0-0.1,0-0.2,0s-0.1,0-0.2,0l-0.7-0.1c-3.2-0.5-5.8-1.1-7.9-1.9c-2.1-0.7-3.8-2.1-5.3-3.9
				c-1.5-1.9-2.2-4.5-2.2-8v0c0-3.1,0.7-5.7,2-7.8c1.4-2.2,3.3-3.8,5.9-5c2.6-1.1,5.7-1.7,9.4-1.7c1.7,0,3.4,0.2,5.2,0.6
				c1.8,0.4,3.5,1,5.2,1.7c1.7,0.7,3.3,1.6,4.8,2.7l-3.8,7.5c-1.8-1.3-3.7-2.2-5.7-2.9c-2-0.7-3.9-1-5.7-1c-2.7,0-4.8,0.5-6.3,1.3
				c-1.5,0.9-2.2,2.2-2.2,3.8v0c0,1.4,0.4,2.4,1.2,3.2c0.8,0.8,1.7,1.4,2.9,1.7c1.1,0.4,2.8,0.8,4.8,1.2c0.1,0,0.2,0,0.3,0
				c0.1,0,0.2,0,0.3,0c0.1,0,0.3,0,0.4,0.1c0.1,0,0.2,0.1,0.4,0.1c3,0.6,5.5,1.3,7.5,2.1c2,0.8,3.7,2.2,5,4s2,4.4,2,7.6v0.1
				c0,3-0.7,5.6-2.1,7.7c-1.4,2.1-3.5,3.8-6.2,4.9c-2.7,1.1-5.9,1.7-9.7,1.7C844.2,497.3,842,497,839.8,496.6z"/>
			<path class="st1" d="M872.6,449.5h8.9v47.3h-8.9V449.5z M875.8,449.5h28.5v8.6h-28.5V449.5z M875.8,469h24.9v8.6h-24.9V469z
				 M875.8,488.2h28.5v8.6h-28.5V488.2z"/>
			<path class="st1" d="M912.4,449.5h8.9v47.3h-8.9V449.5z M915.9,469.2h16.5c0.9,0,1.7-0.2,2.4-0.7c0.7-0.5,1.2-1.1,1.6-2
				c0.4-0.8,0.6-1.8,0.6-2.9c0-1.1-0.2-2.1-0.6-2.9c-0.4-0.8-0.9-1.5-1.6-2s-1.5-0.7-2.4-0.7h-16.5v-8.6h17.2c2.6,0,4.9,0.6,6.9,1.8
				c2,1.2,3.5,2.8,4.6,5c1.1,2.1,1.6,4.6,1.6,7.4c0,2.8-0.5,5.3-1.6,7.4s-2.6,3.8-4.6,5c-2,1.2-4.3,1.8-6.8,1.8h-17.2V469.2z
				 M925.9,476.3l9.5-1.5l12.7,22h-10.8L925.9,476.3z"/>
			<path class="st1" d="M980.9,496.8h-6.6v-47.3h6.6V496.8z"/>
			<path class="st1" d="M992.6,449.5h6l23.1,36.5l-0.8,0.8v-37.4h6.6v47.2h-6.1l-23.1-36l0.8-0.8v36.8h-6.6V449.5z"/>
			<path class="st1" d="M1034.4,449.5h7.2l11.3,37.1l11.3-37.1h7.2l-15.4,47.3h-6.3L1034.4,449.5z"/>
			<path class="st1" d="M1085,496.8h-6.6v-47.3h6.6V496.8z"/>
			<path class="st1" d="M1090.2,449.5h33.4v6.3h-33.4V449.5z M1103.6,453.4h6.6v43.4h-6.6V453.4z"/>
			<path class="st1" d="M1128.8,449.5h6.6v47.3h-6.6V449.5z M1132,449.5h27.2v6.3H1132V449.5z M1132,470.2h23.6v6.3H1132V470.2z
				 M1132,490.5h27.2v6.3H1132V490.5z"/>
		</g>
	</g>
</g>
<g>
	<g>
		<g>
			<path class="st1" d="M824.3,1111.9c-2.6-1.4-4.5-3.4-5.9-6c-1.3-2.6-2-5.8-2-9.5v-30.2h8.9v30.4c0,2.7,0.7,4.8,2.2,6.3
				c1.5,1.5,3.5,2.2,6.1,2.2c2.7,0,4.7-0.7,6.2-2.2c1.5-1.5,2.2-3.6,2.2-6.3v-30.4h8.9v30.2c0,3.7-0.7,6.9-2,9.5
				c-1.4,2.6-3.3,4.6-5.9,6c-2.6,1.4-5.7,2.1-9.3,2.1S826.9,1113.3,824.3,1111.9z"/>
			<path class="st1" d="M868.9,1113.3c-2.2-0.5-4.2-1.1-6.1-2s-3.6-1.9-5.1-3.2l4.1-7.3c1.8,1.5,3.9,2.6,6.3,3.5
				c2.4,0.8,4.8,1.2,7.3,1.2c2.9,0,5.2-0.5,6.8-1.5c1.6-1,2.4-2.4,2.4-4.2v0c0-1.3-0.4-2.3-1.1-3c-0.7-0.7-1.6-1.3-2.8-1.6
				c-1.1-0.3-2.6-0.7-4.4-0.9c-0.1,0-0.1,0-0.2,0c-0.1,0-0.1,0-0.2,0l-0.7-0.1c-3.2-0.5-5.8-1.1-7.9-1.9s-3.8-2.1-5.3-3.9
				c-1.5-1.9-2.2-4.5-2.2-8v0c0-3.1,0.7-5.7,2-7.8c1.4-2.2,3.3-3.8,6-5c2.6-1.1,5.7-1.7,9.4-1.7c1.7,0,3.4,0.2,5.2,0.6
				c1.8,0.4,3.5,1,5.2,1.7c1.7,0.7,3.3,1.6,4.8,2.7l-3.8,7.5c-1.8-1.3-3.7-2.2-5.7-2.9c-2-0.7-3.9-1-5.7-1c-2.7,0-4.8,0.5-6.3,1.3
				c-1.5,0.9-2.2,2.2-2.2,3.8v0c0,1.4,0.4,2.4,1.2,3.2s1.7,1.4,2.9,1.7c1.1,0.4,2.8,0.8,4.8,1.2c0.1,0,0.2,0,0.3,0
				c0.1,0,0.2,0,0.3,0c0.1,0,0.3,0,0.4,0.1c0.1,0,0.2,0.1,0.4,0.1c3,0.6,5.5,1.3,7.5,2.1c2,0.8,3.7,2.2,5,4s2,4.4,2,7.6v0.1
				c0,3-0.7,5.6-2.1,7.7c-1.4,2.1-3.5,3.8-6.2,4.9s-5.9,1.7-9.7,1.7C873.3,1114,871.1,1113.8,868.9,1113.3z"/>
			<path class="st1" d="M901.7,1066.2h8.9v47.3h-8.9V1066.2z M904.9,1066.2h28.5v8.6h-28.5V1066.2z M904.9,1085.8h24.9v8.6h-24.9
				V1085.8z M904.9,1104.9h28.5v8.6h-28.5V1104.9z"/>
			<path class="st1" d="M941.5,1066.2h8.9v47.3h-8.9V1066.2z M945,1085.9h16.5c0.9,0,1.7-0.2,2.4-0.7c0.7-0.5,1.2-1.1,1.6-2
				c0.4-0.8,0.6-1.8,0.6-2.9c0-1.1-0.2-2.1-0.6-2.9c-0.4-0.8-0.9-1.5-1.6-2c-0.7-0.5-1.5-0.7-2.4-0.7H945v-8.6h17.2
				c2.6,0,4.9,0.6,6.9,1.8c2,1.2,3.5,2.8,4.6,5c1.1,2.1,1.6,4.6,1.6,7.4c0,2.8-0.5,5.3-1.6,7.4s-2.6,3.8-4.6,5
				c-2,1.2-4.3,1.8-6.8,1.8H945V1085.9z M955,1093l9.5-1.5l12.7,22h-10.8L955,1093z"/>
			<path class="st1" d="M1003.4,1066.2h6.6v47.3h-6.6V1066.2z M1007.3,1107.4h12.8c3.4,0,5.8-0.6,7.3-1.9c1.5-1.3,2.3-3.1,2.3-5.4
				v-0.1c0-1.6-0.3-3-0.8-4.1c-0.6-1.1-1.4-2-2.6-2.6c-1.2-0.6-2.7-0.9-4.6-0.9h-14.4v-6h14.4c2.4,0,4.3-0.6,5.5-1.7
				c1.2-1.1,1.9-2.8,1.9-5.1c0-2.4-0.7-4.1-2.1-5.3c-1.4-1.2-3.5-1.8-6.2-1.8h-13.5v-6.1h14.7c3.1,0,5.6,0.5,7.7,1.6
				c2.1,1,3.6,2.5,4.6,4.4c1,1.9,1.5,4.2,1.5,6.8c0,1.6-0.3,3.1-0.9,4.6c-0.6,1.4-1.6,2.6-2.9,3.6c-1.3,1-2.9,1.7-4.8,2
				c1.9,0.3,3.6,1,4.9,2c1.4,1.1,2.4,2.4,3.2,4c0.7,1.6,1.1,3.3,1.1,5.2v0.1c0,2.6-0.6,4.8-1.7,6.8c-1.1,2-2.7,3.5-4.8,4.5
				c-2.1,1.1-4.6,1.6-7.3,1.6h-15.3V1107.4z"/>
			<path class="st1" d="M1046.4,1066.2h6.6v47.3h-6.6V1066.2z M1049.7,1107.2h27.1v6.3h-27.1V1107.2z"/>
			<path class="st1" d="M1097.5,1066.2h5.7l17.4,47.3h-7.2l-13.1-38.1l-13.1,38.1h-7.2L1097.5,1066.2z M1088.1,1096.8h24.9v6.3
				h-24.9V1096.8z"/>
			<path class="st1" d="M1134.5,1111.8c-2.5-1.5-4.4-3.5-5.8-6.2c-1.4-2.7-2-5.8-2-9.3v-13c0-3.5,0.7-6.6,2-9.3
				c1.4-2.7,3.3-4.7,5.8-6.2c2.5-1.5,5.4-2.2,8.6-2.2c2.7,0,5.2,0.6,7.5,1.7c2.3,1.2,4.2,2.8,5.7,4.9c1.5,2.1,2.6,4.6,3.1,7.4h-6.8
				c-0.4-1.5-1.1-2.8-2.1-4c-1-1.2-2.1-2.1-3.4-2.7s-2.6-0.9-4-0.9c-1.9,0-3.6,0.5-5.1,1.4c-1.5,0.9-2.6,2.2-3.4,3.9
				c-0.8,1.7-1.2,3.6-1.2,5.9v13c0,2.2,0.4,4.2,1.2,5.9c0.8,1.7,1.9,3,3.4,3.9c1.5,0.9,3.1,1.4,5.1,1.4c1.4,0,2.8-0.3,4-0.9
				c1.3-0.6,2.4-1.5,3.4-2.6c1-1.1,1.7-2.5,2.1-4.1h6.8c-0.5,2.8-1.6,5.3-3.1,7.4c-1.5,2.1-3.4,3.8-5.7,4.9
				c-2.3,1.2-4.8,1.7-7.4,1.7C1139.9,1114,1137,1113.3,1134.5,1111.8z"/>
			<path class="st1" d="M1168.9,1066.2h6.6v47.3h-6.6V1066.2z M1174.1,1092.8l20.9-26.5h8.2l-30,36.5L1174.1,1092.8z M1182,1088.3
				l5.2-4.8l17.9,30.1h-8.1L1182,1088.3z"/>
			<path class="st1" d="M1211.6,1066.2h6.6v47.3h-6.6V1066.2z M1214.9,1107.2h27.1v6.3h-27.1V1107.2z"/>
			<path class="st1" d="M1256.4,1113.5h-6.6v-47.3h6.6V1113.5z"/>
			<path class="st1" d="M1275.9,1113.4c-2-0.4-3.9-1.1-5.7-2s-3.4-2-5-3.3l4.1-5.1c1.8,1.6,3.8,2.7,6,3.5c2.2,0.8,4.5,1.2,7.1,1.2
				c3.4,0,6.1-0.6,8-1.9c1.9-1.3,2.8-3.1,2.8-5.4v0c0-1.6-0.4-3-1.3-3.9c-0.9-1-2-1.7-3.3-2.1c-1.4-0.5-3.1-0.9-5.3-1.3
				c-0.1,0-0.1,0-0.2,0s-0.1,0-0.2,0l-0.5-0.1c-3.2-0.5-5.7-1.2-7.7-1.8s-3.7-1.9-5.1-3.7c-1.4-1.8-2.1-4.4-2.1-7.7v0
				c0-2.9,0.7-5.4,2-7.5s3.2-3.6,5.7-4.7c2.5-1.1,5.5-1.6,9.1-1.6c1.7,0,3.4,0.2,5,0.6c1.6,0.4,3.3,0.9,4.8,1.6s3.2,1.6,4.7,2.7
				l-3.8,5.3c-1.8-1.3-3.6-2.3-5.4-3c-1.8-0.7-3.6-1-5.4-1c-3.2,0-5.7,0.6-7.5,1.9c-1.8,1.3-2.7,3.1-2.7,5.5v0
				c0,1.6,0.5,2.9,1.4,3.8c0.9,0.9,2.1,1.6,3.4,2.1c1.4,0.4,3.3,0.9,5.7,1.4c0.1,0,0.2,0,0.2,0s0.2,0,0.2,0c0.1,0,0.2,0,0.4,0.1
				c0.1,0,0.2,0,0.4,0.1c2.9,0.6,5.3,1.3,7.2,2.1s3.5,2.1,4.8,3.9c1.3,1.8,1.9,4.2,1.9,7.3v0.1c0,2.9-0.7,5.3-2,7.4
				c-1.4,2-3.3,3.6-5.9,4.7c-2.6,1.1-5.7,1.6-9.4,1.6C1280.1,1114,1277.9,1113.8,1275.9,1113.4z"/>
			<path class="st1" d="M1302.6,1066.2h33.4v6.3h-33.4V1066.2z M1316,1070.1h6.6v43.4h-6.6V1070.1z"/>
		</g>
	</g>
</g>
<g>
	<g>
		<g>
			<path class="st1" d="M178.5,1041.3c-2.6-1.4-4.5-3.4-5.9-6c-1.3-2.6-2-5.8-2-9.5v-30.2h8.9v30.4c0,2.7,0.7,4.8,2.2,6.3
				c1.5,1.5,3.5,2.2,6.1,2.2c2.7,0,4.7-0.7,6.2-2.2c1.5-1.5,2.2-3.6,2.2-6.3v-30.4h8.9v30.2c0,3.7-0.7,6.9-2,9.5
				c-1.4,2.6-3.3,4.6-5.9,6c-2.6,1.4-5.7,2.1-9.3,2.1S181,1042.7,178.5,1041.3z"/>
			<path class="st1" d="M223.1,1042.7c-2.2-0.5-4.2-1.1-6.1-2s-3.6-1.9-5.1-3.2l4.1-7.3c1.8,1.5,3.9,2.6,6.3,3.5
				c2.4,0.8,4.8,1.2,7.3,1.2c2.9,0,5.2-0.5,6.8-1.5c1.6-1,2.4-2.4,2.4-4.2v0c0-1.3-0.4-2.3-1.1-3c-0.7-0.7-1.6-1.3-2.8-1.6
				c-1.1-0.3-2.6-0.7-4.4-0.9c-0.1,0-0.1,0-0.2,0c-0.1,0-0.1,0-0.2,0l-0.7-0.1c-3.2-0.5-5.8-1.1-7.9-1.9s-3.8-2.1-5.3-3.9
				c-1.5-1.9-2.2-4.5-2.2-8v0c0-3.1,0.7-5.7,2-7.8c1.4-2.2,3.3-3.8,6-5c2.6-1.1,5.7-1.7,9.4-1.7c1.7,0,3.4,0.2,5.2,0.6
				c1.8,0.4,3.5,1,5.2,1.7c1.7,0.7,3.3,1.6,4.8,2.7l-3.8,7.5c-1.8-1.3-3.7-2.2-5.7-2.9c-2-0.7-3.9-1-5.7-1c-2.7,0-4.8,0.5-6.3,1.3
				c-1.5,0.9-2.2,2.2-2.2,3.8v0c0,1.4,0.4,2.4,1.2,3.2s1.7,1.4,2.9,1.7c1.1,0.4,2.8,0.8,4.8,1.2c0.1,0,0.2,0,0.3,0
				c0.1,0,0.2,0,0.3,0c0.1,0,0.3,0,0.4,0.1c0.1,0,0.2,0.1,0.4,0.1c3,0.6,5.5,1.3,7.5,2.1c2,0.8,3.7,2.2,5,4s2,4.4,2,7.6v0.1
				c0,3-0.7,5.6-2.1,7.7c-1.4,2.1-3.5,3.8-6.2,4.9s-5.9,1.7-9.7,1.7C227.5,1043.4,225.2,1043.2,223.1,1042.7z"/>
			<path class="st1" d="M255.8,995.6h8.9v47.3h-8.9V995.6z M259.1,995.6h28.5v8.6h-28.5V995.6z M259.1,1015.1h24.9v8.6h-24.9V1015.1
				z M259.1,1034.3h28.5v8.6h-28.5V1034.3z"/>
			<path class="st1" d="M295.6,995.6h8.9v47.3h-8.9V995.6z M299.2,1015.3h16.5c0.9,0,1.7-0.2,2.4-0.7c0.7-0.5,1.2-1.1,1.6-2
				c0.4-0.8,0.6-1.8,0.6-2.9c0-1.1-0.2-2.1-0.6-2.9c-0.4-0.8-0.9-1.5-1.6-2c-0.7-0.5-1.5-0.7-2.4-0.7h-16.5v-8.6h17.2
				c2.6,0,4.9,0.6,6.9,1.8c2,1.2,3.5,2.8,4.6,5c1.1,2.1,1.6,4.6,1.6,7.4c0,2.8-0.5,5.3-1.6,7.4s-2.6,3.8-4.6,5
				c-2,1.2-4.3,1.8-6.8,1.8h-17.2V1015.3z M309.1,1022.4l9.5-1.5l12.7,22h-10.8L309.1,1022.4z"/>
			<path class="st1" d="M377.6,995.6h4.6l9.7,37.1l8.4-37.1h6.9l-11.5,47.3h-6.8l-8.7-33l-9.1,33h-6.8l-11.5-47.3h6.9l8.4,37.1
				L377.6,995.6z"/>
			<path class="st1" d="M414,995.6h6.6v47.3H414V995.6z M418.1,1016.5h26.2v6.3h-26.2V1016.5z M440.8,995.6h6.6v47.3h-6.6V995.6z"/>
			<path class="st1" d="M465.8,1042.9h-6.6v-47.3h6.6V1042.9z"/>
			<path class="st1" d="M471,995.6h33.4v6.3H471V995.6z M484.4,999.5h6.6v43.4h-6.6V999.5z"/>
			<path class="st1" d="M509.6,995.6h6.6v47.3h-6.6V995.6z M512.8,995.6h27.2v6.3h-27.2V995.6z M512.8,1016.3h23.6v6.3h-23.6V1016.3
				z M512.8,1036.6h27.2v6.3h-27.2V1036.6z"/>
			<path class="st1" d="M549.4,995.6h6.6v47.3h-6.6V995.6z M552.7,1036.6h27.1v6.3h-27.1V1036.6z"/>
			<path class="st1" d="M594.2,1042.9h-6.6v-47.3h6.6V1042.9z"/>
			<path class="st1" d="M613.6,1042.8c-2-0.4-3.9-1.1-5.7-2s-3.4-2-5-3.3l4.1-5.1c1.8,1.6,3.8,2.7,6,3.5c2.2,0.8,4.5,1.2,7.1,1.2
				c3.4,0,6.1-0.6,8-1.9c1.9-1.3,2.8-3.1,2.8-5.4v0c0-1.6-0.4-3-1.3-3.9c-0.9-1-2-1.7-3.3-2.1c-1.4-0.5-3.1-0.9-5.3-1.3
				c-0.1,0-0.1,0-0.2,0s-0.1,0-0.2,0l-0.5-0.1c-3.2-0.5-5.7-1.2-7.7-1.8s-3.7-1.9-5.1-3.7c-1.4-1.8-2.1-4.4-2.1-7.7v0
				c0-2.9,0.7-5.4,2-7.5s3.2-3.6,5.7-4.7c2.5-1.1,5.5-1.6,9.1-1.6c1.7,0,3.4,0.2,5,0.6c1.6,0.4,3.3,0.9,4.8,1.6s3.2,1.6,4.7,2.7
				l-3.8,5.3c-1.8-1.3-3.6-2.3-5.4-3c-1.8-0.7-3.6-1-5.4-1c-3.2,0-5.7,0.6-7.5,1.9c-1.8,1.3-2.7,3.1-2.7,5.5v0
				c0,1.6,0.5,2.9,1.4,3.8c0.9,0.9,2.1,1.6,3.4,2.1c1.4,0.4,3.3,0.9,5.7,1.4c0.1,0,0.2,0,0.2,0s0.2,0,0.2,0c0.1,0,0.2,0,0.4,0.1
				c0.1,0,0.2,0,0.4,0.1c2.9,0.6,5.3,1.3,7.2,2.1s3.5,2.1,4.8,3.9c1.3,1.8,1.9,4.2,1.9,7.3v0.1c0,2.9-0.7,5.3-2,7.4
				c-1.4,2-3.3,3.6-5.9,4.7c-2.6,1.1-5.7,1.6-9.4,1.6C617.8,1043.4,615.6,1043.2,613.6,1042.8z"/>
			<path class="st1" d="M640.4,995.6h33.4v6.3h-33.4V995.6z M653.7,999.5h6.6v43.4h-6.6V999.5z"/>
		</g>
	</g>
</g>
<path class="st0" d="M1058.5,912.4H465.8c-21.9,0-39.6-17.7-39.6-39.6v-248c0-21.9,17.7-39.6,39.6-39.6h592.8
	c21.9,0,39.6,17.7,39.6,39.6v248C1098.1,894.7,1080.4,912.4,1058.5,912.4z"/>
<path class="st1" d="M488.9,630.9c1.9,2,4.4,3.4,7.1,4.2c0.1,0.6,0.1,1.2,0.1,1.9c0,4-1.7,7.6-4.4,10.1c-1.2,1.1-3.2,0.3-3.2-1.4
	v-15.3C488.6,630.6,488.8,630.7,488.9,630.9z"/>
<path class="st1" d="M490.9,623.7l-4.7-4.7h3.6c0-0.7,0.1-1.3,0.2-2c0.4-2.1,1.4-4,2.8-5.5c2.1-2.2,5.1-3.6,8.5-3.4
	c5.6,0.3,10.1,4.8,10.4,10.4c0.2,3.4-1.3,6.5-3.6,8.6c-1.5,1.4-3.4,2.3-5.5,2.7c-0.6,0.1-1.2,0.1-1.8,0.1c-3,0-5.7-1.2-7.7-3.2
	l1.7-1.7c1.5,1.5,3.6,2.5,6,2.5c0.3,0,0.5,0,0.8,0c2.2-0.2,4.1-1.2,5.5-2.7c1.4-1.6,2.3-3.7,2.2-6c-0.2-4.4-3.7-8-8.1-8.1
	c-2.3-0.1-4.4,0.7-5.9,2.1c-1.5,1.4-2.6,3.3-2.8,5.4c0,0.3-0.1,0.6-0.1,0.9h3.6l-0.8,0.8l-4.1,4.1L490.9,623.7z"/>
<polygon class="st1" points="501.3,619.1 505,621.3 505.6,621.7 505.4,622 504.7,623.2 499.5,620.2 499.5,614.1 501.3,614.1 "/>
<path class="st1" d="M509.6,633.1c0.2,1.3,0.3,2.6,0.3,3.9c0,12.2-7.9,22.5-18.9,26.1c-1.2,0.4-2.5-0.5-2.5-1.8v-2.4
	c0-0.8,0.5-1.5,1.2-1.8c8.2-3,14-10.9,14-20.1c0-0.5,0-1-0.1-1.5C505.9,635.1,507.9,634.2,509.6,633.1z"/>
<path class="st1" d="M509.6,633.1c-1.8,1.1-3.7,2-5.9,2.4c0,0.5,0.1,1,0.1,1.5c0,9.2-5.9,17.1-14,20.1c-0.7,0.3-1.2,1-1.2,1.8v2.4
	c0,1.3,1.3,2.2,2.5,1.8c11-3.6,18.9-13.9,18.9-26.1C509.9,635.7,509.8,634.4,509.6,633.1z M502.5,629.7c2.1-0.3,4-1.3,5.5-2.7
	c-0.3-0.8-0.7-1.6-1-2.4c-1.4,1.5-3.3,2.5-5.5,2.7C501.9,628.2,502.2,628.9,502.5,629.7z M505.4,622c-0.1-0.2-0.3-0.4-0.4-0.7
	l-3.6-2.2v-2.1c-0.6-0.6-1.2-1.1-1.8-1.6v4.7l5.1,3L505.4,622z M495.1,619.8l0.8-0.8h-2C494.3,619.2,494.7,619.5,495.1,619.8z
	 M495.1,612.6c-0.8-0.4-1.5-0.8-2.3-1.1c-1.4,1.5-2.4,3.4-2.8,5.5c0.8,0.3,1.6,0.6,2.3,1C492.6,615.9,493.6,614,495.1,612.6z
	 M496,635.1c-2.7-0.8-5.2-2.3-7.1-4.2c-0.1-0.1-0.3-0.3-0.4-0.4v15.3c0,1.7,2,2.5,3.2,1.4c2.7-2.5,4.4-6.1,4.4-10.1
	C496.1,636.4,496.1,635.7,496,635.1z M479.1,615.8l-11.5,11.5c-0.4,0.4-0.8,0.6-1.3,0.6h-9.5c-1.1,0-1.9,0.9-1.9,1.9v14.5
	c0,1.1,0.9,1.9,1.9,1.9h9.5c0.5,0,1,0.2,1.3,0.6l11.5,11.5c1.2,1.2,3.2,0.3,3.2-1.3v-39.7C482.4,615.4,480.3,614.6,479.1,615.8z"/>
<polygon class="st1" points="501.3,619.1 505,621.3 505.6,621.7 505.4,622 504.7,623.2 499.5,620.2 499.5,614.1 501.3,614.1 "/>
<path class="st1" d="M508,627.1c-1.5,1.4-3.4,2.3-5.5,2.7c-0.6,0.1-1.2,0.1-1.8,0.1c-3,0-5.7-1.2-7.7-3.2l1.7-1.7
	c1.5,1.5,3.6,2.5,6,2.5c0.3,0,0.5,0,0.8,0c2.2-0.2,4.1-1.2,5.5-2.7c1.4-1.6,2.3-3.7,2.2-6c-0.2-4.4-3.7-8-8.1-8.1
	c-2.3-0.1-4.4,0.7-5.9,2.1c-1.5,1.4-2.6,3.3-2.8,5.4c0,0.3-0.1,0.6-0.1,0.9h3.6l-0.8,0.8l-4.1,4.1l-0.1-0.2l-4.7-4.7h3.6
	c0-0.7,0.1-1.3,0.2-2c0.4-2.1,1.4-4,2.8-5.5c2.1-2.2,5.1-3.6,8.5-3.4c5.6,0.3,10.1,4.8,10.4,10.4C511.8,621.9,510.4,625,508,627.1z"
	/>
<path class="st1" d="M488.5,630.4c0.1,0.1,0.3,0.3,0.4,0.4h-0.4V630.4z"/>
<polygon class="st1" points="501.3,619.1 505,621.3 505.6,621.7 505.4,622 504.7,623.2 499.5,620.2 499.5,614.1 501.3,614.1 "/>
<path class="st1" d="M508,627.1c-1.5,1.4-3.4,2.3-5.5,2.7c-0.6,0.1-1.2,0.1-1.8,0.1c-3,0-5.7-1.2-7.7-3.2l1.7-1.7
	c1.5,1.5,3.6,2.5,6,2.5c0.3,0,0.5,0,0.8,0c2.2-0.2,4.1-1.2,5.5-2.7c1.4-1.6,2.3-3.7,2.2-6c-0.2-4.4-3.7-8-8.1-8.1
	c-2.3-0.1-4.4,0.7-5.9,2.1c-1.5,1.4-2.6,3.3-2.8,5.4c0,0.3-0.1,0.6-0.1,0.9h3.6l-0.8,0.8l-4.1,4.1l-0.1-0.2l-4.7-4.7h3.6
	c0-0.7,0.1-1.3,0.2-2c0.4-2.1,1.4-4,2.8-5.5c2.1-2.2,5.1-3.6,8.5-3.4c5.6,0.3,10.1,4.8,10.4,10.4C511.8,621.9,510.4,625,508,627.1z"
	/>
<path class="st1" d="M505,621.3l-3.6-2.2v-5h-1.8v6l5.1,3l0.8-1.3l0.2-0.3L505,621.3z M511.6,618.5c-0.3-5.6-4.8-10.1-10.4-10.4
	c-3.3-0.2-6.4,1.2-8.5,3.4c-1.4,1.5-2.4,3.4-2.8,5.5c-0.1,0.6-0.2,1.3-0.2,2h-3.6l4.7,4.7l0.1,0.2l4.1-4.1l0.8-0.8h-3.6
	c0-0.3,0-0.6,0.1-0.9c0.2-2.1,1.3-4.1,2.8-5.4c1.6-1.4,3.7-2.2,5.9-2.1c4.4,0.2,8,3.7,8.1,8.1c0.1,2.3-0.8,4.5-2.2,6
	c-1.4,1.5-3.3,2.5-5.5,2.7c-0.3,0-0.5,0-0.8,0c-2.3,0-4.5-1-6-2.5l-1.7,1.7c2,2,4.7,3.2,7.7,3.2c0.6,0,1.2,0,1.8-0.1
	c2.1-0.3,4-1.3,5.5-2.7C510.4,625,511.8,621.9,511.6,618.5z M505,621.3c0.2,0.2,0.3,0.4,0.4,0.7l0.2-0.3L505,621.3z M501.3,614.1
	h-1.8v1.4c0.6,0.5,1.2,1,1.8,1.6V614.1z"/>
<g>
	<g>
		<g>
			<path class="st1" d="M537.5,621.8h4.5l7.1,23.1l7.1-23.1h4.5l-9.6,29.5h-3.9L537.5,621.8z"/>
			<path class="st1" d="M569.3,650.2c-1.6-0.9-2.8-2.2-3.6-3.8c-0.9-1.6-1.3-3.5-1.3-5.7v-8.4c0-2.2,0.4-4.1,1.3-5.7
				c0.9-1.6,2.1-2.9,3.6-3.8c1.6-0.9,3.4-1.3,5.4-1.3s3.9,0.5,5.4,1.3c1.6,0.9,2.8,2.2,3.6,3.8c0.9,1.6,1.3,3.5,1.3,5.7v8.4
				c0,2.2-0.4,4.1-1.3,5.7c-0.9,1.6-2.1,2.9-3.6,3.8c-1.6,0.9-3.4,1.3-5.4,1.3S570.9,651.1,569.3,650.2z M578,646.7
				c0.9-0.5,1.6-1.3,2.2-2.3c0.5-1,0.8-2.2,0.8-3.5v-8.6c0-1.3-0.3-2.5-0.8-3.5c-0.5-1-1.2-1.8-2.2-2.3s-2-0.8-3.2-0.8
				s-2.3,0.3-3.2,0.8s-1.6,1.3-2.2,2.3c-0.5,1-0.8,2.2-0.8,3.5v8.6c0,1.3,0.3,2.5,0.8,3.5c0.5,1,1.2,1.8,2.2,2.3
				c0.9,0.5,2,0.8,3.2,0.8S577,647.2,578,646.7z"/>
			<path class="st1" d="M596,651.3h-4.1v-29.5h4.1V651.3z"/>
			<path class="st1" d="M607.5,650.2c-1.5-0.9-2.8-2.2-3.6-3.9c-0.9-1.7-1.3-3.6-1.3-5.8v-8.1c0-2.2,0.4-4.1,1.3-5.8s2.1-3,3.6-3.9
				c1.5-0.9,3.3-1.4,5.4-1.4c1.7,0,3.2,0.4,4.7,1.1s2.6,1.7,3.6,3.1c1,1.3,1.6,2.9,1.9,4.6h-4.2c-0.3-0.9-0.7-1.7-1.3-2.5
				s-1.3-1.3-2.1-1.7c-0.8-0.4-1.7-0.6-2.5-0.6c-1.2,0-2.3,0.3-3.2,0.9c-0.9,0.6-1.6,1.4-2.1,2.4c-0.5,1-0.8,2.3-0.8,3.7v8.1
				c0,1.4,0.3,2.6,0.8,3.7c0.5,1.1,1.2,1.9,2.1,2.4c0.9,0.6,2,0.9,3.2,0.9c0.9,0,1.7-0.2,2.5-0.5c0.8-0.4,1.5-0.9,2.1-1.6
				c0.6-0.7,1-1.6,1.3-2.6h4.2c-0.3,1.7-1,3.3-1.9,4.6c-1,1.3-2.2,2.4-3.6,3.1c-1.4,0.7-3,1.1-4.6,1.1
				C610.9,651.6,609.1,651.1,607.5,650.2z"/>
			<path class="st1" d="M629,621.8h4.1v29.5H629V621.8z M631,621.8h16.9v3.9H631V621.8z M631,634.6h14.7v3.9H631V634.6z M631,647.3
				h16.9v3.9H631V647.3z"/>
			<path class="st1" d="M669.3,650.2c-1.5-0.9-2.8-2.2-3.6-3.9c-0.9-1.7-1.3-3.6-1.3-5.8v-8.1c0-2.2,0.4-4.1,1.3-5.8s2.1-3,3.6-3.9
				c1.5-0.9,3.3-1.4,5.4-1.4c1.7,0,3.2,0.4,4.7,1.1s2.6,1.7,3.6,3.1c1,1.3,1.6,2.9,1.9,4.6h-4.2c-0.3-0.9-0.7-1.7-1.3-2.5
				s-1.3-1.3-2.1-1.7c-0.8-0.4-1.7-0.6-2.5-0.6c-1.2,0-2.3,0.3-3.2,0.9c-0.9,0.6-1.6,1.4-2.1,2.4c-0.5,1-0.8,2.3-0.8,3.7v8.1
				c0,1.4,0.3,2.6,0.8,3.7c0.5,1.1,1.2,1.9,2.1,2.4c0.9,0.6,2,0.9,3.2,0.9c0.9,0,1.7-0.2,2.5-0.5c0.8-0.4,1.5-0.9,2.1-1.6
				c0.6-0.7,1-1.6,1.3-2.6h4.2c-0.3,1.7-1,3.3-1.9,4.6c-1,1.3-2.2,2.4-3.6,3.1c-1.4,0.7-3,1.1-4.6,1.1
				C672.6,651.6,670.8,651.1,669.3,650.2z"/>
			<path class="st1" d="M690.7,621.8h4.1v29.5h-4.1V621.8z M693.3,634.8h16.4v3.9h-16.4V634.8z M707.5,621.8h4.1v29.5h-4.1V621.8z"
				/>
			<path class="st1" d="M727,621.8h3.5l10.9,29.5h-4.5l-8.2-23.8l-8.2,23.8h-4.5L727,621.8z M721.1,640.9h15.5v3.9h-15.5V640.9z"/>
			<path class="st1" d="M745.8,621.8h3.8l14.4,22.8l-0.5,0.5v-23.3h4.1v29.5h-3.8l-14.4-22.5l0.5-0.5v23h-4.1V621.8z"/>
			<path class="st1" d="M774.9,621.8h3.8l14.4,22.8l-0.5,0.5v-23.3h4.1v29.5h-3.8l-14.4-22.5l0.5-0.5v23h-4.1V621.8z"/>
			<path class="st1" d="M804,621.8h4.1v29.5H804V621.8z M806,621.8H823v3.9H806V621.8z M806,634.6h14.7v3.9H806V634.6z M806,647.3
				H823v3.9H806V647.3z"/>
			<path class="st1" d="M828.9,621.8h4.1v29.5h-4.1V621.8z M831,647.3h16.9v3.9H831V647.3z"/>
		</g>
	</g>
</g>
<g>
	<g>
		<g>
			<path class="st1" d="M648.6,719.8h3.5l10.9,29.5h-4.5l-8.2-23.8l-8.2,23.8h-4.5L648.6,719.8z M642.7,738.9h15.5v3.9h-15.5V738.9z
				"/>
			<path class="st1" d="M667.5,719.8h3.8l14.4,22.8l-0.5,0.5v-23.3h4.1v29.5h-3.8l-14.4-22.5l0.5-0.5v23h-4.1V719.8z"/>
			<path class="st1" d="M692.5,719.8h20.8v3.9h-20.8V719.8z M700.8,722.2h4.1v27.1h-4.1V722.2z"/>
			<path class="st1" d="M720.9,748.2c-1.6-0.9-2.8-2.2-3.6-3.8c-0.9-1.6-1.3-3.5-1.3-5.7v-8.4c0-2.2,0.4-4.1,1.3-5.7
				c0.9-1.6,2.1-2.9,3.6-3.8c1.6-0.9,3.4-1.3,5.4-1.3s3.9,0.5,5.4,1.3c1.6,0.9,2.8,2.2,3.6,3.8c0.9,1.6,1.3,3.5,1.3,5.7v8.4
				c0,2.2-0.4,4.1-1.3,5.7c-0.9,1.6-2.1,2.9-3.6,3.8c-1.6,0.9-3.4,1.3-5.4,1.3S722.5,749.1,720.9,748.2z M729.5,744.7
				c0.9-0.5,1.6-1.3,2.2-2.3c0.5-1,0.8-2.2,0.8-3.5v-8.6c0-1.3-0.3-2.5-0.8-3.5c-0.5-1-1.2-1.8-2.2-2.3s-2-0.8-3.2-0.8
				s-2.3,0.3-3.2,0.8s-1.6,1.3-2.2,2.3c-0.5,1-0.8,2.2-0.8,3.5v8.6c0,1.3,0.3,2.5,0.8,3.5c0.5,1,1.2,1.8,2.2,2.3
				c0.9,0.5,2,0.8,3.2,0.8S728.6,745.2,729.5,744.7z"/>
			<path class="st1" d="M743.4,719.8h3.8l14.4,22.8l-0.5,0.5v-23.3h4.1v29.5h-3.8L747,726.8l0.5-0.5v23h-4.1V719.8z"/>
		</g>
	</g>
</g>
<circle class="st10" cx="577.7" cy="736.5" r="32.6"/>
<g>
	<g>
		<g>
			<path class="st1" d="M640.7,848.8c-1.3-0.6-2.4-1.5-3.2-2.7l3.4-2.4c0.4,0.7,0.9,1.2,1.6,1.5c0.7,0.4,1.5,0.5,2.5,0.5
				c1.6,0,2.9-0.5,3.7-1.5c0.9-1,1.3-2.4,1.3-4.2v-20.1h4.1V840c0,2-0.4,3.8-1.1,5.2c-0.7,1.4-1.8,2.6-3.1,3.3s-3,1.1-5,1.1
				C643.5,849.7,642,849.4,640.7,848.8z"/>
			<path class="st1" d="M665.9,848.4c-1.6-0.9-2.8-2.2-3.6-3.8c-0.9-1.6-1.3-3.5-1.3-5.7v-8.4c0-2.2,0.4-4.1,1.3-5.7
				c0.9-1.6,2.1-2.9,3.6-3.8s3.4-1.3,5.4-1.3s3.9,0.4,5.4,1.3s2.8,2.2,3.6,3.8c0.9,1.6,1.3,3.5,1.3,5.7v8.4c0,2.2-0.4,4.1-1.3,5.7
				c-0.9,1.6-2.1,2.9-3.6,3.8s-3.4,1.3-5.4,1.3S667.4,849.3,665.9,848.4z M674.5,844.8c0.9-0.5,1.6-1.3,2.2-2.3
				c0.5-1,0.8-2.2,0.8-3.5v-8.6c0-1.3-0.3-2.5-0.8-3.5c-0.5-1-1.2-1.8-2.2-2.3c-0.9-0.5-2-0.8-3.2-0.8s-2.3,0.3-3.2,0.8
				c-0.9,0.5-1.6,1.3-2.2,2.3c-0.5,1-0.8,2.2-0.8,3.5v8.6c0,1.3,0.3,2.5,0.8,3.5c0.5,1,1.2,1.8,2.2,2.3c0.9,0.5,2,0.8,3.2,0.8
				S673.6,845.4,674.5,844.8z"/>
			<path class="st1" d="M688.4,819.9h3.8l14.4,22.8l-0.5,0.5v-23.3h4.1v29.5h-3.8L692,826.9l0.5-0.5v23h-4.1V819.9z"/>
			<path class="st1" d="M725.5,819.9h3.5l10.9,29.5h-4.5l-8.2-23.8l-8.2,23.8h-4.5L725.5,819.9z M719.7,839h15.5v3.9h-15.5V839z"/>
			<path class="st1" d="M744.4,819.9h4.1v29.5h-4.1V819.9z M747,832.9h16.4v3.9H747V832.9z M761.2,819.9h4.1v29.5h-4.1V819.9z"/>
		</g>
	</g>
</g>
<circle class="st8" cx="577.7" cy="836.7" r="32.6"/>
</svg>
