<svg id="Layer_1" data-name="Layer 1" xmlns="http://www.w3.org/2000/svg" viewBox="0 0 1200 600"><defs><style>.cls-1{fill:#fff;}</style></defs><path class="cls-1" d="M600,254.53v-49.4L534.14,271,600,336.86v-49.4a98.87,98.87,0,0,1,98.79,98.79c0,48.9-35.73,89.41-82.32,97.31v33.26A131.66,131.66,0,0,0,600,254.53Z"/><path class="cls-1" d="M501.21,386.25a98.43,98.43,0,0,1,29-69.81l-23.38-23.38a131.71,131.71,0,0,0,76.72,223.76V483.56C536.94,475.66,501.21,435.15,501.21,386.25Z"/><path class="cls-1" d="M423.82,121.75V157.5H411.48V121.75l-26.8-52.21h13.73l19.24,39.69,19.23-39.69h13.74Z"/><path class="cls-1" d="M460.3,69.54h12.34v88H460.3Zm6,0h50.51V81.28H466.28Zm0,38.42h43.86v11.73H466.28Zm0,37.8h50.51V157.5H466.28Z"/><path class="cls-1" d="M558.29,69.54h10.53l32.42,88H587.93l-24.38-71-24.37,71H525.87Zm-17.48,56.93h46.28V138.2H540.81Z"/><path class="cls-1" d="M614.55,69.48h12.34v88H614.55Zm5.38,39.08h30a11.57,11.57,0,0,0,6.23-1.69,11.17,11.17,0,0,0,4.2-4.81,18.11,18.11,0,0,0,0-14.34,11.29,11.29,0,0,0-4.17-4.81,11.53,11.53,0,0,0-6.26-1.69h-30V69.48h29.52a27.55,27.55,0,0,1,13.4,3.15,22,22,0,0,1,8.95,8.92A27.22,27.22,0,0,1,675,94.89a27,27,0,0,1-3.21,13.34,22.22,22.22,0,0,1-9,8.92,27.42,27.42,0,0,1-13.34,3.15H619.93Zm24,9,12.28-2.78,22.5,42.71H664Z"/><path class="cls-1" d="M695.3,69.54h12.34v88H695.3Zm6.17,76.22H751.8V157.5H701.47Z"/><path class="cls-1" d="M788.52,121.75V157.5H776.18V121.75l-26.8-52.21h13.74l19.23,39.69,19.24-39.69h13.73Z"/></svg>